<svg version="1.2" xmlns="http://www.w3.org/2000/svg" viewBox="0 0 438 409" width="438" height="409">
	<title>صورة رقم4-svg</title>
	<style>
		.s0 { fill: #ebebeb } 
		.s1 { fill: #263238 } 
		.s2 { fill: #ffffff } 
		.s3 { fill: #c7c7c7 } 
		.s4 { fill: #1b4071 } 
		.s5 { opacity: .5;fill: #ffffff } 
		.s6 { fill: #455a64 } 
		.s7 { fill: #dbdbdb } 
		.s8 { fill: #a6a6a6 } 
		.s9 { fill: #37474f } 
		.s10 { fill: #f7a9a0 } 
		.s11 { opacity: .1;fill: #000000 } 
		.s12 { fill: #e6a36e } 
		.s13 { fill: #cc8a58 } 
		.s14 { fill: #edaa76 } 
		.s15 { fill: #ff98b9 } 
	</style>
	<path id="Layer" class="s0" d="m249.1 408.4c103.9 0 188.2-11.1 188.2-24.9 0-13.7-84.3-24.9-188.2-24.9-103.9 0-188.2 11.2-188.2 24.9 0 13.8 84.3 24.9 188.2 24.9z"/>
	<path id="Layer" class="s0" d="m56.1 380.9c30.2 0 54.6-4.7 54.6-10.4 0-5.8-24.4-10.5-54.6-10.5-30.1 0-54.5 4.7-54.5 10.5 0 5.7 24.4 10.4 54.5 10.4z"/>
	<path id="Layer" class="s1" d="m7 339.8l54.1-0.3 54.1-0.1 108.3-0.2 108.3 0.2 54.1 0.1 54.1 0.3-54.1 0.2-54.1 0.1-108.3 0.2-108.3-0.2-54.1-0.1z"/>
	<path id="Layer" fill-rule="evenodd" class="s1" d="m273.5 1.3c2 0.8 3.9 2.1 5.4 3.7 1.6 1.5 2.8 3.4 3.6 5.4 0.8 2.1 1.2 4.3 1.2 6.5v338.8c0.1 4.4-1.7 8.7-4.8 11.9-3.1 3.2-7.4 5-11.8 5h-164.6c-4.5 0-8.7-1.8-11.8-5-3.2-3.2-4.9-7.5-4.8-11.9v-338.8c-0.1-2.2 0.3-4.4 1.2-6.5 0.8-2 2-3.9 3.6-5.4 1.5-1.6 3.4-2.9 5.4-3.7 2-0.9 4.2-1.3 6.4-1.4h164.6c2.2 0.1 4.3 0.5 6.4 1.4zm-0.2 28.4c0-16.6-6.7-19-14.9-19h-29.5c-1.7 0-3.1 1.9-3.1 4.4v1c0 5.6-3.1 5.6-6.9 5.6h-68.2c-3.9 0-7 0-7-5.6v-1.1c0-2.4-1.3-4.3-3-4.3h-29.5c-8.3 0-15 0.9-15 19v315.5c0 8.9 6.7 16.1 15 16.1h147.2c8.2 0 14.9-7.2 14.9-16.1z"/>
	<path id="Layer" class="s2" d="m273.3 32.9v312.3c0 8.9-6.7 16.1-14.9 16.1h-147.2c-8.3 0-15-7.2-15-16.1v-312.3c0-18.2 6.7-22.2 15-22.2h29.5c1.7 0 3 1.9 3 4.3v1.1c0 5.6 3.1 5.6 7 5.6h68.2c3.8 0 6.9 0 6.9-5.6v-1c0-2.5 1.4-4.4 3.1-4.4h29.5c8.2 0 14.9 5.5 14.9 22.2z"/>
	<path id="Layer" class="s2" d="m194.1 14.7h-18.6q-0.2 0-0.5-0.1-0.2-0.1-0.3-0.2-0.2-0.2-0.3-0.4-0.1-0.2-0.1-0.5 0-0.2 0.1-0.4 0.1-0.2 0.3-0.4 0.1-0.1 0.3-0.2 0.3-0.1 0.5-0.1h18.6c0.3 0 0.6 0.1 0.8 0.3 0.2 0.2 0.3 0.5 0.3 0.8 0 0.4-0.1 0.6-0.3 0.9-0.2 0.2-0.5 0.3-0.8 0.3z"/>
	<path id="Layer" class="s3" d="m194.3 186h-21.5v2.8h21.5z"/>
	<path id="Layer" class="s4" d="m152.5 54h-45.1v45.1h45.1z"/>
	<path id="Layer" class="s5" d="m152.5 54h-45.1v45.1h45.1z"/>
	<path id="Layer" class="s1" d="m134.8 82.4l-5.9-2c0 0-3.1 2.3-5.1-1.6q-1 0.3-2 0.2-1-0.2-1.8-0.7-0.9-0.4-1.5-1.2-0.6-0.8-0.8-1.8c0 0-5.7-1.8-4.1-5 1.7-3.2 6.2 0.2 6.2 0.2 1.3-0.1 2.6 0.3 3.7 1.1 1.1 0.7 2 1.8 2.4 3.1 0 0 4.3 0 4.3 4z"/>
	<path id="Layer" class="s2" d="m116.3 71.5q2.3 1.2 4.7 2.5 2.4 1.3 4.7 2.7c1.6 0.9 3.1 1.8 4.6 2.7 1.6 1 3.1 1.9 4.5 3l-1.1-0.7-1.2-0.7-2.3-1.3-4.7-2.7-4.6-2.7z"/>
	<path id="Layer" class="s1" d="m135.1 82.2l0.1-6.3c0 0 3.2-2.1 0.1-5.3q0.6-0.8 0.8-1.8 0.2-1 0-2-0.2-1-0.7-1.8-0.6-0.8-1.4-1.3c0 0 0.1-6-3.4-5.5-3.6 0.5-1.9 5.9-1.9 5.9-0.4 1.2-0.5 2.6-0.1 3.9 0.3 1.3 1.1 2.5 2.2 3.3 0 0-1.4 4.1 2.3 5.3z"/>
	<path id="Layer" class="s2" d="m130.9 61.1q0.6 2.6 1.1 5.3l1 5.2 1 5.3 0.6 2.7 0.2 1.3 0.3 1.3c-0.5-1.7-0.9-3.5-1.3-5.2q-0.6-2.7-1.1-5.3-0.5-2.7-1-5.3c-0.3-1.8-0.5-3.6-0.8-5.3z"/>
	<path id="Layer" class="s6" d="m135.5 83.2l-5.8-6.1c0 0-4.9 1.2-5.3-4.7 0 0-6.4-0.8-5.6-7.5 0 0-5.9-5.1-2.2-8.2 3.6-3 7.4 3.5 7.4 3.5 1.6 0.6 3 1.8 3.9 3.3 1 1.5 1.4 3.3 1.2 5 0 0 5.1 2.3 3.1 7.1z"/>
	<path id="Layer" class="s2" d="m120.3 60q2.2 2.7 4.2 5.5l1 1.4 1.1 1.5q0.5 0.7 0.9 1.4 0.5 0.7 1 1.4 1 1.5 1.9 3l0.9 1.4 0.4 0.8 0.5 0.7q1.7 3 3.3 6.1l-0.4-0.8-0.5-0.7-0.4-0.8-0.5-0.7-0.9-1.5-0.9-1.4q-1.8-3-3.7-5.9-0.9-1.4-1.9-2.8l-1-1.5-1-1.4-1.9-2.8q-1.1-1.5-2.1-2.9z"/>
	<path id="Layer" class="s2" d="m144.9 83q0.1 0.2 0.3 0.4c2.8 4.5-0.9 8.1-1.1 9.7-0.1 1.6 1.2 2.7 0.5 3.2-0.8 0.6-1.3-1-3-1.4-1.2-0.3-4.4 1.1-7.4-0.5q-0.3-0.1-0.7-0.4-0.7-0.6-1.3-1.3-0.2-0.2-0.3-0.4l-0.2-0.2c-1.1-1.5-1.7-3.3-1.6-5.1q0-0.6 0.1-1.1c0.4-2 1.6-3.8 3.4-4.9 2.8-2 6.4-2.5 9.4 0.1q0.3 0.2 0.6 0.5 0.6 0.6 1.1 1.3z"/>
	<path id="Layer" class="s7" d="m137.6 91.1l0.5 0.6-3.9 2.7q-0.3-0.1-0.7-0.4z"/>
	<path id="Layer" class="s7" d="m134.4 90.2l0.4 0.6-2.6 1.9q-0.2-0.2-0.3-0.4l-0.2-0.2z"/>
	<path id="Layer" class="s7" d="m144.9 83q0.1 0.2 0.3 0.4l-2.7 1.9-0.4-0.6 2.6-1.9z"/>
	<path id="Layer" class="s7" d="m143.6 81.5l-1.9 1.4-0.4-0.6 1.8-1.3q0.2 0.3 0.5 0.5z"/>
	<path id="Layer" class="s7" d="m132.3 84.4l0.4 0.6-2.6 1.9q0-0.5 0.1-1.1z"/>
	<path id="Layer" fill-rule="evenodd" class="s8" d="m121.7 102.8q0.1 0 0.2 0 0 0.1 0 0.2v0.3c0.6 0 1.1 0.2 1.5 0.6q0 0 0.1 0 0 0.1 0 0.2 0 0 0 0.1-0.1 0-0.1 0-0.1 0.1-0.2 0.1 0-0.1-0.1-0.1-0.5-0.4-1.2-0.5v2.3c1.3 0.2 1.8 0.7 1.8 1.5q0 0.3-0.2 0.6-0.1 0.3-0.4 0.5-0.2 0.2-0.5 0.3-0.3 0.1-0.7 0.1v0.7q0 0 0 0.1-0.1 0.1-0.2 0.1-0.1 0-0.1-0.1-0.1-0.1-0.1-0.1v-0.7c-0.7 0-1.3-0.3-1.8-0.8q-0.1 0-0.1-0.1 0 0 0-0.1 0 0 0.1-0.1 0-0.1 0.1-0.1 0 0 0.1 0 0 0.1 0 0.1c0.5 0.4 1 0.7 1.6 0.7v-2.2c-1.2-0.3-1.7-0.8-1.7-1.6q0-0.3 0.2-0.6 0.1-0.3 0.4-0.5 0.2-0.2 0.5-0.3 0.3-0.1 0.6-0.1v-0.3q0 0 0-0.1 0 0 0.1 0 0-0.1 0-0.1 0.1 0 0.1 0zm-0.2 0.8c-0.8 0-1.3 0.5-1.3 1 0 0.6 0.3 1 1.3 1.3zm0.4 2.7v2.3c0.8 0 1.4-0.5 1.4-1.1 0-0.6-0.3-0.9-1.4-1.2z"/>
	<path id="Layer" class="s8" d="m124.7 108.7l2.7-2.4q0.2-0.3 0.4-0.5 0.1-0.3 0.1-0.6c0-0.4-0.2-0.8-0.4-1.1-0.3-0.3-0.7-0.4-1.1-0.4-0.4 0-0.7 0.1-1 0.4l-0.3 0.2q0 0 0 0.1-0.1 0-0.1 0-0.1 0-0.1 0 0-0.1-0.1-0.1 0 0 0 0 0-0.1 0-0.1 0-0.1 0-0.1 0 0 0-0.1l0.3-0.2c0.4-0.3 0.8-0.5 1.3-0.5 0.5 0 1 0.2 1.3 0.5 0.4 0.4 0.6 0.9 0.6 1.4q0 0.4-0.2 0.7-0.2 0.4-0.5 0.7l-2.3 2h2.8q0 0 0.1 0 0 0 0 0.1 0.1 0 0.1 0 0 0.1 0 0.1 0 0.1-0.1 0.1 0 0.1-0.1 0.1h-3.3q0 0 0 0-0.1 0-0.1 0 0-0.1 0-0.2 0-0.1 0-0.1z"/>
	<path id="Layer" class="s8" d="m130.2 108.2q0.2 0 0.3 0.1 0.1 0.1 0.1 0.3 0 0.2-0.1 0.3-0.1 0.1-0.3 0.1-0.2 0-0.3-0.1-0.1-0.1-0.1-0.3 0-0.2 0.1-0.3 0.1-0.1 0.3-0.1z"/>
	<path id="Layer" class="s8" d="m131.6 108.4q0 0-0.1 0 0-0.1 0-0.1 0-0.1 0-0.1 0.1 0 0.1-0.1 0 0 0.1 0 0.1 0 0.2 0c0.3 0.3 0.7 0.5 1.1 0.5 0.4 0 0.8-0.2 1-0.5 0.3-0.3 0.5-0.7 0.5-1.1q0-0.3-0.1-0.5-0.1-0.3-0.3-0.6c-0.3-0.2-0.7-0.4-1.1-0.4-0.4 0-0.8 0.2-1.1 0.5q0 0-0.1 0 0 0-0.1 0 0 0 0 0-0.1 0-0.1 0 0-0.1 0-0.1 0 0 0-0.1l0.3-2.3q0 0 0-0.1 0 0 0 0 0.1-0.1 0.2 0h2.7q0 0 0.1 0 0.1 0.1 0.1 0.2 0 0.1-0.1 0.1-0.1 0.1-0.1 0.1h-2.6l-0.2 1.7c0.3-0.2 0.8-0.3 1.2-0.3 0.4 0.1 0.8 0.3 1.1 0.6 0.4 0.3 0.6 0.8 0.6 1.4 0 0.5-0.2 1-0.6 1.3-0.3 0.4-0.8 0.6-1.3 0.6q-0.4 0-0.8-0.2-0.4-0.2-0.6-0.5z"/>
	<path id="Layer" fill-rule="evenodd" class="s8" d="m136.5 106.2c0-0.8 0.2-1.4 0.6-2q0.2-0.4 0.6-0.7 0.3-0.2 0.8-0.2 0.4 0 0.8 0.2 0.4 0.3 0.6 0.7c0.4 0.6 0.6 1.3 0.6 2 0 0.7-0.2 1.4-0.6 2q-0.2 0.4-0.6 0.6-0.4 0.2-0.8 0.2-0.5 0-0.8-0.2-0.4-0.2-0.6-0.6c-0.4-0.6-0.6-1.3-0.6-2zm0.4 0c0 0.6 0.2 1.2 0.5 1.7q0.2 0.3 0.5 0.5 0.3 0.2 0.6 0.2 0.3 0 0.6-0.2 0.3-0.2 0.5-0.5c0.3-0.5 0.5-1.1 0.5-1.7 0-0.7-0.2-1.3-0.5-1.8q-0.2-0.3-0.5-0.5-0.3-0.2-0.6-0.2-0.3 0-0.6 0.2-0.3 0.2-0.5 0.5c-0.3 0.5-0.5 1.1-0.5 1.8z"/>
	<path id="Layer" class="s4" d="m205.8 54h-45.1v45.1h45.1z"/>
	<path id="Layer" class="s5" d="m205.8 54h-45.1v45.1h45.1z"/>
	<path id="Layer" class="s2" d="m191.2 82.6c5.7 5.8 11.5 11.9 11.5 11.9q-0.3 0.7-0.8 1.3-0.6 0.5-1.3 0.6l-11.6-11.7-0.6-0.6-0.4-0.4-1.2-1.2-0.4-0.4-2.3-2.4-0.5-0.4c-2.3-2.4-4.1-4.1-4.6-4.7-2.5-2.6-15.1-8.1-15.1-8.1 0 0-1.1-0.6 0.3-2.4 0 0 4.9 2.3 9.4 4.7l-10.6-6.8q0-0.6 0.2-1 0.3-0.5 0.7-0.8l6.1 4-5.5-5.3c0 0 0.2-0.8 1.6-1.5l9.5 9.8-6.7-8.9c0.4-0.5 0.9-1 1.6-1.2 0 0 4.1 6.2 9.9 14l-6.1-10.4q0.3-0.3 0.7-0.6 0.5-0.2 0.9-0.2c0 0 4.8 11.4 9.9 17.3l0.4 0.4q0.2 0.3 0.5 0.6l1.8 1.8 0.4 0.4 1.2 1.2 0.4 0.4z"/>
	<path id="Layer" class="s6" d="m176 59.9c0 0 4.8 11.4 9.8 17.3l-2.2 2c-2.3-2.3-4.1-4.1-4.6-4.6-2.5-2.7-15.1-8.1-15.1-8.1 0 0-1.1-0.7 0.3-2.4 0 0 4.9 2.3 9.4 4.6l-10.6-6.7q0-0.6 0.2-1 0.3-0.5 0.7-0.8l6.1 4-5.5-5.3c0 0 0.2-0.8 1.6-1.5l9.5 9.8-6.7-8.9c0.4-0.5 0.9-1 1.6-1.2 0 0 4.1 6.2 9.9 14l-6.1-10.4q0.3-0.3 0.7-0.6 0.5-0.2 1-0.2z"/>
	<path id="Layer" class="s6" d="m188.6 80l-2.1 2.1-2.4-2.4 2.1-2.1q0.3 0.3 0.5 0.6z"/>
	<path id="Layer" class="s6" d="m190.2 81.6l-2.2 2.1-1.2-1.2 2.2-2.1z"/>
	<path id="Layer" class="s6" d="m191.2 82.6l-2.2 2.1-0.6-0.6 2.2-2z"/>
	<path id="Layer" fill-rule="evenodd" class="s8" d="m175.5 102.8q0.1 0 0.1 0 0.1 0.1 0.1 0.2v0.3c0.5 0 1 0.2 1.4 0.6q0.1 0 0.1 0 0.1 0.1 0.1 0.2 0 0-0.1 0.1-0.1 0.1-0.1 0.1-0.1 0-0.1 0-0.1-0.1-0.1-0.1-0.5-0.4-1.2-0.5v2.3c1.2 0.2 1.7 0.7 1.7 1.5q0 0.3-0.1 0.6-0.2 0.3-0.4 0.5-0.3 0.2-0.6 0.3-0.3 0.1-0.6 0.1v0.7q0 0-0.1 0.1 0 0.1-0.1 0.1-0.1 0-0.1-0.1-0.1-0.1-0.1-0.1v-0.7c-0.7 0-1.3-0.3-1.8-0.8q-0.1 0-0.1-0.1 0 0 0-0.1 0 0 0-0.1 0.1-0.1 0.2-0.1 0 0 0 0 0.1 0.1 0.1 0.1c0.4 0.4 1 0.7 1.6 0.7v-2.2c-1.2-0.3-1.7-0.8-1.7-1.6q0-0.3 0.1-0.6 0.2-0.3 0.4-0.5 0.2-0.2 0.5-0.3 0.4-0.1 0.7-0.1v-0.3q0-0.1 0-0.1 0 0 0-0.1 0.1 0 0.1 0 0.1 0 0.1 0zm-0.2 3.1v-2.3c-0.3 0-0.6 0.1-0.9 0.3-0.2 0.2-0.4 0.4-0.4 0.7 0 0.7 0.3 1 1.3 1.3zm0.3 2.8c0.9 0 1.4-0.5 1.4-1.2 0-0.6-0.3-0.8-1.4-1.1z"/>
	<path id="Layer" class="s8" d="m179.4 103.9l-0.8 0.4h-0.1q0 0-0.1 0 0 0 0-0.1-0.1 0-0.1 0 0-0.1 0-0.1 0 0 0.1-0.1 0 0 0 0l1.1-0.7q0.1 0 0.2 0 0.1 0 0.1 0.1 0 0.1 0 0.1v5.3q0 0.1-0.1 0.1 0 0.1-0.1 0.1-0.1 0-0.1-0.1-0.1 0-0.1-0.1z"/>
	<path id="Layer" class="s8" d="m181.9 108.2q0.1 0 0.1 0 0.1 0.1 0.2 0.1 0 0.1 0.1 0.2 0 0 0 0.1 0 0.1 0 0.2-0.1 0.1-0.1 0.1-0.1 0.1-0.2 0.1 0 0-0.1 0-0.1 0-0.2 0-0.1 0-0.1-0.1-0.1 0-0.1-0.1 0-0.1 0-0.2 0-0.2 0.1-0.3 0.1-0.1 0.3-0.1z"/>
	<path id="Layer" fill-rule="evenodd" class="s8" d="m183.1 106.2c-0.1-0.8 0.1-1.4 0.5-2q0.2-0.4 0.6-0.7 0.4-0.2 0.8-0.2 0.5 0 0.9 0.2 0.3 0.3 0.6 0.7c0.3 0.6 0.5 1.2 0.5 2 0 0.7-0.2 1.4-0.5 2q-0.3 0.3-0.6 0.6-0.4 0.2-0.9 0.2-0.4 0-0.8-0.2-0.4-0.3-0.6-0.6c-0.4-0.6-0.6-1.3-0.5-2zm0.4 0c-0.1 0.6 0.1 1.2 0.4 1.7q0.2 0.3 0.5 0.5 0.3 0.2 0.6 0.2 0.4 0 0.7-0.2 0.3-0.2 0.4-0.5c0.4-0.5 0.5-1.1 0.5-1.7 0-0.7-0.1-1.3-0.5-1.8q-0.1-0.3-0.4-0.5-0.3-0.2-0.7-0.2-0.3 0-0.6 0.2-0.3 0.2-0.5 0.5c-0.3 0.5-0.4 1.1-0.4 1.8z"/>
	<path id="Layer" fill-rule="evenodd" class="s8" d="m188.9 106.2c0-0.8 0.2-1.4 0.5-2q0.3-0.4 0.6-0.7 0.4-0.2 0.9-0.2 0.4 0 0.8 0.2 0.4 0.3 0.6 0.7c0.4 0.6 0.6 1.2 0.6 2 0 0.7-0.2 1.4-0.6 2q-0.2 0.3-0.6 0.6-0.4 0.2-0.8 0.2-0.5 0-0.9-0.2-0.3-0.3-0.6-0.6c-0.3-0.6-0.5-1.3-0.5-2zm0.4 0c0 0.6 0.1 1.2 0.5 1.7q0.1 0.4 0.4 0.5 0.3 0.2 0.7 0.2 0.3 0 0.6-0.2 0.3-0.1 0.5-0.5c0.3-0.5 0.5-1.1 0.5-1.7 0-0.7-0.2-1.3-0.5-1.8q-0.2-0.3-0.5-0.5-0.3-0.2-0.6-0.2-0.4 0-0.7 0.2-0.3 0.2-0.4 0.5c-0.4 0.5-0.5 1.1-0.5 1.8z"/>
	<path id="Layer" class="s4" d="m259.1 54h-45.1v45.1h45.1z"/>
	<path id="Layer" class="s5" d="m259.1 54h-45.1v45.1h45.1z"/>
	<path id="Layer" class="s2" d="m223.2 82c3.5 11.5 14.4 10.1 17.4 9.1 3.1-0.9 12.9-5.8 9.3-17.3-3.5-11.5-15-8.8-17.1-8.2-2.3 0.8-13.1 5-9.6 16.4z"/>
	<path id="Layer" class="s6" d="m233.8 67.2c0 0 0.4 4.3 8 1.7 0.1 0-5.1-5.4-8-1.7z"/>
	<path id="Layer" class="s6" d="m234.5 69c0 0 3.6 0.2 2.6-6.3 0 0-5.2 3.4-2.6 6.3z"/>
	<path id="Layer" class="s6" d="m234.2 67.8c0 0-1.2 3.4-6.7-0.2 0 0 5.2-3.3 6.7 0.2z"/>
	<path id="Layer" class="s6" d="m234 67c0 0-3.3 2.8 3.1 7.7 0 0 1.6-7.3-3.1-7.7z"/>
	<path id="Layer" class="s6" d="m233.7 67.6c0 0-4.8-1.3-4.2 6.9 0 0 7.3-2.6 4.2-6.9z"/>
	<path id="Layer" class="s1" d="m234.5 68.6c0.1-1.3-0.1-2.7-0.6-4-0.6-1.3-1.4-2.4-2.4-3.3-0.6 0-1.2 0.3-1.7 0.7-0.4 0.3-0.7 0.9-0.9 1.5 0 0 4.2 2.2 4.4 6l1-0.6"/>
	<path id="Layer" fill-rule="evenodd" class="s8" d="m228.9 102.8q0.1 0 0.1 0 0.1 0.1 0.1 0.2v0.3c0.5 0 1.1 0.2 1.5 0.6q0 0 0 0 0.1 0.1 0.1 0.2 0 0-0.1 0.1 0 0-0.1 0 0 0.1-0.1 0.1 0-0.1-0.1-0.1-0.5-0.4-1.2-0.5v2.3c1.2 0.2 1.8 0.7 1.8 1.5q-0.1 0.3-0.2 0.6-0.1 0.3-0.4 0.5-0.2 0.2-0.5 0.3-0.4 0.1-0.7 0.1v0.7q0 0-0.1 0.1 0 0.1-0.1 0.1-0.1 0-0.1-0.1-0.1-0.1-0.1-0.1v-0.7c-0.7 0-1.3-0.3-1.8-0.8q-0.1 0-0.1-0.1 0 0 0-0.1 0 0 0-0.1 0.1-0.1 0.2-0.1 0 0 0.1 0 0 0.1 0 0.1c0.5 0.4 1 0.7 1.6 0.7v-2.2c-1.2-0.3-1.7-0.8-1.7-1.6q0-0.3 0.2-0.6 0.1-0.3 0.3-0.5 0.3-0.2 0.6-0.3 0.3-0.1 0.6-0.1v-0.3q0 0 0-0.1 0 0 0.1 0 0-0.1 0-0.1 0.1 0 0.1 0zm-0.2 0.8c-0.8 0-1.3 0.5-1.3 1 0 0.6 0.3 1 1.3 1.3zm0.4 5c0.8 0 1.3-0.5 1.3-1.1 0-0.6-0.2-0.9-1.3-1.2z"/>
	<path id="Layer" class="s8" d="m232.9 103.9l-0.9 0.4h-0.1q0 0-0.1 0 0 0 0-0.1-0.1 0-0.1 0 0-0.1 0-0.1 0.1 0 0.1-0.1 0 0 0 0l1.1-0.7q0.1 0 0.2 0 0 0 0.1 0 0 0.1 0 0.1 0.1 0.1 0 0.1v5.3q0 0.1 0 0.1-0.1 0.1-0.1 0.1-0.1 0-0.2-0.1 0 0 0-0.1z"/>
	<path id="Layer" class="s8" d="m235.3 108.2q0.2 0 0.3 0.1 0.1 0.1 0.1 0.3 0 0.2-0.1 0.3-0.1 0.1-0.3 0.1-0.2 0-0.3-0.1-0.1-0.1-0.1-0.3 0-0.2 0.1-0.3 0.1-0.1 0.3-0.1z"/>
	<path id="Layer" class="s8" d="m236.7 108.4q-0.1 0-0.1 0 0-0.1 0-0.1 0-0.1 0-0.1 0 0 0.1-0.1 0 0 0.1 0 0.1 0 0.2 0c0.3 0.3 0.7 0.5 1.1 0.5 0.4 0 0.8-0.2 1-0.5 0.3-0.3 0.5-0.7 0.5-1.1q0-0.3-0.1-0.5-0.1-0.3-0.4-0.6c-0.2-0.2-0.6-0.4-1-0.4-0.4 0-0.8 0.2-1.1 0.5q-0.1 0-0.1 0 0 0-0.1 0 0 0-0.1 0 0 0 0 0 0-0.1-0.1-0.1 0 0 0-0.1l0.3-2.3q0-0.1 0.1-0.1 0-0.1 0.1-0.1h2.7q0.1 0 0.1 0.1 0.1 0 0.1 0.1 0 0.1-0.1 0.2 0 0-0.1 0h-2.5l-0.2 1.7c0.4-0.2 0.8-0.3 1.2-0.2 0.4 0 0.8 0.2 1.1 0.5 0.4 0.4 0.6 0.9 0.6 1.4 0 0.5-0.2 1-0.6 1.4-0.3 0.3-0.8 0.6-1.3 0.6q-0.4-0.1-0.8-0.2-0.4-0.2-0.6-0.5z"/>
	<path id="Layer" fill-rule="evenodd" class="s8" d="m241.6 106.2c0-0.8 0.2-1.4 0.6-2q0.2-0.4 0.6-0.7 0.3-0.2 0.8-0.2 0.4 0 0.8 0.2 0.4 0.3 0.6 0.7c0.4 0.6 0.6 1.3 0.6 2 0 0.7-0.2 1.4-0.6 2q-0.2 0.4-0.6 0.6-0.4 0.2-0.8 0.2-0.5 0-0.8-0.2-0.4-0.2-0.6-0.6c-0.4-0.6-0.6-1.3-0.6-2zm0.4 0c0 0.6 0.2 1.2 0.5 1.7q0.2 0.3 0.5 0.5 0.2 0.2 0.6 0.2 0.3 0 0.6-0.2 0.3-0.2 0.5-0.5c0.3-0.5 0.5-1.1 0.5-1.7 0-0.7-0.2-1.3-0.5-1.8q-0.2-0.3-0.5-0.5-0.3-0.2-0.6-0.2-0.4 0-0.7 0.2-0.2 0.2-0.4 0.5c-0.4 0.5-0.5 1.1-0.5 1.8z"/>
	<path id="Layer" class="s4" d="m152.5 119.8h-45.1v45.1h45.1z"/>
	<path id="Layer" class="s5" d="m152.5 119.8h-45.1v45.1h45.1z"/>
	<path id="Layer" class="s2" d="m142.5 138.6v22.2c0 1.4-2.8 2.2-12.1 2.2-9.3 0-12-0.8-12-2.2v-22.2c0-6 6.5-9.8 6.5-11v-4.5h11.1v4.5c0 1.2 6.5 5 6.5 11z"/>
	<path id="Layer" class="s9" d="m136.6 121.1h-12.3v3.7h12.3z"/>
	<path id="Layer" class="s9" d="m142.5 144.4h-24.1v12.1h24.1z"/>
	<path id="Layer" fill-rule="evenodd" class="s8" d="m121.3 169q0.1 0 0.1 0 0.1 0.1 0.1 0.1v0.4c0.5 0 1 0.2 1.5 0.6q0 0 0 0 0.1 0.1 0.1 0.1 0 0.1-0.1 0.2 0 0-0.1 0 0 0.1-0.1 0 0 0-0.1 0-0.5-0.5-1.2-0.5v2.3c1.2 0.2 1.7 0.7 1.7 1.5q0 0.3-0.1 0.6-0.2 0.3-0.4 0.5-0.3 0.2-0.6 0.3-0.3 0.1-0.6 0.1v0.6q0 0.1-0.1 0.2 0 0-0.1 0-0.1 0-0.1 0-0.1-0.1-0.1-0.2v-0.6c-0.7-0.1-1.3-0.3-1.9-0.8q0 0 0-0.1 0 0 0-0.1 0-0.1 0-0.1 0.1-0.1 0.2-0.1 0.1 0 0.1 0.1c0.4 0.4 1 0.7 1.6 0.7v-2.3c-1.2-0.3-1.7-0.7-1.7-1.5q0-0.4 0.1-0.7 0.2-0.2 0.4-0.4 0.3-0.3 0.6-0.4 0.3-0.1 0.6 0v-0.4q0 0 0.1-0.1 0 0 0.1 0zm-0.2 0.8c-0.8 0-1.3 0.5-1.3 1 0 0.6 0.3 1 1.3 1.3zm0.4 5c0.8 0 1.3-0.5 1.3-1.1 0-0.7-0.3-0.9-1.3-1.1z"/>
	<path id="Layer" class="s8" d="m127.8 169.8l-1.5 1.6q0.5 0.1 0.9 0.4 0.4 0.4 0.6 0.9 0.1 0.5 0 1-0.2 0.6-0.5 0.9c-0.4 0.4-0.9 0.6-1.4 0.6-0.5 0-1-0.2-1.4-0.6q0 0 0-0.1 0-0.1 0-0.1 0.1-0.1 0.2-0.1 0 0 0.1 0.1c0.3 0.2 0.7 0.4 1.1 0.4 0.4 0 0.8-0.2 1.1-0.4q0.2-0.3 0.3-0.5 0.1-0.3 0.1-0.6c0-0.4-0.1-0.8-0.4-1.1-0.3-0.3-0.7-0.5-1.1-0.5q-0.1 0-0.1 0 0 0-0.1 0 0-0.1 0-0.2 0-0.1 0-0.1l1.4-1.5h-2.2q0 0-0.1-0.1-0.1 0-0.1-0.1 0-0.1 0.1-0.2 0.1 0 0.1 0h2.7q0.1 0 0.2 0 0 0.1 0 0.2 0 0 0 0.1z"/>
	<path id="Layer" class="s8" d="m129.9 174.4q0.1 0 0.2 0 0.1 0.1 0.1 0.1 0.1 0.1 0.1 0.2 0.1 0 0 0.1 0 0.2-0.1 0.3-0.1 0.1-0.3 0.1-0.1 0-0.3-0.1-0.1-0.1-0.1-0.3 0-0.1 0.1-0.1 0-0.1 0-0.2 0.1 0 0.2-0.1 0.1 0 0.1 0z"/>
	<path id="Layer" fill-rule="evenodd" class="s8" d="m131.2 172.4c-0.1-0.8 0.1-1.5 0.5-2.1q0.2-0.4 0.6-0.6 0.4-0.3 0.9-0.3 0.4 0 0.8 0.3 0.4 0.2 0.6 0.6c0.4 0.6 0.6 1.3 0.5 2.1 0.1 0.7-0.1 1.3-0.5 2q-0.2 0.4-0.6 0.6-0.4 0.2-0.8 0.2-0.5 0-0.9-0.2-0.4-0.2-0.6-0.6c-0.4-0.6-0.6-1.3-0.5-2zm0.4 0c0 0.6 0.1 1.2 0.5 1.7q0.1 0.3 0.4 0.5 0.3 0.2 0.7 0.2 0.3 0 0.6-0.2 0.3-0.2 0.4-0.5c0.4-0.6 0.5-1.2 0.5-1.8 0-0.6-0.1-1.2-0.5-1.8q-0.1-0.3-0.4-0.5-0.3-0.1-0.7-0.2-0.3 0.1-0.6 0.2-0.3 0.2-0.5 0.5c-0.3 0.6-0.5 1.2-0.5 1.9z"/>
	<path id="Layer" fill-rule="evenodd" class="s8" d="m136.9 172.4c0-0.8 0.2-1.5 0.6-2.1q0.2-0.4 0.6-0.6 0.4-0.3 0.8-0.3 0.5 0 0.9 0.3 0.3 0.2 0.6 0.6c0.3 0.6 0.5 1.3 0.5 2.1 0 0.7-0.2 1.3-0.5 2q-0.2 0.4-0.6 0.6-0.4 0.2-0.9 0.2-0.4 0-0.8-0.2-0.4-0.2-0.6-0.6c-0.4-0.6-0.6-1.3-0.6-2zm0.4 0c0 0.6 0.2 1.2 0.5 1.7q0.2 0.3 0.5 0.5 0.3 0.2 0.6 0.2 0.4 0 0.7-0.2 0.3-0.2 0.4-0.5c0.3-0.5 0.5-1.1 0.5-1.8 0-0.6-0.2-1.2-0.5-1.7q-0.1-0.3-0.4-0.5-0.3-0.2-0.7-0.2-0.3 0-0.6 0.2-0.3 0.2-0.5 0.5c-0.3 0.5-0.5 1.1-0.5 1.8z"/>
	<path id="Layer" class="s4" d="m205.8 119.8h-45.1v45.1h45.1z"/>
	<path id="Layer" class="s5" d="m205.8 119.8h-45.1v45.1h45.1z"/>
	<path id="Layer" class="s2" d="m192.9 129.6h-18.8v33.3h18.8z"/>
	<path id="Layer" class="s2" d="m192.9 129.6h-18.8v33.3h18.8z"/>
	<path id="Layer" class="s6" d="m192.9 141.9h-18.8v14h18.8z"/>
	<path id="Layer" class="s2" d="m192.9 129.6h-18.8l2.3-4.6h14.2z"/>
	<path id="Layer" class="s7" d="m192.9 129.6h-18.8l2.3-4.6h14.2z"/>
	<path id="Layer" class="s2" d="m190.6 121.1h-14.2v3.9h14.2z"/>
	<path id="Layer" fill-rule="evenodd" class="s8" d="m174.8 169q0.1 0 0.1 0 0.1 0.1 0.1 0.1v0.4c0.5 0 1 0.2 1.4 0.6q0.1 0 0.1 0 0.1 0.1 0.1 0.1 0 0.1-0.1 0.2 0 0-0.1 0 0 0.1-0.1 0-0.1 0-0.1 0-0.5-0.5-1.2-0.5v2.3c1.2 0.2 1.7 0.7 1.7 1.5q0 0.3-0.1 0.6-0.2 0.3-0.4 0.5-0.3 0.2-0.6 0.3-0.3 0.1-0.6 0.1v0.6q0 0.1-0.1 0.2 0 0-0.1 0-0.1 0-0.1 0-0.1-0.1-0.1-0.2v-0.6c-0.7-0.1-1.3-0.3-1.8-0.8q-0.1 0-0.1-0.1 0 0 0-0.1 0-0.1 0-0.1 0.1-0.1 0.2-0.1 0.1 0 0.1 0.1c0.4 0.4 1 0.7 1.6 0.7v-2.3c-1.2-0.3-1.7-0.7-1.7-1.5q0-0.4 0.1-0.7 0.2-0.2 0.4-0.5 0.3-0.2 0.6-0.3 0.3-0.1 0.6 0v-0.4q0 0 0.1-0.1 0 0 0.1 0zm-0.2 0.8c-0.3 0-0.6 0-0.9 0.2-0.2 0.2-0.4 0.5-0.4 0.8 0 0.7 0.3 1 1.3 1.3zm0.4 5c0.8 0 1.3-0.5 1.3-1.1 0-0.7-0.3-0.9-1.3-1.1z"/>
	<path id="Layer" class="s8" d="m177.8 174.9l2.7-2.5c0.3-0.2 0.4-0.6 0.4-1 0.1-0.3-0.1-0.7-0.3-1q-0.2-0.2-0.5-0.4-0.3-0.1-0.6-0.1c-0.4 0-0.8 0.1-1 0.4l-0.3 0.2q-0.1 0.1-0.2 0.1 0 0-0.1-0.1 0 0 0-0.1 0-0.1 0-0.1l0.3-0.3c0.4-0.3 0.8-0.5 1.3-0.5 0.5 0 0.9 0.2 1.3 0.6 0.3 0.3 0.5 0.8 0.5 1.3q0 0.4-0.1 0.7-0.2 0.4-0.5 0.7l-2.3 2h2.7q0.1 0 0.2 0.1 0.1 0 0.1 0.1 0 0.1-0.1 0.2-0.1 0-0.2 0h-3.2q0 0-0.1 0 0 0 0 0-0.1-0.1-0.1-0.1 0 0 0-0.1 0 0 0-0.1 0.1 0 0.1 0z"/>
	<path id="Layer" class="s8" d="m183.3 174.4q0.1 0 0.1 0 0.1 0.1 0.2 0.1 0 0.1 0.1 0.2 0 0 0 0.1 0 0.1 0 0.2-0.1 0-0.1 0.1-0.1 0.1-0.2 0.1 0 0-0.1 0-0.1 0-0.2 0-0.1 0-0.1-0.1-0.1-0.1-0.1-0.1 0-0.1 0-0.2 0-0.1 0-0.1 0-0.1 0.1-0.2 0 0 0.1-0.1 0.1 0 0.2 0z"/>
	<path id="Layer" class="s8" d="m184.7 174.6q-0.1 0-0.1 0 0-0.1 0-0.1 0 0 0-0.1 0 0 0.1 0 0-0.1 0.1-0.1 0.1 0 0.2 0.1c0.2 0.2 0.6 0.4 1 0.4 0.4 0 0.8-0.2 1.1-0.4 0.3-0.3 0.4-0.7 0.4-1.1q0-0.3-0.1-0.6-0.1-0.3-0.3-0.5c-0.3-0.3-0.7-0.5-1.1-0.5-0.4 0-0.8 0.2-1.1 0.5q-0.1 0-0.1 0-0.1 0-0.2 0 0 0 0-0.1 0 0 0 0l0.2-2.4q0 0 0.1 0 0-0.1 0-0.1 0 0 0.1-0.1 0 0 0.1 0h2.6q0.1 0 0.2 0.1 0 0.1 0 0.1 0 0.1 0 0.1 0 0.1 0 0.1 0 0-0.1 0 0 0.1-0.1 0h-2.5l-0.2 1.8q0.5-0.3 1.1-0.3c0.5 0 1 0.2 1.3 0.6 0.4 0.3 0.6 0.8 0.6 1.3q0 0.4-0.2 0.8-0.1 0.3-0.4 0.6c-0.3 0.4-0.8 0.6-1.4 0.6q-0.4 0-0.7-0.2-0.4-0.2-0.6-0.5z"/>
	<path id="Layer" fill-rule="evenodd" class="s8" d="m189.6 172.4c0-0.8 0.1-1.5 0.5-2.1q0.3-0.4 0.6-0.6 0.4-0.2 0.9-0.3 0.4 0.1 0.8 0.3 0.4 0.2 0.6 0.6c0.4 0.6 0.6 1.3 0.6 2.1 0 0.7-0.2 1.4-0.6 2q-0.2 0.3-0.6 0.6-0.4 0.2-0.8 0.2-0.5 0-0.9-0.2-0.3-0.3-0.6-0.6c-0.3-0.6-0.5-1.3-0.5-2zm0.4 0c0 0.6 0.1 1.2 0.5 1.7q0.1 0.3 0.4 0.5 0.3 0.2 0.7 0.2 0.3 0 0.6-0.2 0.3-0.2 0.5-0.5c0.3-0.5 0.4-1.1 0.4-1.8 0-0.6-0.1-1.2-0.4-1.7q-0.2-0.3-0.5-0.5-0.3-0.2-0.6-0.2-0.4 0-0.7 0.2-0.3 0.2-0.4 0.5c-0.4 0.5-0.5 1.1-0.5 1.8z"/>
	<path id="Layer" class="s4" d="m259.1 119.8h-45.1v45.1h45.1z"/>
	<path id="Layer" class="s5" d="m259.1 119.8h-45.1v45.1h45.1z"/>
	<path id="Layer" class="s2" d="m245.3 138.6v22.2c0 1.4-2 2.2-8.7 2.2-6.7 0-8.7-0.8-8.7-2.2v-22.2c0-6 4.7-9.8 4.7-11v-4.5h8v4.5c0 1.2 4.7 5 4.7 11z"/>
	<path id="Layer" class="s6" d="m241 121.1h-8.8v3.7h8.8z"/>
	<path id="Layer" class="s7" d="m242.8 146.1h-12.4v8.7h12.4z"/>
	<path id="Layer" fill-rule="evenodd" class="s8" d="m227.5 169q0.1 0 0.2 0 0 0.1 0 0.1v0.4c0.5 0 1.1 0.2 1.5 0.6q0 0 0.1 0 0 0.1 0 0.1 0 0.1-0.1 0.2 0 0 0 0-0.1 0.1-0.2 0 0 0-0.1 0-0.5-0.5-1.2-0.5v2.3c1.2 0.2 1.8 0.7 1.8 1.5q0 0.3-0.2 0.6-0.1 0.3-0.4 0.5-0.2 0.2-0.5 0.3-0.4 0.1-0.7 0.1v0.6q0 0.1 0 0.2-0.1 0-0.2 0-0.1 0-0.1 0-0.1-0.1-0.1-0.2v-0.6c-0.7-0.1-1.3-0.3-1.8-0.8q-0.1 0-0.1-0.1 0 0 0-0.1 0-0.1 0.1-0.1 0-0.1 0.1-0.1 0.1 0 0.1 0.1c0.5 0.4 1 0.7 1.6 0.7v-2.3c-1.2-0.3-1.7-0.7-1.7-1.5q0-0.4 0.2-0.7 0.1-0.2 0.3-0.4 0.3-0.3 0.6-0.4 0.3-0.1 0.6 0v-0.4q0 0 0.1-0.1 0 0 0.1 0zm-0.2 0.8c-0.8 0-1.3 0.5-1.3 1 0 0.6 0.3 1 1.3 1.3zm0.4 5c0.8 0 1.4-0.5 1.4-1.1 0-0.7-0.3-0.9-1.4-1.1z"/>
	<path id="Layer" class="s8" d="m230.5 174.9l2.7-2.5q0.2-0.2 0.4-0.5 0.1-0.2 0.1-0.6 0-0.4-0.3-0.8-0.2-0.3-0.6-0.5-0.4-0.2-0.8-0.1-0.5 0.1-0.8 0.4l-0.3 0.2q0 0 0 0.1-0.1 0-0.1 0-0.1 0-0.1-0.1 0 0 0 0-0.1 0-0.1-0.1 0 0 0 0 0-0.1 0-0.1 0 0 0.1-0.1l0.2-0.2c0.4-0.4 0.8-0.5 1.3-0.5 0.5 0 1 0.2 1.3 0.5 0.4 0.4 0.6 0.9 0.6 1.3q0 0.4-0.2 0.8-0.1 0.4-0.4 0.6l-2.3 2.1h2.7q0.1 0 0.1 0.1 0.1 0 0.1 0.1 0 0.1-0.1 0.1 0 0.1-0.1 0.1h-3.2q-0.1 0-0.1 0 0 0-0.1-0.1 0 0 0-0.1 0-0.1 0-0.1z"/>
	<path id="Layer" class="s8" d="m236 174.4q0.1 0 0.2 0 0 0.1 0.1 0.1 0 0.1 0.1 0.2 0 0 0 0.1 0 0.2-0.1 0.3-0.1 0.1-0.3 0.1-0.2 0-0.3-0.1-0.1-0.1-0.1-0.3 0-0.1 0-0.1 0-0.1 0.1-0.2 0.1 0 0.1-0.1 0.1 0 0.2 0z"/>
	<path id="Layer" fill-rule="evenodd" class="s8" d="m237.2 172.4c-0.1-0.8 0.1-1.5 0.5-2.1q0.2-0.4 0.6-0.6 0.4-0.3 0.9-0.3 0.4 0 0.8 0.3 0.4 0.2 0.6 0.6c0.4 0.6 0.6 1.3 0.5 2.1 0.1 0.7-0.1 1.3-0.5 2q-0.2 0.4-0.6 0.6-0.4 0.2-0.8 0.2-0.5 0-0.9-0.2-0.4-0.2-0.6-0.6c-0.4-0.6-0.5-1.3-0.5-2zm0.4 0c0 0.6 0.1 1.2 0.5 1.7q0.1 0.3 0.4 0.5 0.3 0.2 0.7 0.2 0.3 0 0.6-0.2 0.3-0.2 0.5-0.5c0.3-0.5 0.4-1.1 0.4-1.8 0-0.6-0.1-1.2-0.4-1.7q-0.2-0.3-0.5-0.5-0.3-0.2-0.6-0.2-0.4 0-0.7 0.2-0.3 0.2-0.4 0.5c-0.4 0.5-0.5 1.1-0.5 1.8z"/>
	<path id="Layer" fill-rule="evenodd" class="s8" d="m243 172.4c0-0.8 0.2-1.5 0.5-2.1q0.3-0.4 0.6-0.6 0.4-0.3 0.9-0.3 0.4 0 0.8 0.3 0.4 0.2 0.6 0.6c0.4 0.6 0.6 1.3 0.6 2.1 0 0.7-0.2 1.3-0.6 2q-0.2 0.4-0.6 0.6-0.4 0.2-0.8 0.2-0.5 0-0.9-0.2-0.3-0.2-0.6-0.6c-0.3-0.6-0.5-1.3-0.5-2zm0.4 0c0 0.6 0.2 1.2 0.5 1.7q0.2 0.3 0.4 0.5 0.3 0.2 0.7 0.2 0.3 0 0.6-0.2 0.3-0.2 0.5-0.5c0.3-0.6 0.5-1.2 0.5-1.8 0-0.6-0.2-1.2-0.5-1.8q-0.2-0.3-0.5-0.5-0.3-0.1-0.6-0.2-0.4 0.1-0.7 0.2-0.3 0.2-0.4 0.5c-0.4 0.6-0.5 1.2-0.5 1.9z"/>
	<path id="Layer" class="s4" d="m152.5 204.3h-45.1v45.1h45.1z"/>
	<path id="Layer" class="s5" d="m152.5 204.3h-45.1v45.1h45.1z"/>
	<path id="Layer" fill-rule="evenodd" class="s2" d="m125.9 212.8v-4.2h7.8v4.2c0 0.8 7.7 2.7 7.7 13.8 0 10.6-4.6 21.2-5 21.2h-13.3c-0.3 0-3.5-12.3-3.5-20.2 0-9.9 6.2-14 6.3-14.8zm12.6 15.1c2.8-1-0.3-11.4-4.1-11.4-3.5 0.1 0.2 12.8 4.1 11.4z"/>
	<path id="Layer" class="s0" d="m130.7 216.5c0.2-2.6-5.6-2-8.1 6.7-1.8 6.5 0.3 20.1 6.9 20.1 7.8 0 8.3-11.5 7.8-12-0.5-0.4-7.6-2.8-6.6-14.8z"/>
	<path id="Layer" class="s6" d="m124.2 211h11l-0.7-4.9h-9.6z"/>
	<path id="Layer" fill-rule="evenodd" class="s8" d="m121.3 255.1q0.1 0 0.1 0 0 0.1 0.1 0.1 0 0 0 0.1 0 0 0 0v0.4c0.5 0 1.1 0.2 1.5 0.5q0 0.1 0.1 0.1 0 0.1 0 0.1 0 0.1 0 0.1 0 0-0.1 0.1 0 0 0 0-0.1 0-0.1 0-0.1 0-0.2 0c-0.3-0.3-0.7-0.5-1.2-0.6v2.3c1.2 0.3 1.8 0.8 1.8 1.6q0 0.3-0.2 0.6-0.1 0.3-0.4 0.5-0.2 0.2-0.5 0.3-0.4 0.1-0.7 0.1v0.6q0 0.1 0 0.1 0 0 0 0.1-0.1 0-0.1 0 0 0-0.1 0-0.1 0-0.1 0-0.1-0.1-0.1-0.2v-0.6c-0.7-0.1-1.3-0.4-1.8-0.8q-0.1-0.1-0.1-0.1 0 0 0-0.1 0-0.1 0-0.1 0.1-0.1 0.2-0.1 0.1 0 0.1 0.1c0.5 0.4 1 0.7 1.6 0.7v-2.3c-1.2-0.3-1.7-0.8-1.7-1.6 0-0.4 0.2-0.8 0.5-1.1 0.4-0.3 0.8-0.4 1.2-0.4v-0.3q0 0 0 0 0-0.1 0.1-0.1 0 0 0 0 0.1-0.1 0.1-0.1zm-0.2 3.1v-2.2c-0.8 0-1.3 0.5-1.3 1.1 0 0.6 0.3 0.9 1.3 1.1zm0.4 2.8c0.8 0 1.3-0.5 1.3-1.1 0-0.7-0.2-0.9-1.3-1.2z"/>
	<path id="Layer" class="s8" d="m124.4 260.8q0 0 0 0 0-0.1 0-0.1 0-0.1 0-0.1 0 0 0-0.1 0.1 0 0.2 0 0.1 0 0.1 0c0.3 0.3 0.7 0.5 1.1 0.5 0.4 0 0.8-0.2 1.1-0.5 0.2-0.3 0.4-0.7 0.4-1.1 0-0.4-0.2-0.8-0.4-1-0.3-0.3-0.7-0.5-1.1-0.5-0.4 0-0.8 0.2-1.1 0.5q0 0-0.1 0 0 0-0.1 0 0 0 0 0-0.1 0-0.1 0 0-0.1-0.1-0.1 0 0 0-0.1l0.3-2.3q0 0 0-0.1 0.1 0 0.1 0 0.1-0.1 0.1-0.1h2.7q0.1 0 0.2 0.1 0 0 0 0.1 0 0.1 0 0.1 0 0 0 0.1-0.1 0-0.1 0-0.1 0-0.1 0h-2.5l-0.2 1.7q0.5-0.2 1-0.2 0.4 0 0.8 0.1 0.3 0.2 0.6 0.4 0.3 0.3 0.4 0.7 0.2 0.3 0.2 0.7 0 0.4-0.2 0.8-0.1 0.3-0.4 0.6c-0.4 0.4-0.9 0.6-1.4 0.6-0.5 0-1-0.2-1.4-0.6z"/>
	<path id="Layer" class="s8" d="m129.9 260.6q0.1 0 0.2 0 0.1 0 0.1 0.1 0.1 0 0.1 0.1 0 0.1 0 0.2 0 0.1-0.1 0.3-0.1 0.1-0.3 0.1-0.2 0-0.3-0.1-0.1-0.2-0.1-0.3 0-0.1 0-0.2 0.1-0.1 0.1-0.1 0.1-0.1 0.2-0.1 0 0 0.1 0z"/>
	<path id="Layer" fill-rule="evenodd" class="s8" d="m131.1 258.5c0-0.7 0.2-1.4 0.5-2q0.3-0.4 0.6-0.7 0.4-0.2 0.9-0.2 0.4 0 0.8 0.2 0.4 0.3 0.6 0.7c0.4 0.6 0.6 1.3 0.6 2 0 0.7-0.2 1.4-0.6 2q-0.2 0.4-0.6 0.6-0.4 0.3-0.8 0.3-0.5 0-0.9-0.3-0.3-0.2-0.6-0.6c-0.3-0.6-0.5-1.3-0.5-2zm0.4 0c0 0.6 0.2 1.3 0.5 1.8q0.2 0.3 0.4 0.5 0.3 0.2 0.7 0.2 0.3 0 0.6-0.2 0.3-0.2 0.5-0.5c0.3-0.5 0.5-1.2 0.5-1.8 0-0.6-0.2-1.2-0.5-1.8q-0.2-0.3-0.5-0.5-0.3-0.1-0.6-0.2-0.4 0.1-0.7 0.2-0.2 0.2-0.4 0.5c-0.3 0.6-0.5 1.2-0.5 1.8z"/>
	<path id="Layer" fill-rule="evenodd" class="s8" d="m136.9 258.5c0-0.7 0.2-1.4 0.6-2q0.2-0.4 0.6-0.7 0.4-0.2 0.8-0.2 0.5 0 0.8 0.2 0.4 0.3 0.6 0.7c0.4 0.6 0.6 1.3 0.6 2 0 0.7-0.2 1.4-0.6 2q-0.2 0.4-0.6 0.6-0.3 0.3-0.8 0.3-0.4 0-0.8-0.3-0.4-0.2-0.6-0.6c-0.4-0.6-0.6-1.3-0.6-2zm0.4 0c0 0.6 0.2 1.3 0.5 1.8q0.2 0.3 0.5 0.5 0.3 0.2 0.6 0.2 0.3 0 0.6-0.2 0.3-0.2 0.5-0.5c0.3-0.5 0.5-1.2 0.5-1.8 0-0.6-0.2-1.2-0.5-1.8q-0.2-0.3-0.5-0.5-0.3-0.1-0.6-0.2-0.3 0.1-0.6 0.2-0.3 0.2-0.5 0.5c-0.3 0.6-0.5 1.2-0.5 1.8z"/>
	<path id="Layer" class="s4" d="m205.8 204.3h-45.1v45.1h45.1z"/>
	<path id="Layer" class="s5" d="m205.8 204.3h-45.1v45.1h45.1z"/>
	<path id="Layer" class="s2" d="m196.4 216h-26c-2.6 0-4.7 2.1-4.7 4.7v15.7c0 2.6 2.1 4.7 4.7 4.7h26c2.6 0 4.7-2.1 4.7-4.7v-15.7c0-2.6-2.1-4.7-4.7-4.7z"/>
	<path id="Layer" class="s6" d="m197.1 212.9h-27.4v3.1h27.4z"/>
	<path id="Layer" class="s6" d="m201.3 222.1h-35.6v12.9h35.6z"/>
	<path id="Layer" class="s2" d="m194.2 228.6c0 3-4.8 5.4-10.8 5.4-5.9 0-10.8-2.4-10.8-5.4 0-3 4.9-5.5 10.8-5.5 6 0 10.8 2.5 10.8 5.5z"/>
	<path id="Layer" fill-rule="evenodd" class="s8" d="m174.5 255.1q0 0 0.1 0 0 0.1 0 0.1 0.1 0 0.1 0.1 0 0 0 0v0.4c0.5 0 1 0.2 1.4 0.5q0.1 0.1 0.1 0.1 0.1 0.1 0.1 0.2-0.1 0-0.1 0.1-0.1 0-0.2 0 0 0-0.1 0c-0.3-0.3-0.8-0.5-1.2-0.6v2.3c1.2 0.3 1.7 0.8 1.7 1.6q0 0.3-0.1 0.6-0.2 0.3-0.4 0.5-0.3 0.2-0.6 0.3-0.3 0.1-0.6 0.1v0.6q0 0.1 0 0.1 0 0-0.1 0.1 0 0 0 0-0.1 0-0.1 0-0.1 0-0.1 0-0.1-0.1-0.1-0.2v-0.6c-0.7-0.1-1.3-0.4-1.9-0.8q0-0.1 0-0.1 0 0 0-0.1 0-0.1 0-0.1 0.1-0.1 0.2-0.1 0 0 0.1 0.1c0.4 0.4 1 0.7 1.6 0.7v-2.3c-1.2-0.3-1.7-0.8-1.7-1.6 0-0.4 0.2-0.8 0.5-1.1 0.3-0.3 0.8-0.4 1.2-0.4v-0.3q0 0 0 0 0-0.1 0.1-0.1 0 0 0 0 0-0.1 0.1-0.1zm-0.2 3.1v-2.2c-0.8 0-1.3 0.5-1.3 1.1 0 0.6 0.2 0.9 1.3 1.1zm0.4 2.8c0.8 0 1.3-0.5 1.3-1.1 0-0.7-0.3-0.9-1.3-1.2z"/>
	<path id="Layer" fill-rule="evenodd" class="s8" d="m180.8 260.2h-3.2q0 0-0.1 0 0 0 0-0.1-0.1-0.1-0.1-0.1 0.1-0.1 0.1-0.1l3.3-4.1q0.1 0 0.1-0.1 0 0 0.1 0 0 0 0 0 0.1 0.1 0.1 0.1 0 0 0.1 0.1v3.9h0.4q0 0 0 0 0.1 0.1 0.1 0.1 0.1 0 0.1 0.1 0 0 0 0 0 0.1 0 0.1 0 0.1-0.1 0.1 0 0-0.1 0 0 0.1 0 0h-0.4v1.1q0 0.1-0.1 0.1-0.1 0.1-0.1 0.1-0.1 0-0.2-0.1 0 0 0-0.1zm0-0.4v-3.4l-2.8 3.4z"/>
	<path id="Layer" class="s8" d="m183.6 260.6q0.1 0 0.1 0 0.1 0 0.2 0.1 0 0 0.1 0.1 0 0.1 0 0.2 0 0.1-0.1 0.3-0.2 0.1-0.3 0.1-0.2 0-0.3-0.1-0.1-0.2-0.1-0.3 0-0.1 0-0.2 0-0.1 0.1-0.1 0-0.1 0.1-0.1 0.1 0 0.2 0z"/>
	<path id="Layer" class="s8" d="m185 260.8q-0.1 0-0.1 0 0-0.1 0-0.1 0-0.1 0-0.1 0 0 0.1-0.1 0 0 0.1 0 0.1 0 0.2 0c0.2 0.3 0.6 0.5 1 0.5 0.4 0 0.8-0.2 1.1-0.5q0.2-0.2 0.3-0.5 0.2-0.3 0.2-0.6 0-0.3-0.2-0.5-0.1-0.3-0.3-0.5-0.2-0.3-0.5-0.4-0.3-0.1-0.6-0.1-0.3 0-0.6 0.1-0.2 0.1-0.4 0.4-0.1 0-0.1 0-0.1 0-0.1 0 0 0-0.1 0 0 0 0 0-0.1-0.1-0.1-0.1 0 0 0-0.1l0.3-2.3q0 0 0-0.1 0 0 0.1 0 0-0.1 0.1-0.1h2.7q0 0 0.1 0 0 0 0 0.1 0 0 0.1 0 0 0.1 0 0.1 0 0.1 0 0.1-0.1 0-0.1 0.1 0 0 0 0-0.1 0-0.1 0h-2.6l-0.2 1.7q0.5-0.2 1.1-0.2 0.3 0 0.7 0.1 0.4 0.2 0.6 0.4 0.3 0.3 0.4 0.7 0.2 0.3 0.2 0.7 0 0.4-0.2 0.8-0.1 0.3-0.4 0.6c-0.3 0.4-0.8 0.6-1.4 0.6-0.5 0-1-0.2-1.3-0.6z"/>
	<path id="Layer" fill-rule="evenodd" class="s8" d="m189.9 258.5c0-0.7 0.2-1.4 0.5-2q0.2-0.4 0.6-0.7 0.4-0.2 0.9-0.2 0.4 0 0.8 0.2 0.4 0.3 0.6 0.7c0.4 0.6 0.6 1.3 0.6 2 0 0.7-0.2 1.4-0.6 2q-0.2 0.4-0.6 0.6-0.4 0.3-0.8 0.3-0.5 0-0.9-0.3-0.4-0.2-0.6-0.6c-0.3-0.6-0.5-1.3-0.5-2zm0.4 0c0 0.6 0.1 1.3 0.5 1.8q0.1 0.3 0.4 0.5 0.3 0.2 0.7 0.2 0.3 0 0.6-0.2 0.3-0.2 0.5-0.5c0.3-0.5 0.5-1.2 0.5-1.8 0-0.6-0.2-1.2-0.5-1.8q-0.2-0.3-0.5-0.5-0.3-0.2-0.6-0.2-0.4 0-0.7 0.2-0.3 0.2-0.4 0.5c-0.4 0.6-0.5 1.2-0.5 1.8z"/>
	<path id="Layer" class="s4" d="m259.1 204.3h-45.1v45.1h45.1z"/>
	<path id="Layer" class="s5" d="m259.1 204.3h-45.1v45.1h45.1z"/>
	<path id="Layer" class="s2" d="m247.3 232.9v12h-21.4v-12c0-4.2 1-15.3 10.7-15.3 9.7 0 10.7 11.1 10.7 15.3z"/>
	<path id="Layer" class="s2" d="m247.9 246.4h-22.6c-0.3 0-0.6-0.1-0.8-0.3-0.2-0.2-0.3-0.5-0.3-0.8q0-0.2 0.1-0.4 0-0.2 0.2-0.3 0.2-0.2 0.4-0.3 0.2 0 0.4 0h22.6c0.3 0 0.6 0.1 0.8 0.3 0.2 0.2 0.3 0.5 0.3 0.7 0 0.3-0.1 0.6-0.3 0.8-0.2 0.2-0.5 0.3-0.8 0.3z"/>
	<path id="Layer" class="s2" d="m240 215.2h-6.8v5.2h6.8z"/>
	<path id="Layer" class="s6" d="m240.7 212.7h-8.3v3.3h8.3z"/>
	<path id="Layer" class="s6" d="m238.1 209.4h-3v3.9h3z"/>
	<path id="Layer" class="s6" d="m233.4 208q-0.4 0.2-0.5 0.6-0.2 0.3-0.2 0.7 0 0.4 0.2 0.8 0.2 0.3 0.6 0.5c1 0.6 6.5-0.8 7.1-0.7 0.5 0.1 1.9 0.7 2.1 0.7 0.2 0 0.8-0.3 0.7-0.6-0.9-1-2-1.7-3.3-2-1.4-0.3-5.5-0.9-6.7 0z"/>
	<path id="Layer" fill-rule="evenodd" class="s8" d="m227.8 255.1q0 0 0.1 0 0 0.1 0 0.1 0.1 0 0.1 0.1 0 0 0 0v0.4c0.5 0 1 0.2 1.4 0.5q0.1 0.1 0.1 0.1 0.1 0.1 0.1 0.1 0 0.1-0.1 0.1 0 0 0 0.1 0 0-0.1 0 0 0-0.1 0 0 0-0.1 0c-0.4-0.3-0.8-0.5-1.2-0.6v2.3c1.2 0.3 1.7 0.8 1.7 1.6q0 0.3-0.1 0.6-0.2 0.3-0.4 0.5-0.3 0.2-0.6 0.3-0.3 0.1-0.6 0.1v0.6q0 0.1 0 0.1 0 0-0.1 0.1 0 0 0 0-0.1 0-0.1 0-0.1 0-0.2 0 0-0.1 0-0.2v-0.6c-0.7-0.1-1.4-0.4-1.9-0.8q0-0.1 0-0.1 0 0 0-0.1 0-0.1 0-0.1 0.1-0.1 0.2-0.1 0 0 0.1 0.1c0.4 0.4 1 0.6 1.6 0.7v-2.3c-1.2-0.3-1.7-0.8-1.7-1.6 0-0.4 0.2-0.8 0.5-1.1 0.3-0.3 0.8-0.4 1.2-0.4v-0.3q0 0 0 0 0-0.1 0-0.1 0.1 0 0.1 0 0-0.1 0.1-0.1zm-0.2 3.1v-2.2c-0.8 0-1.3 0.5-1.3 1.1 0 0.6 0.3 0.9 1.3 1.1zm0.4 2.8c0.8 0 1.3-0.5 1.3-1.1 0-0.7-0.3-0.9-1.3-1.2z"/>
	<path id="Layer" class="s8" d="m234.3 256l-1.6 1.5q0.6 0.1 1.1 0.6 0.2 0.2 0.4 0.6 0.1 0.3 0.1 0.7 0 0.4-0.1 0.8-0.2 0.3-0.5 0.6-0.2 0.3-0.6 0.4-0.3 0.2-0.7 0.2-0.4 0-0.8-0.2-0.3-0.1-0.6-0.4 0-0.1 0-0.1 0-0.1 0-0.2 0.1 0 0.1 0 0.1 0 0.2 0c0.3 0.3 0.7 0.5 1.1 0.5 0.4 0 0.8-0.2 1.1-0.5q0.2-0.2 0.3-0.5 0.1-0.3 0.1-0.6c0-0.4-0.1-0.8-0.4-1.1-0.3-0.2-0.7-0.4-1.1-0.4q-0.1 0-0.1 0-0.1 0-0.1-0.1 0 0 0-0.1 0-0.1 0-0.2l1.4-1.4h-2.2q-0.1 0-0.1-0.1-0.1-0.1-0.1-0.2 0 0 0.1-0.1 0-0.1 0.1-0.1h2.7q0.1 0 0.2 0.1 0 0.1 0 0.1 0 0.1 0 0.1z"/>
	<path id="Layer" class="s8" d="m236.4 260.6q0.1 0 0.2 0 0.1 0 0.1 0.1 0.1 0 0.1 0.1 0 0.1 0 0.2 0 0.1-0.1 0.3-0.1 0.1-0.3 0.1-0.1 0-0.3-0.1-0.1-0.2-0.1-0.3 0-0.1 0-0.2 0.1-0.1 0.1-0.1 0.1-0.1 0.2-0.1 0 0 0.1 0z"/>
	<path id="Layer" class="s8" d="m237.8 260.8q0 0 0 0-0.1-0.1-0.1-0.1 0-0.1 0.1-0.1 0 0 0-0.1 0.1 0 0.2 0 0 0 0.1 0c0.3 0.3 0.7 0.5 1.1 0.5 0.4 0 0.7-0.2 1-0.5 0.3-0.3 0.5-0.7 0.5-1.1 0-0.4-0.2-0.8-0.5-1-0.3-0.3-0.7-0.5-1.1-0.5-0.4 0-0.8 0.2-1.1 0.5q0 0 0 0-0.1 0-0.1 0 0 0-0.1 0 0 0 0 0-0.1-0.1-0.1-0.1 0 0 0-0.1l0.3-2.3q0 0 0-0.1 0 0 0.1 0 0-0.1 0.1-0.1h2.7q0.1 0 0.2 0.1 0 0 0 0.1 0 0.1 0 0.1 0 0 0 0.1 0 0-0.1 0 0 0-0.1 0h-2.5l-0.2 1.7q0.5-0.2 1.1-0.2 0.3 0 0.7 0.1 0.4 0.2 0.6 0.4 0.3 0.3 0.4 0.7 0.2 0.3 0.2 0.7 0 0.4-0.2 0.8-0.1 0.3-0.4 0.6c-0.3 0.4-0.8 0.6-1.4 0.6-0.5 0-1-0.2-1.3-0.6z"/>
	<path id="Layer" fill-rule="evenodd" class="s8" d="m242.7 258.5c0-0.7 0.2-1.4 0.6-2q0.2-0.4 0.6-0.7 0.4-0.2 0.8-0.2 0.5 0 0.9 0.2 0.3 0.3 0.6 0.7c0.3 0.6 0.5 1.3 0.5 2 0 0.7-0.2 1.4-0.5 2q-0.3 0.4-0.6 0.6-0.4 0.3-0.9 0.3-0.4 0-0.8-0.3-0.4-0.2-0.6-0.6c-0.4-0.6-0.6-1.3-0.6-2zm0.4 0c0 0.6 0.2 1.3 0.5 1.8q0.2 0.3 0.5 0.5 0.3 0.2 0.6 0.2 0.4 0 0.7-0.2 0.2-0.2 0.4-0.5c0.3-0.5 0.5-1.2 0.5-1.8 0-0.6-0.2-1.2-0.5-1.8q-0.2-0.3-0.4-0.5-0.3-0.1-0.7-0.2-0.3 0.1-0.6 0.2-0.3 0.2-0.5 0.5c-0.3 0.6-0.5 1.2-0.5 1.8z"/>
	<path id="Layer" class="s1" d="m232.7 302.1h-98.4v26.7h98.4z"/>
	<path id="Layer" fill-rule="evenodd" class="s2" d="m149.5 317.3h-2.9l-0.5 1.5q-0.1 0.2-0.3 0.3-0.1 0.1-0.3 0.1-0.2 0-0.3 0-0.2-0.1-0.3-0.3-0.1-0.3-0.1-0.5l2.6-6.9q0.1-0.2 0.3-0.3 0.1-0.1 0.3-0.1 0.2 0 0.4 0.1 0.2 0.1 0.3 0.3l2.5 6.9q0.1 0.2 0 0.5-0.1 0.2-0.3 0.3-0.2 0-0.3 0-0.2 0-0.3-0.1-0.2-0.1-0.3-0.3zm-0.4-1.3l-1-2.5-0.9 2.5z"/>
	<path id="Layer" fill-rule="evenodd" class="s2" d="m152.8 318.6v-6.9q0-0.3 0.2-0.5 0.2-0.2 0.5-0.2h1.4c1 0 2.1 0.5 2.9 1.2 0.7 0.8 1.2 1.8 1.2 2.9 0 1.1-0.5 2.2-1.2 2.9-0.8 0.8-1.9 1.2-2.9 1.2h-1.4q-0.1 0-0.3 0-0.1-0.1-0.2-0.2-0.1-0.1-0.1-0.2-0.1-0.1-0.1-0.2zm1.3-0.7h0.8c0.7 0 1.4-0.3 1.9-0.8 0.6-0.5 0.9-1.2 0.9-2 0-0.7-0.3-1.4-0.9-2-0.5-0.5-1.2-0.8-1.9-0.8h-0.8z"/>
	<path id="Layer" fill-rule="evenodd" class="s2" d="m160.9 318.6v-6.9q0-0.2 0.1-0.3 0-0.1 0.1-0.2 0.1-0.1 0.2-0.1 0.1-0.1 0.3-0.1h1.4c1.1 0 2.1 0.5 2.9 1.2 0.7 0.8 1.2 1.8 1.2 2.9 0 1.1-0.5 2.2-1.2 2.9-0.8 0.8-1.8 1.2-2.9 1.2h-1.5q-0.1 0-0.2 0-0.1-0.1-0.2-0.2-0.1-0.1-0.2-0.2 0-0.1 0-0.2zm1.3-0.7h0.8c0.7 0 1.4-0.3 1.9-0.8 0.6-0.5 0.9-1.2 0.9-2 0-0.7-0.3-1.4-0.9-2-0.5-0.5-1.2-0.8-1.9-0.8h-0.8z"/>
	<path id="Layer" class="s2" d="m177.8 312.3h-1.9v6.3q0.1 0.1 0 0.2 0 0.2-0.1 0.3-0.1 0.1-0.2 0.1-0.2 0.1-0.3 0.1-0.1 0-0.3-0.1-0.1 0-0.2-0.1-0.1-0.1-0.1-0.3-0.1-0.1 0-0.2v-6.3h-1.9q-0.3 0-0.5-0.2-0.1-0.2-0.1-0.4 0-0.3 0.1-0.5 0.2-0.2 0.5-0.2h5q0.3 0 0.4 0.2 0.2 0.2 0.2 0.5 0 0.2-0.2 0.4-0.1 0.2-0.4 0.2z"/>
	<path id="Layer" fill-rule="evenodd" class="s2" d="m186.2 312c0.7 0.8 1.1 1.9 1.1 3 0 1.1-0.4 2.2-1.1 2.9q-0.6 0.6-1.3 1-0.7 0.3-1.5 0.3-0.8 0-1.6-0.3-0.7-0.4-1.3-1c-0.7-0.8-1.1-1.8-1.1-2.9 0-1.1 0.4-2.2 1.1-3q0.6-0.6 1.3-0.9 0.8-0.3 1.6-0.3 0.8 0 1.5 0.3 0.7 0.3 1.3 0.9zm-0.2 3c0-0.8-0.3-1.5-0.8-2.1q-0.3-0.4-0.8-0.6-0.5-0.2-1-0.2-0.6 0-1.1 0.2-0.5 0.2-0.8 0.6c-0.5 0.6-0.8 1.3-0.8 2.1 0 0.8 0.3 1.5 0.8 2q0.3 0.4 0.8 0.7 0.5 0.2 1.1 0.2 0.5 0 1-0.2 0.5-0.3 0.8-0.7c0.5-0.5 0.8-1.2 0.8-2z"/>
	<path id="Layer" class="s2" d="m192.8 315c0-1.1 0.5-2.2 1.3-3 0.8-0.8 1.9-1.2 3-1.2 1 0 1.9 0.3 2.7 0.9q0.1 0.2 0.1 0.4 0 0.3-0.1 0.4-0.2 0.2-0.4 0.3-0.2 0-0.4-0.1c-0.6-0.4-1.2-0.6-1.9-0.6-0.8 0-1.6 0.3-2.1 0.8-0.6 0.6-0.9 1.3-0.9 2.1q0 0.6 0.2 1.1 0.3 0.5 0.7 0.9c0.5 0.6 1.3 0.9 2.1 0.9 0.7 0 1.3-0.2 1.9-0.7q0.2-0.1 0.4-0.1 0.3 0.1 0.5 0.3 0.1 0.2 0.1 0.4 0 0.3-0.2 0.5c-0.8 0.6-1.7 0.9-2.7 0.9-1.1 0-2.2-0.4-3-1.2-0.8-0.8-1.3-1.9-1.3-3z"/>
	<path id="Layer" fill-rule="evenodd" class="s2" d="m206.1 317.3h-2.8l-0.6 1.5q0 0.2-0.2 0.3-0.2 0.1-0.4 0.1-0.1 0-0.2 0-0.2-0.1-0.3-0.3-0.2-0.3-0.1-0.5l2.6-6.9q0.1-0.2 0.3-0.3 0.1-0.1 0.3-0.1 0.2 0 0.4 0.1 0.2 0.1 0.3 0.3l2.5 6.9q0.1 0.2 0 0.5-0.1 0.2-0.4 0.3-0.1 0-0.2 0-0.2 0-0.3-0.1-0.2-0.1-0.3-0.3zm-0.4-1.3l-1-2.5-0.9 2.5z"/>
	<path id="Layer" fill-rule="evenodd" class="s2" d="m214.9 318.2q0.1 0.2 0.1 0.3 0 0.1-0.1 0.2-0.1 0.1-0.1 0.2-0.1 0.1-0.3 0.1-0.1 0.1-0.2 0-0.3 0-0.5-0.1-0.2-0.1-0.3-0.4-0.3-0.7-0.3-1.4 0-0.3-0.1-0.5-0.2-0.2-0.4-0.3-0.3-0.2-0.6-0.3h-1.4v2.5q0 0.3-0.2 0.5-0.2 0.2-0.5 0.2-0.1 0-0.2-0.1-0.1 0-0.2-0.1-0.1-0.1-0.2-0.2 0-0.2 0-0.3v-6.8q0-0.2 0-0.3 0.1-0.1 0.2-0.2 0.1-0.1 0.2-0.1 0.1-0.1 0.2-0.1h2.1c0.5 0 1 0.2 1.4 0.5 0.4 0.3 0.8 0.7 0.9 1.2 0.2 0.5 0.2 1 0.1 1.5-0.1 0.5-0.4 0.9-0.8 1.3q0.2 0.1 0.4 0.4 0.4 0.6 0.4 1.2-0.1 0.4 0 0.7 0.1 0.1 0.3 0.2 0.1 0.1 0.1 0.2zm-1.6-4.7q0-0.2-0.1-0.4-0.1-0.2-0.2-0.4-0.2-0.2-0.4-0.3-0.3-0.1-0.5-0.1h-1.4v2.4h1.4q0.2 0 0.5-0.1 0.2 0 0.3-0.2 0.2-0.2 0.3-0.4 0.1-0.2 0.1-0.5z"/>
	<path id="Layer" class="s2" d="m221.6 312.3h-1.9v6.3q0 0.2-0.1 0.4-0.2 0.2-0.5 0.2-0.3 0-0.5-0.2-0.1-0.2-0.1-0.4v-6.3h-1.9q-0.1 0-0.2 0-0.2-0.1-0.2-0.2-0.1-0.1-0.2-0.2 0-0.1 0-0.2 0-0.2 0-0.3 0.1-0.1 0.2-0.2 0-0.1 0.2-0.1 0.1-0.1 0.2-0.1h5q0.3 0 0.5 0.2 0.1 0.2 0.1 0.5 0 0.2-0.1 0.4-0.2 0.2-0.5 0.2z"/>
	<path id="Layer" class="s10" d="m296.8 391.7c2.2 0.7 65.8-0.1 68.2-1.7 1-0.5 1.4-9.8 1.6-21v-0.4c0-2.3 0-4.7 0.1-7.1q0-0.5 0-1c0-16.2-0.2-33-0.2-33l-42.6 0.4 1.3 32.7v1.3l0.3 6.7v0.7c0 0-24.2 11.3-26.7 13.3-2.4 2-4.3 8.4-2 9.1z"/>
	<path id="Layer" class="s0" d="m296.8 391.7c2.2 0.7 65.8-0.1 68.2-1.7 1-0.5 1.4-9.8 1.6-21v-0.4c0-2.3 0-4.7 0.1-7.1q0-0.5 0-1l-41.5 0.1v1.3l0.3 6.7v0.7c0 0-24.2 11.3-26.7 13.3-2.4 2-4.3 8.4-2 9.1z"/>
	<path id="Layer" class="s4" d="m296.8 391.7c1.4 0.5 26 0.3 45.3-0.2 12.1-0.4 22-0.8 22.9-1.5 1-0.6 1.4-9.6 1.6-20.6q0-0.2 0-0.4v-0.4l-41.1 0.1v0.7c0 0-24.2 11.2-26.7 13.2-2.4 2-4.2 8.4-2 9.1z"/>
	<path id="Layer" class="s1" d="m297.5 389.2c10.7-0.4 54-1 64.6-0.6 0.1 0 0.1 0.1 0 0.1-10.6 0.6-53.9 0.9-64.6 0.7-0.3 0-0.3-0.2 0-0.2z"/>
	<path id="Layer" class="s1" d="m321 368.9c4.2-0.9 9.3-0.3 12.6 2.7 0.1 0.1 0 0.3-0.2 0.2-4-1.2-8.2-2.1-12.4-2.4q-0.1 0-0.2-0.1-0.1-0.1-0.1-0.2 0-0.1 0.1-0.2 0.1 0 0.2 0z"/>
	<path id="Layer" class="s1" d="m317.9 370.7c4.2-0.8 9.4-0.2 12.6 2.7 0.2 0.1 0 0.3-0.1 0.3-4.1-1.3-8.3-2.1-12.5-2.4q-0.1 0-0.2-0.1-0.1-0.1-0.1-0.2 0-0.1 0.1-0.2 0.1-0.1 0.2-0.1z"/>
	<path id="Layer" class="s1" d="m314.9 372.6c4.2-0.8 9.4-0.3 12.6 2.7 0.2 0.1 0 0.3-0.1 0.3-4.1-1.3-8.3-2.1-12.5-2.5q-0.1 0-0.1-0.1-0.1 0-0.1-0.1 0-0.1 0.1-0.2 0-0.1 0.1-0.1z"/>
	<path id="Layer" fill-rule="evenodd" class="s1" d="m315.3 359.7c1.7-2.3 4.8-1.3 6.6 0.2 3 2.5 5.2 5.8 6.6 9.5 0 0.1-0.1 0.2-0.1 0.2q0 0.1-0.1 0.2 0 0.2-0.1 0.2-0.1 0.1-0.2 0.1-0.2 0.1-0.3 0c-3.5-1.2-7.4-2.1-10.4-4.4-1.7-1.3-3.6-3.7-2-6zm7.5 7.5c1.7 0.6 3.4 1.2 5.1 1.9q-1.8-2.9-4-5.5-1-1.3-2.2-2.4c-1.3-1.1-6.3-3.5-5.5 1.1 0.4 2.6 4.6 4.1 6.6 4.9z"/>
	<path id="Layer" fill-rule="evenodd" class="s1" d="m339.2 368.2c-3.4 1.6-7.4 1.6-11.1 2q-0.2 0-0.3-0.1-0.1 0-0.2-0.1 0-0.1-0.1-0.3 0-0.1 0.1-0.2-0.1 0-0.1 0 0-0.1 0-0.1 0 0 0 0 0-0.1 0-0.1c2.1-3.3 5.1-6 8.6-7.8 2.1-1 5.4-1.2 6.4 1.4 1 2.4-1.3 4.4-3.3 5.3zm-5.7 0.1c2.2-0.2 6.5-0.8 7.6-3.1 1.8-4.3-3.6-3.2-5.1-2.3q-1.4 0.8-2.8 1.8c-1.8 1.3-3.4 2.9-5.1 4.4 1.8-0.3 3.6-0.5 5.4-0.7z"/>
	<path id="Layer" class="s1" d="m302.8 380.8c1.2-0.1 2.4 0.1 3.5 0.6 1.1 0.4 2.1 1.1 3 1.9 1.5 1.5 2.4 3.6 2.4 5.7 0 0.1-0.1 0.1-0.1 0-0.4-2.1-1.5-4-3-5.5-1.6-1.5-3.7-2.4-5.8-2.6q0 0-0.1 0 0 0 0-0.1 0 0 0 0 0.1 0 0.1 0z"/>
	<path id="Layer" class="s1" d="m359.4 378.9c4.8 0 4.9 7.5 0 7.5-4.8 0.1-4.9-7.4 0-7.5z"/>
	<path id="Layer" class="s1" d="m342.1 391.5c12.1-0.4 22-0.8 22.9-1.5 1-0.6 1.4-9.6 1.6-20.6-5 4.4-17.3 15.4-24.5 22.1z"/>
	<path id="Layer" class="s6" d="m379.6 144.2c0 0-9.6 107.5-11.2 115.7-0.3 1.9-0.5 12-0.7 25.1-0.3 28.5-0.1 79.9-0.1 79.9h-44.9c0 0 1.4-89 3.3-105.4 2-16.4 14.7-115.3 14.7-115.3z"/>
	<path id="Layer" class="s1" d="m324.8 357.1c7-0.1 4.9-0.2 11.9-0.3 3.5 0 26-0.2 29.2 0.3 0 0 0 0.2 0 0.2-3.2 0.5-25.7 0.3-29.2 0.3-7-0.1-4.9-0.1-11.9-0.3q-0.1 0-0.1 0 0-0.1 0-0.1 0 0 0-0.1 0 0 0.1 0z"/>
	<path id="Layer" class="s1" d="m359.1 306.2l0.1-19.5c0-6.3 0-12.6 0.3-18.9 0.7-12.8 3.2-25.3 5.1-37.9 1.8-12.6 3.4-25.3 4.7-37.9 1.6-14.3 3-28.5 4.4-42.7 0-0.1 0.2-0.1 0.2 0-2.1 25.4-4.5 50.8-8 76q-1.3 9.4-2.9 18.8c-1 6.3-2 12.7-2.6 19.1-0.5 6.4-0.5 12.5-0.6 18.8q-0.1 9.8-0.2 19.5c-0.1 14.4-0.3 36.7-0.4 51.1q0 0.1-0.1 0.2 0 0-0.1 0-0.1 0-0.2 0 0-0.1 0-0.2c0.1-12.9 0.1-33.5 0.3-46.4z"/>
	<path id="Layer" class="s1" d="m389 144.2c0 0-19 107.5-20.6 115.7-0.3 1.9-0.5 12-0.7 25.1l-21.4-140.8z"/>
	<path id="Layer" class="s10" d="m348.9 395.5c2.2 0.6 65.6-4.8 67.9-6.5 0.9-0.6 0.7-9.9 0-21.1q0-0.2 0-0.4-0.1-3.5-0.4-7.1c0-0.3 0-0.7 0-1-1.1-16.2-2.5-32.9-2.5-32.9l-42.5 3.4 3.6 32.5 0.2 1.3 0.7 6.8 0.1 0.7c0 0-23.4 12.9-25.7 15-2.3 2.2-3.7 8.8-1.4 9.3z"/>
	<path id="Layer" class="s0" d="m348.9 395.5c2.2 0.6 65.6-4.8 67.9-6.5 0.9-0.6 0.7-9.9 0-21.1q0-0.2 0-0.4-0.1-3.5-0.4-7.1c0-0.3 0-0.7 0-1l-41.4 3.1 0.2 1.3 0.7 6.7 0.1 0.7c0 0-23.4 12.9-25.7 15.1-2.3 2.1-3.7 8.7-1.4 9.2z"/>
	<path id="Layer" class="s4" d="m348.9 395.5c2.2 0.6 65.6-4.8 67.9-6.5 0.9-0.6 0.7-9.9 0-21.1q0-0.2 0-0.4l-40.9 3 0.1 0.7c0 0-23.4 12.9-25.7 15.1-2.3 2.1-3.7 8.7-1.4 9.2z"/>
	<path id="Layer" class="s1" d="m349.4 393c10.6-1.2 53.8-4.8 64.4-5.1 0.1 0 0.1 0 0 0-10.5 1.4-53.7 4.7-64.4 5.3-0.2 0-0.2-0.2 0-0.2z"/>
	<path id="Layer" class="s1" d="m371.4 371c4.1-1.1 9.3-0.9 12.8 1.8 0.1 0.1 0 0.3-0.2 0.3-4.1-1-8.3-1.5-12.6-1.6q-0.1 0-0.1-0.1-0.1 0-0.1-0.1 0-0.1 0-0.2 0.1-0.1 0.2-0.1z"/>
	<path id="Layer" class="s1" d="m368.5 373.1c4.1-1.1 9.3-0.9 12.8 1.8 0.1 0.1 0 0.3-0.2 0.3-4.1-1-8.3-1.5-12.6-1.5q-0.1-0.1-0.1-0.1-0.1-0.1-0.1-0.2 0-0.1 0-0.2 0.1 0 0.2-0.1z"/>
	<path id="Layer" class="s1" d="m365.6 375.2c4.1-1.2 9.3-0.9 12.8 1.8 0.1 0.1 0 0.3-0.2 0.3-4.1-1-8.3-1.5-12.5-1.6q-0.1 0-0.2-0.1-0.1 0-0.1-0.1 0-0.1 0.1-0.2 0-0.1 0.1-0.1z"/>
	<path id="Layer" fill-rule="evenodd" class="s1" d="m365.1 362.3c1.5-2.4 4.6-1.7 6.5-0.3 3.2 2.3 5.7 5.4 7.3 9q0 0.1 0 0.1 0 0 0 0 0 0.1 0 0.1 0 0-0.1 0c0 0.3-0.2 0.7-0.6 0.6-3.6-1-7.5-1.6-10.7-3.7-1.8-1.2-3.8-3.5-2.4-5.8zm7.9 6.9c1.8 0.5 3.6 0.9 5.3 1.5q-2.1-2.7-4.4-5.2-1.1-1.2-2.4-2.2c-1.4-1-6.5-3-5.4 1.5 0.7 2.5 4.9 3.7 6.9 4.4z"/>
	<path id="Layer" fill-rule="evenodd" class="s1" d="m389.5 369c-3.3 1.8-7.3 2.1-11 2.7-0.4 0.1-0.5-0.3-0.5-0.6q-0.1 0-0.1 0 0 0 0-0.1 0 0 0 0 0 0 0-0.1c1.9-3.4 4.7-6.3 8.1-8.3 2-1.2 5.2-1.7 6.4 0.9 1.2 2.4-0.9 4.5-2.9 5.5zm-5.6 0.6c2.1-0.4 6.4-1.3 7.3-3.7 1.5-4.4-3.8-2.9-5.3-2q-1.3 0.9-2.6 2-2.5 2.3-4.8 4.8c1.8-0.4 3.6-0.7 5.4-1.1z"/>
	<path id="Layer" class="s1" d="m353.1 384.5c1.2-0.1 2.4-0.1 3.5 0.3 1.2 0.3 2.2 0.9 3.1 1.7 1.7 1.3 2.8 3.3 3 5.4 0 0.1-0.1 0.1-0.1 0-0.6-2.1-1.8-3.9-3.5-5.2-1.8-1.3-3.8-2.1-6-2.1q0 0 0 0 0 0 0 0 0-0.1 0-0.1 0 0 0 0z"/>
	<path id="Layer" class="s1" d="m409.3 377.7c4.8-0.4 5.5 7 0.7 7.5-4.8 0.5-5.5-6.9-0.7-7.5z"/>
	<path id="Layer" class="s6" d="m374.1 367.3l44.8-1.9c0 0-12.2-98.3-12.5-104.3-0.6-15.7-11-117-11-117h-54.7c0 0 3.4 23.4 9.3 38.2q6 2.1 11.5 5.3c0 0 5.1 66.9 5.3 75.3 0.4 16.5 7.3 104.4 7.3 104.4z"/>
	<path id="Layer" class="s1" d="m375.3 359.1c7-0.4 4.9-0.4 11.9-0.7 3.5-0.2 25.9-1.4 29.2-1q0 0 0 0 0 0.1 0 0.1 0 0 0 0 0 0.1 0 0.1c-3.2 0.6-25.7 1.4-29.1 1.5-7 0.2-5 0.1-12 0.2q-0.1 0-0.1 0 0 0 0-0.1 0 0 0 0 0-0.1 0.1-0.1z"/>
	<path id="Layer" class="s1" d="m391.4 150.1c2.1 25.5 4.1 51 6.5 76.5 2.3 25.5 5 51.1 8.4 76.6 1.8 14.2 3.9 34.2 6.1 48.4 0 0.1-0.1 0.1-0.1 0-4.5-25.2-7.9-56.5-10.7-81.9-2.8-25.4-5.1-50.9-7.2-76.3-1.1-14.5-2.2-28.9-3.3-43.3 0-0.2 0.3-0.2 0.3 0z"/>
	<path id="Layer" class="s1" d="m348.1 181.3q7 2.6 13.4 6.3c0.2 0.1 0 0.3-0.1 0.2-4.6-1.9-9.1-3.8-13.6-5.9q-0.1-0.1-0.1-0.2-0.1-0.1 0-0.2 0-0.1 0.2-0.2 0.1 0 0.2 0z"/>
	<path id="Layer" class="s1" d="m346.6 150.3c0-0.1 0.3-0.2 0.3 0 0 5.4 0.3 10.1 0.8 15.1 0.2 2.3 2 15.2 6.1 14.3 0.7-0.2 1-0.9 1.2-1.9q-0.1-2-0.6-3.9-0.7-4.1-1-8.1c-0.5-5.1-0.4-10.2 0.1-15.2q0-0.1 0.1-0.1 0-0.1 0.1-0.1 0 0 0.1 0.1 0 0 0 0.1-0.2 10.5 1.2 21c0.5 3.3 2.2 8.3-1.3 8.9-3.5 0.5-5.8-8-6.3-10.3-1.1-6.6-1.4-13.2-0.8-19.9z"/>
	<path id="Layer" class="s1" d="m353.7 180q0.5 1.3 0.9 2.7 0.4 1 0.4 2.1 0 0.1-0.1 0.1 0 0-0.1 0 0 0 0 0-0.1 0-0.1-0.1-0.6-0.9-0.9-2.1c-0.3-0.8-0.7-1.6-0.9-2.5q-0.1-0.1 0-0.2 0.1-0.2 0.3-0.2 0.1-0.1 0.3 0 0.1 0 0.2 0.2z"/>
	<path id="Layer" class="s3" d="m172.2 369.8l-0.1-2 108.2-5.6-8-48.2 2-0.3 8.4 50.4z"/>
	<path id="Layer" class="s9" d="m185.3 383.4c4.9-3.8 5.8-10.9 2-15.9-3.9-4.9-11-5.8-15.9-1.9-5 3.8-5.8 11-2 15.9 3.9 4.9 11 5.8 15.9 1.9z"/>
	<path id="Layer" class="s0" d="m173.2 374.5c0 1 0.3 2 0.9 2.8 0.6 0.9 1.4 1.5 2.3 1.9 0.9 0.4 2 0.5 3 0.3 1-0.2 1.9-0.7 2.6-1.4 0.7-0.7 1.2-1.6 1.4-2.6 0.2-1 0.1-2-0.3-3-0.4-0.9-1-1.7-1.9-2.3-0.8-0.5-1.8-0.8-2.8-0.8-1.4 0-2.7 0.5-3.7 1.5-0.9 0.9-1.5 2.2-1.5 3.6z"/>
	<path id="Layer" class="s9" d="m267.7 385.5c6.1-1.5 9.8-7.6 8.4-13.7-1.4-6-7.5-9.8-13.6-8.3-6.1 1.4-9.9 7.5-8.4 13.6 1.4 6.1 7.5 9.8 13.6 8.4z"/>
	<path id="Layer" class="s0" d="m259.9 374.5c0 1 0.3 2 0.9 2.8 0.5 0.9 1.3 1.5 2.3 1.9 0.9 0.4 1.9 0.5 2.9 0.3 1-0.2 1.9-0.7 2.7-1.4 0.7-0.7 1.2-1.6 1.4-2.6 0.2-1 0.1-2-0.3-3-0.4-0.9-1.1-1.7-1.9-2.3-0.9-0.5-1.9-0.8-2.9-0.8-1.3 0-2.6 0.5-3.6 1.5-1 0.9-1.5 2.2-1.5 3.6z"/>
	<path id="Layer" class="s3" d="m191.6 382.3l-0.1-2.1 108.2-5.5-10.5-63.3 2-0.3 10.9 65.5z"/>
	<path id="Layer" class="s9" d="m205 395.7c4.8-4 5.4-11.2 1.4-16-3.9-4.8-11.1-5.5-15.9-1.5-4.8 4-5.5 11.2-1.5 16 4 4.8 11.1 5.4 16 1.5z"/>
	<path id="Layer" class="s0" d="m192.6 387c0 1 0.3 2 0.8 2.8 0.6 0.9 1.4 1.5 2.3 1.9 1 0.4 2 0.5 3 0.3 1-0.2 1.9-0.7 2.6-1.4 0.7-0.7 1.2-1.6 1.4-2.6 0.2-1 0.1-2.1-0.3-3-0.4-0.9-1-1.7-1.9-2.3-0.8-0.6-1.8-0.9-2.8-0.9-1.4 0-2.7 0.6-3.6 1.5-1 1-1.5 2.3-1.5 3.7z"/>
	<path id="Layer" class="s9" d="m295.1 394.4c2.4-5.7-0.3-12.4-6-14.8-5.8-2.5-12.4 0.2-14.9 6-2.4 5.7 0.3 12.4 6 14.8 5.8 2.4 12.4-0.2 14.9-6z"/>
	<path id="Layer" class="s0" d="m279.3 387c0 1 0.3 2 0.8 2.8 0.6 0.9 1.4 1.5 2.3 1.9 1 0.4 2 0.5 3 0.3 1-0.2 1.9-0.7 2.6-1.4 0.7-0.7 1.2-1.6 1.4-2.6 0.2-1 0.1-2.1-0.3-3-0.3-0.9-1-1.7-1.8-2.3-0.9-0.6-1.9-0.9-2.9-0.9-1.4 0-2.7 0.6-3.6 1.5-1 1-1.5 2.3-1.5 3.7z"/>
	<path id="Layer" fill-rule="evenodd" class="s8" d="m168.3 307.5l-15.8-72 107.8-17.5 1 75.3-0.8 0.1zm-13.4-70.4l15 68.1 89.3-13.6-1-71.1z"/>
	<path id="Layer" class="s8" d="m180 232l-2 0.4 11.1 70.9 2-0.3z"/>
	<path id="Layer" class="s8" d="m208.9 227.5l-2.1 0.2 7.9 71.7 2.1-0.2z"/>
	<path id="Layer" class="s8" d="m237.1 223.4h-2.1l3.1 72.3h2.1z"/>
	<path id="Layer" class="s8" d="m260.1 240.9l-101.3 18.3 0.4 2.1 101.3-18.4z"/>
	<path id="Layer" class="s8" d="m260.2 268.2l-96.2 14.3 0.3 2 96.2-14.3z"/>
	<path id="Layer" fill-rule="evenodd" class="s7" d="m305.2 310.9l-45.9-17.7v-75.2l70.1 20.3zm-43.9-19.1l42.6 16.4 22.9-68.4-65.5-19z"/>
	<path id="Layer" class="s7" d="m260.7 240.9l-0.7 1.9 59.2 22.7 0.7-1.9z"/>
	<path id="Layer" class="s7" d="m260.7 268.2l-0.8 1.9 50.8 20.8 0.8-1.9z"/>
	<path id="Layer" class="s7" d="m282.7 225.8l-9.6 71.9 2 0.2 9.6-71.8z"/>
	<path id="Layer" class="s7" d="m305.4 232.4l-16.1 71.4 2 0.4 16.1-71.3z"/>
	<path id="Layer" class="s7" d="m276.8 160.8l-17.5 58.2 2 0.6 17.4-58.2z"/>
	<path id="Layer" class="s7" d="m346.1 174.6l-19.1 64 1.9 0.5 19.2-63.9z"/>
	<path id="Layer" class="s1" d="m273.6 157.9l-0.8 4 78.6 16.2 0.8-4z"/>
	<path id="Layer" class="s4" d="m227.8 243.1l19.5 8.9 31.8-6.4-19.1-5.4z"/>
	<path id="Layer" class="s11" d="m227.8 243.1l19.5 8.9 31.8-6.4-19.1-5.4z"/>
	<path id="Layer" class="s12" d="m261.5 245.9c0.2 8.2 2.1 47.5-5.4 48.2-2.7 0.3-5.2-5.8-7-14.9q-0.3-1.3-0.6-2.8c-0.6-3.4-1.2-7.1-1.6-11.1q-0.2-1.3-0.3-2.7c-0.4-3.6-0.7-7.4-0.9-11.1q-0.1-1.4-0.1-2.8c-0.1-0.9-0.1-1.5-0.1-2.3-0.1-2.5-0.2-5.1-0.2-7.6q0-1.4 0-2.7c0.1-5.1 0.3-10 0.7-14.5q0.1-1.3 0.2-2.6c1.1-11.5 3.3-19.7 6.2-20.6 6.5-1.9 8.5 27.1 9.1 47.5z"/>
	<path id="Layer" class="s13" d="m256.5 274.2q-0.1 0.2-0.3 0.2 0 0.1-0.1 0.1c-2.7 0.9-5.1 2.6-7 4.7q-0.3-1.3-0.6-2.7c1.1-1 2.3-1.7 3.6-2.2 1.3-0.4 2.7-0.6 4.1-0.5q0.1 0 0.1 0 0 0 0 0h0.1q0.1-0.1 0.2 0 0.1 0.1 0.1 0.2 0 0 0 0.1-0.1 0.1-0.2 0.1z"/>
	<path id="Layer" class="s13" d="m255.6 262.5q-0.2 0-0.4 0 0 0.1 0 0.1-0.1 0-0.1 0c-2.9 0.1-5.6 1-8 2.6l-0.2 0.2q-0.2-1.4-0.3-2.8c1.3-0.7 2.8-1.2 4.3-1.3 1.5-0.1 3 0.1 4.5 0.6q0 0 0 0.1h0.2q0 0 0.1 0.1 0 0 0 0.1 0 0.1 0 0.2-0.1 0-0.1 0.1z"/>
	<path id="Layer" class="s13" d="m255 250.5q-0.2 0-0.3 0-0.1 0-0.1 0-0.1 0-0.1 0c-2.7-0.6-5.6-0.3-8.2 0.7q-0.3 0.1-0.6 0.3-0.1-1.4-0.1-2.8c1.5-0.5 3.2-0.6 4.8-0.4 1.6 0.2 3.2 0.7 4.5 1.6q0.1 0 0.1 0 0 0.1 0 0.1h0.1c0.1 0.2 0.2 0.4-0.1 0.5z"/>
	<path id="Layer" class="s13" d="m254.5 237.9q-0.2 0-0.3 0-0.1 0-0.1 0 0 0-0.1 0c-2.7-0.6-5.6-0.3-8.2 0.7q-0.2 0.1-0.4 0.2 0-1.4 0-2.7c1.5-0.5 3.1-0.6 4.6-0.4 1.6 0.2 3.1 0.7 4.4 1.6 0 0 0.1 0.1 0.1 0.1h0.1c0.1 0.2 0.2 0.5-0.1 0.5z"/>
	<path id="Layer" class="s13" d="m254.5 223q-0.1 0-0.3-0.1-0.1 0.1-0.2 0c-2.5-1.1-5.3-1.6-8-1.3q0.1-1.3 0.2-2.5c1.6-0.1 3.1 0.2 4.5 0.8 1.5 0.6 2.8 1.4 3.8 2.5 0 0 0 0.1 0 0.1q0.1 0.1 0.1 0.1c0.2 0.1 0.2 0.4-0.1 0.4z"/>
	<path id="Layer" class="s14" d="m273.6 250.8c-1.2 8.1-5.8 46.9-13.4 45.8-2.7-0.3-4.1-6.9-4.4-16.2 0-0.9-0.1-1.8-0.1-2.8 0-3.5 0-7.3 0.3-11.2 0-0.9 0.1-1.8 0.1-2.8 0.3-3.6 0.6-7.3 1-11.1q0.2-1.3 0.4-2.6c0.1-0.9 0.2-1.6 0.3-2.3q0.5-3.8 1.1-7.5 0.3-1.3 0.5-2.7c0.9-4.9 1.9-9.6 3.1-13.9q0.3-1.3 0.6-2.5c3-10.9 6.5-18.5 9.6-18.7 6.6-0.3 3.7 28.4 0.9 48.5z"/>
	<path id="Layer" class="s13" d="m264 277.3q-0.2 0.1-0.4 0.1 0 0 0 0.1-0.1 0-0.1 0c-2.8 0.2-5.5 1.2-7.7 2.9 0-0.9-0.1-1.8-0.1-2.8 1.2-0.7 2.6-1.1 4-1.2 1.3-0.2 2.7 0 4.1 0.4q0 0 0 0h0.1q0.1 0 0.2 0.1 0 0.1 0 0.2 0.1 0.1 0 0.1 0 0.1-0.1 0.1z"/>
	<path id="Layer" class="s13" d="m265 265.6q-0.2 0-0.4 0 0 0 0 0-0.1 0-0.1 0c-2.8-0.6-5.6-0.4-8.2 0.6l-0.3 0.2c0-1 0.1-1.9 0.1-2.8 1.5-0.4 3.1-0.5 4.6-0.3 1.5 0.3 2.9 0.8 4.2 1.7 0 0 0.1 0 0.1 0l0.1 0.1c0.1 0.1 0.1 0.4-0.1 0.5z"/>
	<path id="Layer" class="s13" d="m266.4 253.8q-0.1 0-0.3-0.1 0 0-0.1 0 0 0-0.1 0c-2.5-1.2-5.4-1.6-8.2-1.3l-0.6 0.2q0.2-1.4 0.4-2.7c1.6-0.2 3.3 0.1 4.8 0.7 1.6 0.5 3 1.4 4.1 2.6q0.1 0 0.1 0.1 0 0-0.1 0 0.1 0.1 0.1 0.1c0.2 0.1 0.2 0.4-0.1 0.4z"/>
	<path id="Layer" class="s13" d="m268.1 241.4q-0.2 0-0.4-0.1 0 0 0 0-0.1 0-0.1 0c-2.6-1.2-5.4-1.6-8.2-1.3q-0.3 0.1-0.5 0.1 0.2-1.3 0.5-2.7c1.6-0.1 3.2 0.2 4.7 0.8 1.5 0.6 2.9 1.5 4 2.6q0 0 0 0 0 0.1 0 0.1l0.1 0.1c0.1 0.1 0.1 0.4-0.1 0.4z"/>
	<path id="Layer" class="s13" d="m270.6 226.8q-0.2 0-0.4-0.1 0 0-0.1 0c-2.2-1.7-4.9-2.8-7.7-3.2q0.3-1.3 0.7-2.4c3.1 0.7 5.8 2.5 7.6 5.2q0 0.1 0 0.1v0.1c0.2 0.1 0.1 0.4-0.1 0.3z"/>
	<path id="Layer" class="s4" d="m227.8 243.1c0 0 1.3 39.2 0.8 40.7-0.4 1.5-2.7 19.9-2.5 20.4 0.2 0.5 18.6 11.1 19.3 10.5 0.6-0.6 1.7-27.1 1.7-30.3 0-3.3 0.2-32.4 0.2-32.4z"/>
	<path id="Layer" class="s4" d="m247.3 252l-1.9 62.6c0 0 29.9-8.8 30.1-9.3 0.3-0.5 1.8-18.3 1.4-21-0.4-2.8 2.2-38.7 2.2-38.7z"/>
	<path id="Layer" class="s11" d="m247.3 252l-1.9 62.6c0 0 29.9-8.8 30.1-9.3 0.3-0.5 1.8-18.3 1.4-21-0.4-2.8 2.2-38.7 2.2-38.7z"/>
	<path id="Layer" fill-rule="evenodd" class="s7" d="m205.7 323.2l-37.4-15.7-0.1-0.5-15.8-71.9 46.5 19zm-35.6-17.1l33.2 13.9-6.4-64.4-41.6-17.1z"/>
	<path id="Layer" class="s7" d="m168.1 241.7l-2 0.3 12.1 68.8 2-0.3z"/>
	<path id="Layer" class="s7" d="m183.3 248.2l-2 0.3 9.7 67.8 2-0.2z"/>
	<path id="Layer" class="s7" d="m164 289.1l-0.7 1.9 37.4 13.2 0.7-2z"/>
	<path id="Layer" class="s7" d="m159.4 259.7l-0.8 1.9 41.1 16.2 0.7-1.9z"/>
	<path id="Layer" fill-rule="evenodd" class="s0" d="m205.6 323.2l-8.9-69.3 132.7-15.7-24.2 72.7-0.6 0.1zm-6.7-67.4l8.4 65.1 96.3-11.8 22.8-68.4z"/>
	<path id="Layer" class="s0" d="m228.4 251.2l-2 0.2 5.8 66.8 2-0.2z"/>
	<path id="Layer" class="s0" d="m261.8 247l-3.9 67.9 2.1 0.2 3.9-68z"/>
	<path id="Layer" class="s0" d="m295.7 242.9l-13 69.1 2 0.4 13-69.1z"/>
	<path id="Layer" class="s0" d="m320 262l-120 13.5 0.2 2.1 120-13.5z"/>
	<path id="Layer" class="s0" d="m311 288.9l-108.5 11.4 0.2 2 108.5-11.3z"/>
	<path id="Layer" class="s10" d="m354.4 89.3c-5.5 8.7-25.9 40-38.6 40-7.7 0-33.6-13-39.3-17.4-6.7-5.2 11.2-21.4 15.8-19.4 5.7 2.3 21.3 11.4 25 11.4 3.2 0 12.5-10.4 30.3-22 9.1-6 11.6-0.1 6.8 7.4z"/>
	<path id="Layer" class="s10" d="m277.1 112.3c-2.4-1.2-12.9-7.4-15.5-9.8-2.5-2.4-9.4-9.8-7.7-11.9 1.6-2.2 3.8-0.2 3.8-0.2 0 0-2.4-3.5-0.6-5.6 1.8-2 5.1 1.3 5.1 1.3 0 0-2.1-3.9-0.2-5.8 2-1.8 4.8 2 4.8 2 0 0-2.2-3.5 0.1-4.3 2.7-1 6 5.8 9 8.2 0.7 0.5 14.7 10.2 14.7 10.2z"/>
	<path id="Layer" class="s1" d="m266.5 82c2.4 5 4.4 6.7 9 9.6 0.1 0.1 0 0.2-0.1 0.2-4.8-2.4-7.5-4.3-9.1-9.7-0.1-0.3 0.1-0.4 0.2-0.1z"/>
	<path id="Layer" class="s1" d="m262.1 85.7c2.9 5 5 6.9 9.6 10.2 0.1 0 0 0.2-0.1 0.2-4.8-3-7.5-4.9-9.8-10.3-0.1-0.2 0.1-0.3 0.3-0.1z"/>
	<path id="Layer" class="s1" d="m257.9 90.6c3.2 4.6 5.4 6.8 10.3 9.5q0.1 0 0.1 0.1 0 0-0.1 0.1 0 0 0 0 0 0-0.1 0c-4.5-1.7-8.3-5.2-10.3-9.6-0.2-0.3-0.1-0.4 0.1-0.1z"/>
	<path id="Layer" class="s4" d="m256.5 91.7c3.5 11.5 14.3 10.1 17.4 9.1 3.1-0.9 12.9-5.8 9.3-17.3-3.5-11.5-15.1-8.8-17.1-8.2-2.3 0.7-13.2 4.9-9.6 16.4z"/>
	<path id="Layer" class="s6" d="m267.1 76.9c0 0 0.5 4.3 8 1.7 0 0.1-5.1-5.4-8-1.7z"/>
	<path id="Layer" class="s6" d="m267.8 78.7c0 0 3.6 0.2 2.6-6.3 0 0-5.2 3.4-2.6 6.3z"/>
	<path id="Layer" class="s6" d="m267.5 77.5c0 0-1.2 3.4-6.7-0.2 0 0 5.1-3.3 6.7 0.2z"/>
	<path id="Layer" class="s6" d="m267.3 76.7c0 0-3.3 2.8 3.1 7.6-0.1 0 1.6-7.3-3.1-7.6z"/>
	<path id="Layer" class="s6" d="m266.9 77.3c0 0-4.8-1.3-4.1 6.9 0 0 7.3-2.6 4.1-6.9z"/>
	<path id="Layer" class="s6" d="m267.7 78.3c0.2-1.4 0-2.7-0.6-4-0.5-1.3-1.3-2.4-2.3-3.3-0.6 0-1.2 0.3-1.7 0.7-0.4 0.3-0.7 0.9-0.9 1.5 0 0 4.1 2.2 4.4 6l1-0.6"/>
	<path id="Layer" class="s10" d="m295.6 95.9q-1.3-4.8-3.4-9.4c-1.5-2.8-10.9-10.9-12.8-9-2.4 2.5 2.1 8.3 4.7 10.8 0 0-5.6 5.8-3.3 10.6 2.3 4.8 14.8-3 14.8-3z"/>
	<path id="Layer" class="s1" d="m279 78.4c-0.6 3.9 3 7 5.3 9.6q0.1 0.1 0.1 0.2 0 0.1 0 0.1 0 0.1-0.1 0.2 0 0-0.1 0.1c-2.2 2.5-4.5 6.8-3.6 10.2q0 0 0 0.1-0.1 0-0.1 0 0 0 0 0-0.1 0-0.1 0c-1.5-3.6 0.5-8 3.1-10.6-2.4-2.7-5.9-6-4.5-9.9 0 0 0 0 0 0z"/>
	<path id="Layer" class="s4" d="m325.6 95.2l17.1 15.3c0 0 9.7-11.8 13.8-23 4-11.2-5.6-9.8-12.5-5.3-6.8 4.5-18.4 13-18.4 13z"/>
	<path id="Layer" class="s1" d="m344.6 106.8q-7.7-6.3-14.5-13.4c-0.1 0 0-0.2 0.1-0.1 1.2 1.2 8.8 7.7 14.5 13.4 0.1 0.1 0 0.2-0.1 0.1z"/>
	<path id="Layer" class="s1" d="m356.5 87.6c-4.1 11.2-13.8 22.9-13.8 22.9l-7.9-7.1c5.2-7.2 13.7-18.9 17.9-24.5 3.7-0.2 6.2 2 3.8 8.7z"/>
	<path id="Layer" class="s4" d="m334.8 158.7c1 1 64.1 0.4 64.5 0 0.8-1.1-8.9-41.8-16.1-57.3-9.3-19.7-14.2-21.4-17.2-22.5-3.7-1.4-13.5-0.9-15.1-0.1-1.9 0.8-6.5 10-8.7 17.4-4.3 14.7-8.3 61.5-7.4 62.5z"/>
	<path id="Layer" class="s10" d="m375.5 97.2c-0.4 19.4-1.2 42.4-6.6 48.9-8.1 9.8-28.5 19.9-36.8 21.8-3.5 0.7-13.2-25.5-9.5-26.3 7.9-1.6 26.1-9.1 27.7-10.8 1.7-1.6 7.9-20.3 12.9-35 6-17.6 12.4-9.8 12.3 1.4z"/>
	<path id="Layer" class="s10" d="m326.8 140.5c0 0-10.4 2.7-17.2 4.8-3.8 1.1-10.1 3.7-12.5 5.8-3.5 3.2-16.4 18.7-12.7 21.9 3.3 2.9 12.7-11.9 12.7-11.9 0 0-10.8 14.1-6.2 16.9 4.7 2.7 13.1-15.4 13.1-15.4 0 0-10.8 14.7-5.5 16.8 4 1.6 12.5-14.4 12.5-14.4 0 0-9.1 12.7-5.1 14.5 4.4 2 13.2-12.2 13.2-12.2 11 2.8 17.4-0.3 21.7-3.1 1.1-0.7-14-23.7-14-23.7z"/>
	<path id="Layer" class="s1" d="m300.5 156.1c-1.3 1.6-2.7 3.2-3.8 4.9-1.2 1.7-2.3 3.5-3.4 5.3q-2 3.5-3.2 7.4c1.7-4.5 5.9-10.7 7-12.4 1.2-1.7 2.3-3.5 3.5-5.2 0 0 0-0.1-0.1 0z"/>
	<path id="Layer" class="s1" d="m306.8 160.2c-2.3 1.8-7 8.5-8.9 13-0.1 0.2 0 0.2 0.1 0 1.5-2.2 7.3-10.8 8.9-13 0 0-0.1 0-0.1 0z"/>
	<path id="Layer" class="s1" d="m312.8 162.8c-2.8 3-5 6.4-6.6 10.3 0 0.1 0.1 0.1 0.2 0 2.1-3.5 3.8-6.2 6.5-10.2 0.1-0.1 0-0.1-0.1-0.1z"/>
	<path id="Layer" class="s4" d="m354.4 114.1l22.7 3.3c0 0 1.7-15.1-1.1-26.7-2.8-11.6-10.1-5.1-13.3 2.4-3.3 7.5-8.3 21-8.3 21z"/>
	<path id="Layer" class="s1" d="m376.4 113q-9.9-0.9-19.5-2.9c-0.1 0-0.1-0.2 0-0.1 1.7 0.3 11.6 1.3 19.5 2.8 0.1 0 0.1 0.2 0 0.2z"/>
	<path id="Layer" class="s1" d="m357.6 106.3c1-2.6 2.5-6.3 3.4-8.9q0 0-0.1 0-1 2-1.8 4.2v-0.3q0.2-1.2 0.4-2.4-0.4 1.2-0.6 2.4c-0.1 0.5-0.2 1-0.3 1.5-0.3 0.7-1.1 2.6-1.4 3.3-0.5 1.3-3.3 8.1-3.1 8.1 0.1 0.1 2.3 0.3 2.7 0.4 0.1 0 0.2-0.2 0-0.2-0.4 0-2.1-0.3-2.3-0.3 0.5-1.4 1.1-2.6 1.6-3.9q0.8-2 1.5-3.9z"/>
	<path id="Layer" class="s1" d="m378.5 102.4q-0.3 1-0.5 2c0 0.3 0 0.5 0 0.8q-0.1-2.6-0.5-5.2c0 0 0 0 0 0 0.1 2.9 0.1 5.7 0 8.6 0 1.4-0.1 2.8-0.2 4.2 0 0.7-0.1 1.4-0.1 2.1-0.1 0.7-0.2 2.4-0.2 2.4-0.4-0.1-1.7-0.2-2.2-0.3-0.1 0-0.1 0.1 0 0.1 0.4 0.1 2.5 0.5 2.5 0.5 0-0.8 0.2-1.7 0.2-2.4 0.1-0.8 0.2-1.4 0.2-2.1q0.2-2.2 0.2-4.4 0-1.2 0-2.4c0.2-0.6 0.3-1.2 0.4-1.9 0.1-0.6 0.2-1.3 0.3-2 0.1-0.1-0.1-0.1-0.1 0z"/>
	<path id="Layer" class="s10" d="m352.6 88.9c3.5 1 10-4.1 12.6-8.3 0.2-0.3-0.1-3.5-0.2-7.4-0.1-2.4-0.1-5.1 0-7.5 0-0.5-15.4 2.8-15.4 2.8 0.7 3.1 1 6.2 0.9 9.4q0 0.5-0.1 1 0 0.1 0 0.2c-0.5 1.8-1.2 8.8 2.2 9.8z"/>
	<path id="Layer" class="s1" d="m364.1 65.7c-1 4.1-4.1 13.8-12.2 13.5q-0.8 0-1.6-0.2 0 0 0-0.1 0.2-0.5 0.2-1.1c0.1-3.1-0.2-6.3-0.9-9.3 0 0 11.1-2.4 14.5-2.8z"/>
	<path id="Layer" class="s10" d="m365.9 46.3c2.1 5.2 0.5 21-3.1 24.7-5.1 5.5-14.2 6.7-18.9 0.4-4.7-6.2-2.2-26.7 1.8-30.1 5.9-5.2 17.2-2.8 20.2 5z"/>
	<path id="Layer" class="s1" d="m351.8 56.9c0 0 0.1 0.1 0.1 0.1-0.2 1.1-0.1 2.3 0.8 2.8 0 0 0 0.1 0 0-1.2-0.2-1.2-1.9-0.9-2.9z"/>
	<path id="Layer" class="s1" d="m352.9 55.9c1.7 0 1.5 3.5-0.1 3.5-1.6-0.1-1.4-3.5 0.1-3.5z"/>
	<path id="Layer" class="s1" d="m345.8 56.6c0 0 0 0 0 0.1 0 1-0.3 2.3-1.3 2.6v0.1c1.2-0.1 1.5-1.7 1.3-2.8z"/>
	<path id="Layer" class="s1" d="m345 55.5c-1.7-0.3-2.1 3.2-0.5 3.4 1.6 0.2 1.9-3.2 0.5-3.4z"/>
	<path id="Layer" class="s1" d="m354.3 54.4c-0.5-0.1-0.9-0.3-1.3-0.5-0.5-0.1-0.9-0.4-1.2-0.8q-0.1-0.2-0.1-0.5 0.1-0.2 0.2-0.4 0.5-0.3 0.9-0.3 0.5 0 1 0.2c0.6 0.2 1.1 0.7 1.4 1.3q0.1 0.2 0.1 0.4 0 0.2-0.2 0.4-0.1 0.2-0.4 0.2-0.2 0.1-0.4 0z"/>
	<path id="Layer" class="s1" d="m343.7 53.7q0.7-0.1 1.4-0.3c0.5 0 1-0.2 1.4-0.6q0.1-0.2 0.1-0.4 0-0.3-0.1-0.5-0.4-0.3-0.9-0.4-0.4-0.1-0.9 0c-0.7 0.1-1.2 0.4-1.7 0.9q-0.1 0.2-0.1 0.4-0.1 0.3 0.1 0.5 0.1 0.2 0.3 0.3 0.2 0.1 0.4 0.1z"/>
	<path id="Layer" class="s1" d="m353 66.9c-0.3 0.3-0.5 0.6-0.9 0.6q-0.6 0-1.2-0.3c0 0 0 0 0 0q0.2 0.4 0.6 0.5 0.3 0.2 0.7 0.2 0.3-0.1 0.6-0.3 0.2-0.3 0.3-0.6c0-0.1-0.1-0.1-0.1-0.1z"/>
	<path id="Layer" class="s1" d="m352.1 63.7q-0.5 0.6-1.1 1-0.7 0.4-1.4 0.5-0.7 0.1-1.3 0-0.2 0-0.3 0-0.1 0-0.2 0-0.1-0.1-0.2-0.1 0-0.1 0-0.2 0 0 0-0.1v-0.1c0-0.8 0.2-2 0.2-2-0.3 0.1-1.9 0.7-1.9 0.3q0.5-5.6 2.1-10.9c0-0.1 0.2-0.1 0.2 0-0.3 3.4-1.2 6.7-1.5 10.2q0.9-0.4 1.8-0.5c0.1 0-0.4 2.4-0.4 2.8q1.1 0.2 2.1-0.1 0.9-0.2 1.8-0.8c0.1-0.2 0.1-0.1 0.1 0z"/>
	<path id="Layer" class="s1" d="m348.8 64.8c0.4 0.6 0.9 1.1 1.6 1.4q0.6 0.2 1.2 0.1c0.8-0.1 0.9-0.9 0.8-1.6q-0.1-0.5-0.3-1c-1 0.7-2.1 1.1-3.3 1.1z"/>
	<path id="Layer" class="s15" d="m350.4 66.2q0.6 0.2 1.2 0.1c0.8-0.1 0.9-0.9 0.8-1.6-0.5 0-0.9 0.1-1.3 0.4-0.3 0.3-0.6 0.7-0.7 1.1z"/>
	<path id="Layer" class="s1" d="m343.7 47.4c5.3 3.6 12.4-1.8 12.4-1.8 0.4 1.1 1.2 2.1 2.2 2.7 1.1 0.7 2.3 1 3.5 0.9 0 0 1 8.8 3.4 8.8 3.5 0 4.6-12.1 3.5-14.4-1.1-2.4-4.1-3-4.1-3-0.3-1.4-1.2-2.7-2.4-3.5-2.4-1.9-10.8 0.6-10.8 0.6-0.5-1.1-1.2-2.1-2.1-2.9q-0.4-0.3-0.8-0.4-0.4-0.1-0.9-0.1-0.4 0-0.8 0.2-0.4 0.3-0.7 0.6 0.7 1 0.9 2.2c0.4 2.6-1.7 2.6-1.7 0.2 0-0.9 0.3-1.7 0.8-2.4-1-1.5-2.7-2-3.8-1.2-1.8 1.5-2.9 10.5 1.4 13.5z"/>
	<path id="Layer" class="s10" d="m363.6 59.2c0 0 3.2-5.3 5.6-4.1 2.3 1.1 0.1 8.5-2.5 9.7q-0.5 0.2-1.1 0.3-0.5 0-1.1-0.1-0.5-0.2-0.9-0.6-0.4-0.4-0.7-0.9z"/>
	<path id="Layer" class="s1" d="m368.5 57.2c0 0 0 0 0 0.1-1.9 0.8-2.8 2.6-3.3 4.5q0.1-0.3 0.4-0.5 0.2-0.2 0.5-0.3 0.4-0.1 0.7 0 0.3 0 0.6 0.2 0 0 0 0.1 0 0 0 0 0 0 0 0 0 0 0 0-0.5-0.1-1 0.1-0.5 0.2-0.8 0.6-0.5 0.8-0.8 1.6c-0.1 0.1-0.4 0.1-0.4-0.1-0.2-2.4 1.5-5.9 4.1-6.3z"/>
	<path id="Layer" class="s4" d="m55.9 301.9q0.6-14.9-0.4-29.8c-1.5-20.5-4.6-40.8-9.3-60.7-2.6-11.2-5.8-22.3-9.2-33.3-0.1-0.3-0.6-0.2-0.5 0.1 10.3 38.9 18.8 79 18.2 119.4-0.2 11.3-1.5 22.5-2.6 33.7 0 0.3 0.5 0.4 0.6 0.1 2.1-9.6 2.8-19.7 3.2-29.5z"/>
	<path id="Layer" class="s4" d="m36.5 178.2c0 0-15.7 39.7-12.2 49 3.5 9.4 10.8 11.3 10.8 11.3 0 0-9.6 13.7-2.9 26.5 6.7 12.8 21.5 12.2 22.6 26.8-0.1 0 0.7-60.8-18.3-113.6z"/>
	<path id="Layer" class="s1" d="m40.5 213.5c-2.9-1.7-6.1-2.7-9.4-2.9q-0.1 0-0.1 0 0 0 0 0.1 0 0 0 0 0 0 0.1 0c3.2 0.6 6.3 1.7 9.2 3.1 0.2 0 0.3-0.2 0.2-0.3z"/>
	<path id="Layer" class="s1" d="m42.3 255.6c-2.1-1.3-4.5-2.1-7-2.4-0.1 0-0.1 0.1 0 0.1 2.4 0.5 4.8 1.3 7 2.4 0.1 0.1 0.1-0.1 0-0.1z"/>
	<path id="Layer" class="s4" d="m97 227.9c-6.6 4.5-12.7 9.8-18.1 15.8-5.6 6.3-9.9 13.6-12.7 21.5-5.9 16.6-9.1 33.9-9.4 51.5-0.2 9.7 0.7 19.4 2.8 29q0 0.1 0.1 0.1 0.1 0.1 0.2 0.1 0.1-0.1 0.2-0.1 0-0.1 0-0.2c-2.6-16.8-2.5-33.9 0.3-50.6 2.7-16.5 6.9-34.3 17.3-47.7 5.7-7.3 12.8-13 19.8-18.9 0.4-0.3-0.1-0.8-0.5-0.5z"/>
	<path id="Layer" class="s4" d="m59.1 304.9c3.7-6.1 8.2-11.8 13.2-16.9 7.8-7.8 14.4-13.4 15.4-18.5 0.9-5.2-7.9-9-7.9-9 0 0 10.9 1.9 13.8-2.6 3-4.6 4.4-30.9 4.4-30.9 0 0-19.7 14.1-28.9 33.8-9.2 19.7-10 44.1-10 44.1z"/>
	<path id="Layer" class="s1" d="m91 251.7q-1.9-0.3-3.9-0.1c-0.2 0-0.2 0.2 0 0.3 1.3 0 2.6-0.1 3.9 0q0-0.1 0-0.1 0 0 0 0 0 0 0-0.1 0 0 0 0z"/>
	<path id="Layer" class="s1" d="m76.8 277.2c-2 0.1-4.1 0.5-6 1.3 0 0 0 0.1 0 0.1 2-0.5 4-0.7 6-1.1 0.2 0 0.2-0.3 0-0.3z"/>
	<path id="Layer" class="s1" d="m72.6 268.5q-1.3 0-2.6 0.2 0 0-0.1 0 0 0.1 0 0.1 0 0 0 0 0.1 0.1 0.1 0.1 1.3 0 2.6-0.2 0 0 0.1 0 0 0 0-0.1 0 0 0-0.1-0.1 0-0.1 0z"/>
	<path id="Layer" class="s4" d="m1.3 255.8c6.4 2.2 12.6 5.1 18.3 8.6 6 3.8 11.2 8.7 15.3 14.5 8.6 12 15.2 25.4 19.5 39.5 2.5 7.8 3.9 15.9 4.5 24.1q0 0.1-0.1 0.1-0.1 0.1-0.2 0.1 0 0-0.1-0.1-0.1 0-0.1-0.1c-1.8-14.2-5.8-28-11.9-40.9-6-12.6-13.5-26.1-25.1-34.5-6.2-4.6-13.3-7.6-20.3-10.7-0.4-0.2-0.1-0.7 0.2-0.6z"/>
	<path id="Layer" class="s4" d="m49.8 309.4c-4.4-4.1-9.3-7.6-14.5-10.6-8.2-4.6-14.8-7.5-16.8-11.5-2-3.9 4.3-9.1 4.3-9.1 0 0-8.4 4.1-11.8 1.1-3.5-3-10.7-23.9-10.7-23.9 0 0 19.2 6.8 31.2 20.6 12 13.9 18.3 33.4 18.3 33.4z"/>
	<path id="Layer" class="s1" d="m17.2 268.1q-1.3-0.1-2.6 0.2 0 0 0 0-0.1 0-0.1 0.1 0 0 0.1 0 0 0 0 0c0.8-0.1 1.7 0 2.5 0q0.1 0 0.1-0.1 0 0 0 0 0-0.1 0-0.1 0 0 0-0.1z"/>
	<path id="Layer" class="s6" d="m74.6 369h-43.3l6.2-45.3 1.5-11.6h27.8l1.6 11.6z"/>
	<path id="Layer" class="s1" d="m68.4 323.7h-30.9l1.5-11.6h27.8z"/>
	<path id="Layer" class="s6" d="m70.8 308.1h-35.7v9.8h35.7z"/>
</svg>