<svg version="1.2" xmlns="http://www.w3.org/2000/svg" viewBox="0 0 531 323" width="531" height="323">
	<title>صورة رقم2-svg</title>
	<style>
		.s0 { fill: #ecf5ff } 
		.s1 { fill: #c3e0ff } 
		.s2 { fill: #a7caff } 
		.s3 { fill: #f4af8f } 
		.s4 { fill: #355298 } 
		.s5 { fill: #1d3975 } 
		.s6 { fill: #f4b1b1 } 
		.s7 { fill: #ce5600 } 
		.s8 { fill: #f49123 } 
		.s9 { fill: #ef7e05 } 
		.s10 { fill: #ffffff } 
		.s11 { fill: #e06b6c } 
		.s12 { fill: #fca700 } 
		.s13 { fill: #7ba9e3 } 
		.s14 { fill: #3d7dda } 
		.s15 { fill: #2167ce } 
		.s16 { fill: #558ee5 } 
		.s17 { fill: #0f4884 } 
		.s18 { fill: #e0e0df } 
		.s19 { fill: #105dc4 } 
		.s20 { fill: #f69b25 } 
		.s21 { fill: #ef8200 } 
		.s22 { fill: #639aef } 
		.s23 { fill: #4f8be7 } 
		.s24 { fill: #4884df } 
	</style>
	<path id="Layer" fill-rule="evenodd" class="s0" d="m161 0.4c-42.6-0.3-83.5 16.3-113.7 46.3-30.2 30-47.2 70.8-47.2 113.3 0 42.6 17 83.4 47.2 113.4 30.2 29.9 71.1 46.6 113.7 46.3h257.4v-0.4c36.2-2.7 69.3-21.5 90.1-51.1 20.9-29.7 27.4-67.2 17.7-102.1-9.7-35-34.5-63.8-67.7-78.5-33.2-14.7-71.2-13.8-103.6 2.5q-5.2-2.4-10.7-4.2-5.4-1.7-11.1-3-5.6-1.2-11.3-1.8-5.7-0.6-11.4-0.6-5.4 0-10.7 0.6c-6.9-12.2-15.4-23.5-25.3-33.4-9.9-10-21-18.6-33.2-25.7-12.1-7-25.1-12.4-38.7-16.1-13.5-3.6-27.5-5.5-41.5-5.5z"/>
	<path id="Layer" class="s1" d="m28.7 221.2c-8.5-4.8-19.8-4.7-27.4 0.3q3.5 1.1 7 1.7 3.6 0.6 7.2 0.7 3.6 0 7.1-0.4 3.6-0.4 7.1-1.4 1.9 0.3 3.9 0.6c-8.7 0.7-16.3 6.4-18.7 14 8.6-2.2 15.9-7.5 19.7-13.8q3.4 0.5 6.8 1.1c-8.5 1.7-15.4 8-17.1 15.8q2.9-1.1 5.5-2.7 2.7-1.5 5-3.5 2.4-2 4.4-4.4 2-2.3 3.6-4.9 3.3 0.5 6.6 1.2-1.4 0.2-2.7 0.6-1.4 0.5-2.6 1.2-1.2 0.7-2.3 1.7-1.1 0.9-1.9 2c-2.7 3.3-4 7.3-5 11.4q2.7-1.3 5.1-3 2.4-1.7 4.5-3.8 2.1-2.2 3.7-4.6 1.7-2.5 2.9-5.2 3.7 0.7 7.3 1.5-2.8 1.1-5.1 2.8-2.4 1.8-4.2 4.1-1.8 2.4-2.9 5.1-1.1 2.8-1.5 5.7c7.3-3.8 13-10 14.1-17.7q4.3 0.9 8.7 1.9c-8.9 3.4-15.3 11.4-16 20.4q2.8-1.8 5.3-4 2.5-2.3 4.6-4.8 2.2-2.6 3.9-5.4 1.8-2.9 3.1-6 3.6 0.9 7.2 1.7-1.5 0.7-2.8 1.6-1.4 1-2.6 2.1-1.2 1.1-2.2 2.5-1 1.3-1.8 2.7-0.8 1.6-1.2 3.4-0.5 1.7-0.7 3.5-0.1 1.7 0.1 3.5 0.2 1.8 0.7 3.5 2-2.5 3.8-5.1 1.7-2.7 3.2-5.5 1.4-2.9 2.6-5.9 1.1-2.9 1.9-6 2.6 0.6 5.3 1.3-2.3 2-4 4.5-1.8 2.6-2.8 5.4-1.1 2.9-1.4 5.9-0.3 3 0.2 6 2-2.2 3.5-4.7 1.6-2.6 2.6-5.4 1.1-2.8 1.6-5.7 0.6-2.9 0.5-5.9 4.5 1.1 8.9 2.4-2.2 1.8-3.8 4.2-1.7 2.3-2.7 5-1 2.7-1.2 5.5-0.3 2.9 0.2 5.7c0.1 0.8 0.8 1.8 1.5 1.5q0.1 0 0.2-0.1 0.1 0 0.2-0.1 0-0.1 0.1-0.2 0.1-0.1 0.1-0.2 1.4-2.4 2.5-4.9 1.1-2.6 1.8-5.3 0.8-2.7 1.1-5.5 0.4-2.7 0.3-5.5 7 2 14 4.1c-7.4 2.8-12.9 9.4-13.7 16.9 7-3.5 13-8.8 15-16.5q4.1 1.3 8.3 2.6c-7.5 2.4-12.4 9.8-11.4 17.3 6.1-4 10.7-9.7 11.9-17.1q6.6 2.2 13.1 4.6l1.7-1q-4.9-1.8-9.8-3.5c2.7-3.4 2.7-8.4 0.6-12.8q-1 1.3-1.7 2.8-0.6 1.5-0.9 3.1-0.2 1.6-0.1 3.2 0.1 1.6 0.7 3.2-3.4-1.2-6.8-2.3c2.2-5.4 1.2-11.9-2.1-17.3q-1 2-1.5 4.2-0.4 2.1-0.3 4.4 0.1 2.2 0.8 4.3 0.7 2.1 1.9 4-4.5-1.5-9.1-2.9 1.1-2 1.8-4.1 0.7-2.2 0.9-4.5 0.2-2.2 0-4.5-0.3-2.3-1.1-4.4-1.7 1.6-2.7 3.7-1.1 2-1.5 4.3-0.4 2.3-0.2 4.6 0.3 2.3 1.3 4.4-2.6-0.8-5.2-1.6 0.4-2.6 0.6-5.2 0.1-2.7 0.1-5.4-0.1-2.6-0.4-5.3-0.3-2.6-0.8-5.2c-2.2 3.3-4.2 7-4.5 11q-0.2 1.3 0 2.6 0.1 1.3 0.6 2.5 0.4 1.3 1 2.4 0.7 1.1 1.6 2.1-4.3-1.2-8.7-2.4 0.9-2.6 1.3-5.3 0.3-2.7 0-5.4-0.3-2.7-1.1-5.2-0.9-2.6-2.3-4.9c-4 5.8-3.7 14 0.4 20.3q-3.7-1-7.4-1.9c0.6-8.5-1.4-15.8-5.9-21.7q-0.7 1.4-1.2 2.8-0.4 1.5-0.6 3.1-0.2 1.5-0.1 3.1 0.1 1.5 0.5 3.1 0.3 1.3 0.9 2.5 0.5 1.3 1.1 2.4 0.7 1.2 1.6 2.3 0.8 1 1.7 2-3.7-0.9-7.5-1.7 0.4-3 0.1-5.9-0.3-2.9-1.2-5.7-0.9-2.8-2.4-5.3-1.5-2.5-3.5-4.7c-2.8 6.8-0.7 15.5 5.1 21.1q-3.5-0.7-7-1.4-0.2-3.2-1.1-6.2-0.8-3.1-2.4-5.8-1.5-2.8-3.7-5.2-2.1-2.3-4.7-4.1c-0.8 7.6 3.1 15.8 9.8 21q-3.7-0.7-7.4-1.3c-1.8-7.9-8.4-15.2-16.7-18.3q1 2.9 2.5 5.5 1.5 2.6 3.4 4.9 1.9 2.3 4.2 4.2 2.3 1.9 4.9 3.4-4.3-0.6-8.6-1.2-1.8-2.9-4-5.5-2.3-2.6-4.9-4.7-2.7-2.2-5.7-3.8-3-1.7-6.3-2.8c3.3 7.4 10.2 13.6 18.3 16.5-2-0.2-4.1-0.4-6.2-0.6"/>
	<path id="Layer" class="s1" d="m138.7 187.6q1.4 2.1 2.8 4.2 1.4 2.2 2.6 4.4 1.3 2.2 2.5 4.5 1.2 2.3 2.3 4.6-1.5 1-3 2-1.5 1.1-2.9 2.2-1.4 1.2-2.8 2.4-1.4 1.1-2.8 2.4 1.6-0.9 3.2-1.7 1.6-0.7 3.3-1.3 1.7-0.7 3.4-1.2 1.7-0.5 3.5-0.9c5.7 12.8 13.3 29.9 14.1 43.4-9.6-0.5-23.6-5.6-33.5-8.4 2.4-3.5 4.8-7 7.5-10.3q-1.7 1-3.3 2-1.7 1-3.3 2.1-1.6 1.1-3.1 2.2-1.6 1.2-3.1 2.4-3.7-1.3-7.4-2.7-3.7-1.4-7.3-3-3.6-1.6-7.1-3.4-3.5-1.8-7-3.8 1.7-2 3.3-4 1.7-2 3.5-3.9 1.7-2 3.5-3.9 1.9-1.9 3.7-3.7-2.8 1-5.6 2.2-2.7 1.2-5.4 2.6-2.6 1.4-5.2 3-2.6 1.6-5 3.3-1.5-0.9-2.9-1.9-1.5-1.1-2.9-2.1-1.5-1-2.9-2.1-1.4-1.1-2.7-2.2-1-0.7-1.9-1.5-1.7-1.4-3.4-2.9-1.6-1.5-3.3-3-1.6-1.5-3.2-3.1-1.5-1.6-3.1-3.2l3.1-2.8 16-14.6c-8.4 1.9-15.1 6.8-23 10.3l-1.9 0.9q-3.1-3.9-5.9-8-2.9-4.1-5.5-8.4-2.6-4.2-5-8.6-2.3-4.4-4.5-8.9 2.1-1.4 4.2-2.5c1.5-0.7 3-1.5 4.4-2.1q-2.8-0.2-5.7-0.3c-1.7 0-3.4-0.1-5.1 0-2.9-6.2-5.7-13-8.7-20.5 10.2-0.1 19.7 0 28.6 0.6q0.6 2.4 1.2 4.8 1 4.3 2.4 8.5 0.2-0.9 0.4-1.8 0.2-0.9 0.4-1.8 0.2-0.9 0.5-1.8 0.2-0.9 0.5-1.7 0.9-2.8 2-5.5 3.4 0.3 6.8 0.9 3.4 0.6 6.8 1.4 3.4 0.7 6.7 1.7 3.3 1 6.5 2.2-0.7 3.3-1.4 6.6c-1.1 5.6-2.3 11.2-3.5 16.8q3.1-6.9 6.9-13.5 2-3.6 4.2-7.1 2.7 1.2 5.2 2.7 2.6 1.4 5 3 2.5 1.6 4.8 3.4 2.4 1.7 4.6 3.6 1.3 1.2 2.7 2.4 1.3 1.2 2.6 2.4 1.3 1.2 2.5 2.5 1.3 1.2 2.5 2.5c-1 2-1.9 4-2.9 6q-3.5 7.1-6.9 14.2 6.6-5.7 13.2-11.4 1.2-1.1 2.4-2.1 4.1 4.9 7.8 10.3"/>
	<path id="Layer" fill-rule="evenodd" class="s2" d="m33.3 142.6q-0.3-0.1-0.3-0.4 0-0.2 0.1-0.4 0.1-0.2 0.4-0.3 0.2 0 0.4 0.1c1 0.7 13 8.5 14 9.2q-0.4-1.5-0.7-3.1-0.4-1.6-0.6-3.2-0.2-1.7-0.4-3.3-0.1-1.6-0.1-3.2h1.2q0 1.7 0.2 3.5 0.1 1.7 0.4 3.5 0.3 1.7 0.7 3.4 0.4 1.8 0.9 3.4 6 4.1 11.9 8.3 0-2.6 0.3-5.2 0.3-2.7 0.8-5.2 0.5-2.6 1.2-5.2 0.7-2.5 1.6-5l1.2 0.1q-0.9 2.6-1.7 5.2-0.7 2.7-1.2 5.3-0.5 2.7-0.8 5.5-0.3 2.7-0.3 5.4l3.5 2.5q0-3 0.3-6 0.3-3 0.9-5.9 0.7-2.9 1.6-5.7 1-2.9 2.3-5.6l1.2 0.3q-1.3 2.7-2.3 5.6-1 2.9-1.7 5.9-0.6 3-0.9 6.1-0.3 3.1-0.2 6.1 4.1 3 8.1 6 0.3-3.5 0.9-7 0.6-3.5 1.5-6.9 1-3.4 2.2-6.7 1.2-3.4 2.8-6.6l1.1 0.4q-1.6 3.3-2.8 6.6-1.2 3.4-2.2 6.9-0.9 3.5-1.5 7-0.6 3.6-0.9 7.2 9.2 6.9 18.1 14.1 0.6-4.2 1.5-8.3 0.9-4.1 2.2-8.2 1.3-4 2.9-7.9 1.6-3.9 3.5-7.6l1 0.6q-1.9 3.8-3.5 7.7-1.6 3.9-2.9 8-1.3 4-2.2 8.2-0.9 4.1-1.5 8.3 3.5 2.8 6.9 5.6 0.4-4.2 1.4-8.4 0.9-4.2 2.2-8.3 1.4-4 3.2-7.9 1.8-3.9 4-7.6l0.9 0.8q-2.2 3.7-4 7.6-1.7 3.9-3.1 8-1.3 4.1-2.2 8.3-0.9 4.2-1.3 8.5 6.9 5.7 13.7 11.7 1.5-3.3 3.3-6.4 1.8-3.1 3.9-6.1 2.2-2.9 4.6-5.5 2.4-2.7 5.1-5.1l0.7 0.9q-2.6 2.4-5 5.1-2.4 2.6-4.5 5.5-2.1 2.9-3.9 6.1-1.8 3.1-3.3 6.3 3.3 2.9 6.4 5.7 1.6-2.9 3.3-5.7 1.7-2.8 3.7-5.4 2-2.7 4.2-5.1 2.1-2.5 4.5-4.8l0.7 1q-2.4 2.3-4.5 4.7-2.2 2.5-4.1 5.1-1.9 2.6-3.6 5.4-1.8 2.8-3.2 5.7 3.1 2.8 6.2 5.7 1-2.9 2.3-5.7 1.3-2.7 2.9-5.3 1.7-2.6 3.6-4.9 2-2.4 4.2-4.4l0.6 1q-2.2 2.1-4.1 4.4-1.9 2.4-3.5 4.9-1.6 2.6-2.8 5.3-1.3 2.7-2.2 5.6 4.5 4.2 9 8.5 1.1-1.9 2.3-3.7 1.2-1.8 2.6-3.5 1.4-1.8 2.9-3.4 1.5-1.5 3.1-3l0.5 1.1q-1.6 1.5-3 3-1.5 1.6-2.8 3.3-1.3 1.7-2.5 3.5-1.2 1.7-2.2 3.6 5.2 5 10.3 10.2 0.4-1.4 1-2.8 0.6-1.4 1.3-2.7 0.7-1.3 1.5-2.5 0.9-1.2 1.9-2.3l0.5 1.2q-0.9 1.1-1.7 2.3-0.8 1.2-1.5 2.5-0.6 1.2-1.1 2.6-0.5 1.3-0.9 2.7c11.7 11.9 9.5 10 20.4 22.7l-1.3 0.4c-10.8-12.6-8.4-10.5-20-22.3q-1.4 0.4-2.8 0.9-1.4 0.5-2.7 1.2-1.4 0.6-2.6 1.4-1.3 0.8-2.5 1.7-1.1 0.8-2.2 1.8l-1.4-0.4q0.4-0.3 0.7-0.6 0.4-0.3 0.7-0.6 0.4-0.3 0.8-0.6 0.3-0.3 0.7-0.6 1.2-0.9 2.4-1.6 1.3-0.8 2.6-1.5 1.3-0.6 2.6-1.1 1.4-0.6 2.8-0.9-5.1-5.2-10.3-10.2-2.3 0.6-4.5 1.5-2.2 0.8-4.3 1.9-2.1 1.1-4.2 2.3-2 1.3-3.9 2.7-0.5 0.4-1.1 0.9-0.5 0.4-1 0.8-0.6 0.5-1.1 0.9-0.5 0.5-1 1l-1.3-0.5q2.3-2.1 4.8-4 2.5-1.9 5.2-3.5 2.7-1.6 5.6-2.8 2.8-1.3 5.8-2.2-4.4-4.2-8.8-8.3-2 0.7-3.9 1.7-1.9 0.9-3.7 1.9-1.8 1.1-3.6 2.2-1.8 1.2-3.5 2.4-1.1 0.9-2.3 1.9-1.1 0.9-2.3 1.9-1.1 1-2.1 2.1-1.1 1-2.1 2.1l-1.1-0.5q1-1.2 2.1-2.3 1.1-1.1 2.3-2.1 1.2-1.1 2.4-2.1 1.2-1 2.4-2 1.7-1.2 3.4-2.3 1.7-1.2 3.5-2.2 1.8-1 3.7-1.9 1.8-1 3.7-1.8-3.2-2.9-6.4-5.8-0.9 0.5-1.9 1.1-0.9 0.6-1.8 1.3-0.9 0.6-1.8 1.2-0.9 0.7-1.8 1.3-2.1 1.6-4.2 3.4-2 1.7-3.9 3.6-1.9 1.8-3.7 3.8-1.8 1.9-3.5 4l-1.1-0.6q1.7-2.1 3.6-4.1 1.8-2 3.8-3.9 1.9-1.9 4-3.7 2.1-1.8 4.3-3.4 3.4-2.6 7.1-4.9-3.1-2.8-6.3-5.6-3.3 1.4-6.5 3-3.1 1.6-6.2 3.3-3.1 1.8-6 3.8-3 1.9-5.8 4.1-2.4 1.8-4.7 3.7l-1-0.7q2.4-2.1 5-4 2.8-2.1 5.7-4.1 2.9-1.9 6-3.7 3-1.7 6.1-3.3 3.2-1.6 6.4-3-6.6-5.7-13.3-11.3-3 0.9-5.9 2.2-3 1.2-5.8 2.7-2.8 1.5-5.5 3.2-2.7 1.7-5.2 3.6-1 0.8-2 1.6-1 0.7-1.9 1.6-1 0.8-1.9 1.6-0.9 0.9-1.8 1.8l-0.9-0.8q3.1-3.1 6.6-5.9 3.5-2.7 7.3-5 3.8-2.3 7.8-4.2 4-1.9 8.2-3.3-3.5-3-7.1-5.9-2.3 1.2-4.6 2.4-2.3 1.2-4.5 2.6-2.2 1.3-4.3 2.8-2.2 1.4-4.3 3-1.3 1-2.6 2-1.3 1.1-2.6 2.2-1.3 1.1-2.5 2.2-1.2 1.2-2.4 2.3l-0.9-0.8q1.2-1.2 2.5-2.3 1.2-1.2 2.5-2.3 1.3-1.1 2.6-2.2 1.4-1.1 2.7-2.1 2.1-1.5 4.2-2.9 2.1-1.5 4.2-2.8 2.2-1.3 4.4-2.6 2.3-1.2 4.6-2.3-9.1-7.3-18.4-14.3-1.7 1-3.4 2-1.7 1.1-3.3 2.2-1.7 1.1-3.3 2.3-1.7 1.1-3.2 2.3-1.4 1-2.7 2-1.2 1.1-2.5 2.1-1.3 1.1-2.5 2.2-1.3 1.1-2.5 2.2l-0.6-1q1.2-1.1 2.4-2.2 1.2-1.1 2.5-2.2 1.3-1 2.5-2 1.3-1.1 2.6-2 1.6-1.2 3.2-2.3 1.6-1.2 3.2-2.2 1.6-1.1 3.3-2.1 1.7-1.1 3.3-2-4-3-8-5.9-2.5 0.9-5.1 2-2.5 1-4.9 2.3-2.4 1.3-4.7 2.8-2.3 1.5-4.5 3.1-1.3 1-2.6 2.1l-0.6-1.1q1.3-1 2.5-2 2.1-1.6 4.4-3 2.2-1.5 4.6-2.8 2.4-1.2 4.8-2.3 2.4-1.1 5-2-1.9-1.4-3.9-2.8-2.6 0.6-5.2 1.4-2.5 0.8-5 2-2.5 1.1-4.8 2.4-2.3 1.4-4.4 3.1-0.5 0.3-0.9 0.6l-0.6-1 0.7-0.6q2.1-1.6 4.4-2.9 2.2-1.4 4.6-2.5 2.4-1.1 4.9-2 2.5-0.8 5-1.4-5.3-3.8-10.7-7.5h-0.4q-2 0-3.9 0.2-1.9 0.2-3.8 0.6-1.9 0.3-3.8 0.9-1.8 0.6-3.6 1.3l-0.5-1.1q1.7-0.7 3.5-1.2 1.7-0.6 3.5-1 1.8-0.4 3.6-0.6 1.9-0.2 3.7-0.3c-1.2-0.8-13.3-8.8-14.5-9.6zm69 50.7h0.1l-0.1-0.1zm-53.8-40.4h0.3l-0.4-0.3c0.1 0.1 0.1 0.2 0.1 0.3z"/>
	<path id="Layer" class="s3" d="m447.1 313.8l-0.5-5.6 5.6 0.1v6.5l-5.1-1z"/>
	<path id="Layer" fill-rule="evenodd" class="s4" d="m446.8 313.3c-1.1 4-4.2 5.7-2.2 8.1h10.4c0 0 0-0.1 0-0.1q0.2-0.2 0.3-0.4 0.1-0.2 0.1-0.5 0-0.2 0-0.4 0-0.2-0.1-0.4c-0.6-2.3-2.4-5.8-3-6-1.2-0.4-2.9 0.6-5.5-0.3"/>
	<path id="Layer" fill-rule="evenodd" class="s5" d="m444 319.5v0.4q0 0.3 0.1 0.5 0 0.2 0.1 0.4 0.1 0.2 0.3 0.3 0.1 0.2 0.3 0.3h10.2q0.2-0.2 0.3-0.4 0.1-0.2 0.2-0.5 0-0.2 0-0.5-0.1-0.2-0.2-0.4z"/>
	<path id="Layer" fill-rule="evenodd" class="s5" d="m429.7 235.5l6.1 24.7 3.1 14.7 6.9 35.7q0.4 0.2 0.9 0.3 0.4 0.1 0.9 0.2 0.5 0.1 1 0.1 0.5 0 1-0.1 0.4 0 0.8 0 0.5 0 0.9-0.1 0.5-0.1 0.9-0.1 0.4-0.1 0.9-0.2c0-10.6 0-24-1.2-37.5-1-11.3 1.3-20.8 0.7-33.2-0.3-3.7-2.9-10.7-2.8-10.6z"/>
	<path id="Layer" class="s3" d="m422 313.8l0.1-5.8 5.6 0.1-0.6 6.7-5.1-1z"/>
	<path id="Layer" fill-rule="evenodd" class="s4" d="m421.6 312.6c-2.8 3.3-8.8 4-11.4 4.8-2 0.7-3 3-1.4 4h19.4v-0.1c0.3-1 1-7.8-1-7.7q-0.7 0.1-1.4 0.1-0.8 0-1.5-0.1-0.7-0.1-1.4-0.4-0.7-0.2-1.3-0.6"/>
	<path id="Layer" fill-rule="evenodd" class="s5" d="m408 319.5v0.4q0 0.3 0.1 0.5 0 0.2 0.1 0.4 0.1 0.2 0.3 0.3 0.1 0.2 0.3 0.3h19.4v-0.1c0.1-0.2 0.2-1.2 0.3-1.7z"/>
	<path id="Layer" fill-rule="evenodd" class="s5" d="m421.6 234.2l-0.7 9.3c-1.8 19-1 43.3 0.6 67.1q0.6 0.1 1.2 0.2 0.7 0.1 1.3 0.2 0.6 0 1.3 0.1 0.6 0 1.2 0c2.4-0.2 1.9-0.5 1.9-0.5l5.5-38.9q0.3-2 0.7-4 0.4-2 0.9-4 0.5-2 1.2-3.9 0.6-2 1.3-3.9c2.1-5 4.6-6.4 4.3-12.2-0.4-6 0.1-10.7-0.8-12.7-0.8-2.1-5-1.3-5-1.3z"/>
	<path id="Layer" fill-rule="evenodd" class="s5" d="m432.7 280.4l1.2-8.7q0.2-1.3 0.4-2.6 0.3-1.2 0.5-2.5 0.3-1.3 0.6-2.5 0.3-1.3 0.7-2.5l-1.2-8.3-2.4 20.7z"/>
	<path id="Layer" fill-rule="evenodd" class="s4" d="m430.2 207.9c-3.3 7.2-4.6 15.1-14 16.6-6.7 0.1-20.5-5.8-19.6-8.2 1-2.5-2.5-4.5 1.3-4.4 5.1 0 17.7 1.3 18.8 1.2 1.2-0.1 5.4-16.3 12.1-18.7 0.8-0.5 3.7 9.9 1.4 13.5"/>
	<path id="Layer" fill-rule="evenodd" class="s6" d="m396.6 211.7c-0.5-0.7-2.4-3.6-3.1-3.9-0.4-0.1-0.4 0-0.5 0.2q0 0.1 0 0.3 0 0.1 0 0.2 0.1 0.1 0.1 0.2 0 0.1 0.1 0.2c0.3 0.6 0.2 1.7 0.5 2-3.3 1.3-7.6-1-7.9 0.8 0.2 0.4 1.7 1.9 2 2.4 0.9 1.6 1.6 2.3 8.6 2.6 0.3 0 1.2 0.3 1.5 0.3q0.2-0.5 0.4-1 0.1-0.5 0.1-1 0.1-0.6 0-1.1 0-0.5-0.2-1z"/>
	<path id="Layer" fill-rule="evenodd" class="s7" d="m466.2 250.3c0 0-0.1-3.2 0.8-3.5 0.9-0.4 4.5 0 4.5 0q0.2 0 0.4 0.2 0.1 0.1 0.3 0.3 0.1 0.2 0.2 0.4 0.1 0.3 0 0.5c0.1 1.2 0.1 2.2 0.1 2.2h-1.2q0.1-0.3 0.1-0.5 0-0.3 0-0.5-0.1-0.3-0.1-0.5 0-0.3-0.1-0.5c-0.2-0.3-3.5-0.1-3.5-0.1 0 0-0.4 0-0.4 0.9-0.1 0.9 0 1.2 0 1.2z"/>
	<path id="Layer" class="s8" d="m460.6 249.8l18.7 0.4 0.1 28.4h-18.9v-28.8z"/>
	<path id="Layer" fill-rule="evenodd" class="s9" d="m478.8 250.2h0.3l0.2 2.5 0.1 25.9h-18.9v-8.8c10.4 13.8 17.1-7.5 18.3-19.6z"/>
	<path id="Layer" fill-rule="evenodd" class="s5" d="m461.8 207.9c4.4 11 6.8 22.6 8.2 34.3 0.2 1.2-0.8 2.6-2.3 3.4-0.9 0.5-1.5 0.5-3.2-1-2.6-3.1-4.5-14.7-7.4-19.3-5.5-9.1-11-18-8-23.8 0.2-0.9 11.7 2.8 12.6 6.4z"/>
	<path id="Layer" fill-rule="evenodd" class="s4" d="m454.5 219.1q-0.5 3.5-0.9 7-0.3 3.4-0.5 6.9-0.2 3.5-0.2 7 0 3.5 0.2 7c-13 2.2-25.3 1.5-33-0.9 0.3-8.6-2.2-49.6 10.5-52.3 8.5-2.4 20-1.7 24.8 3 3.6 3.3 8.1 14.6 10.2 22.7 4.5 17-7.4 7.6-11.2-0.4"/>
	<path id="Layer" fill-rule="evenodd" class="s10" d="m433.9 192.9c-1.6 7-2.1 30.9-1.9 38.8 0.3-0.6 13.5-33.5 14.6-38.9q-1.6-0.4-3.2-0.6-1.6-0.1-3.2-0.1-1.6 0-3.2 0.2-1.5 0.2-3.1 0.6z"/>
	<path id="Layer" class="s8" d="m431.4 218.2l0.6 13.5 5.8-12.4 0.4-17.4 1.4-2-1.5-1.6-1.8 1 0.6 2.2c-1.8 4.8-4.3 13-5.5 16.8"/>
	<path id="Layer" fill-rule="evenodd" class="s5" d="m454.5 219.1q-0.4 3.5-0.7 7-0.3 3.5-0.5 6.9-0.2 3.5-0.2 7 0 3.5 0 7c-3.4-8.4-1.6-30.5-0.9-33.9q0.2 0.8 0.5 1.6 0.2 0.7 0.5 1.5 0.3 0.8 0.6 1.5 0.3 0.8 0.7 1.5"/>
	<path id="Layer" fill-rule="evenodd" class="s6" d="m433 186.4q0.3 0.7 0.7 1.2 0.3 0.6 0.8 1.1 0.5 0.5 1 0.9 0.5 0.4 1.1 0.7v2.7l-0.4 0.3c-1.5 1.6 0.1 4.9 1.8 4.8 4.3 0.2 7.7-3.3 6.4-5.3l-0.6-0.6-0.1-3.7c0.2 0 1.8-1 2.3-1.1q0.3-0.2 0.5-0.4 0.2-0.2 0.4-0.5 0.2-0.2 0.2-0.5 0.1-0.3 0.1-0.7c0-1-1.4-0.6-1.4-0.6 1.8-2.6 3.9-4.6 1.2-6.9-2.7-2.2-8.9-3.6-8.9-3.6l-3.8-1.3c0.5 1.3-0.1 5.6-1.1 8.3-0.8 2.4-1.4 2.8-0.2 5.2z"/>
	<path id="Layer" fill-rule="evenodd" class="s11" d="m441.9 189c-1.3 2.1-2.7 4.3-5.4 4l0.1-2.6c1.2 0.2 2.3 0.1 5.3-1.4"/>
	<path id="Layer" fill-rule="evenodd" class="s4" d="m435 178.5c3.1 1.6 6.7-0.3 8.5 1.8 0.9 1.1 0.8 2.6-0.2 5-0.3 0.7-0.7 1.2 0.5 0.6 0.5-0.2 1.4-0.6 1.7-0.3q0.2 0.2 0.3 0.5 0.1 0.3 0.1 0.6-0.1 0.3-0.2 0.5-0.2 0.3-0.4 0.4c-0.2 0.2-0.7 0.5-0.7 0.5q1.3-0.3 2.4-1 1.1-0.7 1.9-1.8 0.9-1 1.2-2.3 0.4-1.2 0.4-2.6 0-0.3-0.1-0.6 0-0.4 0-0.7-0.1-0.4-0.1-0.7-0.1-0.4-0.2-0.7 0.1-0.1 0.1-0.2 0-0.1 0-0.3 0.1-0.1 0.1-0.2 0-0.1 0-0.2 0-0.5-0.2-0.9-0.1-0.4-0.4-0.8-0.2-0.4-0.6-0.7-0.4-0.2-0.8-0.4-0.1-0.5-0.3-0.9-0.3-0.5-0.6-0.8-0.4-0.3-0.9-0.5-0.4-0.2-0.9-0.2-0.2 0-0.3 0-0.2 0-0.3 0.1-0.2 0-0.3 0-0.2 0.1-0.3 0.2h-0.1q-0.4-0.6-0.9-1-0.6-0.3-1.2-0.4-0.7-0.1-1.3 0-0.6 0.2-1.1 0.7-0.3-0.4-0.7-0.7-0.3-0.3-0.7-0.6-0.4-0.2-0.9-0.3-0.5-0.1-0.9-0.1-0.9 0-1.7 0.4-0.8 0.4-1.4 1.1-0.6 0.6-0.8 1.4-0.3 0.9-0.3 1.8 0 0.5 0.1 1.1 0.1 0.5 0.4 1 0.2 0.5 0.6 0.9 0.3 0.5 0.8 0.8 0 0.1 0.1 0.2 0.1 0 0.2 0.1 0.1 0.1 0.2 0.1 0.1 0.1 0.2 0.2"/>
	<path id="Layer" class="s6" d="m465.3 244.3c0.5 1.9 0.6 2.7 0.9 4.6 0.1 0.4 1 0.8 1.7 1.2l3.5-0.1q0.1-0.1 0.2-0.2 0-0.1 0.1-0.2 0.1-0.2 0.2-0.3 0-0.1 0.1-0.2c0.4-0.6 0.1-2.1 0-2.6q-0.1-0.1-0.1-0.2-0.1-0.1-0.1-0.2-0.1-0.1-0.2-0.2 0 0-0.1-0.1c-0.5-0.7-1.2-1.6-1.3-1.8-0.3-0.5-0.7-0.8-0.8-1.4q-0.6 0-1.1 0.1-0.6 0.1-1.1 0.4-0.5 0.2-1 0.5-0.5 0.3-0.9 0.7"/>
	<path id="Layer" fill-rule="evenodd" class="s7" d="m465.9 246.8h2.2c0.9 0.3 0.5 1.4 0 1.3h-0.8v1.8h-1.4z"/>
	<path id="Layer" fill-rule="evenodd" class="s5" d="m432 231.7l-3.6-29.6 2.9-2.5-1.8-2.2 1.8-3.9q0.3 0 0.7-0.1 0.3-0.1 0.6-0.2 0.3 0 0.7-0.1 0.3-0.1 0.6-0.2c-1.5 7-2.1 30.9-1.9 38.8z"/>
	<path id="Layer" fill-rule="evenodd" class="s5" d="m432 231.7l17.8-27.4-2.1-3.3 2.4-1.6-0.8-6q-0.4-0.1-0.7-0.2-0.3-0.1-0.7-0.1-0.3-0.1-0.6-0.2-0.4-0.1-0.7-0.1c-1.2 5.5-14.3 38.2-14.6 38.8"/>
	<path id="Layer" class="s12" d="m455.2 249.8h5.4v28.8h-5.4z"/>
	<path id="Layer" fill-rule="evenodd" class="s13" d="m250.3 56.3c2.3 0 4.2 2.6 4.3 5.7l1.8 220.9h-11.8l1.5-220.9c0-3.1 1.9-5.7 4.2-5.7"/>
	<path id="Layer" fill-rule="evenodd" class="s13" d="m191.4 77.6h117.9c0.7 0 1.3 0.4 1.8 0.9 0.5 0.5 0.8 1.2 0.8 1.9 0 0.7-0.3 1.4-0.8 1.9-0.5 0.5-1.1 0.8-1.8 0.9h-117.9c-0.7-0.1-1.4-0.4-1.9-0.9-0.5-0.5-0.7-1.2-0.7-1.9 0-0.7 0.2-1.4 0.7-1.9 0.5-0.5 1.2-0.9 1.9-0.9z"/>
	<path id="Layer" fill-rule="evenodd" class="s13" d="m250.5 67.2c4.3 0 7.8 5.8 7.8 13 0 7.2-3.5 13.1-7.8 13.1-4.3 0-7.8-5.9-7.8-13.1 0-7.2 3.5-13 7.8-13z"/>
	<path id="Layer" class="s13" d="m303.8 83l-22.8 67.4-1.6-0.5 23.7-69.7 0.7 0.3 0.8-0.3 23.6 69.7-1.5 0.5-22.9-67.4z"/>
	<path id="Layer" fill-rule="evenodd" class="s14" d="m337.6 149.6c-0.9 8.3-4.8 16.1-11 21.7-6.3 5.6-14.4 8.7-22.8 8.7-8.4 0-16.4-3.1-22.7-8.7-6.2-5.6-10.2-13.4-11.1-21.7z"/>
	<path id="Layer" fill-rule="evenodd" class="s15" d="m271.1 155.3q-0.2-0.7-0.3-1.4-0.2-0.7-0.3-1.4-0.2-0.7-0.3-1.5-0.1-0.7-0.2-1.4h57.2v5.7z"/>
	<path id="Layer" fill-rule="evenodd" class="s15" d="m337.6 149.6c-0.5 5.1-2.2 10.1-5 14.5-2.8 4.4-6.5 8.1-10.9 10.8-4.4 2.7-9.3 4.4-14.5 4.9-5.1 0.5-10.3-0.2-15.2-2 5.3-1.2 16.4-4.7 25.1-13.8q1.4-1.5 2.6-3.2 1.2-1.7 2.2-3.5 0.9-1.8 1.7-3.8 0.7-1.9 1.2-3.9z"/>
	<path id="Layer" class="s16" d="m271.5 145.3h64.6c1.1 0 2.1 0.4 2.9 1.2 0.7 0.7 1.1 1.7 1.1 2.8 0 1.1-0.4 2.1-1.1 2.8-0.8 0.8-1.8 1.2-2.9 1.2h-64.6c-1 0-2.1-0.4-2.8-1.2-0.8-0.7-1.2-1.7-1.2-2.8 0-1.1 0.4-2.1 1.2-2.8 0.7-0.8 1.8-1.2 2.8-1.2z"/>
	<path id="Layer" fill-rule="evenodd" class="s13" d="m303.8 76.3c1.7 0 3.2 1 3.9 2.6 0.6 1.5 0.3 3.3-0.9 4.5-1.2 1.2-3 1.6-4.6 0.9-1.5-0.6-2.5-2.1-2.5-3.8q0-0.9 0.3-1.6 0.3-0.8 0.9-1.4 0.6-0.6 1.3-0.9 0.8-0.3 1.6-0.3z"/>
	<path id="Layer" fill-rule="evenodd" class="s13" d="m303.8 79c0.6 0 1.2 0.4 1.4 0.9 0.2 0.6 0.1 1.2-0.3 1.6-0.4 0.5-1.1 0.6-1.6 0.4-0.6-0.3-1-0.8-1-1.4q0.1-0.3 0.2-0.6 0.1-0.3 0.3-0.5 0.2-0.2 0.5-0.3 0.2-0.1 0.5-0.1z"/>
	<path id="Layer" fill-rule="evenodd" class="s13" d="m197.9 76.3c1.7 0 3.2 1 3.8 2.6 0.7 1.5 0.3 3.3-0.9 4.5-1.2 1.2-3 1.6-4.5 0.9-1.6-0.6-2.6-2.1-2.6-3.8q0-0.9 0.3-1.6 0.3-0.8 0.9-1.4 0.6-0.6 1.4-0.9 0.8-0.3 1.6-0.3z"/>
	<path id="Layer" fill-rule="evenodd" class="s13" d="m197.9 79c0.6 0 1.1 0.4 1.4 0.9 0.2 0.6 0.1 1.2-0.4 1.6-0.4 0.5-1 0.6-1.6 0.4-0.5-0.3-0.9-0.8-0.9-1.4q0-0.3 0.1-0.6 0.1-0.3 0.3-0.5 0.2-0.2 0.5-0.3 0.3-0.1 0.6-0.1z"/>
	<path id="Layer" class="s13" d="m197.9 83l-22.9 67.4-1.5-0.5 23.6-69.7 0.8 0.3 0.7-0.3 23.7 69.7-1.6 0.5-22.8-67.4z"/>
	<path id="Layer" fill-rule="evenodd" class="s14" d="m231.7 149.6c-0.9 8.3-4.9 16-11.1 21.6-6.3 5.6-14.3 8.7-22.7 8.7-8.4 0-16.5-3.1-22.7-8.7-6.3-5.6-10.2-13.3-11.1-21.6z"/>
	<path id="Layer" fill-rule="evenodd" class="s15" d="m165.2 155.3q-0.2-0.7-0.4-1.4-0.1-0.7-0.3-1.4-0.1-0.7-0.2-1.5-0.1-0.7-0.2-1.4h57.2v5.7z"/>
	<path id="Layer" fill-rule="evenodd" class="s15" d="m231.7 149.6c-0.6 5.1-2.3 10.1-5.1 14.5-2.7 4.3-6.4 8-10.8 10.8-4.4 2.7-9.4 4.4-14.5 4.9-5.2 0.5-10.4-0.2-15.2-2 5.3-1.2 16.3-4.7 25.1-13.8q1.4-1.5 2.6-3.2 1.2-1.7 2.1-3.5 1-1.8 1.8-3.8 0.7-1.9 1.2-3.9z"/>
	<path id="Layer" class="s16" d="m165.6 145.3h64.6c1.1 0 2.1 0.4 2.8 1.2 0.8 0.7 1.2 1.7 1.2 2.8 0 1.1-0.4 2.1-1.2 2.8-0.7 0.8-1.7 1.2-2.8 1.2h-64.6c-1.1 0-2.1-0.4-2.9-1.2-0.7-0.7-1.1-1.7-1.1-2.8 0-1.1 0.4-2.1 1.1-2.8 0.8-0.8 1.8-1.2 2.9-1.2z"/>
	<path id="Layer" fill-rule="evenodd" class="s17" d="m509.8 321.3h-466q-0.3-0.1-0.5 0.1-0.2 0.2-0.2 0.5 0 0.3 0.2 0.5 0.2 0.1 0.5 0.1h465.9q0.3 0 0.6-0.1 0.2-0.2 0.2-0.5 0-0.3-0.2-0.5-0.3-0.2-0.5-0.1z"/>
	<path id="Layer" fill-rule="evenodd" class="s14" d="m266.8 276.2h-105c-7.3 0-13.2 10.1-13.2 22.5 0 12.4 6 22.6 13.2 22.6h105c7.3 0 13.3-10.2 13.3-22.6 0-12.4-6-22.5-13.3-22.5z"/>
	<path id="Layer" fill-rule="evenodd" class="s10" d="m166.7 314.4h-99.3q1.8-3.6 2.7-7.6 1-4 1-8.1 0-4-1-8-0.9-4-2.7-7.6h99.3c3.3 0 6 7 6 15.6 0 8.6-2.7 15.7-6 15.7z"/>
	<path id="Layer" fill-rule="evenodd" class="s18" d="m71.1 299.3q0-2.1-0.2-4.2-0.2-2.1-0.7-4.1-0.5-2.1-1.2-4.1-0.7-1.9-1.6-3.8h99.3c3.3 0 6 7 6 15.6v0.6z"/>
	<path id="Layer" fill-rule="evenodd" class="s19" d="m64.3 321.3h102.7c4.8 0 9.8-10.3 9.8-22.7 0-12.4-5-22.4-9.8-22.4h-102.7v6.7l102.4 0.2c3.3 0 6 7 6 15.6 0 8.6-2.7 15.7-6 15.7l-102.4-0.1z"/>
	<path id="Layer" fill-rule="evenodd" class="s19" d="m159.6 289.9h-11.4c-4.3 2.8-3.1 13.9-5.6 21.1l6.7-6 4.8 5.6c3.8-6.5 1.7-17.7 5.5-20.7"/>
	<path id="Layer" fill-rule="evenodd" class="s20" d="m77.5 231.1h105c7.3 0 13.3 10.2 13.3 22.6-0.1 12.4-6.1 22.5-13.3 22.5h-105c-7.3 0-13.2-10.1-13.2-22.5 0-12.4 6-22.6 13.2-22.6z"/>
	<path id="Layer" fill-rule="evenodd" class="s21" d="m108 231.1h37.7c-7.3 0-13.3 10.2-13.3 22.6 0 12.4 6 22.5 13.3 22.5h-37.7c-7.3 0-13.3-10.2-13.3-22.5 0.1-12.4 6.1-22.6 13.3-22.6z"/>
	<path id="Layer" fill-rule="evenodd" class="s10" d="m177.6 269.3h99.4q-1.8-3.6-2.8-7.6-0.9-3.9-0.9-8 0-4.1 0.9-8.1 1-4 2.8-7.6h-99.4c-3.3 0-6 7.1-6 15.7 0 8.6 2.7 15.6 6 15.6z"/>
	<path id="Layer" fill-rule="evenodd" class="s18" d="m273.3 254.3q-0.1-2.1 0.2-4.2 0.2-2.1 0.7-4.2 0.4-2 1.2-4 0.7-2 1.6-3.9h-99.4c-3.3 0-6 7.1-6 15.7q0 0.3 0 0.6z"/>
	<path id="Layer" fill-rule="evenodd" class="s21" d="m280.1 276.2h-102.8c-4.8 0-9.9-10.3-9.9-22.7 0-12.4 5.1-22.4 9.9-22.4h102.8v6.8l-102.4 0.1c-3.4 0-6.1 7.1-6.1 15.7 0 8.6 2.7 15.6 6.1 15.6l102.4-0.1z"/>
	<path id="Layer" fill-rule="evenodd" class="s21" d="m184.7 244.9h11.4c4.4 2.8 3.1 13.8 5.7 21.1l-6.7-6-4.9 5.6c-3.8-6.6-1.6-17.8-5.5-20.7"/>
	<path id="Layer" fill-rule="evenodd" class="s21" d="m205.5 253.6h11.4c4.3 1.1 3.1 5.7 5.7 8.6l-6.8-2.4-4.8 2.3c-3.8-2.7-1.6-7.3-5.5-8.5"/>
	<path id="Layer" fill-rule="evenodd" class="s14" d="m251.7 205.9h-82.3c-5.7 0-10.4 5.7-10.4 12.6 0 7 4.7 12.6 10.4 12.6h82.3c5.7 0 10.4-5.6 10.4-12.6 0-6.9-4.7-12.6-10.4-12.6z"/>
	<path id="Layer" fill-rule="evenodd" class="s19" d="m227.8 205.9h-29.5c5.7 0 10.4 5.7 10.4 12.6 0 7-4.7 12.6-10.4 12.6h29.5c5.7 0 10.4-5.6 10.4-12.6 0-6.9-4.7-12.6-10.4-12.6z"/>
	<path id="Layer" fill-rule="evenodd" class="s10" d="m173.3 227.3h-77.9c3.2-4.5 4.5-10.9 0-17.5h77.8c2.6 0 4.8 3.9 4.8 8.7 0 4.8-2.1 8.8-4.8 8.8z"/>
	<path id="Layer" fill-rule="evenodd" class="s18" d="m98.3 218.9q0-1.2-0.2-2.5-0.2-1.2-0.5-2.3-0.4-1.2-1-2.3-0.5-1.1-1.2-2h77.9c2.5 0 4.7 3.9 4.7 8.7v0.4z"/>
	<path id="Layer" fill-rule="evenodd" class="s19" d="m93 231.1h80.6c3.7 0 7.7-5.7 7.7-12.7 0-6.9-4-12.5-7.7-12.5h-80.6v3.8l80.3 0.1c2.5 0 4.7 3.9 4.7 8.7 0 4.8-2.1 8.8-4.7 8.8l-80.3-0.1z"/>
	<path id="Layer" fill-rule="evenodd" class="s10" d="m229.7 286.4h4.2l1.9 19h0.1l2-19h4.7l2 19h0.1l1.9-19h3.8l-2.8 24.7h-5.4l-2-16.7h-0.1l-2 16.7h-5.7zm-10.9 0h5.8l4.5 24.7h-4.3l-0.8-4.9v0.1h-4.9l-0.8 4.8h-4zm4.7 16.5l-1.9-12.2h-0.1l-1.9 12.2zm-21.8-16.5h4.4v21.2h7.1v3.5h-11.5z"/>
	<path id="Layer" fill-rule="evenodd" class="s19" d="m383.9 279.9q0.7-1.4 2-2.5 1.3-1.1 2.9-1.6 1.6-0.6 3.3-0.4 1.6 0.1 3.1 0.9l57.2 29.1c2.1 0.9 3.7 2.7 4.4 4.9 0.8 2.1 0.6 4.5-0.4 6.6-1 2-2.9 3.6-5.1 4.2-2.2 0.7-4.6 0.4-6.6-0.7l-57.1-29.1c-1-0.6-1.9-1.2-2.6-2.1-0.7-0.8-1.3-1.8-1.6-2.9-0.4-1-0.5-2.1-0.4-3.2 0.1-1.1 0.4-2.2 0.9-3.2"/>
	<path id="Layer" fill-rule="evenodd" class="s14" d="m451.6 308.7l-55.8-28.8q-0.3-0.1-0.7-0.2-0.4 0-0.7 0.1-0.3 0.1-0.6 0.3-0.3 0.3-0.5 0.6-0.1 0.3-0.2 0.7 0 0.3 0.1 0.7 0.1 0.3 0.4 0.6 0.2 0.3 0.5 0.5l55.9 28.7q0.3 0.2 0.7 0.2 0.3 0.1 0.7 0 0.3-0.2 0.6-0.4 0.3-0.2 0.5-0.5 0.1-0.4 0.2-0.7 0-0.4-0.1-0.7-0.1-0.4-0.4-0.7-0.2-0.2-0.5-0.4"/>
	<path id="Layer" fill-rule="evenodd" class="s14" d="m315.3 303.6h-8.6c-9.1 0-16.4-14.9-16.4-33.2 0-18.2 7.3-33.1 16.4-33.1h8.6c9.1 0 16.5 14.9 16.5 33.1 0 18.3-7.4 33.2-16.5 33.2z"/>
	<path id="Layer" fill-rule="evenodd" class="s22" d="m321.9 294.9c-5.3 0-9.7-11-9.7-24.5 0-13.5 4.4-24.5 9.7-24.5h43.6v49z"/>
	<path id="Layer" fill-rule="evenodd" class="s23" d="m321.9 294.9c-4.2 0-7.8-6.8-9.1-16.3h52.7v16.3z"/>
	<path id="Layer" fill-rule="evenodd" class="s24" d="m321.9 294.9c-2.9 0-5.4-3.1-7.2-8.1h50.8v8.1z"/>
	<path id="Layer" fill-rule="evenodd" class="s14" d="m384.1 303.6h-8.6c-9.1 0-16.4-14.9-16.4-33.2 0-18.2 7.3-33.1 16.4-33.1h8.6c9.1 0 16.5 14.9 16.5 33.1 0 18.3-7.4 33.2-16.5 33.2z"/>
	<path id="Layer" fill-rule="evenodd" class="s19" d="m390.9 245.9c5.4 0 9.7 11 9.7 24.5 0 13.5-4.3 24.5-9.7 24.5-5.3 0-9.6-11-9.6-24.5 0-13.5 4.3-24.5 9.6-24.5z"/>
	<path id="Layer" fill-rule="evenodd" class="s14" d="m284.1 321.3h119.4v-8.9c0-1.1-0.3-2.3-0.7-3.4-0.5-1-1.1-2-1.9-2.8-0.9-0.8-1.8-1.5-2.9-1.9-1.1-0.5-2.2-0.7-3.4-0.7h-101.7c-1.2 0-2.3 0.2-3.4 0.7-1 0.4-2 1.1-2.8 1.9-0.9 0.8-1.5 1.8-2 2.8-0.4 1.1-0.6 2.3-0.7 3.4z"/>
	<path id="Layer" fill-rule="evenodd" class="s23" d="m284.1 321.3h104.5v-8.9c0-1.1-0.3-2.3-0.7-3.4-0.5-1-1.1-2-1.9-2.8-0.9-0.8-1.8-1.5-2.9-1.9-1.1-0.5-2.2-0.7-3.4-0.7h-86.8c-1.2 0-2.3 0.2-3.4 0.7-1 0.4-2 1.1-2.8 1.9-0.9 0.8-1.5 1.8-2 2.8-0.4 1.1-0.6 2.3-0.7 3.4z"/>
</svg>