<svg id="Layer_1" data-name="Layer 1" xmlns="http://www.w3.org/2000/svg" xmlns:xlink="http://www.w3.org/1999/xlink" viewBox="0 0 50 50"><defs><style>.cls-1{fill:url(#linear-gradient);}.cls-2{fill:url(#linear-gradient-2);}.cls-3{fill:url(#linear-gradient-3);}.cls-4{fill:url(#linear-gradient-4);}.cls-5{fill:url(#linear-gradient-5);}.cls-6{fill:url(#linear-gradient-6);}.cls-7{fill:url(#linear-gradient-7);}</style><linearGradient id="linear-gradient" x1="11.36" y1="25.14" x2="33.16" y2="25.14" gradientUnits="userSpaceOnUse"><stop offset="0" stop-color="#1b4071"/><stop offset="0.26" stop-color="#1d4374"/><stop offset="0.44" stop-color="#254b7d"/><stop offset="0.6" stop-color="#32598d"/><stop offset="0.74" stop-color="#456ea3"/><stop offset="0.88" stop-color="#5d88bf"/><stop offset="1" stop-color="#78a5df"/></linearGradient><linearGradient id="linear-gradient-2" x1="11.12" y1="25.14" x2="33.4" y2="25.14" xlink:href="#linear-gradient"/><linearGradient id="linear-gradient-3" x1="13.9" y1="22.3" x2="30.64" y2="22.3" xlink:href="#linear-gradient"/><linearGradient id="linear-gradient-4" x1="34.23" y1="32.49" x2="43.36" y2="32.49" xlink:href="#linear-gradient"/><linearGradient id="linear-gradient-5" x1="34.23" y1="30.05" x2="43.36" y2="30.05" xlink:href="#linear-gradient"/><linearGradient id="linear-gradient-6" x1="34.23" y1="27.6" x2="43.36" y2="27.6" xlink:href="#linear-gradient"/><linearGradient id="linear-gradient-7" x1="34.23" y1="25.16" x2="43.36" y2="25.16" xlink:href="#linear-gradient"/></defs><path class="cls-1" d="M33.16,39.57H11.36V10.71H26.73l0,0,6.4,6.4Zm-21.55-.25h21.3V17.25L26.62,11h-15Z"/><path class="cls-2" d="M33.4,39.8H11.12V10.48h15.7l.11.1,6.47,6.47Zm-21.56-.71H32.68V17.35l-6.15-6.16H11.84Z"/><path class="cls-3" d="M20.12,18.86v-2H13.9V27.77H30.64V18.86Zm-5.43-1.24h4.64v1.24H14.69Zm0,6.09h4.64V25H14.69Zm0-.79V21.68h4.64v1.24Zm0-2V19.65h4.64v1.24Zm0,6.09V25.74h4.64V27Zm15.16,0H20.12V25.74h9.73Zm0-2H20.12V23.71h9.73Zm0-2H20.12V21.68h9.73Zm-9.73-2V19.65h9.73v1.24Z"/><rect class="cls-4" x="34.23" y="31.97" width="9.14" height="1.04"/><rect class="cls-5" x="34.23" y="29.53" width="9.14" height="1.04"/><rect class="cls-6" x="34.23" y="27.08" width="9.14" height="1.04"/><rect class="cls-7" x="34.23" y="24.64" width="9.14" height="1.04"/></svg>