<svg id="Layer_1" data-name="Layer 1" xmlns="http://www.w3.org/2000/svg" xmlns:xlink="http://www.w3.org/1999/xlink" viewBox="0 0 50 50"><defs><style>.cls-1{fill:url(#linear-gradient);}.cls-2{fill:url(#linear-gradient-2);}.cls-3{fill:url(#linear-gradient-3);}.cls-4{fill:url(#linear-gradient-4);}</style><linearGradient id="linear-gradient" x1="12.14" y1="23.51" x2="28.83" y2="23.51" gradientUnits="userSpaceOnUse"><stop offset="0" stop-color="#1b4071"/><stop offset="0.26" stop-color="#1d4374"/><stop offset="0.44" stop-color="#254b7d"/><stop offset="0.6" stop-color="#32598d"/><stop offset="0.74" stop-color="#456ea3"/><stop offset="0.88" stop-color="#5d88bf"/><stop offset="1" stop-color="#78a5df"/></linearGradient><linearGradient id="linear-gradient-2" x1="11.9" y1="23.51" x2="29.06" y2="23.51" xlink:href="#linear-gradient"/><linearGradient id="linear-gradient-3" x1="14.08" y1="21.34" x2="26.9" y2="21.34" xlink:href="#linear-gradient"/><linearGradient id="linear-gradient-4" x1="30.3" y1="28.56" x2="42.59" y2="28.56" xlink:href="#linear-gradient"/></defs><path class="cls-1" d="M28.83,34.56H12.14V12.46H23.9l0,0,4.9,4.9Zm-16.5-.19H28.64V17.47l-4.82-4.82H12.33Z"/><path class="cls-2" d="M29.06,34.79H11.9V12.23H24l.1.1,5,5Zm-16.5-.66H28.41V17.57l-4.68-4.68H12.56Z"/><path class="cls-3" d="M18.85,18.7V17.15H14.08v8.37H26.9V18.7Zm-4.16-.95h3.55v.95H14.69Zm0,4.67h3.55v.95H14.69Zm0-.61v-.95h3.55v.95Zm0-1.55v-1h3.55v1Zm0,4.66V24h3.55v1Zm11.6,0H18.85V24h7.44Zm0-1.55H18.85v-.95h7.44Zm0-1.56H18.85v-.95h7.44Zm-7.44-1.55v-1h7.44v1Z"/><path class="cls-4" d="M42.36,32.66c-.06-.28-1.28-.81-2.2-1.25a11.77,11.77,0,0,1-1.86-1.28l-.44-.36v-.58a13.05,13.05,0,0,0,1-1.64,3.3,3.3,0,0,0,.4-1.18c0-.21-.27-.39-.27-.39V24.6a2.38,2.38,0,0,0-2.56-2.18,2.39,2.39,0,0,0-2.57,2.18V26s-.26.18-.26.39A3.28,3.28,0,0,0,34,27.55a14.37,14.37,0,0,0,1,1.64v.37h0v.13l-.4.41a13,13,0,0,1-1.92,1.32c-.91.44-2.14,1-2.19,1.25l-.24,2H42.59Zm-7.92-5.28a6.35,6.35,0,0,1,0-2.88c.41-1.17,1.26-.4,1.26-.4a2.63,2.63,0,0,1,2.52-.25s.67.83.16,3.37-1.93,2.15-1.93,2.15S35.25,29.66,34.44,27.38Z"/></svg>