<svg id="Layer_1" data-name="Layer 1" xmlns="http://www.w3.org/2000/svg" xmlns:xlink="http://www.w3.org/1999/xlink" viewBox="0 0 50 50"><defs><style>.cls-1{fill:url(#linear-gradient);}.cls-2{fill:url(#linear-gradient-2);}.cls-3{fill:url(#linear-gradient-3);}.cls-4{fill:url(#linear-gradient-4);}.cls-5{fill:url(#linear-gradient-5);}</style><linearGradient id="linear-gradient" x1="10.2" y1="25.14" x2="29.98" y2="25.14" gradientUnits="userSpaceOnUse"><stop offset="0" stop-color="#1b4071"/><stop offset="0.26" stop-color="#1d4374"/><stop offset="0.44" stop-color="#254b7d"/><stop offset="0.6" stop-color="#32598d"/><stop offset="0.74" stop-color="#456ea3"/><stop offset="0.88" stop-color="#5d88bf"/><stop offset="1" stop-color="#78a5df"/></linearGradient><linearGradient id="linear-gradient-2" x1="9.97" y1="25.14" x2="30.21" y2="25.14" xlink:href="#linear-gradient"/><linearGradient id="linear-gradient-3" x1="12.51" y1="22.57" x2="27.69" y2="22.57" xlink:href="#linear-gradient"/><linearGradient id="linear-gradient-4" x1="31.93" y1="32.16" x2="41.66" y2="32.16" xlink:href="#linear-gradient"/><linearGradient id="linear-gradient-5" x1="36.01" y1="32.1" x2="37.58" y2="32.1" xlink:href="#linear-gradient"/></defs><path class="cls-1" d="M30,38.22H10.2V12.05H24.14l0,0L30,17.89ZM10.43,38H29.75V18l-5.7-5.7H10.43Z"/><path class="cls-2" d="M30.21,38.46H10V11.82H24.24l.1.1,5.87,5.87Zm-19.55-.69H29.52V18.08L24,12.51H10.66Z"/><path class="cls-3" d="M18.15,19.45V17.6H12.51v9.93H27.69V19.45Zm-4.93-1.13h4.22v1.13H13.22Zm0,5.52h4.22V25H13.22Zm0-.71V22h4.22v1.13Zm0-1.84V20.16h4.22v1.13Zm0,5.52V25.69h4.22v1.12Zm13.75,0H18.15V25.69H27ZM27,25H18.15V23.84H27Zm0-1.84H18.15V22H27Zm-8.82-1.84V20.16H27v1.13Z"/><rect class="cls-4" x="31.93" y="31.38" width="9.73" height="1.56"/><rect class="cls-5" x="36.01" y="27.26" width="1.56" height="9.68"/></svg>