<svg id="Layer_1" data-name="Layer 1" xmlns="http://www.w3.org/2000/svg" xmlns:xlink="http://www.w3.org/1999/xlink" viewBox="0 0 50 50"><defs><style>.cls-1{fill:none;stroke-miterlimit:10;stroke:url(#linear-gradient);}.cls-2{fill:url(#linear-gradient-2);}</style><linearGradient id="linear-gradient" x1="9.71" y1="25.9" x2="38.2" y2="25.9" gradientUnits="userSpaceOnUse"><stop offset="0" stop-color="#1b4071"/><stop offset="0.26" stop-color="#1d4374"/><stop offset="0.44" stop-color="#254b7d"/><stop offset="0.6" stop-color="#32598d"/><stop offset="0.74" stop-color="#456ea3"/><stop offset="0.88" stop-color="#5d88bf"/><stop offset="1" stop-color="#78a5df"/></linearGradient><linearGradient id="linear-gradient-2" x1="15.14" y1="1378.46" x2="32.7" y2="1378.46" gradientTransform="translate(0 -1354)" xlink:href="#linear-gradient"/></defs><path class="cls-1" d="M34.39,13H13.45a3.24,3.24,0,0,0-3.24,3.24h0V31.87a3.24,3.24,0,0,0,3.23,3.24h6.42a2.64,2.64,0,0,1,2.34,1.41l1,1.83a.85.85,0,0,0,1.15.36.83.83,0,0,0,.36-.36l1-1.83a2.64,2.64,0,0,1,2.34-1.41h6.41a3.24,3.24,0,0,0,3.24-3.24h0V16.24A3.24,3.24,0,0,0,34.46,13Z"/><path class="cls-2" d="M31.15,29.35a8.75,8.75,0,1,0-16-4.35,9.29,9.29,0,0,0,7.79,8.16A8.75,8.75,0,0,0,28.33,32a1.1,1.1,0,0,1,1,0l2.08,1.1a.35.35,0,0,0,.48-.12.33.33,0,0,0,0-.32c-.27-.73-.65-1.72-.87-2.31A1,1,0,0,1,31.15,29.35Z"/></svg>