<svg id="Layer_1" data-name="Layer 1" xmlns="http://www.w3.org/2000/svg" xmlns:xlink="http://www.w3.org/1999/xlink" viewBox="0 0 50 50"><defs><style>.cls-1{fill:url(#linear-gradient);}.cls-2{fill:url(#linear-gradient-2);}.cls-3{fill:url(#linear-gradient-3);}</style><linearGradient id="linear-gradient" x1="37.62" y1="16.48" x2="42.05" y2="16.48" gradientUnits="userSpaceOnUse"><stop offset="0" stop-color="#1b4071"/><stop offset="0.26" stop-color="#1d4374"/><stop offset="0.44" stop-color="#254b7d"/><stop offset="0.6" stop-color="#32598d"/><stop offset="0.74" stop-color="#456ea3"/><stop offset="0.88" stop-color="#5d88bf"/><stop offset="1" stop-color="#78a5df"/></linearGradient><linearGradient id="linear-gradient-2" x1="13.75" y1="37.88" x2="24.95" y2="37.88" xlink:href="#linear-gradient"/><linearGradient id="linear-gradient-3" x1="7.04" y1="18.44" x2="42.64" y2="18.44" xlink:href="#linear-gradient"/></defs><path class="cls-1" d="M41.8,15.45a4,4,0,0,1-1.51,4.68l-2.67-7.27A4,4,0,0,1,41.8,15.45Z"/><path class="cls-2" d="M20.1,31.08l-.45.13c-1.64.46-3.32,1-5,1.62l-.32.12a3.68,3.68,0,0,1-.54.16l.31.84c.07.18.14.35.22.53l4.3,9.22a3.34,3.34,0,0,0,6.07-2.8l-2.86-6.12.36-.13a3,3,0,0,0,1.77-3.83l-.23-.62C22.52,30.45,21.32,30.74,20.1,31.08Z"/><path class="cls-3" d="M32.83,4.64a43,43,0,0,1-7.35,7.69l6,16.23A43.05,43.05,0,0,1,42,29.66a.5.5,0,0,0,.59-.66L33.69,4.76A.49.49,0,0,0,32.83,4.64ZM10.11,20.78l-.26.09a4.15,4.15,0,0,0-2.57,5.26l1.36,3.71a4.12,4.12,0,0,0,4.83,2.5,3.62,3.62,0,0,0,.53-.17l.33-.12c1.71-.62,3.4-1.16,5-1.62l.45-.13c1.22-.33,2.41-.62,3.58-.88l1.71-.35a47.9,47.9,0,0,1,5.35-.49L24.71,13a48.7,48.7,0,0,1-4.39,3.09A69.85,69.85,0,0,1,10.11,20.78Zm2.77,10a.43.43,0,0,1-.25.55l-1.22.45a.43.43,0,0,1-.55-.26l-.12-.35A.43.43,0,0,1,11,30.6l1.22-.44a.42.42,0,0,1,.55.25Zm-.71-1.94a.42.42,0,0,1-.25.55l-1.22.45a.43.43,0,0,1-.55-.25L10,29.22a.42.42,0,0,1,.25-.55l1.22-.45a.43.43,0,0,1,.55.26Zm-.71-1.93a.42.42,0,0,1-.25.55L10,27.89a.43.43,0,0,1-.55-.25l-.12-.35a.42.42,0,0,1,.25-.55l1.22-.45a.43.43,0,0,1,.55.25ZM10.75,25a.42.42,0,0,1-.25.55L9.28,26a.43.43,0,0,1-.55-.26l-.12-.34a.43.43,0,0,1,.25-.55l1.22-.45a.43.43,0,0,1,.55.26ZM10,23a.42.42,0,0,1-.25.55L8.57,24A.43.43,0,0,1,8,23.77l-.12-.34a.43.43,0,0,1,.25-.55l1.22-.45a.43.43,0,0,1,.55.26Z"/></svg>