<svg xmlns="http://www.w3.org/2000/svg" xmlns:xlink="http://www.w3.org/1999/xlink" viewBox="0 0 50 50"><defs><style>.cls-1,.cls-10,.cls-11,.cls-12,.cls-13,.cls-2,.cls-3,.cls-4,.cls-5,.cls-6,.cls-7,.cls-8,.cls-9{stroke-miterlimit:10;}.cls-1{fill:url(#linear-gradient);stroke:url(#linear-gradient-2);}.cls-2{fill:url(#linear-gradient-3);stroke:url(#linear-gradient-4);}.cls-3{fill:url(#linear-gradient-5);stroke:url(#linear-gradient-6);}.cls-4{fill:url(#linear-gradient-7);stroke:url(#linear-gradient-8);}.cls-5{fill:url(#linear-gradient-9);stroke:url(#linear-gradient-10);}.cls-6{fill:url(#linear-gradient-11);stroke:url(#linear-gradient-12);}.cls-7{fill:url(#linear-gradient-13);stroke:url(#linear-gradient-14);}.cls-8{fill:url(#linear-gradient-15);stroke:url(#linear-gradient-16);}.cls-9{fill:url(#linear-gradient-17);stroke:url(#linear-gradient-18);}.cls-10{fill:url(#linear-gradient-19);stroke:url(#linear-gradient-20);}.cls-11{fill:url(#linear-gradient-21);stroke:url(#linear-gradient-22);}.cls-12{fill:url(#linear-gradient-23);stroke:url(#linear-gradient-24);}.cls-13{fill:url(#linear-gradient-25);stroke:url(#linear-gradient-26);}</style><linearGradient id="linear-gradient" x1="32.89" y1="36.38" x2="39.68" y2="36.38" gradientUnits="userSpaceOnUse"><stop offset="0" stop-color="#1b4071"/><stop offset="0.26" stop-color="#1d4374"/><stop offset="0.44" stop-color="#254b7d"/><stop offset="0.6" stop-color="#32598d"/><stop offset="0.74" stop-color="#456ea3"/><stop offset="0.88" stop-color="#5d88bf"/><stop offset="1" stop-color="#78a5df"/></linearGradient><linearGradient id="linear-gradient-2" x1="32.39" y1="36.38" x2="40.18" y2="36.38" xlink:href="#linear-gradient"/><linearGradient id="linear-gradient-3" x1="20.11" y1="29.22" x2="42.88" y2="29.22" xlink:href="#linear-gradient"/><linearGradient id="linear-gradient-4" x1="19.61" y1="29.22" x2="43.38" y2="29.22" xlink:href="#linear-gradient"/><linearGradient id="linear-gradient-5" x1="24.05" y1="29.22" x2="38.94" y2="29.22" xlink:href="#linear-gradient"/><linearGradient id="linear-gradient-6" x1="23.55" y1="29.22" x2="39.44" y2="29.22" xlink:href="#linear-gradient"/><linearGradient id="linear-gradient-7" x1="27.99" y1="29.22" x2="34.99" y2="29.22" xlink:href="#linear-gradient"/><linearGradient id="linear-gradient-8" x1="27.49" y1="29.22" x2="35.49" y2="29.22" xlink:href="#linear-gradient"/><linearGradient id="linear-gradient-9" x1="31.15" y1="26.13" x2="38.03" y2="26.13" xlink:href="#linear-gradient"/><linearGradient id="linear-gradient-10" x1="30.65" y1="26.13" x2="38.53" y2="26.13" xlink:href="#linear-gradient"/><linearGradient id="linear-gradient-11" x1="37.34" y1="21.03" x2="42.03" y2="21.03" xlink:href="#linear-gradient"/><linearGradient id="linear-gradient-12" x1="36.84" y1="21.03" x2="42.53" y2="21.03" xlink:href="#linear-gradient"/><linearGradient id="linear-gradient-13" x1="8.09" y1="23.47" x2="33.07" y2="23.47" xlink:href="#linear-gradient"/><linearGradient id="linear-gradient-14" x1="7.59" y1="23.47" x2="33.57" y2="23.47" xlink:href="#linear-gradient"/><linearGradient id="linear-gradient-15" x1="11.61" y1="25.33" x2="16.95" y2="25.33" xlink:href="#linear-gradient"/><linearGradient id="linear-gradient-16" x1="11.11" y1="25.33" x2="17.45" y2="25.33" xlink:href="#linear-gradient"/><linearGradient id="linear-gradient-17" x1="11.61" y1="34.41" x2="16.95" y2="34.41" xlink:href="#linear-gradient"/><linearGradient id="linear-gradient-18" x1="11.11" y1="34.41" x2="17.45" y2="34.41" xlink:href="#linear-gradient"/><linearGradient id="linear-gradient-19" x1="11.61" y1="16.26" x2="16.95" y2="16.26" xlink:href="#linear-gradient"/><linearGradient id="linear-gradient-20" x1="11.11" y1="16.26" x2="17.45" y2="16.26" xlink:href="#linear-gradient"/><linearGradient id="linear-gradient-21" x1="18.6" y1="15.85" x2="29.67" y2="15.85" xlink:href="#linear-gradient"/><linearGradient id="linear-gradient-22" x1="18.1" y1="15.85" x2="30.17" y2="15.85" xlink:href="#linear-gradient"/><linearGradient id="linear-gradient-23" x1="18.6" y1="17.85" x2="23.08" y2="17.85" xlink:href="#linear-gradient"/><linearGradient id="linear-gradient-24" x1="18.1" y1="17.85" x2="23.58" y2="17.85" xlink:href="#linear-gradient"/><linearGradient id="linear-gradient-25" x1="8.09" y1="9.09" x2="13.6" y2="9.09" xlink:href="#linear-gradient"/><linearGradient id="linear-gradient-26" x1="7.59" y1="9.09" x2="14.1" y2="9.09" xlink:href="#linear-gradient"/></defs><g id="OBJECTS"><path class="cls-1" d="M33.23,38.77a.34.34,0,0,1-.06-.68,7.77,7.77,0,0,0,.95-.24.35.35,0,0,1,.43.23.34.34,0,0,1-.23.43,8.62,8.62,0,0,1-1,.26Zm2.53-.87a.33.33,0,0,1-.31-.18.35.35,0,0,1,.15-.47,9,9,0,0,0,3.45-3.1.34.34,0,0,1,.48-.1.35.35,0,0,1,.1.48,9.85,9.85,0,0,1-3.71,3.34A.45.45,0,0,1,35.76,37.9Z"/><path class="cls-2" d="M31.49,40.61a11.39,11.39,0,1,1,7.15-20.25.34.34,0,1,1-.43.53,10.7,10.7,0,1,0,4,8.33,10.68,10.68,0,0,0-1.54-5.53.35.35,0,0,1,.12-.47.34.34,0,0,1,.47.12,11.38,11.38,0,0,1-9.75,17.27Z"/><path class="cls-3" d="M31.49,36.66a7.44,7.44,0,1,1,0-14.88A7.36,7.36,0,0,1,36.75,24a.34.34,0,1,1-.48.48,6.77,6.77,0,1,0,.89,1.1.34.34,0,1,1,.57-.37,7.34,7.34,0,0,1,1.21,4A7.45,7.45,0,0,1,31.49,36.66Z"/><path class="cls-4" d="M31.49,32.72a3.5,3.5,0,1,1,2.48-6,.34.34,0,0,1,0,.48.34.34,0,0,1-.49,0,2.81,2.81,0,1,0,.82,2,2.92,2.92,0,0,0-.12-.83.35.35,0,0,1,.23-.43.35.35,0,0,1,.43.23,3.57,3.57,0,0,1,.15,1A3.5,3.5,0,0,1,31.49,32.72Z"/><path class="cls-5" d="M31.49,29.56a.34.34,0,0,1-.24-.58l6.19-6.19a.34.34,0,0,1,.49,0,.34.34,0,0,1,0,.48l-6.19,6.19A.35.35,0,0,1,31.49,29.56Z"/><path class="cls-6" d="M37.68,23.38a.32.32,0,0,1-.24-.11.34.34,0,0,1-.1-.27l.14-1.81a.41.41,0,0,1,.1-.21l2.2-2.2a.34.34,0,0,1,.48,0l1.67,1.67a.35.35,0,0,1,.1.24.39.39,0,0,1-.1.25l-2.19,2.19a.37.37,0,0,1-.22.1l-1.81.14Zm.48-2-.1,1.28,1.28-.11,1.86-1.86L40,19.51Z"/><path class="cls-7" d="M25.6,40.6H8.44a.35.35,0,0,1-.35-.34V11.5a.35.35,0,0,1,.1-.24L13,6.44a.37.37,0,0,1,.25-.1H32.73a.34.34,0,0,1,.34.34V16.76a.34.34,0,1,1-.68,0V7h-19L8.78,11.64V39.92H25.6a.34.34,0,1,1,0,.68Z"/><path class="cls-8" d="M13.7,27.78a.35.35,0,0,1-.28-.14l-1.75-2.37a.35.35,0,0,1,.56-.41l1.46,2L16.32,23a.35.35,0,1,1,.57.39L14,27.64a.32.32,0,0,1-.27.14Z"/><path class="cls-9" d="M13.7,36.86a.35.35,0,0,1-.28-.14l-1.75-2.37a.35.35,0,0,1,.56-.41l1.46,2,2.63-3.82A.34.34,0,0,1,16.8,32a.36.36,0,0,1,.09.48L14,36.71a.31.31,0,0,1-.27.15Z"/><path class="cls-10" d="M13.7,18.71a.35.35,0,0,1-.28-.14L11.67,16.2a.36.36,0,0,1,.08-.49.34.34,0,0,1,.48.08l1.46,2L16.32,14a.35.35,0,0,1,.48-.08.36.36,0,0,1,.09.48L14,18.56a.33.33,0,0,1-.27.15Z"/><path class="cls-11" d="M29.33,16.19H19a.35.35,0,0,1-.35-.34A.35.35,0,0,1,19,15.5H29.33a.35.35,0,0,1,.34.35A.34.34,0,0,1,29.33,16.19Z"/><path class="cls-12" d="M22.74,18.19H19a.35.35,0,0,1-.35-.34A.35.35,0,0,1,19,17.5h3.79a.35.35,0,0,1,.34.35A.34.34,0,0,1,22.74,18.19Z"/><path class="cls-13" d="M13.26,11.85H8.44a.35.35,0,0,1-.32-.22.36.36,0,0,1,.07-.37L13,6.44a.34.34,0,0,1,.38-.07.33.33,0,0,1,.21.31V11.5A.35.35,0,0,1,13.26,11.85Zm-4-.69h3.64V7.52Z"/></g></svg>