<svg xmlns="http://www.w3.org/2000/svg" xmlns:xlink="http://www.w3.org/1999/xlink" viewBox="0 0 50 50"><defs><style>.cls-1,.cls-2,.cls-3,.cls-4,.cls-5,.cls-6{stroke-miterlimit:10;}.cls-1{fill:url(#linear-gradient);stroke:url(#linear-gradient-2);}.cls-2{fill:url(#linear-gradient-3);stroke:url(#linear-gradient-4);}.cls-3,.cls-5{fill:url(#linear-gradient-5);}.cls-3{stroke:url(#linear-gradient-6);}.cls-4,.cls-6{fill:url(#linear-gradient-7);}.cls-4{stroke:url(#linear-gradient-8);}.cls-5{stroke:url(#linear-gradient-10);}.cls-6{stroke:url(#linear-gradient-12);}</style><linearGradient id="linear-gradient" x1="131.36" y1="24.3" x2="-58.75" y2="24.3" gradientUnits="userSpaceOnUse"><stop offset="0" stop-color="#1b4071"/><stop offset="0.26" stop-color="#1d4374"/><stop offset="0.44" stop-color="#254b7d"/><stop offset="0.6" stop-color="#32598d"/><stop offset="0.74" stop-color="#456ea3"/><stop offset="0.88" stop-color="#5d88bf"/><stop offset="1" stop-color="#78a5df"/></linearGradient><linearGradient id="linear-gradient-2" x1="8.16" y1="24.3" x2="46.06" y2="24.3" xlink:href="#linear-gradient"/><linearGradient id="linear-gradient-3" x1="131.36" y1="20.49" x2="-58.75" y2="20.49" xlink:href="#linear-gradient"/><linearGradient id="linear-gradient-4" x1="13.59" y1="20.49" x2="17.22" y2="20.49" xlink:href="#linear-gradient"/><linearGradient id="linear-gradient-5" x1="131.36" y1="24.34" x2="-58.75" y2="24.34" xlink:href="#linear-gradient"/><linearGradient id="linear-gradient-6" x1="13.59" y1="24.34" x2="17.22" y2="24.34" xlink:href="#linear-gradient"/><linearGradient id="linear-gradient-7" x1="131.36" y1="28.11" x2="-58.75" y2="28.11" xlink:href="#linear-gradient"/><linearGradient id="linear-gradient-8" x1="13.59" y1="28.11" x2="17.22" y2="28.11" xlink:href="#linear-gradient"/><linearGradient id="linear-gradient-10" x1="18.02" y1="24.34" x2="21.65" y2="24.34" xlink:href="#linear-gradient"/><linearGradient id="linear-gradient-12" x1="18.02" y1="28.11" x2="24.97" y2="28.11" xlink:href="#linear-gradient"/></defs><g id="OBJECTS"><path class="cls-1" d="M45.08,22.63l-6.58-1-2.94-6a.53.53,0,0,0-.11-.14V6.15a.55.55,0,0,0-.56-.55H17.43a.32.32,0,0,0-.14,0l-.05,0a.62.62,0,0,0-.17.11L8.82,14a.91.91,0,0,0-.11.16.43.43,0,0,1,0,.05.4.4,0,0,0,0,.15s0,0,0,0V42.45a.56.56,0,0,0,.56.56H34.89a.56.56,0,0,0,.56-.56v-10L41,35.35a.48.48,0,0,0,.26.07.56.56,0,0,0,.32-.11.54.54,0,0,0,.22-.54l-1.12-6.56,4.76-4.64a.55.55,0,0,0-.31-.94ZM16.91,7.49v6.36H10.55ZM9.77,41.9V15h7.7A.55.55,0,0,0,18,14.4V6.7H34.34v9.46l-2.72,5.51-6.58,1a.55.55,0,0,0-.31.94l4.76,4.64-1.12,6.56a.54.54,0,0,0,.22.54.57.57,0,0,0,.29.11H29a.35.35,0,0,0,.14-.06l5.17-2.71V41.9ZM39.64,27.62a.55.55,0,0,0-.15.5l1,5.73-5.15-2.71a.59.59,0,0,0-.52,0l-5.15,2.71,1-5.73a.55.55,0,0,0-.15-.5l-4.17-4.06,5.76-.83a.54.54,0,0,0,.41-.31l2.58-5.22,2.58,5.22a.54.54,0,0,0,.41.31l5.76.83Z"/><path class="cls-2" d="M16.17,19.94H14.64a.56.56,0,0,0,0,1.11h1.53a.56.56,0,0,0,0-1.11Z"/><path class="cls-3" d="M16.17,23.79H14.64a.56.56,0,0,0,0,1.11h1.53a.56.56,0,0,0,0-1.11Z"/><path class="cls-4" d="M16.17,27.56H14.64a.56.56,0,0,0,0,1.11h1.53a.56.56,0,0,0,0-1.11Z"/><path class="cls-5" d="M19.08,24.9H20.6a.56.56,0,0,0,0-1.11H19.08a.56.56,0,1,0,0,1.11Z"/><path class="cls-6" d="M23.91,27.56H19.08a.56.56,0,1,0,0,1.11h4.83a.56.56,0,1,0,0-1.11Z"/></g></svg>