<svg id="Layer_1" data-name="Layer 1" xmlns="http://www.w3.org/2000/svg" xmlns:xlink="http://www.w3.org/1999/xlink" viewBox="0 0 50 50"><defs><style>.cls-1{fill:url(#linear-gradient);}.cls-2{fill:url(#linear-gradient-2);}.cls-3{fill:url(#linear-gradient-3);}.cls-4{fill:url(#linear-gradient-4);}.cls-5{fill:url(#linear-gradient-5);}.cls-6{fill:url(#linear-gradient-6);}.cls-7{fill:url(#linear-gradient-7);}.cls-8{fill:url(#linear-gradient-8);}.cls-9{fill:url(#linear-gradient-9);}.cls-10{fill:url(#linear-gradient-10);}.cls-11{fill:url(#linear-gradient-11);}.cls-12{fill:url(#linear-gradient-12);}.cls-13{fill:url(#linear-gradient-13);}.cls-14{fill:url(#linear-gradient-14);}.cls-15{fill:url(#linear-gradient-15);}.cls-16{fill:url(#linear-gradient-16);}.cls-17{fill:url(#linear-gradient-17);}.cls-18{fill:url(#linear-gradient-18);}.cls-19{fill:url(#linear-gradient-19);}.cls-20{fill:url(#linear-gradient-20);}.cls-21{fill:url(#linear-gradient-21);}.cls-22{fill:url(#linear-gradient-22);}.cls-23{fill:url(#linear-gradient-23);}.cls-24{fill:url(#linear-gradient-24);}.cls-25{fill:url(#linear-gradient-25);}.cls-26{fill:url(#linear-gradient-26);}.cls-27{fill:url(#linear-gradient-27);}.cls-28{fill:url(#linear-gradient-28);}.cls-29{fill:url(#linear-gradient-29);}.cls-30{fill:url(#linear-gradient-30);}.cls-31{fill:url(#linear-gradient-31);}.cls-32{fill:url(#linear-gradient-32);}.cls-33{fill:url(#linear-gradient-33);}.cls-34{fill:url(#linear-gradient-34);}.cls-35{fill:url(#linear-gradient-35);}</style><linearGradient id="linear-gradient" x1="27.13" y1="38.89" x2="30.46" y2="38.89" gradientTransform="translate(23.58 -9.22) rotate(30.33)" gradientUnits="userSpaceOnUse"><stop offset="0" stop-color="#1b4071"/><stop offset="0.26" stop-color="#1d4374"/><stop offset="0.44" stop-color="#254b7d"/><stop offset="0.6" stop-color="#32598d"/><stop offset="0.74" stop-color="#456ea3"/><stop offset="0.88" stop-color="#5d88bf"/><stop offset="1" stop-color="#78a5df"/></linearGradient><linearGradient id="linear-gradient-2" x1="27.64" y1="40.42" x2="30.99" y2="40.42" gradientTransform="translate(24.29 -9.26) rotate(30.17)" xlink:href="#linear-gradient"/><linearGradient id="linear-gradient-3" x1="29.07" y1="44.81" x2="35.19" y2="44.81" gradientTransform="matrix(1, 0, 0, 1, 0, 0)" xlink:href="#linear-gradient"/><linearGradient id="linear-gradient-4" x1="17.56" y1="31.67" x2="31.42" y2="31.67" gradientTransform="matrix(1, 0, 0, 1, 0, 0)" xlink:href="#linear-gradient"/><linearGradient id="linear-gradient-5" x1="11.73" y1="23.93" x2="37.42" y2="23.93" gradientTransform="matrix(1, 0, 0, 1, 0, 0)" xlink:href="#linear-gradient"/><linearGradient id="linear-gradient-6" x1="18.5" y1="6.65" x2="30.64" y2="6.65" gradientTransform="matrix(1, 0, 0, 1, 0, 0)" xlink:href="#linear-gradient"/><linearGradient id="linear-gradient-7" x1="24.82" y1="31.75" x2="28.7" y2="31.75" gradientTransform="matrix(1, 0, 0, 1, 0, 0)" xlink:href="#linear-gradient"/><linearGradient id="linear-gradient-8" x1="20.11" y1="30.65" x2="24.21" y2="30.65" gradientTransform="matrix(1, 0, 0, 1, 0, 0)" xlink:href="#linear-gradient"/><linearGradient id="linear-gradient-9" x1="22.1" y1="29.12" x2="26.33" y2="29.12" gradientTransform="matrix(1, 0, 0, 1, 0, 0)" xlink:href="#linear-gradient"/><linearGradient id="linear-gradient-10" x1="20.58" y1="33.97" x2="25.42" y2="33.97" gradientTransform="matrix(1, 0, 0, 1, 0, 0)" xlink:href="#linear-gradient"/><linearGradient id="linear-gradient-11" x1="17.29" y1="17.55" x2="31.86" y2="17.55" gradientTransform="matrix(1, 0, 0, 1, 0, 0)" xlink:href="#linear-gradient"/><linearGradient id="linear-gradient-12" x1="19.84" y1="21.52" x2="20.89" y2="21.52" gradientTransform="matrix(1, 0, 0, 1, 0, 0)" xlink:href="#linear-gradient"/><linearGradient id="linear-gradient-13" x1="22.73" y1="19.66" x2="23.78" y2="19.66" gradientTransform="matrix(1, 0, 0, 1, 0, 0)" xlink:href="#linear-gradient"/><linearGradient id="linear-gradient-14" x1="25.39" y1="19.13" x2="26.44" y2="19.13" gradientTransform="matrix(1, 0, 0, 1, 0, 0)" xlink:href="#linear-gradient"/><linearGradient id="linear-gradient-15" x1="28.23" y1="16.36" x2="29.28" y2="16.36" gradientTransform="matrix(1, 0, 0, 1, 0, 0)" xlink:href="#linear-gradient"/><linearGradient id="linear-gradient-16" x1="19.84" y1="19.32" x2="20.89" y2="19.32" gradientTransform="matrix(1, 0, 0, 1, 0, 0)" xlink:href="#linear-gradient"/><linearGradient id="linear-gradient-17" x1="22.73" y1="16.36" x2="23.78" y2="16.36" gradientTransform="matrix(1, 0, 0, 1, 0, 0)" xlink:href="#linear-gradient"/><linearGradient id="linear-gradient-18" x1="25.39" y1="21.71" x2="26.44" y2="21.71" gradientTransform="matrix(1, 0, 0, 1, 0, 0)" xlink:href="#linear-gradient"/><linearGradient id="linear-gradient-19" x1="26.03" y1="17.33" x2="28.65" y2="17.33" gradientTransform="matrix(1, 0, 0, 1, 0, 0)" xlink:href="#linear-gradient"/><linearGradient id="linear-gradient-20" x1="20.8" y1="17.84" x2="22.82" y2="17.84" gradientTransform="matrix(1, 0, 0, 1, 0, 0)" xlink:href="#linear-gradient"/><linearGradient id="linear-gradient-21" x1="23.48" y1="19.03" x2="25.7" y2="19.03" gradientTransform="matrix(1, 0, 0, 1, 0, 0)" xlink:href="#linear-gradient"/><linearGradient id="linear-gradient-22" x1="28.23" y1="12.95" x2="29.28" y2="12.95" gradientTransform="matrix(1, 0, 0, 1, 0, 0)" xlink:href="#linear-gradient"/><linearGradient id="linear-gradient-23" x1="29.52" y1="16.25" x2="29.81" y2="16.25" gradientTransform="matrix(1, 0, 0, 1, 0, 0)" xlink:href="#linear-gradient"/><linearGradient id="linear-gradient-24" x1="28.59" y1="14.72" x2="29.81" y2="14.72" gradientTransform="matrix(1, 0, 0, 1, 0, 0)" xlink:href="#linear-gradient"/><linearGradient id="linear-gradient-25" x1="18.54" y1="17.81" x2="29.81" y2="17.81" gradientTransform="matrix(1, 0, 0, 1, 0, 0)" xlink:href="#linear-gradient"/><linearGradient id="linear-gradient-26" x1="22.35" y1="18.4" x2="23.56" y2="18.4" gradientTransform="matrix(1, 0, 0, 1, 0, 0)" xlink:href="#linear-gradient"/><linearGradient id="linear-gradient-27" x1="29.5" y1="13.14" x2="29.81" y2="13.14" gradientTransform="matrix(1, 0, 0, 1, 0, 0)" xlink:href="#linear-gradient"/><linearGradient id="linear-gradient-28" x1="25.7" y1="20.2" x2="25.76" y2="20.2" gradientTransform="matrix(1, 0, 0, 1, 0, 0)" xlink:href="#linear-gradient"/><linearGradient id="linear-gradient-29" x1="21.14" y1="19.36" x2="22.55" y2="19.36" gradientTransform="matrix(1, 0, 0, 1, 0, 0)" xlink:href="#linear-gradient"/><linearGradient id="linear-gradient-30" x1="21.03" y1="20.11" x2="21.09" y2="20.11" gradientTransform="matrix(1, 0, 0, 1, 0, 0)" xlink:href="#linear-gradient"/><linearGradient id="linear-gradient-31" x1="26.37" y1="18.35" x2="26.87" y2="18.35" gradientTransform="matrix(1, 0, 0, 1, 0, 0)" xlink:href="#linear-gradient"/><linearGradient id="linear-gradient-32" x1="27.41" y1="17.33" x2="28.3" y2="17.33" gradientTransform="matrix(1, 0, 0, 1, 0, 0)" xlink:href="#linear-gradient"/><linearGradient id="linear-gradient-33" x1="20.93" y1="20.59" x2="22.69" y2="20.59" gradientTransform="matrix(1, 0, 0, 1, 0, 0)" xlink:href="#linear-gradient"/><linearGradient id="linear-gradient-34" x1="23.98" y1="19.46" x2="24.57" y2="19.46" gradientTransform="matrix(1, 0, 0, 1, 0, 0)" xlink:href="#linear-gradient"/><linearGradient id="linear-gradient-35" x1="24.93" y1="19.29" x2="25.19" y2="19.29" gradientTransform="matrix(1, 0, 0, 1, 0, 0)" xlink:href="#linear-gradient"/></defs><rect class="cls-1" x="27.14" y="38.41" width="3.3" height="0.96" transform="translate(-15.7 19.86) rotate(-30.33)"/><rect class="cls-2" x="27.67" y="39.91" width="3.28" height="1.01" transform="translate(-16.34 20.21) rotate(-30.17)"/><path class="cls-3" d="M29.07,42.63,31.91,41,35,46.18a1.66,1.66,0,0,1-.59,2.26h0a1.67,1.67,0,0,1-2.26-.59Z"/><path class="cls-4" d="M21,25.58A6.94,6.94,0,0,0,26,38.31l.13.21a.43.43,0,0,0,.57.16h0L29.62,37a.41.41,0,0,0,.15-.57h0l-.13-.22A6.94,6.94,0,0,0,21,25.58Zm6.31,10.7a5.49,5.49,0,1,1,2-7.51h0A5.49,5.49,0,0,1,27.26,36.28Z"/><path class="cls-5" d="M26.66,39.55H13.38V8.31H18a3.43,3.43,0,0,1,1-1.66H12.79a1.06,1.06,0,0,0-1.06,1.06V40.15a1.06,1.06,0,0,0,1.06,1.06H27.64Zm9.7-32.9H30.11a3.34,3.34,0,0,1,1,1.66h4.66V39.55H31.68l1,1.65h3.72a1.05,1.05,0,0,0,1.06-1.06V7.71A1.06,1.06,0,0,0,36.36,6.65Z"/><path class="cls-6" d="M29.64,7a3.78,3.78,0,0,0-2.43-.86h-.54a1.74,1.74,0,0,0-.61-1.32,2.2,2.2,0,0,0-1.49-.55,2,2,0,0,0-2.1,1.87h-.53a3.22,3.22,0,0,0-3.44,3H30.64A2.78,2.78,0,0,0,29.64,7ZM24.57,7a1,1,0,1,1,1-1h0a1,1,0,0,1-1,1Z"/><path class="cls-7" d="M28.7,31.57a4.13,4.13,0,0,1-2.9,4l-1-3.92L26.61,28A4.13,4.13,0,0,1,28.7,31.57Z"/><path class="cls-8" d="M20.39,33.15a4.5,4.5,0,0,1,.21-3.61,4.33,4.33,0,0,1,1.12-1.4l2.49,3.34Z"/><path class="cls-9" d="M22.1,27.86a4.46,4.46,0,0,1,4.23-.39l-1.8,3.66Z"/><path class="cls-10" d="M24.57,36a4.51,4.51,0,0,1-4-2.46l3.83-1.68,1,4.05A4,4,0,0,1,24.57,36Z"/><polygon class="cls-11" points="31.86 23.64 30.03 22.59 30.03 23.44 18.55 23.44 18.55 12.24 19.4 12.24 18.34 10.41 17.29 12.24 18.15 12.24 18.15 23.84 30.03 23.84 30.03 24.7 31.86 23.64"/><circle class="cls-12" cx="20.36" cy="21.52" r="0.52"/><circle class="cls-13" cx="23.26" cy="19.66" r="0.52"/><circle class="cls-14" cx="25.92" cy="19.13" r="0.52"/><circle class="cls-15" cx="28.76" cy="16.36" r="0.52"/><circle class="cls-16" cx="20.36" cy="19.32" r="0.52"/><circle class="cls-17" cx="23.26" cy="16.36" r="0.52"/><circle class="cls-18" cx="25.92" cy="21.71" r="0.52"/><path class="cls-19" d="M28.39,13.64,26,20.94a.81.81,0,0,1,.25.08l2.37-7.3A.79.79,0,0,1,28.39,13.64Z"/><path class="cls-20" d="M22.63,16.81,20.8,18.68a.69.69,0,0,1,.19.19L22.82,17A.69.69,0,0,1,22.63,16.81Z"/><path class="cls-21" d="M23.72,17a.55.55,0,0,1-.24.12l2,4A.66.66,0,0,1,25.7,21Z"/><circle class="cls-22" cx="28.76" cy="12.95" r="0.52"/><path class="cls-23" d="M29.53,16.28h.28v-.06h-.29S29.53,16.26,29.53,16.28Z"/><path class="cls-24" d="M28.87,13.84l-.05.18v.64h-.21l0,.06h.23v.87h.05v-.87h.94v-.06h-.94Z"/><path class="cls-25" d="M28.87,17.13h-.05v.65h-1l-.06.06h1v1.49h-1.5v-.69l-.06.18v.51h-.17l0,.06h.19v1.5h-.67l0,.06h.69v1.5h-1.1a.82.82,0,0,1-.49,0H24.2V21h.91l0-.06H24.2v-1h-.05v1h-1.5V20.5l-.06,0v.35h-.54L22,21h.63v1.49h-1.5v-.66a.31.31,0,0,1-.06.13v.53H19.54V21h.3l.07-.06h-.37v-1.5h.05v-.06h-.05V17.84H21v.25l.06-.06v-.19h.19l.06-.06h-.25v-1.5h1.4v-.06h-1.4v-1.5h1.5V16l.06-.09V14.72h1.5v1.5H24s0,0,0,.06h.12v1l.05.12V16.28h1.5v1.5H24.39l0,.06H25.7v.55l.06,0v-.53h.93l0,0,.05,0h0l0-.06h-1v-1.5h1.5v0l.06-.18V14.72h.46l0-.06h-.48V13.17H28a.13.13,0,0,1,0-.06h-.68v-.94h-.06v.94h-1.5v-.94H25.7v.94H24.2v-.94h-.05v.94h-1.5v-.94h-.06v.94h-1.5v-.94H21v.94H19.54v-.94h-.06v.94h-.94v.06h.94v1.49h-.94v.06h.94v1.5h-.94v.06h.94v1.5h-.94v.06h.94v1.49h-.94v.06h.94v1.5h-.94V21h.94v1.5h-.94v.06h.94v.94h.06v-.94H21v.94h.06v-.94h1.5v.94h.06v-.94h1.5v.94h.05v-.94h1.5v.94h.06v-.94h1.5v.94h.06v-.94h1.5v.94h.05v-.94h.94v-.06h-.94V21h.94v-.06h-.94v-1.5h.94v-.06h-.94V17.84h.94v-.06h-.94Zm-3.11-4h1.5v1.49h-1.5Zm0,1.55h1.5v1.5h-1.5ZM24.2,13.17h1.5v1.49H24.2Zm0,1.55h1.5v1.5H24.2Zm-1.55-1.55h1.5v1.49h-1.5Zm-1.56,0h1.5v1.49h-1.5Zm-1.56,0H21v1.49H19.54Zm0,1.55H21v1.5H19.54Zm0,1.56H21v1.5H19.54Zm4.62,6.17h-1.5V21h1.5Zm4.67,0h-1.5V21h1.5Zm0-1.56h-1.5v-1.5h1.5Z"/><path class="cls-26" d="M22.65,19.18V17.84h.91l0-.06h-.88v-.25l-.06.06v.19h-.18l-.06.06h.24v1.42Z"/><path class="cls-27" d="M29.52,13.11s0,0,0,.06h.31v-.06Z"/><path class="cls-28" d="M25.76,19.89H25.7v.54l.06.11Z"/><path class="cls-29" d="M21.14,19.39h1.39s0,0,0-.06H21.14Z"/><path class="cls-30" d="M21,19.71v.92l.06,0v-1A.34.34,0,0,1,21,19.71Z"/><path class="cls-31" d="M26.37,18.5l.5-.48-.18.54-.13.13A.86.86,0,0,0,26.37,18.5Z"/><path class="cls-32" d="M28.3,17l-.89.87.18-.55.53-.51A.81.81,0,0,0,28.3,17Z"/><path class="cls-33" d="M22.54,20l-1.61,1a.86.86,0,0,1,.15.22l1.61-1A1.07,1.07,0,0,1,22.54,20Z"/><path class="cls-34" d="M24.45,19.28l.12.25-.54.11a.75.75,0,0,0-.05-.26Z"/><path class="cls-35" d="M25.19,19.41l-.14,0-.12-.25.21,0A.75.75,0,0,0,25.19,19.41Z"/></svg>