<svg xmlns="http://www.w3.org/2000/svg" xmlns:xlink="http://www.w3.org/1999/xlink" viewBox="0 0 50 50"><defs><style>.cls-1{fill:url(#linear-gradient);}.cls-2{fill:url(#linear-gradient-2);}.cls-3{fill:url(#linear-gradient-3);}.cls-4{fill:url(#linear-gradient-4);}.cls-5{fill:url(#linear-gradient-5);}.cls-6{fill:url(#linear-gradient-6);}.cls-7{fill:url(#linear-gradient-7);}.cls-8{fill:url(#linear-gradient-8);}.cls-9{fill:url(#linear-gradient-9);}.cls-10{fill:url(#linear-gradient-10);}.cls-11{fill:url(#linear-gradient-11);}.cls-12{fill:url(#linear-gradient-12);}</style><linearGradient id="linear-gradient" x1="14.44" y1="23.91" x2="18.18" y2="23.91" gradientUnits="userSpaceOnUse"><stop offset="0" stop-color="#1b4071"/><stop offset="0.26" stop-color="#1d4374"/><stop offset="0.44" stop-color="#254b7d"/><stop offset="0.6" stop-color="#32598d"/><stop offset="0.74" stop-color="#456ea3"/><stop offset="0.88" stop-color="#5d88bf"/><stop offset="1" stop-color="#78a5df"/></linearGradient><linearGradient id="linear-gradient-2" x1="20.23" y1="23.91" x2="23.97" y2="23.91" xlink:href="#linear-gradient"/><linearGradient id="linear-gradient-3" x1="26.03" y1="23.91" x2="29.77" y2="23.91" xlink:href="#linear-gradient"/><linearGradient id="linear-gradient-4" x1="31.82" y1="23.91" x2="35.56" y2="23.91" xlink:href="#linear-gradient"/><linearGradient id="linear-gradient-5" x1="14.44" y1="29.69" x2="18.18" y2="29.69" xlink:href="#linear-gradient"/><linearGradient id="linear-gradient-6" x1="20.23" y1="29.69" x2="23.97" y2="29.69" xlink:href="#linear-gradient"/><linearGradient id="linear-gradient-7" x1="26.03" y1="29.69" x2="29.77" y2="29.69" xlink:href="#linear-gradient"/><linearGradient id="linear-gradient-8" x1="31.82" y1="29.69" x2="35.56" y2="29.69" xlink:href="#linear-gradient"/><linearGradient id="linear-gradient-9" x1="14.44" y1="35.48" x2="18.18" y2="35.48" xlink:href="#linear-gradient"/><linearGradient id="linear-gradient-10" x1="20.23" y1="35.48" x2="23.97" y2="35.48" xlink:href="#linear-gradient"/><linearGradient id="linear-gradient-11" x1="26.03" y1="35.48" x2="29.77" y2="35.48" xlink:href="#linear-gradient"/><linearGradient id="linear-gradient-12" x1="8.73" y1="24.2" x2="41.27" y2="24.2" xlink:href="#linear-gradient"/></defs><g id="OBJECTS"><rect class="cls-1" x="14.44" y="22.04" width="3.74" height="3.74" rx="0.59"/><rect class="cls-2" x="20.23" y="22.04" width="3.74" height="3.74" rx="0.59"/><rect class="cls-3" x="26.03" y="22.04" width="3.74" height="3.74" rx="0.59"/><rect class="cls-4" x="31.82" y="22.04" width="3.74" height="3.74" rx="0.59"/><rect class="cls-5" x="14.44" y="27.82" width="3.74" height="3.74" rx="0.59"/><rect class="cls-6" x="20.23" y="27.82" width="3.74" height="3.74" rx="0.59"/><rect class="cls-7" x="26.03" y="27.82" width="3.74" height="3.74" rx="0.59"/><rect class="cls-8" x="31.82" y="27.82" width="3.74" height="3.74" rx="0.59"/><rect class="cls-9" x="14.44" y="33.61" width="3.74" height="3.74" rx="0.59"/><rect class="cls-10" x="20.23" y="33.61" width="3.74" height="3.74" rx="0.59"/><rect class="cls-11" x="26.03" y="33.61" width="3.74" height="3.74" rx="0.59"/><path class="cls-12" d="M38.93,10.38H34.42V8a1.27,1.27,0,0,0-1.26-1.26h0A1.26,1.26,0,0,0,31.9,8v2.34H18.1V8a1.26,1.26,0,0,0-1.26-1.26h0A1.27,1.27,0,0,0,15.58,8v2.34H11.07a2.34,2.34,0,0,0-2.34,2.34V39.28a2.34,2.34,0,0,0,2.34,2.34H38.93a2.34,2.34,0,0,0,2.34-2.34V12.72A2.34,2.34,0,0,0,38.93,10.38Zm-7,1.94v1.43A1.26,1.26,0,0,0,33.16,15h0a1.27,1.27,0,0,0,1.26-1.26V12.32a2,2,0,1,1-2.52,0Zm-16.32,0v1.43A1.27,1.27,0,0,0,16.84,15h0a1.26,1.26,0,0,0,1.26-1.26V12.32a2,2,0,1,1-2.52,0ZM39.32,38.81a.85.85,0,0,1-.86.86H11.54a.85.85,0,0,1-.86-.86V19.69H39.32Z"/></g></svg>