<svg id="Layer_1" data-name="Layer 1" xmlns="http://www.w3.org/2000/svg" viewBox="0 0 1417.32 1417.32"><defs><style>.cls-1{fill:#fff;}</style></defs><rect class="cls-1" x="766.53" y="1037.71" width="74.6" height="21.8" transform="translate(-419.51 549.44) rotate(-30.33)"/><rect class="cls-1" x="786.29" y="1070.95" width="74.6" height="22.87" transform="matrix(0.86, -0.5, 0.5, 0.86, -433.86, 564.04)"/><path class="cls-1" d="M810,1133.09l64.39-37.67,69.1,118.11a37.28,37.28,0,0,1-13.35,51h0a37.31,37.31,0,0,1-51-13.35Z"/><path class="cls-1" d="M626.32,747.45a157,157,0,0,0,114.85,288l2.86,4.88a9.47,9.47,0,0,0,13,3.38l65.51-38.33a9.45,9.45,0,0,0,3.39-12.94L823,987.54A157,157,0,0,0,626.32,747.45Zm142.89,242a124.12,124.12,0,1,1,44.46-169.79A124.13,124.13,0,0,1,769.21,989.45Z"/><path class="cls-1" d="M755.5,1063.48H455.19V356.81H560.62a76.81,76.81,0,0,1,22.6-37.42H441.73a24,24,0,0,0-24,24V1077a24,24,0,0,0,24,24h336ZM975,319.39H833.57a76,76,0,0,1,22.53,37.42H961.48v706.67H869.17l21.59,37.42H975a24,24,0,0,0,23.95-24V343.35A24,24,0,0,0,975,319.39Z"/><path class="cls-1" d="M822.89,326.63c-14.08-12.12-33.53-19.63-55-19.63h-12c0-11.64-5.32-22.2-13.92-29.83a50.51,50.51,0,0,0-33.59-12.36c-26.23,0-47.51,18.89-47.51,42.19h-12c-43,0-77.8,30-77.8,67H845.67C845.67,355.49,837,338.75,822.89,326.63Zm-114.55.48a22,22,0,1,1,22-22A22,22,0,0,1,708.34,327.11Z"/><path class="cls-1" d="M801.79,883.11a93.49,93.49,0,0,1-65.7,89.26L714,883.71l40.44-81.92A93.42,93.42,0,0,1,801.79,883.11Z"/><path class="cls-1" d="M613.83,918.71a101.36,101.36,0,0,1,4.59-81.58,102,102,0,0,1,25.36-31.64l56.28,75.43Z"/><path class="cls-1" d="M652.3,799.11a101.17,101.17,0,0,1,95.9-8.79L707.41,873Z"/><path class="cls-1" d="M708.34,984.07a101.32,101.32,0,0,1-90.23-55.61l86.59-38,22.88,91.73A101.56,101.56,0,0,1,708.34,984.07Z"/><polygon class="cls-1" points="873.12 703.69 831.69 679.77 831.69 699.18 571.99 699.18 571.99 445.75 591.39 445.75 567.48 404.33 543.56 445.75 562.97 445.75 562.97 708.2 831.69 708.2 831.69 727.6 873.12 703.69"/><circle class="cls-1" cx="613.12" cy="655.7" r="11.87"/><circle class="cls-1" cx="678.6" cy="613.5" r="11.87"/><circle class="cls-1" cx="738.73" cy="601.63" r="11.87"/><circle class="cls-1" cx="803" cy="538.95" r="11.87"/><circle class="cls-1" cx="613.12" cy="605.97" r="11.87"/><circle class="cls-1" cx="678.6" cy="538.95" r="11.87"/><circle class="cls-1" cx="738.73" cy="659.96" r="11.87"/><path class="cls-1" d="M794.8,477.47,741.2,642.6a17.38,17.38,0,0,1,5.72,1.85l53.61-165.13A17.52,17.52,0,0,1,794.8,477.47Z"/><path class="cls-1" d="M664.37,549.2l-41.32,42.3a17.87,17.87,0,0,1,4.29,4.21l41.33-42.29A17.77,17.77,0,0,1,664.37,549.2Z"/><path class="cls-1" d="M689,553.08a17.48,17.48,0,0,1-5.37,2.69l44.75,90.06a17.48,17.48,0,0,1,5.37-2.69Z"/><circle class="cls-1" cx="803" cy="461.95" r="11.87" transform="translate(-122.67 498.77) rotate(-32.19)"/><path class="cls-1" d="M820.46,537.13h6.4V535.8h-6.6C820.34,536.24,820.41,536.68,820.46,537.13Z"/><path class="cls-1" d="M805.63,482l-1.32,4.09v14.5H799.6l-.43,1.33h5.14v19.52c.44,0,.89.09,1.32.16V501.93h21.23V500.6H805.63Z"/><path class="cls-1" d="M805.63,556.29c-.43.07-.88.12-1.32.15V571H782.58l-1.36,1.33h23.09v33.87H770.43V590.45l-1.33,4.09v11.67h-3.79l-.43,1.33h4.22v33.88H753.89l-.44,1.33H769.1v33.87H744.24a17.35,17.35,0,0,1-11,0H700V642.75h20.44l-.66-1.33H700V618.14l-1.33.26v23H664.82v-8.69l-1.33.85v7.84H651.33l-2.06,1.33h14.22v33.87H629.61v-15a17.1,17.1,0,0,1-1.33,2.84v12.11H594.41V642.75h6.9a17.32,17.32,0,0,1,1.64-1.33h-8.54V607.54h1.24c0-.44-.07-.88-.07-1.33h-1.17V572.34h33.87V578l1.33-1.36v-4.3h4.21l1.29-1.33h-5.5V537.13h31.52c0-.45.13-.89.21-1.33H629.61V501.93h33.88v28.12a17.19,17.19,0,0,1,1.33-1.95V501.93h33.87V535.8h-2.84c.08.44.16.88.21,1.33h2.63v22.72l1.33,2.67V537.13H733.9V571H704.24l.66,1.33h29v12.44c.43-.13.88-.24,1.32-.33V572.34h21.09l.66-.65,1,.65h0l.43-1.33H735.22V537.13H769.1v1.07l1.33-4.09V501.93h10.45l.43-1.33H770.43V466.72H786.1c-.12-.44-.22-.88-.31-1.33H770.43V444.16H769.1v21.23H735.22V444.16H733.9v21.23H700V444.16h-1.33v21.23H664.82V444.16h-1.33v21.23H629.61V444.16h-1.33v21.23H594.41V444.16h-1.33v21.23H571.85v1.33h21.23V500.6H571.85v1.33h21.23V535.8H571.85v1.33h21.23V571H571.85v1.33h21.23v33.87H571.85v1.33h21.23v33.88H571.85v1.33h21.23v33.87H571.85V678h21.23v21.23h1.33V678h33.87v21.23h1.33V678h33.88v21.23h1.33V678h33.87v21.23H700V678H733.9v21.23h1.32V678H769.1v21.23h1.33V678h33.88v21.23h1.32V678h21.23v-1.33H805.63V642.75h21.23v-1.33H805.63V607.54h21.23v-1.33H805.63V572.34h21.23V571H805.63Zm-70.41-89.57H769.1V500.6H735.22Zm0,35.21H769.1V535.8H735.22ZM700,466.72H733.9V500.6H700Zm0,35.21H733.9V535.8H700Zm-35.2-35.21h33.87V500.6H664.82Zm-35.21,0h33.88V500.6H629.61Zm-35.2,0h33.87V500.6H594.41Zm0,35.21h33.87V535.8H594.41Zm0,35.2h33.87V571H594.41ZM698.69,676.62H664.82V642.75h33.87Zm105.62,0H770.43V642.75h33.88Zm0-35.2H770.43V607.54h33.88Z"/><path class="cls-1" d="M664.82,602.66V572.34h20.65l-.66-1.33h-20V565.5l-1.33,1.36V571h-4.06l-1.29,1.33h5.35v32.27A17.19,17.19,0,0,1,664.82,602.66Z"/><path class="cls-1" d="M820.21,465.39c-.09.45-.19.89-.31,1.33h7v-1.33Z"/><path class="cls-1" d="M735.22,618.83c-.44-.09-.88-.21-1.32-.33v12.2l1.32,2.67Z"/><path class="cls-1" d="M630.6,607.54h31.5c.17-.45.35-.89.55-1.33h-32C630.66,606.66,630.64,607.1,630.6,607.54Z"/><path class="cls-1" d="M628.28,614.78v20.8l1.33-.85v-22.8A16.83,16.83,0,0,1,628.28,614.78Z"/><path class="cls-1" d="M749,587.42l11.31-11-4,12.31-3.11,3A17.55,17.55,0,0,0,749,587.42Z"/><path class="cls-1" d="M792.73,553.16l-20.17,19.67,4-12.29,12-11.68A17.51,17.51,0,0,0,792.73,553.16Z"/><path class="cls-1" d="M662.43,620.35,626,643.82a17.66,17.66,0,0,1,3.28,5l36.42-23.48A17.4,17.4,0,0,1,662.43,620.35Z"/><path class="cls-1" d="M705.57,605.12l2.78,5.57-12.22,2.42a17.64,17.64,0,0,0-1.16-5.9Z"/><path class="cls-1" d="M722.36,607.93l-3.27.65L716.32,603l4.87-1A17,17,0,0,0,722.36,607.93Z"/></svg>