<svg id="Layer_1" data-name="Layer 1" xmlns="http://www.w3.org/2000/svg" viewBox="0 0 1417.32 1417.32"><defs><style>.cls-1{fill:#fff;}</style></defs><path class="cls-1" d="M554.24,961.89,492,1024.15l-32.09,32.09-51.42,51.42q82.8-33.53,155.82-51.42,75.78-18.6,141.1-20.45c.32-3.91.71-7.77,1.09-11.64,9-93.1,34.48-175.37,89.23-238.25l-38.39-38.38L719,709.13c-62.88,54.75-145.15,80.18-238.25,89.23-3.87.38-7.73.77-11.64,1.09q-1.81,65.29-20.45,141.09-17.92,73.05-51.42,155.83L448.61,1045l32.09-32.09L543,950.61a47.37,47.37,0,1,1,11.28,11.28Z"/><polygon class="cls-1" points="808.52 773.11 819.35 762.27 834 747.62 757.22 670.85 742.58 685.5 731.74 696.33 808.52 773.11"/><polygon class="cls-1" points="974.08 415.61 950.63 439.06 759.21 630.47 874.37 745.63 1065.79 554.22 1089.24 530.77 1152.44 467.56 1175.53 444.48 1176.66 443.35 1170.11 436.8 1068.05 334.74 1061.5 328.19 1060.37 329.32 1037.29 352.41 974.08 415.61"/></svg>