<svg id="Layer_1" data-name="Layer 1" xmlns="http://www.w3.org/2000/svg" xmlns:xlink="http://www.w3.org/1999/xlink" viewBox="0 0 1417.32 1417.32"><defs><style>.cls-1{fill:#fff;}.cls-2{fill:url(#linear-gradient);}.cls-3{fill:url(#linear-gradient-2);}.cls-4{fill:url(#linear-gradient-3);}.cls-5{fill:url(#linear-gradient-4);}.cls-6{fill:url(#linear-gradient-5);}.cls-7{fill:url(#linear-gradient-6);}.cls-8{fill:url(#linear-gradient-7);}.cls-9{fill:url(#linear-gradient-8);}.cls-10{fill:url(#linear-gradient-9);}.cls-11{fill:url(#linear-gradient-10);}.cls-12{fill:url(#linear-gradient-11);}</style><linearGradient id="linear-gradient" x1="482.34" y1="1046.07" x2="576.75" y2="1046.07" gradientUnits="userSpaceOnUse"><stop offset="0" stop-color="#1b4071"/><stop offset="0.26" stop-color="#1d4374"/><stop offset="0.44" stop-color="#254b7d"/><stop offset="0.6" stop-color="#32598d"/><stop offset="0.74" stop-color="#456ea3"/><stop offset="0.88" stop-color="#5d88bf"/><stop offset="1" stop-color="#78a5df"/></linearGradient><linearGradient id="linear-gradient-2" x1="617.21" y1="1013.52" x2="711.62" y2="1013.52" xlink:href="#linear-gradient"/><linearGradient id="linear-gradient-3" x1="752.08" y1="1028.4" x2="846.49" y2="1028.4" xlink:href="#linear-gradient"/><linearGradient id="linear-gradient-4" x1="886.95" y1="978.17" x2="981.37" y2="978.17" xlink:href="#linear-gradient"/><linearGradient id="linear-gradient-5" x1="475.75" y1="858.91" x2="989.12" y2="858.91" xlink:href="#linear-gradient"/><linearGradient id="linear-gradient-6" x1="482.34" y1="385.19" x2="834.86" y2="385.19" xlink:href="#linear-gradient"/><linearGradient id="linear-gradient-7" x1="879.05" y1="363.5" x2="981.37" y2="363.5" xlink:href="#linear-gradient"/><linearGradient id="linear-gradient-8" x1="482.34" y1="511.95" x2="834.86" y2="511.95" xlink:href="#linear-gradient"/><linearGradient id="linear-gradient-9" x1="879.05" y1="490.26" x2="981.37" y2="490.26" xlink:href="#linear-gradient"/><linearGradient id="linear-gradient-10" x1="482.34" y1="638.71" x2="834.86" y2="638.71" xlink:href="#linear-gradient"/><linearGradient id="linear-gradient-11" x1="879.05" y1="617.03" x2="981.37" y2="617.03" xlink:href="#linear-gradient"/></defs><path class="cls-1" d="M1029.06,1184.74H434.64a73.69,73.69,0,0,1-73.6-73.6V306.53a73.69,73.69,0,0,1,73.6-73.6h594.42a73.69,73.69,0,0,1,73.6,73.6v804.61A73.69,73.69,0,0,1,1029.06,1184.74Z"/><rect class="cls-2" x="482.34" y="1013.52" width="94.41" height="65.11"/><rect class="cls-3" x="617.21" y="948.4" width="94.41" height="130.23"/><rect class="cls-4" x="752.08" y="978.17" width="94.41" height="100.46"/><rect class="cls-5" x="886.95" y="877.71" width="94.41" height="200.92"/><polygon class="cls-6" points="488.93 972.39 475.75 951.7 663.45 832.15 794.08 891.9 973.61 745.42 989.12 764.43 797.75 920.57 665.38 860.01 488.93 972.39"/><rect class="cls-7" x="482.34" y="365.18" width="352.52" height="40.01"/><polygon class="cls-8" points="892.54 353.36 879.05 370.02 915.48 406.11 981.37 322.51 979.22 320.89 915.67 383.26 892.54 353.36"/><rect class="cls-9" x="482.34" y="491.94" width="352.52" height="40.01"/><polygon class="cls-10" points="892.54 480.13 879.05 496.79 915.48 532.87 981.37 449.27 979.22 447.65 915.67 510.03 892.54 480.13"/><rect class="cls-11" x="482.34" y="618.71" width="352.52" height="40.01"/><polygon class="cls-12" points="892.54 606.89 879.05 623.55 915.48 659.64 981.37 576.04 979.22 574.42 915.67 636.79 892.54 606.89"/></svg>