<svg id="Layer_1" data-name="Layer 1" xmlns="http://www.w3.org/2000/svg" viewBox="0 0 1417.32 1417.32"><defs><style>.cls-1{fill:#fff;}</style></defs><path class="cls-1" d="M782.77,682.79c.34-47.36-27.4-72.39-71.71-72.39-2.21,0-4.26,0-6.17.11a17.75,17.75,0,0,0-17.17,17.73V744.87a17.73,17.73,0,0,0,17.73,17.74h.19C752.32,763,782.77,737.25,782.77,682.79Z"/><path class="cls-1" d="M499.31,611.08h-.68c-3.38,13.53-6.76,30.78-10.48,44l-7.23,25.85A17.74,17.74,0,0,0,498,703.42h3.31a17.75,17.75,0,0,0,17-22.74l-7.53-25.63C506.75,641.52,502.69,624.61,499.31,611.08Z"/><path class="cls-1" d="M1130.92,433.51H285.79a17.74,17.74,0,0,0-17.74,17.74V921.43a17.74,17.74,0,0,0,17.74,17.74H509a17.74,17.74,0,0,1,16.95,23l-22.19,71.76a17.74,17.74,0,0,0,24.43,21.33l246.1-114.42a17.7,17.7,0,0,1,7.48-1.65h349.17a17.74,17.74,0,0,0,17.74-17.74V451.25A17.74,17.74,0,0,0,1130.92,433.51ZM636,591.11a17.76,17.76,0,0,1,15.88-17.65,517.11,517.11,0,0,1,53.79-2.63c43.3,0,71.38,7.78,93.36,24.35,23.68,17.59,38.56,45.66,38.56,85.92,0,43.63-15.89,73.73-37.88,92.34-24,20-60.55,29.43-105.2,29.43-17.12,0-31.05-.7-42.23-1.64A17.76,17.76,0,0,1,636,783.55ZM463.57,755l-9,32.52a17.74,17.74,0,0,1-17.09,13h-16a17.75,17.75,0,0,1-17-22.93l58.84-192.5a17.73,17.73,0,0,1,17-12.55h41.45a17.75,17.75,0,0,1,17,12.48l59.69,192.5a17.74,17.74,0,0,1-16.95,23h-18.2a17.74,17.74,0,0,1-17-12.64l-10-33.24a17.73,17.73,0,0,0-17-12.64h-38.6A17.74,17.74,0,0,0,463.57,755Zm463.64,48.9A168,168,0,0,1,878,796.35a17.7,17.7,0,0,1-11.72-21.1l1.93-7.81a17.71,17.71,0,0,1,22.78-12.61,125.82,125.82,0,0,0,39.31,6.77c23.68,0,36.2-9.81,36.2-24.69,0-14.21-10.83-22.33-38.23-32.14-37.88-13.19-62.57-34.16-62.57-67.31,0-38.9,32.47-68.66,86.25-68.66a150.79,150.79,0,0,1,41.71,5.49,17.72,17.72,0,0,1,12.12,21.76l-2,7.06a17.78,17.78,0,0,1-22.14,12.28,109.74,109.74,0,0,0-30.75-4.31c-22.33,0-33.15,10.14-33.15,22,0,14.55,12.85,21,42.28,32.14,40.25,14.88,59.19,35.85,59.19,68C1019.21,771.41,989.78,803.88,927.21,803.88Z"/></svg>