<svg id="Layer_1" data-name="Layer 1" xmlns="http://www.w3.org/2000/svg" viewBox="0 0 1417.32 1417.32"><defs><style>.cls-1{fill:#fff;}</style></defs><path class="cls-1" d="M873.77,479.26c.22-31.43-18.19-48.05-47.6-48.05a71.39,71.39,0,0,0-15.5,1.35v99c2.92.68,7.64.68,11.9.68C853.56,532.48,873.77,515.42,873.77,479.26Z"/><path class="cls-1" d="M685.6,431.66h-.45c-2.24,9-4.49,20.43-7,29.19l-9,32.11h33.46l-9.43-32.11C690.54,451.87,687.85,440.64,685.6,431.66Z"/><path class="cls-1" d="M1116.66,313.79H532.09V649.46H708l-27.28,88.23,189.78-88.23h246.17ZM776.32,408.08c12.57-2,29-3.14,46.25-3.14,28.75,0,47.38,5.17,62,16.17,15.72,11.67,25.6,30.31,25.6,57,0,29-10.56,49-25.15,61.3C869.06,552.69,844.81,559,815.17,559a296.68,296.68,0,0,1-38.85-2.25ZM664.27,518.56,653.49,557.4H618l46.25-151.34h44.91L756.11,557.4H719.28l-11.67-38.84Zm305.38,41.09c-17.28,0-34.35-4.49-42.88-9.21l7-28.29c9.2,4.72,23.35,9.43,37.94,9.43,15.72,0,24-6.51,24-16.39,0-9.43-7.18-14.82-25.37-21.33-25.15-8.76-41.54-22.68-41.54-44.68,0-25.83,21.55-45.59,57.26-45.59,17.06,0,29.64,3.6,38.62,7.64L1017,438.85a71.91,71.91,0,0,0-31.66-7.19c-14.82,0-22,6.74-22,14.6,0,9.65,8.53,13.92,28.06,21.33,26.73,9.88,39.3,23.8,39.3,45.13C1030.73,538.09,1011.19,559.65,969.65,559.65Z"/><path class="cls-1" d="M556,865.08a34.49,34.49,0,0,1-22.3-8.2,4.1,4.1,0,0,1,5.3-6.25,26.24,26.24,0,0,0,34,0,4.1,4.1,0,0,1,5.3,6.25A34.49,34.49,0,0,1,556,865.08Z"/><path class="cls-1" d="M532.21,784.23a10.34,10.34,0,1,1-10.34-10.33A10.34,10.34,0,0,1,532.21,784.23Z"/><path class="cls-1" d="M579.7,784.23A10.34,10.34,0,1,0,590,773.9,10.34,10.34,0,0,0,579.7,784.23Z"/><circle class="cls-1" cx="633.58" cy="980.08" r="8.92"/><path class="cls-1" d="M902.57,1010.47c-1.36-7.47-33.31-21.07-57.1-32.63s-60-42.83-60-42.83v-15C797,907.82,808.07,882,812.15,877.22s10.2-25.15,10.2-30.59-6.8-10.2-6.8-10.2v-36c-6.12-60.47-66.86-56.66-66.86-56.66S688,740,681.84,800.45v36s-6.8,4.76-6.8,10.2,6.12,25.83,10.2,30.59,15.19,30.6,26.63,42.84v15s-7.63,6.59-18.15,14.82l5,2.39c44.09,20.81,59.75,29.36,62.33,43.56l.1.52.06.53,7.37,65,.2,1.77H908.59Z"/><path class="cls-1" d="M209.33,1010.47c1.36-7.47,33.32-21.07,57.11-32.63S326.38,935,326.38,935v-15c-11.44-12.24-22.55-38.08-26.63-42.84s-10.2-25.15-10.2-30.59,6.8-10.2,6.8-10.2v-36c6.13-60.47,66.86-56.66,66.86-56.66s60.73-3.81,66.85,56.66v36s6.8,4.76,6.8,10.2-6.12,25.83-10.2,30.59-15.18,30.6-26.63,42.84v15s7.63,6.59,18.15,14.82l-5.05,2.39C369,973,353.39,981.58,350.8,995.78l-.1.52-.06.53-7.36,65-.2,1.77H203.31Z"/><path class="cls-1" d="M744.24,999c-1.67-9.15-40.77-25.79-69.88-39.93-18.86-9.16-44-28.4-59.42-40.85L601,906.61V888.32c14-15,27.59-46.59,32.58-52.42s12.49-30.77,12.49-37.43S637.75,786,637.75,786V742c-7.49-74-81.8-69.32-81.8-69.32S481.64,668,474.15,742v44s-8.32,5.81-8.32,12.47,7.49,31.61,12.48,37.43,18.58,37.44,32.58,52.42v11.86l.51-.43v4l-12.8,13c-15.21,12.37-41.51,32.69-61.06,42.18-29.11,14.14-68.21,30.78-69.87,39.93l-7.37,65H751.6ZM492.15,830.75s-12.92-54.27,0-91.74,40.06-12.92,40.06-12.92,36.18-27.43,80.11-7.9c0,0,21.65,26.36,5.17,107.39S556,894.07,556,894.07,518,903.11,492.15,830.75Z"/></svg>