<svg xmlns="http://www.w3.org/2000/svg" xmlns:xlink="http://www.w3.org/1999/xlink" viewBox="0 0 50 50"><defs><style>.cls-1{fill:url(#linear-gradient);}.cls-2{fill:url(#linear-gradient-2);}.cls-3{fill:url(#linear-gradient-3);}.cls-4{fill:url(#linear-gradient-4);}.cls-5{fill:url(#linear-gradient-5);}.cls-6{fill:url(#linear-gradient-6);}.cls-7{fill:url(#linear-gradient-7);}.cls-8{fill:url(#linear-gradient-8);}.cls-9{fill:url(#linear-gradient-9);}.cls-10{fill:url(#linear-gradient-10);}.cls-11{fill:url(#linear-gradient-11);}.cls-12{fill:url(#linear-gradient-12);}.cls-13{fill:url(#linear-gradient-13);}.cls-14{fill:url(#linear-gradient-14);}.cls-15{fill:url(#linear-gradient-15);}.cls-16,.cls-17,.cls-18,.cls-19,.cls-20,.cls-21,.cls-22{opacity:0.61;}.cls-16{fill:url(#linear-gradient-16);}.cls-17{fill:url(#linear-gradient-17);}.cls-18{fill:url(#linear-gradient-18);}.cls-19{fill:url(#linear-gradient-19);}.cls-20{fill:url(#linear-gradient-20);}.cls-21{fill:url(#linear-gradient-21);}.cls-22{fill:url(#linear-gradient-22);}</style><linearGradient id="linear-gradient" x1="7.79" y1="27.49" x2="42.21" y2="27.49" gradientUnits="userSpaceOnUse"><stop offset="0" stop-color="#1b4071"/><stop offset="0.26" stop-color="#1d4374"/><stop offset="0.44" stop-color="#254b7d"/><stop offset="0.6" stop-color="#32598d"/><stop offset="0.74" stop-color="#456ea3"/><stop offset="0.88" stop-color="#5d88bf"/><stop offset="1" stop-color="#78a5df"/></linearGradient><linearGradient id="linear-gradient-2" x1="25.01" y1="36.21" x2="25.01" y2="2.37" xlink:href="#linear-gradient"/><linearGradient id="linear-gradient-3" x1="20.27" y1="40.84" x2="20.27" y2="9.21" xlink:href="#linear-gradient"/><linearGradient id="linear-gradient-4" x1="17.7" y1="40.84" x2="17.7" y2="11.58" xlink:href="#linear-gradient"/><linearGradient id="linear-gradient-5" x1="15.22" y1="36.92" x2="15.22" y2="10.42" xlink:href="#linear-gradient"/><linearGradient id="linear-gradient-6" x1="29.69" y1="40.84" x2="29.69" y2="9.21" xlink:href="#linear-gradient"/><linearGradient id="linear-gradient-7" x1="32.26" y1="40.84" x2="32.26" y2="11.58" xlink:href="#linear-gradient"/><linearGradient id="linear-gradient-8" x1="34.67" y1="37" x2="34.67" y2="10.41" xlink:href="#linear-gradient"/><linearGradient id="linear-gradient-9" x1="10.41" y1="19.81" x2="10.41" y2="13.99" xlink:href="#linear-gradient"/><linearGradient id="linear-gradient-10" x1="14.49" y1="21.7" x2="14.49" y2="13.06" xlink:href="#linear-gradient"/><linearGradient id="linear-gradient-11" x1="20.27" y1="24.86" x2="20.27" y2="11.81" xlink:href="#linear-gradient"/><linearGradient id="linear-gradient-12" x1="25.01" y1="24.62" x2="25.01" y2="8.25" xlink:href="#linear-gradient"/><linearGradient id="linear-gradient-13" x1="29.69" y1="24.73" x2="29.69" y2="14.58" xlink:href="#linear-gradient"/><linearGradient id="linear-gradient-14" x1="35.64" y1="21.35" x2="35.28" y2="13.18" xlink:href="#linear-gradient"/><linearGradient id="linear-gradient-15" x1="39.55" y1="19.38" x2="39.55" y2="14.83" xlink:href="#linear-gradient"/><linearGradient id="linear-gradient-16" x1="15.22" y1="38.84" x2="15.22" y2="33.51" xlink:href="#linear-gradient"/><linearGradient id="linear-gradient-17" x1="17.71" y1="38.61" x2="17.71" y2="31.61" xlink:href="#linear-gradient"/><linearGradient id="linear-gradient-18" x1="20.29" y1="38.53" x2="20.29" y2="31.29" xlink:href="#linear-gradient"/><linearGradient id="linear-gradient-19" x1="-2070.51" y1="38.84" x2="-2070.51" y2="33.51" gradientTransform="matrix(-1, 0, 0, 1, -2035.64, 0)" xlink:href="#linear-gradient"/><linearGradient id="linear-gradient-20" x1="-2068.02" y1="38.61" x2="-2068.02" y2="31.61" gradientTransform="matrix(-1, 0, 0, 1, -2035.64, 0)" xlink:href="#linear-gradient"/><linearGradient id="linear-gradient-21" x1="-2065.44" y1="38.53" x2="-2065.44" y2="31.29" gradientTransform="matrix(-1, 0, 0, 1, -2035.64, 0)" xlink:href="#linear-gradient"/><linearGradient id="linear-gradient-22" x1="25.01" y1="39.52" x2="25.01" y2="35.4" xlink:href="#linear-gradient"/></defs><g id="OBJECTS"><path class="cls-1" d="M42.21,13.9V33.22a.9.9,0,0,1-.45.78L31.17,40.07l-1.4.8-1.27.73a2.3,2.3,0,0,1-1.17.31H22.67a2.3,2.3,0,0,1-1.17-.31l-1.27-.73-1.4-.8L8.24,34a.9.9,0,0,1-.45-.78V13.9A.49.49,0,0,1,8,13.48l.66-.38h0a.61.61,0,0,1,.54.07c.2.11-.18.37-.32.46V32.87a.62.62,0,0,0,.32.55l11.46,6.65.81.47a2.32,2.32,0,0,0,1.12.3h4.72a2.32,2.32,0,0,0,1.12-.3l.81-.47,11.46-6.65a.62.62,0,0,0,.32-.55V13.62c-.14-.09-.52-.35-.32-.46a.61.61,0,0,1,.54-.07h0l.66.38A.49.49,0,0,1,42.21,13.9Z"/><path class="cls-2" d="M25.58,6.4V40.84H24.43V6.4A.57.57,0,0,1,25,5.83a.58.58,0,0,1,.57.57Z"/><path class="cls-3" d="M23.49,21.14v19.7l-6.3-12a1.17,1.17,0,0,1-.09-.24.9.9,0,0,1,0-.28V9.51a.31.31,0,0,1,.58-.14L23.2,20A2.42,2.42,0,0,1,23.49,21.14Z"/><path class="cls-4" d="M22.68,40.84,13,31.45a.8.8,0,0,1-.18-.27.53.53,0,0,1,0-.12.68.68,0,0,1,0-.15v-19a.32.32,0,0,1,.54-.24l2.65,2.45a1.11,1.11,0,0,1,.35.8V28.48a.86.86,0,0,0,0,.28.63.63,0,0,0,.08.23v0Z"/><path class="cls-5" d="M21.52,40.54,8.91,33.24V13.35a.22.22,0,0,1,.33-.19l2.34,1.37a.68.68,0,0,1,.34.59V31.33a.62.62,0,0,0,0,.19.72.72,0,0,0,.09.2.61.61,0,0,0,.12.15Z"/><path class="cls-6" d="M32.9,9.51V28.3a1.17,1.17,0,0,1-.12.52l-6.3,12V21.14A2.54,2.54,0,0,1,26.76,20L32.32,9.37A.31.31,0,0,1,32.9,9.51Z"/><path class="cls-7" d="M37.24,11.9v19a.79.79,0,0,1-.22.54l-9.74,9.39L33.58,29a1.22,1.22,0,0,0,.13-.53V14.91a1.08,1.08,0,0,1,.35-.8l2.64-2.45A.32.32,0,0,1,37.24,11.9Z"/><path class="cls-8" d="M41.05,13.35V33.24L28.3,40.63l9.51-8.76a.73.73,0,0,0,.24-.54V15.12a.7.7,0,0,1,.33-.59l2.34-1.37A.22.22,0,0,1,41.05,13.35Z"/><path class="cls-9" d="M11.92,15.12v5.71l-3-1.67V13.35a.22.22,0,0,1,.33-.19l2.34,1.37A.68.68,0,0,1,11.92,15.12Z"/><path class="cls-10" d="M15.91,14.11a1.11,1.11,0,0,1,.35.8v8.33l-3.54-2V11.9a.32.32,0,0,1,.54-.24Z"/><path class="cls-11" d="M23.49,21.14v6.11l-6.43-3.57V9.51a.31.31,0,0,1,.58-.14L23.2,20A2.42,2.42,0,0,1,23.49,21.14Z"/><path class="cls-12" d="M25.58,6.4V27.48H24.43V6.4A.57.57,0,0,1,25,5.83a.58.58,0,0,1,.57.57Z"/><path class="cls-13" d="M32.9,9.51V23.68l-6.42,3.57V21.14A2.54,2.54,0,0,1,26.76,20L32.32,9.37A.31.31,0,0,1,32.9,9.51Z"/><path class="cls-14" d="M37.24,11.9v9.37l-3.53,2V14.91a1.08,1.08,0,0,1,.35-.8l2.64-2.45A.32.32,0,0,1,37.24,11.9Z"/><path class="cls-15" d="M41.05,13.35v5.81l-3,1.67V15.12a.7.7,0,0,1,.33-.59l2.34-1.37A.22.22,0,0,1,41.05,13.35Z"/><path class="cls-16" d="M12.15,31.87l9.37,8.67L8.91,33.24l3-1.72a.72.72,0,0,0,.09.2A.61.61,0,0,0,12.15,31.87Z"/><path class="cls-17" d="M16.39,29l6.29,11.83L13,31.45a.8.8,0,0,1-.18-.27.53.53,0,0,1,0-.12L16.38,29Z"/><path class="cls-18" d="M23.49,33.85v7l-6.3-12a1.17,1.17,0,0,1-.09-.24l6.32,5.27Z"/><path class="cls-19" d="M37.94,31.87l-9.37,8.67,12.61-7.3-3-1.72a1.19,1.19,0,0,1-.08.2A.64.64,0,0,1,37.94,31.87Z"/><path class="cls-20" d="M33.71,29l-6.3,11.83,9.74-9.39a1,1,0,0,0,.17-.27.56.56,0,0,0,0-.12L33.71,29Z"/><path class="cls-21" d="M26.61,33.85v7l6.3-12a2.25,2.25,0,0,0,.08-.24l-6.31,5.27Z"/><rect class="cls-22" x="24.43" y="33.85" width="1.15" height="6.98"/></g></svg>