<svg xmlns="http://www.w3.org/2000/svg" xmlns:xlink="http://www.w3.org/1999/xlink" viewBox="0 0 50 50"><defs><style>.cls-1,.cls-10,.cls-11,.cls-12,.cls-2,.cls-3,.cls-4,.cls-5,.cls-6,.cls-7,.cls-8,.cls-9{fill-rule:evenodd;}.cls-1{fill:url(#linear-gradient);}.cls-2{fill:url(#linear-gradient-2);}.cls-3{fill:url(#linear-gradient-3);}.cls-4{fill:url(#linear-gradient-4);}.cls-5{fill:url(#linear-gradient-5);}.cls-6{fill:url(#linear-gradient-6);}.cls-7{fill:url(#linear-gradient-7);}.cls-8{fill:url(#linear-gradient-8);}.cls-9{fill:url(#linear-gradient-9);}.cls-10{fill:url(#linear-gradient-10);}.cls-11{fill:url(#linear-gradient-11);}.cls-12{fill:url(#linear-gradient-12);}</style><linearGradient id="linear-gradient" x1="8.09" y1="23.92" x2="33.52" y2="23.92" gradientUnits="userSpaceOnUse"><stop offset="0" stop-color="#1b4071"/><stop offset="0.26" stop-color="#1d4374"/><stop offset="0.44" stop-color="#254b7d"/><stop offset="0.6" stop-color="#32598d"/><stop offset="0.74" stop-color="#456ea3"/><stop offset="0.88" stop-color="#5d88bf"/><stop offset="1" stop-color="#78a5df"/></linearGradient><linearGradient id="linear-gradient-2" x1="31.38" y1="26.46" x2="35.65" y2="26.46" xlink:href="#linear-gradient"/><linearGradient id="linear-gradient-3" x1="31.82" y1="20.2" x2="35.47" y2="20.2" xlink:href="#linear-gradient"/><linearGradient id="linear-gradient-4" x1="35.72" y1="23.33" x2="37.89" y2="23.33" xlink:href="#linear-gradient"/><linearGradient id="linear-gradient-5" x1="37.4" y1="26.19" x2="39.56" y2="26.19" xlink:href="#linear-gradient"/><linearGradient id="linear-gradient-6" x1="35.03" y1="28.63" x2="37.19" y2="28.63" xlink:href="#linear-gradient"/><linearGradient id="linear-gradient-7" x1="37.89" y1="20.44" x2="40.05" y2="20.44" xlink:href="#linear-gradient"/><linearGradient id="linear-gradient-8" x1="40.1" y1="23.84" x2="42.16" y2="23.84" xlink:href="#linear-gradient"/><linearGradient id="linear-gradient-9" x1="39.56" y1="28.68" x2="41.61" y2="28.68" xlink:href="#linear-gradient"/><linearGradient id="linear-gradient-10" x1="42.58" y1="26.24" x2="44.33" y2="26.24" xlink:href="#linear-gradient"/><linearGradient id="linear-gradient-11" x1="42.16" y1="21.44" x2="43.9" y2="21.44" xlink:href="#linear-gradient"/><linearGradient id="linear-gradient-12" x1="44.32" y1="23.95" x2="45.6" y2="23.95" xlink:href="#linear-gradient"/></defs><g id="OBJECTS"><path class="cls-1" d="M9.53,17.51a1.58,1.58,0,0,0-1.44,1.58V31.81a1.59,1.59,0,0,0,1.57,1.61H31.93a1.59,1.59,0,0,0,1.59-1.59h0V28.22l-1.14.58L31,26l2.57-1.3V21.79l-1.85.1-.18-3.15,2-.11a1.59,1.59,0,0,0-1.38-1.12H26.19l-.42-2.09a1.23,1.23,0,0,0-1.2-1H17a1.26,1.26,0,0,0-1.21,1l-.4,2.08Zm11.24,2.16a5.61,5.61,0,0,1,2.22.45h0a5.65,5.65,0,0,1,1.9,1.3h0a5.43,5.43,0,0,1,1.25,1.88h0a5.72,5.72,0,0,1,0,4.41h0a5.63,5.63,0,0,1-1.25,1.88h0A5.58,5.58,0,0,1,23,30.84h0a5.76,5.76,0,0,1-4.43,0h0a5.8,5.8,0,0,1-1.81-1.3h0a5.94,5.94,0,0,1-1.25-1.88h0a5.83,5.83,0,0,1,0-4.42h0a5.58,5.58,0,0,1,1.25-1.82h0a5.74,5.74,0,0,1,1.87-1.25h0A5.45,5.45,0,0,1,20.77,19.67Zm-9.17-.88a1.09,1.09,0,1,1-1.09,1.09,1.09,1.09,0,0,1,1.09-1.09ZM23.53,22.7a3.86,3.86,0,0,0-4.25-.86A4.14,4.14,0,0,0,17.16,24,3.86,3.86,0,0,0,18,28.21a4.12,4.12,0,0,0,1.26.85,3.88,3.88,0,0,0,4.25-.85,3.88,3.88,0,0,0,0-5.52Z"/><polygon class="cls-2" points="31.38 26.12 34.51 24.54 35.65 26.78 32.52 28.37 31.38 26.12"/><polygon class="cls-3" points="31.82 19.04 35.32 18.84 35.47 21.36 31.96 21.56 31.82 19.04"/><polygon class="cls-4" points="35.72 22.65 37.8 22.52 37.89 24.01 35.81 24.14 35.72 22.65"/><polygon class="cls-5" points="37.4 25.5 39.47 25.39 39.56 26.87 37.48 26.99 37.4 25.5"/><polygon class="cls-6" points="35.03 27.94 37.1 27.83 37.19 29.32 35.11 29.43 35.03 27.94"/><polygon class="cls-7" points="37.89 20.3 39.45 19.47 40.05 20.58 38.49 21.42 37.89 20.3"/><polygon class="cls-8" points="40.45 22.98 42.16 23.48 41.8 24.7 40.1 24.2 40.45 22.98"/><polygon class="cls-9" points="39.91 27.83 41.61 28.32 41.25 29.54 39.56 29.05 39.91 27.83"/><polygon class="cls-10" points="42.58 25.95 44.01 25.51 44.33 26.54 42.9 26.97 42.58 25.95"/><polygon class="cls-11" points="42.16 21.14 43.59 20.7 43.9 21.73 42.47 22.17 42.16 21.14"/><polygon class="cls-12" points="44.32 23.74 45.37 23.41 45.6 24.17 44.55 24.49 44.32 23.74"/></g></svg>