<svg xmlns="http://www.w3.org/2000/svg" xmlns:xlink="http://www.w3.org/1999/xlink" viewBox="0 0 50 50"><defs><style>.cls-1{fill:url(#linear-gradient);}.cls-2{fill:#fff;}.cls-3{fill:#e3e3e3;}</style><linearGradient id="linear-gradient" x1="12.78" y1="27.43" x2="42.1" y2="27.43" gradientUnits="userSpaceOnUse"><stop offset="0" stop-color="#1b4071"/><stop offset="0.26" stop-color="#1d4374"/><stop offset="0.44" stop-color="#254b7d"/><stop offset="0.6" stop-color="#32598d"/><stop offset="0.74" stop-color="#456ea3"/><stop offset="0.88" stop-color="#5d88bf"/><stop offset="1" stop-color="#78a5df"/></linearGradient></defs><g id="OBJECTS"><path class="cls-1" d="M42.1,26.81s0-.08,0-.12a14.14,14.14,0,0,0-4.33-9.86,14.5,14.5,0,0,0-20-.09,14.2,14.2,0,0,0-4.41,9.69c0,.17,0,.4,0,.63a14.26,14.26,0,0,0,2,7.29L12.79,41.8a.2.2,0,0,0,.05.22.2.2,0,0,0,.16.07h.06l7.77-2.47a14.45,14.45,0,0,0,17.05-2.45,14.15,14.15,0,0,0,4.22-10.1Z"/><path class="cls-2" d="M19.11,26.9a3,3,0,0,1-.86-.12,2.14,2.14,0,0,1-.66-.31l.29-.66a1.9,1.9,0,0,0,.57.28,1.92,1.92,0,0,0,.67.11,1.21,1.21,0,0,0,.41-.05.48.48,0,0,0,.23-.14.32.32,0,0,0,.08-.21.26.26,0,0,0-.12-.23,1,1,0,0,0-.31-.15L19,25.31a3.9,3.9,0,0,1-.46-.12,2.43,2.43,0,0,1-.43-.19,1.14,1.14,0,0,1-.31-.31.94.94,0,0,1-.12-.49,1,1,0,0,1,.18-.59,1.11,1.11,0,0,1,.52-.42,2,2,0,0,1,.88-.16,3.25,3.25,0,0,1,.69.08,2.23,2.23,0,0,1,.61.25l-.27.66a2.53,2.53,0,0,0-.52-.22,1.93,1.93,0,0,0-.52-.08,1.22,1.22,0,0,0-.41.06.45.45,0,0,0-.23.16.31.31,0,0,0-.07.21.29.29,0,0,0,.12.24,1.29,1.29,0,0,0,.31.14l.42.1.47.13a1.77,1.77,0,0,1,.42.18,1,1,0,0,1,.32.31.91.91,0,0,1,.12.49,1,1,0,0,1-.18.58,1.27,1.27,0,0,1-.53.42A2.2,2.2,0,0,1,19.11,26.9Z"/><path class="cls-2" d="M23.11,26.9a2.18,2.18,0,0,1-.82-.15,1.92,1.92,0,0,1-.66-.4,1.89,1.89,0,0,1-.42-.62,1.92,1.92,0,0,1,.43-2.15,1.87,1.87,0,0,1,.65-.4,2.29,2.29,0,0,1,1.63,0,1.92,1.92,0,0,1,.64.4,2,2,0,0,1,.43.61,2,2,0,0,1,.16.77,2,2,0,0,1-.16.78,1.88,1.88,0,0,1-.43.61,1.92,1.92,0,0,1-.64.4A2.16,2.16,0,0,1,23.11,26.9Zm0-.74a1.34,1.34,0,0,0,.46-.08,1.05,1.05,0,0,0,.37-.25,1.09,1.09,0,0,0,.25-.38,1.3,1.3,0,0,0,.09-.49,1.24,1.24,0,0,0-.09-.48,1.23,1.23,0,0,0-.24-.38,1.09,1.09,0,0,0-.38-.25,1.36,1.36,0,0,0-.92,0,1.05,1.05,0,0,0-.37.25,1.09,1.09,0,0,0-.25.38,1.24,1.24,0,0,0-.09.48,1.3,1.3,0,0,0,.09.49,1.23,1.23,0,0,0,.24.38,1.09,1.09,0,0,0,.38.25A1.34,1.34,0,0,0,23.1,26.16Z"/><path class="cls-2" d="M27.59,26.9a2.38,2.38,0,0,1-.81-.14,2,2,0,0,1-.64-.41,2,2,0,0,1-.43-.61,2.08,2.08,0,0,1,0-1.55,1.92,1.92,0,0,1,.43-.61,2,2,0,0,1,.65-.41,2.28,2.28,0,0,1,.8-.14,2.23,2.23,0,0,1,.88.17,1.78,1.78,0,0,1,.66.49l-.55.52a1.31,1.31,0,0,0-.43-.33,1.12,1.12,0,0,0-.51-.11,1.42,1.42,0,0,0-.48.08,1,1,0,0,0-.38.25,1.09,1.09,0,0,0-.25.38,1.24,1.24,0,0,0-.09.48,1.3,1.3,0,0,0,.09.49,1.09,1.09,0,0,0,.25.38,1,1,0,0,0,.38.25,1.42,1.42,0,0,0,.48.08,1.26,1.26,0,0,0,.51-.11,1.31,1.31,0,0,0,.43-.33l.55.51a1.81,1.81,0,0,1-.66.5A2.23,2.23,0,0,1,27.59,26.9Z"/><path class="cls-2" d="M29.71,26.83V23.09h.87v3.74Z"/><path class="cls-2" d="M31,26.83l1.67-3.74h.86l1.67,3.74h-.91l-1.37-3.3h.34l-1.37,3.3Zm.84-.8.23-.65H34l.24.65Z"/><path class="cls-2" d="M35.56,26.83V23.09h.86v3H38.3v.7Z"/><path class="cls-2" d="M18,32.36V28.23h.79l1.76,2.92h-.42l1.73-2.92h.78l0,4.13h-.9V29.61h.17L20.5,31.92h-.43l-1.41-2.31h.2v2.75Z"/><path class="cls-2" d="M24.54,31.59h2.25v.77h-3.2V28.23h3.12V29H24.54Zm-.07-1.69h2v.74h-2Z"/><path class="cls-2" d="M27.55,32.36V28.23h1.87a2.64,2.64,0,0,1,1.19.26,1.93,1.93,0,0,1,.8.72,2,2,0,0,1,.29,1.09,2.06,2.06,0,0,1-.29,1.09,2,2,0,0,1-.8.71,2.51,2.51,0,0,1-1.19.26Zm.95-.78h.88a1.58,1.58,0,0,0,.71-.16,1.11,1.11,0,0,0,.47-.44,1.27,1.27,0,0,0,.17-.68,1.23,1.23,0,0,0-.17-.68,1.2,1.2,0,0,0-.47-.45,1.58,1.58,0,0,0-.71-.15H28.5Z"/><path class="cls-2" d="M32.42,32.36V28.23h.95v4.13Z"/><path class="cls-2" d="M33.81,32.36l1.84-4.13h.94l1.85,4.13h-1l-1.5-3.64h.37l-1.51,3.64Zm.92-.88.25-.73H37.1l.26.73Z"/><path class="cls-3" d="M8.65,37.23a.38.38,0,1,1-.38-.38A.38.38,0,0,1,8.65,37.23Z"/></g></svg>