<svg xmlns="http://www.w3.org/2000/svg" xmlns:xlink="http://www.w3.org/1999/xlink" viewBox="0 0 50 50"><defs><style>.cls-1{fill:url(#linear-gradient);}.cls-2{fill:url(#linear-gradient-2);}.cls-3{fill:url(#linear-gradient-3);}.cls-4{fill:url(#linear-gradient-4);}.cls-5{fill:url(#linear-gradient-5);}.cls-6{fill:url(#linear-gradient-6);}.cls-7{fill:url(#linear-gradient-7);}.cls-8{fill:url(#linear-gradient-8);}.cls-9{fill:url(#linear-gradient-9);}.cls-10{fill:url(#linear-gradient-10);}.cls-11{fill:url(#linear-gradient-11);}.cls-12{fill:url(#linear-gradient-12);}.cls-13{fill:url(#linear-gradient-13);}.cls-14{fill:url(#linear-gradient-14);}</style><linearGradient id="linear-gradient" x1="19.07" y1="42.91" x2="30.93" y2="42.91" gradientUnits="userSpaceOnUse"><stop offset="0" stop-color="#1b4071"/><stop offset="0.26" stop-color="#1d4374"/><stop offset="0.44" stop-color="#254b7d"/><stop offset="0.6" stop-color="#32598d"/><stop offset="0.74" stop-color="#456ea3"/><stop offset="0.88" stop-color="#5d88bf"/><stop offset="1" stop-color="#78a5df"/></linearGradient><linearGradient id="linear-gradient-2" x1="15.89" y1="28.09" x2="34.11" y2="28.09" xlink:href="#linear-gradient"/><linearGradient id="linear-gradient-3" x1="16.22" y1="6.02" x2="19.67" y2="6.02" xlink:href="#linear-gradient"/><linearGradient id="linear-gradient-4" x1="30.33" y1="6.02" x2="33.78" y2="6.02" xlink:href="#linear-gradient"/><linearGradient id="linear-gradient-5" x1="31.74" y1="13.09" x2="35.19" y2="13.09" xlink:href="#linear-gradient"/><linearGradient id="linear-gradient-6" x1="14.81" y1="13.09" x2="18.26" y2="13.09" xlink:href="#linear-gradient"/><linearGradient id="linear-gradient-7" x1="18.42" y1="10.22" x2="23.64" y2="10.22" xlink:href="#linear-gradient"/><linearGradient id="linear-gradient-8" x1="26.36" y1="10.22" x2="31.58" y2="10.22" xlink:href="#linear-gradient"/><linearGradient id="linear-gradient-9" x1="17.85" y1="13.09" x2="23.68" y2="13.09" xlink:href="#linear-gradient"/><linearGradient id="linear-gradient-10" x1="26.32" y1="13.09" x2="32.15" y2="13.09" xlink:href="#linear-gradient"/><linearGradient id="linear-gradient-11" x1="25" y1="28.09" x2="34.11" y2="28.09" xlink:href="#linear-gradient"/><linearGradient id="linear-gradient-12" x1="25" y1="42.91" x2="30.93" y2="42.91" xlink:href="#linear-gradient"/><linearGradient id="linear-gradient-13" x1="23.28" y1="13.09" x2="26.72" y2="13.09" xlink:href="#linear-gradient"/><linearGradient id="linear-gradient-14" x1="18.16" y1="45.07" x2="31.84" y2="45.07" xlink:href="#linear-gradient"/></defs><g id="OBJECTS"><rect class="cls-1" x="19.07" y="41.38" width="11.86" height="3.06"/><path class="cls-2" d="M34,28.24S27,16.87,26.34,16s-1,0-1,0V26.68a1.45,1.45,0,1,1-.74,0V16s-.29-.91-1,0S16,28.24,16,28.24s-.36.55.37,2.37,3.91,10,3.91,10h9.48s3.19-8.19,3.91-10S34,28.24,34,28.24Z"/><path class="cls-3" d="M17.94,7.75A1.73,1.73,0,1,1,19.67,6,1.73,1.73,0,0,1,17.94,7.75Zm0-2.91A1.19,1.19,0,1,0,19.13,6,1.18,1.18,0,0,0,17.94,4.84Z"/><path class="cls-4" d="M32.06,7.75A1.73,1.73,0,1,1,33.78,6,1.74,1.74,0,0,1,32.06,7.75Zm0-2.91A1.19,1.19,0,1,0,33.24,6,1.18,1.18,0,0,0,32.06,4.84Z"/><path class="cls-5" d="M33.47,14.82a1.73,1.73,0,1,1,1.72-1.73A1.73,1.73,0,0,1,33.47,14.82Zm0-2.91a1.19,1.19,0,1,0,1.18,1.18A1.18,1.18,0,0,0,33.47,11.91Z"/><path class="cls-6" d="M16.53,14.82a1.73,1.73,0,1,1,1.73-1.73A1.72,1.72,0,0,1,16.53,14.82Zm0-2.91a1.19,1.19,0,1,0,1.19,1.18A1.18,1.18,0,0,0,16.53,11.91Z"/><path class="cls-7" d="M23.52,13.2a6.57,6.57,0,0,1-5.1-5.91l.54,0a6,6,0,0,0,4.68,5.42Z"/><path class="cls-8" d="M26.48,13.2l-.12-.53A6,6,0,0,0,31,7.25l.54,0A6.57,6.57,0,0,1,26.48,13.2Z"/><rect class="cls-9" x="17.85" y="12.83" width="5.84" height="0.54"/><rect class="cls-10" x="26.32" y="12.83" width="5.84" height="0.54"/><path class="cls-11" d="M34,28.24S27,16.87,26.34,16s-1,0-1,0V26.68A1.45,1.45,0,0,1,25,29.54V40.62h4.74s3.19-8.19,3.91-10S34,28.24,34,28.24Z"/><rect class="cls-12" x="25" y="41.38" width="5.93" height="3.06"/><path class="cls-13" d="M25,14.82a1.73,1.73,0,1,1,1.72-1.73A1.72,1.72,0,0,1,25,14.82Zm0-2.91a1.19,1.19,0,1,0,1.19,1.18A1.19,1.19,0,0,0,25,11.91Z"/><path class="cls-14" d="M31.84,45.07a.63.63,0,0,1-.63.63H18.79a.63.63,0,0,1-.63-.63h0a.63.63,0,0,1,.63-.63H31.21a.63.63,0,0,1,.63.63Z"/></g></svg>