<svg xmlns="http://www.w3.org/2000/svg" xmlns:xlink="http://www.w3.org/1999/xlink" viewBox="0 0 50 50"><defs><style>.cls-1{fill:url(#linear-gradient);}.cls-2{fill:url(#linear-gradient-2);}.cls-3{fill:url(#linear-gradient-3);}.cls-4{fill:url(#linear-gradient-4);}.cls-5{fill:url(#linear-gradient-5);}.cls-6{fill:url(#linear-gradient-6);}.cls-7{fill:url(#linear-gradient-7);}.cls-8{fill:url(#linear-gradient-8);}.cls-9{fill:url(#linear-gradient-9);}.cls-10{fill:url(#linear-gradient-10);}.cls-11{fill:url(#linear-gradient-11);}</style><linearGradient id="linear-gradient" x1="9.38" y1="31.57" x2="39.99" y2="31.57" gradientUnits="userSpaceOnUse"><stop offset="0" stop-color="#1b4071"/><stop offset="0.26" stop-color="#1d4374"/><stop offset="0.44" stop-color="#254b7d"/><stop offset="0.6" stop-color="#32598d"/><stop offset="0.74" stop-color="#456ea3"/><stop offset="0.88" stop-color="#5d88bf"/><stop offset="1" stop-color="#78a5df"/></linearGradient><linearGradient id="linear-gradient-2" x1="14.73" y1="21.44" x2="20.86" y2="21.44" xlink:href="#linear-gradient"/><linearGradient id="linear-gradient-3" x1="30.42" y1="15.79" x2="35.86" y2="15.79" xlink:href="#linear-gradient"/><linearGradient id="linear-gradient-4" x1="25.96" y1="18.91" x2="27.65" y2="18.91" xlink:href="#linear-gradient"/><linearGradient id="linear-gradient-5" x1="23.61" y1="12.39" x2="27.7" y2="12.39" xlink:href="#linear-gradient"/><linearGradient id="linear-gradient-6" x1="14.68" y1="15.06" x2="20.86" y2="15.06" xlink:href="#linear-gradient"/><linearGradient id="linear-gradient-7" x1="17.37" y1="15.65" x2="18.34" y2="15.65" xlink:href="#linear-gradient"/><linearGradient id="linear-gradient-8" x1="23.61" y1="18.91" x2="25.3" y2="18.91" xlink:href="#linear-gradient"/><linearGradient id="linear-gradient-9" x1="10.92" y1="25.13" x2="20.56" y2="25.13" xlink:href="#linear-gradient"/><linearGradient id="linear-gradient-10" x1="24.27" y1="33.54" x2="34.51" y2="33.54" xlink:href="#linear-gradient"/><linearGradient id="linear-gradient-11" x1="21.86" y1="25.13" x2="40.34" y2="25.13" xlink:href="#linear-gradient"/></defs><g id="OBJECTS"><g id="_329_holder_pen_pencil_scale_stationary" data-name=" 329 holder pen pencil scale stationary"><path class="cls-1" d="M39.58,38.92h-2.4V28.15H24.59a.28.28,0,0,1-.27-.16l-2.78-4.42V38.88h-.68V23.62L18.14,28a.3.3,0,0,1-.27.16H14.08V38.92H9.66a.34.34,0,0,0,0,.66h30a.36.36,0,0,0,.33-.32.37.37,0,0,0-.39-.34Zm-16-8.39a.35.35,0,0,1,.33-.33h11a.35.35,0,0,1,.33.33V36.6a.36.36,0,0,1-.33.34H23.94a.36.36,0,0,1-.33-.34Z"/><path class="cls-2" d="M15.44,22.11h4.74a.73.73,0,0,0,.68-.71.68.68,0,0,0-.7-.64H15.44a.67.67,0,0,0-.71.63h0A.71.71,0,0,0,15.44,22.11Z"/><path class="cls-3" d="M35.86,20.12H33.48a.32.32,0,0,1-.39-.26.34.34,0,0,1,.27-.39h2.5V17.4H34.18a.31.31,0,1,1,0-.62h1.68v-2H33.48a.32.32,0,0,1-.39-.26.33.33,0,0,1,.27-.38h2.5V12.09H34.18a.32.32,0,0,1-.32-.32.32.32,0,0,1,.32-.32h1.68v-2H30.42V22.17h5.44Z"/><rect class="cls-4" x="25.96" y="15.7" width="1.69" height="6.41"/><polygon class="cls-5" points="27.7 13.34 25.63 9.72 23.61 13.34 23.61 15.06 27.7 15.06 27.7 13.34"/><path class="cls-6" d="M19.36,20.07l1.5-5.88L18.14,10v4.53A1.18,1.18,0,0,1,19,15.65a1.2,1.2,0,1,1-2.4,0,1.15,1.15,0,0,1,.82-1.08V10.21L14.68,14.3l1.47,5.82h3.21Z"/><path class="cls-7" d="M17.86,16.13a.49.49,0,0,0,.48-.49.51.51,0,0,0-.49-.48.5.5,0,0,0-.48.49.46.46,0,0,0,.46.48s0,0,0,0Z"/><rect class="cls-8" x="23.61" y="15.7" width="1.69" height="6.41"/><polygon class="cls-9" points="17.62 27.5 20.56 22.77 20.18 22.77 15.44 22.77 13.91 22.77 10.92 27.5 13.7 27.5 17.62 27.5"/><path class="cls-10" d="M34.51,30.84H24.27v5.39H34.51ZM28,35.26H26.66V33.91H28Zm2,0H28.68V33.91H30Zm2.07,0H30.75V33.91h1.36Z"/><path class="cls-11" d="M37.56,27.5h2.78l-3-4.74H25.79c-.05,0-.11,0-.16,0a.18.18,0,0,1-.16,0H21.86l3,4.74Z"/></g></g></svg>