<svg version="1.2" xmlns="http://www.w3.org/2000/svg" viewBox="0 0 494 423" width="494" height="423">
	<title>صورة رقم1-svg</title>
	<style>
		.s0 { fill: #f5f5f5 } 
		.s1 { fill: #e0e0e0 } 
		.s2 { fill: none } 
		.s3 { fill: #ebebeb } 
		.s4 { fill: #fafafa } 
		.s5 { fill: #ffffff } 
		.s6 { fill: #455a64 } 
		.s7 { fill: #263238 } 
		.s8 { fill: none;stroke: #1757c9;stroke-miterlimit:10 } 
		.s9 { fill: #407bff } 
		.s10 { fill: #1757c9 } 
		.s11 { fill: #ffbf9d } 
		.s12 { fill: #ff9a6c } 
		.s13 { fill: #000000 } 
		.s14 { fill: #072756 } 
		.s15 { fill: #ff725e } 
	</style>
	<g id="Background_Complete">
		<path id="Layer" fill-rule="evenodd" class="s0" d="m275.7 31.3c0.2 12.6-7.3 24.1-18.9 29.1-11.6 4.9-25 2.4-34-6.3-9.1-8.8-11.9-22.2-7.3-33.9 4.7-11.7 15.9-19.5 28.5-19.7 4.1 0 8.2 0.7 12 2.2 3.8 1.6 7.3 3.8 10.2 6.7 3 2.8 5.3 6.2 7 10 1.6 3.8 2.4 7.8 2.5 11.9zm-46.1 0.8c0.1 6 3.9 11.4 9.5 13.6 5.6 2.2 12 0.8 16.2-3.6 4.2-4.3 5.3-10.7 2.9-16.3-2.4-5.5-7.9-9-13.9-8.9-2 0-3.9 0.4-5.7 1.2-1.8 0.8-3.4 1.9-4.8 3.4-1.4 1.4-2.4 3-3.1 4.9-0.8 1.8-1.1 3.7-1.1 5.7z"/>
		<path id="Layer" class="s1" d="m275.7 31.3c0.1 4.1-0.7 8.2-2.2 12-1.5 3.9-3.7 7.4-6.6 10.3-2.8 3-6.2 5.3-10 7-3.7 1.6-7.8 2.5-11.9 2.6l-0.3-16.4c4 0 7.8-1.7 10.6-4.5 2.7-2.9 4.3-6.7 4.2-10.7-0.1-4-1.7-7.8-4.6-10.5-2.8-2.8-6.7-4.3-10.6-4.3l-0.3-16.3c4.1 0 8.2 0.7 12 2.2 3.8 1.5 7.3 3.8 10.2 6.7 3 2.8 5.3 6.2 7 10 1.6 3.8 2.4 7.8 2.5 11.9z"/>
		<path id="Layer" fill-rule="evenodd" class="s2" d="m275.7 31.3c0.2 12.6-7.3 24.1-18.9 29.1-11.6 4.9-25 2.4-34-6.3-9.1-8.8-11.9-22.2-7.3-33.9 4.7-11.7 15.9-19.5 28.5-19.7 4.1 0 8.2 0.7 12 2.2 3.8 1.6 7.3 3.8 10.2 6.7 3 2.8 5.3 6.2 7 10 1.6 3.8 2.4 7.8 2.5 11.9zm-46.1 0.8c0.1 6 3.9 11.4 9.5 13.6 5.6 2.2 12 0.8 16.2-3.6 4.2-4.3 5.3-10.7 2.9-16.3-2.4-5.5-7.9-9-13.9-8.9-2 0-3.9 0.4-5.7 1.2-1.8 0.8-3.4 1.9-4.8 3.4-1.4 1.4-2.4 3-3.1 4.9-0.8 1.8-1.1 3.7-1.1 5.7z"/>
		<path id="Layer" class="s1" d="m229.6 32.1q0 0 0-0.1 0 0 0 0 0-0.1 0-0.1 0 0 0-0.1v-0.7q0-0.1 0-0.3 0-0.1 0-0.2 0-0.2 0.1-0.3 0-0.2 0-0.3 0-0.2 0-0.4 0.1-0.2 0.1-0.4 0-0.2 0.1-0.4 0-0.2 0-0.4 0.2-0.5 0.3-1 0.2-0.5 0.4-1 0.2-0.6 0.4-1 0.2-0.5 0.5-1c0.8-1.5 2-2.9 3.3-4 1.3-1.2 2.8-2.1 4.5-2.7 1.6-0.6 3.3-1 5.1-1 1.7 0 3.4 0.3 5.1 0.9q0.5 0.1 1 0.3 0.5 0.3 1 0.5 0.5 0.3 1 0.5 0.4 0.3 0.9 0.7 0.2 0.1 0.4 0.3 0.2 0.2 0.4 0.4 0.2 0.1 0.4 0.3 0.3 0.2 0.5 0.4 0.2 0.2 0.3 0.4 0.2 0.2 0.4 0.4 0.2 0.3 0.4 0.5 0.2 0.2 0.4 0.4 1.4 2 2.2 4.2 0.8 2.3 0.9 4.8 0 2.4-0.7 4.7-0.7 2.3-2.1 4.3-0.2 0.2-0.4 0.4-0.2 0.3-0.3 0.5-0.2 0.2-0.4 0.4-0.2 0.2-0.4 0.4-0.2 0.2-0.4 0.4-0.2 0.2-0.4 0.4-0.2 0.2-0.5 0.4-0.2 0.2-0.4 0.3-0.4 0.4-0.9 0.7-0.4 0.3-0.9 0.5-0.5 0.3-1 0.5-0.5 0.3-1 0.5-1.8 0.6-3.6 0.9-1.9 0.2-3.8-0.1-1.9-0.3-3.6-1-1.8-0.7-3.3-1.8-0.6-0.5-1.1-1-0.6-0.4-1-1-0.5-0.5-1-1.1-0.4-0.6-0.8-1.2-0.3-0.5-0.5-1-0.2-0.4-0.5-0.9-0.2-0.5-0.3-1.1-0.2-0.5-0.4-1 0-0.2 0-0.4-0.1-0.2-0.1-0.4-0.1-0.2-0.1-0.4 0-0.2-0.1-0.4 0-0.1 0-0.2 0-0.2 0-0.3 0-0.2-0.1-0.3 0-0.2 0-0.3 0-0.4 0-0.7 0 0 0-0.1 0 0 0 0 0-0.1 0-0.1 0 0 0-0.1 0.1 0.5 0.1 1 0.1 0.4 0.2 0.9 0 0.4 0.1 0.9 0.1 0.4 0.2 0.9 0.2 0.5 0.4 1 0.1 0.5 0.4 1 0.2 0.5 0.4 0.9 0.3 0.5 0.6 1 0.3 0.6 0.8 1.1 0.4 0.6 0.9 1.1 0.5 0.5 1 1 0.5 0.5 1.1 0.9 1.5 1.1 3.2 1.8 1.7 0.7 3.5 1 1.9 0.2 3.7 0 1.9-0.2 3.6-0.9 0.5-0.2 1-0.4 0.4-0.2 0.9-0.5 0.5-0.3 0.9-0.6 0.5-0.3 0.9-0.6 0.2-0.2 0.4-0.3 0.2-0.2 0.4-0.4 0.2-0.2 0.4-0.4 0.2-0.2 0.4-0.3 0.2-0.3 0.4-0.5 0.2-0.2 0.4-0.4 0.1-0.2 0.3-0.4 0.2-0.3 0.3-0.5 1.4-1.9 2.1-4.1 0.7-2.3 0.6-4.6 0-2.4-0.8-4.6-0.7-2.2-2.1-4.1-0.2-0.2-0.4-0.4-0.2-0.3-0.4-0.5-0.1-0.2-0.3-0.4-0.2-0.2-0.4-0.4-0.2-0.2-0.4-0.4-0.2-0.2-0.4-0.3-0.3-0.2-0.5-0.4-0.2-0.1-0.4-0.3-0.4-0.3-0.9-0.6-0.4-0.3-0.9-0.5-0.5-0.3-1-0.5-0.5-0.2-1-0.4c-1.6-0.6-3.3-0.8-5-0.8-1.7 0-3.4 0.3-5 0.9-1.5 0.6-3 1.5-4.3 2.6-1.3 1.1-2.4 2.4-3.3 3.9q-0.3 0.5-0.5 0.9-0.2 0.5-0.4 1-0.2 0.5-0.4 1-0.2 0.6-0.3 1.1-0.1 0.4-0.2 0.9 0 0.4-0.1 0.9-0.1 0.4-0.1 0.9-0.1 0.4-0.1 0.9z"/>
		<path id="Layer" class="s1" d="m275.7 31.3q0 0 0-0.5c0-0.3-0.1-0.8-0.1-1.4 0-0.4-0.1-0.7-0.1-1.1 0-0.4-0.1-0.9-0.2-1.3q-0.1-0.4-0.1-0.9-0.1-0.4-0.2-0.8-0.1-0.4-0.2-0.8-0.1-0.4-0.2-0.8-0.3-1-0.7-2.1-0.3-1.1-0.8-2.1-0.4-1-1-2-0.5-1-1.1-2-0.8-1.3-1.7-2.4-0.9-1.2-1.9-2.3-1-1.1-2.1-2.1-1.1-1-2.3-1.9-1.5-1.1-3-2-1.6-0.9-3.2-1.6-1.7-0.7-3.4-1.2-1.8-0.5-3.5-0.8-0.5-0.1-1-0.2-0.5-0.1-1-0.1-0.5-0.1-1-0.1-0.5 0-1 0c-0.7 0-1.3-0.1-2 0l-2 0.1c-0.4 0-0.7 0-1 0.1l-1 0.2c-0.7 0.1-1.4 0.2-2.1 0.3q-0.5 0.2-1.1 0.3-0.5 0.2-1 0.3-0.5 0.2-1 0.4-0.5 0.1-1 0.3-0.6 0.2-1.1 0.4-0.5 0.3-1 0.5-0.5 0.2-1 0.5-0.5 0.2-0.9 0.5c-0.7 0.4-1.3 0.8-1.9 1.2q-0.3 0.1-0.5 0.3-0.3 0.1-0.5 0.3-0.2 0.2-0.5 0.4-0.2 0.1-0.4 0.3-0.5 0.4-0.9 0.7-0.4 0.4-0.9 0.8-0.4 0.4-0.8 0.8-0.5 0.4-0.9 0.8l-1.7 1.7-0.4 0.5-0.3 0.4-0.7 1-0.7 1-0.6 1-0.6 1-0.3 0.6-0.3 0.5-1 2.2q-0.4 1.2-0.8 2.3-0.7 2.4-1.1 4.9-0.4 2.4-0.3 4.9 0 2.5 0.4 5 0.5 2.5 1.3 4.8 0.5 1.2 0.9 2.3l1.1 2.2 0.2 0.5 0.4 0.5 0.6 1 0.6 1 0.8 1 0.7 1 0.4 0.4 0.4 0.5 1.6 1.7q0.4 0.4 0.8 0.8 0.5 0.4 0.9 0.8 0.4 0.3 0.9 0.7 0.5 0.3 0.9 0.7 0.3 0.2 0.5 0.3 0.2 0.2 0.5 0.4 0.2 0.1 0.4 0.3 0.3 0.1 0.5 0.3c0.7 0.3 1.3 0.7 2 1.1q0.5 0.2 1 0.5 0.5 0.2 1 0.4 0.5 0.2 1.1 0.4 0.5 0.2 1 0.4 0.5 0.2 1 0.4 0.5 0.1 1.1 0.3 0.5 0.1 1 0.2 0.5 0.2 1.1 0.3c0.6 0.1 1.4 0.2 2 0.3l1 0.1q0.6 0 1 0l2.1 0.1c0.7 0 1.4-0.1 2-0.1q0.5 0 1-0.1 0.5 0 1-0.1 0.5-0.1 0.9-0.2 0.5 0 1-0.1 3.3-0.7 6.3-2 3-1.4 5.7-3.3 2.7-2 4.9-4.4 2.2-2.5 3.8-5.3 0.6-1 1.1-2 0.5-1 0.9-2.1 0.4-1 0.8-2.1 0.3-1.1 0.6-2.2 0.1-0.4 0.1-0.8 0.1-0.4 0.2-0.8 0.1-0.4 0.1-0.8 0.1-0.4 0.1-0.8 0.2-0.7 0.2-1.3l0.1-1.1c0-0.7 0-1.1 0-1.5q0-0.5 0-0.5 0 0 0 0.5 0 0.5 0 1.5 0 0.5 0 1.1c0 0.4-0.1 0.8-0.1 1.3q-0.1 0.4-0.1 0.8-0.1 0.4-0.1 0.8-0.1 0.4-0.2 0.9-0.1 0.4-0.2 0.8-0.2 1.1-0.6 2.2-0.3 1-0.7 2.1-0.4 1.1-0.9 2.1-0.5 1-1 2-1.7 2.9-3.9 5.4-2.2 2.5-4.9 4.5-2.7 1.9-5.8 3.3-3 1.4-6.3 2.1-0.5 0.1-1 0.1-0.5 0.1-1 0.2-0.5 0.1-1 0.1-0.5 0.1-1 0.1c-0.7 0-1.4 0.1-2.1 0.1l-2-0.1q-0.6 0.1-1.1 0l-1-0.1c-0.7-0.2-1.5-0.2-2.2-0.4q-0.5-0.1-1-0.2-0.6-0.1-1.1-0.3-0.5-0.1-1-0.3-0.6-0.2-1.1-0.3-0.5-0.2-1-0.4-0.5-0.2-1.1-0.4-0.5-0.2-1-0.5-0.5-0.2-1-0.5c-0.7-0.3-1.3-0.7-2-1.1q-0.2-0.2-0.5-0.3-0.2-0.2-0.5-0.3-0.2-0.2-0.5-0.4-0.2-0.1-0.4-0.3-0.5-0.3-1-0.7-0.4-0.4-0.9-0.7-0.4-0.4-0.9-0.8-0.4-0.4-0.8-0.8l-1.6-1.8-0.4-0.4-0.4-0.5-0.7-1-0.8-1-0.6-1-0.6-1-0.4-0.5-0.2-0.6q-0.6-1-1.1-2.2c-0.4-0.7-0.6-1.5-0.9-2.3q-0.9-2.4-1.3-4.9-0.5-2.4-0.5-5-0.1-2.5 0.3-5 0.4-2.5 1.2-4.9l0.8-2.4q0.5-1.1 1-2.2l0.2-0.6 0.3-0.5 0.6-1.1 0.7-1 0.7-1 0.7-1 0.3-0.4 0.4-0.5q0.8-0.9 1.6-1.8 0.4-0.4 0.8-0.8 0.4-0.4 0.9-0.8 0.4-0.4 0.9-0.8 0.4-0.3 0.9-0.7 0.2-0.2 0.4-0.3 0.3-0.2 0.5-0.4 0.2-0.2 0.5-0.3 0.2-0.2 0.5-0.3c0.6-0.4 1.2-0.9 1.9-1.2q1-0.6 2-1 1-0.5 2-0.9 1.1-0.4 2.1-0.7 1.1-0.3 2.1-0.6c0.7-0.2 1.5-0.3 2.2-0.4l1-0.2c0.4 0 0.7 0 1.1 0l2-0.2q1.1 0 2.1 0 0.5 0 1 0.1 0.5 0 1 0 0.5 0.1 1 0.2 0.5 0 1 0.1 3.3 0.6 6.4 1.9 3.1 1.2 5.8 3.1 2.8 1.9 5.1 4.3 2.3 2.4 4 5.3 0.6 1 1.1 2 0.5 1 1 2 0.4 1.1 0.8 2.2 0.4 1 0.7 2.1 0.1 0.4 0.2 0.8 0.1 0.4 0.1 0.8 0.1 0.4 0.2 0.8 0.1 0.5 0.1 0.9c0.1 0.4 0.2 0.9 0.2 1.3 0.1 0.4 0 0.7 0.1 1.1 0 0.6 0 1.1 0.1 1.5q0 0 0 0.1 0 0.1 0 0.1 0 0.1 0 0.2 0 0.1 0 0.1z"/>
		<path id="Layer" class="s3" d="m247.8 65.7c-4.7 0.1-9.4-0.7-13.8-2.5-4.5-1.7-8.5-4.3-11.9-7.6-3.4-3.3-6.1-7.2-7.9-11.6-1.9-4.4-2.9-9.1-2.9-13.8l19-0.3c0.2 9.6 7.5 15.7 17.2 15.6z"/>
		<path id="Layer" class="s1" d="m247.8 65.7q0 0 0-0.4c0-0.2 0-0.6 0-1.1 0-1 0-2.3-0.1-4-0.1-3.5-0.2-8.5-0.3-14.7l0.1 0.2q-0.7 0-1.4 0-0.7-0.1-1.4-0.2-0.8-0.1-1.5-0.2-0.7-0.1-1.4-0.3-0.7-0.2-1.5-0.5-0.7-0.3-1.5-0.6-0.7-0.4-1.3-0.8-0.7-0.4-1.3-0.9-0.7-0.5-1.3-1.1-0.7-0.6-1.2-1.3-0.6-0.6-1-1.3-0.5-0.8-0.9-1.5-0.4-0.8-0.7-1.7-0.3-0.9-0.5-1.7-0.2-0.9-0.3-1.8-0.1-0.9-0.1-1.8l0.2 0.2-14.7 0.2-4.3 0.1 0.2-0.2q0 1.4 0.2 2.8 0.1 1.5 0.4 2.9 0.2 1.4 0.6 2.8 0.3 1.4 0.7 2.7l1 2.6c0.4 0.8 0.8 1.6 1.2 2.4q0.2 0.3 0.3 0.6 0.2 0.3 0.3 0.6 0.2 0.3 0.4 0.6 0.1 0.2 0.3 0.5 0.2 0.3 0.3 0.6 0.2 0.2 0.4 0.5 0.2 0.3 0.3 0.5 0.2 0.3 0.4 0.5c0.5 0.7 1 1.4 1.5 2 0.5 0.7 1.1 1.3 1.7 1.8q0.4 0.5 0.8 0.9l0.9 0.8 1.7 1.5q0.8 0.6 1.6 1.2 0.9 0.6 1.8 1.2 0.9 0.5 1.8 1 0.9 0.5 1.8 1l1.7 0.7c0.6 0.3 1.1 0.4 1.7 0.6l1.5 0.6c0.6 0.1 1 0.2 1.6 0.4l1.4 0.3 0.6 0.2 0.7 0.1 2.3 0.3q0.3 0 0.5 0 0.2 0.1 0.5 0.1 0.2 0 0.4 0 0.3 0 0.5 0l1.4 0.1h0.8 0.3q0 0-0.1 0 0 0 0 0-0.1 0-0.1 0 0 0-0.1 0h-0.8-1.4q-0.2 0-0.5 0-0.2 0-0.4 0-0.3 0-0.5 0-0.2-0.1-0.5-0.1l-2.3-0.3-0.7-0.1-0.7-0.1-1.4-0.4c-0.5-0.1-1-0.2-1.5-0.3l-1.6-0.6c-0.5-0.2-1.1-0.3-1.7-0.6l-1.7-0.7q-0.9-0.5-1.9-1-0.9-0.4-1.8-1-0.9-0.5-1.8-1.1-0.8-0.6-1.6-1.3l-1.8-1.5-0.9-0.8-0.8-0.9c-0.5-0.6-1.1-1.1-1.7-1.8l-1.5-2q-0.2-0.2-0.4-0.5-0.2-0.3-0.3-0.5-0.2-0.3-0.4-0.6-0.2-0.2-0.3-0.5-0.2-0.3-0.4-0.6-0.2-0.3-0.3-0.6-0.2-0.2-0.4-0.5-0.1-0.3-0.2-0.6c-0.4-0.8-0.9-1.6-1.2-2.5-0.4-0.8-0.7-1.7-1-2.6q-0.5-1.4-0.8-2.8-0.4-1.4-0.7-2.8-0.2-1.4-0.4-2.9-0.1-1.4-0.1-2.9v-0.2h0.2l4.3-0.1 14.7-0.2h0.2v0.2q0 0.9 0.1 1.8 0.1 0.9 0.3 1.7 0.2 0.9 0.5 1.7 0.3 0.9 0.7 1.7 0.4 0.7 0.8 1.4 0.5 0.7 1 1.4 0.5 0.6 1.1 1.2 0.6 0.6 1.3 1.1 0.6 0.5 1.3 0.9 0.6 0.4 1.3 0.7 0.7 0.4 1.4 0.7 0.8 0.2 1.5 0.4 0.7 0.2 1.4 0.4 0.7 0.1 1.4 0.2 0.7 0.1 1.4 0.1 0.7 0.1 1.5 0h0.1v0.2c0.1 6.2 0.1 11.3 0.2 14.8q0 2.6 0 4v1q0 0.1 0 0.1 0 0.1-0.1 0.1 0 0.1 0 0.1 0 0 0 0.1z"/>
		<path id="Layer" class="s4" d="m351.4 44.7c0-2.4 2-4.4 4.5-4.4h71c2.5 0 4.5 2 4.5 4.4v66.3c0 2.4-2 4.4-4.5 4.4h-71c-2.5 0-4.5-2-4.5-4.4z"/>
		<path id="Layer" class="s1" d="m351.4 44.7q0-0.1 0-0.2 0-0.1 0-0.2 0 0 0-0.1 0-0.1 0-0.2 0.1-0.3 0.1-0.6 0.1-0.3 0.2-0.6 0.1-0.2 0.3-0.5 0.1-0.2 0.3-0.4 0.3-0.4 0.7-0.7 0.4-0.3 0.8-0.5 0.4-0.2 0.9-0.4 0.4-0.1 0.9-0.1 2.2 0 5.1 0l32.4-0.1h22.4 10.9q0.2 0 0.4 0 0.2 0 0.4 0 0.2 0 0.4 0.1 0.2 0 0.4 0.1 0.5 0.1 0.8 0.2 0.4 0.2 0.8 0.5 0.3 0.2 0.6 0.5 0.3 0.3 0.6 0.7 0.1 0.2 0.2 0.3 0.1 0.2 0.2 0.4 0.1 0.2 0.1 0.4 0.1 0.2 0.2 0.4 0 0.3 0 0.5 0.1 0.2 0.1 0.4 0 0.2 0 0.4 0 0.2 0 0.4v6.7c0 18.1 0 38 0 58.9q0 0.5-0.1 1.1-0.1 0.5-0.4 0.9-0.2 0.5-0.5 0.9-0.3 0.4-0.7 0.8-0.2 0.1-0.4 0.3-0.2 0.1-0.5 0.2-0.2 0.2-0.4 0.3-0.3 0.1-0.5 0.1-0.3 0.1-0.5 0.1-0.3 0.1-0.5 0.1-0.3 0-0.5 0-0.3 0-0.5 0h-51-13.3c-2.1 0-4.2 0-6.3 0q-0.8-0.1-1.6-0.4-0.7-0.4-1.3-0.9-0.6-0.6-0.9-1.3-0.4-0.8-0.5-1.6c0-8.1 0-15.5 0-22.4 0-13.7 0.1-24.8 0.1-32.4 0-3.8 0-6.8 0.1-8.8q0-1.5 0-2.3 0-0.8 0-0.8 0 0 0 0.8 0 0.8 0 2.3c0 2 0 5 0 8.8 0 7.6 0.1 18.7 0.1 32.4 0 6.8 0 14.3 0.1 22.4q0 0.3 0.1 0.7 0.2 0.3 0.3 0.6 0.2 0.3 0.4 0.6 0.2 0.3 0.5 0.5 0.3 0.3 0.6 0.5 0.3 0.2 0.6 0.3 0.3 0.2 0.7 0.3 0.3 0.1 0.7 0.1c2 0 4.2 0 6.3 0h64.4q0.2 0 0.4 0 0.3 0 0.5 0 0.2-0.1 0.4-0.1 0.3 0 0.5-0.1 0.2-0.1 0.4-0.1 0.2-0.1 0.5-0.2 0.2-0.1 0.3-0.3 0.2-0.1 0.4-0.2 0.4-0.3 0.6-0.7 0.3-0.4 0.5-0.8 0.2-0.4 0.3-0.9 0.1-0.4 0.1-0.9c0-20.9 0-40.7 0-58.9v-6.7q0.1-0.4 0-0.7 0-0.4-0.1-0.8-0.1-0.4-0.2-0.8-0.2-0.3-0.4-0.7-0.2-0.3-0.5-0.6-0.3-0.2-0.6-0.4-0.3-0.3-0.6-0.4-0.4-0.2-0.8-0.3-0.2 0-0.3-0.1-0.2 0-0.4 0-0.2 0-0.4 0-0.2 0-0.4 0h-10.8-22.4l-32.4-0.1h-5.1q-0.8 0-1.5 0.3-0.7 0.3-1.2 0.8-0.6 0.5-1 1.1-0.4 0.7-0.5 1.4c-0.1 0.5-0.1 0.7-0.1 0.7z"/>
		<path id="Layer" class="s1" d="m411.5 104.4c0 0.1-9.2 0.2-20.4 0.2-11.3 0-20.5-0.1-20.5-0.2 0-0.2 9.2-0.3 20.5-0.3 11.2 0 20.4 0.1 20.4 0.3z"/>
		<path id="Layer" class="s1" d="m402.4 108.1c0 0.1-5.1 0.3-11.3 0.3-6.3 0-11.4-0.2-11.4-0.3 0-0.1 5.1-0.2 11.4-0.2 6.2 0 11.3 0.1 11.3 0.2z"/>
		<path id="Layer" class="s3" d="m392.6 75.2l20.4 0.3c-0.1 2.6-0.7 5.2-1.8 7.6-1 2.3-2.5 4.5-4.4 6.3-1.9 1.8-4.1 3.3-6.5 4.3-2.4 0.9-5 1.4-7.7 1.4h-0.1z"/>
		<path id="Layer" class="s1" d="m389.4 72.3l-0.2 19.9c-8-0.2-15.1-5.3-18-12.7-2.9-7.5-1-16 4.8-21.5 5.7-5.6 14.2-7.2 21.6-4 7.4 3.1 12.1 10.3 12.2 18.3z"/>
		<path id="Layer" class="s1" d="m0.8 10.4h136.7v296.1l-136.7-0.1z"/>
		<path id="Layer" class="s0" d="m6.8 17.2h125.5l0.1 283.1h-125.6z"/>
		<path id="Layer" class="s3" d="m6.8 140h36.5v26.5h27.6v-59.2h35.9v-11.5h25.5v204.5h-125.5v-160.3z"/>
		<path id="Layer" class="s5" d="m132.3 33l-125.5 194.7v23.2l125.5-197.9v-20z"/>
		<path id="Layer" class="s5" d="m69.6 17.2l-62.8 101.7v69.7l106.8-171.4h-44z"/>
		<path id="Layer" class="s1" d="m6.8 65.3h128.2v4.8h-128.2z"/>
		<path id="Layer" class="s1" d="m313.1 381.4c0 0-3.1-21.1-2.8-33.3 0.2-12.3 0-26 0-26h1.4c0 0-1 24.3 0.1 39 1 14.7 3.7 20.3 3.7 20.3h-2.4"/>
		<path id="Layer" class="s1" d="m322.2 298.4q-0.1-0.3-0.2-0.6-0.1-0.2-0.3-0.5-0.2-0.2-0.4-0.4-0.2-0.2-0.4-0.4-0.3-0.2-0.7-0.2-0.4-0.1-0.8-0.1-0.4 0-0.8 0.1-0.4 0-0.7 0.2c-4.3 1.5-8.1 9.5-9.8 13.6l5.6 19.1c10.3-9.4 12-21.9 8.5-30.8z"/>
		<path id="Layer" class="s3" d="m320.6 297.3q0 0 0 0 0 0.1-0.1 0.1 0 0 0 0.1 0 0 0 0-0.1 0.3-0.3 0.7c-0.2 0.6-0.6 1.5-1 2.6-0.8 2.1-1.9 5.2-2.8 8.6-1 3.4-1.6 6.5-2 8.8-0.2 1.2-0.4 2.1-0.5 2.7l-0.1 0.8c0 0.1 0 0.2 0 0.2q-0.1 0-0.1 0 0-0.1 0-0.1 0 0 0-0.1 0 0 0.1 0c0-0.2 0-0.5 0-0.8q0.1-1 0.4-2.7 0.2-1.1 0.4-2.2 0.2-1.2 0.5-2.3 0.2-1.1 0.5-2.2 0.2-1.1 0.5-2.2 0.3-1.1 0.7-2.2 0.3-1 0.7-2.1 0.3-1.1 0.7-2.2 0.4-1 0.9-2.1 0.6-1.6 1-2.5 0.2-0.4 0.4-0.7 0 0 0 0 0-0.1 0-0.1 0 0 0-0.1 0.1 0 0.1 0z"/>
		<path id="Layer" class="s3" d="m311.2 333.8q-1.9-1.1-3.5-2.6-1.6-1.6-2.7-3.5-1.2-1.9-1.8-4-0.6-2.2-0.7-4.4c-0.2-4.2 1.1-8.4 2.6-12.4q0-0.1 0.1-0.2 0-0.1 0.1-0.3 0.1-0.1 0.2-0.2 0.1-0.1 0.2-0.1 0.2-0.1 0.3-0.1 0.2 0 0.4 0 0.2 0 0.4 0.1 0.2 0.1 0.3 0.2c3.9 2.2 6.2 6.4 7.5 10.6q0.3 1.1 0.5 2.2 0.2 1 0.3 2.1 0.2 1.1 0.1 2.3 0 1.1-0.1 2.2-0.2 1.1-0.5 2.2-0.4 1.1-0.9 2.2-0.5 1-1.2 1.9-0.7 1-1.6 1.8z"/>
		<path id="Layer" class="s1" d="m311.2 333.8q0 0 0-0.1 0 0 0 0 0-0.1 0-0.1 0 0 0 0v-0.8c0-0.6 0-1.5 0-2.7q-0.1-1.1-0.2-2.2-0.1-1.1-0.2-2.2-0.1-1.1-0.3-2.2-0.2-1.1-0.3-2.2c-0.6-3.4-1.3-6.5-1.9-8.7-0.2-1-0.4-2-0.6-2.6q-0.1-0.4-0.2-0.7 0 0 0-0.1 0 0 0 0 0-0.1 0-0.1 0 0 0-0.1l0.1 0.3q0.1 0.3 0.2 0.7 0.3 0.9 0.7 2.6c0.6 2.2 1.3 5.3 1.9 8.7q0.2 1.1 0.4 2.2 0.1 1.1 0.2 2.2 0.1 1.1 0.2 2.2 0.1 1.1 0.1 2.2 0 1.7 0 2.7 0 0.5 0 0.7c0 0.2-0.1 0.3-0.1 0.3z"/>
		<path id="Layer" class="s3" d="m317.2 366c5.2 1.1 9.5 4.8 14.6 6.6 3.3 1.2 7.1 1.6 9.7 4q-0.3-0.6-0.7-1.2-0.3-0.5-0.8-0.9-0.5-0.5-1-0.9-0.5-0.4-1.1-0.7-1.6-0.9-3.2-1.8-1.6-0.9-3.2-1.7-1.7-0.8-3.4-1.5-1.7-0.7-3.4-1.3c-2.4-0.8-4.9-1.5-7.3-0.8"/>
		<path id="Layer" class="s3" d="m309.7 370.7c-6.6-0.1-13.5-5.7-20-6 6.8-2.2 16.6-0.4 20 6z"/>
		<path id="Layer" class="s3" d="m312.2 355q1.3-0.4 2.6-0.7 1.3-0.2 2.6-0.3 1.3-0.1 2.6 0 1.4 0.1 2.7 0.3 1.3 0.2 2.6 0.5 1.3 0.3 2.5 0.7 1.3 0.3 2.6 0.7 1.2 0.4 2.5 0.9c-0.4-2.3-2.2-4-3.9-5.5q-0.5-0.5-1-0.9-0.5-0.4-1-0.8-0.5-0.4-1-0.8-0.6-0.3-1.1-0.7-0.6-0.3-1.2-0.6-0.5-0.3-1.2-0.4-0.6-0.2-1.2-0.3-0.7-0.1-1.3-0.1-0.8 0.1-1.5 0.3-0.8 0.2-1.5 0.5-0.7 0.4-1.3 0.8-0.6 0.5-1.1 1.1-0.5 0.6-0.9 1.2-0.4 0.6-0.7 1.3-0.3 0.6-0.5 1.3-0.2 0.7-0.2 1.5"/>
		<path id="Layer" class="s6" d="m298.8 347.8c-4.1-3.6-10.4-3.2-15.8-3.1q3.3 1.6 6.5 3.3 3.1 1.7 6.2 3.6 3.1 1.9 6 4 3 2.1 5.8 4.3c0.2-3.8-3.5-7.7-8.7-12.1z"/>
		<path id="Layer" class="s3" d="m298.8 347.8c-4.1-3.6-10.4-3.2-15.8-3.1q3.3 1.6 6.5 3.3 3.1 1.7 6.2 3.6 3.1 1.9 6 4 3 2.1 5.8 4.3c0.2-3.8-3.5-7.7-8.7-12.1z"/>
		<path id="Layer" class="s3" d="m314.1 342.9q0.7-0.5 1.5-1 0.8-0.5 1.6-1 0.8-0.4 1.6-0.8 0.8-0.5 1.6-0.9c2.2-1 4.2-2.5 6.3-3.7q1-0.6 1.9-1.2 1-0.6 1.9-1.3 1-0.7 1.9-1.4 0.9-0.7 1.8-1.4 0.9-0.7 1.9-1.3 1-0.7 2-1.2 1.1-0.5 2.2-0.8 1.1-0.4 2.2-0.6-0.9-0.2-1.9-0.3-0.9 0-1.9 0-0.9 0.1-1.9 0.3-0.9 0.1-1.8 0.4-0.9 0.3-1.8 0.6-0.9 0.3-1.8 0.6-0.9 0.4-1.8 0.8-0.9 0.3-1.7 0.8c-3.2 1.4-6.5 2.9-9.1 5.2-2.6 2.4-5 4.7-4.7 8.2z"/>
		<path id="Layer" class="s1" d="m331.6 370.7l-0.2-0.1-0.5-0.3c-0.5-0.3-1.2-0.7-2.1-1.1q-0.7-0.4-1.5-0.7-0.8-0.4-1.7-0.8-0.5-0.2-1-0.4-0.4-0.2-1-0.4-0.5-0.2-1-0.3-0.5-0.2-1-0.3-0.5-0.2-1-0.2-0.5-0.1-1.1-0.1-0.5-0.1-1 0-0.6 0-1.1 0.2-0.2 0-0.4 0.1-0.3 0-0.5 0.1-0.2 0.1-0.4 0.1-0.2 0.1-0.4 0.2-0.5 0.2-0.9 0.4-0.5 0.2-0.9 0.5-0.4 0.3-0.8 0.6-0.4 0.4-0.7 0.7c-0.4 0.4-0.5 0.7-0.6 0.7q0-0.1 0.2-0.2 0-0.1 0-0.2 0.1 0 0.1-0.1 0.1-0.1 0.1-0.1 0.1-0.1 0.1-0.1 0.2-0.3 0.4-0.5 0.3-0.2 0.5-0.4 0.2-0.2 0.4-0.4 0.3-0.1 0.5-0.3 0.2-0.1 0.4-0.2 0.1-0.1 0.3-0.2 0.2-0.1 0.4-0.2 0.2-0.1 0.4-0.2 0.2-0.1 0.4-0.1 0.2-0.1 0.5-0.2 0.2-0.1 0.4-0.1 0.2-0.1 0.5-0.1 0.5-0.2 1-0.2 0.6-0.1 1.1-0.1 0.6 0 1.1 0.1 0.5 0.1 1.1 0.2 0.5 0.2 1 0.3 0.5 0.2 1 0.4 0.5 0.2 1 0.4 0.5 0.2 1 0.4 0.9 0.4 1.7 0.8 0.8 0.4 1.5 0.7c0.9 0.5 1.6 0.9 2 1.2l0.6 0.3q0 0 0 0.1 0 0 0.1 0 0 0 0 0 0 0 0 0.1z"/>
		<path id="Layer" class="s1" d="m304.8 367.4q0 0 0.1 0 0 0 0.1 0.1 0.1 0 0.1 0 0.1 0 0.1 0 0.1 0.1 0.3 0.1 0.1 0.1 0.2 0.2 0.2 0 0.3 0.1 0.1 0 0.3 0.1 0.8 0.4 1.6 1 0.8 0.5 1.5 1.2 0.7 0.7 1.3 1.4 0.6 0.8 1 1.6 0.1 0.2 0.2 0.3 0 0.1 0.1 0.2 0.1 0.2 0.1 0.3 0.1 0.1 0.1 0.3 0.1 0 0.1 0 0 0.1 0 0.2 0 0 0 0.1 0.1 0 0.1 0.1c0 0-0.3-0.6-0.8-1.4q-0.3-0.4-0.5-0.8-0.3-0.4-0.6-0.8-0.3-0.3-0.6-0.7-0.3-0.3-0.7-0.7-0.3-0.3-0.7-0.6-0.3-0.3-0.7-0.6-0.4-0.3-0.8-0.5-0.4-0.3-0.8-0.5c-0.9-0.4-1.4-0.6-1.4-0.7z"/>
		<path id="Layer" class="s1" d="m290.3 347.4l0.3 0.1 0.8 0.3 1.2 0.4c0.5 0.2 1 0.5 1.6 0.7q1.2 0.6 2.3 1.2 1.1 0.6 2.2 1.3 1 0.7 2 1.4 1.1 0.8 2 1.6 0.6 0.4 1.1 0.9 0.5 0.5 1 1 0.5 0.4 1 1 0.5 0.5 0.9 1 0.4 0.4 0.8 0.8 0.3 0.5 0.7 0.9 0.3 0.5 0.7 0.9 0.3 0.5 0.6 0.9c0.8 1.1 1.4 2 1.7 2.6q0.3 0.4 0.5 0.7 0 0 0 0.1 0.1 0 0.1 0 0 0.1 0 0.1 0 0 0 0c0 0.1 0 0-0.1-0.2l-0.5-0.7c-0.4-0.6-1-1.4-1.8-2.5q-0.3-0.4-0.7-0.9-0.3-0.4-0.7-0.9-0.3-0.4-0.7-0.8-0.4-0.5-0.7-0.9-0.5-0.5-1-1-0.5-0.5-1-1-0.5-0.5-1-0.9-0.5-0.5-1-1-1-0.8-2-1.5-1-0.8-2.1-1.4-1-0.7-2.1-1.3-1.1-0.7-2.3-1.2c-0.6-0.3-1.1-0.5-1.5-0.7l-1.3-0.5-0.7-0.4z"/>
		<path id="Layer" class="s1" d="m322 351.3q-0.1 0-0.1 0-0.1 0-0.2 0 0 0-0.1 0-0.1-0.1-0.1-0.1l-0.6-0.1c-0.3 0-0.5 0-0.8-0.1q-0.6 0-1.2 0-0.6 0.1-1.1 0.2-0.6 0.1-1.2 0.3-0.5 0.2-1 0.4-0.3 0.2-0.6 0.3-0.2 0.2-0.5 0.4-0.3 0.2-0.5 0.4-0.2 0.2-0.5 0.4-0.2 0.2-0.3 0.4-0.2 0.2-0.4 0.4-0.1 0.2-0.3 0.4-0.1 0.2-0.3 0.5-0.1 0.2-0.2 0.4-0.1 0.2-0.3 0.4-0.1 0.2-0.2 0.4-0.1 0.3-0.2 0.5 0-0.1 0-0.1 0.1-0.1 0.1-0.2 0 0 0-0.1 0-0.1 0-0.1 0.1-0.2 0.2-0.4 0.1-0.1 0.1-0.3 0.1-0.1 0.2-0.3 0.1-0.2 0.2-0.3 0.1-0.2 0.3-0.5 0.1-0.2 0.3-0.4 0.1-0.2 0.3-0.4 0.2-0.2 0.4-0.4 0.2-0.2 0.5-0.5 0.2-0.2 0.5-0.4 0.2-0.2 0.5-0.3 0.3-0.2 0.6-0.4 0.5-0.3 1.1-0.4 0.5-0.2 1.1-0.3 0.6-0.2 1.2-0.2 0.6 0 1.2 0.1c0.3 0 0.6 0 0.8 0.1l0.6 0.1q0.1 0.1 0.1 0.1 0.1 0 0.2 0 0 0 0.1 0 0 0.1 0.1 0.1z"/>
		<path id="Layer" class="s1" d="m328.6 330.9q0 0-0.1 0.1 0 0 0 0-0.1 0-0.1 0 0 0.1 0 0.1l-0.8 0.4c-0.6 0.3-1.5 0.8-2.6 1.5-1.1 0.6-2.4 1.4-3.8 2.4q-0.6 0.4-1.1 0.9-0.6 0.4-1.1 0.8-0.5 0.5-1 0.9-0.5 0.5-1 1-0.3 0.2-0.5 0.5-0.2 0.3-0.4 0.6-0.3 0.2-0.5 0.5-0.2 0.3-0.3 0.6-0.7 1.3-1.2 2.4-0.3 0.5-0.5 1-0.3 0.5-0.5 1.1-0.2 0.5-0.4 1-0.3 0.5-0.5 1.1-0.1 0.3-0.2 0.7-0.1 0.3-0.2 0.7-0.2 0.4-0.3 0.7-0.1 0.4-0.1 0.8c-0.2 0.7-0.3 1.1-0.3 1.1q0-0.1 0-0.1 0 0 0-0.1 0 0 0-0.1 0 0 0 0 0-0.3 0.1-0.9 0.1-0.3 0.2-0.7 0.1-0.4 0.2-0.7 0.1-0.4 0.2-0.8 0.1-0.3 0.3-0.7 0.2-0.5 0.4-1.1 0.2-0.5 0.4-1 0.2-0.5 0.5-1 0.2-0.6 0.4-1.1 0.6-1.1 1.2-2.4 0.2-0.3 0.4-0.6 0.2-0.3 0.5-0.6 0.2-0.3 0.4-0.5 0.3-0.3 0.5-0.6 0.5-0.5 1-0.9 0.5-0.5 1.1-0.9 0.5-0.5 1.1-0.9 0.5-0.4 1.1-0.8c1.4-1 2.7-1.8 3.8-2.5 1.1-0.6 2.1-1.1 2.7-1.4l0.8-0.3q0-0.1 0-0.1 0 0 0.1 0 0 0 0-0.1 0.1 0 0.1 0z"/>
		<path id="Layer" class="s1" d="m310.3 350.7q-0.1-0.1-0.1-0.1 0-0.1 0-0.2 0 0 0-0.1-0.1-0.1-0.1-0.1-0.1-0.6-0.3-1.6-0.1-0.6-0.2-1.2-0.1-0.6-0.3-1.2-0.2-0.6-0.3-1.2-0.2-0.7-0.4-1.3-0.2-0.6-0.4-1.2-0.2-0.5-0.5-1.1-0.2-0.6-0.4-1.2-0.3-0.6-0.6-1.2l-0.6-1.4q0 0-0.1-0.1 0-0.1 0-0.1 0-0.1-0.1-0.2 0 0 0-0.1 0 0.1 0.1 0.1 0 0.1 0.1 0.1 0 0.1 0 0.2 0.1 0 0.1 0.1 0.3 0.5 0.7 1.4 0.3 0.5 0.5 1.1 0.3 0.6 0.6 1.2 0.2 0.6 0.4 1.2 0.2 0.6 0.4 1.2 0.2 0.6 0.4 1.2 0.2 0.6 0.3 1.2 0.2 0.6 0.3 1.3 0.1 0.6 0.2 1.2 0.2 1 0.2 1.5 0 0.1 0 0.2 0.1 0.1 0.1 0.1 0 0.1 0 0.2 0 0 0 0.1z"/>
		<path id="Layer" class="s1" d="m309.8 335.8q-0.1-0.9-0.3-1.8-0.1-0.9-0.4-1.8-0.3-0.9-0.6-1.7-0.4-0.9-0.8-1.7-1.2-2.3-2.9-4.2-1.7-1.9-3.7-3.5-2.1-1.5-4.4-2.5-2.3-1.1-4.8-1.6l14.6 21.8 1.9 3.9q0.4-0.8 0.7-1.6 0.4-0.9 0.5-1.7 0.2-0.9 0.3-1.8 0-0.9-0.1-1.8z"/>
		<path id="Layer" class="s3" d="m296.8 378.8h34v6h-34z"/>
		<path id="Layer" class="s3" d="m299.3 383.6l2.9 18.7h22.6l3.4-18.7h-28.9z"/>
		<path id="Layer" class="s1" d="m330.8 384.8c-0.1 0.1-7.7 0.1-17.2 0.1-9.4 0-17.1 0-17.1-0.1 0 0 7.7-0.1 17.1-0.1 9.5 0 17.1 0 17.1 0.1z"/>
	</g>
	<g id="Floor">
		<path id="Layer" class="s7" d="m438.3 403.1c0 0.2-98.2 0.3-219.3 0.3-121.1 0-219.3-0.1-219.3-0.3 0-0.1 98.2-0.2 219.3-0.2 121.1 0 219.3 0.1 219.3 0.2z"/>
	</g>
	<g id="Screen_2">
		<path id="Layer" class="s5" d="m149.8 55.3c0-3.1 2.6-5.7 5.8-5.7h168.1c3.2 0 5.7 2.6 5.7 5.7v124.6c0 3.2-2.5 5.8-5.7 5.8h-168.1c-3.2 0-5.8-2.6-5.8-5.8z"/>
		<path id="Layer" class="s7" d="m323.7 185.7h0.4q0.1 0 0.3-0.1 0.1 0 0.3 0 0.1 0 0.3-0.1 0.1 0 0.2 0 0.6-0.2 1.1-0.5 0.6-0.3 1-0.6 0.5-0.4 0.8-0.9 0.4-0.4 0.7-1 0-0.1 0.1-0.3 0.1-0.2 0.2-0.4 0-0.2 0.1-0.4 0-0.2 0.1-0.4 0-0.2 0-0.4 0-0.3 0.1-0.5 0-0.2 0-0.4 0-0.3 0-0.5 0-1.9 0-4.2c0-3 0-6.5 0-10.4 0-15.8-0.1-38.5-0.1-66.6q0-10.6 0-22.1 0-5.8 0-11.7 0-3 0-6 0-1.5 0-3 0-0.4-0.1-0.8-0.1-0.4-0.2-0.7-0.1-0.4-0.3-0.7-0.2-0.3-0.4-0.6-0.2-0.3-0.4-0.6-0.3-0.3-0.6-0.5-0.2-0.3-0.6-0.5-0.3-0.2-0.6-0.4-0.4-0.1-0.7-0.2-0.4-0.1-0.8-0.2-0.4-0.1-0.7-0.1-0.4 0-0.8 0h-46.6-120.9q-1 0-1.9 0.3-0.9 0.4-1.7 1-0.7 0.6-1.2 1.5-0.5 0.8-0.6 1.7-0.1 0.3-0.1 0.5 0 0.3 0 0.5 0 0.3 0 0.5 0 0.2 0 0.5v52.6c0 20.2 0 39.8 0 58.3v10.4q0 0.4 0 0.8 0 0.5 0 0.9 0 0.4 0 0.8 0 0.4 0.1 0.9 0.1 0.8 0.5 1.5 0.4 0.7 1 1.3 0.5 0.6 1.3 0.9 0.7 0.4 1.5 0.6 0.4 0 0.8 0.1 0.4 0 0.8 0 0.4 0 0.8 0 0.4 0 0.8 0h29 46l66.6 0.1h18.1 4.7 1.6-1.6-4.7l-18.1 0.1-66.6 0.1h-46-29q-0.4 0-0.8 0-0.4 0-0.9 0-0.4 0-0.8-0.1-0.4 0-0.8 0-0.9-0.2-1.7-0.6-0.8-0.5-1.4-1.1-0.6-0.6-1-1.4-0.4-0.8-0.6-1.6-0.1-0.5-0.1-0.9 0-0.4 0-0.9 0-0.4 0-0.8 0-0.5 0-0.9v-10.2c0-18.6 0-38.1 0-58.4q0-15.1 0-30.8v-21.8q0-0.2 0-0.5 0-0.2 0-0.5 0-0.2 0-0.5 0-0.2 0.1-0.5 0.1-0.5 0.2-1 0.2-0.5 0.5-0.9 0.3-0.5 0.6-0.9 0.3-0.4 0.7-0.7 0.4-0.4 0.9-0.6 0.4-0.3 0.9-0.5 0.5-0.2 1.1-0.2 0.5-0.1 1-0.1h120.9 46.6q0.4-0.1 0.8 0 0.4 0 0.8 0.1 0.4 0 0.8 0.2 0.4 0.1 0.7 0.2 0.8 0.4 1.4 0.9 0.6 0.5 1 1.2 0.5 0.7 0.8 1.4 0.2 0.8 0.2 1.6c0 1 0 2 0 3.1v6q0 6 0 11.7 0 11.5 0 22.1c0 28.1 0 50.9 0 66.6q0 5.9 0 10.4 0 2.3 0 4.2 0 0.3 0 0.5 0 0.2 0 0.5-0.1 0.2-0.1 0.4 0 0.2 0 0.5-0.2 0.8-0.6 1.5-0.3 0.7-0.9 1.3-0.5 0.6-1.2 1-0.7 0.4-1.5 0.6-0.1 0.1-0.2 0.1-0.2 0-0.3 0.1-0.2 0-0.3 0-0.2 0-0.3 0-0.1 0-0.2 0.1 0 0-0.1 0 0 0-0.1 0-0.1 0-0.1 0z"/>
		<path id="Layer" class="s1" d="m167.5 62.5c0 1.1-0.6 2-1.5 2.5-0.9 0.4-2 0.2-2.8-0.5-0.7-0.7-0.9-1.8-0.6-2.8 0.4-0.9 1.4-1.5 2.4-1.5q0.5 0 0.9 0.1 0.5 0.2 0.8 0.5 0.4 0.4 0.6 0.8 0.2 0.5 0.2 0.9z"/>
		<path id="Layer" class="s1" d="m175.1 62.5c0 1.1-0.6 2-1.5 2.5-0.9 0.4-2 0.2-2.8-0.5-0.7-0.7-0.9-1.8-0.6-2.8 0.4-0.9 1.3-1.5 2.4-1.5q0.4 0 0.9 0.1 0.5 0.2 0.8 0.5 0.4 0.4 0.6 0.8 0.2 0.5 0.2 0.9z"/>
		<path id="Layer" class="s1" d="m182.7 62.5c0 1.1-0.6 2-1.5 2.5-0.9 0.4-2 0.2-2.8-0.5-0.7-0.7-1-1.8-0.6-2.8 0.4-0.9 1.3-1.5 2.3-1.5q0.5-0.1 1 0.1 0.4 0.2 0.8 0.5 0.3 0.4 0.5 0.8 0.2 0.5 0.3 0.9z"/>
		<path id="Layer" class="s1" d="m320.2 133.8c0 0.1-35.6 0.3-79.4 0.3-43.9 0-79.4-0.2-79.4-0.3 0-0.1 35.5-0.2 79.4-0.2 43.8 0 79.4 0.1 79.4 0.2z"/>
		<path id="Layer" class="s1" d="m320.2 147.1c0 0.2-35.6 0.3-79.4 0.3-43.9 0-79.4-0.1-79.4-0.3 0-0.1 35.5-0.2 79.4-0.2 43.8 0 79.4 0.1 79.4 0.2z"/>
		<path id="Layer" class="s1" d="m320.2 120.5c0 0.1-35.6 0.2-79.4 0.2-43.9 0-79.4-0.1-79.4-0.2 0-0.1 35.5-0.3 79.4-0.3 43.8 0 79.4 0.1 79.4 0.3z"/>
		<path id="Layer" class="s1" d="m320.2 107.2c0 0.1-35.6 0.2-79.4 0.2-43.9 0-79.4-0.1-79.4-0.2 0-0.2 35.5-0.3 79.4-0.3 43.8 0 79.4 0.1 79.4 0.3z"/>
		<path id="Layer" class="s1" d="m320.2 93.9c0 0.1-35.6 0.2-79.4 0.2-43.9 0-79.4-0.1-79.4-0.2 0-0.2 35.5-0.3 79.4-0.3 43.8 0 79.4 0.1 79.4 0.3z"/>
		<path id="Layer" class="s1" d="m178.8 77.9c0.1 0 0.2 18.3 0.2 40.8 0 22.6-0.1 40.9-0.3 40.9-0.1 0-0.2-18.3-0.2-40.9 0-22.5 0.1-40.8 0.2-40.8z"/>
		<path id="Layer" class="s0" d="m178.8 120.7h15.5v38.4h-15.6z"/>
		<path id="Layer" class="s0" d="m211.2 120.3h15.5v38.8h-15.5z"/>
		<path id="Layer" class="s0" d="m244.4 107.5h15.5v52.1h-15.5z"/>
		<path id="Layer" class="s0" d="m276.1 93.6h15.5v65.5h-15.5z"/>
		<path id="Layer" class="s1" d="m195 77.9c0.1 0 0.3 18.3 0.3 40.8 0 22.6-0.2 40.9-0.3 40.9-0.1 0-0.3-18.3-0.3-40.9 0-22.5 0.1-40.8 0.3-40.8z"/>
		<path id="Layer" class="s1" d="m211.2 77.9c0.2 0 0.3 18.3 0.3 40.8 0 22.6-0.1 40.9-0.3 40.9-0.1 0-0.3-18.3-0.3-40.9 0-22.5 0.2-40.8 0.3-40.8z"/>
		<path id="Layer" class="s1" d="m227.4 77.9c0.2 0 0.3 18.3 0.3 40.8 0 22.6-0.1 40.9-0.3 40.9-0.1 0-0.2-18.3-0.2-40.9 0-22.5 0.1-40.8 0.2-40.8z"/>
		<path id="Layer" class="s1" d="m243.7 77.9c0.1 0 0.2 18.3 0.2 40.8 0 22.6-0.1 40.9-0.2 40.9-0.2 0-0.3-18.3-0.3-40.9 0-22.5 0.1-40.8 0.3-40.8z"/>
		<path id="Layer" class="s1" d="m259.9 77.9c0.2 0 0.3 18.3 0.3 40.8 0 22.6-0.1 40.9-0.3 40.9-0.1 0-0.2-18.3-0.2-40.9 0-22.5 0.1-40.8 0.2-40.8z"/>
		<path id="Layer" class="s1" d="m276.1 77.9c0.2 0 0.3 18.3 0.3 40.8 0 22.6-0.1 40.9-0.3 40.9-0.1 0-0.2-18.3-0.2-40.9 0-22.5 0.1-40.8 0.2-40.8z"/>
		<path id="Layer" class="s1" d="m292.4 77.9c0.1 0 0.2 18.3 0.2 40.8 0 22.6-0.1 40.9-0.2 40.9-0.2 0-0.3-18.3-0.3-40.9 0-22.5 0.1-40.8 0.3-40.8z"/>
		<path id="Layer" class="s1" d="m308.6 77.9c0.1 0 0.3 18.3 0.3 40.8 0 22.6-0.2 40.9-0.3 40.9-0.1 0-0.3-18.3-0.3-40.9 0-22.5 0.2-40.8 0.3-40.8z"/>
		<path id="Layer" class="s7" d="m321.1 159.8h-0.6-1.8l-7 0.1-25.8 0.1h-85.1-38.6v-0.2c0-23.9 0.1-44.4 0.1-58.9 0-7.2 0.1-13 0.1-17 0-2 0-3.5 0-4.5q0-0.8 0-1.2 0 0 0-0.1 0 0 0-0.1 0 0 0-0.1 0 0 0-0.1c0 0 0 0.1 0 0.4q0 0.4 0 1.2 0 1.6 0 4.5c0 4 0 9.7 0.1 17 0 14.5 0 35 0.1 58.9l-0.3-0.3h38.4l85 0.1 25.8 0.1 7 0.1h1.8c0.6 0 0.8 0 0.8 0z"/>
		<path id="Layer" class="s8" d="m162.6 144.8l16.2-11 15.8 11.8 16.6-12 31.1 0.2 68.4-45.3"/>
		<path id="Layer" class="s8" d="m306.8 85.2l5.5 6.7 2.3-6.9-7.8 0.2z"/>
		<path id="Layer" class="s7" d="m181 166.4h12c0.3 0 0.6-0.1 0.9-0.3 0.2-0.3 0.3-0.6 0.3-0.9 0-0.4-0.1-0.7-0.3-0.9-0.3-0.2-0.6-0.4-0.9-0.4h-12c-0.3 0-0.6 0.2-0.9 0.4-0.2 0.2-0.3 0.5-0.3 0.9 0 0.3 0.1 0.6 0.3 0.9 0.3 0.2 0.6 0.3 0.9 0.3z"/>
		<path id="Layer" class="s7" d="m213.6 166.4h12c0.3 0 0.6-0.1 0.8-0.3 0.3-0.3 0.4-0.6 0.4-0.9 0-0.4-0.1-0.7-0.4-0.9-0.2-0.2-0.5-0.4-0.8-0.4h-12c-0.4 0-0.7 0.2-0.9 0.4-0.3 0.2-0.4 0.5-0.4 0.9 0 0.3 0.1 0.6 0.4 0.9 0.2 0.2 0.5 0.3 0.9 0.3z"/>
		<path id="Layer" class="s7" d="m246.1 166.4h12c0.4 0 0.7-0.1 0.9-0.3 0.3-0.3 0.4-0.6 0.4-0.9 0-0.4-0.1-0.7-0.4-0.9-0.2-0.2-0.5-0.4-0.9-0.4h-12c-0.3 0-0.6 0.2-0.8 0.4-0.3 0.2-0.4 0.5-0.4 0.9 0 0.3 0.1 0.6 0.4 0.9 0.2 0.2 0.5 0.3 0.8 0.3z"/>
		<path id="Layer" class="s7" d="m278.7 166.4h12c0.4 0 0.7-0.1 0.9-0.3 0.2-0.3 0.4-0.6 0.4-0.9 0-0.4-0.2-0.7-0.4-0.9-0.2-0.2-0.5-0.4-0.9-0.4h-12c-0.3 0-0.6 0.2-0.9 0.4-0.2 0.2-0.3 0.5-0.3 0.9 0 0.3 0.1 0.6 0.3 0.9 0.3 0.2 0.6 0.3 0.9 0.3z"/>
		<path id="Layer" fill-rule="evenodd" class="s9" d="m312 78.6v2.5h-2.2v-2.4q-0.7 0-1.5-0.1-0.7-0.2-1.4-0.4-0.7-0.2-1.4-0.5-0.6-0.4-1.2-0.8l1.2-2.7q0.5 0.4 1 0.6 0.5 0.3 1 0.5 0.6 0.2 1.1 0.3 0.6 0.1 1.2 0.2v-3.7c-2.5-0.6-5.2-1.4-5.2-4.6 0-2.3 1.7-4.4 5.2-4.8v-2.4h2.2v2.4q0.6 0 1.2 0.1 0.6 0.1 1.1 0.3 0.6 0.2 1.1 0.4 0.6 0.3 1.1 0.6l-1.1 2.7q-0.4-0.2-0.8-0.4-0.4-0.2-0.8-0.4-0.5-0.1-0.9-0.2-0.5-0.1-0.9-0.2v3.8c2.5 0.6 5.2 1.4 5.2 4.5-0.1 2.3-1.8 4.3-5.2 4.7zm-2.2-9.8v-3.1c-1.2 0.3-1.6 0.9-1.6 1.6 0 0.8 0.6 1.2 1.6 1.6zm3.8 5.3c0-0.8-0.7-1.2-1.6-1.5v3c1-0.2 1.5-0.8 1.5-1.5z"/>
		<path id="Layer" class="s9" d="m320.2 65.7h1.7v5.7h-1.7z"/>
		<path id="Layer" class="s9" d="m318.2 69.4v-1.7h5.7v1.7z"/>
		<path id="Layer" class="s9" d="m300.6 69.8h1.1v3.8h-1.2z"/>
		<path id="Layer" class="s9" d="m299.2 72.3v-1.2h3.8v1.2z"/>
	</g>
	<g id="Screen_1">
		<path id="Layer" class="s5" d="m100.8 78.9c0-2 1.6-3.7 3.7-3.7h56.2c2 0 3.6 1.7 3.6 3.7v50.5c0 2-1.6 3.7-3.6 3.7h-56.2c-2.1 0-3.7-1.7-3.7-3.7z"/>
		<path id="Layer" class="s1" d="m104.6 75.2h56.3q0.7 0 1.3 0.3 0.7 0.2 1.1 0.7 0.5 0.5 0.8 1.1 0.2 0.7 0.3 1.4v6.4h-63.6v-6.1q0-0.7 0.3-1.4 0.3-0.7 0.8-1.3 0.5-0.5 1.2-0.8 0.7-0.3 1.5-0.3z"/>
		<path id="Layer" class="s5" d="m110 81.1c0 0.6-0.3 1.2-0.9 1.5-0.6 0.3-1.3 0.2-1.7-0.3-0.5-0.4-0.6-1.1-0.4-1.7 0.2-0.6 0.8-1 1.4-1q0.3 0 0.6 0.1 0.3 0.1 0.5 0.3 0.2 0.3 0.4 0.5 0.1 0.3 0.1 0.6z"/>
		<path id="Layer" class="s5" d="m114.2 81.1c0 0.6-0.3 1.2-0.9 1.5-0.6 0.3-1.3 0.2-1.7-0.3-0.5-0.4-0.6-1.1-0.4-1.7 0.2-0.6 0.8-1 1.4-1q0.3 0 0.6 0.1 0.3 0.1 0.5 0.3 0.2 0.3 0.4 0.5 0.1 0.3 0.1 0.6z"/>
		<path id="Layer" class="s5" d="m118.4 81.1c0.1 0.6-0.3 1.2-0.9 1.5-0.5 0.3-1.2 0.2-1.7-0.3-0.5-0.4-0.6-1.1-0.4-1.7 0.3-0.6 0.8-1 1.5-1q0.3 0 0.6 0.1 0.2 0.1 0.5 0.4 0.2 0.2 0.3 0.4 0.1 0.3 0.1 0.6z"/>
		<path id="Layer" class="s5" d="m107.8 90.3v35.3c0-0.3 51.1 0 51.1 0"/>
		<path id="Layer" class="s7" d="m158.9 125.6h-0.9-2.5-9.3-30.6-4.4-2.1-1.1-0.1c0.3 0-0.3-0.1-0.3-0.1v-0.9q0-4.2 0-8.1c0-5.1 0-9.8 0-13.7 0-3.9 0-7.1 0-9.3q0-1.6 0-2.5 0-0.4 0-0.7 0-0.2 0-0.2 0 0.1 0 0.1 0 0 0 0 0 0.1 0 0.1 0 0 0 0 0 0.3 0 0.7 0 0.9 0 2.5c0 2.2 0 5.4 0 9.3 0 3.9 0 8.6 0 13.7q0 3.9 0 8.1v0.9c0.1 0.1-0.5-0.1-0.2-0.1h0.1 0.2 1 2.2 4.4c12 0 22.8 0 30.6 0.1l9.3 0.1h2.5 0.6c0.5 0 0.6 0 0.6 0z"/>
		<path id="Layer" class="s10" d="m113 107.5h10.9v14.2h-10.9z"/>
		<path id="Layer" class="s10" d="m127.8 99.9h10.9v21.8h-10.9z"/>
		<path id="Layer" class="s10" d="m142.6 93.5h10.9v28.2h-10.9z"/>
		<path id="Layer" class="s7" d="m160.7 133.1c0 0 0.2 0 0.6-0.1q0.2 0 0.4-0.1 0.2-0.1 0.4-0.2 0.2-0.1 0.4-0.2 0.2-0.1 0.4-0.2 0.3-0.3 0.5-0.5 0.2-0.3 0.4-0.6 0.2-0.3 0.3-0.7 0.1-0.3 0.2-0.7 0-1.7 0-4c0-6 0-14.6-0.1-25.3 0-5.4 0-11.2 0-17.5v-2.4q0-0.6 0-1.2 0-0.1 0-0.3 0-0.1 0-0.3 0-0.1 0-0.3 0-0.1 0-0.3-0.1-0.6-0.4-1.1-0.3-0.5-0.8-0.9-0.4-0.4-1-0.6-0.6-0.2-1.2-0.3h-56.3q-0.4 0-0.8 0.1-0.3 0.1-0.6 0.2-0.4 0.2-0.7 0.4-0.3 0.2-0.5 0.5-0.3 0.3-0.4 0.6-0.2 0.3-0.3 0.6-0.2 0.4-0.2 0.7-0.1 0.4 0 0.8v17.8c0 7.7 0 15.1 0 22.2q0 5.3 0 10.3 0 0.3 0 0.6 0.1 0.3 0.2 0.6 0.1 0.3 0.3 0.5 0.1 0.3 0.3 0.5 0.2 0.2 0.4 0.4 0.3 0.2 0.5 0.4 0.3 0.1 0.5 0.2 0.3 0.1 0.6 0.2 0.2 0 0.3 0 0.2 0.1 0.3 0.1 0.1 0 0.3 0 0.1 0 0.3 0h3.6 17.5 25.3 6.9 1.8 0.6-0.6-1.8-6.9l-25.3 0.1h-21.1q-0.2 0-0.3 0-0.2 0-0.3 0-0.2 0-0.3-0.1-0.2 0-0.3 0-0.7-0.1-1.2-0.5-0.6-0.3-1-0.8-0.4-0.5-0.7-1.1-0.2-0.6-0.2-1.2 0-5.1 0-10.4c0-7 0-14.5 0-22.2v-17.6q0-0.4 0-0.8 0.1-0.4 0.2-0.7 0.1-0.4 0.3-0.8 0.2-0.3 0.5-0.6 0.3-0.3 0.6-0.5 0.3-0.3 0.7-0.4 0.3-0.2 0.7-0.3 0.4 0 0.8 0h46 10.4q0.6 0 1.2 0.2 0.6 0.3 1.1 0.7 0.5 0.4 0.8 1 0.3 0.5 0.5 1.2 0 0.1 0 0.3 0 0.1 0 0.3 0 0.1 0 0.3 0 0.2 0 0.3v1.2q0 1.2 0 2.4c0 6.3 0 12.1 0 17.5 0 10.7 0 19.3 0 25.3q-0.1 2.3 0 4-0.1 0.4-0.2 0.7-0.1 0.4-0.3 0.7-0.2 0.3-0.4 0.6-0.3 0.3-0.6 0.5-0.2 0.1-0.4 0.3-0.1 0.1-0.4 0.2-0.2 0.1-0.4 0.1-0.2 0.1-0.4 0.1-0.1 0-0.1 0-0.1 0-0.1 0-0.1 0-0.2 0 0 0-0.1 0z"/>
	</g>
	<g id="Speech_Bubble">
		<path id="Layer" class="s5" d="m77.5 182l4-0.1q1 0.7 2 1.4 1.1 0.6 2.2 1.1 1.2 0.5 2.4 0.9 1.2 0.3 2.4 0.6 0.4 0 0.8 0.1 0.4 0 0.8 0.1 0.4 0 0.8 0 0.4 0.1 0.8 0.1 0.8 0 1.6 0l1.8-0.2q0.9-0.1 1.8-0.4 1-0.2 1.8-0.5 0.9-0.3 1.8-0.7 0.9-0.4 1.7-0.8 0.9-0.5 1.8-1.1 0.8-0.6 1.6-1.3 0.8-0.7 1.5-1.5 0.7-0.7 1.4-1.5 0.7-0.9 1.3-1.9 0.6-1 1.1-2 0.4-1 0.8-2.1 0.4-1.1 0.6-2.2 0.3-1.2 0.4-2.4 0.1-1.2 0.1-2.4 0-1.2-0.2-2.4-0.1-1.2-0.4-2.4l-0.2-0.6-0.2-0.6-0.4-1.1c-0.3-0.8-0.7-1.6-1-2.3q-0.3-0.6-0.6-1.1-0.4-0.6-0.8-1.1-0.3-0.5-0.7-1-0.4-0.5-0.9-1-0.8-0.9-1.8-1.8-0.9-0.8-2-1.5-1-0.7-2.1-1.2-1.1-0.6-2.3-1-1.2-0.4-2.3-0.7-1.2-0.3-2.4-0.4-1.2-0.1-2.4-0.1-1.2 0-2.3 0.1-1.2 0.1-2.3 0.4-1.1 0.2-2.1 0.6-1.1 0.4-2.1 0.9-1 0.5-2 1.1-0.9 0.5-1.7 1.2-0.8 0.6-1.6 1.3-0.7 0.7-1.4 1.5-0.7 0.8-1.3 1.6-0.5 0.8-1 1.6-0.5 0.8-0.9 1.7-0.4 0.8-0.7 1.7-0.3 0.9-0.6 1.8-0.2 0.8-0.3 1.6-0.1 0.8-0.2 1.6-0.1 0.8-0.1 1.7 0 0.8 0 1.6 0.1 1.3 0.3 2.5 0.3 1.2 0.6 2.4 0.4 1.2 0.9 2.3 0.6 1.2 1.2 2.2l-0.3 4.3c0 0.5 0 0.8 0 1.1-0.1 0.3 0 0.4 0 0.4h0.3z"/>
		<path id="Layer" class="s10" d="m87.2 161.5h3.7q0-0.6 0.2-1.2 0.3-0.6 0.7-1 0.5-0.5 1.1-0.7 0.6-0.3 1.2-0.3 0.5 0 0.9 0.2 0.5 0.1 0.9 0.3 0.4 0.3 0.7 0.7 0.3 0.3 0.4 0.8 0.2 0.3 0.2 0.7 0.1 0.4 0.1 0.8-0.1 0.4-0.2 0.8-0.1 0.3-0.3 0.7c-0.6 1-2 2-4.6 1.5v8.4h3.7v-4.9q1.2-0.3 2.1-1 1-0.7 1.7-1.6 0.7-1 1.1-2.1 0.3-1.1 0.3-2.3c0-5.4-4.9-6.7-7-6.7-1.6 0-7 0.4-6.9 6.9z"/>
		<path id="Layer" class="s10" d="m92.2 175h3.8v3.5h-3.8z"/>
		<path id="Layer" class="s7" d="m76.1 182.1q0 0 0-0.4c0-0.2 0.1-0.6 0.1-1.1q0.1-1.5 0.3-4.3 0 0 0 0 0 0 0 0 0-0.1 0.1-0.1 0 0 0 0l-0.1 0.1q-0.7-1-1.2-2.2-0.5-1.1-0.9-2.3-0.4-1.2-0.6-2.4-0.3-1.3-0.3-2.5-0.1-0.8-0.1-1.7 0-0.8 0.1-1.6 0.1-0.8 0.2-1.6 0.2-0.9 0.4-1.7 0.2-0.9 0.5-1.7 0.4-0.9 0.8-1.8 0.4-0.8 0.8-1.6 0.5-0.8 1.1-1.6 0.6-0.9 1.2-1.6 0.7-0.8 1.5-1.5 0.7-0.7 1.5-1.4 0.9-0.6 1.8-1.1 0.9-0.6 1.9-1.1 1-0.5 2.1-0.9 1.1-0.3 2.1-0.6 1.1-0.2 2.3-0.4 1.1-0.1 2.3-0.1 1.2 0 2.4 0.1 1.2 0.2 2.4 0.4 1.2 0.3 2.3 0.7 1.2 0.4 2.3 1 1.1 0.6 2.2 1.3 1 0.7 1.9 1.5 1 0.8 1.8 1.7 0.5 0.5 0.9 1 0.4 0.5 0.8 1 0.3 0.5 0.7 1.1 0.3 0.5 0.6 1.1c0.4 0.8 0.8 1.5 1 2.3l0.5 1.2 0.1 0.6 0.2 0.6q0.3 1.1 0.4 2.3 0.2 1.2 0.2 2.5 0 1.2-0.1 2.4-0.1 1.2-0.4 2.3-0.2 1.2-0.6 2.2-0.3 1.1-0.8 2.1-0.5 1.1-1.1 2-0.6 1-1.3 1.9-0.7 0.8-1.4 1.6-0.7 0.7-1.5 1.4-0.8 0.7-1.6 1.3-0.9 0.6-1.8 1.1-0.8 0.5-1.7 0.9-0.8 0.3-1.7 0.7-0.9 0.3-1.8 0.5-1 0.2-1.9 0.3l-1.7 0.2c-0.6 0.1-1.2 0-1.7 0q-0.4 0-0.8 0-0.4 0-0.8-0.1-0.4 0-0.8-0.1-0.4 0-0.8-0.1-1.2-0.2-2.4-0.6-1.2-0.4-2.3-0.9-1.2-0.5-2.2-1.1-1.1-0.7-2.1-1.5l-4 0.2h-1q0 0-0.1 0 0 0-0.1 0 0 0 0 0-0.1 0-0.1 0h0.3l1-0.1 4-0.2h0.1q1 0.7 2 1.4 1.1 0.6 2.3 1.1 1.1 0.5 2.3 0.8 1.2 0.4 2.4 0.6 0.4 0.1 0.8 0.1 0.4 0.1 0.7 0.1 0.4 0.1 0.8 0.1 0.4 0 0.8 0 0.8 0 1.7 0l1.7-0.2q0.9-0.1 1.8-0.3 0.9-0.3 1.8-0.6 0.9-0.3 1.7-0.6 0.9-0.4 1.7-0.9 0.9-0.5 1.7-1.1 0.9-0.6 1.6-1.3 0.8-0.6 1.5-1.4 0.7-0.7 1.4-1.5 0.7-0.9 1.2-1.9 0.6-0.9 1.1-1.9 0.5-1 0.8-2.1 0.4-1.1 0.6-2.1 0.3-1.2 0.4-2.4 0.1-1.2 0.1-2.4 0-1.1-0.2-2.3-0.1-1.2-0.4-2.3l-0.2-0.6-0.2-0.6-0.4-1.2c-0.3-0.8-0.6-1.5-1-2.2q-0.3-0.6-0.6-1.1-0.3-0.6-0.7-1.1-0.4-0.5-0.8-1-0.4-0.5-0.8-0.9-0.8-0.9-1.7-1.7-1-0.8-2-1.5-1-0.7-2.1-1.3-1.1-0.5-2.3-0.9-1.1-0.4-2.2-0.7-1.2-0.3-2.3-0.4-1.2-0.1-2.4-0.1-1.2 0-2.3 0.1-1.1 0.1-2.2 0.3-1.1 0.3-2.1 0.7-1.1 0.3-2.1 0.8-1 0.5-1.9 1.1-0.9 0.5-1.7 1.1-0.8 0.6-1.6 1.3-0.7 0.7-1.4 1.5-0.7 0.7-1.3 1.6-0.5 0.7-1 1.5-0.5 0.8-0.9 1.6-0.4 0.9-0.7 1.7-0.3 0.9-0.5 1.8-0.2 0.8-0.4 1.6-0.1 0.8-0.2 1.6-0.1 0.8-0.1 1.6 0 0.8 0 1.6 0.1 1.3 0.3 2.5 0.2 1.2 0.6 2.4 0.4 1.2 0.9 2.3 0.5 1.2 1.1 2.2 0.1 0 0.1 0.1 0 0 0 0 0 0 0 0 0 0-0.1 0 0 0 0 0.1 0 0 0 0 0 0 0 0 0-0.1-0.1-0.1h0.2q-0.3 2.8-0.4 4.2-0.1 0.8-0.1 1.1c-0.1 0.3-0.1 0.5-0.1 0.5z"/>
	</g>
	<g id="Chair">
		<path id="Layer" class="s1" d="m232.6 332h9.3v50.2h-9.3z"/>
		<path id="Layer" class="s7" d="m203.7 323.9c0.1 0 28.9 9 28.9 9h9.3l33-9z"/>
		<path id="Layer" class="s1" d="m197.5 402.5c0 0 4.4-13.2 10.4-16.4 9.6-5.2 31.8-7.7 31.8-7.7l2.4 6.3c0 0-29.6 1.2-34.2 7.2q-1 1.2-2 2.5-1 1.4-1.9 2.7-0.9 1.3-1.8 2.7-0.9 1.4-1.8 2.7z"/>
		<path id="Layer" class="s7" d="m207.4 401.8c0.7 2.8-0.6 5.6-3 7-2.5 1.3-5.6 0.9-7.5-1.1-2-2-2.5-5-1.1-7.5 1.4-2.4 4.2-3.7 6.9-3.1q0.9 0.3 1.7 0.7 0.7 0.4 1.4 1 0.6 0.6 1 1.4 0.4 0.8 0.6 1.6z"/>
		<path id="Layer" class="s1" d="m277.7 402.3c0 0-4.3-13.3-10.3-16.5-9.7-5.2-31.8-7.6-31.8-7.6l-2.5 6.3c0 0 29.6 1.1 34.3 7.1q1 1.3 1.9 2.6 1 1.3 1.9 2.6 0.9 1.4 1.8 2.7 0.9 1.4 1.8 2.8z"/>
		<path id="Layer" class="s7" d="m269.4 401.8c-0.3 1.1-0.3 2.2 0 3.2 0.3 1 0.9 2 1.6 2.7 0.8 0.8 1.7 1.3 2.8 1.6 1 0.3 2.1 0.3 3.1 0.1q0.9-0.2 1.6-0.6 0.8-0.4 1.4-1.1 0.7-0.6 1.1-1.4 0.4-0.7 0.6-1.6c0.4-1.6 0.2-3.4-0.7-4.9-0.8-1.4-2.3-2.5-3.9-2.9-1.7-0.4-3.4-0.1-4.9 0.9-1.4 0.9-2.4 2.4-2.7 4z"/>
		<path id="Layer" class="s1" d="m234.1 381.8l1.4 17.1 3.9 0.7v-17.8"/>
		<path id="Layer" class="s7" d="m231.3 401.8c-0.3 1.1-0.2 2.2 0.1 3.2 0.2 1 0.8 2 1.6 2.7 0.7 0.8 1.6 1.3 2.7 1.6 1 0.3 2.1 0.3 3.1 0.1q0.9-0.2 1.7-0.6 0.7-0.4 1.3-1.1 0.7-0.6 1.1-1.4 0.4-0.7 0.6-1.6c0.5-1.6 0.2-3.4-0.7-4.9-0.8-1.4-2.3-2.5-3.9-2.9-1.7-0.4-3.4-0.1-4.9 0.9-1.4 0.9-2.4 2.4-2.7 4z"/>
		<path id="Layer" class="s7" d="m241.7 333.1q-1.1 0.1-2.2 0.2-1.2 0-2.3 0-1.1 0-2.2 0-1.2-0.1-2.3-0.2 1.1-0.1 2.3-0.1 1.1-0.1 2.2-0.1 1.1 0 2.3 0.1 1.1 0 2.2 0.1z"/>
		<path id="Layer" class="s7" d="m241.9 377q-1 0.6-2.2 0.9-1.1 0.3-2.3 0.3-1.1 0.1-2.3-0.2-1.1-0.2-2.2-0.8 0.6 0.2 1.1 0.3 0.6 0.1 1.2 0.2 0.5 0.1 1.1 0.1 0.6 0 1.1 0.1 0.6-0.1 1.2-0.2 0.5 0 1.1-0.1 0.6-0.2 1.1-0.3 0.6-0.1 1.1-0.3z"/>
		<path id="Layer" class="s6" d="m228.8 199.3h41.9c7 0 12.8 2 12.8 10.7v111.9l-67.4-4.8v-107.1c0-8.7 5.7-10.7 12.7-10.7z"/>
		<path id="Layer" class="s6" d="m185.5 319.9c0-2.9 2.4-5.3 5.3-5.3h87.4c3 0 5.4 2.4 5.4 5.3v1.3c0 3-2.4 5.4-5.4 5.4h-87.4c-2.9 0-5.3-2.4-5.3-5.4z"/>
		<path id="Layer" class="s7" d="m274.1 314.7c0 0.1-16.6 0.3-36.9 0.3-20.4 0-36.9-0.2-36.9-0.3 0-0.1 16.5-0.3 36.9-0.3 20.4 0 36.9 0.2 36.9 0.3z"/>
		<path id="Layer" class="s7" d="m274.1 314.6c-0.2 0-0.3-23.2-0.3-51.8 0-28.6 0.1-51.8 0.3-51.8 0.1 0 0.2 23.2 0.2 51.8 0 28.6-0.1 51.8-0.2 51.8z"/>
	</g>
	<g id="Character_2">
		<path id="Layer" class="s7" d="m413.3 115.8q-1-2.3-2.6-4.4-1.5-2.1-3.4-3.8-2-1.7-4.3-3-2.2-1.2-4.7-1.9c-3.9-1.1-5.8-0.7-8.8-0.7q-1.1 0-2.2 0.2-1.1 0.1-2.2 0.5-1 0.3-2 0.9-1 0.5-1.9 1.2-1 0.8-2 1.8-0.9 0.9-1.8 2-0.8 1.1-1.5 2.2-0.7 1.2-1.2 2.4-0.5 1.2-0.8 2.4-0.4 1.3-0.7 2.5-0.2 1.3-0.4 2.5-0.1 1.3-0.2 2.6 0 1.7 0.2 3.3 0.1 1.7 0.4 3.3 0.3 1.6 0.7 3.2 0.4 1.6 0.9 3.2l5.9 2.3c4.9 1.5 10 3 15.1 3.1 5.1 0.2 10.6-1.2 14.3-4.7 5.2-4.9 6.1-14.5 3.2-21.1z"/>
		<path id="Layer" class="s11" d="m405.2 113.7l-10.7-8-3.3-0.5c-7.1-1.9-14 4.7-15.6 10.4-1.7 6.4-3.6 14.2-3.8 19.1-0.5 10 7.4 13 7.4 13 0 0-1.5 5-2.4 8.1l18.8 3.5 12-41.6q0.1-0.6 0-1.3-0.1-0.6-0.4-1.2-0.3-0.5-0.8-0.9-0.5-0.4-1.2-0.6z"/>
		<path id="Layer" class="s12" d="m386.5 136.3q0.1-0.5-0.1-1-0.2-0.5-0.7-0.9-0.4-0.3-0.9-0.4-0.6-0.1-1.1 0.1-0.3 0.1-0.6 0.4-0.3 0.2-0.6 0.5-0.2 0.3-0.3 0.7-0.2 0.3-0.2 0.7 0.1 0.2 0.2 0.5 0.2 0.2 0.4 0.4 0.2 0.2 0.4 0.4 0.2 0.1 0.5 0.2l0.3 0.1q0.2 0.1 0.5 0.1 0.2 0 0.4 0 0.2-0.1 0.4-0.1 0.2-0.1 0.4-0.2 0.2-0.1 0.4-0.3 0.2-0.1 0.3-0.3 0.1-0.2 0.2-0.4 0.1-0.3 0.1-0.5z"/>
		<path id="Layer" class="s7" d="m376 124.7q-0.1 0.2 0 0.5 0 0.2 0.2 0.4 0.1 0.2 0.3 0.4 0.2 0.1 0.4 0.2 0.3 0 0.5 0 0.3 0 0.5-0.1 0.2-0.2 0.3-0.4 0.2-0.1 0.2-0.4 0.1-0.2 0.1-0.5-0.1-0.2-0.2-0.4-0.2-0.2-0.4-0.4-0.2-0.1-0.4-0.2-0.2 0-0.5 0-0.2 0-0.4 0.1-0.2 0.1-0.4 0.3-0.1 0.2-0.2 0.5z"/>
		<path id="Layer" class="s7" d="m376.9 119.4c0.2 0.2 1.2-0.3 2.6 0 1.3 0.3 2.1 1.1 2.3 1 0.2-0.2 0-0.4-0.4-0.8q-0.1-0.2-0.4-0.4-0.2-0.1-0.4-0.2-0.2-0.2-0.5-0.3-0.2 0-0.5-0.1-0.3-0.1-0.5-0.1-0.3 0-0.5 0-0.3 0.1-0.6 0.1-0.2 0.1-0.5 0.2c-0.4 0.2-0.6 0.5-0.6 0.6z"/>
		<path id="Layer" class="s7" d="m382.6 131.9q-0.2-0.1-0.4-0.2-0.3-0.2-0.6-0.3-0.2-0.1-0.5-0.2-0.3 0-0.5-0.1c-0.4-0.1-0.7-0.3-0.7-0.5q0-0.1 0.1-0.3 0-0.1 0-0.2 0.1-0.2 0.2-0.3 0.1-0.1 0.1-0.2l1.6-2.4q0.5-0.7 1-1.5 0.5-0.8 0.9-1.6 0.5-0.8 0.9-1.6 0.5-0.8 0.9-1.6-0.6 0.7-1.2 1.4-0.5 0.8-1 1.5-0.6 0.8-1.1 1.5-0.4 0.8-0.9 1.6c-0.5 0.8-1 1.6-1.5 2.4q-0.1 0.1-0.2 0.3-0.1 0.1-0.2 0.3 0 0.2 0 0.4-0.1 0.1-0.1 0.3 0.1 0.1 0.1 0.2 0 0.1 0.1 0.2 0.1 0 0.1 0.1 0.1 0.1 0.2 0.1 0.1 0.1 0.1 0.1 0.1 0 0.2 0 0 0.1 0.1 0.1 0.1 0 0.2 0 0.2 0.1 0.5 0.2 0.3 0.1 0.5 0.1 0.3 0.1 0.6 0.2 0.3 0 0.5 0z"/>
		<path id="Layer" class="s12" d="m379.2 147.7q1.7 0.3 3.4 0.5 1.7 0.1 3.4 0 1.8-0.1 3.5-0.4 1.7-0.4 3.3-0.9c1.1-0.4-4.8 6-14.3 3.1z"/>
		<path id="Layer" class="s7" d="m377.6 115.3c0.2 0.3 1.3 0.3 2.4 0.7 1.2 0.3 2.1 0.8 2.4 0.6 0.2-0.1 0.1-0.5-0.2-0.9q-0.2-0.2-0.4-0.3-0.2-0.2-0.4-0.3-0.3-0.2-0.5-0.3-0.3-0.1-0.5-0.2-0.3 0-0.5-0.1-0.3 0-0.6 0-0.2 0-0.5 0-0.2 0.1-0.5 0.1c-0.5 0.2-0.7 0.5-0.7 0.7z"/>
		<path id="Layer" class="s7" d="m389.6 128q-0.1 0.2-0.2 0.5-0.1 0.2-0.3 0.3-0.3 0.1-0.5 0.2-0.3 0-0.5 0-0.2 0-0.5-0.2-0.2-0.1-0.3-0.3-0.1-0.2-0.2-0.4 0-0.3 0-0.5 0.1-0.3 0.2-0.5 0.1-0.2 0.4-0.3 0.2-0.1 0.4-0.2 0.2 0 0.5 0 0.2 0.1 0.4 0.2 0.2 0.1 0.4 0.3 0.1 0.2 0.2 0.4 0 0.3 0 0.5z"/>
		<path id="Layer" class="s7" d="m394.9 123.6c-0.2 0.1-1-0.8-2.3-1.2-1.3-0.3-2.5 0.2-2.6 0-0.1-0.2 0.2-0.4 0.7-0.6q0.2-0.1 0.5-0.1 0.3-0.1 0.5-0.1 0.3 0 0.6 0 0.2 0 0.5 0.1 0.2 0.1 0.5 0.2 0.2 0.1 0.5 0.2 0.2 0.1 0.4 0.3 0.2 0.2 0.4 0.4c0.3 0.4 0.4 0.7 0.3 0.8z"/>
		<path id="Layer" class="s7" d="m393.9 118.5c-0.3 0.3-1.3-0.3-2.5-0.6-1.2-0.2-2.3-0.3-2.5-0.7-0.1-0.1 0.2-0.4 0.7-0.6q0.2 0 0.5-0.1 0.3 0 0.6 0 0.2 0 0.5 0 0.3 0.1 0.5 0.1 0.3 0.1 0.6 0.2 0.2 0.1 0.4 0.2 0.3 0.2 0.5 0.3 0.2 0.2 0.4 0.4c0.4 0.4 0.5 0.7 0.3 0.8z"/>
		<path id="Layer" class="s11" d="m401.7 133.3c0.1-0.7 1.3-2.2 2.1-2.2 2 0.1 5.3 1 4.3 5.8-1.3 6.6-7.6 3.9-7.6 3.7 0-0.2 0.7-4.8 1.2-7.3z"/>
		<path id="Layer" class="s12" d="m402.8 138.6c0 0 0.1 0.1 0.3 0.2q0.1 0.1 0.2 0.1 0.1 0.1 0.2 0.1 0.1 0 0.2 0 0.1 0 0.2 0 0.4-0.1 0.7-0.4 0.3-0.2 0.6-0.5 0.2-0.3 0.4-0.7 0.1-0.3 0.2-0.7 0-0.2 0-0.4 0.1-0.2 0.1-0.5 0-0.2-0.1-0.4 0-0.2 0-0.4 0-0.2-0.1-0.3-0.1-0.2-0.1-0.3-0.1-0.2-0.2-0.3-0.2-0.1-0.3-0.2-0.1 0-0.2 0-0.1 0-0.2 0-0.1 0-0.2 0.1-0.1 0-0.2 0.1c-0.1 0.2-0.1 0.3-0.1 0.3 0 0-0.1-0.1 0-0.4q0 0 0.1-0.1 0 0 0-0.1 0.1 0 0.1-0.1 0.1 0 0.1 0 0.1-0.1 0.2-0.1 0.1 0 0.2 0 0.1 0 0.1 0 0.1 0 0.2 0.1 0.2 0.1 0.4 0.2 0.1 0.1 0.3 0.3 0.1 0.1 0.2 0.3 0.1 0.2 0.1 0.4 0.1 0.3 0.1 0.5 0 0.3 0 0.5 0 0.2 0 0.5 0 0.2-0.1 0.5-0.1 0.4-0.2 0.8-0.2 0.4-0.5 0.8-0.3 0.3-0.7 0.5-0.4 0.3-0.8 0.4-0.2 0-0.3 0-0.1-0.1-0.3-0.1-0.1-0.1-0.2-0.1-0.1-0.1-0.2-0.2c-0.2-0.3-0.2-0.4-0.2-0.4z"/>
		<path id="Layer" class="s7" d="m404 131.2l-2.1 1.3c-9.4-8.8-16.9-29.5-14.2-28.3q1.3-0.1 2.6-0.1 1.4 0.1 2.7 0.3 1.3 0.2 2.6 0.5 1.3 0.4 2.5 0.9c5.1 2.3 14.5 7.6 12.6 13.8-1.8 6.2-6.7 11.6-6.7 11.6z"/>
		<path id="Layer" class="s7" d="m411.7 105.2c-2.9 1.1-5.9 5.1-5.3 8-0.5 1.4-0.6 3-0.4 4.4 0.3 1.5 0.9 2.9 1.9 4.1 0.9 1.1 2.2 2.1 3.6 2.6 1.4 0.6 2.9 0.8 4.4 0.6q0.7-0.1 1.5-0.4 0.7-0.2 1.4-0.5 0.7-0.4 1.3-0.9 0.6-0.5 1.1-1.1 0.6-0.7 1-1.5 0.5-0.8 0.8-1.7 0.2-0.9 0.4-1.8 0.1-0.9 0.1-1.8 0-1.1-0.3-2.2-0.2-1.2-0.6-2.2-0.5-1.1-1.1-2-0.6-0.9-1.4-1.7-0.9-0.8-1.9-1.3-1-0.6-2.1-0.8-1.1-0.3-2.2-0.2-1.2 0.1-2.2 0.4z"/>
		<path id="Layer" class="s6" d="m407.7 131.8q-0.1 0-0.3-0.1-0.1-0.1-0.3-0.2-0.1-0.1-0.2-0.2-0.2-0.1-0.3-0.2c-0.7-0.5-1.7-1.2-2.9-2.2q-1.2-1-2.3-2-1.1-1-2.1-2.1-1-1.1-2-2.2-1-1.2-1.9-2.4-0.9-1.2-1.7-2.5-0.8-1.3-1.4-2.6-0.7-1.4-1.2-2.8-0.5-1.4-0.9-2.9-0.1-0.4-0.2-0.8-0.1-0.5-0.2-0.9-0.1-0.5-0.2-0.9 0-0.5-0.1-0.9 0-0.2 0-0.4 0-0.1 0-0.3 0-0.2 0-0.3 0-0.2 0-0.4c0.1 0 0.2 1.9 1 4.9q0.4 1.4 1 2.8 0.5 1.3 1.2 2.7 0.7 1.3 1.5 2.6 0.7 1.2 1.6 2.4 0.9 1.2 1.9 2.4 0.9 1.1 1.9 2.2 1.1 1.1 2.1 2.1 1.1 1 2.2 2c1.2 1 2.2 1.8 2.8 2.4q0.1 0.1 0.3 0.2 0.1 0.1 0.2 0.2 0.2 0.1 0.3 0.2 0.1 0.1 0.2 0.2z"/>
		<path id="Layer" class="s6" d="m414.4 127.9c-0.1 0 0-1.3 0-3.3q-0.1-1-0.2-2-0.1-0.9-0.2-1.9-0.2-1-0.4-1.9-0.3-1-0.6-1.9-0.3-0.9-0.7-1.8-0.4-0.9-0.8-1.8-0.5-0.9-1-1.7-0.5-0.8-1.1-1.6c-1.2-1.7-2.1-2.5-2-2.6 0.1-0.1 0.3 0.2 0.7 0.6q0.2 0.2 0.4 0.4 0.2 0.2 0.4 0.4 0.2 0.3 0.4 0.5 0.2 0.2 0.4 0.4 1.3 1.6 2.2 3.4 1 1.7 1.6 3.6 0.6 1.9 0.9 3.9 0.3 2 0.3 4 0 0.3 0 0.6 0 0.3 0 0.6-0.1 0.3-0.1 0.6-0.1 0.3-0.1 0.6 0 0.1 0 0.2 0 0.1 0 0.2-0.1 0.1-0.1 0.2 0 0.2 0 0.3z"/>
		<path id="Layer" class="s7" d="m404.7 142c-0.2 1-1 1.8-2 2-0.9 0.3-2-0.1-2.6-1-0.6-0.8-0.6-1.9 0-2.8 0.5-0.8 1.5-1.3 2.5-1.1q0.5 0.1 0.9 0.3 0.5 0.3 0.7 0.7 0.3 0.4 0.4 0.9 0.2 0.5 0.1 1z"/>
		<path id="Layer" class="s7" d="m358.3 387.2l1.7 18.3c0 0-19.9 7.4-20.2 11.1l37.8 0.1v-2.7l-1.6-9.4-2.3-18.3z"/>
		<path id="Layer" class="s6" d="m377.6 416.7v-2.7l-36.2 0.7c0 0-1.7 0.7-1.5 2z"/>
		<path id="Layer" class="s6" d="m359.4 405.3c0 0.2 1 0.3 1.9 0.9 0.9 0.6 1.3 1.4 1.6 1.3 0.3-0.2-0.1-1.2-1.3-1.9-1.1-0.7-2.2-0.5-2.2-0.3z"/>
		<path id="Layer" class="s6" d="m355.4 407c0 0.2 0.7 0.5 1.4 1.3 0.6 0.8 0.7 1.6 1 1.6 0.3 0 0.3-1-0.5-2-0.9-0.9-1.9-1.1-1.9-0.9z"/>
		<path id="Layer" class="s6" d="m353.1 411.8c0.1 0 0.4-0.9-0.1-1.9-0.5-1-1.4-1.5-1.4-1.3-0.1 0.2 0.5 0.8 0.8 1.6 0.4 0.7 0.5 1.6 0.7 1.6z"/>
		<path id="Layer" class="s7" d="m358.1 400.9c0 0.2 0.9-0.1 2 0 1 0.1 1.9 0.4 2 0.2 0.1-0.1-0.7-0.8-2-0.9-1.2 0-2.1 0.5-2 0.7z"/>
		<path id="Layer" class="s7" d="m404.6 387.7l1.7 18c0 0-19.7 7.2-19.9 10.8l37 0.3v-2.7l-1.5-9.2-2.1-18z"/>
		<path id="Layer" class="s6" d="m423.4 416.8v-2.7l-35.5 0.5c0 0-1.7 0.7-1.5 1.9z"/>
		<path id="Layer" class="s6" d="m405.6 405.5c0 0.2 1 0.3 1.9 0.9 0.9 0.6 1.4 1.3 1.5 1.3 0.2-0.1-0.1-1.2-1.2-1.9-1.1-0.7-2.2-0.5-2.2-0.3z"/>
		<path id="Layer" class="s6" d="m401.7 407.1c0 0.2 0.7 0.5 1.4 1.3 0.6 0.8 0.8 1.6 1 1.6 0.2 0 0.3-1-0.5-2-0.8-0.9-1.9-1-1.9-0.9z"/>
		<path id="Layer" class="s6" d="m399.4 411.9c0.2 0 0.4-0.9-0.1-1.9-0.4-1-1.3-1.4-1.4-1.3-0.1 0.2 0.5 0.7 0.9 1.6 0.3 0.8 0.4 1.6 0.6 1.6z"/>
		<path id="Layer" class="s7" d="m404.4 401.2c0 0.1 0.9-0.1 2 0 1 0.1 1.8 0.4 2 0.2 0.1-0.1-0.7-0.8-2-0.9-1.2 0-2.1 0.5-2 0.7z"/>
		<path id="Layer" class="s7" d="m357.5 227.9c0 0-9 25.9-9.3 45.2-0.3 19.3 3.1 45.5 7.2 79.3 4 33.8 2.1 51.8 2.1 51.8h20.3q0.5-5 0.9-10 0.3-5 0.5-10 0.3-5.1 0.4-10.1 0.1-5 0.1-10c-0.3-19-1.8-25 0-45.8 1.8-20.9 4.7-33.4 7.7-39.7 0 0 8.4-10 9-23.7q0.1-3.3-0.1-6.5-0.2-3.2-0.8-6.5-0.5-3.2-1.3-6.3-0.9-3.1-2-6.2z"/>
		<path id="Layer" class="s7" d="m375.6 264.3c0.3 1 4.5 41.1 10.8 59.3 6 17.5 7.5 26.8 10.1 41.8 3.3 18.8 5.8 38.8 5.8 38.8h21.7c0 0-3.1-32.4-6.1-57.7-3.1-25.4-7.5-56.6-6.8-65.9 0.7-9.4 2.4-21 0-34.1-2.3-13.1-7.5-16.6-7.5-16.6l-18.4-0.8z"/>
		<path id="Layer" class="s6" d="m396 240q0 0.1 0.1 0.2 0 0 0.1 0.1 0 0.1 0.1 0.2 0 0.1 0 0.1 0.2 0.3 0.3 0.5 0.1 0.3 0.1 0.5 0.1 0.3 0.2 0.5 0.1 0.3 0.2 0.5 0.2 1 0.4 2 0.1 0.9 0.2 1.9 0.1 1 0.1 2 0 0.9 0 1.9-0.1 1.5-0.2 2.9-0.2 1.4-0.4 2.9-0.2 1.4-0.5 2.8-0.3 1.4-0.7 2.8-0.2 0.8-0.5 1.7-0.2 0.8-0.5 1.6-0.3 0.8-0.7 1.6-0.3 0.8-0.7 1.5-0.4 0.9-0.8 1.7-0.5 0.8-1 1.5-0.5 0.8-1 1.6-0.5 0.7-1.1 1.5c-2.9 4-4.4 8.6-5.5 12.8q-0.3 1.4-0.6 2.8-0.3 1.4-0.6 2.9-0.2 1.4-0.5 2.8-0.2 1.4-0.3 2.9c-0.4 3.2-0.7 5.9-0.9 7.7q-0.1 1.3-0.2 2.1 0 0.1 0 0.2 0 0.1 0 0.2 0 0.1 0 0.1-0.1 0.1-0.1 0.2 0-0.1 0-0.2 0 0 0-0.1 0-0.1 0-0.2 0-0.1 0-0.2c0-0.5 0.1-1.2 0.2-2.1 0.1-1.9 0.3-4.5 0.6-7.8q0.2-1.4 0.4-2.9 0.2-1.4 0.4-2.8 0.3-1.4 0.6-2.9 0.3-1.4 0.6-2.8 0.2-0.8 0.5-1.6 0.2-0.9 0.5-1.7 0.2-0.8 0.5-1.6 0.3-0.8 0.6-1.6 0.2-0.4 0.3-0.9 0.2-0.4 0.4-0.8 0.2-0.4 0.4-0.8 0.2-0.4 0.4-0.8 0.2-0.4 0.5-0.8 0.2-0.4 0.5-0.8 0.2-0.4 0.5-0.8 0.2-0.4 0.5-0.8 0.5-0.7 1.1-1.5 0.5-0.7 1-1.5 0.5-0.8 0.9-1.6 0.5-0.7 0.9-1.6 0.4-0.7 0.7-1.5 0.3-0.8 0.6-1.6 0.3-0.8 0.6-1.6 0.2-0.8 0.4-1.6 0.4-1.4 0.7-2.8 0.4-1.4 0.6-2.8 0.2-1.4 0.4-2.9 0.1-1.4 0.2-2.8 0.1-1 0.1-2 0-0.9-0.1-1.9-0.1-1-0.2-1.9-0.1-1-0.3-1.9-0.1-0.3-0.2-0.5-0.1-0.3-0.1-0.5-0.1-0.3-0.2-0.5-0.1-0.3-0.2-0.5 0-0.1-0.1-0.2 0-0.1-0.1-0.2 0 0 0-0.1-0.1-0.1-0.1-0.2z"/>
		<path id="Layer" class="s9" d="m398.5 155.6l-19.2-2.6c0 0-17.7 19.9-21.5 39-1.6 7.6-0.6 23-0.6 23-3 18.9-7.9 41.1-7.9 41.1l45.6-0.9v-10l2.5 9.4 15.3-4.7-9.9-31.6c0.1 0.3 6.1-20.9 8.2-29.5q0.7-2.9 1.1-5.9 0.5-3 0.8-6 0.2-3.1 0.3-6.1 0.1-3 0-6c-0.2-2-9.6-8.3-14.7-9.2z"/>
		<path id="Layer" class="s9" d="m315.9 173.2q-0.1-0.5-0.2-1-0.1-0.5-0.3-1-0.2-0.5-0.4-1-0.3-0.4-0.5-0.9c-1.1-1.5-8.3-7.1-13.6-9.6-5.3-2.6-6.2-2.9-6.8-1.4-0.6 1.5 1.7 2.6 4.4 4.2q0.5 0.3 1 0.6 0.6 0.3 1.1 0.6 0.5 0.3 0.9 0.7 0.5 0.3 1 0.6c0.3 0.3-3.1 1-2.3 4 0 0-2.9 3-0.3 5.2 0 0-1.8 1.1 0.2 3.5l9.6 4.4c0.1 0 5 8.1 5 8.1 0 0 7.1-6.9 7.1-6.7z"/>
		<path id="Layer" class="s9" d="m319.1 175.4c0.1 0.3 17.5 15.8 17.5 15.8 0 0 13-15.7 17.3-21.3 4.3-5.5 10.7-13.1 16-14.8 5.3-1.7 12.6 1.5 12.6 1.5l-8.9 22.2-11.2 15c0 0-13 16.4-18.9 19.5-5.4 3-12.1-0.1-15-2.6-2.8-2.6-20.2-25.3-20.2-25.3z"/>
		<path id="Layer" class="s9" d="m410.5 162c0 0 6.6 4.9 7.2 9.8 0.6 4.1 3.7 30.7 5.2 41q0.2 1.6 0.1 3.2 0 1.6-0.5 3.1-0.4 1.6-1.1 3-0.7 1.4-1.7 2.7c-2.6 3.1-6.5 5.3-11.8 1.6-3.7-2.6-13-13-13-13l15.3-48.1"/>
		<path id="Layer" class="s9" d="m399.2 218.9q-0.4 0-0.7-0.1-0.4 0-0.8-0.1-0.4 0-0.8-0.1-0.4 0-0.7-0.1c-1.9-0.3-4.5-0.6-7.4-0.9-2.8-0.3-5.4-0.5-7.3-0.6q-0.4-0.1-0.8-0.1-0.4 0-0.7 0-0.4-0.1-0.8-0.1-0.4-0.1-0.7-0.1 0.1 0 0.2-0.1 0.1 0 0.2 0 0.1 0 0.2 0 0.1 0 0.2 0 0.8 0 2.2 0c1.9 0 4.6 0.2 7.4 0.5 2.9 0.3 5.5 0.7 7.4 1.1q1.4 0.2 2.2 0.4 0.1 0 0.2 0.1 0.1 0 0.2 0 0.1 0.1 0.1 0.1 0.1 0 0.2 0.1z"/>
		<path id="Layer" class="s9" d="m406.8 231.5q-0.1-0.1-0.1-0.2-0.1-0.1-0.1-0.2-0.1-0.1-0.1-0.2 0-0.2-0.1-0.3-0.3-1-0.8-2.7c-0.8-2.3-1.8-5.6-3-9.5v-0.1c1.2-4.4 2.6-9.6 4.2-15.2 2.3-7.8 4.3-14.9 5.8-20.1 0.7-2.5 1.3-4.6 1.8-6.1q0.3-1 0.5-1.6 0-0.1 0-0.2 0.1 0 0.1-0.1 0-0.1 0-0.1 0.1-0.1 0.1-0.2 0 0.1 0 0.2 0 0.1 0 0.1 0 0.1-0.1 0.2 0 0 0 0.1-0.2 0.7-0.4 1.7c-0.4 1.5-1 3.6-1.7 6.1-1.4 5.2-3.4 12.3-5.6 20.1l-4.3 15.2v-0.1l2.8 9.6 0.7 2.7q0.1 0.1 0.1 0.2 0 0.1 0.1 0.3 0 0.1 0 0.2 0.1 0.1 0.1 0.2z"/>
		<path id="Layer" class="s9" d="m376 155.3c0.3-0.2 3.3-3.3 5.7-3.6q1.7-0.1 3.4-0.1 1.6-0.1 3.3-0.1 1.7 0 3.4 0.1 1.7 0 3.3 0.1 0.5 0.1 0.9 0.1 0.4 0.1 0.8 0.2 0.4 0.1 0.8 0.3 0.4 0.2 0.8 0.4l3.3 4.7z"/>
		<path id="Layer" class="s9" d="m377.1 170.6q-0.1-2-0.5-3.9-0.5-2-1.2-3.9-0.8-1.8-2-3.5-1.1-1.6-2.5-3 0.3 0.1 0.5 0.3 0.3 0.2 0.5 0.4 0.2 0.2 0.4 0.4 0.2 0.2 0.4 0.4 0.5 0.5 0.9 1.1 0.5 0.6 0.9 1.2 0.4 0.6 0.7 1.2 0.3 0.7 0.6 1.4 0.3 0.6 0.5 1.3 0.3 0.7 0.4 1.4 0.2 0.7 0.3 1.4 0.1 0.7 0.2 1.4 0 0.3 0 0.6 0 0.3 0 0.6 0 0.3 0 0.6-0.1 0.3-0.2 0.6z"/>
		<path id="Layer" class="s9" d="m401 157.1q-0.4 0-0.9 0-0.4 0-0.9 0-0.4 0-0.9-0.1-0.4 0-0.9-0.1l-8.6-0.6c-3.4-0.3-6.4-0.6-8.6-0.8-1.1-0.2-2-0.3-2.6-0.4q-0.1 0-0.3 0-0.1 0-0.2-0.1-0.1 0-0.2 0-0.1-0.1-0.3-0.1 0.5 0 0.9 0 0.5 0 0.9 0.1 0.5 0 0.9 0 0.5 0.1 0.9 0.1l8.6 0.7c3.4 0.2 6.5 0.5 8.7 0.8 1.1 0.1 2 0.2 2.6 0.3q0.1 0 0.2 0.1 0.1 0 0.2 0 0.2 0 0.3 0.1 0.1 0 0.2 0z"/>
		<path id="Layer" class="s7" d="m381.5 136.5c0.1-0.2 1.6 0.3 3.1-0.6 1.6-0.9 2-2.5 2.2-2.5 0.2 0.1 0.2 0.5-0.1 1.2q-0.1 0.3-0.3 0.6-0.1 0.3-0.3 0.6-0.3 0.3-0.5 0.5-0.3 0.2-0.6 0.4-0.3 0.2-0.6 0.3-0.3 0.1-0.6 0.2-0.4 0-0.7 0-0.3 0-0.7-0.1c-0.6-0.2-0.9-0.5-0.9-0.6z"/>
		<path id="Layer" class="s7" d="m371.5 183c0.1 0.1-3.2 4.3-7.5 9.4-4.2 5.1-7.8 9.2-7.9 9-0.1-0.1 3.3-4.2 7.5-9.3 4.3-5.1 7.8-9.2 7.9-9.1z"/>
	</g>
	<g id="Desk">
		<path id="Layer" class="s1" d="m117.6 199.6c0-2.2 1.9-4 4.1-4h72.2c2.3 0 4.1 1.8 4.1 4v52.5c0 2.3-1.8 4.1-4.1 4.1h-72.2c-2.2 0-4.1-1.8-4.1-4.1z"/>
		<path id="Layer" class="s7" d="m193.9 256.2c0 0 0.2 0 0.7-0.1q0.3 0 0.5-0.1 0.2-0.1 0.5-0.2 0.2-0.1 0.4-0.2 0.3-0.2 0.5-0.3 0.3-0.3 0.5-0.6 0.3-0.4 0.5-0.7 0.2-0.4 0.3-0.8 0.1-0.4 0.1-0.8 0-2 0-4.7c0-7 0-17-0.1-29.4q0-4.7 0-9.8v-5.2q0-1.3 0-2.7c0-0.4 0-0.9 0-1.3q0-0.2 0-0.3 0-0.2-0.1-0.3 0-0.2-0.1-0.4 0-0.1-0.1-0.3-0.1-0.3-0.3-0.5-0.2-0.3-0.4-0.6-0.3-0.2-0.5-0.4-0.3-0.2-0.6-0.3-0.1-0.1-0.3-0.2-0.1-0.1-0.3-0.1-0.2-0.1-0.3-0.1-0.2 0-0.4 0-0.1-0.1-0.3-0.1-0.2 0-0.4 0-0.1 0-0.3 0-0.2 0-0.3 0.1h-71.4q-0.4-0.1-0.8 0-0.4 0.1-0.8 0.3-0.4 0.2-0.8 0.4-0.3 0.3-0.6 0.6-0.1 0.2-0.2 0.4-0.1 0.1-0.2 0.3-0.1 0.2-0.2 0.4-0.1 0.2-0.2 0.4 0 0.2 0 0.4-0.1 0.2-0.1 0.5 0 0.2 0 0.4 0 0.2 0 0.4v20.6q0 13.5 0 25.9v4.5q0 0.2 0 0.4 0 0.2 0 0.4 0 0.2 0 0.4 0 0.1 0.1 0.3 0.1 0.7 0.4 1.3 0.4 0.7 1 1.1 0.5 0.5 1.2 0.7 0.7 0.2 1.4 0.2h11.4 20.3 29.5 8 2.1 0.7q0 0-0.7 0h-2.1-8l-29.5 0.1h-20.3-11.4q-0.7 0-1.5-0.2-0.7-0.3-1.3-0.7-0.6-0.5-1-1.2-0.4-0.7-0.6-1.4 0-0.2 0-0.4 0-0.2 0-0.4 0-0.2 0-0.4 0-0.2 0-0.4v-4.6c0-8.2 0-16.8 0-25.8v-20.4q0-0.2 0-0.5 0-0.2 0-0.4 0-0.2 0-0.5 0.1-0.2 0.1-0.4 0.1-0.2 0.2-0.4 0.1-0.3 0.2-0.5 0.1-0.2 0.2-0.4 0.1-0.2 0.3-0.3 0.3-0.4 0.7-0.7 0.3-0.2 0.7-0.4 0.5-0.2 0.9-0.3 0.5-0.1 1-0.1h71.2q0.2-0.1 0.4-0.1 0.1 0 0.3 0 0.2 0 0.4 0 0.2 0 0.3 0.1 0.2 0 0.4 0 0.2 0.1 0.3 0.1 0.2 0.1 0.4 0.1 0.2 0.1 0.3 0.2 0.3 0.2 0.6 0.4 0.3 0.2 0.6 0.5 0.2 0.2 0.4 0.5 0.2 0.3 0.3 0.6 0.1 0.2 0.2 0.4 0 0.1 0.1 0.3 0 0.2 0.1 0.4 0 0.1 0 0.3c0 0.5 0 0.9 0 1.4v7.8q0 5.1 0 9.8c0 12.4-0.1 22.5-0.1 29.5q0 2.6 0 4.6 0 0.7-0.3 1.3-0.2 0.7-0.7 1.2-0.5 0.5-1.1 0.9-0.6 0.3-1.3 0.4-0.1 0-0.1 0-0.1 0-0.2 0 0 0-0.1 0-0.1 0-0.1 0z"/>
		<path id="Layer" class="s1" d="m164.5 242.4l-4 25.3h15.3v2.1h-36l5.3-27.4h19.4z"/>
		<path id="Layer" class="s7" d="m164.5 242.4h-0.4-1-3.8-14.2l0.2-0.1c-1.5 7.5-3.3 17-5.3 27.5l-0.2-0.2h36l-0.1 0.1v-2.1l0.1 0.2h-15.2-0.2v-0.2l2.9-18.4c0.4-2.2 0.7-3.9 0.9-5.1 0-0.5 0.1-1 0.2-1.3l0.1-0.5q0 0-0.1 0.5-0.1 0.4-0.2 1.3c-0.2 1.2-0.4 2.9-0.7 5.1l-2.8 18.5-0.2-0.2h15.3 0.1v2.5h-36.3v-0.2c2.1-10.5 3.9-19.9 5.4-27.4v-0.1h0.1 14.2 3.8 1.3z"/>
		<g id="Layer" style="opacity: .3">
			<path id="Layer" class="s13" d="m160.3 269.8l0.2-2.1h15.3v2.1h-15.5z"/>
		</g>
		<g id="Layer" style="opacity: .3">
			<path id="Layer" class="s13" d="m164.5 242.4l3.9 13.8h-6.1l2.2-13.8z"/>
		</g>
		<path id="Layer" class="s7" d="m195.3 254.4c-0.2 0-0.3-12.7-0.3-28.2 0-15.5 0.1-28.1 0.3-28.1 0.1 0 0.2 12.6 0.2 28.1 0 15.6-0.1 28.2-0.2 28.2z"/>
		<path id="Layer" class="s14" d="m331.4 280.9h7.8v132h-7.8z"/>
		<path id="Layer" class="s14" d="m339.2 412.9q0-0.1 0-0.7 0-0.7 0-2 0-2.7 0-7.7c0-6.6 0-16.2-0.1-28.1 0-23.8 0-56.7-0.1-93.5l0.3 0.2h-7.8l0.3-0.2c0 61.7-0.1 114-0.2 132l-0.1-0.1 5.8 0.1h1.5 0.5-0.5-1.4-5.9-0.1v-0.1c-0.1-18-0.2-70.3-0.2-132v-0.3h8.3v0.3c0 36.8 0 69.8-0.1 93.7 0 11.8 0 21.4-0.1 28q0 5 0 7.6 0 1.3 0 2c0 0.5-0.1 0.8-0.1 0.8z"/>
		<path id="Layer" class="s14" d="m261.8 280.9h7.7v132h-7.7z"/>
		<path id="Layer" class="s14" d="m269.5 412.9q0-0.1 0-0.7 0-0.7 0-2 0-2.7 0-7.7c0-6.6 0-16.2-0.1-28.1 0-23.8 0-56.7-0.1-93.5l0.3 0.2h-7.8l0.3-0.2c0 61.7-0.1 114-0.2 132l-0.1-0.1 5.9 0.1h1.3 0.5-0.5-1.4-5.9-0.1v-0.1c-0.1-18-0.1-70.3-0.1-132v-0.3h8.3v0.3c0 36.8-0.1 69.8-0.1 93.7 0 11.8-0.1 21.4-0.1 28q0 5 0 7.6 0 1.3 0 2c0 0.5-0.1 0.8-0.1 0.8z"/>
		<path id="Layer" class="s14" d="m128.7 280.9h7.8v132h-7.8z"/>
		<path id="Layer" class="s14" d="m136.4 412.9q0-0.1 0-0.7 0-0.7 0-2 0-2.7 0-7.7c0-6.6 0-16.2 0-28.1 0-23.8-0.1-56.7-0.1-93.5l0.2 0.2h-7.8l0.3-0.2c0 61.7-0.1 114-0.2 132l-0.1-0.1 5.9 0.1h1.4 0.5-0.5-1.4-5.9-0.1v-0.1c-0.1-18-0.2-70.3-0.2-132v-0.3h8.3v0.3c0 36.8 0 69.8-0.1 93.7 0 11.8 0 21.4 0 28q0 5 0 7.6 0 1.3 0 2c0 0.5-0.2 0.8-0.2 0.8z"/>
		<path id="Layer" class="s14" d="m185.7 280.9h7.8v132h-7.8z"/>
		<path id="Layer" class="s14" d="m193.5 412.9q0-0.1 0-0.7 0-0.7 0-2 0-2.7 0-7.7c0-6.6 0-16.2-0.1-28.1 0-23.8 0-56.7-0.1-93.5l0.3 0.2h-7.8l0.3-0.2c0 61.7-0.1 114-0.2 132l-0.1-0.1 5.8 0.1h1.4 0.5-0.5-1.4-5.9-0.1v-0.1c-0.1-18-0.2-70.3-0.2-132v-0.3h8.3v0.3c0 36.8 0 69.8-0.1 93.7 0 11.8 0 21.4 0 28q0 5 0 7.6 0 1.3 0 2c0 0.5-0.1 0.8-0.1 0.8z"/>
		<path id="Layer" class="s14" d="m96.1 270h256.2v10.9h-256.2z"/>
		<g id="Layer" style="opacity: .3">
			<path id="Layer" class="s14" d="m252.6 269.9l99.7 0.1v10.9h-99.7z"/>
		</g>
		<path id="Layer" class="s14" d="m252.8 281.2q-0.1-1.4-0.2-2.8 0-1.4 0-2.7 0-1.4 0-2.8 0.1-1.4 0.2-2.7 0.2 1.3 0.2 2.7 0.1 1.4 0.1 2.8 0 1.3-0.1 2.7 0 1.4-0.2 2.8z"/>
		<path id="Layer" class="s15" d="m238.6 265.2h71.3v4.8h-71.3z"/>
		<path id="Layer" class="s5" d="m239.6 265.9l70.3 0.1v3.3h-70.3z"/>
		<g id="Layer" style="opacity: .3">
			<path id="Layer" class="s13" d="m309.9 270h-42.9v-4.8h42.9z"/>
		</g>
		<path id="Layer" class="s15" d="m238.6 253.2h71.3v4.8h-71.3z"/>
		<path id="Layer" class="s5" d="m239.6 253.9h70.3v3.3h-70.3z"/>
		<g id="Layer" style="opacity: .3">
			<path id="Layer" class="s13" d="m309.9 257.9h-42.9v-4.7h42.9z"/>
		</g>
		<path id="Layer" class="s7" d="m240.7 258.6h71.4v6.6h-71.4z"/>
		<path id="Layer" class="s5" d="m241.8 259.6h70.3v4.6h-70.3z"/>
		<g id="Layer" style="opacity: .3">
			<path id="Layer" class="s13" d="m312.1 265.2h-42.9v-6.6h42.9z"/>
		</g>
		<path id="Layer" class="s7" d="m311.9 261c0 0.1-15.7 0.3-35 0.3-19.3 0-35-0.2-35-0.3 0-0.1 15.7-0.3 35-0.3 19.3 0 35 0.1 35 0.3z"/>
		<path id="Layer" class="s7" d="m311.9 262.9c0 0.1-15.7 0.2-35 0.2-19.3 0-35-0.1-35-0.2 0-0.2 15.7-0.3 35-0.3 19.3 0 35 0.1 35 0.3z"/>
	</g>
	<g id="Character_1">
		<path id="Layer" class="s7" d="m34.9 208.2q-0.8-1.3-1.6-2.6-0.7-1.3-1.4-2.7-0.7-1.3-1.3-2.7-0.7-1.4-1.3-2.8-0.5-1.4-0.9-2.9-0.4-1.5-0.6-3-0.3-1.5-0.3-3.1 0-1.5 0.2-3c0-0.6 1-4.8 1.6-4.9 0.4 0 0.1 3.7 0.4 4.1q1.1 1.1 1.9 2.5 0.9 1.3 1.5 2.8 0.6 1.4 1 2.9 0.4 1.6 0.6 3.1 0.2 1.6 0.3 3.1 0.1 1.5 0.2 3 0 1.6-0.1 3.1 0 1.5-0.1 3.1"/>
		<path id="Layer" class="s11" d="m40.2 229.3l-8.3-36c-2.5-9.9 0.3-19.7 10.3-22l1-0.2c2.3-0.4 4.5-0.3 6.7 0.1 2.2 0.5 4.3 1.3 6.2 2.6 1.9 1.2 3.5 2.8 4.8 4.6 1.4 1.8 2.3 3.9 2.9 6.1 2.1 8.6 4.4 18.2 5.2 22.9 1.5 9.7-7.9 12.8-7.9 12.8 0 0 1.7 6.9 2.3 9.7 0 0-0.9 0.9-9.8 2.9-8.9 2-13.4-3.5-13.4-3.5z"/>
		<path id="Layer" class="s12" d="m61.1 220.2q-1.7 0.3-3.4 0.3-1.7 0-3.3-0.2-1.7-0.2-3.4-0.6-1.6-0.4-3.1-1.1c-1.1-0.5 4.2 6.5 13.7 4z"/>
		<path id="Layer" class="s7" d="m62.5 194.1q0.1 0.2 0 0.5 0 0.3-0.2 0.5-0.2 0.2-0.4 0.4-0.2 0.1-0.5 0.2-0.2 0-0.5 0-0.3 0-0.5-0.2-0.2-0.1-0.4-0.3-0.1-0.3-0.2-0.5-0.1-0.3 0-0.6 0.1-0.2 0.2-0.5 0.2-0.2 0.4-0.3 0.2-0.2 0.5-0.2 0.3-0.1 0.5-0.1 0.3 0.1 0.5 0.2 0.2 0.2 0.4 0.4 0.2 0.2 0.2 0.5z"/>
		<path id="Layer" class="s7" d="m62.3 190.3c-0.1 0.2-1.3-0.4-2.8-0.2-1.5 0.3-2.4 1.2-2.6 1-0.2-0.2 0-0.4 0.4-0.8q0.2-0.2 0.5-0.4 0.2-0.2 0.5-0.3 0.2-0.1 0.5-0.2 0.3-0.1 0.6-0.1 0.3-0.1 0.6-0.1 0.3 0 0.6 0.1 0.2 0 0.5 0.1 0.3 0.1 0.6 0.2c0.5 0.2 0.7 0.5 0.6 0.6z"/>
		<path id="Layer" class="s7" d="m50.8 197.2q0 0.2 0 0.5-0.1 0.3-0.2 0.5-0.2 0.2-0.4 0.4-0.3 0.1-0.5 0.2-0.3 0-0.5 0-0.3 0-0.5-0.2-0.3-0.1-0.4-0.3-0.2-0.3-0.2-0.5-0.1-0.3 0-0.6 0-0.2 0.2-0.5 0.1-0.2 0.3-0.3 0.3-0.2 0.5-0.2 0.3-0.1 0.6-0.1 0.2 0.1 0.5 0.2 0.2 0.2 0.4 0.4 0.1 0.2 0.2 0.5z"/>
		<path id="Layer" class="s7" d="m48.8 193c-0.1 0.2-1.3-0.4-2.8-0.1-1.4 0.2-2.4 1.1-2.6 1-0.2-0.2 0-0.4 0.5-0.9q0.2-0.2 0.4-0.3 0.2-0.2 0.5-0.3 0.3-0.2 0.6-0.3 0.2 0 0.5-0.1 0.3 0 0.6 0 0.3 0 0.6 0 0.3 0 0.5 0.1 0.3 0.1 0.6 0.3c0.5 0.2 0.7 0.5 0.6 0.6z"/>
		<path id="Layer" class="s7" d="m55.5 203.6q0.2-0.2 0.5-0.3 0.3-0.1 0.6-0.2 0.3-0.1 0.6-0.2 0.3-0.1 0.6-0.2c0.4-0.1 0.7-0.2 0.7-0.5q0-0.1 0-0.3 0-0.1-0.1-0.2-0.1-0.2-0.1-0.3-0.1-0.1-0.2-0.2l-1.6-2.7c-2.2-3.9-3.9-7-3.8-7.2 0.2-0.1 2.1 3 4.4 6.8q0.8 1.5 1.5 2.8 0.1 0.1 0.2 0.3 0.1 0.1 0.2 0.3 0 0.2 0.1 0.4 0 0.2 0 0.4-0.1 0.1-0.1 0.2-0.1 0.1-0.1 0.2-0.1 0.1-0.2 0.1-0.1 0.1-0.2 0.2 0 0-0.1 0-0.1 0.1-0.2 0.1 0 0-0.1 0-0.1 0-0.2 0.1-0.3 0.1-0.6 0.1-0.3 0.1-0.6 0.1-0.3 0.1-0.6 0.1-0.3 0.1-0.6 0.1z"/>
		<path id="Layer" class="s7" d="m48 187.3c0 0.4-1.4 0.7-3 1.5-1.6 0.8-2.8 1.7-3.1 1.5-0.2-0.1-0.1-0.6 0.3-1.2q0.2-0.2 0.5-0.5 0.2-0.2 0.5-0.4 0.2-0.2 0.5-0.4 0.3-0.2 0.6-0.3 0.3-0.2 0.6-0.3 0.4-0.1 0.7-0.2 0.3-0.1 0.7-0.1 0.3-0.1 0.6-0.1c0.7 0.1 1.1 0.3 1.1 0.4z"/>
		<path id="Layer" class="s7" d="m61.9 185c-0.2 0.4-1.4 0.4-2.9 0.8-1.4 0.3-2.5 0.9-2.8 0.6-0.2-0.1-0.1-0.5 0.3-1q0.5-0.4 1-0.7 0.6-0.3 1.2-0.4 0.6-0.2 1.2-0.2 0.6 0 1.2 0.2c0.6 0.2 0.9 0.5 0.8 0.7z"/>
		<path id="Layer" class="s11" d="m33.9 200.2c-0.1 0-7-0.9-5.6 5.7 1.3 6.6 7.6 3.9 7.6 3.7 0-0.2-2-9.4-2-9.4z"/>
		<path id="Layer" class="s12" d="m33.3 207.6c0 0-0.1 0.1-0.3 0.2q-0.1 0.1-0.2 0.1-0.1 0-0.2 0.1-0.1 0-0.2 0-0.1 0-0.2 0-0.4-0.1-0.7-0.4-0.3-0.2-0.6-0.5-0.2-0.3-0.4-0.7-0.1-0.3-0.2-0.7 0-0.2 0-0.4-0.1-0.2-0.1-0.4 0-0.3 0.1-0.5 0-0.2 0-0.4 0.1-0.1 0.1-0.3 0.1-0.1 0.1-0.3 0.1-0.1 0.2-0.2 0.2-0.1 0.3-0.2 0.1 0 0.2-0.1 0.1 0 0.2 0.1 0.1 0 0.2 0 0.1 0.1 0.1 0.2c0.2 0.1 0.1 0.3 0.2 0.3 0 0 0.1-0.1 0-0.4q0-0.1-0.1-0.1 0-0.1 0-0.1-0.1-0.1-0.1-0.1-0.1 0-0.2-0.1 0 0-0.1 0-0.1 0-0.2 0-0.1 0-0.2 0 0 0-0.1 0-0.2 0.1-0.4 0.2-0.2 0.2-0.3 0.3-0.1 0.2-0.2 0.4-0.1 0.2-0.1 0.4-0.1 0.2-0.1 0.5 0 0.2 0 0.4 0 0.3 0 0.5 0 0.3 0.1 0.5 0 0.4 0.2 0.8 0.2 0.4 0.5 0.8 0.3 0.3 0.7 0.5 0.4 0.3 0.8 0.4 0.2 0 0.3 0 0.1 0 0.3-0.1 0.1 0 0.2-0.1 0.1-0.1 0.2-0.2c0.2-0.3 0.2-0.4 0.2-0.4z"/>
		<path id="Layer" class="s7" d="m57.3 174.7c0.9-0.8-3-3.6-5.9-4.2-4.3-1-10.5-0.8-14 1-4.1 2.1-7.2 5.1-8.6 9.5q-0.5 1.7-0.7 3.4-0.3 1.7-0.3 3.5 0 1.7 0.2 3.5 0.2 1.7 0.7 3.4 0.1 0.5 0.2 1 0.2 0.5 0.4 1 0.2 0.5 0.5 0.9 0.3 0.5 0.6 0.9c1.3 1.3 3.2 1.8 3.5 3.8q0.1 0.3 0.2 0.5 0.1 0.3 0.2 0.5 0.2 0.3 0.3 0.5 0.2 0.2 0.4 0.4c1.5 1 2.7-0.5 3.2-1.9 0.9-2.8 0.4-6-0.1-8.9q-0.1-0.8-0.3-1.6-0.1-0.8-0.3-1.5-0.2-0.8-0.5-1.6-0.3-0.7-0.6-1.4c-0.6-1-1.3-2-1.8-3q-0.3-0.5-0.5-1-0.1-0.5-0.1-1.1 0-0.5 0.2-1 0.2-0.5 0.6-0.9 0.5-0.8 1.3-1.4 0.7-0.5 1.6-0.9 0.8-0.3 1.7-0.5 1-0.1 1.9 0c4 0.6 10.7 1.2 12-0.4q0.4-0.4 0.8-0.8 0.3-0.4 0.6-0.9 0.3-0.4 0.5-0.9 0.3-0.5 0.4-1z"/>
		<path id="Layer" class="s7" d="m57.2 207.4c0 0.1-0.3 0.4-1 0.6q-0.3 0.1-0.6 0.1-0.3 0.1-0.7 0.1-0.3 0-0.6-0.1-0.3 0-0.7-0.1-0.3-0.1-0.6-0.2-0.3-0.2-0.6-0.3-0.3-0.2-0.5-0.4-0.3-0.2-0.5-0.4c-0.5-0.5-0.6-0.9-0.5-1 0.1-0.1 1.2 1 3 1.4 1.7 0.4 3.2 0.1 3.3 0.3z"/>
		<path id="Layer" class="s7" d="m147.6 388.9l-0.8 21.1c0.1 0 21.2 7.4 21.4 11.3l-41 0.5-0.2-33z"/>
		<path id="Layer" class="s6" d="m127.3 421.9v-2.6l39.9 0.5q0.3 0.2 0.5 0.4 0.3 0.2 0.4 0.5 0.2 0.2 0.4 0.5 0.1 0.3 0.2 0.6z"/>
		<path id="Layer" class="s6" d="m147.2 410.2c0 0.2-1 0.3-2 0.9-1 0.7-1.5 1.5-1.7 1.4-0.2 0 0.1-1.2 1.3-2 1.2-0.7 2.5-0.5 2.4-0.3z"/>
		<path id="Layer" class="s6" d="m151.6 412c0 0.2-0.9 0.5-1.5 1.4-0.7 0.8-0.9 1.7-1.1 1.7-0.2 0-0.4-1.1 0.5-2.2 0.9-1 2.1-1.1 2.1-0.9z"/>
		<path id="Layer" class="s6" d="m154 417.1c-0.2 0-0.5-1 0.1-2 0.5-1.1 1.4-1.6 1.5-1.4 0.1 0.2-0.5 0.8-0.9 1.7-0.4 0.9-0.5 1.7-0.7 1.7z"/>
		<path id="Layer" class="s6" d="m146.8 405.3c0 0.2-1-0.1-2.1 0-1.2 0.1-2 0.4-2.1 0.3-0.2-0.2 0.7-0.9 2.1-1 1.3-0.1 2.3 0.5 2.1 0.7z"/>
		<path id="Layer" class="s7" d="m165.3 349.7l9 16.9c0 0 19.9-3.8 21.9-0.8l-31.9 19-15.1-25.8z"/>
		<path id="Layer" class="s6" d="m164.4 384.8l-1.3-2.1 31.3-17.8q0.3 0 0.6 0.1 0.3 0.1 0.5 0.2 0.3 0.1 0.5 0.3 0.2 0.1 0.4 0.4z"/>
		<path id="Layer" class="s6" d="m174.7 366.6c0.1 0.1-0.7 0.6-1.2 1.6-0.5 1-0.5 1.9-0.7 1.9-0.2 0-0.4-1 0.2-2.2 0.6-1.2 1.6-1.5 1.7-1.4z"/>
		<path id="Layer" class="s6" d="m178.9 366c0.1 0.1-0.4 0.8-0.6 1.8-0.1 1 0.1 1.8 0 1.8-0.2 0.1-0.8-0.7-0.6-2 0.2-1.2 1.1-1.8 1.2-1.6z"/>
		<path id="Layer" class="s6" d="m183.2 368.9c-0.2 0.1-0.8-0.5-0.9-1.6-0.1-1.1 0.4-1.9 0.6-1.8 0.1 0.1 0 0.8 0 1.7 0.1 0.9 0.4 1.6 0.3 1.7z"/>
		<path id="Layer" class="s6" d="m172.2 362.9c0 0.2-0.9 0.4-1.7 1-0.9 0.6-1.4 1.3-1.6 1.2-0.1-0.1 0.2-1 1.2-1.7 1-0.7 2.1-0.7 2.1-0.5z"/>
		<path id="Layer" class="s7" d="m36.4 316.6c0-0.4 0.1-0.7 0.1-0.7z"/>
		<path id="Layer" class="s7" d="m35.8 316.6l47.1-17.6c0 0 27.8-13 37.9-15.8 10.9-3 20.4 1.4 26.4 14 4.1 8.6 27.5 66.7 27.5 66.7l-18.5 12.2-33.2-64.1-55.8 32.5c0 0-10.4-0.2-20.5-0.2-9.1 0-11.2-23.5-10.9-27.7z"/>
		<path id="Layer" class="s7" d="m36.4 316.6z"/>
		<path id="Layer" class="s7" d="m150.8 405.7l-6.5-72.2c0 0-1.2-15.3-10-18.3-8.8-3-19-1.8-19-1.8l-49.2 31.1 50.5 0.8c0 0 1.8 10.8 2.5 15.4 0.8 6.5 5.4 47.6 5.4 47.6z"/>
		<path id="Layer" class="s6" d="m75.1 341.9l0.2-0.2 0.6-0.4 2.4-1.6 9.1-5.9 13.8-9 8.4-5.5 4.5-2.9 4.7-3 6.2-0.2q1 0 2 0.1 1 0.1 2 0.2 1 0.2 2 0.4 1 0.2 2 0.4 0.3 0.1 0.5 0.1 0.3 0.1 0.5 0.2 0.3 0.1 0.5 0.2 0.3 0.1 0.5 0.2c0.6 0.3 1.3 0.7 1.9 1.1l0.8 0.7 0.5 0.3 0.4 0.4 0.7 0.8c0.3 0.3 0.5 0.6 0.7 0.9q0.6 0.9 1.2 1.7 0.5 0.9 0.9 1.8 0.5 0.9 0.9 1.9 0.3 1 0.6 1.9 0.3 1 0.5 2 0.2 1 0.4 2 0.2 1 0.3 2 0.1 1 0.2 2c0.4 5.2 0.8 10.3 1.2 15.1 0.8 9.7 1.5 18.4 2.1 25.7 0.6 7.3 1 13.2 1.3 17.3 0.2 2 0.3 3.6 0.4 4.7 0 0.5 0.1 0.9 0.1 1.2 0 0.3 0 0.4 0 0.4q0 0-0.1-0.4c0-0.3 0-0.7-0.1-1.2-0.1-1.1-0.2-2.7-0.4-4.7-0.3-4.1-0.8-10-1.5-17.3-0.6-7.3-1.3-16-2.1-25.7q-0.6-7.2-1.3-15.1 0-1-0.1-2-0.1-1-0.3-2-0.2-1-0.4-1.9-0.2-1-0.5-1.9-0.3-1-0.6-2-0.4-0.9-0.8-1.8-0.5-0.9-1-1.8-0.5-0.8-1.1-1.6c-0.3-0.3-0.5-0.6-0.7-0.9l-0.8-0.8-0.4-0.4-0.4-0.3-0.8-0.7c-0.6-0.4-1.2-0.7-1.8-1.1q-0.3-0.1-0.5-0.2-0.3-0.1-0.5-0.2-0.3-0.1-0.5-0.1-0.3-0.1-0.5-0.2-1-0.2-2-0.4-1-0.2-2-0.3-1-0.2-2-0.3-1-0.1-2-0.1l-6.2 0.2-4.7 3-4.5 2.9-8.2 5.4-13.9 9-9 5.9-2.5 1.5-0.6 0.4z"/>
		<path id="Layer" class="s10" d="m81.3 283.2l23 6.2-21.3 11.6-3.1-8.2 1.4-9.6z"/>
		<g id="Layer" style="opacity: .3">
			<path id="Layer" class="s10" d="m81.3 283.2l23 6.2-21.3 11.6-3.1-8.2 1.4-9.6z"/>
		</g>
		<path id="Layer" class="s10" d="m36.5 224.2c0 0-11.7 18-9.5 35.5 2.4 20.2 6.7 48.3 6 54.1-0.5 4.3 3.4 6.8 3.4 6.8l47.9-22.4-2.7-33-16.3-31.6-1.4-7.9-26.4-6.5z"/>
		<g id="Layer" style="opacity: .3">
			<path id="Layer" class="s10" d="m84.2 283.9l0.5 5.1c-7.9-3.6-16.3-7.3-24.2-10.9-4.5-2-9-4.1-12.8-7.2-3.8-3.2-6.9-7.6-7.3-12.5q5.2 3.7 10.5 7.1 5.3 3.5 10.8 6.7 5.5 3.2 11.1 6.1 5.6 2.9 11.4 5.6z"/>
		</g>
		<path id="Layer" class="s10" d="m37.4 243.3c-2.9 11.8 4.4 21.9 14.8 27.2 11.3 5.7 26.7 12.7 30.8 14.4 6.6 2.9 20.3 5.8 29 1.3 7.2-3.6 15.7-3.1 15.7-3.1l-5.8-8.9-8.7-2.5-23.7-6.9c0 0-20.6-22.4-26.5-28.3-6.5-6.7-19.2-6.3-24.4 3.7q-0.2 0.4-0.4 0.8-0.1 0.4-0.3 0.7-0.1 0.4-0.3 0.8-0.1 0.4-0.2 0.8z"/>
		<path id="Layer" class="s10" d="m37.4 243.3q0 0 0-0.1 0 0 0-0.1 0 0 0-0.1 0 0 0 0 0.1-0.2 0.1-0.3 0.1-0.1 0.1-0.2 0-0.1 0.1-0.3 0-0.1 0.1-0.2 0.2-0.6 0.7-1.5c0.3-0.6 0.7-1.2 1.1-2q0.4-0.6 0.9-1.2 0.5-0.6 1.1-1.2 0.6-0.5 1.2-1 0.6-0.5 1.2-0.9 0.9-0.6 1.9-1 0.9-0.4 1.9-0.7 1-0.3 2.1-0.5 1-0.1 2-0.1 1.3 0 2.6 0.1 1.3 0.2 2.5 0.6 1.2 0.4 2.4 1 1.1 0.6 2.2 1.4 0.5 0.4 1 0.9 0.6 0.5 1.1 1 0.5 0.5 1 1.1 0.6 0.5 1 1.1l4.4 4.5c5.9 6.3 12.4 13.4 19.5 21.1l-0.1-0.1 32.4 9.4h0.1v0.1l5.4 8.2 0.4 0.6 0.1 0.3h-0.3q-0.7 0-1.4 0-0.8 0-1.5 0-0.7 0.1-1.4 0.1-0.7 0.1-1.5 0.2-0.7 0.1-1.4 0.2-0.7 0.1-1.4 0.3-0.7 0.1-1.3 0.3-0.7 0.2-1.4 0.4-1.4 0.4-2.7 1l-2.5 1.1q-0.2 0.1-0.4 0.2-0.1 0-0.3 0.1-0.2 0.1-0.3 0.1-0.2 0.1-0.4 0.1c-0.4 0.2-0.8 0.3-1.3 0.5q-0.3 0-0.7 0.1-0.3 0.1-0.7 0.2-0.3 0.1-0.6 0.1-0.4 0.1-0.7 0.1-1.4 0.2-2.7 0.3-1.4 0.1-2.7 0.1-1.4 0-2.7-0.1-1.4-0.1-2.7-0.3-1.3-0.1-2.6-0.4-1.3-0.2-2.5-0.5-1.3-0.3-2.5-0.7-1.3-0.4-2.5-0.8c-1.6-0.6-3.1-1.3-4.6-2l-4.5-2-8.4-3.9q-8.2-3.8-15.1-7.3-0.8-0.4-1.6-0.9-0.8-0.5-1.6-1-0.7-0.5-1.5-1-0.7-0.5-1.4-1.1c-0.9-0.7-1.7-1.5-2.5-2.3q-0.3-0.3-0.6-0.6-0.2-0.3-0.5-0.6-0.3-0.3-0.5-0.6-0.3-0.3-0.5-0.6-0.2-0.3-0.5-0.6-0.2-0.3-0.4-0.6-0.2-0.3-0.4-0.7-0.2-0.3-0.4-0.6l-0.7-1.2-0.3-0.7q-0.1-0.3-0.3-0.6l-0.5-1.2q-0.2-0.6-0.4-1.2-0.1-0.3-0.2-0.6 0-0.3-0.1-0.5-0.1-0.3-0.1-0.6-0.1-0.3-0.1-0.6-0.2-0.8-0.3-1.6-0.1-0.9-0.1-1.7 0-0.9 0-1.7 0.1-0.9 0.2-1.7 0.2-1.1 0.3-1.7 0.1-0.6 0.1-0.6c0 0 0 0.2-0.1 0.6-0.1 0.4-0.1 1-0.2 1.7q-0.1 0.8-0.2 1.7 0 0.8 0 1.7 0 0.8 0.1 1.6 0.1 0.9 0.3 1.7 0 0.3 0.1 0.6 0.1 0.3 0.1 0.5 0.1 0.3 0.2 0.6 0.1 0.3 0.2 0.5 0.1 0.6 0.3 1.2c0.2 0.4 0.4 0.8 0.6 1.2l0.2 0.6q0.2 0.3 0.3 0.6l0.7 1.3c0.6 0.8 1 1.6 1.7 2.4q0.3 0.3 0.5 0.6 0.3 0.3 0.5 0.6 0.3 0.3 0.6 0.6 0.2 0.3 0.5 0.6 0.3 0.3 0.6 0.6 0.3 0.3 0.6 0.6 0.3 0.2 0.7 0.5 0.3 0.3 0.6 0.5 0.7 0.6 1.4 1.2 0.8 0.5 1.6 1 0.7 0.5 1.5 1 0.8 0.4 1.6 0.8c4.6 2.3 9.6 4.8 15.1 7.3l8.5 3.9 4.4 2c1.5 0.7 3 1.4 4.6 2q1.2 0.4 2.5 0.8 1.2 0.3 2.5 0.7 1.3 0.3 2.5 0.5 1.3 0.2 2.6 0.4 1.3 0.2 2.7 0.3 1.3 0.1 2.7 0.1 1.3 0 2.6-0.1 1.4-0.1 2.7-0.3 0.3-0.1 0.7-0.1 0.3-0.1 0.7-0.1 0.3-0.1 0.6-0.2 0.4-0.1 0.7-0.2 0.7-0.2 1.3-0.4 0.2 0 0.3-0.1 0.2 0 0.4-0.1 0.1-0.1 0.3-0.1 0.1-0.1 0.3-0.2l2.6-1.2q1.3-0.5 2.7-1 0.6-0.2 1.3-0.3 0.7-0.2 1.4-0.4 0.8-0.1 1.5-0.2 0.7-0.2 1.4-0.3 0.7 0 1.4-0.1 0.8-0.1 1.5-0.1 0.7-0.1 1.5-0.1 0.7 0 1.4 0l-0.2 0.3-0.3-0.6-5.4-8.2 0.1 0.1-32.5-9.4c-7-7.7-13.6-14.8-19.5-21.1l-4.3-4.6q-0.5-0.5-1-1-0.5-0.6-1-1.1-0.5-0.5-1-1-0.6-0.5-1.1-0.9-1-0.8-2.2-1.4-1.1-0.6-2.3-1-1.2-0.4-2.5-0.5-1.2-0.2-2.5-0.2-1 0-2 0.1-1.1 0.2-2.1 0.5-0.9 0.3-1.9 0.7-0.9 0.4-1.8 0.9-0.7 0.4-1.3 0.9-0.6 0.5-1.1 1-0.6 0.6-1.1 1.1-0.5 0.6-1 1.3c-0.4 0.7-0.8 1.3-1.1 1.9q-0.4 0.9-0.7 1.5-0.3 0.6-0.4 0.9c-0.1 0.2-0.1 0.3-0.1 0.3z"/>
		<path id="Layer" class="s10" d="m84.3 291.1c0 0-1.2 8.2-1.3 9.3-0.2 1 1.1 4.4 1 6.3-0.1 1.8-0.8 3.6 0 4.3q0.4 0.2 0.9 0.2 0.5 0.1 0.9-0.1 0.5-0.1 0.8-0.5 0.4-0.3 0.6-0.7c0.5-1.3 0.4-5.5 0.4-5.5l0.9 3.7v7q0.1 0.2 0.2 0.4 0.1 0.2 0.3 0.4 0.2 0.1 0.4 0.2 0.3 0.1 0.5 0 0.3 0 0.6-0.1 0.3-0.1 0.5-0.2 0.3-0.1 0.5-0.3 0.2-0.2 0.4-0.4 0.4 0.1 0.7 0 0.4 0 0.7-0.2 0.3-0.2 0.5-0.4 0.2-0.3 0.4-0.6c0.1-0.3 2.2 0.7 3-3q0.2 0 0.5 0 0.2 0 0.4-0.1 0.3-0.1 0.4-0.2 0.2-0.2 0.4-0.4c0.6-1 2-3.4 2-3.4 0 0 0.2-9.1-0.3-11.1-0.6-2-3.9-7.3-3.9-7.3q-1.4-0.1-2.7-0.3-1.3-0.1-2.6-0.4-1.3-0.3-2.6-0.6-1.2-0.4-2.5-0.8z"/>
		<path id="Layer" class="s10" d="m91.9 299.6q0 0 0.1 0.1 0 0.1 0 0.1 0.1 0.1 0.1 0.2 0 0 0 0.1 0.1 0.2 0.2 0.4 0 0.2 0.1 0.4 0.1 0.2 0.1 0.4 0.1 0.2 0.1 0.4 0.2 0.7 0.3 1.4 0.1 0.6 0.2 1.3 0.1 0.7 0.1 1.4 0.1 0.7 0.1 1.3 0 0.7-0.1 1.4 0 0.7-0.1 1.4-0.1 0.7-0.2 1.3-0.1 0.7-0.3 1.4-0.1 0.2-0.1 0.4-0.1 0.2-0.1 0.4-0.1 0.2-0.2 0.4 0 0.2-0.1 0.4 0 0 0 0.1-0.1 0.1-0.1 0.2 0 0-0.1 0.1 0 0.1 0 0.1c-0.1 0 0.2-0.8 0.5-2.2q0.1-0.6 0.2-1.3 0.1-0.7 0.2-1.3 0.1-0.7 0.1-1.4 0-0.7 0-1.4 0-0.6 0-1.3 0-0.7-0.1-1.4-0.1-0.6-0.2-1.3-0.1-0.7-0.2-1.3c-0.3-1.4-0.6-2.2-0.5-2.2z"/>
		<path id="Layer" class="s10" d="m96.2 299.4q0 0.1 0.1 0.1 0 0.1 0 0.2 0 0 0 0.1 0 0.1 0 0.2c0 0.3 0.2 0.9 0.2 1.5q0.1 0.7 0.1 1.4 0.1 0.6 0.1 1.3 0 0.6 0 1.3 0 0.6-0.1 1.3 0 0.7-0.1 1.3-0.1 0.7-0.3 1.3-0.2 0.7-0.4 1.3-0.2 0.6-0.5 1.2-0.1 0.2-0.2 0.4-0.1 0.1-0.2 0.3-0.1 0.2-0.2 0.4-0.1 0.1-0.2 0.3-0.3 0.4-0.4 0.4c0 0 0.5-0.7 1-1.9q0.3-0.6 0.5-1.2 0.2-0.6 0.3-1.2 0.2-0.7 0.3-1.3 0.1-0.6 0.1-1.3 0.1-0.6 0.1-1.3 0-0.6 0-1.3 0-0.7 0-1.3 0-0.7-0.1-1.3 0-0.3 0-0.6-0.1-0.2-0.1-0.5 0-0.3 0-0.6 0-0.2 0-0.5z"/>
		<path id="Layer" class="s10" d="m98 299.2c0 0 0.1 0.6 0.2 1.7 0.1 1 0.3 2.5 0.3 4.1q0.1 0.6 0 1.1 0 0.5-0.1 1-0.1 0.6-0.2 1.1-0.1 0.5-0.3 1-0.1 0.1-0.1 0.3-0.1 0.1-0.2 0.3 0 0.1-0.1 0.3-0.1 0.1-0.2 0.2-0.3 0.4-0.3 0.4c0 0 0.3-0.6 0.7-1.6q0.1-0.5 0.2-1 0.1-0.5 0.2-1 0.1-0.5 0.1-1 0-0.5 0-1c0-1.7-0.2-3.1-0.2-4.2q-0.1-0.2-0.1-0.4 0-0.3 0-0.5 0-0.2 0.1-0.4 0-0.2 0-0.4z"/>
		<path id="Layer" class="s10" d="m37.2 223.9l0.3 0.1 0.9 0.3 3.2 1.4c2.8 1.1 6.5 2.6 10.8 4 3.5 1.2 6.7 2.1 9.3 2.8l-0.2 0.1q0.3-0.6 0.6-1.1 0.3-0.5 0.5-1.1 0.3-0.5 0.5-1.1 0.2-0.6 0.3-1.1 0.3-0.9 0.3-1.3 0-0.1 0.1-0.1 0-0.1 0-0.1 0-0.1 0-0.2 0 0 0.1-0.1 0 0.1 0 0.1 0 0.1 0 0.2 0 0 0 0.1 0 0 0 0.1c0 0.3-0.2 0.7-0.3 1.3q-0.1 0.6-0.3 1.2-0.2 0.6-0.4 1.1-0.3 0.6-0.5 1.1-0.3 0.6-0.6 1.1v0.1h-0.1c-2.6-0.7-5.9-1.6-9.3-2.7-4.3-1.5-8.1-3-10.8-4.2-1.3-0.6-2.4-1.1-3.2-1.4l-0.9-0.5q-0.3-0.1-0.3-0.1z"/>
		<path id="Layer" class="s10" d="m118.2 281.7q0.2-0.7 0.5-1.5 0.2-0.8 0.5-1.5 0.3-0.7 0.6-1.5 0.3-0.7 0.7-1.4-0.1 0.4-0.2 0.8-0.1 0.4-0.2 0.7-0.2 0.4-0.3 0.8-0.1 0.3-0.3 0.7-0.1 0.4-0.3 0.8-0.1 0.3-0.3 0.7-0.1 0.4-0.3 0.7-0.2 0.4-0.4 0.7z"/>
		<path id="Layer" class="s10" d="m86.3 278.8q0-0.3 0-0.5 0-0.2 0.1-0.4 0-0.2 0-0.4 0.1-0.2 0.1-0.4 0.4-1.6 0.9-3.8c0.3-1.4 0.5-2.7 0.7-3.8q0.1-0.2 0.1-0.4 0-0.2 0.1-0.4 0-0.2 0.1-0.4 0-0.2 0.1-0.4 0 0.2 0 0.4 0 0.2 0 0.4 0 0.2-0.1 0.4 0 0.2 0 0.4c-0.2 1-0.4 2.4-0.7 3.9-0.3 1.5-0.6 2.9-0.9 3.8q-0.1 0.2-0.1 0.4-0.1 0.2-0.1 0.4-0.1 0.2-0.2 0.4-0.1 0.2-0.1 0.3z"/>
		<path id="Layer" class="s10" d="m82.2 278.1q0-0.2 0-0.3 0-0.2 0-0.4 0-0.2 0-0.4 0-0.2 0-0.3 0.1-0.5 0.2-0.9 0.1-0.5 0.2-0.9 0.1-0.4 0.2-0.8 0.2-0.5 0.4-0.9 0.1-0.4 0.3-0.8 0.2-0.3 0.5-0.7 0.2-0.4 0.4-0.8 0.3-0.3 0.6-0.7 0.1-0.1 0.2-0.2 0.1-0.2 0.2-0.3 0.2-0.1 0.3-0.2 0.1-0.2 0.3-0.3-0.4 0.5-0.7 1-0.4 0.5-0.7 1.1-0.3 0.5-0.6 1-0.3 0.6-0.6 1.1-0.2 0.6-0.3 1.2-0.2 0.6-0.4 1.1-0.1 0.6-0.3 1.2-0.1 0.6-0.2 1.2z"/>
		<path id="Layer" class="s6" d="m19.4 422.6l4 0.2 13.8-72.4-6.3-1-11.5 73.2z"/>
		<path id="Layer" class="s6" d="m95.8 422.6l-4 0.2-13.8-72.4 6.2-1 11.6 73.2z"/>
		<path id="Layer" class="s6" d="m25.8 341.2c0-0.2-0.1-0.4-0.1-0.7-0.2-4.6 1.7-8.9 3.4-13.1 4.8-11.3 3-23.1 1.6-35.3-1.8-16.1-7.1-29.6-11.3-45.2q-0.2-0.6-0.6-1.2-0.4-0.6-1-1-0.5-0.4-1.2-0.6-0.6-0.3-1.3-0.3-1 0-1.9 0.5-0.9 0.5-1.5 1.3-0.6 0.8-0.8 1.8-0.1 1 0.2 1.9c4.7 14.6 9 27.5 10.6 42.8 1.4 12.2 3.2 24-1.6 35.3-1.7 4.2-3.6 8.5-3.4 13.1 0.2 4.6 3.1 9.4 7.7 10.1h67.2q0.8 0 1.6-0.3 0.8-0.3 1.4-0.9 0.6-0.6 0.9-1.4 0.3-0.8 0.4-1.6v-0.9q-0.1-0.9-0.4-1.7-0.3-0.7-0.9-1.3-0.6-0.6-1.4-1-0.8-0.3-1.6-0.3z"/>
		<path id="Layer" class="s1" d="m462.2 317h500v0.3h-500z"/>
		<path id="Layer" class="s3" d="m508 341.1c0 0 2.3-1.9-0.2-2.8-2.5-0.9-14.7-0.6-14.8 11.5 0 0 14.2 2.4 16-2.3 1.8-4.6-1-6.4-1-6.4z"/>
	</g>
</svg>