<svg id="Layer_1" data-name="Layer 1" xmlns="http://www.w3.org/2000/svg" xmlns:xlink="http://www.w3.org/1999/xlink" viewBox="0 0 50 50"><defs><style>.cls-1{fill:url(#linear-gradient);}.cls-2{fill:url(#linear-gradient-2);}.cls-3{fill:url(#linear-gradient-3);}.cls-4{fill:url(#linear-gradient-4);}.cls-5{fill:url(#linear-gradient-5);}.cls-6{fill:url(#linear-gradient-6);}.cls-7{fill:url(#linear-gradient-7);}.cls-8{fill:url(#linear-gradient-8);}.cls-9{fill:url(#linear-gradient-9);}</style><linearGradient id="linear-gradient" x1="9.76" y1="33.81" x2="18.8" y2="33.81" gradientUnits="userSpaceOnUse"><stop offset="0" stop-color="#1b4071"/><stop offset="0.26" stop-color="#1d4374"/></linearGradient><linearGradient id="linear-gradient-2" x1="11.81" y1="24.7" x2="16.74" y2="24.7" xlink:href="#linear-gradient"/><linearGradient id="linear-gradient-3" x1="20.73" y1="21.39" x2="31.05" y2="21.39" xlink:href="#linear-gradient"/><linearGradient id="linear-gradient-4" x1="23.11" y1="10.84" x2="28.67" y2="10.84" xlink:href="#linear-gradient"/><linearGradient id="linear-gradient-5" x1="32.98" y1="33.81" x2="42.02" y2="33.81" xlink:href="#linear-gradient"/><linearGradient id="linear-gradient-6" x1="35.04" y1="24.7" x2="39.97" y2="24.7" xlink:href="#linear-gradient"/><linearGradient id="linear-gradient-7" x1="29" y1="15.8" x2="38.15" y2="15.8" xlink:href="#linear-gradient"/><linearGradient id="linear-gradient-8" x1="12.52" y1="16.36" x2="22.6" y2="16.36" xlink:href="#linear-gradient"/><linearGradient id="linear-gradient-9" x1="19.26" y1="32.85" x2="32.64" y2="32.85" xlink:href="#linear-gradient"/></defs><path class="cls-1" d="M15.61,27.29l-2.76,0a3.1,3.1,0,0,0-3.09,3.14l0,4.06a1.13,1.13,0,0,0,1.14,1.13h.36a1.34,1.34,0,0,0,.39-.07l.05,4.74H17l0-4.79a1.32,1.32,0,0,0,.39.06h.35a1.15,1.15,0,0,0,1.14-1.15l0-4.06A3.13,3.13,0,0,0,15.61,27.29Zm2.05,7.32H17.3A.39.39,0,0,1,17,34.5a.36.36,0,0,1-.12-.27l0-3.17a.48.48,0,0,0-.49-.48h0l-.13,0-.06,0-.16.1s0,0,0,0a.52.52,0,0,0-.12.31h0v0L16,39.34H14.83l0-4.35a.49.49,0,0,0-.49-.49h0a.49.49,0,0,0-.49.49h0l0,4.35H12.7l-.07-8.24a.5.5,0,0,0-.49-.48h0a.48.48,0,0,0-.48.49h0l0,3.17a.39.39,0,0,1-.39.39h-.35a.14.14,0,0,1-.16-.15h0l0-4.06a2.14,2.14,0,0,1,2.12-2.16l2.76,0a2.13,2.13,0,0,1,2.16,2.11h0l0,4a.16.16,0,0,1-.16.17Z"/><path class="cls-2" d="M14.28,27.16a2.47,2.47,0,1,0-2.47-2.46h0A2.47,2.47,0,0,0,14.28,27.16Zm0-3.95a1.49,1.49,0,1,1-1.49,1.49A1.49,1.49,0,0,1,14.28,23.21Z"/><path class="cls-3" d="M29.81,23.37a1.25,1.25,0,0,0,1.24-1.25L31,17.42a3.53,3.53,0,0,0-3.57-3.5l-3.2,0a3.53,3.53,0,0,0-3.5,3.56h0l.05,4.7A1.25,1.25,0,0,0,22,23.45h.42a1.61,1.61,0,0,0,.53-.1L23,28.86h5.91l-.05-5.59a1.56,1.56,0,0,0,.52.11Zm-.42-1a.52.52,0,0,1-.53-.52l0-3.68a.49.49,0,0,0-.49-.48h0a.49.49,0,0,0-.49.49h0l.09,9.66H26.45l0-5.13a.49.49,0,0,0-.49-.48h0a.48.48,0,0,0-.48.49h0l.05,5.12H24l-.09-9.63a.49.49,0,0,0-.5-.48.48.48,0,0,0-.48.49h0l0,3.67a.51.51,0,0,1-.51.53H22a.27.27,0,0,1-.26-.27l-.05-4.7a2.56,2.56,0,0,1,2.53-2.58l3.2,0a2.65,2.65,0,0,1,1.82.73A2.57,2.57,0,0,1,30,17.43l.05,4.69a.27.27,0,0,1-.26.27h-.42Z"/><path class="cls-4" d="M25.89,13.61a2.78,2.78,0,1,0-2.78-2.77A2.78,2.78,0,0,0,25.89,13.61Zm0-4.57a1.8,1.8,0,1,1-1.8,1.8h0A1.8,1.8,0,0,1,25.89,9Z"/><path class="cls-5" d="M42,30.38a3.12,3.12,0,0,0-3.14-3.09h0l-2.77,0A3.12,3.12,0,0,0,33,30.46h0l0,4.06a1.14,1.14,0,0,0,1.14,1.13h.37a1.59,1.59,0,0,0,.38-.07L35,40.32H40.2l-.05-4.79a1.32,1.32,0,0,0,.39.06h.35A1.14,1.14,0,0,0,42,34.44h0Zm-1.1,4.23h-.35a.38.38,0,0,1-.39-.38l0-3.17a.49.49,0,0,0-.49-.48h0l-.13,0-.06,0a.47.47,0,0,0-.09.06l-.06,0,0,0a.51.51,0,0,0-.11.31h0v0l.08,8.25H38.06L38,35a.49.49,0,0,0-.48-.49h0A.48.48,0,0,0,37,35h0l0,4.35H35.93l-.08-8.24a.48.48,0,0,0-.49-.48h0a.49.49,0,0,0-.49.49h0l0,3.17a.39.39,0,0,1-.38.39h-.36a.17.17,0,0,1-.16-.16l0-4.06a2.14,2.14,0,0,1,2.12-2.16h0l2.76,0A2.13,2.13,0,0,1,41,30.39l0,4a.16.16,0,0,1-.16.17Z"/><path class="cls-6" d="M35,24.7a2.47,2.47,0,1,0,2.46-2.47A2.46,2.46,0,0,0,35,24.7Zm4,0a1.49,1.49,0,1,1-1.49-1.49A1.49,1.49,0,0,1,39,24.7Z"/><path class="cls-7" d="M29.21,11.19l.6,1.47a.48.48,0,0,0,.45.3.52.52,0,0,0,.18,0,.5.5,0,0,0,.27-.64h0l-.18-.44a11.26,11.26,0,0,1,6.64,9.45.49.49,0,0,0,.49.45h0a.49.49,0,0,0,.45-.52A12.25,12.25,0,0,0,30.93,11l.41-.17A.49.49,0,0,0,31,9.88l-2,.81.19.47Z"/><path class="cls-8" d="M13.78,22.23l1.78-1.18a.48.48,0,0,0,.11-.68.49.49,0,0,0-.66-.13l-.31.2a11.29,11.29,0,0,1,7.6-9A.49.49,0,0,0,22,10.5a12.26,12.26,0,0,0-8.26,9.89l-.31-.46a.49.49,0,0,0-.68-.15.5.5,0,0,0-.14.68h0Z"/><path class="cls-9" d="M32.64,31.93l-2-.67a.49.49,0,0,0-.31.92l.5.17A11.3,11.3,0,0,1,20,31.83a.49.49,0,0,0-.67.15.49.49,0,0,0,.15.68h0a12.3,12.3,0,0,0,11.67.59l-.13.37a.5.5,0,0,0,.26.64.49.49,0,0,0,.64-.26l0-.07.51-1.55s0,0,0,0Z"/></svg>