<svg id="Layer_1" data-name="Layer 1" xmlns="http://www.w3.org/2000/svg" xmlns:xlink="http://www.w3.org/1999/xlink" viewBox="0 0 50 50"><defs><style>.cls-1{fill:url(#linear-gradient);}.cls-2{fill:url(#linear-gradient-2);}.cls-3{fill:url(#linear-gradient-3);}.cls-4{fill:url(#linear-gradient-4);}.cls-5{fill:url(#linear-gradient-5);}</style><linearGradient id="linear-gradient" x1="23.13" y1="18.04" x2="39.96" y2="18.04" gradientUnits="userSpaceOnUse"><stop offset="0" stop-color="#1b4071"/><stop offset="0.26" stop-color="#1d4374"/></linearGradient><linearGradient id="linear-gradient-2" x1="20.19" y1="11.74" x2="30.64" y2="11.74" xlink:href="#linear-gradient"/><linearGradient id="linear-gradient-3" x1="32.62" y1="24.17" x2="43.06" y2="24.17" xlink:href="#linear-gradient"/><linearGradient id="linear-gradient-4" x1="7.34" y1="32.01" x2="27.63" y2="32.01" xlink:href="#linear-gradient"/><linearGradient id="linear-gradient-5" x1="19.67" y1="39.3" x2="42.43" y2="39.3" xlink:href="#linear-gradient"/></defs><polygon class="cls-1" points="23.13 17.88 31.41 9.65 39.96 18.2 31.68 26.43 23.13 17.88"/><path class="cls-2" d="M22.43,16.56a1.29,1.29,0,0,1-1.82,0l-.07-.08a1.34,1.34,0,0,1-.08-1.71,26.47,26.47,0,0,1,8-8,1.38,1.38,0,0,1,1.7.09l.1.1a1.26,1.26,0,0,1,0,1.78h0Z"/><path class="cls-3" d="M33,27.13a1.28,1.28,0,0,0,0,1.8h0l.07.07a1.35,1.35,0,0,0,1.72.09,26.44,26.44,0,0,0,8-8,1.38,1.38,0,0,0-.09-1.7l-.09-.09a1.27,1.27,0,0,0-1.8,0Z"/><path class="cls-4" d="M8.32,41.12c-.16-.08-.23-.26-.37-.37a3.08,3.08,0,0,1,.41-4.13l16.7-14.7,1.3,1.26,1.27,1.31-14.8,16.6a3.12,3.12,0,0,1-4.15.39C8.58,41.34,8.4,41.28,8.32,41.12Z"/><polygon class="cls-5" points="22.72 36 21.76 37.08 21.76 38.22 20.86 38.22 19.67 39.42 19.67 42.59 42.43 42.59 42.43 39.42 41.23 38.22 40.34 38.22 40.34 37.08 39.38 36 22.72 36"/></svg>