<svg id="Layer_1" data-name="Layer 1" xmlns="http://www.w3.org/2000/svg" xmlns:xlink="http://www.w3.org/1999/xlink" viewBox="0 0 50 50"><defs><style>.cls-1{fill:url(#linear-gradient);}.cls-2{fill:url(#linear-gradient-2);}.cls-3{fill:url(#linear-gradient-3);}.cls-4{fill:url(#linear-gradient-4);}.cls-5{fill:url(#linear-gradient-5);}.cls-6{fill:url(#linear-gradient-6);}.cls-7{fill:url(#linear-gradient-7);}</style><linearGradient id="linear-gradient" x1="35.15" y1="37.47" x2="41.03" y2="37.47" gradientUnits="userSpaceOnUse"><stop offset="0" stop-color="#1b4071"/><stop offset="0.26" stop-color="#1d4374"/></linearGradient><linearGradient id="linear-gradient-2" x1="31.34" y1="37.47" x2="44.83" y2="37.47" xlink:href="#linear-gradient"/><linearGradient id="linear-gradient-3" x1="4.59" y1="19.78" x2="45.41" y2="19.78" xlink:href="#linear-gradient"/><linearGradient id="linear-gradient-4" x1="32.25" y1="26.37" x2="38.77" y2="26.37" xlink:href="#linear-gradient"/><linearGradient id="linear-gradient-5" x1="10.7" y1="36.6" x2="17.22" y2="36.6" xlink:href="#linear-gradient"/><linearGradient id="linear-gradient-6" x1="17.88" y1="33.11" x2="24.41" y2="33.11" xlink:href="#linear-gradient"/><linearGradient id="linear-gradient-7" x1="25.07" y1="35.06" x2="31.59" y2="35.06" xlink:href="#linear-gradient"/></defs><path class="cls-1" d="M38.09,34.42a2.86,2.86,0,0,0-2.08.89,3.14,3.14,0,0,0,0,4.32,2.86,2.86,0,0,0,4.05.11l.11-.11a3.16,3.16,0,0,0,0-4.32A2.87,2.87,0,0,0,38.09,34.42Zm0,4.67a1.62,1.62,0,1,1,1.55-1.62,1.59,1.59,0,0,1-1.55,1.62Z"/><path class="cls-2" d="M44.06,35.54,43,35.41a.59.59,0,0,0,0-.08l.69-.89a.92.92,0,0,0-.07-1.19l-1.41-1.47A.83.83,0,0,0,41,31.71l-.86.71-.07,0L40,31.25a.88.88,0,0,0-.86-.79h-2a.87.87,0,0,0-.86.79l-.13,1.14-.07,0-.86-.71a.83.83,0,0,0-1.15.07l-1.41,1.47a.92.92,0,0,0-.07,1.19l.69.89,0,.08-1.08.13a.88.88,0,0,0-.77.89v2.08a.87.87,0,0,0,.77.89l1.08.13,0,.08-.69.9a.92.92,0,0,0,.07,1.19L34,43.17a.85.85,0,0,0,1.15.07l.86-.71.07,0,.13,1.13a.88.88,0,0,0,.86.8h2a.88.88,0,0,0,.85-.8l.13-1.13.07,0,.86.71a.85.85,0,0,0,1.15-.07l1.42-1.47a.94.94,0,0,0,.06-1.19l-.68-.9,0-.08,1.08-.13a.87.87,0,0,0,.77-.89V36.43A.88.88,0,0,0,44.06,35.54Zm-2.28,3.21c-.06.18-.14.36-.22.54a.93.93,0,0,0,.1,1l.59.77-.75.79-.75-.62a.82.82,0,0,0-.54-.2.86.86,0,0,0-.38.1,3.85,3.85,0,0,1-.52.22.9.9,0,0,0-.59.75l-.1,1H37.56l-.11-1a.89.89,0,0,0-.58-.75,3,3,0,0,1-.52-.22A.9.9,0,0,0,36,41a.82.82,0,0,0-.54.2l-.75.61L33.92,41l.6-.77a1,1,0,0,0,.09-1q-.12-.27-.21-.54a.87.87,0,0,0-.73-.61L32.73,38V36.92l.94-.11a.9.9,0,0,0,.73-.61,4.33,4.33,0,0,1,.21-.54,1,1,0,0,0-.09-1l-.6-.78.75-.78.75.62a.87.87,0,0,0,.93.1,3,3,0,0,1,.52-.23.88.88,0,0,0,.58-.75l.11-1h1.06l.1,1a.89.89,0,0,0,.59.75,3.93,3.93,0,0,1,.52.23.86.86,0,0,0,.92-.1l.75-.62.75.78-.59.78a.93.93,0,0,0-.1,1,4.33,4.33,0,0,1,.21.54.87.87,0,0,0,.73.61l.94.11V38l-.94.11A.87.87,0,0,0,41.78,38.75Z"/><path class="cls-3" d="M45.33,8.74a.8.8,0,0,0-.72-.46.74.74,0,0,0-.36.09l-6.59,3.45A3.09,3.09,0,0,0,35.51,11a3.23,3.23,0,0,0-3.16,3.29A3.36,3.36,0,0,0,32.81,16L29.4,20.44a3,3,0,0,0-1.07-.19,3,3,0,0,0-2.17.9l-2-1.34a3.19,3.19,0,1,0-6.2-.93,3.37,3.37,0,0,0,.55,1.85l-3.37,4.2a3.1,3.1,0,0,0-3.78,1.15l-5.73-2a.78.78,0,0,0-.26,0,.8.8,0,0,0-.76.56.84.84,0,0,0,.5,1.05l5.69,2a2,2,0,0,0,0,.34,3.17,3.17,0,1,0,6.33,0,3.32,3.32,0,0,0-.2-1.13,3.26,3.26,0,0,0-.49-.92l3.29-4.1a3.06,3.06,0,0,0,2.66.08,3.1,3.1,0,0,0,1-.68l1.95,1.32a3.3,3.3,0,0,0-.15,1,3.17,3.17,0,1,0,6.33,0,3.35,3.35,0,0,0-.77-2.15L34,17.11a3.1,3.1,0,0,0,1.54.42,3.23,3.23,0,0,0,3.16-3.29,3.48,3.48,0,0,0-.15-1L45,9.85A.85.85,0,0,0,45.33,8.74Zm-17,16.43a1.64,1.64,0,1,1,1.56-1.63A1.6,1.6,0,0,1,28.33,25.17ZM35.51,12.6A1.64,1.64,0,1,1,34,14.24,1.61,1.61,0,0,1,35.51,12.6ZM15.53,28A1.57,1.57,0,1,1,14,26.34,1.6,1.6,0,0,1,15.53,28Zm5.62-10.73a1.64,1.64,0,1,1-1.57,1.64A1.61,1.61,0,0,1,21.15,17.25Z"/><path class="cls-4" d="M37.4,29.24a.78.78,0,0,0,.54.25H38a.8.8,0,0,0,.78-.82V22.24a.81.81,0,0,0-.79-.83H33.05a.82.82,0,0,0-.8.83v8.28a.82.82,0,0,0,.24.59.79.79,0,0,0,.55.23.77.77,0,0,0,.39-.11h0a.86.86,0,0,0,.41-.73V23.07h3.33v5.6A.78.78,0,0,0,37.4,29.24Z"/><path class="cls-5" d="M16.43,32.62H11.5a.82.82,0,0,0-.8.83v6.29a.8.8,0,1,0,1.6,0V34.28h3.33v5.46a.81.81,0,0,0,.79.83.82.82,0,0,0,.8-.83V33.45A.8.8,0,0,0,16.43,32.62Z"/><path class="cls-6" d="M23.61,25.65H18.68a.82.82,0,0,0-.8.83V39.74a.8.8,0,1,0,1.6,0V27.3h3.33V39.74a.8.8,0,1,0,1.6,0V26.48A.82.82,0,0,0,23.61,25.65Z"/><path class="cls-7" d="M31.59,33.7V30.37a.82.82,0,0,0-.8-.83H25.86a.81.81,0,0,0-.79.83v9.34a.81.81,0,0,0,.22.59.79.79,0,0,0,.55.27h0a.81.81,0,0,0,.8-.83V31.2H30v2.5a.83.83,0,0,0,.23.58.8.8,0,0,0,.56.24h0A.8.8,0,0,0,31.59,33.7Z"/></svg>