<svg id="Layer_1" data-name="Layer 1" xmlns="http://www.w3.org/2000/svg" xmlns:xlink="http://www.w3.org/1999/xlink" viewBox="0 0 50 50"><defs><style>.cls-1{fill:url(#linear-gradient);}.cls-2{fill:url(#linear-gradient-2);}.cls-3{fill:url(#linear-gradient-3);}.cls-4{fill:url(#linear-gradient-4);}.cls-5{fill:url(#linear-gradient-5);}.cls-6{fill:url(#linear-gradient-6);}.cls-7{fill:url(#linear-gradient-7);}.cls-8{fill:url(#linear-gradient-8);}.cls-9{fill:url(#linear-gradient-9);}.cls-10{fill:url(#linear-gradient-10);}.cls-11{fill:url(#linear-gradient-11);}.cls-12{fill:url(#linear-gradient-12);}.cls-13{fill:url(#linear-gradient-13);}.cls-14{fill:url(#linear-gradient-14);}.cls-15{fill:url(#linear-gradient-15);}.cls-16{fill:url(#linear-gradient-16);}.cls-17{fill:url(#linear-gradient-17);}.cls-18{fill:url(#linear-gradient-18);}.cls-19{fill:url(#linear-gradient-19);}.cls-20{fill:url(#linear-gradient-20);}.cls-21{fill:url(#linear-gradient-21);}.cls-22{fill:url(#linear-gradient-22);}.cls-23{fill:url(#linear-gradient-25);}.cls-24{fill:url(#linear-gradient-26);}.cls-25{fill:url(#linear-gradient-27);}.cls-26{fill:url(#linear-gradient-28);}.cls-27{fill:url(#linear-gradient-29);}.cls-28{fill:url(#linear-gradient-30);}.cls-29{fill:url(#linear-gradient-31);}.cls-30{fill:url(#linear-gradient-32);}.cls-31{fill:url(#linear-gradient-33);}.cls-32{fill:url(#linear-gradient-34);}.cls-33{fill:url(#linear-gradient-35);}.cls-34{fill:url(#linear-gradient-36);}.cls-35{fill:url(#linear-gradient-37);}.cls-36{fill:url(#linear-gradient-38);}.cls-37{fill:url(#linear-gradient-39);}.cls-38{fill:url(#linear-gradient-40);}.cls-39{fill:url(#linear-gradient-41);}.cls-40{fill:url(#linear-gradient-42);}.cls-41{fill:url(#linear-gradient-43);}.cls-42{fill:url(#linear-gradient-44);}.cls-43{fill:url(#linear-gradient-45);}.cls-44{fill:url(#linear-gradient-46);}.cls-45{fill:url(#linear-gradient-47);}.cls-46{fill:url(#linear-gradient-48);}.cls-47{fill:url(#linear-gradient-49);}.cls-48{fill:url(#linear-gradient-50);}.cls-49{fill:url(#linear-gradient-51);}.cls-50{fill:url(#linear-gradient-52);}.cls-51{fill:url(#linear-gradient-53);}.cls-52{fill:url(#linear-gradient-54);}.cls-53{fill:url(#linear-gradient-55);}.cls-54{fill:url(#linear-gradient-56);}.cls-55{fill:url(#linear-gradient-57);}.cls-56{fill:url(#linear-gradient-58);}.cls-57{fill:url(#linear-gradient-59);}.cls-58{fill:url(#linear-gradient-60);}.cls-59{fill:url(#linear-gradient-61);}.cls-60{fill:url(#linear-gradient-62);}.cls-61{fill:url(#linear-gradient-63);}.cls-62{fill:url(#linear-gradient-64);}.cls-63{fill:url(#linear-gradient-65);}.cls-64{fill:url(#linear-gradient-66);}.cls-65{fill:url(#linear-gradient-67);}.cls-66{fill:url(#linear-gradient-68);}.cls-67{fill:url(#linear-gradient-69);}.cls-68{fill:url(#linear-gradient-70);}.cls-69{fill:url(#linear-gradient-71);}.cls-70{fill:url(#linear-gradient-72);}.cls-71{fill:url(#linear-gradient-73);}.cls-72{fill:url(#linear-gradient-74);}.cls-73{fill:url(#linear-gradient-75);}</style><linearGradient id="linear-gradient" x1="9.52" y1="16.96" x2="18.05" y2="16.96" gradientUnits="userSpaceOnUse"><stop offset="0" stop-color="#1b4071"/><stop offset="0.26" stop-color="#1d4374"/></linearGradient><linearGradient id="linear-gradient-2" x1="30.79" y1="16.96" x2="39.32" y2="16.96" xlink:href="#linear-gradient"/><linearGradient id="linear-gradient-3" x1="9.52" y1="34.66" x2="18.05" y2="34.66" xlink:href="#linear-gradient"/><linearGradient id="linear-gradient-4" x1="30.79" y1="34.66" x2="39.32" y2="34.66" xlink:href="#linear-gradient"/><linearGradient id="linear-gradient-5" x1="24.16" y1="13.86" x2="24.67" y2="13.86" xlink:href="#linear-gradient"/><linearGradient id="linear-gradient-6" x1="24.16" y1="37.76" x2="24.67" y2="37.76" xlink:href="#linear-gradient"/><linearGradient id="linear-gradient-7" x1="10.31" y1="25.81" x2="14.63" y2="25.81" xlink:href="#linear-gradient"/><linearGradient id="linear-gradient-8" x1="34.21" y1="25.81" x2="38.53" y2="25.81" xlink:href="#linear-gradient"/><linearGradient id="linear-gradient-9" x1="15.33" y1="24.36" x2="31.22" y2="24.36" xlink:href="#linear-gradient"/><linearGradient id="linear-gradient-10" x1="17.77" y1="27.34" x2="33.51" y2="27.34" xlink:href="#linear-gradient"/><linearGradient id="linear-gradient-11" x1="19.58" y1="49.29" x2="31.07" y2="49.29" gradientTransform="matrix(1, 0, 0, -1, 0, 76.21)" xlink:href="#linear-gradient"/><linearGradient id="linear-gradient-12" x1="17.77" y1="51.45" x2="29.42" y2="51.45" gradientTransform="matrix(1, 0, 0, -1, 0, 76.21)" xlink:href="#linear-gradient"/><linearGradient id="linear-gradient-13" x1="20.64" y1="25.23" x2="27.29" y2="25.23" xlink:href="#linear-gradient"/><linearGradient id="linear-gradient-14" x1="21.7" y1="26.47" x2="28.2" y2="26.47" xlink:href="#linear-gradient"/><linearGradient id="linear-gradient-15" x1="23.22" y1="26.14" x2="26.14" y2="26.14" xlink:href="#linear-gradient"/><linearGradient id="linear-gradient-16" x1="22.7" y1="25.57" x2="25.77" y2="25.57" xlink:href="#linear-gradient"/><linearGradient id="linear-gradient-17" x1="17.2" y1="48.74" x2="34.28" y2="48.74" gradientTransform="matrix(1, 0, 0, -1, 0, 76.21)" xlink:href="#linear-gradient"/><linearGradient id="linear-gradient-18" x1="14.55" y1="51.98" x2="31.8" y2="51.98" gradientTransform="matrix(1, 0, 0, -1, 0, 76.21)" xlink:href="#linear-gradient"/><linearGradient id="linear-gradient-19" x1="24.55" y1="28.21" x2="28.69" y2="28.21" xlink:href="#linear-gradient"/><linearGradient id="linear-gradient-20" x1="24.48" y1="28.21" x2="28.76" y2="28.21" xlink:href="#linear-gradient"/><linearGradient id="linear-gradient-21" x1="24.55" y1="27.84" x2="29.28" y2="27.84" xlink:href="#linear-gradient"/><linearGradient id="linear-gradient-22" x1="24.48" y1="27.84" x2="29.35" y2="27.84" xlink:href="#linear-gradient"/><linearGradient id="linear-gradient-25" x1="37.75" y1="14.17" x2="38.58" y2="14.17" xlink:href="#linear-gradient"/><linearGradient id="linear-gradient-26" x1="37.72" y1="13.4" x2="38.62" y2="13.4" xlink:href="#linear-gradient"/><linearGradient id="linear-gradient-27" x1="37.72" y1="13.8" x2="38.62" y2="13.8" xlink:href="#linear-gradient"/><linearGradient id="linear-gradient-28" x1="37.73" y1="12.15" x2="37.98" y2="12.15" xlink:href="#linear-gradient"/><linearGradient id="linear-gradient-29" x1="37.56" y1="13.62" x2="38.76" y2="13.62" xlink:href="#linear-gradient"/><linearGradient id="linear-gradient-30" x1="37.56" y1="13.98" x2="38.76" y2="13.98" xlink:href="#linear-gradient"/><linearGradient id="linear-gradient-31" x1="37.82" y1="14.32" x2="38.51" y2="14.32" xlink:href="#linear-gradient"/><linearGradient id="linear-gradient-32" x1="36.93" y1="11.87" x2="39.4" y2="11.87" xlink:href="#linear-gradient"/><linearGradient id="linear-gradient-33" x1="38.02" y1="12.82" x2="38.31" y2="12.82" xlink:href="#linear-gradient"/><linearGradient id="linear-gradient-34" x1="38.35" y1="12.15" x2="38.6" y2="12.15" xlink:href="#linear-gradient"/><linearGradient id="linear-gradient-35" x1="37.72" y1="13.36" x2="38.63" y2="13.36" xlink:href="#linear-gradient"/><linearGradient id="linear-gradient-36" x1="38.31" y1="13.35" x2="38.35" y2="13.35" xlink:href="#linear-gradient"/><linearGradient id="linear-gradient-37" x1="37.98" y1="13.35" x2="38.02" y2="13.35" xlink:href="#linear-gradient"/><linearGradient id="linear-gradient-38" x1="9.44" y1="12.72" x2="12.76" y2="12.72" xlink:href="#linear-gradient"/><linearGradient id="linear-gradient-39" x1="11.91" y1="13.27" x2="14.14" y2="13.27" xlink:href="#linear-gradient"/><linearGradient id="linear-gradient-40" x1="8.93" y1="39.01" x2="13.38" y2="39.01" xlink:href="#linear-gradient"/><linearGradient id="linear-gradient-41" x1="11" y1="37.29" x2="11.31" y2="37.29" xlink:href="#linear-gradient"/><linearGradient id="linear-gradient-42" x1="11" y1="40.73" x2="11.31" y2="40.73" xlink:href="#linear-gradient"/><linearGradient id="linear-gradient-43" x1="12.72" y1="39.01" x2="13.03" y2="39.01" xlink:href="#linear-gradient"/><linearGradient id="linear-gradient-44" x1="9.28" y1="39.01" x2="9.59" y2="39.01" xlink:href="#linear-gradient"/><linearGradient id="linear-gradient-45" x1="10.24" y1="37.57" x2="10.44" y2="37.57" xlink:href="#linear-gradient"/><linearGradient id="linear-gradient-46" x1="9.62" y1="38.26" x2="9.81" y2="38.26" xlink:href="#linear-gradient"/><linearGradient id="linear-gradient-47" x1="12.48" y1="39.71" x2="12.67" y2="39.71" xlink:href="#linear-gradient"/><linearGradient id="linear-gradient-48" x1="11.86" y1="40.4" x2="12.05" y2="40.4" xlink:href="#linear-gradient"/><linearGradient id="linear-gradient-49" x1="9.66" y1="39.72" x2="9.86" y2="39.72" xlink:href="#linear-gradient"/><linearGradient id="linear-gradient-50" x1="10.35" y1="40.34" x2="10.54" y2="40.34" xlink:href="#linear-gradient"/><linearGradient id="linear-gradient-51" x1="11.8" y1="37.48" x2="12" y2="37.48" xlink:href="#linear-gradient"/><linearGradient id="linear-gradient-52" x1="12.49" y1="38.11" x2="12.69" y2="38.11" xlink:href="#linear-gradient"/><linearGradient id="linear-gradient-53" x1="10.95" y1="39.09" x2="11.93" y2="39.09" xlink:href="#linear-gradient"/><linearGradient id="linear-gradient-54" x1="37.44" y1="38.09" x2="38.7" y2="38.09" xlink:href="#linear-gradient"/><linearGradient id="linear-gradient-55" x1="37.23" y1="38.09" x2="37.38" y2="38.09" xlink:href="#linear-gradient"/><linearGradient id="linear-gradient-56" x1="38.84" y1="38.13" x2="39.54" y2="38.13" xlink:href="#linear-gradient"/><linearGradient id="linear-gradient-57" x1="39.64" y1="38.11" x2="39.9" y2="38.11" xlink:href="#linear-gradient"/><linearGradient id="linear-gradient-58" x1="38.52" y1="39.34" x2="39.43" y2="39.34" xlink:href="#linear-gradient"/><linearGradient id="linear-gradient-59" x1="36.85" y1="38.11" x2="37.23" y2="38.11" xlink:href="#linear-gradient"/><linearGradient id="linear-gradient-60" x1="36.4" y1="38.11" x2="36.71" y2="38.11" xlink:href="#linear-gradient"/><linearGradient id="linear-gradient-61" x1="35.96" y1="38.11" x2="36.39" y2="38.11" xlink:href="#linear-gradient"/><linearGradient id="linear-gradient-62" x1="35.48" y1="38.12" x2="36.08" y2="38.12" xlink:href="#linear-gradient"/><linearGradient id="linear-gradient-63" x1="6.06" y1="25.81" x2="9.65" y2="25.81" xlink:href="#linear-gradient"/><linearGradient id="linear-gradient-64" x1="39.03" y1="25.98" x2="39.59" y2="25.98" xlink:href="#linear-gradient"/><linearGradient id="linear-gradient-65" x1="39.72" y1="25.54" x2="40.29" y2="25.54" xlink:href="#linear-gradient"/><linearGradient id="linear-gradient-66" x1="40.42" y1="25.55" x2="40.99" y2="25.55" xlink:href="#linear-gradient"/><linearGradient id="linear-gradient-67" x1="41.12" y1="25.55" x2="41.69" y2="25.55" xlink:href="#linear-gradient"/><linearGradient id="linear-gradient-68" x1="38.93" y1="26.44" x2="42.77" y2="26.44" xlink:href="#linear-gradient"/><linearGradient id="linear-gradient-69" x1="22.21" y1="10.51" x2="26.83" y2="10.51" xlink:href="#linear-gradient"/><linearGradient id="linear-gradient-70" x1="23.76" y1="9.57" x2="26.72" y2="9.57" xlink:href="#linear-gradient"/><linearGradient id="linear-gradient-71" x1="21.8" y1="11.78" x2="24.26" y2="11.78" xlink:href="#linear-gradient"/><linearGradient id="linear-gradient-72" x1="22.37" y1="41.01" x2="26.26" y2="41.01" xlink:href="#linear-gradient"/><linearGradient id="linear-gradient-73" x1="25.02" y1="41.59" x2="26.41" y2="41.59" xlink:href="#linear-gradient"/><linearGradient id="linear-gradient-74" x1="22.22" y1="41.59" x2="23.62" y2="41.59" xlink:href="#linear-gradient"/><linearGradient id="linear-gradient-75" x1="22.36" y1="42.29" x2="26.28" y2="42.29" xlink:href="#linear-gradient"/></defs><polygon class="cls-1" points="17.71 18.88 13.97 15.54 9.52 15.54 9.52 15.03 14.16 15.03 18.05 18.51 17.71 18.88"/><polygon class="cls-2" points="31.13 18.88 34.87 15.54 39.32 15.54 39.32 15.03 34.67 15.03 30.79 18.51 31.13 18.88"/><polygon class="cls-3" points="17.71 32.73 13.97 36.08 9.52 36.08 9.52 36.58 14.16 36.58 18.05 33.11 17.71 32.73"/><polygon class="cls-4" points="31.13 32.73 34.87 36.08 39.32 36.08 39.32 36.58 34.67 36.58 30.79 33.11 31.13 32.73"/><rect class="cls-5" x="24.16" y="11.7" width="0.51" height="4.32"/><rect class="cls-6" x="24.16" y="35.6" width="0.51" height="4.32"/><rect class="cls-7" x="10.31" y="25.56" width="4.32" height="0.51"/><rect class="cls-8" x="34.21" y="25.56" width="4.32" height="0.51"/><path class="cls-9" d="M17.77,25.81a6.65,6.65,0,0,1,11.65-4.38l1.8-1.64A9.08,9.08,0,1,0,17.77,32l1.8-1.64A6.63,6.63,0,0,1,17.77,25.81Z"/><path class="cls-10" d="M24.42,34.9a9.08,9.08,0,0,0,6.8-15.11l-1.8,1.63a6.65,6.65,0,0,1-9.85,8.94L17.77,32A9.08,9.08,0,0,0,24.42,34.9Z"/><path class="cls-11" d="M28.2,25.81a3.78,3.78,0,0,1-6.5,2.62l-2.12,1.93a6.65,6.65,0,0,0,9.84-8.93l-2.13,1.93A3.73,3.73,0,0,1,28.2,25.81Z"/><path class="cls-12" d="M24.42,19.16a6.65,6.65,0,0,0-4.85,11.2l2.13-1.93a3.78,3.78,0,1,1,5.43-5.25l.16.18,2.13-1.93A6.62,6.62,0,0,0,24.42,19.16Z"/><path class="cls-13" d="M22.69,25.81a1.73,1.73,0,0,1,3.08-1.07l1.52-1.38a3.77,3.77,0,1,0-5.75,4.89,1.37,1.37,0,0,0,.16.18l1.52-1.38A1.7,1.7,0,0,1,22.69,25.81Z"/><path class="cls-14" d="M24.42,29.59a3.78,3.78,0,0,0,3.78-3.78,3.73,3.73,0,0,0-.91-2.45l-1.52,1.38a1.73,1.73,0,0,1-2.55,2.31L21.7,28.43A3.77,3.77,0,0,0,24.42,29.59Z"/><path class="cls-15" d="M24.42,27.53a1.72,1.72,0,0,0,1.35-2.79l-2.55,2.31A1.72,1.72,0,0,0,24.42,27.53Z"/><path class="cls-16" d="M24.42,24.08a1.73,1.73,0,0,0-1.2,3l2.55-2.31A1.74,1.74,0,0,0,24.42,24.08Z"/><path class="cls-17" d="M33.5,22a9.62,9.62,0,0,0-1.7-2.7l-.29.26-.29.26A9.08,9.08,0,0,1,17.77,32l-.29.27-.28.25.24.26A9.86,9.86,0,0,0,33.5,22Z"/><path class="cls-18" d="M31.39,18.84A9.86,9.86,0,0,0,17.2,32.52l.28-.26.29-.26A9.08,9.08,0,1,1,31.22,19.79l.29-.26.29-.26C31.67,19.12,31.53,19,31.39,18.84Z"/><polygon class="cls-19" points="24.55 25.9 26.14 30.52 26.84 28.77 28.29 30.19 28.69 29.78 24.55 25.9"/><path class="cls-20" d="M26.14,30.59h0a.08.08,0,0,1-.07-.05l-1.59-4.62a.06.06,0,0,1,0-.08.08.08,0,0,1,.09,0l4.14,3.89a.09.09,0,0,1,0,.1h0l-.4.41a.09.09,0,0,1-.1,0l-1.37-1.35-.67,1.66A.07.07,0,0,1,26.14,30.59Zm-1.43-4.45,1.43,4.17.64-1.57a.07.07,0,0,1,.09,0l0,0,1.39,1.37.3-.3Z"/><polygon class="cls-21" points="24.55 25.9 29.28 27.18 27.64 27.96 29.1 29.34 28.69 29.78 24.55 25.9"/><path class="cls-22" d="M28.69,29.85h-.05L24.5,26a.07.07,0,0,1,0-.1.06.06,0,0,1,.07,0l4.73,1.28a.06.06,0,0,1,.05.06.08.08,0,0,1,0,.07L27.77,28l1.38,1.31a.08.08,0,0,1,0,.1l-.41.44s0,0,0,0ZM24.81,26l3.88,3.64.31-.33L27.6,28a.06.06,0,0,1,0-.07.05.05,0,0,1,0-.05l1.47-.71Z"/><polygon class="cls-19" points="24.55 25.9 26.14 30.52 26.84 28.77 28.29 30.19 28.69 29.78 24.55 25.9"/><polygon class="cls-21" points="24.55 25.9 29.28 27.18 27.64 27.96 29.1 29.34 28.69 29.78 24.55 25.9"/><path class="cls-23" d="M37.85,14.22a.08.08,0,0,1,.08,0h.47a.08.08,0,0,1,.08,0l.1-.1h-.83Z"/><polygon class="cls-24" points="38.55 13.36 38.51 13.36 38.37 13.36 38.34 13.36 38.21 13.36 38.16 13.36 38.13 13.36 37.96 13.36 37.93 13.36 37.9 13.36 37.72 13.36 37.72 13.46 38.62 13.46 38.62 13.35 38.55 13.36 38.55 13.36"/><rect class="cls-25" x="37.72" y="13.76" width="0.9" height="0.09"/><path class="cls-26" d="M37.93,12.08a.12.12,0,0,0-.1,0l-.07,0a.17.17,0,0,0,0,.1h0a.19.19,0,0,0,0,.07l.09,0H38v0A.22.22,0,0,0,37.93,12.08Z"/><path class="cls-27" d="M38.66,13.52h-1a.1.1,0,0,0-.11.1.11.11,0,0,0,.11.11h1a.1.1,0,0,0,.1-.11.09.09,0,0,0-.1-.1Z"/><path class="cls-28" d="M38.66,13.88h-1a.11.11,0,0,0-.11.1.11.11,0,0,0,.11.11h1a.1.1,0,0,0,.1-.11.1.1,0,0,0-.1-.1Z"/><path class="cls-29" d="M38.48,14.26a.09.09,0,0,0-.08,0h-.47a.09.09,0,0,0-.08,0h0a.11.11,0,0,0,0,.15l.07,0h.47a.11.11,0,0,0,.11-.11s0-.05,0-.06Z"/><path class="cls-30" d="M38.16,10.38h0a1.23,1.23,0,0,0-1.23,1.21,1.64,1.64,0,0,0,.39,1h0a1.45,1.45,0,0,1,.31.65.1.1,0,0,0,.07.1H38v-1h-.14a.16.16,0,0,1-.12,0,.13.13,0,0,1,0-.1.2.2,0,0,1,0-.13.21.21,0,0,1,.11,0,.18.18,0,0,1,.13.06.25.25,0,0,1,.05.19v0h.29v0a.26.26,0,0,1,.06-.19A.16.16,0,0,1,38.5,12a.18.18,0,0,1,.1,0,.21.21,0,0,1,0,.13.14.14,0,0,1,0,.1.16.16,0,0,1-.12,0h-.13v1h.28a.09.09,0,0,0,.06-.09,1.36,1.36,0,0,1,.31-.65h0a1.67,1.67,0,0,0,.37-1A1.23,1.23,0,0,0,38.16,10.38Zm-.21.34a1,1,0,0,0-.28.11.7.7,0,0,0-.37.41,1,1,0,0,0,.09.8.05.05,0,0,1,0,.08h0l-.05,0a1.16,1.16,0,0,1-.11-.91.71.71,0,0,1,.18-.3,1.1,1.1,0,0,1,.25-.19,1.21,1.21,0,0,1,.32-.11s.06,0,.07.05a.06.06,0,0,1,0,.07Z"/><polygon class="cls-31" points="38.18 12.3 38.15 12.3 38.02 12.3 38.02 13.35 38.31 13.35 38.31 12.3 38.18 12.3"/><path class="cls-32" d="M38.35,12.26h.14l.09,0a.19.19,0,0,0,0-.07h0a.17.17,0,0,0,0-.1l-.07,0a.12.12,0,0,0-.1,0,.22.22,0,0,0,0,.16Z"/><polygon class="cls-33" points="38.35 13.35 38.35 13.36 38.31 13.36 38.31 13.35 38.02 13.35 38.02 13.36 37.98 13.36 37.98 13.35 37.72 13.35 37.72 13.36 37.9 13.36 37.93 13.36 37.96 13.36 38.13 13.36 38.16 13.36 38.21 13.36 38.34 13.36 38.37 13.36 38.51 13.36 38.55 13.36 38.55 13.36 38.63 13.35 38.63 13.35 38.35 13.35"/><rect class="cls-34" x="38.31" y="13.35" width="0.04" height="0.01"/><rect class="cls-35" x="37.98" y="13.35" width="0.04" height="0.01"/><path class="cls-36" d="M11.77,13a.29.29,0,0,1,0-.09.85.85,0,0,1,.73-.7h.24a1,1,0,0,0-.29-.58h0s0,0,0,0a1.14,1.14,0,0,0-.71-.25H10.44a1.1,1.1,0,0,0-.75.35h0a1.75,1.75,0,0,0-.2.35,1.71,1.71,0,0,0-.05.55,1,1,0,0,0,.57.85,1.13,1.13,0,0,0,.51.12h.37c-.07.21-.15.42-.23.63l.44-.31.45-.31,0,0a1.22,1.22,0,0,0,.27,0s0-.07,0-.11A1.39,1.39,0,0,1,11.77,13Zm-1.3-.4a.2.2,0,0,1-.19-.19.19.19,0,0,1,.19-.18.18.18,0,0,1,.18.18.19.19,0,0,1-.18.19Zm.63,0h0a.19.19,0,0,1-.19-.19.18.18,0,0,1,.19-.18h0a.17.17,0,0,1,.17.19.19.19,0,0,1-.17.18Zm.61,0a.19.19,0,0,1-.19-.19.18.18,0,0,1,.19-.18.18.18,0,0,1,.18.18.18.18,0,0,1-.18.19Z"/><path class="cls-37" d="M13,12.31h-.4a.73.73,0,0,0-.71.74v0a.73.73,0,0,0,.11.43.71.71,0,0,0,.6.34s.08,0,.11,0l.29.21.23.16a.09.09,0,0,0,.13,0,.13.13,0,0,0,0-.06c0-.1-.07-.19-.1-.29a.88.88,0,0,0,.28,0,.74.74,0,0,0,.48-.35.79.79,0,0,0,.08-.45v-.1a.72.72,0,0,0-.73-.61Z"/><path class="cls-38" d="M11.16,36.78A2.23,2.23,0,1,0,13.38,39h0A2.23,2.23,0,0,0,11.16,36.78Zm0,4.18a1.95,1.95,0,1,1,1.94-2,1.95,1.95,0,0,1-1.94,2Z"/><path class="cls-39" d="M11.16,37.45a.16.16,0,0,0,.15-.16.15.15,0,0,0-.15-.15.16.16,0,0,0-.16.15h0A.16.16,0,0,0,11.16,37.45Z"/><path class="cls-40" d="M11.16,40.58a.16.16,0,0,0-.16.15.16.16,0,0,0,.16.16.16.16,0,0,0,.15-.16h0a.15.15,0,0,0-.15-.15Z"/><path class="cls-41" d="M12.87,38.86a.15.15,0,0,0-.15.15.16.16,0,0,0,.15.16A.16.16,0,0,0,13,39h0a.15.15,0,0,0-.15-.15Z"/><path class="cls-42" d="M9.44,38.86a.16.16,0,0,0-.16.15.16.16,0,0,0,.16.16A.16.16,0,0,0,9.59,39h0A.15.15,0,0,0,9.44,38.86Z"/><path class="cls-43" d="M10.44,37.57a.1.1,0,1,0-.1.1.11.11,0,0,0,.1-.1Z"/><path class="cls-44" d="M9.81,38.26a.09.09,0,0,0-.09-.1.09.09,0,0,0-.1.1.09.09,0,0,0,.1.09.09.09,0,0,0,.09-.09Z"/><path class="cls-45" d="M12.58,39.61a.1.1,0,0,0,0,.2.1.1,0,0,0,0-.2Z"/><path class="cls-46" d="M12,40.3a.1.1,0,0,0,0,.2.1.1,0,0,0,.1-.1h0a.1.1,0,0,0-.1-.1Z"/><path class="cls-47" d="M9.76,39.62a.1.1,0,0,0,0,.2.11.11,0,0,0,.1-.1h0A.11.11,0,0,0,9.76,39.62Z"/><path class="cls-48" d="M10.45,40.25a.09.09,0,0,0-.1.09.09.09,0,0,0,.1.1.09.09,0,0,0,.09-.1.09.09,0,0,0-.09-.09Z"/><path class="cls-49" d="M11.9,37.58a.1.1,0,0,0,.1-.1.1.1,0,1,0-.2,0h0A.1.1,0,0,0,11.9,37.58Z"/><path class="cls-50" d="M12.59,38a.09.09,0,0,0-.1.1.09.09,0,0,0,.1.09.11.11,0,0,0,.1-.09h0a.1.1,0,0,0-.1-.1Z"/><path class="cls-51" d="M11.9,40.25a.08.08,0,0,0,0-.09l-.61-1a.22.22,0,0,0,0-.29l-.07,0V38a.07.07,0,1,0-.14,0v.83h0a.21.21,0,0,0-.13.27.2.2,0,0,0,.2.13h0l.61,1a.07.07,0,0,0,.09,0Z"/><path class="cls-52" d="M37.44,36.78v2.61s.59-.75,1-.81h.25v-.92l-.2,0A1.78,1.78,0,0,1,37.44,36.78Z"/><rect class="cls-53" x="37.23" y="36.78" width="0.15" height="2.6"/><rect class="cls-54" x="38.84" y="37.61" width="0.7" height="1.03"/><path class="cls-55" d="M39.64,37.69v.83a.47.47,0,0,0,.22-.62.45.45,0,0,0-.22-.21Z"/><path class="cls-56" d="M38.87,38.72h.56l-.59,1.12a.15.15,0,0,1-.22.09c-.17-.06-.07-.22-.07-.22Z"/><path class="cls-57" d="M37.23,37.74s-.38,0-.38.35.38.38.38.38Z"/><path class="cls-58" d="M36.65,38.53h0a.63.63,0,0,1-.21-.44.56.56,0,0,1,.21-.38.06.06,0,1,1,.08.09h0a.49.49,0,0,0-.17.3.5.5,0,0,0,.17.34,0,0,0,0,1,0,.08S36.67,38.53,36.65,38.53Z"/><path class="cls-59" d="M36.33,38.9h0a1.1,1.1,0,0,1-.34-.8,1,1,0,0,1,.34-.76.05.05,0,0,1,.08,0,.06.06,0,0,1,0,.09.82.82,0,0,0-.29.66,1,1,0,0,0,.29.7.06.06,0,0,1,0,.09Z"/><path class="cls-60" d="M36,39.26h0a1.7,1.7,0,0,1-.5-1.16A1.42,1.42,0,0,1,36,37a.06.06,0,0,1,.09,0,.06.06,0,0,1,0,.08h0a1.34,1.34,0,0,0-.45,1,1.55,1.55,0,0,0,.46,1.07.06.06,0,0,1,0,.09Z"/><path class="cls-61" d="M7.86,24a1.8,1.8,0,1,0,1.79,1.8A1.81,1.81,0,0,0,7.86,24Zm0,3.38a1.58,1.58,0,1,1,1.58-1.58h0A1.6,1.6,0,0,1,7.86,27.39Z"/><polygon class="cls-62" points="39.59 26.25 39.59 25.52 39.03 25.52 39.03 26.45 39.38 26.33 39.59 26.25"/><polygon class="cls-63" points="40.05 26.1 40.06 26.11 40.29 26.29 40.29 24.79 39.73 24.79 39.73 26.21 39.9 26.15 40.05 26.1"/><polygon class="cls-64" points="40.57 26.53 40.61 26.51 40.99 26.37 40.99 24.57 40.42 24.57 40.42 26.41 40.55 26.51 40.57 26.53"/><polygon class="cls-65" points="41.69 26.1 41.69 24.79 41.12 24.79 41.12 26.32 41.34 26.23 41.69 26.1"/><polygon class="cls-66" points="41.97 25.84 42.08 26.11 42.06 26.12 41.69 26.26 41.34 26.39 41.12 26.47 41.03 26.51 40.99 26.53 40.61 26.67 40.57 26.68 40.55 26.67 40.42 26.56 40.29 26.45 40.06 26.26 40.05 26.25 39.9 26.3 39.73 26.36 39.59 26.41 39.38 26.48 39.03 26.6 38.93 26.63 39.06 26.94 39.59 26.76 39.59 26.76 39.73 26.71 39.95 26.64 39.98 26.63 39.99 26.64 40.29 26.89 40.48 27.05 40.73 26.95 40.99 26.86 41.12 26.81 41.39 26.71 41.41 26.7 41.69 26.59 42.17 26.41 42.3 26.68 42.77 25.97 41.97 25.84"/><path class="cls-67" d="M25.67,12.12l.24-.41a.19.19,0,0,1,.25-.06h0l.67.39A.84.84,0,0,0,26,11.2a.67.67,0,0,0-.24,0l-.12-.08-1-1.05h0l-.71-.75a.29.29,0,0,1-.08-.13.84.84,0,0,0-1.21-1l.67.4a.17.17,0,0,1,.07.24l-.24.41a.17.17,0,0,1-.24.07L22.21,9a.83.83,0,0,0,.83.83.67.67,0,0,0,.24,0l.12.08,1,1.06h0l.71.74a.26.26,0,0,1,.08.13.83.83,0,0,0,.55,1,.8.8,0,0,0,.66-.07l-.67-.39a.18.18,0,0,1-.07-.25Z"/><path class="cls-68" d="M26.72,8.38l-.29-.29-.49.2-.2.49L23.8,10.72c-.09.09,0,.15.07.23s.13.15.22.06L26,9.07l.49-.19Z"/><path class="cls-69" d="M24.17,10.93l-.29-.29a.33.33,0,0,0-.46,0l-1.51,1.51a.32.32,0,0,0,0,.46l.29.29a.32.32,0,0,0,.46,0l1.51-1.51A.33.33,0,0,0,24.17,10.93ZM22,12.39,22,12.33s.05-.13.15-.23l1.21-1.22c.11-.1.21-.17.24-.14l.06.06s-.05.12-.15.23l-1.21,1.21C22.17,12.35,22.07,12.41,22,12.39Zm.22.22-.06-.06s0-.13.15-.24l1.21-1.21c.11-.1.21-.17.24-.14l.05,0s0,.13-.14.24L22.5,12.46c-.11.11-.22.17-.24.15Zm1.67-1.14-1.22,1.21c-.1.1-.21.17-.23.15l-.06-.06s0-.13.15-.24l1.21-1.21c.1-.1.21-.17.23-.15l.06.06s0,.13-.14.24Z"/><path class="cls-70" d="M24.32,41.83l1.94-1.62H22.37Z"/><path class="cls-71" d="M26.41,40.37a.43.43,0,0,1,0,0L25,41.47l1.38,1.39s0,0,0,0Z"/><path class="cls-72" d="M22.24,40.32s0,0,0,0v2.44a.09.09,0,0,1,0,0l1.39-1.39Z"/><path class="cls-73" d="M24.88,41.58l-.51.43a.08.08,0,0,1-.11,0l-.51-.43L22.36,43h3.92Z"/></svg>