<svg version="1.2" xmlns="http://www.w3.org/2000/svg" viewBox="0 0 520 419" width="520" height="419">
	<title>صورة رقم1-svg</title>
	<style>
		.s0 { fill: #ebebeb } 
		.s1 { fill: #dbdbdb } 
		.s2 { fill: #ffffff } 
		.s3 { opacity: .5;fill: #ebebeb } 
		.s4 { fill: #c7c7c7 } 
		.s5 { fill: #a6a6a6 } 
		.s6 { fill: #263238 } 
		.s7 { fill: #1b4071 } 
		.s8 { fill: #37474f } 
		.s9 { fill: #455a64 } 
		.s10 { opacity: .8;fill: #1b4071 } 
		.s11 { opacity: .4;fill: #1b4071 } 
		.s12 { fill: #f7a9a0 } 
		.s13 { opacity: .1;fill: #263238 } 
		.s14 { opacity: .1;fill: #000102 } 
	</style>
	<path id="Layer" class="s0" d="m96.6 70.7c8-25.8-2.4-54.9-23-64.8-20.7-9.9-43.9 3-51.9 28.8-7.9 25.8 2.4 54.9 23.1 64.8 20.6 9.9 43.9-3 51.8-28.8z"/>
	<path id="Layer" class="s1" d="m69.6 100.4c20.6-5.9 33.5-31.6 28.7-57.3-4.7-25.8-25.3-41.9-45.9-35.9-20.6 5.9-33.4 31.6-28.7 57.4 4.7 25.7 25.3 41.8 45.9 35.8z"/>
	<path id="Layer" class="s2" d="m70.4 97.1c19.1-6.5 30.4-31.1 25.2-55-5.2-23.9-24.9-38-44-31.5-19.1 6.5-30.4 31.1-25.2 55 5.2 23.9 24.9 38 44 31.5z"/>
	<path id="Layer" class="s3" d="m96 44.3c-16.3 12.4-43.2 32.7-58.1 43.8-4.3-4.5-7.6-10.1-9.8-16.5l49.6-57.5c4.6 3.1 8.7 7.4 11.8 12.6 3.2 5.2 5.4 11.2 6.5 17.6z"/>
	<path id="Layer" class="s3" d="m96.8 55.4c-0.1 5-0.9 9.9-2.4 14.5l-44.7 26.5q-2.9-1.2-5.6-3c13.5-9.8 38.2-27.6 52.7-38z"/>
	<path id="Layer" class="s4" d="m61.4 12.2h-0.7v6.8h0.7z"/>
	<path id="Layer" class="s4" d="m44.7 17.6l-0.6 0.4 2.7 5.9 0.6-0.4z"/>
	<path id="Layer" class="s4" d="m32.4 32.7l-0.4 0.7 4.7 3.4 0.4-0.7z"/>
	<path id="Layer" class="s4" d="m33.2 53.4h-5.5v0.9h5.5z"/>
	<path id="Layer" class="s4" d="m36.7 70.8l-4.7 3.4 0.4 0.8 4.7-3.4z"/>
	<path id="Layer" class="s4" d="m46.8 83.7l-2.7 5.9 0.6 0.4 2.7-5.8z"/>
	<path id="Layer" class="s4" d="m61.4 88.6h-0.7v6.8h0.7z"/>
	<path id="Layer" class="s4" d="m75.2 83.7l-0.6 0.5 2.7 5.8 0.6-0.4z"/>
	<path id="Layer" class="s4" d="m85.3 70.8l-0.4 0.8 4.7 3.4 0.4-0.8z"/>
	<path id="Layer" class="s4" d="m94.3 53.4h-5.5v0.9h5.5z"/>
	<path id="Layer" class="s4" d="m90.2 33l-4.8 3.4 0.4 0.7 4.7-3.4z"/>
	<path id="Layer" class="s4" d="m77.3 17.6l-2.7 5.9 0.6 0.4 2.7-5.9z"/>
	<path id="Layer" class="s4" d="m61.5 15.3l1.2 41.5h-3.4l1.3-41.5z"/>
	<path id="Layer" class="s5" d="m82.2 39.3l-22.3 17.9-1.7-3.8 23.6-15.1z"/>
	<path id="Layer" class="s4" d="m62.2 53.8q0 0.5-0.2 0.8-0.2 0.4-0.5 0.6-0.3 0.1-0.7 0-0.3 0-0.6-0.4-0.2-0.3-0.3-0.7-0.1-0.4 0.1-0.8 0.1-0.4 0.4-0.7 0.3-0.2 0.6-0.2c0.3 0 0.6 0.1 0.9 0.4 0.2 0.3 0.3 0.6 0.3 1z"/>
	<path id="Layer" class="s0" d="m375.1 312.2h140.6l2.9-72.1h-146.4z"/>
	<path id="Layer" fill-rule="evenodd" class="s1" d="m509 273.1h-58.8l-1.1-25h61.2zm-58.1-0.9h57.4l1.2-23.2h-59.7z"/>
	<path id="Layer" fill-rule="evenodd" class="s1" d="m507.9 301.9h-55.4l-0.9-22.6h57.4zm-54.7-0.9h54.1l1-20.8h-55.9z"/>
	<path id="Layer" fill-rule="evenodd" class="s1" d="m485.3 263.3h-9.9l-0.6-6h11.1zm-9.3-0.9h8.7l0.4-4.2h-9.5z"/>
	<path id="Layer" fill-rule="evenodd" class="s1" d="m485.3 293.6h-9.9l-0.6-6h11.1zm-9.3-0.9h8.7l0.4-4.2h-9.5z"/>
	<path id="Layer" fill-rule="evenodd" class="s1" d="m439.9 273.1h-58.8l-1.1-25h61.2zm-58.2-0.9h57.5l1.2-23.2h-59.7z"/>
	<path id="Layer" fill-rule="evenodd" class="s1" d="m438.8 301.9h-55.4l-0.9-22.6h57.4zm-54.7-0.9h54l1.1-20.8h-55.9z"/>
	<path id="Layer" fill-rule="evenodd" class="s1" d="m416.1 263.3h-9.8l-0.7-6h11.2zm-9.3-0.9h8.6l0.5-4.2h-9.5z"/>
	<path id="Layer" fill-rule="evenodd" class="s1" d="m416.1 293.6h-9.8l-0.7-6h11.2zm-9.3-0.9h8.6l0.5-4.2h-9.5z"/>
	<path id="Layer" class="s0" d="m387.7 312.2l-0.9 7.9-1.8 15.8h-3.4v-23.7z"/>
	<path id="Layer" class="s1" d="m387.7 312.2l-0.9 7.9h-5.2v-7.9z"/>
	<path id="Layer" class="s0" d="m503.1 312.2l0.8 7.9 1.8 15.8h3.5v-23.7z"/>
	<path id="Layer" class="s1" d="m503.1 312.2l0.8 7.9h5.3v-7.9z"/>
	<path id="Layer" class="s2" d="m506.6 119.9h-101.2v-114.5h101.2v72.7c0 10.2 0 41.8 0 41.8z"/>
	<path id="Layer" fill-rule="evenodd" class="s0" d="m506.6 119.9l-50.5 0.3-50.7 0.1h-0.2v-0.4l-0.2-114.5v-0.5h0.4l101.2 0.2h0.3v0.3l-0.1 57.3zm0 0l-0.2-114.2-100.6 0.1-0.2 113.7 50.3 0.1zm-0.3-114.1l0.3-0.1-0.3-0.3zm-100.5 0.2v-0.5l-0.4 0.5zm-0.2 113.7h-0.2l0.2 0.3z"/>
	<path id="Layer" class="s0" d="m506.6 5.4h-101.2v21.7h101.2z"/>
	<path id="Layer" class="s4" d="m412.6 0.4h-2.1v10.8h2.1z"/>
	<path id="Layer" class="s4" d="m419 0.4h-2.2v10.8h2.2z"/>
	<path id="Layer" class="s4" d="m425.4 0.4h-2.2v10.8h2.2z"/>
	<path id="Layer" class="s4" d="m431.7 0.4h-2.2v10.8h2.2z"/>
	<path id="Layer" class="s4" d="m438.1 0.4h-2.2v10.8h2.2z"/>
	<path id="Layer" class="s4" d="m444.4 0.4h-2.2v10.8h2.2z"/>
	<path id="Layer" class="s4" d="m450.8 0.4h-2.2v10.8h2.2z"/>
	<path id="Layer" class="s4" d="m457.1 0.4h-2.1v10.8h2.1z"/>
	<path id="Layer" class="s4" d="m463.5 0.4h-2.2v10.8h2.2z"/>
	<path id="Layer" class="s4" d="m469.8 0.4h-2.1v10.8h2.1z"/>
	<path id="Layer" class="s4" d="m476.2 0.4h-2.2v10.8h2.2z"/>
	<path id="Layer" class="s4" d="m482.5 0.4h-2.1v10.8h2.1z"/>
	<path id="Layer" class="s4" d="m488.9 0.4h-2.2v10.8h2.2z"/>
	<path id="Layer" class="s4" d="m495.2 0.4h-2.1v10.8h2.1z"/>
	<path id="Layer" class="s4" d="m501.6 0.4h-2.2v10.8h2.2z"/>
	<path id="Layer" class="s4" d="m425.6 36.5h-11.4v14.2h11.4z"/>
	<path id="Layer" class="s0" d="m437.6 36.5h-11.3v14.2h11.3z"/>
	<path id="Layer" class="s0" d="m449.7 36.5h-11.4v14.2h11.4z"/>
	<path id="Layer" class="s0" d="m461.7 36.5h-11.3v14.2h11.3z"/>
	<path id="Layer" class="s0" d="m473.8 36.5h-11.4v14.2h11.4z"/>
	<path id="Layer" class="s0" d="m485.8 36.5h-11.4v14.2h11.4z"/>
	<path id="Layer" class="s0" d="m497.8 36.5h-11.3v14.2h11.3z"/>
	<path id="Layer" class="s4" d="m425.6 51.5h-11.4v14.2h11.4z"/>
	<path id="Layer" class="s0" d="m437.6 51.5h-11.3v14.2h11.3z"/>
	<path id="Layer" class="s0" d="m449.7 51.5h-11.4v14.2h11.4z"/>
	<path id="Layer" class="s0" d="m461.7 51.5h-11.3v14.2h11.3z"/>
	<path id="Layer" class="s0" d="m473.8 51.5h-11.4v14.2h11.4z"/>
	<path id="Layer" class="s0" d="m485.8 51.5h-11.4v14.2h11.4z"/>
	<path id="Layer" class="s0" d="m497.8 51.5h-11.3v14.2h11.3z"/>
	<path id="Layer" class="s4" d="m425.6 66.5h-11.4v14.2h11.4z"/>
	<path id="Layer" class="s0" d="m437.6 66.5h-11.3v14.2h11.3z"/>
	<path id="Layer" class="s0" d="m449.7 66.5h-11.4v14.2h11.4z"/>
	<path id="Layer" class="s0" d="m461.7 66.5h-11.3v14.2h11.3z"/>
	<path id="Layer" class="s0" d="m473.8 66.5h-11.4v14.2h11.4z"/>
	<path id="Layer" class="s0" d="m485.8 66.5h-11.4v14.2h11.4z"/>
	<path id="Layer" class="s0" d="m497.8 66.5h-11.3v14.2h11.3z"/>
	<path id="Layer" class="s4" d="m425.6 81.5h-11.4v14.2h11.4z"/>
	<path id="Layer" class="s0" d="m437.6 81.5h-11.3v14.2h11.3z"/>
	<path id="Layer" class="s0" d="m449.7 81.5h-11.4v14.2h11.4z"/>
	<path id="Layer" class="s0" d="m461.7 81.5h-11.3v14.2h11.3z"/>
	<path id="Layer" class="s0" d="m473.8 81.5h-11.4v14.2h11.4z"/>
	<path id="Layer" class="s0" d="m485.8 81.5h-11.4v14.2h11.4z"/>
	<path id="Layer" class="s0" d="m497.8 81.5h-11.3v14.2h11.3z"/>
	<path id="Layer" class="s4" d="m425.6 96.5h-11.4v14.2h11.4z"/>
	<path id="Layer" class="s0" d="m437.6 96.5h-11.3v14.2h11.3z"/>
	<path id="Layer" class="s0" d="m449.7 96.5h-11.4v14.2h11.4z"/>
	<path id="Layer" class="s0" d="m461.7 96.5h-11.3v14.2h11.3z"/>
	<path id="Layer" class="s0" d="m473.8 96.5h-11.4v14.2h11.4z"/>
	<path id="Layer" class="s0" d="m485.8 96.5h-11.4v14.2h11.4z"/>
	<path id="Layer" class="s0" d="m497.8 96.5h-11.3v14.2h11.3z"/>
	<path id="Layer" class="s5" d="m418.1 35.1q0 0 0 0 0.1 0 0.1 0 0.1 0.2 0.3 0.2 0.2 0 0.3-0.1 0 0 0-0.1 0 0 0-0.1 0 0 0 0 0 0 0 0 0-0.1 0-0.1-0.1-0.1-0.3-0.1-0.1 0-0.2-0.1-0.1-0.1-0.2-0.2 0-0.1 0-0.2 0 0 0-0.1 0.1-0.1 0.1-0.2 0.1-0.1 0.3-0.1 0.2 0 0.4 0.2 0 0 0 0 0 0.1 0 0.1 0 0 0 0 0 0.1-0.1 0.1 0 0 0-0.1 0 0 0 0-0.2-0.1-0.3-0.1-0.1 0-0.2 0.1 0 0-0.1 0 0 0 0 0.1 0 0 0 0.1h0.1q0.1 0 0.2 0.1 0.1 0 0.2 0.1 0.1 0 0.2 0.1 0 0.1 0 0.2 0 0.1 0 0.2-0.1 0.1-0.1 0.2-0.2 0.1-0.4 0.1-0.2 0-0.4-0.2 0-0.1 0-0.1 0 0 0.1 0z"/>
	<path id="Layer" class="s5" d="m419.8 35.5q-0.2 0-0.4-0.2-0.1-0.2-0.1-0.5v-0.7q0-0.1 0-0.1 0-0.1 0.1-0.1 0 0 0 0 0 0.1 0.1 0.1 0 0 0 0 0 0 0 0.1v0.7q0 0.2 0.1 0.3 0.1 0.1 0.2 0.1 0.1 0 0.2-0.1 0.1-0.1 0.1-0.3v-0.7q0-0.1 0-0.1 0.1-0.1 0.1-0.1 0.1 0 0.1 0.1 0 0 0 0.1v0.7q0 0.3-0.1 0.5-0.2 0.2-0.4 0.2z"/>
	<path id="Layer" class="s5" d="m420.9 35.4q0 0 0 0.1-0.1 0-0.1 0 0 0-0.1 0 0-0.1 0-0.1v-1.3q0-0.1 0-0.1 0 0 0.1 0 0-0.1 0 0 0.1 0 0.1 0l0.6 1v-0.9q0-0.1 0-0.1 0 0 0.1 0 0 0 0 0 0 0 0 0.1v1.3q0 0 0 0.1 0 0 0 0-0.1 0-0.1 0l-0.6-1z"/>
	<path id="Layer" class="s5" d="m431.1 34.1v1.3q0 0-0.1 0.1 0 0 0 0-0.1 0-0.1 0 0-0.1 0-0.1v-1l-0.3 0.5q0 0 0 0 0 0-0.1 0 0 0 0 0 0 0 0 0l-0.3-0.5v1q0 0 0 0.1-0.1 0-0.1 0 0 0-0.1 0 0-0.1 0-0.1v-1.3q0-0.1 0-0.1 0.1-0.1 0.1-0.1 0 0 0 0 0.1 0 0.1 0l0.3 0.7 0.4-0.7q0 0 0.1 0 0 0 0 0 0 0 0 0.1 0.1 0 0.1 0 0 0 0 0.1z"/>
	<path id="Layer" fill-rule="evenodd" class="s5" d="m432.4 34.1q0.2 0.3 0.2 0.6 0 0.3-0.2 0.5-0.1 0.2-0.2 0.2-0.1 0.1-0.2 0.1-0.1 0-0.3-0.1-0.1 0-0.2-0.2-0.1-0.2-0.1-0.5 0-0.3 0.1-0.6 0.1-0.1 0.2-0.1 0.2-0.1 0.3-0.1 0.1 0 0.2 0.1 0.1 0 0.2 0.1zm0 0.6q0-0.2-0.1-0.4-0.1-0.1-0.1-0.1-0.1 0-0.2 0-0.1-0.1-0.1 0-0.1 0-0.2 0.1-0.1 0.2-0.1 0.4 0 0.2 0.1 0.4 0.1 0.1 0.2 0.1 0 0 0.1 0 0.1 0 0.2 0 0 0 0.1-0.1 0.1-0.2 0.1-0.4z"/>
	<path id="Layer" class="s5" d="m433.1 35.4q0 0 0 0.1-0.1 0-0.1 0-0.1 0-0.1 0 0-0.1 0-0.1v-1.3q0-0.1 0-0.1 0 0 0 0 0.1-0.1 0.1 0 0 0 0.1 0l0.5 1v-0.9q0-0.1 0.1-0.1 0 0 0 0 0.1 0 0.1 0 0 0 0 0.1v1.3q0 0 0 0.1 0 0-0.1 0 0 0 0 0l-0.6-1z"/>
	<path id="Layer" class="s5" d="m443.2 34.2h-0.3v1.2q0 0-0.1 0.1 0 0 0 0-0.1 0-0.1 0 0-0.1 0-0.1v-1.2h-0.3q0 0-0.1-0.1 0 0 0 0 0-0.1 0-0.1 0.1-0.1 0.1-0.1h0.8q0 0 0.1 0.1 0 0 0 0.1 0 0 0 0-0.1 0.1-0.1 0.1z"/>
	<path id="Layer" class="s5" d="m444.1 35.5q-0.2 0-0.4-0.2-0.1-0.2-0.1-0.5v-0.7q0-0.1 0-0.1 0-0.1 0-0.1 0.1 0 0.1 0.1 0 0 0 0.1v0.7q0 0.1 0.1 0.2 0 0.1 0 0.1 0.1 0.1 0.1 0.1 0.1 0 0.2 0 0 0 0.1 0 0 0 0.1-0.1 0 0 0.1-0.1 0-0.1 0-0.2v-0.7q0-0.1 0-0.1 0-0.1 0.1-0.1 0 0 0 0 0 0.1 0 0.1 0.1 0 0.1 0 0 0 0 0.1v0.7q0 0.3-0.2 0.5-0.1 0.2-0.3 0.2z"/>
	<path id="Layer" class="s5" d="m444.9 35.4v-1.3q0-0.1 0-0.1 0.1-0.1 0.1-0.1h0.6q0 0 0 0.1 0.1 0 0.1 0.1 0 0-0.1 0 0 0.1 0 0.1h-0.5v0.4h0.4q0.1 0 0.1 0 0 0.1 0 0.1 0 0.1 0 0.1 0 0-0.1 0h-0.4v0.4h0.5q0 0 0 0.1 0 0 0 0 0.1 0 0.1 0 0 0 0 0.1 0 0-0.1 0.1 0 0 0 0h-0.6q0 0-0.1 0 0-0.1 0-0.1z"/>
	<path id="Layer" class="s5" d="m455.7 34.1l-0.4 1.3h-0.2l-0.2-0.7-0.2 0.7h-0.1l-0.5-1.3q0 0 0 0 0-0.1 0-0.1 0 0 0 0 0.1 0 0.1 0 0 0 0 0l0.3 1 0.3-0.7q0 0 0 0 0-0.1 0.1-0.1 0 0 0 0.1 0 0 0.1 0l0.2 0.7 0.3-1q0.1 0 0.1-0.1 0 0 0.1 0 0 0 0 0.1 0 0 0 0 0 0 0 0.1 0 0 0 0z"/>
	<path id="Layer" class="s5" d="m456 35.4v-1.3q0-0.1 0-0.1 0.1-0.1 0.1-0.1h0.6q0 0 0.1 0.1 0 0 0 0.1 0 0 0 0-0.1 0.1-0.1 0.1h-0.5v0.4h0.4q0 0 0.1 0 0 0.1 0 0.1 0 0 0 0.1 0 0 0 0 0 0-0.1 0 0 0 0 0h-0.4v0.4h0.5q0 0 0 0.1 0.1 0 0.1 0.1 0 0-0.1 0.1 0 0 0 0h-0.6q0 0-0.1-0.1 0 0 0 0z"/>
	<path id="Layer" fill-rule="evenodd" class="s5" d="m457.1 35.4v-1.3q0-0.1 0-0.1 0-0.1 0.1-0.1h0.2q0.1 0 0.3 0.1 0.1 0 0.2 0.1 0.1 0.1 0.1 0.3 0.1 0.1 0.1 0.3 0 0.2-0.1 0.3 0 0.2-0.1 0.3-0.1 0.1-0.2 0.2-0.2 0-0.3 0h-0.2q0 0-0.1 0 0 0 0 0 0 0 0-0.1 0 0 0 0zm0.2-0.2h0.1q0.1 0 0.2 0 0 0 0.1-0.1 0.1-0.1 0.1-0.2 0-0.1 0-0.2 0-0.2-0.1-0.4-0.1-0.1-0.3-0.1h-0.1z"/>
	<path id="Layer" class="s5" d="m467.1 34.2h-0.3v1.2q0 0 0 0.1 0 0-0.1 0 0 0 0 0 0 0-0.1 0 0-0.1 0-0.1 0 0 0 0v-1.2h-0.3q0 0 0-0.1-0.1 0-0.1 0 0-0.1 0.1-0.1 0-0.1 0-0.1h0.8q0.1 0 0.1 0.1 0 0 0 0.1 0 0 0 0 0 0.1-0.1 0.1z"/>
	<path id="Layer" class="s5" d="m467.5 35.4v-1.3q0-0.1 0-0.1 0-0.1 0.1-0.1 0 0 0.1 0.1 0 0 0 0.1v0.5h0.4v-0.5q0-0.1 0.1-0.1 0-0.1 0-0.1 0.1 0 0.1 0.1 0 0 0 0.1v1.3q0 0 0 0.1 0 0-0.1 0 0 0 0 0-0.1-0.1-0.1-0.1v-0.6h-0.4v0.6q0 0 0 0.1-0.1 0-0.1 0-0.1 0-0.1 0 0-0.1 0-0.1z"/>
	<path id="Layer" class="s5" d="m469.3 35.5q-0.3 0-0.4-0.2-0.2-0.2-0.2-0.5v-0.7q0-0.1 0.1-0.1 0-0.1 0-0.1 0.1 0 0.1 0 0 0.1 0 0.1 0 0 0 0 0 0 0 0.1v0.7q0 0.1 0.1 0.2 0 0.1 0 0.1 0.1 0.1 0.1 0.1 0.1 0 0.2 0 0 0 0.1 0 0 0 0.1-0.1 0 0 0.1-0.1 0-0.1 0-0.2v-0.7q0-0.1 0-0.1 0-0.1 0.1-0.1 0 0 0 0.1 0.1 0 0.1 0.1v0.7q0 0.3-0.2 0.5-0.1 0.2-0.3 0.2z"/>
	<path id="Layer" class="s5" d="m478.9 35.4v-1.3q0-0.1 0.1-0.1 0-0.1 0-0.1h0.6q0.1 0 0.1 0.1 0 0 0 0.1 0 0 0 0 0 0.1-0.1 0.1h-0.5v0.4h0.5q0 0 0 0 0 0.1 0 0.1 0 0 0 0.1 0 0 0 0 0 0 0 0 0 0 0 0h-0.5v0.6q0 0 0 0.1 0 0-0.1 0 0 0 0 0-0.1-0.1-0.1-0.1z"/>
	<path id="Layer" fill-rule="evenodd" class="s5" d="m480.8 35.3q0 0 0 0.1 0 0 0 0 0 0 0 0 0 0.1 0 0.1h-0.1q-0.1-0.1-0.1-0.1 0-0.1 0-0.3 0 0 0-0.1h-0.4v0.4q0 0.1 0 0.1 0 0.1-0.1 0.1 0 0 0-0.1-0.1 0-0.1-0.1v-1.3q0-0.1 0.1-0.1 0-0.1 0-0.1h0.4q0.1 0 0.2 0.1 0.1 0.1 0.1 0.3 0.1 0.1 0 0.2 0 0.2-0.1 0.3 0 0 0.1 0.1 0 0.1 0 0.2 0 0.1 0 0.1 0 0.1 0 0.1zm-0.2-0.9q0-0.1-0.1-0.1 0-0.1-0.1-0.1h-0.2v0.4h0.2q0 0 0.1 0 0 0 0 0 0.1-0.1 0.1-0.1 0 0 0-0.1z"/>
	<path id="Layer" class="s5" d="m481.1 34.1q0-0.1 0.1-0.1 0-0.1 0-0.1 0.1 0 0.1 0 0 0.1 0 0.1 0 0 0 0 0 0 0 0.1v1.3q0 0 0 0 0 0 0 0.1 0 0 0 0 0 0-0.1 0 0 0 0 0-0.1-0.1-0.1-0.1z"/>
	<path id="Layer" class="s5" d="m490.7 35.1q0 0 0 0 0.1 0 0.1 0 0.1 0.2 0.3 0.2 0.2 0 0.3-0.1 0 0 0-0.1 0 0 0-0.1 0 0 0 0 0-0.1 0-0.1-0.1-0.1-0.3-0.1-0.1 0-0.2-0.1-0.1-0.1-0.1-0.2-0.1-0.1 0-0.2 0-0.1 0-0.1 0-0.1 0.1-0.2 0.1-0.1 0.3-0.1 0.2 0 0.4 0.2 0 0 0 0 0 0 0 0.1 0 0 0 0 0 0 0 0 0 0.1 0 0.1-0.1 0-0.1 0 0 0 0 0 0 0 0-0.1-0.2-0.1-0.3-0.1-0.1 0-0.2 0.1-0.1 0-0.1 0 0 0.1 0 0.1 0 0 0 0.1h0.1q0.1 0.1 0.2 0.1 0.1 0 0.2 0.1 0.1 0 0.2 0.2 0.1 0 0.1 0.1 0 0.2-0.1 0.2 0 0.1-0.1 0.2-0.2 0.1-0.3 0.1-0.3 0-0.5-0.2 0 0 0 0 0-0.1 0-0.1z"/>
	<path id="Layer" fill-rule="evenodd" class="s5" d="m492.5 35.1h-0.4l-0.1 0.3q0 0-0.1 0.1 0 0 0 0 0 0 0 0-0.1 0-0.1-0.1 0 0 0 0 0 0 0-0.1l0.4-1.3q0 0 0.1 0 0 0 0-0.1 0 0.1 0.1 0.1 0 0 0 0l0.4 1.3q0 0.1 0 0.1 0 0.1-0.1 0.1 0 0 0 0 0-0.1-0.1-0.1zm0-0.2l-0.2-0.5-0.1 0.5z"/>
	<path id="Layer" class="s5" d="m493.6 34.2h-0.3v1.2q0 0 0 0.1 0 0-0.1 0 0 0 0 0 0 0-0.1 0 0-0.1 0-0.1 0 0 0 0v-1.2h-0.3q0 0 0-0.1-0.1 0-0.1 0 0-0.1 0.1-0.1 0-0.1 0-0.1h0.8q0.1 0 0.1 0.1 0 0 0 0.1 0 0 0 0 0 0.1-0.1 0.1z"/>
	<path id="Layer" class="s0" d="m259 386.4c119.9 0 217.2-11.3 217.2-25.3 0-13.9-97.3-25.2-217.2-25.2-119.9 0-217.2 11.3-217.2 25.2 0 14 97.3 25.3 217.2 25.3z"/>
	<path id="Layer" class="s0" d="m431.3 419c48.5 0 87.9-10.4 87.9-23.1 0-12.7-39.4-23.1-87.9-23.1-48.5 0-87.8 10.4-87.8 23.1 0 12.7 39.3 23.1 87.8 23.1z"/>
	<path id="Layer" class="s6" d="m57.6 246c-2.5-3-5.6-6.7-9.4-5.4-3.6 1.2-4.9 6.1-5.6 10.1-0.8 5.2-1.4 10.5-2.1 15.7-0.7 5.3-1.3 10.7-1.9 16q-0.5 4.5-1 9-0.3 2.2-0.5 4.5c-0.2 1.5-0.4 2.9-0.5 4.4 0 0.5 0.6 0.5 0.7 0.1 0.5-2.5 0.7-5.1 0.9-7.6l0.9-7.7q0.9-7.6 1.9-15.2 0.9-7.6 1.8-15.2c0.6-4.3 0.8-9.6 3.9-12.4 0.8-0.7 1.8-1.2 2.8-1.3 1-0.1 2 0.1 2.9 0.6 1.9 1.1 3.7 2.6 5.1 4.5 0.1 0.1 0.2 0 0.1-0.1z"/>
	<path id="Layer" class="s7" d="m54.2 242.9c0 0-5-2.2-7.5 2.4-2.5 4.6 0.4 16.3 23.5 23-0.7-9-2.6-17.8-5.6-26-4.9-13.5-13.7-8.4-10.4 0.6z"/>
	<path id="Layer" class="s6" d="m68.9 266.3q-0.6-1.2-1.2-2.3c-0.4-0.8-0.8-1.5-1.2-2.2q-0.4-0.9-0.9-1.7 0-0.2 0-0.4c0-0.1 0.1-0.5 0.1-0.7q0.1-0.9 0.2-1.6 0.1-0.9 0.2-1.7 0.1-0.8 0.3-1.6c0-0.1-0.1-0.2-0.1 0q0 0.5-0.2 1l-0.1 0.7q-0.2 0.8-0.4 1.6c0 0.6-0.1 1-0.2 1.5 0 0.3-0.1 0.5-0.1 0.8-0.4-0.8-0.8-1.5-1.2-2.2q-1.9-3-3.9-5.8 0 0 0-0.1 0-4.5 0.6-9c0-0.1-0.1-0.1-0.1 0-0.6 2.8-0.9 5.7-0.8 8.6q-0.8-1-1.5-2-1.7-2.2-3.4-4.4 0 0-0.1 0 0 0 0 0 0 0 0 0 0 0.1 0 0.1c1.9 2.6 3.8 5.3 5.6 8.1q-2.1-0.1-4.2 0.2c-1.6 0.1-3.1 0.4-4.7 0.6 0 0 0 0.2 0 0.2q2.3-0.5 4.7-0.6c1.5 0 3 0 4.5 0q1.4 2.3 2.8 4.6h-1.2q-1.1 0-2.1 0.1-2.2 0.2-4.3 0.8 0 0 0 0 0 0.1 0 0.1 0 0 0 0 0 0 0 0.1c1.4-0.2 2.9-0.4 4.3-0.5q1 0 2 0h1.1q0.3 0.1 0.6 0 0.9 1.5 1.8 3 0.8 1.2 1.5 2.4c0.4 0.8 0.9 1.7 1.4 2.5 0.1-0.1 0.2-0.1 0.2-0.2z"/>
	<path id="Layer" class="s6" d="m56.4 249.5q-1.2-0.2-2.4-0.2c-0.8 0-1.6 0-2.5 0.1q0 0 0 0 0 0 0 0-0.1 0-0.1 0 0 0 0 0.1 0 0 0 0 0 0 0.1 0 0 0 0 0 0 0 0 0c0.8-0.1 1.7-0.1 2.5-0.1 0.8 0 1.6 0.2 2.4 0.1z"/>
	<path id="Layer" class="s6" d="m63.7 251.8c0.1-1 0.1-2 0.3-2.9 0-0.1-0.1-0.2-0.1 0-0.1 1-0.3 1.9-0.4 2.9 0 0.4-0.1 1-0.1 1.4q-0.1 0.7-0.1 1.4c0 0.1 0.1 0.1 0.1 0q0.1-0.7 0.1-1.4z"/>
	<path id="Layer" class="s6" d="m62.1 240.9q-0.3 1.4-0.5 2.9-0.1 0.8-0.2 1.5-0.1 0.7-0.1 1.4c0 0 0.1 0 0.1 0q0.1-0.6 0.2-1.3c0-0.5 0.1-1 0.2-1.5q0.2-1.5 0.4-3c0.1 0 0-0.1-0.1 0z"/>
	<path id="Layer" class="s6" d="m32.2 299.3q-0.2-2.8-0.4-5.5-0.5-5.4-1.1-10.7c-0.4-3.6-0.7-7.1-1.2-10.7q-0.2-2.5-0.9-4.8-0.2-1-0.8-1.8-0.5-0.8-1.3-1.2c-2.7-1.2-4.5 2.3-5.6 4.8q0 0 0 0 0 0 0 0 0 0 0 0.1 0 0 0 0 0 0 0 0 0 0 0 0 0.1 0 0.1 0 0 0 0-0.1c0.6-1.1 2.4-4.4 4.5-4.3 1.4 0.1 2.5 1.4 3.1 5.7 1.7 10.7 3.2 32.5 3.4 33.9 0.1 0.8 0.5 0.7 0.5-0.1 0-1.8-0.2-3.6-0.3-5.4z"/>
	<path id="Layer" class="s7" d="m21.6 268c0 0 2.4-10.4-2.9-5.2-8.7 8.7-9 27.6-9 27.6 0 0 15.5-11.3 17.4-18.7 2.9-11-5.5-3.7-5.5-3.7z"/>
	<path id="Layer" class="s6" d="m24.5 273.1c-1.2 0.4-2.4 0.6-3.7 0.8l-1.7 0.3c-0.4 0.1-0.8 0.1-1.2 0.2q1.8-3 3.4-6c0-0.1 0-0.2-0.1-0.1q-1.3 1.7-2.5 3.7-0.4-1.2-0.7-2.4c-0.3-0.8-0.6-1.9-0.8-2.9q0 0 0 0 0 0 0 0 0 0 0 0-0.1 0-0.1 0c0.2 1 0.4 2 0.6 2.9 0.2 1 0.4 1.9 0.7 2.8q-0.9 1.4-1.6 2.8c-0.3-0.9-0.6-1.9-0.8-2.8 0-0.1-0.1 0-0.1 0 0.3 1 0.4 2.1 0.7 3.2q-0.6 1-1.1 2-0.9 1.8-1.8 3.6 0 0.1-0.1 0.2 0 0 0 0.1-1.5 3.2-2.8 6.5c0 0 0 0.1 0.1 0 0.9-2.1 1.9-4.2 3-6.3q0.2-0.1 0.5-0.1l0.5-0.1q0.6-0.2 1.2-0.4 1.2-0.4 2.4-0.6c0.1 0 0-0.2 0-0.2-0.9 0.3-1.9 0.4-2.8 0.5q-0.7 0.1-1.4 0.3 0.8-1.6 1.7-3.2c0.5-1 1.1-2 1.7-3 0.5-0.1 1.1-0.2 1.6-0.4l1.8-0.4c1.2-0.3 2.4-0.6 3.6-0.9-0.1 0.1-0.1-0.1-0.2-0.1z"/>
	<path id="Layer" class="s6" d="m15.2 274.2l-0.2-0.8q-0.2-0.9-0.3-1.8c0-0.1-0.2 0-0.1 0q0.1 0.9 0.3 1.8 0.1 0.8 0.4 1.7 0 0 0 0 0.1 0.1 0.1 0 0 0 0 0 0.1 0 0.1-0.1-0.2-0.4-0.3-0.8z"/>
	<path id="Layer" class="s6" d="m26.1 270.7c-0.7 0.2-1.4 0.2-2.1 0.3q-1.1 0.1-2.2 0.3v0.1q1.1-0.1 2.2-0.2 1-0.2 2.1-0.3c0.1 0 0.1-0.2 0-0.2z"/>
	<path id="Layer" class="s6" d="m43.6 286c-0.3-7.7-0.7-15.4-1.3-23q-0.5-5.7-1.1-11.4-0.6-5.6-1.8-11.1c-0.5-2.8-1.5-5.5-2.9-7.8-0.7-1.1-1.6-2-2.6-2.6-1.1-0.5-2.2-0.8-3.3-0.6-2.7 0.4-4.9 2.5-6.8 4.8-2.1 2.6-4 5.4-6 8.2q-0.7 1-1.4 2.1c0 0.1 0 0.2 0 0.1q2.9-4.1 6-7.9c1.9-2.4 3.9-5 6.5-5.9 1.3-0.5 2.6-0.6 3.8-0.1 1 0.3 1.9 1.1 2.6 2 1.4 2.1 2.4 4.5 3 7.1 1.6 7.1 2.2 14.5 2.8 21.8 0.6 7.3 1.1 14.9 1.4 22.3 0.3 7.4 0.5 15 1.1 22.4q0.1 1.4 0.2 2.8c0.1 0.6 0.8 0.6 0.8 0-0.5-7.7-0.8-15.4-1-23.2z"/>
	<path id="Layer" class="s7" d="m23.5 235.1c0 0 3.5-8.1-0.7-10.7-4.1-2.6-18 16.8-22.1 45.1 0 0 22.5-12.4 30.1-24.7 7.6-12.4-1-15.1-7.3-9.7z"/>
	<path id="Layer" class="s6" d="m26.8 241.8c-2.5 0-5.1-0.3-7.6-0.3l1.4-2q1.1-1.3 2-2.8c0-0.1 0-0.2-0.1-0.1q-1 1.1-1.9 2.4-0.9 1.2-1.9 2.5-1.4 1.9-2.8 4v-0.5q0-0.8 0-1.7v-3.2c0-2.1 0-4.3 0.1-6.5 0-0.1-0.1 0-0.1 0-0.1 2.2-0.3 4.4-0.4 6.5q0 1.6-0.1 3.2 0 0.9 0 1.7 0 0.5 0 0.9-0.2 0.3-0.4 0.6c-2 2.9-3.9 5.9-5.8 8.9q0-0.2 0-0.5c0-0.3-0.1-0.7-0.1-1q-0.1-1.1-0.2-2.1c-0.1-0.8-0.2-1.4-0.3-2-0.1-0.7-0.2-1.6-0.3-2.3q0 0 0-0.1 0 0 0 0 0 0 0 0 0 0 0 0 0 0-0.1 0 0 0 0 0 0 0 0 0 0 0.1 0 0.1 0.2 1.1 0.2 2.3 0.1 1 0.2 2.1 0.1 1 0.2 2c0 0.4 0 0.7 0 1q0 0.3 0.1 0.5 0 0.3 0.1 0.4l-1 1.6q-1.9 3.2-3.7 6.4c0 0 0 0.1 0 0.1q1.8-2.9 3.7-5.8c0.9 0.1 1.8 0 2.8 0 0.9-0.1 1.9 0 2.9 0q0 0 0 0 0 0 0-0.1 0 0 0 0 0 0 0 0-1.5 0-2.9 0c-1 0-1.8 0-2.7 0q1.6-2.5 3.3-5 0.6-0.8 1.2-1.7 0.5 0 1.1 0h1.3c0.8 0 1.7 0 2.5 0 1.7 0 3.4-0.1 5.1-0.1 0.1 0 0.1-0.2 0-0.2-1.7 0-3.4-0.1-5.1-0.1l-2.5-0.1h-1.3q-0.4 0-0.8 0l2.8-4.2q0 0 0.1 0 1.3-2.1 2.7-4.1l0.4-0.5c2.6 0.1 5.2-0.1 7.8-0.1q0.1 0 0.1 0 0 0 0 0 0 0 0 0 0 0 0 0 0-0.1 0-0.1 0 0 0 0 0 0 0 0 0 0 0 0z"/>
	<path id="Layer" class="s6" d="m25.5 247.3h-0.6c-0.1 0-0.1 0.1 0 0.1h0.6q0 0 0 0 0 0 0 0 0 0 0 0 0-0.1 0-0.1z"/>
	<path id="Layer" class="s6" d="m24.1 247.3q-1.2 0-2.4 0h-1.2q-0.5-0.1-1.1 0c0 0 0 0.1 0 0.1q0.6 0.1 1.1 0.1h1.2q1.2 0 2.4 0 0 0 0.1-0.1 0 0 0 0 0 0 0 0-0.1-0.1-0.1-0.1z"/>
	<path id="Layer" class="s6" d="m17.1 256.8q-2.5-0.5-5-0.6 0 0 0 0.1c1.7 0.2 3.3 0.3 4.9 0.6 0.1 0.1 0.1-0.1 0.1-0.1z"/>
	<path id="Layer" class="s6" d="m10.3 247.8v-0.6q-0.1-0.6-0.2-1.2-0.1-1.1-0.3-2.3c0-0.1-0.1 0-0.1 0q0.1 1.2 0.2 2.4c0 0.4 0.1 0.8 0.1 1.2q0 0.5 0.1 1.1c0.1 0.1 0.2 0.1 0.2 0q0.1-0.3 0-0.6z"/>
	<path id="Layer" class="s6" d="m43.4 224.7c-0.8-1.9-1.9-4.3-3.9-4.2-1.6 0.2-2.4 2.3-2.7 4-1.1 5.4-1.2 11.1-1.4 16.6-0.5 11.7-0.9 23.5-0.9 35.2q0 4.8 0 9.7c0 3.2 0 6.6 0.2 9.9q0 0.1 0 0.2 0.1 0 0.2 0 0 0 0.1 0 0-0.1 0-0.2c0-2.8 0-5.6 0-8.5 0-2.8 0-5.5 0-8.3q0.1-8.3 0.4-16.7 0.2-8.4 0.5-16.7l0.3-8.3c0.1-2.7 0.2-5.4 0.4-8.1 0.2-1.5 0.4-3 0.6-4.5 0.1-1.1 0.5-2.1 1-3 0.4-0.4 0.9-0.7 1.5-0.8 0.5 0 1 0.2 1.5 0.6 0.9 0.8 1.6 1.9 2 3.2 0.1 0.1 0.2 0 0.2-0.1z"/>
	<path id="Layer" class="s7" d="m42.8 223.8c0 0-1.6-7.3 2-3.6 6.1 6 6.3 19.2 6.3 19.2 0 0-10.8-7.8-12.1-13-2-7.7 3.8-2.6 3.8-2.6z"/>
	<path id="Layer" class="s6" d="m48.8 234q-0.1-0.3-0.3-0.6 0-0.3 0-0.6 0-0.5 0-1 0-0.9 0.1-1.8c0-0.1-0.1-0.1-0.1 0 0 0.6-0.1 1.2-0.1 1.8q0 0.5 0 0.9 0 0.2 0 0.4-0.6-1.2-1.3-2.4-0.2-0.4-0.4-0.7-0.1-1.2 0-2.4 0-1.3 0-2.5c0-0.1-0.1-0.1-0.1 0q0 1.3-0.1 2.6 0 0.9 0 1.9c-1-1.8-2.1-3.5-3.3-5.2 0 0-0.1 0 0 0.1q1 1.6 2 3.3c-1.3-0.3-2.6-0.5-3.9-0.8 0 0-0.1 0.1 0 0.1 1.4 0.3 2.7 0.7 4.1 1.1q0.7 1.4 1.5 2.7 0.3 0.6 0.6 1.2l-0.5-0.1c-0.3 0-0.6-0.1-0.9-0.1q-0.9-0.1-1.9-0.2c0 0 0 0.2 0 0.2q1 0 1.9 0.1l0.9 0.2h0.5 0.1l1 2c0.6 1.1 1.2 2.3 1.8 3.4q0 0 0 0 0 0 0.1 0 0 0 0 0 0 0 0 0-0.8-1.9-1.7-3.6z"/>
	<path id="Layer" class="s6" d="m46.1 225.8q0-0.4 0-0.9 0-0.9 0.1-1.7c0-0.1-0.1-0.2-0.1 0 0 0.5-0.1 1.1-0.1 1.7q0 0.5 0 0.9v0.4q0 0.2 0 0.4 0 0.1 0 0.1 0 0 0.1 0 0 0 0 0 0 0 0-0.1 0-0.1 0-0.3 0-0.3 0-0.5z"/>
	<path id="Layer" class="s6" d="m44.8 228.8c-0.4-0.1-0.8-0.1-1.2-0.2-0.4 0-0.9 0-1.4-0.1 0 0 0 0.1 0 0.1 0.9 0.1 1.7 0.3 2.6 0.3 0 0 0-0.1 0-0.1z"/>
	<path id="Layer" class="s6" d="m48.2 228.9q0 0.1 0 0.2v0.3q0 0.2 0 0.5v0.5q-0.1 0.2 0 0.4 0-0.1 0-0.2v-1.5c0 0 0-0.2 0-0.2 0-0.1-0.1-0.2 0 0z"/>
	<path id="Layer" class="s6" d="m43.6 263.5c-2.3-2.1-4.3-5.1-7.4-5.3-2.5-0.1-4.2 2.2-5.2 4.9q-0.8 2.1-1.3 4.3-0.7 3-1.3 6-1.1 6-2 12c-0.3 2.3-0.6 4.5-0.8 6.8q-0.4 3.4-0.5 6.9 0 0.1 0.1 0.2 0 0.1 0.1 0.1 0.1 0 0.2-0.1 0.1 0 0.1-0.2c0.4-1.8 0.5-3.8 0.7-5.7q0.3-2.9 0.7-5.7 0.8-5.8 1.8-11.4c0.7-3.6 1.3-7.2 2.2-10.7 0.7-2.5 1.8-5.4 3.9-6.3 3.3-1.3 6.3 2.1 8.6 4.4 0.1 0 0.2-0.1 0.1-0.2z"/>
	<path id="Layer" class="s7" d="m41.3 261.5c0 0-2.1-7.5 0.9-8.9 4.5-2.2 16.4 14.5 14.1 40.1-5.6-4-11-8.4-16-13.5-6.7-7-8.5-16.3-5.5-18.7 3-2.4 6.5 1 6.5 1z"/>
	<path id="Layer" class="s6" d="m54.9 287.2q-0.5-1.4-1.1-2.6c-0.4-0.9-0.8-1.7-1.2-2.6q-1.2-2.6-2.4-5l-0.4-0.8 0.1-0.3q0-0.4 0.1-0.8 0.1-0.8 0.2-1.6c0.2-1.1 0.4-2.2 0.6-3.3 0-0.1-0.1-0.1-0.1 0-0.2 1.1-0.5 2.2-0.7 3.2q-0.2 0.8-0.4 1.6l-0.1 0.6c-1-2-2-4-3-5.9q0.1-0.4 0.1-0.9c0-0.3 0-0.7 0.1-1.1q0.1-1.2 0.2-2.5c0.2-1.6 0.4-3.3 0.7-4.9 0-0.1 0-0.1-0.1 0-0.3 1.6-0.6 3.2-0.9 4.8q-0.2 1.3-0.3 2.5-0.1 0.6-0.1 1.2 0 0.2-0.1 0.3-0.4-0.8-1-1.7-1.5-2.6-3.2-5c0-0.1-0.1 0 0 0q2.8 4.5 5.1 9.4 0.5 0.9 0.9 1.8h-0.3c-0.4-0.1-0.8-0.1-1.2-0.1l-2.3-0.3c-1.5-0.1-3.1-0.3-4.6-0.5-0.1 0-0.1 0.1 0 0.2 1.6 0.2 3.1 0.5 4.7 0.8l2.3 0.4q0.8 0.2 1.7 0.2l1.9 3.7q-0.3 0-0.5 0h-2.2q-1.5 0-2.9 0c-0.1 0-0.1 0.1 0 0.1 1 0 2 0.1 3 0.2 0.5 0 0.9 0 1.4 0.1h0.7q0.3 0.1 0.6 0 0.8 1.6 1.6 3.2c0.5 1 1 1.9 1.4 2.9q0.7 1.5 1.6 2.9c0-0.1 0.1-0.1 0.1-0.2z"/>
	<path id="Layer" class="s6" d="m50.5 266.5q-0.1 1.2-0.4 2.4-0.2 1.3-0.6 2.5 0 0 0 0 0 0.1 0 0.1 0.1 0 0.1 0 0 0 0 0 0 0 0 0 0 0 0 0 0.1 0 0.1-0.1 0 0 0 0 0.3-1.2 0.5-2.4c0.2-0.9 0.3-1.7 0.4-2.5 0-0.1-0.1-0.1-0.1 0z"/>
	<path id="Layer" class="s6" d="m43.8 271.5q-0.2-0.2-0.5-0.2l-0.9-0.2-1.6-0.2c-1.1-0.2-2.2-0.3-3.3-0.5-0.1 0-0.1 0.1 0 0.1 1 0.2 2.1 0.4 3.1 0.6q0.8 0.1 1.6 0.2l0.7 0.1q0.5 0 0.9 0.2 0 0 0 0 0 0 0 0 0-0.1 0-0.1 0 0 0 0z"/>
	<path id="Layer" class="s6" d="m50.5 282.8q-0.8-0.1-1.6-0.2h-0.8-0.4q-0.2 0.1-0.5 0c-0.1 0-0.1 0.2 0 0.2q0.2-0.1 0.5 0h0.4 0.8c0.5 0 1.1 0.1 1.6 0.1 0.1 0 0.1-0.1 0-0.2z"/>
	<path id="Layer" class="s6" d="m53.7 279.9q0.1-0.6 0.2-1.1 0.2-1.1 0.3-2.2c0-0.1-0.1-0.1-0.1 0l-0.4 2.1-0.1 1.1c0 0.2-0.1 0.3-0.1 0.5q-0.1 0.2-0.1 0.5c0 0.1 0.1 0.1 0.1 0q0.2-0.4 0.2-0.9z"/>
	<path id="Layer" class="s8" d="m22.7 296.2l0.7 9 2.1 30.7h19.2l2.7-30.7 0.8-9z"/>
	<path id="Layer" class="s6" d="m22.7 296.2l0.7 9h24l0.8-9z"/>
	<path id="Layer" class="s8" d="m20.8 301.1l29.3-0.1v-7.3h-29.3z"/>
	<path id="Layer" class="s6" d="m-1.2 335.9l65.1-0.3 65-0.1 130.1-0.1 130.1 0.1 65 0.1 65.1 0.3-65.1 0.2-65 0.1-130.1 0.2-130.1-0.2-65-0.1z"/>
	<path id="Layer" class="s9" d="m449.8 26.4h-375.5c-5.7 0-10.3 5.7-10.3 12.9v305.4c0 7.1 4.6 12.9 10.3 12.9h375.5c5.7 0 10.3-5.8 10.3-12.9v-305.4c0-7.2-4.6-12.9-10.3-12.9z"/>
	<path id="Layer" class="s2" d="m432.6 40.3h-340.9v303h340.9z"/>
	<path id="Layer" class="s8" d="m81.2 156h-2.2c-0.5 0-1 0.5-1 1.2v69.6c0 0.7 0.5 1.3 1 1.3h2.2c0.5 0 1-0.6 1-1.3v-69.6c0-0.7-0.5-1.2-1-1.2z"/>
	<path id="Layer" class="s8" d="m453.3 194.2c1-5-1.5-10.1-5.5-11.2-4-1.2-8.1 1.9-9 6.9-1 5 1.5 10 5.5 11.2 4 1.2 8.1-1.9 9-6.9z"/>
	<path id="Layer" class="s2" d="m432.6 40.3h-340.9v303h340.9z"/>
	<path id="Layer" class="s6" d="m432.6 40.3h-340.9v10.5h340.9z"/>
	<path id="Layer" class="s4" d="m98.4 45.6c0 0.5-0.2 1-0.4 1.4q-0.3 0.6-0.9 1-0.6 0.3-1.2 0.1-0.6-0.1-1.1-0.7-0.4-0.5-0.5-1.3c-0.1-0.5-0.1-1 0.1-1.5q0.2-0.7 0.7-1.2 0.6-0.4 1.2-0.4c0.5 0 1.1 0.3 1.4 0.7 0.4 0.5 0.7 1.2 0.7 1.9z"/>
	<path id="Layer" class="s2" d="m106.8 45.6c0 0.5-0.1 1-0.3 1.4q-0.4 0.6-1 1-0.5 0.3-1.2 0.1-0.6-0.1-1-0.7-0.5-0.5-0.6-1.3c-0.1-0.5 0-1 0.1-1.5q0.3-0.7 0.8-1.2 0.5-0.4 1.1-0.4c0.6 0 1.1 0.3 1.5 0.7 0.4 0.5 0.6 1.2 0.6 1.9z"/>
	<path id="Layer" class="s7" d="m115.2 45.6c0 0.5-0.1 1-0.3 1.4q-0.4 0.6-0.9 1-0.6 0.3-1.2 0.1-0.6-0.1-1.1-0.7-0.4-0.5-0.6-1.3c0-0.5 0-1 0.2-1.5q0.2-0.7 0.7-1.2 0.5-0.4 1.2-0.4c0.5 0 1 0.3 1.4 0.7 0.4 0.5 0.6 1.2 0.6 1.9z"/>
	<path id="Layer" class="s7" d="m203.8 102.8h-34v42.5h34z"/>
	<path id="Layer" class="s0" d="m239.9 102.8h-34.1v42.5h34.1z"/>
	<path id="Layer" class="s1" d="m275.9 102.8h-34v42.5h34z"/>
	<path id="Layer" class="s0" d="m311.9 102.8h-34v42.5h34z"/>
	<path id="Layer" class="s0" d="m348 102.8h-34v42.5h34z"/>
	<path id="Layer" class="s0" d="m384 102.8h-34v42.5h34z"/>
	<path id="Layer" class="s0" d="m420.1 102.8h-34v42.5h34z"/>
	<path id="Layer" class="s7" d="m203.8 147.7h-34v42.5h34z"/>
	<path id="Layer" class="s0" d="m239.9 147.7h-34.1v42.5h34.1z"/>
	<path id="Layer" class="s0" d="m275.9 147.7h-34v42.5h34z"/>
	<path id="Layer" class="s0" d="m311.9 147.7h-34v42.5h34z"/>
	<path id="Layer" class="s0" d="m348 147.7h-34v42.5h34z"/>
	<path id="Layer" class="s0" d="m384 147.7h-34v42.5h34z"/>
	<path id="Layer" class="s0" d="m420.1 147.7h-34v42.5h34z"/>
	<path id="Layer" class="s7" d="m203.8 192.5h-34v42.6h34z"/>
	<path id="Layer" class="s0" d="m239.9 192.5h-34.1v42.6h34.1z"/>
	<path id="Layer" class="s0" d="m275.9 192.5h-34v42.6h34z"/>
	<path id="Layer" class="s0" d="m311.9 192.5h-34v42.6h34z"/>
	<path id="Layer" class="s0" d="m348 192.5h-34v42.6h34z"/>
	<path id="Layer" class="s1" d="m384 192.5h-34v42.6h34z"/>
	<path id="Layer" class="s0" d="m420.1 192.5h-34v42.6h34z"/>
	<path id="Layer" class="s7" d="m203.8 237.4h-34v42.5h34z"/>
	<path id="Layer" class="s0" d="m239.9 237.4h-34.1v42.5h34.1z"/>
	<path id="Layer" class="s0" d="m275.9 237.4h-34v42.5h34z"/>
	<path id="Layer" class="s0" d="m311.9 237.4h-34v42.5h34z"/>
	<path id="Layer" class="s0" d="m348 237.4h-34v42.5h34z"/>
	<path id="Layer" class="s0" d="m384 237.4h-34v42.5h34z"/>
	<path id="Layer" class="s0" d="m420.1 237.4h-34v42.5h34z"/>
	<path id="Layer" class="s7" d="m203.8 282.3h-34v42.5h34z"/>
	<path id="Layer" class="s0" d="m239.9 282.3h-34.1v42.5h34.1z"/>
	<path id="Layer" class="s0" d="m275.9 282.3h-34v42.5h34z"/>
	<path id="Layer" class="s0" d="m311.9 282.3h-34v42.5h34z"/>
	<path id="Layer" class="s0" d="m348 282.3h-34v42.5h34z"/>
	<path id="Layer" class="s0" d="m384 282.3h-34v42.5h34z"/>
	<path id="Layer" class="s0" d="m420.1 282.3h-34v42.5h34z"/>
	<path id="Layer" class="s7" d="m269.8 115.5c2.2 0 3.9-2.2 3.9-4.9 0-2.7-1.7-4.9-3.9-4.9-2.2 0-4 2.2-4 4.9 0 2.7 1.8 4.9 4 4.9z"/>
	<path id="Layer" class="s7" d="m211.5 159.3c1.1 0 2-1.2 2-2.6 0-1.4-0.9-2.6-2-2.6-1.2 0-2.1 1.2-2.1 2.6 0 1.4 0.9 2.6 2.1 2.6z"/>
	<path id="Layer" class="s4" d="m236.3 154.1h-20.1v2.2h20.1z"/>
	<path id="Layer" class="s4" d="m229.2 158.1h-13v2.2h13z"/>
	<path id="Layer" class="s7" d="m319.6 293.3c1.1 0 2-1.2 2-2.6 0-1.4-0.9-2.6-2-2.6-1.2 0-2.1 1.2-2.1 2.6 0 1.4 0.9 2.6 2.1 2.6z"/>
	<path id="Layer" class="s4" d="m344.4 288.1h-20.1v2.2h20.1z"/>
	<path id="Layer" class="s4" d="m337.4 292.1h-13.1v2.2h13.1z"/>
	<path id="Layer" class="s7" d="m355.6 112.5c1.2 0 2.1-1.1 2.1-2.6 0-1.4-0.9-2.5-2.1-2.5-1.1 0-2 1.1-2 2.5 0 1.5 0.9 2.6 2 2.6z"/>
	<path id="Layer" class="s4" d="m380.5 107.4h-20.2v2.2h20.2z"/>
	<path id="Layer" class="s4" d="m373.4 111.3h-13.1v2.2h13.1z"/>
	<path id="Layer" class="s4" d="m236.3 165.6h-20.1v2.3h20.1z"/>
	<path id="Layer" class="s7" d="m211.5 165.1l0.7 1.8 1.6 0.4-1.1 1.5 0.2 2-1.4-0.9-1.5 0.9 0.2-2-1.1-1.5 1.6-0.4z"/>
	<path id="Layer" class="s4" d="m380.5 197.9h-20.2v2.2h20.2z"/>
	<path id="Layer" class="s7" d="m355.6 197.4l0.8 1.8 1.6 0.3-1.1 1.5 0.2 2.1-1.5-0.9-1.4 0.9 0.2-2.1-1.2-1.5 1.7-0.3z"/>
	<path id="Layer" class="s7" d="m283.5 248.1c1.2 0 2.1-1.2 2.1-2.6 0-1.4-0.9-2.6-2.1-2.6-1.1 0-2 1.2-2 2.6 0 1.4 0.9 2.6 2 2.6z"/>
	<path id="Layer" class="s4" d="m308.4 242.9h-20.2v2.2h20.2z"/>
	<path id="Layer" class="s6" d="m177.3 72.9v7.8q0 0.3-0.2 0.5-0.2 0.3-0.4 0.3-0.2 0-0.4-0.3-0.2-0.2-0.2-0.5v-5.5l-1.5 2.6q-0.1 0.1-0.2 0.2-0.1 0.1-0.3 0.1-0.1 0-0.3-0.1-0.1-0.1-0.2-0.2l-1.5-2.6v5.5q0 0.3-0.2 0.5-0.2 0.2-0.4 0.2-0.2 0-0.4-0.2-0.1-0.2-0.2-0.5v-7.8q0-0.3 0.2-0.5 0.2-0.2 0.4-0.2 0.2 0 0.3 0.1 0.1 0 0.2 0.2l2.1 3.6 2.1-3.6q0.1-0.2 0.2-0.2 0.1-0.1 0.3-0.1 0.2 0 0.4 0.2 0.2 0.2 0.2 0.5z"/>
	<path id="Layer" fill-rule="evenodd" class="s6" d="m185.2 73.3c0.7 0.9 1.1 2.1 1.1 3.4 0 1.2-0.4 2.4-1.1 3.3q-0.4 0.7-1.1 1.1-0.7 0.4-1.4 0.4-0.7 0-1.4-0.4-0.7-0.4-1.2-1.1c-0.7-0.9-1-2.1-1-3.3 0-1.3 0.3-2.4 1-3.4q0.5-0.6 1.2-1 0.7-0.4 1.4-0.4 0.7 0 1.4 0.4 0.7 0.4 1.1 1zm-0.1 3.4c0-0.9-0.3-1.7-0.7-2.3q-0.3-0.5-0.8-0.7-0.4-0.3-0.9-0.3-0.5 0-0.9 0.3-0.5 0.2-0.8 0.7c-0.5 0.6-0.7 1.4-0.7 2.3 0 0.8 0.2 1.7 0.7 2.3q0.3 0.5 0.8 0.7 0.4 0.3 0.9 0.3 0.5 0 0.9-0.3 0.5-0.2 0.8-0.7c0.4-0.6 0.7-1.5 0.7-2.3z"/>
	<path id="Layer" class="s6" d="m189.3 80.7q0 0.2 0 0.3-0.1 0.2-0.1 0.3-0.1 0.1-0.2 0.2-0.2 0-0.3 0-0.1 0-0.2 0-0.1-0.1-0.2-0.2-0.1-0.1-0.1-0.3-0.1-0.1-0.1-0.3v-7.7q0-0.2 0.1-0.4 0.1-0.2 0.3-0.3 0.2-0.1 0.4 0 0.2 0.1 0.3 0.3l3.4 5.9v-5.5q0-0.3 0.2-0.5 0.1-0.2 0.4-0.2 0.2 0 0.4 0.2 0.2 0.2 0.2 0.5v7.7q0 0.3-0.2 0.5-0.2 0.2-0.4 0.2-0.1 0-0.3 0-0.1-0.1-0.2-0.2v-0.1l-3.4-5.9z"/>
	<path id="Layer" class="s6" d="m200.7 73.7h-1.6v7q0 0.3-0.2 0.5-0.2 0.3-0.4 0.3-0.3 0-0.4-0.3-0.2-0.2-0.2-0.5v-7h-1.7q-0.2-0.1-0.4-0.3-0.2-0.2-0.2-0.5 0-0.1 0.1-0.3 0-0.1 0.1-0.2 0.1-0.1 0.2-0.2 0.1 0 0.2 0h4.5q0.2 0 0.3 0 0.1 0.1 0.2 0.2 0 0.1 0.1 0.2 0 0.2 0 0.3 0 0.3-0.1 0.5-0.2 0.2-0.5 0.3z"/>
	<path id="Layer" class="s6" d="m203.1 80.7v-7.8q0-0.1 0-0.3 0.1-0.1 0.1-0.2 0.1-0.1 0.2-0.2 0.1 0 0.3 0 0.1 0 0.2 0 0.1 0.1 0.2 0.2 0.1 0.1 0.1 0.2 0.1 0.2 0.1 0.3v3.2h2.7v-3.2q0-0.1 0-0.3 0.1-0.1 0.2-0.2 0.1-0.1 0.2-0.2 0.1 0 0.2 0 0.1 0 0.2 0 0.1 0.1 0.2 0.2 0.1 0.1 0.1 0.2 0.1 0.2 0.1 0.3v7.8q0 0.2-0.1 0.3 0 0.1-0.1 0.2-0.1 0.2-0.2 0.2-0.1 0.1-0.2 0.1-0.1 0-0.2-0.1-0.1 0-0.2-0.2-0.1-0.1-0.2-0.2 0-0.1 0-0.3v-3.1h-2.7v3.1q0 0.2-0.1 0.3 0 0.1-0.1 0.2-0.1 0.2-0.2 0.2-0.1 0.1-0.2 0.1-0.2 0-0.3-0.1-0.1 0-0.2-0.2 0-0.1-0.1-0.2 0-0.1 0-0.3z"/>
	<path id="Layer" class="s6" d="m210.6 80.7v-7.8q0-0.3 0.2-0.5 0.1-0.2 0.4-0.2 0.2 0 0.4 0.2 0.2 0.2 0.2 0.5v7.1h2.9q0.2 0 0.3 0.2 0.2 0.3 0.2 0.5 0 0.3-0.2 0.5-0.1 0.2-0.3 0.3h-3.5q-0.1 0-0.2-0.1-0.1 0-0.2-0.1-0.1-0.2-0.2-0.3 0-0.1 0-0.3z"/>
	<path id="Layer" class="s6" d="m220.4 73.4l-2.2 3.8v3.5q0 0.2 0 0.3-0.1 0.1-0.2 0.2-0.1 0.2-0.2 0.2-0.1 0.1-0.2 0.1-0.2 0-0.4-0.3-0.2-0.2-0.2-0.5v-3.5l-2.1-3.8q-0.1-0.1-0.1-0.2 0-0.2 0-0.3 0-0.1 0-0.3 0.1-0.1 0.2-0.2 0.1-0.1 0.2-0.1 0.1 0 0.2 0 0.1 0 0.2 0.1 0.1 0.1 0.2 0.2l1.8 3.1 1.8-3.1q0.2-0.2 0.4-0.3 0.2 0 0.4 0.2 0.2 0.1 0.2 0.4 0.1 0.3 0 0.5z"/>
	<path id="Layer" class="s6" d="m224.6 79.2q0-0.2 0.1-0.2 0.1-0.1 0.2-0.1 0.1 0 0.3 0 0.1 0.1 0.2 0.2c0.5 0.6 1.2 0.9 2 1 0.4 0 0.9-0.2 1.3-0.5q0.2-0.2 0.3-0.5 0.2-0.2 0.2-0.5 0-0.3-0.1-0.5-0.2-0.2-0.4-0.4-0.6-0.4-1.4-0.6-0.7-0.1-1.4-0.5-0.6-0.3-1-1-0.2-0.5-0.2-1.1 0-0.6 0.2-1.1 0.3-0.5 0.6-0.8c0.6-0.5 1.2-0.7 1.9-0.7 0.8 0 1.6 0.4 2.3 1q0.2 0.2 0.2 0.5 0.1 0.3-0.1 0.5 0 0.1-0.1 0.2-0.1 0.1-0.2 0.1-0.1 0-0.2 0-0.1 0-0.2-0.1c-0.5-0.5-1.1-0.8-1.7-0.9q-0.7 0-1.2 0.5-0.2 0.1-0.3 0.3-0.1 0.3-0.1 0.5 0 0.2 0.1 0.4 0.1 0.2 0.3 0.3 0.6 0.5 1.3 0.6 0.7 0.2 1.4 0.6 0.7 0.3 1.1 1.1 0.3 0.5 0.3 1.1-0.1 0.6-0.3 1.1-0.2 0.6-0.6 0.9c-0.6 0.5-1.3 0.8-2 0.8-1-0.1-2-0.6-2.7-1.4q-0.2-0.1-0.2-0.4 0-0.2 0.1-0.4z"/>
	<path id="Layer" class="s6" d="m231.5 76.7c0.1-1.3 0.5-2.5 1.2-3.4 0.7-0.9 1.7-1.4 2.7-1.4 0.9 0 1.8 0.4 2.5 1q0.1 0.1 0.1 0.2 0.1 0.2 0.1 0.3 0 0.2 0 0.3 0 0.2-0.1 0.3-0.1 0.1-0.2 0.2-0.1 0.1-0.2 0.1-0.1 0-0.3 0-0.1-0.1-0.2-0.2c-0.4-0.5-1-0.7-1.7-0.7-0.7 0-1.4 0.3-1.9 0.9q-0.4 0.5-0.6 1.1-0.2 0.6-0.2 1.3 0 0.6 0.2 1.2 0.2 0.6 0.6 1.1c0.5 0.6 1.2 1 1.9 1 0.7 0 1.3-0.3 1.7-0.8q0.2-0.1 0.5-0.1 0.2 0.1 0.4 0.3 0.1 0.2 0.1 0.5 0 0.4-0.2 0.5c-0.7 0.7-1.6 1.1-2.5 1-1 0.1-2-0.4-2.7-1.3-0.7-0.9-1.1-2.1-1.2-3.4z"/>
	<path id="Layer" class="s6" d="m240 80.7v-7.8q0-0.1 0.1-0.3 0-0.1 0.1-0.2 0.1-0.1 0.2-0.2 0.1 0 0.2 0 0.1 0 0.3 0 0.1 0.1 0.2 0.2 0 0.1 0.1 0.2 0 0.2 0 0.3v3.2h2.8v-3.2q0-0.1 0-0.3 0.1-0.1 0.1-0.2 0.1-0.1 0.2-0.2 0.1 0 0.3 0 0.1 0 0.2 0 0.1 0.1 0.2 0.2 0.1 0.1 0.1 0.2 0.1 0.2 0.1 0.3v7.8q0 0.2-0.1 0.3 0 0.1-0.1 0.2-0.1 0.2-0.2 0.2-0.1 0.1-0.2 0.1-0.2 0-0.3-0.1-0.1 0-0.2-0.2 0-0.1-0.1-0.2 0-0.1 0-0.3v-3.1h-2.8v3.1q0 0.2 0 0.3-0.1 0.1-0.1 0.2-0.1 0.2-0.2 0.2-0.2 0.1-0.3 0.1-0.1 0-0.2-0.1-0.1 0-0.2-0.2-0.1-0.1-0.1-0.2-0.1-0.1-0.1-0.3z"/>
	<path id="Layer" class="s6" d="m247.6 80.7v-7.8q0-0.1 0-0.3 0.1-0.1 0.1-0.2 0.1-0.1 0.2-0.2 0.1 0 0.3 0h3.4q0.3 0 0.4 0.2 0.2 0.2 0.2 0.5 0 0.3-0.2 0.5-0.1 0.2-0.4 0.3h-2.9v2.4h2.5q0.2 0 0.4 0.2 0.1 0.2 0.1 0.5 0 0.3-0.1 0.5-0.2 0.2-0.4 0.3h-2.5v2.4h2.9q0.2 0 0.4 0.2 0.1 0.3 0.1 0.5 0 0.3-0.1 0.5-0.2 0.2-0.4 0.3h-3.4q-0.1 0-0.3-0.1-0.1 0-0.2-0.1 0-0.1-0.1-0.3 0-0.1 0-0.3z"/>
	<path id="Layer" fill-rule="evenodd" class="s6" d="m253.9 80.7v-7.8q0-0.1 0-0.3 0.1-0.1 0.1-0.2 0.1-0.1 0.2-0.2 0.1 0 0.2 0h1.3c1 0 1.9 0.5 2.6 1.3 0.7 0.9 1.1 2.1 1.1 3.3 0 1.3-0.4 2.4-1.1 3.3-0.7 0.9-1.6 1.4-2.6 1.4h-1.3q-0.1 0-0.2-0.1-0.1 0-0.2-0.2 0-0.1-0.1-0.2 0-0.1 0-0.3zm1.1-0.7h0.7c0.7 0 1.3-0.3 1.8-0.9 0.5-0.6 0.7-1.4 0.7-2.3 0-0.8-0.2-1.6-0.7-2.2-0.5-0.6-1.1-0.9-1.8-0.9h-0.7z"/>
	<path id="Layer" class="s6" d="m264.6 81.5q-0.6 0-1.2-0.3-0.5-0.3-1-0.9-0.4-0.5-0.6-1.2-0.3-0.7-0.3-1.5v-4.7q0-0.1 0.1-0.3 0-0.1 0.1-0.2 0.1-0.1 0.2-0.2 0.1 0 0.2 0 0.3 0 0.4 0.2 0.2 0.2 0.2 0.5v4.7c0 0.7 0.2 1.3 0.6 1.7 0.3 0.4 0.8 0.7 1.3 0.7 0.5 0 1-0.3 1.3-0.7 0.4-0.4 0.6-1 0.6-1.7v-4.7q0-0.1 0-0.3 0.1-0.1 0.2-0.2 0-0.1 0.2-0.2 0.1 0 0.2 0 0.1 0 0.2 0 0.1 0.1 0.2 0.2 0.1 0.1 0.1 0.2 0.1 0.2 0.1 0.3v4.7q0 0.8-0.3 1.5-0.2 0.7-0.6 1.2-0.5 0.6-1 0.9-0.6 0.3-1.2 0.3z"/>
	<path id="Layer" class="s6" d="m269.6 80.7v-7.8q0-0.3 0.2-0.5 0.2-0.2 0.4-0.2 0.3 0 0.4 0.2 0.2 0.2 0.2 0.5v7.1h2.9q0.2 0 0.4 0.2 0.1 0.3 0.1 0.5 0 0.3-0.1 0.5-0.2 0.2-0.4 0.3h-3.5q-0.2 0-0.4-0.3-0.2-0.2-0.2-0.5z"/>
	<path id="Layer" class="s6" d="m275.6 80.7v-7.8q0-0.1 0.1-0.3 0-0.1 0.1-0.2 0.1-0.1 0.2-0.2 0.1 0 0.2 0h3.5q0.2 0 0.4 0.2 0.1 0.2 0.1 0.5 0 0.3-0.1 0.5-0.2 0.2-0.4 0.3h-2.9v2.4h2.5q0.2 0 0.3 0.2 0.2 0.2 0.2 0.5 0 0.3-0.2 0.5-0.1 0.2-0.3 0.3h-2.5v2.4h2.9q0.2 0 0.3 0.2 0.2 0.3 0.2 0.5 0 0.3-0.2 0.5-0.1 0.2-0.3 0.3h-3.5q-0.1 0-0.2-0.1-0.1 0-0.2-0.1-0.1-0.1-0.1-0.3-0.1-0.1-0.1-0.3z"/>
	<path id="Layer" class="s5" d="m386.5 80.8q0 0 0.1 0.1 0 0.1 0 0.1 0 0.1 0 0.2-0.1 0.1-0.1 0.1-0.1 0.2-0.2 0.2-0.2 0-0.3-0.2l-1.5-1.9v-0.1l1.5-1.9q0.1-0.1 0.2-0.2 0.2 0.1 0.3 0.2 0 0 0.1 0.1 0 0.1 0 0.2 0 0 0 0.1-0.1 0.1-0.1 0.2l-1.3 1.6z"/>
	<path id="Layer" class="s5" d="m395.9 77.2v3.9q0 0.1-0.1 0.3-0.1 0.1-0.2 0.1 0 0-0.1-0.1-0.1 0-0.1 0 0-0.1-0.1-0.2 0 0 0-0.1v-2.8l-0.7 1.3q-0.1 0.1-0.1 0.1-0.1 0.1-0.2 0.1-0.1 0-0.1-0.1-0.1 0-0.1-0.1l-0.8-1.3v2.8q0 0.2-0.1 0.3-0.1 0.1-0.2 0.1-0.1 0-0.2-0.1-0.1-0.1-0.1-0.3v-3.9q0-0.2 0.1-0.3 0.1-0.1 0.2-0.1 0.1 0 0.1 0.1 0.1 0 0.1 0.1l1.1 1.8 1-1.8q0.1-0.1 0.1-0.1 0.1-0.1 0.2-0.1 0 0 0.1 0 0.1 0 0.1 0.1 0.1 0.1 0.1 0.1 0 0.1 0 0.2z"/>
	<path id="Layer" fill-rule="evenodd" class="s5" d="m399.9 77.4c0.3 0.4 0.5 1 0.5 1.7 0 0.6-0.2 1.2-0.5 1.6q-0.3 0.4-0.6 0.6-0.3 0.2-0.7 0.2-0.4 0-0.7-0.2-0.3-0.2-0.6-0.6c-0.3-0.4-0.5-1-0.5-1.6 0-0.7 0.2-1.3 0.5-1.7q0.3-0.3 0.6-0.5 0.3-0.2 0.7-0.2 0.4 0 0.7 0.2 0.3 0.2 0.6 0.5zm-0.1 1.7c0-0.5-0.1-0.9-0.3-1.2q-0.2-0.2-0.4-0.3-0.2-0.2-0.5-0.2-0.2 0-0.5 0.2-0.2 0.1-0.3 0.3c-0.3 0.3-0.4 0.7-0.4 1.2 0 0.4 0.1 0.8 0.4 1.1q0.1 0.3 0.3 0.4 0.3 0.1 0.5 0.1 0.3 0 0.5-0.1 0.2-0.1 0.4-0.4c0.2-0.3 0.3-0.7 0.3-1.1z"/>
	<path id="Layer" class="s5" d="m401.9 81.1q0 0.1-0.1 0.3-0.1 0.1-0.2 0.1 0 0-0.1-0.1 0 0-0.1 0 0-0.1 0-0.2-0.1 0-0.1-0.1v-3.9q0-0.1 0.1-0.1 0-0.1 0-0.2 0.1-0.1 0.3 0 0.1 0 0.1 0.1l1.8 3v-2.7q0-0.2 0.1-0.3 0-0.1 0.2-0.1 0.1 0 0.2 0.1 0 0.1 0 0.3v3.8q0 0.1 0 0.2 0 0 0 0.1-0.1 0-0.1 0.1-0.1 0-0.1 0-0.1 0-0.2 0 0-0.1-0.1-0.1l-1.7-3z"/>
	<path id="Layer" class="s5" d="m407.6 77.6h-0.8v3.5q0 0.1 0 0.1 0 0.1-0.1 0.2 0 0-0.1 0 0 0.1-0.1 0.1-0.1 0-0.2-0.1-0.1-0.2-0.1-0.3v-3.5h-0.8q0 0-0.1-0.1 0 0-0.1-0.1 0 0 0-0.1 0 0 0-0.1 0-0.1 0-0.2 0 0 0-0.1 0.1 0 0.1-0.1 0.1 0 0.1 0h2.3q0.1 0 0.2 0.1 0.1 0.1 0.1 0.3 0 0.1 0 0.1-0.1 0.1-0.1 0.2-0.1 0-0.1 0.1-0.1 0-0.2 0z"/>
	<path id="Layer" class="s5" d="m408.8 81.1v-3.9q0-0.1 0-0.2 0 0 0.1-0.1 0 0 0.1-0.1 0 0 0.1 0 0.1 0 0.2 0.1 0.1 0.1 0.1 0.3v1.6h1.4v-1.6q0-0.2 0.1-0.2 0.1-0.1 0.2-0.1 0.1 0 0.2 0.1 0 0 0.1 0.2v3.9q-0.1 0.1-0.1 0.2-0.1 0.1-0.2 0.1-0.1 0-0.2-0.1-0.1-0.1-0.1-0.2v-1.6h-1.4v1.6q0 0.2-0.1 0.3-0.1 0.1-0.2 0.1-0.1 0-0.1-0.1-0.1 0-0.1 0-0.1-0.1-0.1-0.2 0 0 0-0.1z"/>
	<path id="Layer" class="s5" d="m419.4 79.4l-1.5 1.9q-0.1 0.1-0.2 0.1-0.1 0-0.2-0.1-0.1 0-0.1-0.1-0.1-0.2-0.1-0.3 0.1-0.1 0.1-0.2l1.3-1.6-1.3-1.5q0-0.1-0.1-0.2 0 0 0-0.1 0-0.1 0-0.2 0.1-0.1 0.1-0.1 0.1-0.1 0.2-0.1 0.2 0 0.3 0.1l1.5 1.9q0 0 0 0 0 0.1 0 0.1v0.1q0 0 0 0.1z"/>
	<path id="Layer" class="s5" d="m181.3 98.6q0.1-0.1 0.2-0.1 0.1 0 0.2 0.1 0.4 0.4 1 0.5 0.4 0 0.7-0.3 0.1 0 0.1-0.2 0.1-0.1 0.1-0.3 0-0.1 0-0.2-0.1-0.1-0.2-0.2-0.3-0.2-0.7-0.3-0.4 0-0.7-0.2-0.3-0.2-0.5-0.6-0.1-0.2-0.1-0.5 0-0.3 0.1-0.6 0.1-0.2 0.3-0.4 0.4-0.3 0.9-0.3 0.6 0 1.2 0.5 0.1 0.1 0.1 0.2 0 0.1-0.1 0.3 0 0 0 0.1-0.1 0-0.1 0-0.1 0-0.1 0-0.1 0-0.1 0-0.4-0.4-0.9-0.5-0.3 0-0.6 0.3-0.1 0-0.1 0.1-0.1 0.2-0.1 0.3 0 0.1 0.1 0.2 0 0.1 0.1 0.1 0.3 0.3 0.7 0.3 0.3 0.1 0.7 0.3 0.3 0.2 0.5 0.6 0.1 0.2 0.1 0.5 0 0.3-0.1 0.6-0.1 0.3-0.3 0.4-0.5 0.4-1 0.4c-0.5 0-1-0.3-1.4-0.7q0-0.1 0-0.2-0.1-0.1 0-0.2z"/>
	<path id="Layer" class="s5" d="m186.5 99.7c-0.4 0-0.8-0.2-1.1-0.5-0.3-0.4-0.4-0.9-0.4-1.4v-2.4q0 0 0-0.1 0-0.1 0.1-0.1 0-0.1 0-0.1 0.1 0 0.2 0 0.1 0 0.2 0.1 0.1 0.1 0.1 0.2v2.4c0 0.3 0.1 0.6 0.2 0.8q0.3 0.4 0.7 0.4 0.4 0 0.7-0.4c0.1-0.2 0.2-0.5 0.2-0.8v-2.4q0-0.1 0.1-0.2 0.1-0.1 0.2-0.1 0.1 0 0.2 0 0 0 0.1 0.1 0 0 0 0.1 0 0.1 0 0.1v2.4c0 0.5-0.1 1-0.4 1.4-0.3 0.3-0.7 0.5-1.1 0.5z"/>
	<path id="Layer" class="s5" d="m189.8 99.4q0 0.1-0.1 0.2-0.1 0.1-0.2 0.1-0.1 0-0.2-0.1-0.1-0.1-0.1-0.2v-3.9q0-0.1 0.1-0.2 0-0.1 0.1-0.1 0.1-0.1 0.2-0.1 0.1 0.1 0.1 0.2l1.7 3v-2.7q0-0.2 0.1-0.3 0.1-0.1 0.2-0.1 0.1 0 0.2 0.1 0.1 0.1 0.1 0.3v3.8q0 0.2-0.1 0.3-0.1 0.1-0.2 0.1-0.1 0-0.2-0.2l-1.7-2.9z"/>
	<path id="Layer" class="s5" d="m220.2 95.4v4q0 0.1 0 0.2-0.1 0.1-0.2 0.1-0.2 0-0.3-0.1 0-0.1 0-0.2v-2.8l-0.8 1.3q0 0.1-0.1 0.1-0.1 0.1-0.1 0.1-0.1 0-0.2-0.1 0 0-0.1-0.1l-0.8-1.3v2.8q0.1 0 0 0.1 0 0.1 0 0.2-0.1 0-0.1 0.1-0.1 0-0.1 0-0.1 0-0.2 0 0-0.1-0.1-0.1 0-0.1 0-0.2 0-0.1 0-0.1v-4q0-0.1 0-0.2 0.1-0.1 0.3-0.1 0 0 0.1 0 0 0.1 0.1 0.1l1 1.9 1.1-1.9q0 0 0.1-0.1 0.1 0 0.1 0 0.1 0 0.2 0 0 0 0.1 0.1 0 0 0 0.1 0 0.1 0 0.1z"/>
	<path id="Layer" fill-rule="evenodd" class="s5" d="m224.2 95.7c0.4 0.4 0.6 1 0.6 1.6 0 0.7-0.2 1.3-0.6 1.7q-0.2 0.4-0.6 0.5-0.3 0.2-0.6 0.2-0.4 0-0.8-0.2-0.3-0.1-0.5-0.5c-0.4-0.4-0.6-1-0.6-1.7 0-0.6 0.2-1.2 0.6-1.6q0.2-0.4 0.5-0.6 0.4-0.1 0.8-0.2 0.3 0.1 0.6 0.2 0.4 0.2 0.6 0.6zm0 1.6c0-0.4-0.2-0.8-0.4-1.1q-0.2-0.2-0.4-0.4-0.2-0.1-0.5-0.1-0.2 0-0.4 0.1-0.2 0.2-0.4 0.4c-0.2 0.3-0.4 0.7-0.4 1.1 0 0.5 0.2 0.9 0.4 1.2q0.2 0.2 0.4 0.3 0.2 0.2 0.4 0.2 0.3 0 0.5-0.2 0.2-0.1 0.4-0.3c0.2-0.3 0.4-0.7 0.4-1.2z"/>
	<path id="Layer" class="s5" d="m226.2 99.4q0 0.1 0 0.2-0.1 0.1-0.2 0.1-0.2 0-0.2-0.1-0.1-0.1-0.1-0.2v-3.9q0-0.1 0-0.2 0 0 0.1-0.1 0.1-0.1 0.2-0.1 0.1 0.1 0.2 0.2l1.7 3v-2.7q0-0.2 0.1-0.3 0.1-0.1 0.2-0.1 0.1 0 0.2 0.1 0.1 0.1 0.1 0.3v3.8q0 0.1-0.1 0.2 0 0.1-0.1 0.1-0.1 0.1-0.2 0.1-0.1-0.1-0.1-0.2l-1.7-2.9z"/>
	<path id="Layer" class="s5" d="m256.4 95.8h-0.8v3.6q0 0 0 0.1-0.1 0.1-0.1 0.2 0 0-0.1 0.1-0.1 0-0.1 0-0.1 0-0.2 0 0-0.1-0.1-0.1 0-0.1 0-0.2 0-0.1 0-0.1v-3.6h-0.9q-0.1 0-0.2-0.1-0.1-0.1-0.1-0.3 0 0 0.1-0.1 0-0.1 0-0.1 0.1-0.1 0.1-0.1 0.1 0 0.1 0h2.3q0.1 0 0.2 0.1 0.1 0.1 0.1 0.2 0 0.2-0.1 0.3-0.1 0.1-0.2 0.1z"/>
	<path id="Layer" class="s5" d="m259.1 99.7c-0.4 0-0.8-0.2-1.1-0.5-0.3-0.4-0.4-0.9-0.4-1.4v-2.4q0 0 0-0.1 0-0.1 0.1-0.1 0-0.1 0.1-0.1 0 0 0.1 0 0.1 0 0.2 0.1 0.1 0.1 0.1 0.2v2.4q0 0.5 0.3 0.8 0.2 0.3 0.6 0.3 0.4 0 0.6-0.3 0.3-0.3 0.4-0.8v-2.4q-0.1 0 0-0.1 0-0.1 0-0.1 0.1-0.1 0.1-0.1 0.1-0.1 0.1-0.1 0.1 0 0.2 0.1 0 0 0.1 0.1 0 0 0 0.1 0.1 0.1 0 0.1v2.4c0 0.5-0.1 1-0.4 1.4-0.3 0.3-0.7 0.5-1.1 0.5z"/>
	<path id="Layer" class="s5" d="m261.6 99.4v-4q0 0 0-0.1 0.1-0.1 0.1-0.1 0-0.1 0.1-0.1 0.1 0 0.1 0h1.7q0.2 0 0.3 0.1 0 0.1 0 0.2 0 0.2 0 0.3-0.1 0.1-0.3 0.1h-1.4v1.2h1.2q0.2 0 0.2 0.1 0.1 0.1 0.1 0.3 0 0.1-0.1 0.2 0 0.1-0.2 0.1h-1.2v1.3h1.4q0.2 0 0.2 0.1 0.1 0.1 0.1 0.3 0 0.1-0.1 0.2 0 0.1-0.2 0.1h-1.7q-0.1 0-0.1 0-0.1 0-0.1-0.1 0 0-0.1-0.1 0-0.1 0-0.1z"/>
	<path id="Layer" class="s5" d="m294 95.6l-1.3 3.9v0.1h-0.2-0.1q0 0 0-0.1l-0.7-2.1-0.7 2.1q0 0 0 0.1h-0.2-0.1q0 0 0 0v-0.1l-1.3-3.9q0 0 0-0.1 0-0.1 0-0.1 0-0.1 0-0.2 0.1 0 0.1 0 0.1-0.1 0.3 0 0.1 0 0.1 0.2l1.1 3 0.6-2q0.1-0.1 0.1-0.1 0.1-0.1 0.2-0.1 0.1 0 0.2 0.1 0 0 0.1 0.1l0.7 2 1-3q0.1-0.2 0.2-0.2 0.1-0.1 0.2 0 0 0 0 0.1 0 0.1 0 0.2-0.1 0.1-0.1 0.1-0.1 0-0.2 0z"/>
	<path id="Layer" class="s5" d="m294.9 99.4v-4q0 0 0-0.1 0-0.1 0.1-0.1 0-0.1 0.1-0.1 0 0 0.1 0h1.7q0.1 0 0.2 0.1 0.1 0.1 0.1 0.2 0 0.2-0.1 0.3-0.1 0.1-0.2 0.1h-1.4v1.2h1.2q0.1 0 0.2 0.1 0.1 0.1 0.1 0.3 0 0.1-0.1 0.2-0.1 0.1-0.2 0.1h-1.2v1.3h1.4q0.1 0 0.2 0.1 0.1 0.1 0.1 0.3 0 0.1-0.1 0.2-0.1 0.1-0.2 0.1h-1.7q-0.1 0-0.1 0-0.1 0-0.1-0.1-0.1 0-0.1-0.1 0-0.1 0-0.1z"/>
	<path id="Layer" fill-rule="evenodd" class="s5" d="m298 99.4v-4q0 0 0-0.1 0.1-0.1 0.1-0.1 0.1-0.1 0.1-0.1 0.1 0 0.1 0h0.6c0.5 0 1 0.3 1.3 0.7 0.3 0.4 0.5 1 0.5 1.6 0 0.6-0.2 1.2-0.5 1.6-0.3 0.4-0.8 0.7-1.3 0.7h-0.6q-0.1 0-0.2-0.1-0.1-0.1-0.1-0.2zm0.6-0.4h0.3c0.4 0 0.7-0.2 0.9-0.5 0.2-0.3 0.3-0.7 0.3-1.1 0-0.4-0.1-0.8-0.3-1.1-0.2-0.3-0.5-0.4-0.9-0.5h-0.3z"/>
	<path id="Layer" class="s5" d="m328 95.8h-0.8v3.6q0 0 0 0.1 0 0.1-0.1 0.2 0 0-0.1 0.1 0 0-0.1 0 0 0-0.1 0-0.1-0.1-0.1-0.1-0.1-0.1-0.1-0.2 0-0.1 0-0.1v-3.6h-0.8q-0.1 0-0.2-0.1-0.1-0.1-0.1-0.3 0 0 0-0.1 0.1-0.1 0.1-0.1 0.1-0.1 0.1-0.1 0.1 0 0.1 0h2.3q0.1 0 0.2 0.1 0.1 0.1 0.1 0.2 0 0.1 0 0.2-0.1 0.1-0.1 0.1-0.1 0.1-0.1 0.1-0.1 0-0.2 0z"/>
	<path id="Layer" class="s5" d="m329.2 99.4v-4q0 0 0-0.1 0.1-0.1 0.1-0.1 0-0.1 0.1-0.1 0 0 0.1 0 0.1 0 0.1 0 0.1 0 0.1 0.1 0.1 0 0.1 0.1 0 0.1 0 0.1v1.6h1.4v-1.6q0-0.1 0-0.1 0-0.1 0.1-0.2 0 0 0.1 0 0-0.1 0.1-0.1 0.1 0 0.2 0.1 0.1 0.2 0.1 0.3v3.9q0 0.2-0.1 0.3-0.1 0.1-0.2 0.1-0.1 0-0.1 0-0.1-0.1-0.1-0.1-0.1-0.1-0.1-0.1 0-0.1 0-0.2v-1.6h-1.4v1.6q0 0.1 0 0.2 0 0-0.1 0.1 0 0-0.1 0.1 0 0-0.1 0-0.1 0-0.2-0.1-0.1-0.1-0.1-0.2z"/>
	<path id="Layer" class="s5" d="m334.5 99.7c-0.4 0-0.8-0.2-1.1-0.5-0.3-0.4-0.4-0.9-0.4-1.4v-2.4q0 0 0-0.1 0-0.1 0.1-0.1 0-0.1 0.1-0.1 0 0 0.1 0 0.1 0 0.2 0.1 0.1 0.1 0.1 0.2v2.4q0 0.5 0.3 0.8 0.2 0.3 0.6 0.3 0.4 0 0.7-0.3 0.2-0.3 0.3-0.8v-2.4q0 0 0-0.1 0-0.1 0-0.1 0.1-0.1 0.1-0.1 0.1-0.1 0.2-0.1 0 0 0.1 0.1 0 0 0.1 0.1 0 0 0 0.1 0.1 0.1 0 0.1v2.4c0 0.5-0.1 1-0.4 1.4-0.3 0.3-0.7 0.5-1.1 0.5z"/>
	<path id="Layer" class="s5" d="m363.5 99.4v-4q0 0 0-0.1 0-0.1 0.1-0.1 0-0.1 0.1-0.1 0 0 0.1 0h1.7q0.2 0 0.2 0.1 0.1 0.1 0.1 0.2 0 0.2-0.1 0.3 0 0.1-0.2 0.1h-1.4v1.2h1.2q0.2 0 0.2 0.1 0.1 0.1 0.1 0.3 0 0.1-0.1 0.2 0 0.1-0.2 0.1h-1.2v1.6q0 0.2-0.1 0.3-0.1 0.1-0.2 0.1-0.1 0-0.2-0.1-0.1-0.1-0.1-0.3z"/>
	<path id="Layer" fill-rule="evenodd" class="s5" d="m369.2 99.2q0 0 0 0.1 0 0.1 0 0.2-0.1 0-0.1 0.1-0.1 0-0.1 0h-0.1q-0.1 0-0.2 0-0.1-0.1-0.2-0.3-0.1-0.3-0.1-0.8 0-0.1-0.1-0.3 0-0.1-0.1-0.1-0.2-0.1-0.3-0.2h-0.7v1.4q0 0.2 0 0.3-0.1 0.1-0.3 0.1-0.1 0-0.2-0.1-0.1-0.1-0.1-0.3v-3.9q0 0 0.1-0.1 0-0.1 0-0.1 0.1-0.1 0.1-0.1 0.1 0 0.1 0h1q0.4 0 0.7 0.2 0.2 0.3 0.4 0.7 0.1 0.4 0 0.9-0.1 0.4-0.4 0.7 0.1 0.1 0.2 0.2 0.2 0.3 0.2 0.7 0 0.2 0 0.4 0 0.1 0.1 0.1 0.1 0.1 0.1 0.2zm-0.8-2.7q0-0.1 0-0.3 0-0.1-0.1-0.2-0.1-0.1-0.2-0.1-0.1-0.1-0.2-0.1h-0.7v1.4h0.7q0.1 0 0.2-0.1 0.1 0 0.2-0.1 0-0.1 0.1-0.2 0-0.2 0-0.3z"/>
	<path id="Layer" class="s5" d="m370.1 95.4q0 0 0-0.1 0-0.1 0.1-0.1 0-0.1 0-0.1 0.1 0 0.2 0 0.1 0 0.2 0.1 0.1 0.1 0.1 0.2v4q0 0.1-0.1 0.2-0.1 0.1-0.2 0.1-0.1 0-0.2 0 0 0 0-0.1-0.1 0-0.1-0.1 0-0.1 0-0.1z"/>
	<path id="Layer" class="s5" d="m398.6 98.6q0.1-0.1 0.2-0.1 0.1 0 0.2 0.1 0.4 0.4 1 0.5 0.4 0 0.7-0.3 0.1 0 0.1-0.2 0.1-0.1 0.1-0.3 0-0.1 0-0.2-0.1-0.1-0.2-0.2-0.3-0.2-0.7-0.3-0.4 0-0.7-0.2-0.3-0.2-0.5-0.6-0.1-0.2-0.1-0.5 0-0.3 0.1-0.6 0.1-0.2 0.3-0.4 0.4-0.3 0.9-0.3 0.7 0 1.2 0.5 0.1 0.1 0.1 0.2 0 0.1-0.1 0.3 0 0 0 0.1-0.1 0-0.1 0-0.1 0-0.1 0-0.1 0-0.1 0-0.4-0.4-0.9-0.5-0.3 0-0.6 0.3-0.1 0-0.1 0.1-0.1 0.1-0.1 0.3 0 0.1 0 0.2 0.1 0.1 0.2 0.1 0.3 0.3 0.6 0.3 0.4 0.1 0.8 0.3 0.3 0.2 0.5 0.6 0.1 0.2 0.1 0.5 0 0.3-0.1 0.6-0.1 0.3-0.3 0.4-0.5 0.4-1 0.4c-0.5 0-1-0.3-1.4-0.7q-0.1-0.1-0.1-0.2 0-0.1 0.1-0.2z"/>
	<path id="Layer" fill-rule="evenodd" class="s5" d="m404.1 98.6h-1.3l-0.3 0.9q0 0.1-0.1 0.2-0.1 0-0.1 0h-0.1q-0.2 0-0.2-0.2-0.1-0.1 0-0.2l1.2-4q0-0.1 0.1-0.1 0-0.1 0.1-0.1 0.1 0 0.2 0.1 0.1 0 0.1 0.1l1.2 4q0 0.1 0 0.2-0.1 0.2-0.2 0.2h-0.1q-0.1 0-0.2 0 0-0.1-0.1-0.2zm-0.2-0.7l-0.4-1.5-0.4 1.5z"/>
	<path id="Layer" class="s5" d="m407.4 95.8h-0.9v3.6q0 0 0 0.1 0 0.1-0.1 0.2 0 0-0.1 0.1 0 0-0.1 0 0 0-0.1 0-0.1-0.1-0.1-0.1 0-0.1-0.1-0.2 0-0.1 0-0.1v-3.6h-0.8q-0.1 0-0.2-0.1-0.1-0.1-0.1-0.3 0 0 0.1-0.1 0-0.1 0-0.1 0.1-0.1 0.1-0.1 0.1 0 0.1 0h2.3q0.1 0 0.2 0.1 0.1 0.1 0.1 0.2 0 0.1 0 0.2-0.1 0.1-0.1 0.1-0.1 0.1-0.1 0.1-0.1 0-0.1 0z"/>
	<path id="Layer" class="s5" d="m107.3 108.8q-0.3-0.1-0.6-0.2-0.3-0.1-0.5-0.4-0.2-0.3-0.4-0.6-0.1-0.4-0.1-0.8v-2.3q0-0.1 0.1-0.2 0 0 0-0.1 0.1 0 0.1-0.1 0.1 0 0.1 0 0.1 0 0.2 0.1 0.1 0.1 0.1 0.3v2.3q0.1 0.5 0.3 0.8 0.3 0.3 0.7 0.3 0.3 0 0.6-0.3 0.3-0.3 0.3-0.8v-2.3q0-0.2 0.1-0.3 0.1 0 0.2 0 0.1 0 0.2 0 0.1 0.1 0.1 0.3v2.3q0 0.4-0.1 0.8-0.1 0.3-0.4 0.6-0.2 0.3-0.5 0.4-0.2 0.2-0.5 0.2z"/>
	<path id="Layer" fill-rule="evenodd" class="s5" d="m111.3 107h-0.7v1.4q0 0.2-0.1 0.3-0.1 0-0.2 0.1-0.1-0.1-0.2-0.1 0-0.1-0.1-0.3v-3.9q0-0.1 0.1-0.1 0-0.1 0-0.1 0.1-0.1 0.1-0.1 0.1 0 0.1 0h1c0.3 0 0.6 0.1 0.8 0.4 0.2 0.2 0.3 0.6 0.3 1 0 0.4-0.1 0.7-0.3 1-0.2 0.3-0.5 0.4-0.8 0.4zm-0.7-0.7h0.7q0.1 0 0.2-0.1 0.1 0 0.2-0.1 0.1-0.1 0.1-0.2 0.1-0.2 0.1-0.3 0-0.2-0.1-0.3 0-0.1-0.1-0.2-0.1-0.1-0.2-0.2-0.1 0-0.2 0h-0.7z"/>
	<path id="Layer" class="s5" d="m113 106.4c0-0.7 0.2-1.3 0.6-1.7 0.3-0.5 0.8-0.7 1.3-0.7 0.5 0 0.9 0.2 1.2 0.5q0.1 0.1 0.2 0.2 0 0.2-0.1 0.3-0.1 0.1-0.2 0.2-0.1 0-0.2-0.1-0.4-0.4-0.9-0.4c-0.3 0-0.7 0.2-0.9 0.5q-0.2 0.2-0.3 0.5-0.1 0.3-0.1 0.7 0 0.3 0.1 0.6 0.1 0.3 0.3 0.5c0.2 0.3 0.6 0.5 0.9 0.5q0.5 0 0.9-0.4 0.1-0.1 0.2 0 0.1 0 0.2 0.1 0.1 0.1 0.1 0.3-0.1 0.1-0.2 0.2c-0.3 0.4-0.7 0.6-1.2 0.5-0.5 0-1-0.2-1.4-0.6-0.3-0.5-0.5-1.1-0.5-1.7z"/>
	<path id="Layer" fill-rule="evenodd" class="s5" d="m120 104.7c0.4 0.4 0.6 1 0.6 1.7 0 0.6-0.2 1.2-0.6 1.6q-0.2 0.4-0.5 0.6-0.4 0.1-0.7 0.1-0.4 0-0.7-0.1-0.4-0.2-0.6-0.6c-0.4-0.4-0.6-1-0.5-1.6 0-0.7 0.1-1.3 0.5-1.7q0.2-0.4 0.6-0.5 0.3-0.2 0.7-0.2 0.3 0 0.7 0.2 0.3 0.1 0.5 0.5zm0 1.7c0-0.5-0.2-0.9-0.4-1.2q-0.1-0.2-0.4-0.3-0.2-0.2-0.4-0.2-0.3 0-0.5 0.2-0.2 0.1-0.4 0.3c-0.2 0.3-0.3 0.7-0.3 1.2 0 0.4 0.1 0.8 0.3 1.1q0.2 0.2 0.4 0.4 0.2 0.1 0.5 0.1 0.2 0 0.4-0.1 0.3-0.2 0.4-0.4c0.2-0.3 0.4-0.7 0.4-1.1z"/>
	<path id="Layer" class="s5" d="m124.6 104.5v3.9q0 0.1-0.1 0.2-0.1 0.1-0.2 0.2-0.1 0-0.1-0.1-0.1 0-0.1-0.1 0 0-0.1-0.1 0 0 0-0.1v-2.8l-0.8 1.3q0 0.1-0.1 0.1-0.1 0.1-0.1 0.1-0.1 0-0.2-0.1 0 0-0.1-0.1l-0.7-1.3v2.8q-0.1 0.1-0.1 0.2-0.1 0.1-0.2 0.1-0.1 0-0.2-0.1-0.1-0.1-0.1-0.2v-3.9q0-0.1 0-0.2 0 0 0.1-0.1 0 0 0.1-0.1 0 0 0.1 0 0 0 0.1 0 0.1 0.1 0.1 0.2l1.1 1.8 1-1.8q0.1-0.1 0.1-0.2 0.1 0 0.2 0 0 0 0.1 0 0 0 0.1 0.1 0 0 0.1 0.1 0 0.1 0 0.2z"/>
	<path id="Layer" class="s5" d="m125.9 104.5q0-0.1 0.1-0.2 0 0 0-0.1 0.1 0 0.1-0.1 0.1 0 0.1 0 0.1 0 0.2 0.1 0.1 0.1 0.1 0.3v3.9q0 0.1-0.1 0.2-0.1 0.1-0.2 0.2 0 0-0.1-0.1 0 0-0.1-0.1 0 0 0-0.1-0.1 0-0.1-0.1z"/>
	<path id="Layer" class="s5" d="m128.1 108.4q0 0.1 0 0.1 0 0.1-0.1 0.1 0 0.1-0.1 0.1 0 0.1-0.1 0-0.1 0.1-0.1 0-0.1 0-0.1-0.1 0 0-0.1-0.1 0 0 0-0.1v-3.9q0-0.1 0-0.1 0.1-0.1 0.1-0.2 0.1-0.1 0.2 0 0.2 0 0.2 0.1l1.8 3v-2.7q0-0.2 0-0.3 0.1-0.1 0.2-0.1 0.2 0 0.2 0.1 0.1 0.1 0.1 0.3v3.8q0 0.2-0.1 0.3 0 0.1-0.2 0.1 0 0-0.1 0 0-0.1-0.1-0.1l-1.7-3z"/>
	<path id="Layer" class="s5" d="m131.2 106.4q0-0.5 0.1-1 0.2-0.4 0.4-0.7 0.3-0.4 0.7-0.6 0.3-0.1 0.7-0.1c0.5 0 0.9 0.2 1.2 0.5q0.1 0 0.1 0.1 0.1 0.1 0.1 0.1 0 0.1 0 0.2-0.1 0.1-0.1 0.1 0 0.1-0.1 0.1 0 0.1-0.1 0.1-0.1 0-0.1 0-0.1-0.1-0.1-0.1-0.4-0.4-0.9-0.4-0.2 0-0.5 0.1-0.2 0.2-0.4 0.4-0.2 0.2-0.3 0.5-0.1 0.3-0.1 0.7 0 0.3 0.1 0.6 0.1 0.3 0.3 0.5 0.2 0.2 0.4 0.4 0.3 0.1 0.5 0.1 0.4 0 0.8-0.3v-0.9h-0.8q-0.1 0-0.2-0.1-0.1-0.1-0.1-0.3 0-0.1 0.1-0.2 0.1-0.1 0.2-0.1h1.1q0 0 0.1 0 0 0 0.1 0.1 0 0 0 0.1 0.1 0.1 0.1 0.1v1.5q0 0.1 0 0.1-0.1 0.1-0.1 0.2-0.5 0.4-1 0.5-0.6 0.1-1.1-0.2-0.5-0.3-0.8-0.9-0.3-0.6-0.3-1.3z"/>
	<path id="Layer" class="s5" d="m137.2 108.4v-3.9q0-0.1 0.1-0.2 0 0 0-0.1 0.1 0 0.1-0.1 0.1 0 0.1 0h1.8q0 0 0.1 0 0.1 0 0.1 0.1 0.1 0 0.1 0.1 0 0.1 0 0.2 0 0.1 0 0.1 0 0.1-0.1 0.2 0 0-0.1 0-0.1 0.1-0.1 0h-1.5v1.3h1.3q0 0 0.1 0 0 0 0.1 0.1 0 0 0 0.1 0.1 0 0.1 0.1 0 0.1-0.1 0.2 0 0 0 0.1-0.1 0-0.1 0.1-0.1 0-0.1 0h-1.3v1.2h1.5q0.1 0 0.2 0.1 0.1 0.1 0.1 0.3 0 0.1-0.1 0.2-0.1 0.1-0.2 0.1h-1.8q-0.1 0-0.2-0.1 0-0.1-0.1-0.2z"/>
	<path id="Layer" class="s5" d="m141.6 108.7v-0.1l-1.3-3.8q0-0.2 0-0.3 0-0.2 0.2-0.2 0.1-0.1 0.2 0 0.1 0 0.1 0.2l1.1 3.1 1-3.1q0-0.1 0.1-0.1 0-0.1 0.1-0.1 0 0 0.1 0 0 0 0.1 0 0.1 0.1 0.1 0.2 0.1 0.1 0 0.3l-1.3 3.8v0.1h-0.2z"/>
	<path id="Layer" class="s5" d="m144.2 108.4v-3.9q0-0.1 0-0.2 0.1 0 0.1-0.1 0 0 0.1-0.1 0 0 0.1 0h1.7q0.1 0 0.2 0.1 0.1 0.1 0.1 0.3 0 0.1-0.1 0.2-0.1 0.1-0.2 0.1h-1.4v1.3h1.2q0.1 0 0.2 0 0 0 0 0.1 0.1 0 0.1 0.1 0 0 0 0.1 0 0.1 0 0.2 0 0-0.1 0.1 0 0 0 0.1-0.1 0-0.2 0h-1.2v1.2h1.4q0.2 0 0.2 0.1 0.1 0.1 0.1 0.3 0 0.1 0 0.1 0 0.1-0.1 0.1 0 0.1 0 0.1-0.1 0-0.2 0h-1.7q-0.1 0-0.1 0-0.1 0-0.1-0.1 0 0-0.1-0.1 0 0 0-0.1z"/>
	<path id="Layer" class="s5" d="m147.9 108.4q0 0.1 0 0.2-0.1 0.1-0.2 0.1-0.1 0.1-0.2 0 0 0-0.1-0.1 0 0 0-0.1 0 0 0-0.1v-3.9q0-0.1 0-0.1 0-0.1 0.1-0.2 0.1-0.1 0.2 0 0.1 0 0.2 0.1l1.7 3v-2.7q0-0.2 0.1-0.3 0.1-0.1 0.2-0.1 0.1 0 0.2 0.1 0.1 0.1 0.1 0.3v3.8q0 0.1 0 0.2-0.1 0-0.1 0.1 0 0-0.1 0.1-0.1 0-0.1 0-0.1 0-0.1 0-0.1-0.1-0.1-0.1l-1.7-3z"/>
	<path id="Layer" class="s5" d="m153.7 104.8h-0.9v3.6q0 0.1-0.1 0.2-0.1 0.1-0.2 0.1-0.1 0-0.2-0.1 0-0.1-0.1-0.2v-3.6h-0.8q-0.1 0-0.2-0.1-0.1-0.1-0.1-0.2 0-0.1 0-0.2 0 0 0.1-0.1 0 0 0.1-0.1 0 0 0.1 0h2.3q0.1 0 0.2 0.1 0.1 0.1 0.1 0.3 0 0.1-0.1 0.2-0.1 0.1-0.2 0.1z"/>
	<path id="Layer" class="s5" d="m154.6 107.6q0.1-0.1 0.2-0.1 0.1 0 0.2 0.1 0.5 0.5 1 0.5 0.4 0 0.7-0.2 0.1-0.1 0.2-0.2 0-0.2 0-0.3 0-0.1 0-0.2-0.1-0.1-0.2-0.2-0.3-0.3-0.7-0.3-0.4-0.1-0.7-0.3-0.3-0.2-0.5-0.5-0.1-0.3-0.1-0.6 0-0.3 0.1-0.5 0.1-0.3 0.3-0.5 0.4-0.3 0.9-0.3 0.7 0 1.2 0.5 0.1 0.1 0.1 0.2 0 0.2 0 0.3-0.1 0.1-0.2 0.1-0.1 0.1-0.2 0-0.4-0.4-0.9-0.4-0.3 0-0.6 0.2 0 0.1-0.1 0.2-0.1 0.1-0.1 0.2 0 0.1 0 0.2 0.1 0.1 0.2 0.2 0.3 0.2 0.6 0.3 0.4 0.1 0.8 0.2 0.3 0.2 0.5 0.6 0.1 0.3 0.1 0.6 0 0.3-0.1 0.5-0.1 0.3-0.3 0.5-0.5 0.3-1 0.3c-0.5 0-1-0.2-1.4-0.6q0-0.1 0-0.3 0-0.1 0-0.2z"/>
	<path id="Layer" class="s5" d="m158.6 105.2q0.2 0 0.3 0.1 0.1 0.2 0.1 0.4 0 0.2-0.1 0.3-0.1 0.2-0.3 0.2-0.2 0-0.3-0.2-0.1-0.1-0.1-0.3 0-0.2 0.1-0.4 0.1-0.1 0.3-0.1zm0 2.6q0.2 0 0.3 0.2 0.1 0.1 0.1 0.3 0 0.2-0.1 0.4-0.1 0.1-0.3 0.1-0.2 0-0.3-0.1-0.1-0.2-0.1-0.4 0-0.2 0.1-0.3 0.1-0.2 0.3-0.2z"/>
	<path id="Layer" class="s5" d="m107.1 124.8v-4q0 0 0.1-0.1 0-0.1 0-0.1 0.1-0.1 0.1-0.1 0.1 0 0.1 0h1.8q0.1 0 0.1 0.1 0.1 0.1 0.1 0.2 0 0.2-0.1 0.3 0 0.1-0.1 0.1h-1.5v1.2h1.3q0.1 0 0.2 0.1 0 0.1 0 0.3 0 0.1 0 0.1 0 0.1 0 0.2-0.1 0-0.1 0-0.1 0.1-0.1 0.1h-1.3v1.6q0 0.1-0.1 0.2-0.1 0.1-0.2 0.1 0 0-0.1 0 0 0-0.1-0.1 0 0 0-0.1-0.1-0.1-0.1-0.1z"/>
	<path id="Layer" fill-rule="evenodd" class="s5" d="m112.8 124.6q0 0.1 0 0.3-0.1 0.1-0.2 0.1h-0.1q-0.1 0-0.2 0-0.1-0.1-0.2-0.3-0.1-0.4-0.1-0.8 0-0.1-0.1-0.2 0-0.2-0.1-0.2-0.2-0.2-0.3-0.2h-0.6v1.4q0 0.2-0.1 0.3-0.1 0.1-0.2 0.1-0.1 0-0.1 0-0.1-0.1-0.1-0.1-0.1-0.1-0.1-0.1 0-0.1 0-0.2v-3.9q0-0.1 0-0.1 0-0.1 0.1-0.1 0-0.1 0.1-0.1 0 0 0.1 0h0.9q0.2 0 0.5 0.1 0.2 0.1 0.3 0.3 0.2 0.2 0.3 0.4 0.1 0.3 0.1 0.6 0 0.3-0.2 0.6-0.1 0.3-0.3 0.5 0.1 0.1 0.2 0.2 0.2 0.3 0.2 0.7 0 0.2 0 0.4 0.1 0.1 0.1 0.1 0.1 0.1 0.1 0.2zm-0.7-2.7q0-0.3-0.2-0.5-0.2-0.2-0.4-0.2h-0.6v1.4h0.6q0.2 0 0.4-0.2 0.2-0.2 0.2-0.5z"/>
	<path id="Layer" class="s5" d="m113.7 120.8q0-0.1 0.1-0.2 0.1-0.1 0.2-0.1 0.1 0 0.2 0.1 0.1 0.1 0.1 0.2v4q0 0.1-0.1 0.2-0.1 0.1-0.2 0.1-0.1 0-0.2-0.1-0.1-0.1-0.1-0.2z"/>
	<path id="Layer" class="s5" d="m111.2 128.8v3.9q0 0.2-0.1 0.3-0.1 0.1-0.2 0.1-0.1 0-0.2-0.1-0.1-0.1-0.1-0.3v-3.3l-0.2 0.2q-0.1 0.1-0.1 0.1-0.1 0-0.2-0.1-0.1 0-0.1-0.1 0-0.1 0-0.2 0 0 0-0.1 0-0.1 0-0.1 0.1-0.1 0.1-0.1l0.7-0.5h0.2q0 0 0 0z"/>
	<path id="Layer" class="s10" d="m159 119.6h-39v15h39z"/>
	<path id="Layer" class="s2" d="m155.5 123.8h-31.9v1h31.9z"/>
	<path id="Layer" class="s2" d="m155.5 126.7h-31.9v0.9h31.9z"/>
	<path id="Layer" class="s2" d="m144.9 129.6h-21.3v0.9h21.3z"/>
	<path id="Layer" class="s5" d="m108 146.5v3.9q0 0.2 0 0.3-0.1 0.1-0.2 0.1-0.1 0-0.2 0 0 0-0.1-0.1 0 0 0-0.1 0-0.1 0-0.2v-2.7l-0.8 1.3q0 0.1-0.1 0.1-0.1 0-0.1 0-0.1 0-0.2 0-0.1 0-0.1-0.1l-0.8-1.3v2.8q0 0.1-0.1 0.2 0 0.1-0.2 0.1-0.1 0-0.1-0.1-0.1-0.1-0.1-0.2v-3.9q0-0.2 0-0.3 0.1-0.1 0.2-0.1 0.1 0 0.2 0 0 0.1 0.1 0.1l1 1.9 1.1-1.9q0 0 0.1-0.1 0.1 0 0.1 0 0.1 0 0.1 0 0.1 0 0.1 0.1 0.1 0 0.1 0.1 0 0.1 0 0.1z"/>
	<path id="Layer" fill-rule="evenodd" class="s5" d="m112 146.7c0.4 0.5 0.6 1.1 0.6 1.7 0 0.6-0.2 1.2-0.6 1.7q-0.2 0.3-0.6 0.5-0.3 0.2-0.6 0.2-0.4 0-0.8-0.2-0.3-0.2-0.5-0.5c-0.4-0.5-0.6-1.1-0.6-1.7 0-0.6 0.2-1.2 0.6-1.7q0.2-0.3 0.5-0.5 0.4-0.2 0.8-0.2 0.3 0 0.6 0.2 0.4 0.2 0.6 0.5zm0 1.7c0-0.4-0.2-0.8-0.4-1.1q-0.2-0.3-0.4-0.4-0.2-0.1-0.5-0.1-0.2 0-0.4 0.1-0.2 0.1-0.4 0.4c-0.2 0.3-0.4 0.7-0.4 1.1 0 0.5 0.2 0.9 0.4 1.2q0.2 0.2 0.4 0.3 0.2 0.1 0.4 0.2 0.3-0.1 0.5-0.2 0.2-0.1 0.4-0.3c0.2-0.3 0.4-0.8 0.4-1.2z"/>
	<path id="Layer" class="s5" d="m114 150.4q0 0.2 0 0.3-0.1 0.1-0.2 0.1-0.1 0-0.2 0 0 0 0-0.1-0.1 0-0.1-0.1 0-0.1 0-0.2v-3.8q0-0.1 0-0.2 0-0.1 0.1-0.1 0.1-0.1 0.2-0.1 0.1 0.1 0.2 0.2l1.7 3v-2.8q0-0.1 0.1-0.2 0.1-0.1 0.2-0.1 0.1 0 0.2 0.1 0.1 0.1 0.1 0.2v3.9q0 0.1-0.1 0.3-0.1 0.1-0.2 0.1-0.1 0-0.1-0.1-0.1 0-0.1-0.1l-1.7-2.9z"/>
	<path id="Layer" fill-rule="evenodd" class="s5" d="m112.1 157.5q0 0.1 0 0.2-0.1 0-0.1 0.1-0.1 0-0.1 0.1-0.1 0-0.1 0h-0.1v0.5q0 0.1 0 0.2 0 0 0 0.1-0.1 0.1-0.1 0.1-0.1 0-0.2 0 0 0-0.1 0 0 0-0.1-0.1 0-0.1 0-0.1-0.1-0.1-0.1-0.2v-0.5h-1.6q-0.1 0-0.2-0.1-0.1 0-0.1-0.1 0 0 0-0.1 0-0.1 0-0.2 0 0 0-0.1l2-3h0.2v2.7h0.4q0.1 0 0.1 0 0.1 0.1 0.2 0.2 0 0 0 0.1 0 0.1 0 0.2zm-1-2l-1 1.7h1z"/>
	<path id="Layer" class="s11" d="m159 145.3h-39v35.5h39z"/>
	<path id="Layer" class="s2" d="m155.5 149.5h-31.9v0.9h31.9z"/>
	<path id="Layer" class="s2" d="m155.5 152.4h-31.9v0.9h31.9z"/>
	<path id="Layer" class="s2" d="m144.9 155.3h-21.3v0.9h21.3z"/>
	<path id="Layer" class="s2" d="m155.5 161.4h-31.9v0.9h31.9z"/>
	<path id="Layer" class="s2" d="m155.5 164.3h-31.9v0.9h31.9z"/>
	<path id="Layer" class="s2" d="m151.7 167.1h-28.1v1h28.1z"/>
	<path id="Layer" class="s2" d="m155.5 170h-31.9v0.9h31.9z"/>
	<path id="Layer" class="s2" d="m155.5 172.9h-31.9v0.9h31.9z"/>
	<path id="Layer" class="s2" d="m144.9 175.8h-21.3v0.9h21.3z"/>
	<path id="Layer" class="s5" d="m107.1 193.6v-3.9q0-0.1 0.1-0.1 0-0.1 0-0.2 0.1 0 0.1 0 0.1-0.1 0.1-0.1h1.8q0.1 0 0.2 0.1 0.1 0.2 0.1 0.3 0 0.2-0.1 0.3-0.1 0.1-0.2 0.1h-1.5v1.2h1.3q0.1 0 0.2 0.1 0.1 0.1 0.1 0.3 0 0.1-0.1 0.2-0.1 0.1-0.2 0.1h-1.3v1.6q0 0.2-0.1 0.3-0.1 0.1-0.2 0.1 0 0-0.1 0 0-0.1-0.1-0.1 0-0.1 0-0.1-0.1-0.1-0.1-0.2z"/>
	<path id="Layer" fill-rule="evenodd" class="s5" d="m112.8 193.4q0 0.1 0 0.2 0 0.1 0 0.1 0 0.1-0.1 0.1 0 0.1-0.1 0.1h-0.1q-0.1 0-0.2-0.1-0.1-0.1-0.2-0.2-0.1-0.4-0.1-0.8 0-0.2-0.1-0.3 0-0.1-0.1-0.2-0.2-0.1-0.3-0.1h-0.6v1.4q0 0.2-0.1 0.3-0.1 0.1-0.2 0.1-0.2 0-0.2-0.1-0.1-0.1-0.1-0.3v-3.9q0-0.1 0-0.2 0 0 0.1-0.1 0 0 0.1-0.1 0 0 0.1 0h0.9q0.4 0 0.7 0.3 0.3 0.2 0.4 0.7 0.1 0.4 0 0.8-0.1 0.5-0.4 0.7 0.1 0.1 0.2 0.3 0.2 0.3 0.2 0.7 0 0.2 0 0.4 0.1 0 0.1 0.1 0.1 0 0.1 0.1zm-0.7-2.6q0-0.2-0.1-0.3 0-0.1-0.1-0.2-0.1-0.1-0.2-0.2-0.1 0-0.2 0h-0.6v1.3h0.6q0.2 0 0.4-0.2 0.1-0.2 0.2-0.4z"/>
	<path id="Layer" class="s5" d="m113.7 189.7q0-0.1 0-0.1 0-0.1 0.1-0.2 0 0 0.1 0 0-0.1 0.1-0.1 0.1 0 0.2 0.1 0.1 0.2 0.1 0.3v3.9q0 0.1 0 0.2-0.1 0-0.1 0.1 0 0-0.1 0.1-0.1 0-0.1 0-0.1 0-0.1 0-0.1-0.1-0.1-0.1-0.1-0.1-0.1-0.1 0-0.1 0-0.2z"/>
	<path id="Layer" class="s5" d="m109.6 197.7v3.9q0 0.1-0.1 0.2-0.1 0.1-0.2 0.1 0 0-0.1 0-0.1 0-0.1-0.1 0 0-0.1-0.1 0 0 0-0.1v-3.3l-0.2 0.2q-0.1 0-0.1 0-0.1 0-0.2 0-0.1-0.1-0.1-0.2 0 0 0-0.1 0-0.1 0-0.1 0-0.1 0-0.2 0.1 0 0.1-0.1l0.7-0.4h0.2z"/>
	<path id="Layer" class="s5" d="m112.2 199.1q0.3 0.4 0.4 0.9 0.1 0.5-0.1 0.9-0.1 0.5-0.5 0.8-0.3 0.2-0.7 0.2-0.2 0-0.5-0.1-0.2-0.1-0.4-0.3-0.1-0.2-0.1-0.3 0-0.2 0.1-0.3 0.1-0.1 0.2-0.1 0.1 0 0.2 0.1 0.1 0.2 0.3 0.2 0.1 0.1 0.2 0.1 0.2 0 0.3-0.1 0.1 0 0.2-0.2 0.2-0.2 0.2-0.6 0-0.2 0-0.3-0.1-0.2-0.2-0.3-0.1-0.2-0.2-0.2-0.1-0.1-0.3-0.1-0.1 0-0.2 0.1-0.2 0-0.3 0.2 0 0-0.1 0 0 0.1-0.1 0.1-0.1 0-0.1-0.1-0.1 0-0.1 0l-0.1-0.1v-0.2l0.2-1.7q0-0.1 0-0.1 0.1-0.1 0.1-0.2 0.1 0 0.2 0h1.6q0 0 0.1 0.1 0.1 0 0.1 0.1 0 0 0.1 0.1 0 0.1 0 0.1 0 0.1 0 0.2-0.1 0-0.1 0.1-0.1 0-0.1 0.1-0.1 0-0.1 0h-1.4l-0.1 0.7q0.2-0.1 0.4-0.1c0.3 0 0.7 0.1 0.9 0.3z"/>
	<path id="Layer" class="s10" d="m159 188.5h-39v15h39z"/>
	<path id="Layer" class="s2" d="m155.5 192.7h-31.9v0.9h31.9z"/>
	<path id="Layer" class="s2" d="m155.5 195.6h-31.9v0.9h31.9z"/>
	<path id="Layer" class="s2" d="m144.9 198.4h-21.3v1h21.3z"/>
	<path id="Layer" class="s5" d="m107.7 245.8l-0.8-0.1v3.6q0 0.1-0.1 0.3-0.1 0.1-0.2 0.1-0.1 0-0.2-0.1-0.1-0.2-0.1-0.3v-3.6h-0.9q-0.1 0-0.2-0.1 0-0.1 0-0.2 0-0.1 0-0.2 0 0 0-0.1 0.1 0 0.1-0.1 0.1 0 0.1 0h2.3q0.1 0 0.2 0.1 0.1 0.1 0.1 0.3 0 0.1-0.1 0.2-0.1 0.1-0.2 0.1z"/>
	<path id="Layer" class="s5" d="m108.9 249.3v-3.9q0-0.1 0-0.2 0 0 0.1-0.1 0 0 0.1-0.1 0 0 0.1 0 0.1 0 0.2 0.1 0.1 0.1 0.1 0.3v1.6h1.3v-1.6q0-0.1 0.1-0.1 0-0.1 0-0.2 0.1-0.1 0.1-0.1 0.1 0 0.1 0 0.1 0 0.2 0 0 0 0.1 0.1 0 0.1 0 0.2 0 0 0 0.1v3.9q0 0.2-0.1 0.3-0.1 0-0.2 0-0.1 0-0.2 0 0-0.1-0.1-0.3v-1.6h-1.3v1.6q0 0.2-0.1 0.3-0.1 0.1-0.2 0.1-0.1 0-0.1 0-0.1-0.1-0.1-0.1-0.1-0.1-0.1-0.2 0 0 0-0.1z"/>
	<path id="Layer" class="s5" d="m114.2 249.7q-0.3 0-0.6-0.2-0.3-0.1-0.5-0.4-0.2-0.3-0.3-0.6-0.1-0.4-0.1-0.8v-2.3q0-0.1 0-0.2 0 0 0-0.1 0.1 0 0.1-0.1 0.1 0 0.2 0 0.1 0 0.2 0.1 0.1 0.1 0.1 0.3v2.3c0 0.4 0.1 0.7 0.2 0.9q0.3 0.3 0.7 0.3 0.4 0 0.7-0.3c0.1-0.2 0.2-0.5 0.2-0.9v-2.3q0-0.1 0.1-0.2 0 0 0-0.1 0.1 0 0.1-0.1 0.1 0 0.1 0 0.1 0 0.2 0 0 0.1 0.1 0.1 0 0.1 0 0.1 0 0.1 0 0.2v2.3q0 0.4-0.1 0.8-0.1 0.3-0.3 0.6-0.2 0.3-0.5 0.4-0.3 0.2-0.6 0.2z"/>
	<path id="Layer" class="s5" d="m110.2 257.3q0 0 0 0.1 0 0.1-0.1 0.1 0 0.1-0.1 0.1 0 0-0.1 0h-1.9q0 0-0.1 0-0.1 0-0.1-0.1-0.1-0.1-0.1-0.3 0-0.1 0.1-0.2l1.6-1.8q0.1-0.1 0.2-0.3 0-0.1 0-0.3 0-0.2 0-0.3-0.1-0.2-0.2-0.3-0.2-0.3-0.5-0.3-0.3 0-0.5 0.2l-0.1 0.2q-0.1 0.1-0.1 0.1-0.1 0-0.1 0-0.1 0-0.2 0 0 0 0-0.1-0.1-0.1-0.1-0.2 0-0.2 0.1-0.3l0.1-0.2c0.3-0.3 0.6-0.4 0.9-0.4q0.3 0 0.5 0.1 0.2 0.2 0.4 0.4c0.2 0.3 0.4 0.7 0.4 1.1q0 0.3-0.2 0.6-0.1 0.4-0.3 0.6l-1 1.1h1.2q0 0 0.1 0 0 0 0.1 0.1 0 0 0.1 0.1 0 0.1 0 0.1z"/>
	<path id="Layer" fill-rule="evenodd" class="s5" d="m113.4 256c0 0.4-0.2 0.8-0.4 1-0.2 0.3-0.5 0.5-0.9 0.5-0.3 0-0.6-0.2-0.8-0.5-0.3-0.2-0.4-0.6-0.4-1q0-0.4 0.1-0.8 0.2-0.3 0.4-0.5-0.1-0.3-0.1-0.7 0-0.4 0.2-0.7 0.3-0.3 0.6-0.3 0.4 0 0.6 0.3 0.3 0.3 0.3 0.7 0 0.4-0.2 0.7 0.3 0.2 0.4 0.6 0.2 0.3 0.2 0.7zm-0.6 0q0-0.4-0.2-0.6-0.2-0.3-0.5-0.3-0.2 0-0.5 0.3-0.1 0.2-0.2 0.6 0.1 0.4 0.2 0.6 0.3 0.3 0.5 0.3 0.3-0.1 0.5-0.3 0.2-0.3 0.2-0.6zm-1-2q0 0.2 0.1 0.3 0.1 0.1 0.2 0.1 0.1 0 0.1-0.1 0.1 0 0.1 0 0.1-0.1 0.1-0.2 0 0 0-0.1 0-0.1-0.1-0.3-0.1-0.1-0.2-0.1-0.1 0-0.1 0.1-0.1 0-0.1 0-0.1 0.1-0.1 0.2 0 0.1 0 0.2z"/>
	<path id="Layer" class="s10" d="m159 244.2h-39v18.8h39z"/>
	<path id="Layer" class="s2" d="m155.5 248.4h-31.9v0.9h31.9z"/>
	<path id="Layer" class="s2" d="m155.5 251.3l-31.9-0.1v1h31.9z"/>
	<path id="Layer" class="s2" d="m155.5 254.1h-31.9v1h31.9z"/>
	<path id="Layer" class="s2" d="m144.9 257h-21.3v0.9h21.3z"/>
	<path id="Layer" class="s5" d="m109.7 215.6l-1.3 3.8v0.1h-0.1-0.1q0 0 0-0.1l-0.7-2-0.7 2v0.1h-0.6v-0.1l-1.4-3.8q0-0.1 0-0.2 0 0 0-0.1 0.1-0.1 0.1-0.1 0.1-0.1 0.1-0.1 0.1 0 0.1 0 0.1 0 0.1 0 0.1 0 0.1 0.1 0.1 0 0.1 0.1l1 3.1 0.7-2q0-0.1 0.1-0.2 0.1-0.1 0.2-0.1 0.1 0 0.1 0.1 0.1 0.1 0.2 0.2l0.6 2 1.1-3.1q0-0.1 0-0.1 0.1-0.1 0.1-0.1 0.1 0 0.2 0 0 0 0.1 0 0 0.1 0 0.3 0 0.1-0.1 0.2z"/>
	<path id="Layer" class="s5" d="m110.6 219.3v-3.9q0-0.1 0-0.2 0 0 0.1-0.1 0 0 0.1 0 0-0.1 0.1-0.1h1.7q0.1 0 0.2 0.1 0.1 0.1 0.1 0.3 0 0.1-0.1 0.3-0.1 0.1-0.2 0.1h-1.4v1.2h1.2q0.1 0 0.2 0.1 0.1 0.1 0.1 0.3 0 0.1-0.1 0.2-0.1 0.1-0.2 0.1h-1.2v1.3h1.4q0.1 0 0.2 0.1 0 0.1 0 0.2 0 0.2 0 0.3-0.1 0.1-0.2 0.1h-1.7q-0.1 0-0.1 0-0.1-0.1-0.1-0.1-0.1-0.1-0.1-0.2 0 0 0-0.1z"/>
	<path id="Layer" fill-rule="evenodd" class="s5" d="m113.7 219.3v-3.9q0-0.1 0.1-0.2 0 0 0-0.1 0.1 0 0.1 0 0.1-0.1 0.1-0.1h0.7q0.3 0 0.7 0.2 0.3 0.2 0.6 0.5 0.2 0.3 0.4 0.8 0.1 0.4 0.1 0.9 0 0.4-0.1 0.8-0.2 0.5-0.4 0.8-0.3 0.3-0.6 0.5-0.4 0.2-0.7 0.2h-0.7q0 0-0.1-0.1 0 0-0.1 0 0-0.1 0-0.2-0.1 0-0.1-0.1zm0.6-0.4h0.4c0.3 0 0.6-0.2 0.8-0.5 0.2-0.3 0.3-0.6 0.3-1 0-0.4-0.1-0.8-0.3-1.1-0.2-0.3-0.5-0.5-0.8-0.5h-0.4z"/>
	<path id="Layer" class="s5" d="m109.9 227.3q0 0.1 0 0.2-0.1 0.1-0.2 0.1h-1.9q-0.1 0-0.1 0-0.1 0-0.1-0.1-0.1-0.1-0.1-0.2 0-0.2 0.1-0.3l1.6-1.8q0.1-0.1 0.1-0.3 0.1-0.1 0.1-0.3 0-0.3-0.2-0.6-0.1-0.1-0.2-0.2-0.1-0.1-0.3-0.1-0.3 0-0.5 0.2l-0.1 0.2q-0.1 0.1-0.1 0.1-0.1 0-0.1 0-0.1 0-0.2 0 0 0-0.1-0.1 0 0 0-0.1 0-0.1 0-0.2 0 0 0-0.1 0-0.1 0.1-0.1l0.2-0.2c0.2-0.3 0.5-0.4 0.8-0.4q0.3 0 0.5 0.1 0.3 0.2 0.5 0.4c0.2 0.3 0.3 0.7 0.3 1.1q0 0.3-0.1 0.6-0.1 0.3-0.3 0.6l-1 1.1h1.1q0.1 0 0.2 0.1 0 0.1 0 0.3z"/>
	<path id="Layer" fill-rule="evenodd" class="s5" d="m110.7 225.3c0-0.6 0.1-1.1 0.3-1.6q0.2-0.3 0.5-0.5 0.2-0.2 0.5-0.2 0.3 0 0.6 0.2 0.3 0.2 0.4 0.5 0.4 0.8 0.4 1.6 0 0.9-0.4 1.6-0.1 0.3-0.4 0.5-0.3 0.2-0.6 0.2-0.3 0-0.5-0.2-0.3-0.2-0.5-0.5c-0.2-0.5-0.3-1-0.3-1.6zm2.1 0q0-0.6-0.3-1.2-0.1-0.1-0.2-0.3-0.1-0.1-0.3-0.1-0.1 0-0.3 0.2-0.1 0.1-0.2 0.2-0.2 0.6-0.2 1.2 0 0.6 0.2 1.2 0.1 0.2 0.2 0.3 0.2 0.1 0.3 0.1 0.2 0 0.3-0.1 0.1-0.1 0.2-0.3 0.3-0.6 0.3-1.2z"/>
	<path id="Layer" class="s11" d="m159 214.2h-39v23.9h39z"/>
	<path id="Layer" class="s2" d="m155.5 218.4h-31.9v0.9h31.9z"/>
	<path id="Layer" class="s2" d="m155.5 221.3h-31.9v0.9h31.9z"/>
	<path id="Layer" class="s2" d="m155.5 224.1h-31.9v1h31.9z"/>
	<path id="Layer" class="s2" d="m155.5 227h-31.9v0.9h31.9z"/>
	<path id="Layer" class="s2" d="m155.5 229.9h-31.9v0.9h31.9z"/>
	<path id="Layer" class="s2" d="m144.9 232.8h-21.3v0.9h21.3z"/>
	<path id="Layer" class="s12" d="m397.9 403.6c1.7 0.7 50.7-0.1 52.5-1.6 0.7-0.6 1.1-9.5 1.2-20.3 0-0.1-0.1-39.9-0.1-39.9l-31.9 0.4 0.4 39.9c0 0-18.6 10.8-20.5 12.7-1.9 1.9-3.3 8.1-1.6 8.8z"/>
	<path id="Layer" class="s7" d="m412.6 386.3c0.1 0 0.2-0.1 0.2-0.2z"/>
	<path id="Layer" class="s6" d="m451.5 387.3c-0.2 8.1-0.5 14.2-1.1 14.7-1.8 1.5-50.8 2.3-52.5 1.6-1.7-0.7-0.3-6.9 1.6-8.8 0.9-0.9 5.7-3.9 10.3-6.7-6.9 5-12.2 11.8 41.7-0.8z"/>
	<path id="Layer" class="s8" d="m451.5 387.3c-0.2 8.1-0.5 14.2-1.1 14.7-0.7 0.6-8.9 1.1-18.5 1.4l11.8-14.3c2.4-0.5 5-1.1 7.8-1.8z"/>
	<path id="Layer" class="s12" d="m461.6 165.5c0 0-8.3 104.2-9.5 112.1-0.3 1.8 0.5 10.8 0.4 23.3-0.3 27.5-0.8 76.9-0.8 76.9h-31.8c0 0-1-85.7 0.5-101.4 1.6-15.8 11.3-110.9 11.3-110.9z"/>
	<path id="Layer" class="s12" d="m438 407.2c1.7 0.6 50.5-4.6 52.3-6.2 0.7-0.7 0.5-9.6 0-20.4 0-0.1-3.4-39.6-3.4-39.6l-31.4 3.1 3.3 39.7c0 0-18 12.4-19.7 14.5-1.8 2.1-2.9 8.4-1.1 8.9z"/>
	<path id="Layer" class="s6" d="m490.3 401c-1.8 1.7-50.6 6.8-52.3 6.3-1.8-0.6-0.7-6.9 1.1-8.9 1-1.2 7.4-5.8 12.6-9.6-6.8 5.7-19.9 17.9 38.8-4.3 0.3 8.9 0.4 15.9-0.2 16.5z"/>
	<path id="Layer" class="s12" d="m458.4 379.4l31.5-3c0 0-8.1-91.8-8.3-97.7-0.3-8.6-2.9-45.1-5.7-74 0 0 3.1-20.8-4.6-39.2h-39.6c0 0 2.6 22.5 7.2 36.7q4.6 2 8.8 5c0 0 3.2 65.2 3.4 73.3 0.3 15.9 7.3 98.9 7.3 98.9z"/>
	<path id="Layer" class="s6" d="m431.7 165.5c0 0-12.5 106.4-13 116.3-0.5 9.9-0.7 29.4-0.7 29.4 0 0 18.4 8.3 27.6 8.4 20.3 0.3 40.2-13.5 40.2-13.5 0 0-9.3-101.1-9.3-101.3 2.1-13.4 0.6-27.2-4.4-39.4z"/>
	<path id="Layer" fill-rule="evenodd" class="s8" d="m437.4 175.7q0 0.3-0.2 0.5-0.2 0.2-0.4 0.2-0.2 0-0.4-0.2-0.2-0.2-0.2-0.5 0-0.3 0.2-0.5 0.2-0.2 0.4-0.2 0.2 0 0.4 0.2 0.2 0.2 0.2 0.5zm8.9-0.5q0.2 0.2 0.2 0.5 0 0.3-0.2 0.5-0.2 0.3-0.4 0.3-0.3 0-0.5-0.3-0.1-0.2-0.1-0.5 0-0.3 0.1-0.5 0.2-0.2 0.5-0.2 0.2 0 0.4 0.2zm9.1 0q0.2 0.2 0.2 0.6 0 0.3-0.2 0.5-0.2 0.2-0.4 0.2-0.2 0-0.4-0.2-0.2-0.2-0.2-0.5 0-0.4 0.2-0.6 0.2-0.2 0.4-0.2 0.2 0 0.4 0.2zm8.6-0.2q0.2 0 0.3 0 0.1 0.1 0.2 0.2 0.1 0.1 0.1 0.3 0.1 0.1 0.1 0.3 0 0.2-0.1 0.4-0.1 0.2-0.3 0.2-0.2 0.1-0.3 0.1-0.2-0.1-0.3-0.2-0.2-0.2-0.2-0.4 0-0.2 0-0.4 0.1-0.2 0.2-0.4 0.2-0.1 0.4-0.1zm9.1 0q0.1 0 0.2 0 0.1 0.1 0.2 0.2 0.1 0.1 0.1 0.3 0.1 0.1 0.1 0.3 0 0.2-0.1 0.4-0.1 0.2-0.3 0.2-0.1 0.1-0.3 0.1-0.2-0.1-0.3-0.2-0.2-0.2-0.2-0.4 0-0.2 0-0.4 0.1-0.2 0.3-0.4 0.1-0.1 0.3-0.1zm-40.9-8.7q0.2 0 0.3 0.1 0.1 0 0.2 0.2 0.1 0.1 0.1 0.2 0.1 0.2 0.1 0.3 0 0.3-0.1 0.4-0.1 0.2-0.3 0.3-0.2 0.1-0.3 0.1-0.2-0.1-0.3-0.2-0.2-0.2-0.2-0.4 0-0.2 0-0.5 0.1-0.2 0.2-0.3 0.2-0.1 0.4-0.1zm9.5 0.2q0.2 0.3 0.2 0.6 0 0.3-0.2 0.5-0.2 0.2-0.4 0.2-0.3 0-0.4-0.2-0.2-0.2-0.2-0.5 0-0.3 0.2-0.6 0.1-0.2 0.4-0.2 0.2 0 0.4 0.2zm8.6-0.2q0.2 0 0.3 0 0.1 0.1 0.2 0.2 0.1 0.1 0.1 0.3 0.1 0.1 0.1 0.3 0 0.2-0.1 0.4-0.1 0.2-0.3 0.3-0.2 0-0.4 0-0.1 0-0.3-0.2-0.1-0.2-0.1-0.4-0.1-0.2 0-0.4 0.1-0.2 0.2-0.4 0.2-0.1 0.4-0.1zm9.5 0.3q0.2 0.2 0.2 0.5 0 0.3-0.2 0.5-0.2 0.3-0.4 0.3-0.3 0-0.5-0.3-0.1-0.2-0.1-0.5 0-0.3 0.1-0.5 0.2-0.2 0.5-0.2 0.2 0 0.4 0.2zm8.6-0.3q0.2 0 0.3 0.1 0.1 0 0.2 0.1 0.1 0.2 0.1 0.3 0.1 0.2 0 0.3 0 0.2-0.1 0.4-0.1 0.2-0.2 0.3-0.2 0.1-0.4 0-0.2 0-0.3-0.2-0.1-0.1-0.1-0.3-0.1-0.3 0-0.5 0.1-0.2 0.2-0.3 0.2-0.1 0.3-0.1zm-31.7 25.8q0.1 0 0.2 0 0.1 0.1 0.2 0.2 0.1 0.1 0.2 0.3 0 0.1 0 0.3 0 0.2-0.1 0.4-0.1 0.2-0.3 0.3-0.1 0-0.3 0-0.2 0-0.3-0.2-0.2-0.2-0.2-0.4 0-0.2 0-0.4 0.1-0.2 0.3-0.3 0.1-0.2 0.3-0.2zm9.1 0q0.1 0 0.2 0.1 0.1 0 0.2 0.1 0.1 0.2 0.2 0.3 0 0.2 0 0.3 0 0.2-0.1 0.4-0.1 0.2-0.3 0.3-0.1 0.1-0.3 0-0.2 0-0.3-0.2-0.1-0.1-0.2-0.3 0-0.3 0-0.5 0.1-0.2 0.3-0.3 0.1-0.1 0.3-0.1zm9.1 0q0.1 0 0.2 0 0.2 0.1 0.2 0.2 0.1 0.1 0.2 0.2 0 0.2 0 0.3 0 0.3-0.1 0.5-0.1 0.2-0.3 0.2-0.1 0.1-0.3 0.1-0.2-0.1-0.3-0.2-0.1-0.2-0.2-0.4 0-0.2 0.1-0.4 0-0.2 0.2-0.4 0.1-0.1 0.3-0.1zm9.5 0.3q0.2 0.2 0.2 0.5 0 0.3-0.2 0.5-0.2 0.2-0.4 0.2-0.3 0-0.4-0.2-0.2-0.2-0.2-0.5 0-0.3 0.2-0.5 0.1-0.3 0.4-0.3 0.2 0 0.4 0.3zm9.1 0q0.2 0.2 0.2 0.5 0 0.3-0.2 0.5-0.2 0.2-0.4 0.2-0.3 0-0.5-0.2-0.1-0.2-0.1-0.5 0-0.3 0.1-0.5 0.2-0.3 0.5-0.3 0.2 0 0.4 0.3zm-40.9-8.7q0.2 0.3 0.2 0.6 0 0.3-0.2 0.5-0.1 0.2-0.4 0.2-0.2 0-0.4-0.2-0.2-0.2-0.2-0.5 0-0.3 0.2-0.6 0.2-0.2 0.4-0.2 0.3 0 0.4 0.2zm8.7-0.2q0.1 0 0.2 0 0.2 0.1 0.2 0.2 0.1 0.1 0.2 0.3 0 0.1 0 0.3 0 0.2-0.1 0.4-0.1 0.2-0.3 0.3-0.1 0-0.3 0-0.2 0-0.3-0.2-0.2-0.2-0.2-0.4 0-0.2 0-0.4 0.1-0.2 0.3-0.4 0.1-0.1 0.3-0.1zm9.5 0.3q0.2 0.2 0.2 0.5 0 0.3-0.2 0.5-0.2 0.3-0.4 0.3-0.3 0-0.5-0.3-0.1-0.2-0.1-0.5 0-0.3 0.1-0.5 0.2-0.2 0.5-0.2 0.2 0 0.4 0.2zm8.6-0.3q0.1 0 0.3 0.1 0.1 0 0.2 0.1 0.1 0.2 0.1 0.3 0 0.2 0 0.3 0 0.2-0.1 0.4-0.1 0.2-0.2 0.3-0.2 0.1-0.4 0-0.2 0-0.3-0.2-0.1-0.1-0.1-0.3-0.1-0.3 0-0.5 0.1-0.2 0.2-0.3 0.2-0.1 0.3-0.1zm9.6 0.2q0.1 0.2 0.1 0.5 0 0.4-0.1 0.6-0.2 0.2-0.5 0.2-0.2 0-0.4-0.2-0.1-0.2-0.2-0.6 0.1-0.3 0.2-0.5 0.2-0.2 0.4-0.2 0.3 0 0.5 0.2zm-40.9 25.8q0.2 0.3 0.2 0.6 0 0.3-0.2 0.5-0.1 0.2-0.4 0.2-0.2 0-0.4-0.2-0.2-0.2-0.2-0.5 0-0.3 0.2-0.6 0.2-0.2 0.4-0.2 0.3 0 0.4 0.2zm9.1 0q0.2 0.3 0.2 0.6 0 0.3-0.2 0.5-0.2 0.2-0.4 0.2-0.3 0-0.4-0.2-0.2-0.2-0.2-0.5 0-0.3 0.2-0.6 0.1-0.2 0.4-0.2 0.2 0 0.4 0.2zm9.1 0q0.2 0.3 0.2 0.6 0 0.3-0.2 0.5-0.2 0.2-0.4 0.2-0.3 0-0.5-0.2-0.1-0.2-0.1-0.5 0-0.3 0.1-0.6 0.2-0.2 0.5-0.2 0.2 0 0.4 0.2zm9.1 0q0.1 0.3 0.1 0.6 0 0.3-0.1 0.5-0.2 0.2-0.5 0.2-0.2 0-0.4-0.2-0.2-0.2-0.2-0.5 0-0.3 0.2-0.6 0.2-0.2 0.4-0.2 0.3 0 0.5 0.2zm8.6-0.2q0.1 0 0.2 0 0.1 0.1 0.2 0.2 0.1 0.1 0.2 0.3 0 0.1 0 0.3 0 0.2-0.1 0.4-0.1 0.2-0.3 0.3-0.1 0.1-0.3 0-0.2 0-0.3-0.2-0.1-0.2-0.2-0.4 0-0.2 0.1-0.4 0-0.2 0.2-0.3 0.1-0.2 0.3-0.2zm9.1 0q0.1 0 0.2 0.1 0.2 0 0.2 0.1 0.1 0.2 0.2 0.3 0 0.2 0 0.3 0 0.2-0.1 0.4-0.1 0.2-0.2 0.3-0.2 0.1-0.4 0.1-0.2-0.1-0.3-0.3-0.1-0.1-0.2-0.3 0-0.3 0.1-0.5 0-0.2 0.2-0.3 0.1-0.1 0.3-0.1zm-40.8-8.7q0.1 0 0.2 0.1 0.1 0 0.2 0.2 0.1 0.1 0.2 0.2 0 0.2 0 0.3 0 0.3-0.1 0.5-0.1 0.1-0.3 0.2-0.1 0.1-0.3 0.1-0.2-0.1-0.3-0.2-0.2-0.2-0.2-0.4 0-0.2 0-0.5 0.1-0.2 0.3-0.3 0.1-0.1 0.3-0.1zm9.5 0.3q0.2 0.2 0.2 0.5 0 0.3-0.2 0.5-0.2 0.2-0.4 0.2-0.2 0-0.4-0.2-0.1-0.2-0.1-0.5 0-0.3 0.1-0.5 0.2-0.2 0.4-0.3 0.2 0.1 0.4 0.3zm8.7-0.3q0.1 0 0.2 0 0.1 0.1 0.2 0.2 0.1 0.1 0.2 0.3 0 0.1 0 0.3 0 0.2-0.1 0.4-0.1 0.2-0.3 0.3-0.2 0.1-0.3 0-0.2 0-0.3-0.2-0.2-0.1-0.2-0.4 0-0.2 0-0.4 0.1-0.2 0.3-0.4 0.1-0.1 0.3-0.1zm9.5 0.3q0.1 0.2 0.1 0.5 0 0.3-0.1 0.5-0.2 0.2-0.4 0.3-0.2-0.1-0.4-0.3-0.1-0.2-0.1-0.5 0-0.3 0.1-0.5 0.2-0.2 0.4-0.2 0.2 0 0.4 0.2zm8.7-0.3q0.1 0 0.2 0.1 0.1 0 0.2 0.1 0.1 0.2 0.1 0.3 0.1 0.2 0.1 0.3 0 0.2-0.1 0.4-0.1 0.2-0.3 0.3-0.2 0.1-0.3 0.1-0.2-0.1-0.4-0.2-0.1-0.2-0.1-0.4-0.1-0.3 0-0.5 0.1-0.2 0.2-0.3 0.2-0.1 0.4-0.1zm-40.9 25.8q0.1 0 0.3 0 0.1 0.1 0.2 0.2 0.1 0.1 0.1 0.3 0.1 0.1 0.1 0.3 0 0.2-0.1 0.4-0.2 0.2-0.3 0.3-0.2 0.1-0.4 0-0.1 0-0.3-0.2-0.1-0.2-0.1-0.4-0.1-0.2 0-0.4 0.1-0.2 0.2-0.3 0.2-0.2 0.4-0.2zm9 0q0.2 0 0.3 0.1 0.1 0 0.2 0.1 0.1 0.2 0.1 0.3 0.1 0.2 0.1 0.3 0 0.2-0.1 0.4-0.1 0.2-0.3 0.3-0.2 0.1-0.4 0.1-0.1-0.1-0.3-0.2-0.1-0.2-0.1-0.4-0.1-0.2 0-0.5 0.1-0.2 0.2-0.3 0.2-0.1 0.4-0.1zm9 0q0.2 0 0.3 0 0.1 0.1 0.2 0.2 0.1 0.1 0.1 0.3 0.1 0.1 0.1 0.3 0 0.2-0.1 0.4-0.1 0.2-0.3 0.3-0.2 0-0.3 0-0.2-0.1-0.4-0.2-0.1-0.2-0.1-0.4-0.1-0.2 0-0.4 0.1-0.2 0.2-0.4 0.2-0.1 0.4-0.1zm9.1 0q0.1 0 0.2 0.1 0.1 0 0.2 0.1 0.1 0.2 0.1 0.3 0.1 0.1 0.1 0.3 0 0.2-0.1 0.4-0.1 0.2-0.3 0.3-0.2 0.1-0.3 0-0.2 0-0.3-0.2-0.2-0.1-0.2-0.3 0-0.3 0-0.5 0.1-0.2 0.2-0.3 0.2-0.1 0.4-0.2zm9.5 0.3q0.1 0.2 0.2 0.5-0.1 0.3-0.2 0.6-0.2 0.2-0.4 0.2-0.3 0-0.5-0.2-0.1-0.3-0.1-0.6 0-0.3 0.1-0.5 0.2-0.2 0.5-0.2 0.2 0 0.4 0.2zm9.1 0q0.1 0.2 0.1 0.5 0 0.3-0.1 0.6-0.2 0.2-0.5 0.2-0.2 0-0.4-0.2-0.2-0.3-0.2-0.6 0-0.3 0.2-0.5 0.2-0.2 0.4-0.2 0.3 0 0.5 0.2zm-40.9-8.6q0.1 0.2 0.2 0.5 0 0.3-0.1 0.4-0.2 0.2-0.3 0.3-0.2 0.1-0.4 0.1-0.1-0.1-0.3-0.2-0.1-0.2-0.1-0.4-0.1-0.2 0-0.5 0.1-0.2 0.2-0.3 0.2-0.1 0.4-0.1 0.2 0 0.4 0.2zm9.1 0q0.2 0.2 0.2 0.5 0 0.3-0.2 0.6-0.2 0.2-0.4 0.2-0.3 0-0.5-0.2-0.1-0.3-0.1-0.6 0-0.3 0.1-0.5 0.2-0.2 0.5-0.2 0.2 0 0.4 0.2zm8.6-0.2q0.1 0 0.2 0 0.2 0.1 0.3 0.2 0 0.1 0.1 0.2 0 0.2 0 0.3 0 0.3-0.1 0.4-0.1 0.2-0.2 0.3-0.2 0.1-0.4 0.1-0.2-0.1-0.3-0.2-0.1-0.2-0.1-0.4-0.1-0.2 0-0.5 0.1-0.2 0.2-0.3 0.2-0.1 0.3-0.1zm9.6 0.2q0.2 0.2 0.2 0.5 0 0.3-0.2 0.6-0.2 0.2-0.4 0.2-0.3 0-0.5-0.2-0.1-0.3-0.1-0.6 0-0.3 0.1-0.5 0.2-0.2 0.5-0.2 0.2 0 0.4 0.2zm9 0q0.2 0.2 0.2 0.5 0 0.3-0.1 0.4-0.1 0.2-0.3 0.3-0.1 0.1-0.3 0.1-0.2-0.1-0.3-0.2-0.1-0.2-0.2-0.4 0-0.2 0.1-0.5 0-0.2 0.2-0.3 0.1-0.1 0.3-0.1 0.3 0 0.4 0.2zm8.7-0.2q0 0 0 0 0 0 0 0 0 0 0 0c0.1 0.4 0.1 0.9 0.2 1.5q-0.1 0-0.2 0-0.2 0-0.4-0.2-0.2-0.3-0.2-0.6 0-0.3 0.2-0.5 0.2-0.2 0.4-0.2 0 0 0 0 0 0 0 0zm-49.5 26q0.2 0.3 0.2 0.6 0 0.3-0.2 0.5-0.2 0.2-0.4 0.2-0.3 0-0.5-0.2-0.1-0.2-0.1-0.5 0-0.3 0.1-0.6 0.2-0.2 0.5-0.2 0.2 0 0.4 0.2zm9.1 0q0.1 0.3 0.1 0.6 0 0.3-0.1 0.5-0.2 0.2-0.5 0.2-0.2 0-0.4-0.2-0.2-0.2-0.2-0.5 0-0.3 0.2-0.6 0.2-0.2 0.4-0.2 0.3 0 0.5 0.2zm9 0q0.2 0.3 0.2 0.6 0 0.3-0.2 0.5-0.1 0.2-0.4 0.2-0.2 0-0.4-0.2-0.2-0.2-0.2-0.5 0-0.3 0.2-0.6 0.2-0.2 0.4-0.2 0.3 0 0.4 0.2zm9.1 0q0.2 0.3 0.2 0.6 0 0.3-0.2 0.5-0.2 0.2-0.4 0.2-0.3 0-0.4-0.2-0.2-0.2-0.2-0.5 0-0.3 0.2-0.6 0.1-0.2 0.4-0.2 0.2 0 0.4 0.2zm8.6-0.2q0.2 0 0.3 0 0.1 0.1 0.2 0.2 0.1 0.1 0.1 0.3 0.1 0.1 0.1 0.3 0 0.2-0.1 0.4-0.1 0.2-0.3 0.3-0.2 0-0.4 0-0.1-0.1-0.3-0.2-0.1-0.2-0.1-0.4-0.1-0.2 0-0.4 0.1-0.2 0.2-0.4 0.2-0.1 0.4-0.1zm9 0q0.2 0 0.3 0.1 0.1 0 0.2 0.1 0.1 0.2 0.1 0.3 0.1 0.2 0.1 0.3 0 0.2-0.1 0.4-0.1 0.2-0.3 0.3-0.2 0.1-0.4 0-0.1 0-0.3-0.2-0.1-0.1-0.1-0.3-0.1-0.3 0-0.5 0.1-0.2 0.2-0.3 0.2-0.1 0.4-0.1zm-49.4-8.1q0.1 0.2 0 0.3 0 0.2-0.1 0.4-0.1 0.1-0.2 0.2 0.1-0.6 0.2-1.2 0.1 0.1 0.1 0.3zm8.9-0.3q0.2 0.2 0.2 0.5 0 0.3-0.2 0.6-0.1 0.2-0.4 0.2-0.2 0-0.4-0.2-0.2-0.3-0.2-0.6 0-0.3 0.2-0.5 0.2-0.2 0.4-0.2 0.3 0 0.4 0.2zm8.7-0.3q0.1 0 0.3 0.1 0.1 0.1 0.2 0.2 0 0.1 0.1 0.2 0 0.2 0 0.3 0 0.3-0.1 0.4-0.1 0.2-0.3 0.3-0.1 0.1-0.3 0.1-0.2-0.1-0.3-0.2-0.1-0.2-0.2-0.4 0-0.2 0-0.5 0.1-0.2 0.3-0.3 0.1-0.1 0.3-0.1zm9.5 0.2q0.1 0.3 0.2 0.6-0.1 0.3-0.2 0.5-0.2 0.2-0.4 0.2-0.3 0-0.5-0.2-0.1-0.2-0.1-0.5 0-0.3 0.1-0.6 0.2-0.2 0.5-0.2 0.2 0 0.4 0.2zm8.6-0.2q0.1 0 0.3 0 0.1 0.1 0.2 0.2 0.1 0.1 0.1 0.3 0 0.1 0 0.3 0 0.2-0.1 0.4-0.1 0.2-0.2 0.3-0.2 0.1-0.4 0-0.2 0-0.3-0.2-0.1-0.2-0.2-0.4 0-0.2 0.1-0.4 0-0.2 0.2-0.3 0.1-0.2 0.3-0.2zm9.5 0.3q0.2 0.2 0.2 0.5 0 0.3-0.2 0.6-0.1 0.2-0.4 0.2-0.2 0-0.4-0.2-0.2-0.3-0.2-0.6 0-0.3 0.2-0.5 0.2-0.2 0.4-0.2 0.3 0 0.4 0.2zm8.7-0.3q0.1 0 0.2 0.1 0.1 0 0.2 0.2 0.1 0.1 0.2 0.2 0 0.2 0 0.3 0 0.3-0.1 0.4-0.1 0.2-0.3 0.3-0.1 0.1-0.3 0.1-0.2-0.1-0.3-0.2-0.2-0.2-0.2-0.4 0-0.2 0-0.5 0.1-0.2 0.3-0.3 0.1-0.1 0.3-0.1zm-49.5 26q0.2 0.3 0.2 0.6 0 0.2-0.1 0.4-0.1 0.2-0.3 0.3-0.2 0.1-0.3 0-0.2 0-0.3-0.2-0.2-0.2-0.2-0.4 0-0.2 0-0.4 0.1-0.2 0.2-0.3 0.2-0.2 0.4-0.2 0.2 0 0.4 0.2zm9.1 0q0.2 0.3 0.2 0.6 0 0.2-0.1 0.4-0.1 0.2-0.3 0.3-0.2 0.1-0.4 0-0.1 0-0.3-0.2-0.1-0.1-0.1-0.4-0.1-0.2 0-0.4 0.1-0.2 0.2-0.3 0.2-0.2 0.4-0.2 0.2 0 0.4 0.2zm9.1 0q0.1 0.3 0.1 0.6 0 0.2-0.1 0.4-0.1 0.2-0.2 0.3-0.2 0.1-0.4 0-0.2 0-0.3-0.2-0.1-0.2-0.2-0.4 0-0.2 0.1-0.4 0-0.2 0.2-0.3 0.1-0.2 0.3-0.2 0.3 0 0.5 0.2zm9.1 0q0.1 0.3 0.1 0.6 0 0.2-0.1 0.4-0.1 0.2-0.2 0.3-0.2 0.1-0.4 0-0.1 0-0.3-0.2-0.1-0.1-0.1-0.4-0.1-0.2 0-0.4 0.1-0.2 0.2-0.3 0.2-0.2 0.3-0.2 0.3 0 0.5 0.2zm9 0q0.2 0.3 0.2 0.6 0 0.3-0.2 0.5-0.1 0.2-0.4 0.2-0.2 0-0.4-0.2-0.2-0.2-0.2-0.5 0-0.3 0.2-0.6 0.2-0.2 0.4-0.2 0.3 0 0.4 0.2zm9.1 0q0.2 0.3 0.2 0.6 0 0.3-0.2 0.5-0.2 0.2-0.4 0.2-0.3 0-0.4-0.2-0.2-0.2-0.2-0.5 0-0.3 0.2-0.6 0.1-0.2 0.4-0.2 0.2 0 0.4 0.2zm8.1 0.2q0 0 0 0.1 0-0.1 0-0.1zm0 0.1q0 0.3 0.1 0.8-0.1-0.1-0.1-0.3-0.1-0.1-0.1-0.2 0-0.2 0.1-0.3zm-58-8.9q0.1 0.2 0.1 0.5 0 0.4-0.1 0.6-0.2 0.2-0.5 0.2-0.2 0-0.4-0.2-0.2-0.2-0.2-0.6 0-0.3 0.2-0.5 0.2-0.2 0.4-0.2 0.3 0 0.5 0.2zm8.6-0.2q0.1 0 0.2 0 0.1 0.1 0.2 0.2 0.1 0.1 0.2 0.2 0 0.2 0 0.3 0 0.3-0.1 0.5-0.1 0.2-0.3 0.2-0.1 0.1-0.3 0.1-0.2-0.1-0.3-0.2-0.1-0.2-0.2-0.4 0-0.2 0.1-0.4 0-0.2 0.2-0.4 0.1-0.1 0.3-0.1zm9.6 0.2q0.1 0.3 0.1 0.6 0 0.3-0.1 0.5-0.2 0.2-0.5 0.2-0.2 0-0.4-0.2-0.2-0.2-0.2-0.5 0-0.3 0.2-0.6 0.2-0.2 0.4-0.2 0.3 0 0.5 0.2zm8.6-0.2q0.1 0 0.2 0 0.1 0.1 0.2 0.2 0.1 0.1 0.2 0.3 0 0.1 0 0.3 0 0.2-0.1 0.4-0.1 0.2-0.3 0.3-0.1 0.1-0.3 0-0.2 0-0.3-0.2-0.2-0.2-0.2-0.4 0-0.2 0-0.4 0.1-0.2 0.3-0.3 0.1-0.2 0.3-0.2zm9.5 0.3q0.2 0.2 0.2 0.5 0 0.3-0.2 0.5-0.1 0.3-0.4 0.3-0.2 0-0.4-0.3-0.2-0.2-0.2-0.5 0-0.3 0.2-0.5 0.2-0.2 0.4-0.2 0.3 0 0.4 0.2zm8.7-0.3q0.1 0 0.2 0.1 0.1 0 0.2 0.2 0.1 0.1 0.1 0.2 0.1 0.2 0.1 0.3 0 0.2-0.1 0.4-0.1 0.2-0.3 0.3-0.2 0.1-0.3 0-0.2 0-0.3-0.2-0.2-0.1-0.2-0.3 0-0.3 0-0.5 0.1-0.2 0.3-0.3 0.1-0.1 0.3-0.1zm9.5 0.2q0.2 0.2 0.2 0.5 0 0.3-0.2 0.6-0.2 0.2-0.4 0.2-0.3 0-0.4-0.2-0.2-0.3-0.2-0.6 0-0.3 0.2-0.5 0.1-0.2 0.4-0.2 0.2 0 0.4 0.2zm-58.9 26q0.1 0.1 0.1 0.3 0 0.3-0.1 0.5-0.1 0.2-0.3 0.2c0-0.3 0-0.8 0.1-1.3q0.1 0.1 0.2 0.3zm8.6-0.4q0 0 0 0zm0 0h-0.1q0.1 0 0.3 0 0.1 0.1 0.2 0.2 0.1 0.1 0.1 0.2 0.1 0.2 0.1 0.3 0 0.3-0.1 0.5-0.1 0.2-0.3 0.2-0.2 0.1-0.4 0.1-0.1-0.1-0.3-0.2-0.1-0.2-0.1-0.4-0.1-0.2 0-0.5 0.1-0.2 0.2-0.3 0.2-0.1 0.4-0.1zm9 0q0.1 0 0.2 0 0.2 0.1 0.2 0.2 0.1 0.1 0.2 0.2 0 0.2 0 0.3 0 0.3-0.1 0.5-0.1 0.2-0.2 0.2-0.2 0.1-0.4 0.1-0.2-0.1-0.3-0.2-0.1-0.2-0.2-0.4 0-0.2 0.1-0.5 0-0.2 0.2-0.3 0.2-0.1 0.3-0.1zm9.2 0q0 0 0 0zm-0.1 0q0.1 0 0.3 0 0.1 0.1 0.2 0.2 0.1 0.1 0.1 0.2 0.1 0.2 0.1 0.3 0 0.3-0.1 0.5-0.1 0.2-0.3 0.2-0.2 0.1-0.4 0.1-0.2-0.1-0.3-0.2-0.1-0.2-0.1-0.4-0.1-0.2 0-0.5 0.1-0.2 0.2-0.3 0.2-0.1 0.3-0.1zm9.1 0q0.1 0 0.2 0 0.2 0.1 0.3 0.2 0 0.1 0.1 0.2 0 0.2 0 0.3 0 0.3-0.1 0.5-0.1 0.2-0.2 0.2-0.2 0.1-0.4 0.1-0.2-0.1-0.3-0.2-0.1-0.2-0.2-0.4 0-0.2 0.1-0.5 0-0.2 0.2-0.3 0.1-0.1 0.3-0.1zm9.5 0.2q0.2 0.2 0.2 0.5 0 0.3-0.2 0.5-0.1 0.3-0.4 0.3-0.2 0-0.3-0.3-0.2-0.2-0.2-0.5 0-0.3 0.2-0.5 0.1-0.2 0.3-0.2 0.3 0 0.4 0.2zm8.7-0.2q0 0 0 0zm0 0h-0.1q0.2 0 0.3 0 0.1 0.1 0.2 0.2 0.1 0.1 0.1 0.2 0.1 0.2 0.1 0.3 0 0.3-0.1 0.5-0.1 0.2-0.3 0.2-0.1 0.1-0.3 0.1-0.2-0.1-0.3-0.2-0.2-0.2-0.2-0.4 0-0.2 0-0.5 0.1-0.2 0.3-0.3 0.1-0.1 0.3-0.1zm9.5 0.2q0.1 0.2 0.1 0.5 0 0.3-0.1 0.5-0.2 0.3-0.4 0.3-0.3 0-0.4-0.3-0.2-0.2-0.2-0.5 0-0.3 0.2-0.5 0.1-0.2 0.4-0.2 0.2 0 0.4 0.2zm-59.5-8.8q0.1-0.1 0.3 0 0.1 0 0.2 0.2 0.1 0.1 0.1 0.2 0.1 0.2 0.1 0.3 0 0.2-0.1 0.4-0.1 0.2-0.3 0.3-0.2 0.1-0.3 0-0.2 0-0.3-0.2-0.2-0.1-0.2-0.3 0-0.3 0-0.5 0.1-0.2 0.2-0.3 0.2-0.1 0.4-0.1zm9.5 0.2q0.2 0.2 0.2 0.5 0 0.3-0.2 0.5-0.1 0.3-0.4 0.3-0.2 0-0.4-0.3-0.2-0.2-0.2-0.5 0-0.3 0.2-0.5 0.2-0.2 0.4-0.2 0.3 0 0.4 0.2zm8.7-0.2q0.1 0 0.2 0 0.1 0.1 0.2 0.2 0.1 0.1 0.1 0.2 0.1 0.2 0.1 0.3 0 0.2-0.1 0.4-0.1 0.2-0.3 0.3-0.2 0.1-0.3 0-0.2 0-0.3-0.2-0.2-0.1-0.2-0.3 0-0.3 0-0.5 0.1-0.2 0.3-0.3 0.1-0.1 0.3-0.1zm9.5 0.2q0.2 0.2 0.2 0.5 0 0.3-0.2 0.5-0.2 0.3-0.4 0.3-0.3 0-0.4-0.3-0.2-0.2-0.2-0.5 0-0.3 0.2-0.5 0.1-0.2 0.4-0.2 0.2 0 0.4 0.2zm8.6-0.2q0.1-0.1 0.2 0 0.2 0 0.3 0.2 0.1 0.1 0.1 0.2 0.1 0.2 0.1 0.3 0 0.2-0.1 0.4-0.1 0.2-0.3 0.3-0.2 0.1-0.4 0-0.1 0-0.3-0.2-0.1-0.1-0.1-0.3-0.1-0.3 0-0.5 0.1-0.2 0.2-0.3 0.2-0.1 0.4-0.1zm9.5 0.2q0.2 0.2 0.2 0.5 0 0.3-0.2 0.5-0.2 0.3-0.4 0.3-0.3 0-0.4-0.3-0.2-0.2-0.2-0.5 0-0.3 0.2-0.5 0.1-0.2 0.4-0.2 0.2 0 0.4 0.2zm8.6-0.2q0.1-0.1 0.3 0 0.1 0 0.2 0.2 0.1 0.1 0.1 0.2 0.1 0.2 0.1 0.3 0 0.2-0.1 0.4-0.1 0.2-0.3 0.3-0.2 0.1-0.4 0-0.1 0-0.3-0.2-0.1-0.1-0.1-0.3-0.1-0.3 0-0.5 0.1-0.2 0.2-0.3 0.2-0.1 0.4-0.1zm-59 25.8q0.3 0 0.5 0.2 0.1 0.2 0.1 0.5 0 0.3-0.1 0.6-0.2 0.2-0.5 0.2-0.1 0-0.2-0.1-0.1-0.1-0.2-0.2v-1q0.1-0.1 0.2-0.1 0.1-0.1 0.2-0.1zm9.5 0.2q0.2 0.2 0.2 0.5 0 0.3-0.2 0.6-0.2 0.2-0.4 0.2-0.3 0-0.4-0.2-0.2-0.3-0.2-0.6 0-0.3 0.2-0.5 0.1-0.2 0.4-0.2 0.2 0 0.4 0.2zm9.1 0q0.1 0.2 0.1 0.5 0 0.3-0.1 0.6-0.2 0.2-0.5 0.2-0.2 0-0.4-0.2-0.1-0.3-0.2-0.6 0.1-0.3 0.2-0.5 0.2-0.2 0.4-0.2 0.3 0 0.5 0.2zm9.1 0q0.1 0.2 0.1 0.5 0 0.3-0.1 0.6-0.2 0.2-0.5 0.2-0.2 0-0.4-0.2-0.2-0.3-0.2-0.6 0-0.3 0.2-0.5 0.2-0.2 0.4-0.2 0.3 0 0.5 0.2zm9 0q0.2 0.2 0.2 0.5 0 0.3-0.2 0.6-0.2 0.2-0.4 0.2-0.2 0-0.4-0.2-0.2-0.3-0.2-0.6 0-0.3 0.2-0.5 0.2-0.2 0.4-0.2 0.2 0 0.4 0.2zm8.6-0.2q0.1 0 0.3 0 0.1 0.1 0.2 0.2 0.1 0.1 0.1 0.2 0.1 0.2 0.1 0.3 0 0.3-0.1 0.5-0.1 0.1-0.3 0.2-0.2 0.1-0.3 0.1-0.2-0.1-0.3-0.2-0.2-0.2-0.2-0.4 0-0.2 0-0.4 0.1-0.3 0.2-0.4 0.2-0.1 0.4-0.1zm9.1 0q0.1 0 0.2 0 0.1 0.1 0.2 0.2 0.1 0.1 0.2 0.2 0 0.2 0 0.3 0 0.3-0.1 0.5-0.1 0.1-0.3 0.2-0.1 0.1-0.3 0.1-0.2-0.1-0.3-0.2-0.1-0.2-0.2-0.4 0-0.2 0.1-0.4 0-0.3 0.2-0.4 0.1-0.1 0.3-0.1zm9.1 0q0.1 0 0.2 0 0.2 0.1 0.2 0.2 0.1 0.1 0.2 0.2 0 0.2 0 0.3 0 0.3-0.1 0.5-0.1 0.1-0.2 0.2-0.2 0.1-0.4 0.1-0.2-0.1-0.3-0.2-0.1-0.2-0.1-0.4-0.1-0.2 0-0.4 0.1-0.3 0.2-0.4 0.2-0.1 0.3-0.1zm-58.5-8.4q0.2 0.2 0.2 0.5 0 0.3-0.2 0.5-0.1 0.3-0.4 0.3-0.2 0-0.4-0.3-0.2-0.2-0.2-0.5 0-0.3 0.2-0.5 0.2-0.2 0.4-0.2 0.3 0 0.4 0.2zm8.6-0.2q0.1 0 0.3 0 0.1 0.1 0.2 0.2 0.1 0.1 0.1 0.2 0.1 0.2 0.1 0.3 0 0.2-0.1 0.4-0.1 0.2-0.3 0.3-0.2 0.1-0.3 0.1-0.2-0.1-0.3-0.3-0.2-0.1-0.2-0.3 0-0.3 0-0.5 0.1-0.2 0.2-0.3 0.2-0.1 0.4-0.1zm9.5 0.2q0.2 0.2 0.2 0.5 0 0.3-0.2 0.5-0.1 0.3-0.4 0.3-0.2 0-0.4-0.3-0.2-0.2-0.2-0.5 0-0.3 0.2-0.5 0.2-0.2 0.4-0.2 0.3 0 0.4 0.2zm8.6-0.2q0.2 0 0.3 0 0.1 0.1 0.2 0.2 0.1 0.1 0.1 0.2 0.1 0.2 0.1 0.3 0 0.2-0.1 0.4-0.1 0.2-0.3 0.3-0.2 0.1-0.3 0.1-0.2-0.1-0.3-0.3-0.2-0.1-0.2-0.3 0-0.3 0-0.5 0.1-0.2 0.3-0.3 0.1-0.1 0.3-0.1zm9.5 0.2q0.2 0.2 0.2 0.5 0 0.3-0.2 0.5-0.1 0.3-0.4 0.3-0.2 0-0.4-0.3-0.2-0.2-0.2-0.5 0-0.3 0.2-0.5 0.2-0.2 0.4-0.2 0.3 0 0.4 0.2zm8.7-0.2q0.1 0 0.2 0 0.1 0.1 0.2 0.2 0.1 0.1 0.1 0.2 0.1 0.2 0.1 0.3 0 0.2-0.1 0.4-0.1 0.2-0.3 0.3-0.1 0.1-0.3 0.1-0.2-0.1-0.3-0.3-0.2-0.1-0.2-0.3 0-0.3 0-0.5 0.1-0.2 0.3-0.3 0.1-0.1 0.3-0.1zm9.5 0.2q0.2 0.2 0.2 0.5 0 0.3-0.2 0.5-0.1 0.3-0.4 0.3-0.2 0-0.4-0.3-0.2-0.2-0.2-0.5 0-0.3 0.2-0.5 0.2-0.2 0.4-0.2 0.3 0 0.4 0.2zm-49.9 25.8q0.1 0.3 0.1 0.5 0 0.3-0.1 0.6-0.2 0.2-0.4 0.2-0.2 0-0.4-0.2-0.1-0.3-0.1-0.6 0-0.2 0.1-0.5 0.2-0.2 0.4-0.2 0.2 0 0.4 0.2zm8.6-0.2q0.1 0 0.3 0 0.1 0.1 0.2 0.2 0.1 0.1 0.1 0.2 0.1 0.2 0.1 0.3 0 0.3-0.1 0.5-0.1 0.2-0.3 0.2-0.2 0.1-0.3 0.1-0.2 0-0.4-0.2-0.1-0.2-0.1-0.4-0.1-0.2 0-0.4 0.1-0.3 0.2-0.4 0.2-0.1 0.4-0.1zm9.5 0.2q0.1 0.3 0.1 0.5 0 0.3-0.1 0.6-0.2 0.2-0.4 0.2-0.2 0-0.4-0.2-0.1-0.3-0.1-0.6 0-0.2 0.1-0.5 0.2-0.2 0.4-0.2 0.2 0 0.4 0.2zm8.7-0.2q0.1 0 0.2 0 0.1 0.1 0.2 0.2 0.1 0.1 0.1 0.2 0.1 0.2 0.1 0.3 0 0.3-0.1 0.5-0.1 0.2-0.3 0.2-0.2 0.1-0.3 0.1-0.2 0-0.4-0.2-0.1-0.2-0.1-0.4-0.1-0.2 0-0.4 0.1-0.3 0.2-0.4 0.2-0.1 0.4-0.1zm9.1 0q0 0 0 0zm-0.1 0q0.1 0 0.3 0 0.1 0.1 0.2 0.2 0.1 0.1 0.1 0.2 0.1 0.2 0.1 0.3 0 0.3-0.1 0.5-0.1 0.2-0.3 0.2-0.2 0.1-0.4 0.1-0.1-0.1-0.3-0.2-0.1-0.2-0.1-0.4-0.1-0.2 0-0.4 0.1-0.3 0.2-0.4 0.2-0.1 0.3-0.1zm9.1 0q0.1 0 0.3 0 0.1 0.1 0.2 0.2l-1.1 0.5q0.1-0.3 0.2-0.5 0.2-0.2 0.4-0.2zm-49.5-8.4q0.2 0.2 0.2 0.5 0 0.3-0.1 0.5-0.1 0.2-0.2 0.2-0.2 0.1-0.4 0.1-0.2-0.1-0.3-0.2-0.1-0.2-0.2-0.4 0-0.2 0.1-0.4 0-0.2 0.2-0.4 0.1-0.1 0.3-0.1 0.3 0 0.4 0.2zm9.1 0q0.2 0.2 0.2 0.5 0 0.4-0.2 0.6-0.2 0.2-0.4 0.2-0.3 0-0.4-0.2-0.2-0.2-0.2-0.6 0-0.3 0.2-0.5 0.1-0.2 0.4-0.2 0.2 0 0.4 0.2zm9.1 0q0.2 0.2 0.2 0.5 0 0.3-0.1 0.5-0.1 0.2-0.3 0.2-0.1 0.1-0.3 0.1-0.2-0.1-0.3-0.2-0.1-0.2-0.2-0.4 0-0.2 0.1-0.4 0-0.2 0.2-0.4 0.1-0.1 0.3-0.1 0.3 0 0.4 0.2zm9.1 0q0.2 0.2 0.2 0.5 0 0.4-0.2 0.6-0.2 0.2-0.4 0.2-0.3 0-0.4-0.2-0.2-0.2-0.2-0.6 0-0.3 0.2-0.5 0.1-0.2 0.4-0.2 0.2 0 0.4 0.2zm8.6-0.2q0.2 0 0.3 0 0.1 0.1 0.2 0.2 0.1 0.1 0.1 0.3 0.1 0.1 0.1 0.2 0 0.3-0.1 0.5-0.1 0.2-0.3 0.2-0.2 0.1-0.3 0.1-0.2-0.1-0.4-0.2-0.1-0.2-0.1-0.4-0.1-0.2 0-0.4 0.1-0.2 0.2-0.4 0.2-0.1 0.4-0.1zm9.5 0.2q0.2 0.2 0.2 0.5 0 0.4-0.2 0.6-0.2 0.2-0.4 0.2-0.3 0-0.5-0.2-0.1-0.2-0.1-0.6 0-0.3 0.1-0.5 0.2-0.2 0.5-0.2 0.2 0 0.4 0.2zm8.6-0.2q0.1 0 0.3 0.1 0.1 0 0.2 0.1 0 0.1 0.1 0.3 0 0.1 0 0.2 0 0.3-0.1 0.5-0.1 0.2-0.2 0.2-0.2 0.1-0.4 0.1-0.2-0.1-0.3-0.2-0.1-0.2-0.2-0.4 0-0.2 0.1-0.4 0.1-0.2 0.2-0.4 0.2-0.1 0.3-0.1z"/>
	<path id="Layer" class="s6" d="m427 137.6l5.6 0.5c1.8-3.8 2.6-8.3 2.2-12.7 0-1 1.6 4.9 0.6 13 5.9 0.5 14 1.2 21 1.7 0.2-3.4 0.6-6.5 0.6-6.5q0.2 3.3 0.9 6.6 1.4 0.2 2.8 0.2 0.2-7.3 1-14.5c0.4 5.1 1.3 10.1 3 14.8 4.4 0.3 7.4 0.4 7.2 0.1-6.4-10-1.3-15.3-2.9-23.9-1.9-10.4-8.9-12.4-8.4-20 0.4-6.3 1.4-17.5-4.8-20.3-1.6-2.2-3.7-3.7-6-4.4-2.4-0.7-4.8-0.5-7 0.5-10.2 4.2-6.9 23.6-7.7 27.5-1.2 5.5-3.4 7.4-5.2 13.6-1.9 6.3 0.3 10.8 0.4 15.2 0.1 4.3-4.4 8.6-3.3 8.6z"/>
	<path id="Layer" class="s6" d="m472.1 139.4q-1.3-2.6-1.9-5.6c-0.4-1.9-0.3-3.9 0.2-5.8q0.7-3 1.1-6.1c0.2-2.2 0.1-4.4-0.3-6.5-0.5-2.1-1.3-4-2.5-5.6q-1.7-2.4-3.7-4.3-1.9-1.9-3.3-4.3c-1-1.7-1.5-3.6-1.6-5.7-0.2 2.1 0.2 4.2 1 6.1q1.4 2.7 3.3 4.8 1.8 2 3.4 4.3c1 1.5 1.7 3.3 2.1 5.2 0.4 1.9 0.5 3.8 0.3 5.8-0.2 2-0.6 4-0.8 6q-0.3 1.6-0.3 3.2 0 1.6 0.4 3.2c0.6 1.9 1.5 3.7 2.6 5.3z"/>
	<path id="Layer" class="s6" d="m436.9 79.5q-1.1 3.6-1.6 7.4c-0.3 2.5-0.6 5-0.8 7.5l-0.3 3.8q-0.2 1.8-0.6 3.6c-0.7 2.3-1.7 4.4-3 6.2q-0.9 1.6-1.7 3.3-0.8 1.7-1.3 3.6-0.4 1.9-0.5 3.9-0.2 2 0 3.9c0.1 1.3 0.3 2.6 0.5 3.8q0.3 1.8 0.4 3.7c0 1.2-0.3 2.4-0.8 3.5-0.4 1.1-1.1 2.1-1.9 2.8 0.9-0.6 1.7-1.5 2.3-2.6 0.6-1.1 0.9-2.4 1-3.7q0.1-1.9-0.1-3.9c-0.1-1.2-0.4-2.5-0.4-3.7-0.1-2.4 0.1-4.9 0.7-7.2q0.4-1.7 1.2-3.3 0.7-1.6 1.6-3c0.7-1 1.3-2 1.8-3.2q0.9-1.7 1.3-3.6 0.5-1.9 0.6-3.9 0.1-1.9 0.2-3.8c0.1-2.5 0.3-5 0.4-7.6q0.2-3.8 1-7.5z"/>
	<path id="Layer" class="s12" d="m448.9 119.6c-1.4 12.1-14.1 43.4-20.9 47.6-4.9 3-28.2-5-35-8.6-6.5-3.5 4.6-28.1 8.5-26.4 5.5 2.4 18.8 10.8 20.8 10.2 1.5-0.4 8.3-9.8 18.2-26 5.4-9 9.2-4 8.4 3.2z"/>
	<path id="Layer" class="s12" d="m392.5 126.1c-3.5-0.5-7.4-1.4-11-0.3-3.5 1.1-5.4 7.9-5.1 9.6 0.3 1.7 3.6 11.8 7.2 10.8 3.6-1.1-0.1-8.5-0.1-9.5 0-1-0.1-2.2 0.6-2.3 0.7-0.1 13.7 3.5 13.7 3.5z"/>
	<path id="Layer" class="s12" d="m392.4 126.8c-0.2 0.1-10.6-1.9-14.2-0.8-3.5 1.1-5.4 7.9-5.1 9.6 0.3 1.6 3.6 11.8 7.1 10.7 3.6-1 0-8.5-0.1-9.4 0-1-0.1-2.2 0.6-2.3 0.7-0.1 13.8 3.5 13.8 3.5z"/>
	<path id="Layer" class="s6" d="m381.4 145.4c0.2-0.9 0.2-1.9 0.1-2.8q-0.2-1.5-0.7-2.8-0.5-1.1-0.9-2.3c-0.1-0.8-0.1-1.7 0.1-2.5 0.2-0.7 0.7-0.7 1.2-0.6q1.1 0.2 2.1 0.5c0.8 0.3 1.6 0.5 2.3 0.8q1.2 0.3 2.3 0.8c0.1 0 0.1 0.1 0 0.1q-1-0.2-2-0.5-1.1-0.3-2.2-0.6c-0.8-0.1-1.4-0.4-2.1-0.5q-0.5-0.2-1-0.1c-0.3 0.2-0.3 1-0.3 1.3 0 0.9 0.2 1.7 0.6 2.4q0.5 1.1 0.8 2.3 0.3 1.2 0.3 2.4-0.2 1.1-0.5 2.2c0 0.1-0.2 0-0.1-0.1z"/>
	<path id="Layer" class="s12" d="m405.9 135.3c0-0.1-12-8.5-14.4-10.1-5-3.3-24-7.2-26.5-6.8-2.5 0.4-2.2 6.8 10.8 9.9 6.8 1.6 8.8 5.7 9.1 8.2 0.3 2.5-0.7 7.7-4.1 8.5-3.3 0.9-6.6-4.6-9.7-4.4-3.2 0.2 0.1 6.6 3 10 2.9 3.3 6.6 5.4 10.5 6.2 3.1 0.5 12.9 2.8 12.9 2.8z"/>
	<path id="Layer" class="s6" d="m376.2 143.3c1.4 0.8 3.2 2 4.8 1.6 1.6-0.4 2.5-2.1 3-4.1 0.5-1.9 0.5-4.1-0.2-6-0.7-1.7-1.8-3-3.1-4q-2.5-1.7-5.2-2.4c-0.1 0 0-0.2 0-0.2 1.7 0.4 6.9 1.5 8.8 6.5 0.7 1.9 0.8 4.1 0.2 6.1-0.5 1.9-1.2 3.8-2.8 4.4-1.9 0.7-4-0.8-5.7-1.8 0-0.1 0.1-0.2 0.2-0.1z"/>
	<path id="Layer" class="s7" d="m401.9 132.4l-2.7 32.2c0 0 23.5 7.2 29.4 3.2 5.9-4 17.7-31.7 20.7-47.3 1.8-9.5-3.3-14.1-9.8-4.2-6.6 10.1-16 24.1-16.8 24.7-0.8 0.6-20.8-8.6-20.8-8.6z"/>
	<path id="Layer" class="s13" d="m449.3 120.5c-3 15.6-14.8 43.3-20.7 47.3-1.8 1.2-5.3 1.4-9.2 1l24.4-57.2q0.3-0.2 0.6-0.3l0.4-0.2q0.3-0.2 0.7-0.2 0.2-0.1 0.4-0.1h0.3q0.8 0 1.4 0.4 0.4 0.2 0.6 0.6c1.4 1.4 1.9 4.6 1.1 8.7z"/>
	<path id="Layer" class="s6" d="m404.8 163.5c0-1.1 0.1-2.2 0.2-3.3q0-1.6 0.1-3.3 0.2-3.1 0.5-6.3 0.3-3.1 0.6-6.3c0.1-2.1 0.3-4.4 0.6-6.5q0 0 0-0.1 0 0 0 0 0.1 0 0.1 0 0 0.1 0 0.1c0 2.2-0.2 4.4-0.4 6.5-0.1 2.2-0.2 4.3-0.4 6.5q-0.2 3.2-0.5 6.4-0.1 1.6-0.3 3.2c-0.1 1-0.1 2.1-0.3 3.1-0.1 0.1-0.2 0.1-0.2 0z"/>
	<path id="Layer" class="s0" d="m430.6 172.6c0 0 30.3 1.7 43.1-0.2 0 0-8.8-46.3-18.1-58.8-4.3-5.7-8.4-4.8-12-1.2-0.8 1-11.7 18.2-12.7 24.3-0.8 5.3 2.7 11.2 2.7 11.2z"/>
	<path id="Layer" class="s9" d="m446.8 124.1l-1.6-4.2-2.7 3.3 0.4 3.1 2.7 0.3z"/>
	<path id="Layer" class="s9" d="m445.6 126.6l-0.7 31.5-5.7 13.9-3.7-13.9 7.4-31.8z"/>
	<path id="Layer" class="s7" d="m444 111.9c0 0-4.7 15.7-5 19.7-0.2 4 1.2 19.2 1.2 19.2 0 0 7.1-16 8.8-21.2 2.7-8 3.3-19.2 3.3-19.2 0 0 2.6 1.6 6.1 7.5 4.7 8 13.1 38.2 15.9 54.9l-31.9 5.8-3.2-6.6-2.2 6.6-7.6-5.3 4.1-25.4c0 0-4-5.4-2.3-12.7 1.9-7.9 12.8-23.3 12.8-23.3z"/>
	<path id="Layer" class="s6" d="m440.2 150.8c0 1.7 0 3.5 0 5.3 0 1.8-0.1 3.5-0.2 5.3q-0.1 2.7-0.3 5.3c-0.1 1.8-0.2 3.5-0.5 5.3q0-2.7 0-5.3c0-1.8 0.2-3.6 0.2-5.3q0.1-2.7 0.3-5.3c0.2-1.8 0.3-3.6 0.5-5.3z"/>
	<path id="Layer" fill-rule="evenodd" class="s6" d="m443 155.4q0 0.4-0.2 0.8-0.2 0.3-0.6 0.4-0.2 0-0.4 0-0.2-0.1-0.4-0.3-0.1-0.1-0.2-0.4-0.1-0.3-0.1-0.6c0-0.3 0.1-0.6 0.3-0.8q0.3-0.4 0.7-0.4 0.4 0 0.7 0.4c0.2 0.2 0.3 0.5 0.3 0.8zm0 0q0-0.2-0.1-0.4-0.1-0.1-0.2-0.3-0.2-0.1-0.4-0.1-0.2-0.1-0.4 0.1-0.1 0.1-0.2 0.3-0.1 0.2-0.1 0.4 0 0.3 0.1 0.5 0.1 0.2 0.2 0.3 0.2 0.1 0.4 0.1 0.2 0 0.4-0.2 0.1-0.1 0.2-0.3 0.1-0.2 0.1-0.4z"/>
	<path id="Layer" fill-rule="evenodd" class="s6" d="m442.5 162.8q-0.2 0.3-0.6 0.4-0.2 0-0.4-0.1-0.2 0-0.4-0.2-0.1-0.2-0.2-0.4-0.1-0.3-0.1-0.6c0-0.3 0.1-0.6 0.3-0.9q0.3-0.3 0.7-0.3 0.4 0 0.7 0.3 0.2 0.3 0.2 0.6 0 0 0-0.1-0.1-0.1-0.2-0.3-0.2-0.1-0.4-0.1-0.2 0-0.3 0.1-0.2 0.1-0.3 0.3-0.1 0.2-0.1 0.4 0 0.3 0.1 0.6 0.2 0.2 0.4 0.3 0.2 0 0.3 0 0.2 0 0.3-0.2 0.1-0.1 0.2-0.3 0.1-0.2 0.1-0.4 0 0.5-0.3 0.9zm0.3-0.9q0-0.1-0.1-0.3 0.1 0.1 0.1 0.3z"/>
	<path id="Layer" fill-rule="evenodd" class="s6" d="m442.3 169.3q-0.2 0.4-0.6 0.4-0.2 0.1-0.4 0-0.2-0.1-0.4-0.2-0.2-0.2-0.3-0.5-0.1-0.2-0.1-0.5 0-0.3 0.1-0.6 0.1-0.2 0.3-0.4 0.2-0.2 0.5-0.3 0.3 0 0.6 0.1 0.2 0.2 0.4 0.5 0.1 0.3 0.1 0.7 0-0.2-0.1-0.4 0-0.1-0.1-0.3-0.1-0.1-0.3-0.1-0.1-0.1-0.3-0.1-0.2 0.1-0.4 0.4-0.1 0.2-0.1 0.5 0 0.3 0.1 0.5 0.1 0.2 0.2 0.3 0.2 0.1 0.4 0.1 0.2 0 0.4-0.2 0.1-0.1 0.2-0.3 0-0.1 0-0.2 0 0.3-0.2 0.6zm0.2-0.8q0 0.1 0 0.2 0-0.1 0-0.2z"/>
	<path id="Layer" class="s14" d="m453.2 156.8l11.3-2.6 0.3 1.8-11.3 2.6z"/>
	<path id="Layer" class="s6" d="m434.9 126.8c0-0.1-0.1-0.1-0.2-0.1q-1.1 2-2 4.2 0.4-1.4 0.8-2.8c0 0 0 0-0.1 0q-0.7 1.7-1.1 3.6c-1.4 3.5-2.2 7.4-1.3 11.5 0.3 1.3 0.7 2.5 1.4 3.6q0.5 0.6 0.8 1.4c0 0.3-0.4 2.5-0.4 3-0.6 3.4-1.2 7-1.8 10.4q-0.5 2.9-0.9 5.8-0.5 2.9-0.8 5.7c0 0.1 0.1 0.1 0.2 0q1.1-5 1.9-10.1 0.8-5.1 1.6-10.2 0.4-2.4 0.7-4.7c-0.1-0.2-0.5-1-0.7-1.4q-0.5-0.8-0.9-1.7c-0.9-2.7-1.2-5.6-0.7-8.4 0.7-3.5 1.8-6.8 3.5-9.8z"/>
	<path id="Layer" class="s8" d="m438.3 190.6l-25.1 8.4-14.3-42.9 25.1-8.4z"/>
	<path id="Layer" class="s9" d="m437.1 191l-25.2 8.4-14.2-42.9 25.1-8.4z"/>
	<path id="Layer" class="s2" d="m413.7 172.9c0.2 0.8 0.7 1.5 1.3 1.9 0.6 0.4 1.3 0.5 2 0.3q0.4-0.2 0.8-0.5 0.4-0.4 0.7-1 0.2-0.5 0.2-1.1 0-0.6-0.1-1.2c-0.3-0.8-0.7-1.5-1.4-1.9-0.6-0.4-1.3-0.5-1.9-0.3q-0.5 0.2-0.9 0.5-0.4 0.4-0.6 1-0.3 0.5-0.3 1.1 0 0.6 0.2 1.2z"/>
	<path id="Layer" class="s12" d="m456.2 114.4c8.7 11.6 28.8 42.8 24.6 50.1-6.9 12.1-25 24-30.8 26.9-2.5 1.3-13.3-20.8-11-23 2.7-2.6 21.1-12.5 20.9-14.7-0.2-1.2-3.6-14.2-6.6-27.2-3.5-15.1 0-16.1 2.9-12.1z"/>
	<path id="Layer" class="s12" d="m448.1 165.7c0 0-8-2-13.2-2.9-2.9-0.6-8-0.9-10.3-0.1-3.5 1.3-17.2 9.2-15.8 13.4 1.4 3.9 12.5-4.9 12.5-4.9 0 0-11.9 7.6-9.6 11.8 2.3 4.3 13.8-7.7 13.8-7.7 0 0-12 8.1-9.1 12 2.2 2.9 13.1-7.2 13.1-7.2 0 0-10.3 7.1-8.2 10.3 2.4 3.4 13-5.1 13-5.1 6.5 6.8 11.9 7.5 15.7 6.1 0.9-0.3-1.9-25.7-1.9-25.7z"/>
	<path id="Layer" class="s6" d="m424.7 168.7c-9.1 4.7-12.3 10.5-12.2 10.4 2.6-3.1 7.4-6.7 8.8-7.7 1.3-1 2.1-1.7 3.4-2.7 0.1 0 0-0.1 0 0z"/>
	<path id="Layer" class="s6" d="m428.2 174.3c-3.8 1.7-7.2 4.3-10.2 7.5-0.2 0.1-0.1 0.2 0 0.1 1.7-1.3 8.5-6.3 10.2-7.5 0 0 0-0.1 0-0.1z"/>
	<path id="Layer" class="s6" d="m431.4 179c-2.8 1.4-5.5 3.5-7.8 6.1-0.1 0.1 0 0.1 0.2 0 2.5-2 4.5-3.7 7.7-6 0 0 0-0.2-0.1-0.1z"/>
	<path id="Layer" class="s7" d="m449.8 160.6l11.8 25.5c0 0 19.7-14.8 20.5-24.5 0.7-9.7-20.5-41.1-24.4-46.1-1.1-1.4-4.1-4.6-5.5-4.1-1.4 0.6-1.1 3.4-0.5 9.8 0.7 8.5 7.8 31.4 7.4 32.5-0.3 1-9.3 6.9-9.3 6.9z"/>
	<path id="Layer" class="s6" d="m465.1 181.3c-0.6-0.9-1-1.8-1.5-2.7q-0.7-1.4-1.4-2.8-1.3-2.7-2.6-5.5l-2.5-5.5c-0.9-1.9-1.9-3.7-2.6-5.7q0 0 0 0 0-0.1 0-0.1 0 0 0 0 0.1 0 0.1 0c1 1.8 1.9 3.7 2.8 5.6 0.9 1.9 1.8 3.7 2.7 5.5q1.3 2.8 2.6 5.5 0.7 1.4 1.3 2.8 0.6 1.4 1.2 2.8c0 0.1-0.1 0.2-0.1 0.1z"/>
	<path id="Layer" class="s6" d="m459.4 153.6q-0.2-1.5-0.6-3c-0.6-2.1-2.5-9.9-3.1-11.9-0.7-2.3-1.3-4.6-2-6.9 0-0.1-0.1 0-0.1 0 0.3 1.4 0.7 3.2 1.2 5.2q-0.1-0.4-0.3-0.7-0.5-0.9-0.9-1.9 0.3 1 0.7 2c0.2 0.3 0.3 0.7 0.5 1 0.1 0.4 0.2 0.4 0.3 0.5 1.1 4.6 3.8 15 3.9 15.2 0 0.3-7.7 6-9.4 7.3-0.1 0.1 0.2 0.5 0.4 0.8q0 0 0 0 0 0 0 0 0.1 0 0.1-0.1 0 0 0 0-0.1-0.2-0.2-0.5c2.9-1.6 9.4-6.5 9.5-7z"/>
	<path id="Layer" class="s12" d="m452 113.5c-0.2 1-3.5 6.2-7.2 5.7-1.1-0.1-1.6-7.1-1.6-7.1v-0.6l-1.2-8.5 8.1-5.9 1.2-0.7c0 0 0.2 2.3 0.4 5.3q0 0.1 0 0.4 0 0.2 0 0.4c0 0.5 0.1 0.9 0.1 1.4 0.1 0.4 0.1 0.6 0.1 1q0 0.5 0.1 1 0.2 3.8 0 7.6z"/>
	<path id="Layer" class="s6" d="m451.7 101.6c-0.8 2.3-1.9 4.4-3.4 6.1-1.5 1.7-3.3 3-5.2 3.8l-1.1-8.5 8.1-5.9 1.2-0.7c0 0 0.2 2.3 0.4 5.2z"/>
	<path id="Layer" class="s12" d="m433.1 88.2c-2.5 14.8 4.4 18.3 6.9 19 2.3 0.6 10.3 2.3 13.9-12.2 3.7-14.4-1-20.5-6.3-22.2-5.2-1.7-12.1 0.6-14.5 15.4z"/>
	<path id="Layer" class="s6" d="m436.3 85.6q0.4 0 0.8 0 0.4 0.1 0.8-0.2 0.1-0.1 0.1-0.3 0.1-0.2 0-0.4-0.2-0.3-0.4-0.4-0.3-0.2-0.6-0.1c-0.4 0-0.8 0.1-1.1 0.5q0 0.1-0.1 0.2 0 0.2 0.1 0.4 0 0.1 0.1 0.2 0.1 0.1 0.3 0.1z"/>
	<path id="Layer" class="s6" d="m444.5 87.6q-0.4-0.2-0.8-0.4-0.4-0.2-0.7-0.6 0-0.2 0-0.4 0-0.2 0.1-0.3 0.3-0.2 0.5-0.2 0.3 0 0.6 0.1c0.4 0.2 0.7 0.5 0.9 1q0 0.1 0 0.3 0 0.1-0.1 0.3-0.1 0.1-0.2 0.1-0.1 0.1-0.3 0.1z"/>
	<path id="Layer" class="s6" d="m442.1 90.8c0 0 0.1 0 0.1 0.1-0.2 1-0.3 2.2 0.4 2.7-0.9-0.3-0.8-1.9-0.5-2.8z"/>
	<path id="Layer" class="s6" d="m443 89.9c1.3 0.2 0.9 3.5-0.3 3.3-1.3-0.2-0.8-3.5 0.3-3.3z"/>
	<path id="Layer" class="s6" d="m443.5 90.2c0.2 0.2 0.4 0.6 0.7 0.7 0.2 0.1 0.6-0.2 0.8-0.5 0 0 0.1 0 0.1 0-0.1 0.6-0.4 1.3-0.9 1.2-0.6 0-0.8-0.6-0.8-1.3-0.1-0.1 0-0.2 0.1-0.1z"/>
	<path id="Layer" class="s6" d="m437.4 89.5c0 0-0.1 0-0.1 0-0.1 1-0.4 2.2-1.2 2.4v0.1c1 0 1.3-1.6 1.3-2.5z"/>
	<path id="Layer" class="s6" d="m436.8 88.3c-1.3-0.4-1.8 2.8-0.6 3.2 1.2 0.3 1.6-2.9 0.6-3.2z"/>
	<path id="Layer" class="s6" d="m436.2 88.3c-0.2 0.2-0.5 0.4-0.8 0.4-0.2-0.1-0.4-0.5-0.5-0.9 0 0-0.1 0-0.1 0-0.1 0.7 0 1.4 0.4 1.6 0.5 0.2 0.8-0.2 1.1-0.8 0-0.1 0-0.3-0.1-0.3z"/>
	<path id="Layer" class="s6" d="m440.6 99.1c-0.2 0.2-0.4 0.5-0.7 0.5q-0.5-0.1-0.9-0.4c0 0 0 0 0 0.1q0.1 0.3 0.4 0.5 0.2 0.2 0.5 0.2 0.3-0.1 0.5-0.3 0.2-0.2 0.3-0.5c0-0.1-0.1-0.1-0.1-0.1z"/>
	<path id="Layer" class="s6" d="m437.7 94.7c0 0-0.4 1.5-0.5 2.2 0 0 0.1 0.1 0.3 0.2q0.8 0.3 1.5 0.1 0.8-0.2 1.3-0.8c0.1-0.1 0-0.2 0-0.1-0.8 0.4-1.8 0.6-2.6 0.3 0-0.2 0.7-2.5 0.6-2.5q-0.7-0.1-1.3 0.1c0.7-3.1 1.8-6 2.5-9.2 0-0.1-0.1-0.2-0.1-0.1q-2 4.7-3.1 9.7c-0.1 0.4 1.1 0.2 1.4 0.1z"/>
	<path id="Layer" class="s6" d="m452.6 96.1c-2.3-0.1-2-6.6-2-6.6 0 0-9.2-4-8.7-13.9-1.8 3.7-4.6 6.4-7.9 7.6 0 0 1.8-10.6 8.8-11.2 0 0 8.9-2 12.5 7.2 3.6 9.3-1.2 17-2.7 16.9z"/>
	<path id="Layer" class="s6" d="m441.9 74.9c-0.3 1.5-0.4 3-0.2 4.5 0.2 1.5 0.6 3 1.3 4.3 0.2 0.3 0.4 0.6 0.5 0.9l0.3 0.5 0.3 0.4q0.4 0.4 0.7 0.8l0.7 0.7 0.4 0.4 0.4 0.3 0.8 0.5q0.8 0.5 1.6 0.9c-0.5-0.4-1-0.8-1.5-1.2l-0.7-0.6-0.4-0.3-0.3-0.4q-0.3-0.4-0.7-0.7c-0.2-0.3-0.4-0.6-0.6-0.8l-0.3-0.4-0.2-0.5c-0.2-0.3-0.4-0.5-0.5-0.9q-1-1.8-1.3-4-0.2-1-0.3-2.1-0.1-1.2 0-2.3z"/>
	<path id="Layer" class="s12" d="m453.1 100.5q-0.3 0.1-0.6 0.1-0.3 0-0.6-0.1-0.3-0.1-0.6-0.4-0.3-0.2-0.5-0.5-0.2-0.4-0.3-0.9l1-3.9c0 0 3.1-4.3 4.7-2.9 1.6 1.4-1 7.9-3.1 8.6z"/>
	<path id="Layer" class="s6" d="m455.4 93.8c0 0 0 0 0 0q-1 0.5-1.8 1.4-0.8 1-1.2 2.2 0.1-0.2 0.3-0.3 0.2-0.2 0.5-0.2 0.2 0 0.5 0.1 0.2 0.1 0.4 0.3 0 0 0 0 0 0.1 0 0.1 0 0-0.1 0 0 0 0 0-0.3-0.2-0.7-0.1-0.4 0.1-0.7 0.4-0.5 0.6-0.8 1.3c-0.1 0.2-0.3 0-0.2-0.1 0.2-2.3 1.8-5.2 3.8-5.1z"/>
	<path id="Layer" class="s2" d="m453 99.8q-0.1 0.3-0.3 0.4-0.2 0.2-0.4 0.1-0.3-0.1-0.4-0.4-0.1-0.2 0-0.5 0-0.2 0.1-0.3 0.1-0.1 0.2-0.1 0.1-0.1 0.2-0.1 0.1 0 0.2 0 0.1 0.1 0.2 0.2 0.1 0.1 0.1 0.2 0.1 0.1 0.1 0.2 0 0.2 0 0.3z"/>
	<path id="Layer" class="s2" d="m454.2 98.9q0 0.1-0.1 0.2 0 0.1-0.1 0.1-0.1 0.1-0.1 0.1-0.1 0-0.2-0.1-0.1 0-0.1 0-0.1-0.1-0.1-0.2-0.1-0.1-0.1-0.2 0-0.1 0-0.2 0.1-0.2 0.2-0.3 0.2 0 0.4 0 0.1 0.1 0.2 0.3 0 0.1 0 0.3z"/>
	<path id="Layer" class="s0" d="m443.1 111.6l2.3 6.8 6.7-8.7 2 2.7c0 0-6.5 13.9-6.6 13.3l-2.3-5.9-3.2 4.2 0.1-10.3z"/>
	<path id="Layer" class="s6" d="m441.8 118.9c0.1-1.7 0.1-3.4 0.3-5.1 0-0.1 0-0.1 0.1 0 0.2 1.6 0 8.1 0 9.7 0.1-0.2 2.9-3.7 3-3.7 0.5 1 2.2 5.2 2.3 5.6 1-2.2 4.9-10.2 6.2-12.3q0 0 0 0 0 0 0 0 0 0 0 0 0.1 0 0.1 0.1c-1 2.3-6.2 13.1-6.2 13.1q-1.4-3.1-2.4-6.2-1.6 2.3-3.4 4.4-0.1-2.8 0-5.6z"/>
</svg>