<svg version="1.2" xmlns="http://www.w3.org/2000/svg" viewBox="0 0 550 406" width="550" height="406">
	<title>صورة رقم2-svg</title>
	<style>
		.s0 { fill: #ebebeb } 
		.s1 { fill: #e0e0e0 } 
		.s2 { fill: #e6e6e6 } 
		.s3 { fill: #f0f0f0 } 
		.s4 { fill: #fafafa } 
		.s5 { fill: #f5f5f5 } 
		.s6 { fill: #263238 } 
		.s7 { opacity: .2;fill: #ffffff } 
		.s8 { opacity: .3;fill: #000000 } 
		.s9 { fill: #ffffff } 
		.s10 { opacity: .6;fill: #ffffff } 
		.s11 { opacity: .2;fill: #000000 } 
		.s12 { opacity: .1;fill: #000000 } 
		.s13 { fill: #000000 } 
		.s14 { fill: #f7978d } 
		.s15 { fill: #ff5652 } 
		.s16 { fill: #dd8c6a } 
		.s17 { fill: #ffb573 } 
		.s18 { fill: #ed893e } 
		.s19 { opacity: .4;fill: #ffffff } 
		.s20 { opacity: .4;fill: #000000 } 
		.s21 { fill: #b74d3c } 
		.s22 { fill: #cb7a63 } 
		.s23 { opacity: .5;fill: #ffffff } 
		.s24 { opacity: .5;fill: #000000 } 
	</style>
	<path id="Layer" class="s0" d="m494.9 378.3h-36.4v0.3h36.4z"/>
	<path id="Layer" class="s0" d="m364.3 381.3h-9.5v0.3h9.5z"/>
	<path id="Layer" class="s0" d="m457.4 368.1h-21.2v0.3h21.2z"/>
	<path id="Layer" class="s0" d="m105.2 370h-47.5v0.3h47.5z"/>
	<path id="Layer" class="s0" d="m122 370h-7v0.3h7z"/>
	<path id="Layer" class="s0" d="m247.7 374.6h-103.1v0.3h103.1z"/>
	<path id="Layer" fill-rule="evenodd" class="s0" d="m260.7 311.6h-212.4c-1.7 0-3.3-0.7-4.4-1.9-1.2-1.1-1.9-2.7-1.9-4.4v-298.6c0-1.6 0.7-3.2 1.9-4.4 1.2-1.1 2.8-1.8 4.4-1.8h212.4c1.7 0 3.3 0.7 4.4 1.8 1.2 1.2 1.9 2.8 1.9 4.5v298.5c0 1.7-0.7 3.3-1.9 4.4-1.1 1.2-2.7 1.9-4.4 1.9zm-212.4-310.9c-1.6 0-3.1 0.7-4.2 1.8-1.2 1.1-1.8 2.6-1.8 4.2v298.6c0 1.6 0.6 3.1 1.8 4.2 1.1 1.2 2.6 1.8 4.2 1.8h212.4c1.6 0 3.1-0.6 4.2-1.8 1.2-1.1 1.8-2.6 1.8-4.2v-298.6c0-1.6-0.6-3.1-1.8-4.2-1.1-1.1-2.6-1.8-4.2-1.8z"/>
	<path id="Layer" fill-rule="evenodd" class="s0" d="m498.6 311.6h-212.4c-1.6 0-3.2-0.7-4.4-1.9-1.2-1.1-1.8-2.7-1.9-4.4v-298.6c0.1-1.6 0.7-3.2 1.9-4.4 1.2-1.1 2.8-1.8 4.4-1.8h212.4c1.7 0 3.3 0.7 4.4 1.8 1.2 1.2 1.9 2.8 1.9 4.4v298.6c0 1.7-0.7 3.3-1.8 4.4-1.2 1.2-2.8 1.9-4.5 1.9zm-212.4-310.9c-1.6 0-3.1 0.7-4.2 1.8-1.1 1.1-1.8 2.6-1.8 4.2v298.6c0 1.6 0.7 3.1 1.8 4.2 1.1 1.2 2.6 1.8 4.2 1.8h212.4c1.6 0 3.2-0.6 4.3-1.8 1.1-1.1 1.7-2.6 1.7-4.2v-298.6c0-1.6-0.6-3.1-1.7-4.2-1.1-1.1-2.7-1.8-4.3-1.8z"/>
	<path id="Layer" class="s0" d="m550 360.6h-550v0.3h550z"/>
	<path id="Layer" class="s1" d="m107.5 50.4h-2v154.4h2z"/>
	<path id="Layer" class="s1" d="m230.7 50.4h-2v154.4h2z"/>
	<path id="Layer" class="s0" d="m238.5 60.1h-140.8l-2.9-7h146.7z"/>
	<path id="Layer" class="s0" d="m238.5 69.6h-140.8l-2.9-6.9h146.7z"/>
	<path id="Layer" class="s0" d="m238.5 79.1h-140.8l-2.9-6.9h146.7z"/>
	<path id="Layer" class="s0" d="m238.5 88.6h-140.8l-2.9-6.9h146.7z"/>
	<path id="Layer" class="s0" d="m238.5 98.1h-140.8l-2.9-6.9h146.7z"/>
	<path id="Layer" class="s0" d="m238.5 107.6h-140.8l-2.9-6.9h146.7z"/>
	<path id="Layer" class="s0" d="m238.5 117.2h-140.8l-2.9-7h146.7z"/>
	<path id="Layer" class="s0" d="m238.5 126.7h-140.8l-2.9-7h146.7z"/>
	<path id="Layer" class="s0" d="m238.5 136.2h-140.8l-2.9-7h146.7z"/>
	<path id="Layer" class="s0" d="m238.5 145.7h-140.8l-2.9-6.9h146.7z"/>
	<path id="Layer" class="s0" d="m238.5 155.2h-140.8l-2.9-6.9h146.7z"/>
	<path id="Layer" class="s0" d="m238.5 164.7h-140.8l-2.9-6.9h146.7z"/>
	<path id="Layer" class="s0" d="m238.5 174.2h-140.8l-2.9-6.9h146.7z"/>
	<path id="Layer" class="s0" d="m238.5 183.7h-140.8l-2.9-6.9h146.7z"/>
	<path id="Layer" class="s0" d="m238.5 193.3h-140.8l-2.9-7h146.7z"/>
	<path id="Layer" class="s0" d="m238.5 202.8h-140.8l-2.9-7h146.7z"/>
	<path id="Layer" class="s1" d="m241.4 202.8h-146.6v3.9h146.6z"/>
	<path id="Layer" class="s1" d="m246.6 44.5h-156.9v9.2h156.9z"/>
	<path id="Layer" class="s1" d="m91.3 137.5c-0.4 0-0.8-0.2-1.1-0.5-0.3-0.3-0.5-0.7-0.5-1.1v-53.9q0-0.3 0.1-0.6 0.1-0.3 0.4-0.6 0.2-0.2 0.5-0.3 0.3-0.1 0.6-0.1c0.4 0 0.8 0.2 1.1 0.4 0.3 0.3 0.5 0.8 0.5 1.2v53.9q0 0.3-0.1 0.6-0.1 0.3-0.4 0.5-0.2 0.2-0.5 0.4-0.3 0.1-0.6 0.1z"/>
	<path id="Layer" class="s1" d="m91.8 51.8h-1.1v32.1h1.1z"/>
	<path id="Layer" class="s2" d="m270.5 109.1h4.8c0.8 0 1.6 0.3 2.2 0.9 0.5 0.6 0.9 1.3 0.9 2.2v141.9h-11v-141.9q0-0.7 0.3-1.2 0.2-0.6 0.6-1 0.4-0.4 1-0.6 0.6-0.3 1.2-0.3z"/>
	<path id="Layer" class="s3" d="m273.8 109.1h-3c-0.9 0-1.7 0.4-2.4 1-0.6 0.6-1 1.5-1 2.4v141.6h3v-141.6c0-0.9 0.4-1.8 1-2.4 0.7-0.6 1.5-1 2.4-1z"/>
	<path id="Layer" class="s0" d="m281.5 244.8h-17.2v116.1h17.2z"/>
	<path id="Layer" class="s2" d="m258.2 356.2h29.5c1.1 0 2.2 0.5 2.9 1.2 0.8 0.8 1.3 1.9 1.3 3v0.5h-37.9v-0.5c0-1.1 0.4-2.2 1.2-3 0.8-0.7 1.9-1.2 3-1.2z"/>
	<path id="Layer" class="s1" d="m436.1 303.6l27.7-0.1c2.4 0 4.7-0.9 6.4-2.6 1.7-1.7 2.7-4 2.7-6.4v-40.6c0-0.4-0.2-0.9-0.5-1.2-0.3-0.3-0.7-0.4-1.2-0.4-0.4 0-0.8 0.1-1.1 0.4-0.4 0.3-0.5 0.8-0.5 1.2v40.6c0 1.5-0.6 3-1.7 4.1-1.1 1-2.5 1.6-4.1 1.6h-27.7z"/>
	<path id="Layer" class="s1" d="m428.1 342.5v-37.9l-2.2-0.6c-1.2-0.4-2.3-1.2-3-2.2-0.8-1-1.2-2.3-1.2-3.6h21c0 1.3-0.4 2.6-1.2 3.6-0.7 1-1.8 1.8-3 2.2l-2.2 0.6v37.9l17.4 7.8v3.3l-21.5-7.5-21.5 7.5v-3.3z"/>
	<path id="Layer" class="s3" d="m404.8 300.3l54.8-0.1q1.2 0 2.3-0.4 1.1-0.5 1.9-1.3 0.8-0.8 1.3-1.9 0.4-1.1 0.4-2.3c0-1.6-0.6-3.1-1.7-4.2-1.1-1.1-2.6-1.7-4.2-1.7h-54.8c-1.6 0-3.1 0.6-4.2 1.7-1.1 1.1-1.7 2.6-1.7 4.2q0 1.2 0.4 2.3 0.5 1.1 1.3 1.9 0.8 0.8 1.9 1.3 1.1 0.4 2.3 0.4z"/>
	<path id="Layer" class="s0" d="m469.2 268.2l3-42.3c0.1-1.6-0.4-3.1-1.4-4.3-1.1-1.2-2.5-1.9-4.1-2-1.6-0.1-3.1 0.4-4.3 1.4-1.2 1-1.9 2.5-2 4.1l-3 42.3c-0.1 1.5 0.4 3.1 1.4 4.3 1.1 1.2 2.5 1.9 4.1 2 1.6 0.1 3.1-0.4 4.3-1.4 1.2-1.1 1.9-2.5 2-4.1z"/>
	<path id="Layer" class="s1" d="m449.9 355.9c0 0.8 0.2 1.5 0.6 2.1 0.4 0.6 1 1.1 1.7 1.4 0.7 0.3 1.5 0.4 2.2 0.2 0.7-0.1 1.4-0.5 1.9-1 0.5-0.5 0.9-1.2 1.1-1.9 0.1-0.8 0-1.5-0.3-2.2-0.2-0.7-0.7-1.3-1.3-1.7-0.7-0.4-1.4-0.6-2.1-0.6q-0.8 0-1.5 0.2-0.7 0.3-1.2 0.9-0.5 0.5-0.8 1.2-0.3 0.7-0.3 1.4z"/>
	<path id="Layer" class="s1" d="m406.9 355.9c0 0.8 0.3 1.5 0.7 2.1 0.4 0.6 1 1.1 1.7 1.4 0.6 0.3 1.4 0.4 2.1 0.2 0.8-0.1 1.4-0.5 2-1 0.5-0.5 0.8-1.2 1-1.9 0.1-0.8 0.1-1.5-0.2-2.2-0.3-0.7-0.8-1.3-1.4-1.7-0.6-0.4-1.4-0.6-2.1-0.6-1 0-2 0.4-2.7 1.1-0.7 0.7-1.1 1.6-1.1 2.6z"/>
	<path id="Layer" class="s1" d="m110.4 303.6l-27.8-0.1c-2.4 0-4.7-0.9-6.4-2.6-1.7-1.7-2.6-4-2.6-6.4v-40.6c0-0.4 0.2-0.9 0.5-1.2 0.3-0.3 0.7-0.4 1.1-0.4 0.5 0 0.9 0.1 1.2 0.4 0.3 0.3 0.5 0.8 0.5 1.2v40.6c0 1.5 0.6 3 1.7 4.1 1.1 1 2.5 1.6 4 1.6h27.8z"/>
	<path id="Layer" class="s1" d="m118.3 342.5v-37.9l2.2-0.6c1.3-0.4 2.3-1.2 3.1-2.2 0.7-1 1.1-2.3 1.1-3.6h-20.9c0 1.3 0.5 2.6 1.2 3.6 0.8 1 1.8 1.8 3 2.2l2.2 0.6v37.9l-17.4 7.8v3.3l21.5-7.5 21.5 7.5v-3.3z"/>
	<path id="Layer" class="s3" d="m141.7 300.3l-54.8-0.1c-1.6 0-3.1-0.6-4.2-1.7-1.1-1.1-1.7-2.6-1.7-4.2 0-1.6 0.6-3.1 1.7-4.2 1.1-1.1 2.6-1.7 4.2-1.7h54.8c1.6 0 3.1 0.6 4.2 1.7 1.1 1.1 1.7 2.6 1.7 4.2 0 1.6-0.6 3.1-1.7 4.2-1.1 1.1-2.6 1.7-4.2 1.7z"/>
	<path id="Layer" class="s0" d="m77.2 268.2l-2.9-42.3c-0.1-1.6 0.4-3.1 1.4-4.3 1-1.2 2.5-1.9 4.1-2 1.5-0.1 3.1 0.4 4.3 1.4 1.2 1 1.9 2.5 2 4.1l3 42.3c0.1 1.5-0.4 3.1-1.4 4.3-1.1 1.2-2.5 1.9-4.1 2q-1.2 0.1-2.3-0.3-1.1-0.3-2-1.1-0.9-0.8-1.5-1.9-0.5-1-0.6-2.2z"/>
	<path id="Layer" class="s1" d="m96.6 355.9c0 0.8-0.3 1.5-0.7 2.1-0.4 0.6-1 1.1-1.7 1.4-0.7 0.3-1.4 0.4-2.1 0.2-0.8-0.1-1.4-0.5-2-1-0.5-0.5-0.9-1.2-1-2-0.1-0.7-0.1-1.4 0.2-2.1 0.3-0.7 0.8-1.3 1.4-1.7 0.6-0.4 1.4-0.6 2.1-0.6q0.8 0 1.4 0.2 0.7 0.3 1.3 0.9 0.5 0.5 0.8 1.2 0.3 0.7 0.3 1.4z"/>
	<path id="Layer" class="s1" d="m139.5 355.9c0 0.8-0.2 1.5-0.6 2.1-0.4 0.6-1 1.1-1.7 1.4-0.7 0.3-1.4 0.4-2.2 0.2-0.7-0.1-1.4-0.5-1.9-1-0.5-0.5-0.9-1.2-1-2-0.2-0.7-0.1-1.4 0.2-2.1 0.3-0.7 0.8-1.3 1.4-1.7 0.6-0.4 1.3-0.6 2.1-0.6q0.7 0 1.4 0.2 0.7 0.3 1.2 0.9 0.6 0.5 0.8 1.2 0.3 0.7 0.3 1.4z"/>
	<path id="Layer" class="s0" d="m228.4 360.9h-21.4l-2.2-40.7h25.8z"/>
	<path id="Layer" class="s1" d="m211.9 360.9h-8.8v-1.8l8.8-1.1z"/>
	<path id="Layer" class="s1" d="m208.1 316.9h19.3c0.9 0 1.7 0.4 2.3 1 0.6 0.6 1 1.5 1 2.3h-25.9c0-0.8 0.3-1.7 1-2.3 0.6-0.6 1.4-1 2.3-1z"/>
	<path id="Layer" class="s1" d="m184.4 255.4h-34.3v-4.1l34.3-2.2z"/>
	<path id="Layer" class="s3" d="m235.2 259.6h-101.5v14.1h101.5z"/>
	<path id="Layer" class="s4" d="m256.3 255.4h-143.3v8.4h143.3z"/>
	<path id="Layer" class="s2" d="m243 360.9h6.4l-11.2-97.1h-7.6z"/>
	<path id="Layer" class="s2" d="m138.6 263.8h-7.6l-11.2 97.1h6.5z"/>
	<path id="Layer" class="s1" d="m219.2 253.3q-4.4-21.8-8.8-43.7c-0.4-2.1-3.6-1.2-3.2 0.9l8.4 41.6h-18.1c-0.5 0-0.9 0.2-1.2 0.5-0.3 0.3-0.5 0.7-0.5 1.2 0 0.4 0.2 0.8 0.5 1.1 0.3 0.3 0.7 0.5 1.2 0.5h20.1q0.4 0 0.7-0.2 0.4-0.1 0.6-0.4 0.3-0.3 0.3-0.7 0.1-0.4 0-0.8z"/>
	<path id="Layer" class="s4" d="m198.7 241.6l5.6-80.8c2.1 1.5 3.8 3.5 4.9 5.8 1.1 2.3 1.5 4.9 1.4 7.4l-3.9 55.3c-0.2 2.6-1 5-2.4 7.2-1.4 2.2-3.3 3.9-5.6 5.1z"/>
	<path id="Layer" class="s5" d="m242.7 231.9h-9.2c-1.7 0-3.2 1.4-3.2 3.2v17.1c0 1.8 1.5 3.2 3.2 3.2h9.2c1.8 0 3.2-1.4 3.2-3.2v-17.1c0-1.8-1.4-3.2-3.2-3.2z"/>
	<path id="Layer" class="s1" d="m236.5 223.2c-2.4 0-4.4 0.6-4.4 1.3 0 0.8 2-0.2 4.4-0.2q0.5-0.1 0.9 0v5.3h1.4v-5.1c1.3 0.2 2.1 0.4 2.1 0 0-0.7-2-1.3-4.4-1.3z"/>
	<path id="Layer" class="s3" d="m240.6 227.9h-4.9v5h4.9z"/>
	<path id="Layer" class="s3" d="m311.2 273.7h101.6v-14.1h-101.6z"/>
	<path id="Layer" class="s4" d="m290.2 263.8h143.3v-8.4h-143.3z"/>
	<path id="Layer" class="s2" d="m303.5 360.9h-6.5l11.2-97.1h7.6z"/>
	<path id="Layer" class="s2" d="m407.9 263.8h7.6l11.2 97.1h-6.5z"/>
	<path id="Layer" class="s1" d="m365.6 12h-2.5v76.2h2.5z"/>
	<path id="Layer" class="s1" d="m333.8 102.8l30.6-47.5 30.5 47.5z"/>
	<path id="Layer" class="s1" d="m165.5 12h-2.5v61.2h2.5z"/>
	<path id="Layer" class="s4" d="m133.7 100.8l30.6-47.5 30.5 47.5z"/>
	<path id="Layer" class="s5" d="m269.7 406.1c117.8 0 213.3-5.6 213.3-12.5 0-6.8-95.5-12.4-213.3-12.4-117.8 0-213.3 5.6-213.3 12.4 0 6.9 95.5 12.5 213.3 12.5z"/>
	<path id="Layer" class="s6" d="m381.4 387.1c0-0.1 0-0.3-0.1-0.4-0.1-0.1-0.1-0.3-0.2-0.5l-0.1-0.5-0.2-0.5-19.5-43-3.4-7.5-2.7-6h-59.6l1 6 1.3 7.5 6.9 39.4q0 0.2 0 0.4 0 0.2 0 0.4v0.1q0 0.2 0 0.4l-0.1 0.4q0 0.2-0.1 0.4 0 0.2-0.1 0.3v0.1 0.1q-0.1 0.2-0.2 0.3-0.1 0.2-0.2 0.4l-0.1 0.1-0.2 0.3q-0.1 0.2-0.3 0.3-0.3 0.3-0.6 0.5-0.2 0.2-0.5 0.4-0.2 0.1-0.4 0.2-0.2 0-0.4 0.1h-0.1q-0.2 0.1-0.4 0.1-0.4 0.1-0.9 0.1h-26.2q-0.4 0-0.8 0.1-0.2 0.1-0.4 0.2-0.6 0.3-0.9 0.8-0.2 0.2-0.3 0.4-0.2 0.5-0.2 1v2.9q0 0.5 0.2 0.9 0.1 0.3 0.3 0.5 0.3 0.5 0.9 0.8 0.2 0.1 0.4 0.2 0.4 0.1 0.8 0.1h104.9c0.6 0 1.1-0.2 1.5-0.5q0.3-0.1 0.4-0.3 0.2-0.2 0.4-0.4 0.1-0.3 0.2-0.5 0.2-0.5 0.2-1.1v-2.9q0-1.1-0.2-2.1z"/>
	<path id="Layer" class="s7" d="m271.4 389.7v2.8q0 0.5 0.2 1 0.2 0.5 0.6 0.8 0.3 0.4 0.8 0.6 0.5 0.1 1 0.1h104.9c0.7 0 1.4-0.2 1.9-0.8 0.6-0.5 0.8-1.2 0.9-1.9v-2.9q0-1.2-0.3-2.3-0.2-1-0.6-1.9l-25.6-56.5h-59.6l9.2 52.9q0.1 0.4 0 0.9c0 1.3-0.5 2.4-1.4 3.3-0.9 0.9-2.1 1.4-3.3 1.4h-26.1q-0.5 0-1 0.2-0.5 0.2-0.8 0.5-0.4 0.4-0.6 0.8-0.2 0.5-0.2 1z"/>
	<path id="Layer" class="s6" d="m384.1 385.2l-25.5-56.5h-3.4l25.5 56.5c0.6 1.3 1 2.7 1 4.2v2.9c0 0.7-0.3 1.4-0.9 1.9-0.5 0.6-1.2 0.8-1.9 0.8h3.4q0.5 0 1-0.2 0.5-0.2 0.9-0.6 0.4-0.3 0.6-0.9 0.2-0.5 0.2-1v-2.9c0-1.5-0.3-2.9-0.9-4.2z"/>
	<path id="Layer" class="s8" d="m355.2 328.7h-59.6l2.4 13.5h63.3z"/>
	<path id="Layer" class="s6" d="m472.7 141.6l-14.3 163.9-1.7 19.8c-0.3 2.5-1.4 4.9-3.3 6.6-1.9 1.7-4.3 2.7-6.8 2.7h-254.4c-1.2 0-2.4-0.2-3.5-0.7-1-0.4-2-1.1-2.8-2-0.8-0.9-1.4-1.9-1.8-3.1-0.4-1.1-0.5-2.3-0.4-3.5l1.8-19.8 14.3-163.9c0.2-2.6 1.4-4.9 3.3-6.6 1.8-1.7 4.2-2.7 6.8-2.7h254.3c2-0.1 3.9 0.6 5.5 1.9q0.3 0.2 0.6 0.5 0.9 0.9 1.4 2 0.4 0.7 0.7 1.5c0.3 1.1 0.4 2.2 0.3 3.4z"/>
	<path id="Layer" class="s9" d="m185.5 305.5l-1.8 19.8c-0.1 1.2 0 2.4 0.4 3.5 0.3 1.2 0.9 2.2 1.7 3.1 0.9 0.9 1.8 1.6 2.9 2 1.1 0.5 2.3 0.7 3.5 0.7h254.3c2.6 0 5-1 6.9-2.7 1.8-1.7 3-4.1 3.2-6.6l1.8-19.8z"/>
	<path id="Layer" class="s10" d="m185.5 305.5l-1.8 19.8c-0.1 1.2 0 2.4 0.4 3.5 0.3 1.2 0.9 2.2 1.7 3.1 0.9 0.9 1.8 1.6 2.9 2 1.1 0.5 2.3 0.7 3.5 0.7h254.3c2.6 0 5-1 6.9-2.7 1.8-1.7 3-4.1 3.2-6.6l1.8-19.8z"/>
	<path id="Layer" class="s9" d="m449.4 299.8h-254q-0.9 0-1.8-0.3-0.9-0.4-1.6-1.1-0.7-0.8-1-1.7-0.3-0.9-0.2-1.9l13.3-151.9c0.2-1.4 0.8-2.6 1.8-3.6 1-0.9 2.4-1.4 3.7-1.4h254q1 0 1.9 0.3 0.9 0.4 1.5 1.2 0.7 0.7 1 1.6 0.3 0.9 0.2 1.9l-13.3 151.9c-0.1 1.4-0.8 2.6-1.8 3.6-1 0.9-2.3 1.4-3.7 1.4z"/>
	<path id="Layer" class="s6" d="m469.9 132.3h-5.7c1.2-0.1 2.4 0.2 3.5 0.6 1.1 0.5 2 1.2 2.8 2.1 0.8 0.9 1.4 1.9 1.8 3 0.4 1.2 0.5 2.4 0.4 3.6l-16.1 183.7c-0.2 2.5-1.4 4.9-3.2 6.6-1.9 1.7-4.3 2.7-6.9 2.7h5.7c2.5 0 4.9-1 6.8-2.7 1.8-1.7 3-4.1 3.3-6.6l16-183.7c0.2-1.2 0.1-2.4-0.3-3.6-0.4-1.1-1-2.1-1.8-3-0.8-0.9-1.8-1.6-2.9-2.1-1.1-0.4-2.2-0.7-3.4-0.6z"/>
	<g id="Layer" style="opacity: .2">
		<path id="Layer" class="s9" d="m469.9 132.3h-5.7c1.2-0.1 2.4 0.2 3.5 0.6 1.1 0.5 2 1.2 2.8 2.1 0.8 0.9 1.4 1.9 1.8 3 0.4 1.2 0.5 2.4 0.4 3.6l-16.1 183.7c-0.2 2.5-1.4 4.9-3.2 6.6-1.9 1.7-4.3 2.7-6.9 2.7h5.7c2.5 0 4.9-1 6.8-2.7 1.8-1.7 3-4.1 3.3-6.6l16-183.7c0.2-1.2 0.1-2.4-0.3-3.6-0.4-1.1-1-2.1-1.8-3-0.8-0.9-1.8-1.6-2.9-2.1-1.1-0.4-2.2-0.7-3.4-0.6z"/>
	</g>
	<g id="Layer" style="opacity: .1">
		<path id="Layer" class="s9" d="m290.5 137.9h-9.7l-34.5 161.9h9.8z"/>
		<path id="Layer" class="s9" d="m236.5 299.8l34.4-161.9h-36.7l-34.4 161.9z"/>
	</g>
	<path id="Layer" class="s7" d="m363.5 389.7v2.7c0 0.7-0.3 1.4-0.8 1.9-0.4 0.5-1.1 0.7-1.8 0.7h-86.9c-0.7 0-1.3-0.2-1.8-0.7-0.5-0.5-0.8-1.1-0.8-1.8v-2.8c0-0.7 0.3-1.3 0.8-1.8 0.5-0.5 1.1-0.7 1.8-0.7h26.1q0.5 0 1-0.1h59.8c0.7 0 1.4 0.3 1.8 0.8 0.5 0.4 0.8 1.1 0.8 1.8z"/>
	<path id="Layer" class="s11" d="m381.4 387.1h-80.3c1-0.3 2-0.8 2.7-1.7 0.7-0.8 1.1-1.8 1.1-2.9h74.5z"/>
	<path id="Layer" class="s8" d="m457.3 164.6h-122.2v140.8h122.2z"/>
	<path id="Layer" class="s9" d="m450.9 149.7h-122v149.6h122z"/>
	<path id="Layer" class="s6" d="m450.9 149.7h-122v8.9h122z"/>
	<path id="Layer" class="s12" d="m450.9 158.6h-88.2v140.7h88.2z"/>
	<path id="Layer" class="s12" d="m391.8 162h-24.7v28.6h24.7z"/>
	<path id="Layer" class="s12" d="m447.9 162h-51.3v11.8l51.3-0.1z"/>
	<path id="Layer" class="s12" d="m447.9 178.8h-51.3v63.6h51.3z"/>
	<path id="Layer" class="s12" d="m447.9 247.5h-51.3v47.6h51.3z"/>
	<path id="Layer" class="s9" d="m396.6 201.5h-34.2v11h34.2z"/>
	<path id="Layer" class="s9" d="m363 178.8h-34.1v11h34.1z"/>
	<path id="Layer" class="s13" d="m447.9 257.9h-51.3v5.7h51.3z"/>
	<path id="Layer" class="s9" d="m401.7 166.7l1.1-2.1 1.1 2.1 2.3 0.4-1.7 1.7 0.4 2.3-2.1-1.1-2.1 1.1 0.4-2.3-1.8-1.7z"/>
	<path id="Layer" class="s9" d="m411.4 166.7l1.1-2.1 1.1 2.1 2.4 0.4-1.8 1.7 0.5 2.3-2.2-1.1-2.1 1.1 0.4-2.3-1.7-1.7z"/>
	<path id="Layer" class="s9" d="m421.2 166.7l1-2.1 1.1 2.1 2.4 0.4-1.7 1.7 0.4 2.3-2.2-1.1-2.1 1.1 0.4-2.3-1.7-1.7z"/>
	<path id="Layer" class="s13" d="m430.9 166.7l1.1-2.1 1 2.1 2.4 0.4-1.7 1.7 0.4 2.3-2.1-1.1-2.2 1.1 0.4-2.3-1.7-1.7z"/>
	<path id="Layer" class="s13" d="m440.6 166.7l1.1-2.1 1.1 2.1 2.4 0.4-1.8 1.7 0.4 2.3-2.1-1.1-2.1 1.1 0.4-2.3-1.7-1.7z"/>
	<path id="Layer" class="s6" d="m420.4 184.4h-20.2v1.1h20.2z"/>
	<path id="Layer" class="s6" d="m416.2 193.9h-16v1.1h16z"/>
	<path id="Layer" class="s6" d="m416.2 202.2h-16v1.1h16z"/>
	<path id="Layer" class="s6" d="m416.2 210.4h-16v1.1h16z"/>
	<path id="Layer" class="s6" d="m416.2 218.7h-16v1.1h16z"/>
	<path id="Layer" class="s6" d="m416.2 227h-16v1.1h16z"/>
	<path id="Layer" class="s6" d="m416.2 235.3h-16v1.1h16z"/>
	<path id="Layer" class="s6" d="m434.3 193.9h-15.9v1.1h15.9z"/>
	<path id="Layer" class="s6" d="m434.3 202.2h-15.9v1.1h15.9z"/>
	<path id="Layer" class="s6" d="m434.3 210.4h-15.9v1.1h15.9z"/>
	<path id="Layer" class="s6" d="m434.3 218.7h-15.9v1.1h15.9z"/>
	<path id="Layer" class="s6" d="m434.3 227h-15.9v1.1h15.9z"/>
	<path id="Layer" class="s6" d="m434.3 235.3h-15.9v1.1h15.9z"/>
	<path id="Layer" class="s6" d="m434.3 187.6h-34.1v1.1h34.1z"/>
	<path id="Layer" class="s6" d="m434.3 252.9h-34.1v1.1h34.1z"/>
	<path id="Layer" class="s6" d="m391.8 193.9h-24.7v1.1h24.7z"/>
	<path id="Layer" class="s6" d="m391.8 218h-24.7v1.1h24.7z"/>
	<path id="Layer" class="s6" d="m391.8 227.2h-24.7v1.1h24.7z"/>
	<path id="Layer" class="s6" d="m391.8 236.4h-24.7v1.1h24.7z"/>
	<path id="Layer" class="s6" d="m391.8 245.6h-24.7v1.1h24.7z"/>
	<path id="Layer" class="s6" d="m391.8 254.9h-24.7v1.1h24.7z"/>
	<path id="Layer" class="s6" d="m391.8 264.1h-24.7v1.1h24.7z"/>
	<path id="Layer" class="s6" d="m391.8 273.3h-24.7v1.1h24.7z"/>
	<path id="Layer" class="s6" d="m391.8 282.5h-24.7v1.1h24.7z"/>
	<path id="Layer" class="s6" d="m379.5 197.4h-12.4v1.1h12.4z"/>
	<path id="Layer" class="s6" d="m358.8 164h-25.6v1.1h25.6z"/>
	<path id="Layer" class="s6" d="m358.8 171.1h-25.6v1.1h25.6z"/>
	<path id="Layer" class="s6" d="m358.8 197.4h-25.6v1.1h25.6z"/>
	<path id="Layer" class="s9" d="m367.1 190.5v-3.5c7.8-2.8 16.2-2.9 24-0.3l0.8 0.3v3.5z"/>
	<path id="Layer" class="s14" d="m378.3 189.5c1.9-0.2 3.7-1.2 5-2.7q0.2-0.4 0.2-0.9-0.1-0.5-0.4-0.8c-1.7-2.1-2.1-6.7-2-9.5l-2 2.6-2.7 3.4q0.3 0.7 0.5 1.3 0.2 0.5 0.2 1c0.1 0.6 0.1 1.2-0.2 1.8-0.2 0.5-0.7 1-1.2 1.3q-0.3 0.2-0.4 0.6-0.2 0.3-0.2 0.7 0.1 0.3 0.3 0.6 0.2 0.3 0.6 0.5c0.7 0.2 1.5 0.3 2.3 0.1z"/>
	<path id="Layer" class="s11" d="m376.4 181.6q0.3 0.7 0.5 1.3 0.2 0.5 0.2 1c0.7-0.3 1.3-0.8 1.7-1.4 0.4-0.6 0.7-1.3 0.7-2.1q0-0.6-0.2-1.2z"/>
	<path id="Layer" class="s6" d="m373.9 175.3q-0.2 0.3-0.5 0.5-0.4 0.2-0.8 0.2-0.4 0-0.7-0.2-0.4-0.2-0.6-0.5c0.9-2 0.2-2.2 0.2-3.7-0.1-0.8 0-1.7 0.4-2.4 0.3-0.8 0.9-1.5 1.6-2h1.5c5.4 1.2-1.1 8.1-1.1 8.1z"/>
	<path id="Layer" class="s14" d="m382.6 170.6q-0.2-1.1-0.9-1.9-0.6-0.9-1.5-1.4-0.9-0.6-2-0.7-1-0.2-2 0.1c-4.3 0.9-6 6.7-5.9 10.4 0 1 0.4 2.1 1 3q0.6 0.8 1.5 1.4 0.9 0.5 1.9 0.7 1.1 0.2 2.1-0.1 1-0.2 1.9-0.8c2.4-1.7 2.8-4.1 3.9-8 0.2-0.9 0.2-1.8 0-2.7z"/>
	<path id="Layer" class="s6" d="m372.2 177.4q2-0.4 4.1-0.4c-0.1 0.6-0.5 1.1-0.9 1.4-0.5 0.4-1 0.5-1.6 0.5-0.4 0-0.8-0.1-1.1-0.3-0.3-0.3-0.5-0.7-0.5-1.1 0 0 0-0.1 0-0.1z"/>
	<path id="Layer" class="s15" d="m374.5 178.1c-0.6 0-1.2 0.2-1.7 0.5q0.5 0.3 1 0.3c0.6 0 1.2-0.2 1.7-0.5q-0.5-0.3-1-0.3z"/>
	<path id="Layer" class="s9" d="m372.3 177.4q0.1 0.2 0.2 0.3 0.1 0.1 0.3 0.2 1.4-0.1 2.7-0.4 0.2 0 0.4-0.1 0.2-0.2 0.2-0.4-1.9 0-3.8 0.4z"/>
	<path id="Layer" class="s6" d="m381.2 178.5c0 0-1.8-3.9-1.6-5.2 0-0.8 0.3-1.5 0.7-2.1 0.5-0.7 1.1-1.1 1.8-1.4l1.5 0.3c6.4 2.7-2.4 8.4-2.4 8.4z"/>
	<path id="Layer" class="s15" d="m373.1 176.2q-0.4 0-0.8-0.1-0.3-0.2-0.6-0.4 1.2-1.1 2.1-2.5z"/>
	<path id="Layer" class="s14" d="m382.5 174.3c-1-0.2-2.1 1.1-2.5 2-0.4 0.9-0.1 2 0.9 1.7 0.9-0.2 1.6-0.7 2.1-1.4 0.7-0.9 0.5-2.2-0.5-2.3z"/>
	<path id="Layer" class="s6" d="m376.1 173.1c-0.2 0-0.4 0.2-0.5 0.5 0 0.3 0.1 0.6 0.3 0.7 0.2 0 0.4-0.2 0.5-0.6 0.1-0.3-0.1-0.5-0.3-0.6z"/>
	<path id="Layer" class="s6" d="m372.5 172.3c-0.2 0-0.4 0.2-0.5 0.5-0.1 0.4 0 0.6 0.3 0.7 0.2 0 0.4-0.2 0.5-0.6 0-0.3-0.1-0.6-0.3-0.6z"/>
	<path id="Layer" class="s6" d="m373.3 171.1q0 0-0.1 0 0 0-0.1 0-0.3-0.2-0.7-0.1-0.4 0-0.7 0.2-0.1 0.1-0.1 0.1-0.1 0-0.2-0.1 0 0 0-0.1 0-0.1 0-0.1 0.4-0.3 0.9-0.4 0.5 0 0.9 0.1 0.1 0 0.1 0.1 0.1 0.1 0 0.2 0 0 0 0.1z"/>
	<path id="Layer" class="s6" d="m377.2 172.6q-0.1 0-0.1 0-0.2-0.3-0.6-0.5-0.3-0.2-0.7-0.3 0 0 0 0-0.1 0-0.1 0 0 0 0-0.1-0.1 0-0.1-0.1 0 0 0.1-0.1 0.1 0 0.1 0 0.5 0 0.9 0.2 0.4 0.3 0.7 0.6 0 0.1 0 0.2 0 0.1 0 0.1-0.1 0-0.1 0 0 0-0.1 0z"/>
	<path id="Layer" class="s6" d="m372.4 169.4q-0.2-1.1-0.1-2.3 0.1-0.5 0.5-0.9 0.4-0.5 0.9-0.7c1.1-0.4 2.3-0.4 3.4 0q0.4 0 0.8 0.2 0.2 0.1 0.3 0.3 0.1 0.2 0.1 0.4 0 0.2-0.2 0.4-0.1 0.1-0.3 0.2c-0.2 0.1-2.2 0.6-3.1 0.9-0.8 0.3-1.6 0.8-2.3 1.5z"/>
	<path id="Layer" class="s6" d="m384.8 167.2c0.8 0.7 1.3 1.5 1.5 2.5 0.2 0.9 0.1 1.9-0.3 2.8q-0.4 1-1 1.9l-2.7-1.9c-1.3-0.6-2.2-1.7-2.7-3-0.3-0.7-0.8-1.3-1.5-1.6-0.7-0.4-1.4-0.5-2.1-0.3-0.4 0-0.9 0.1-1.1-0.2-0.3-0.4 0.3-1.1 0.8-1.5 1.6-1.4 4.6-2.2 9.1 1.3z"/>
	<path id="Layer" class="s11" d="m379.5 169.3c-1-1.8-2.3-1.9-4-1.7q0-0.3 0.2-0.6 0.1-0.3 0.3-0.5c1.4-1.1 3.2 1.5 3.5 2.8z"/>
	<path id="Layer" class="s6" d="m374.7 167.3q-0.2 0.3-0.2 0.5-0.2 0.8-0.1 1.5 0.1 0.8 0.5 1.5-0.7-0.8-0.9-1.7-0.2-0.6-0.2-1.3c0-0.4 0.2-0.8 0.5-1.1q0.2-0.2 0.5-0.2 0.3-0.1 0.6 0c0.2 0.1 0.5 0.6 0.3 0.7-0.3 0.2-0.6-0.2-1 0.1z"/>
	<path id="Layer" class="s8" d="m372.3 134.4v111.6h-122.2v-140.8h115.8v29.2z"/>
	<path id="Layer" class="s9" d="m365.9 90.3h-122v149.6h122z"/>
	<path id="Layer" class="s6" d="m365.9 90.3h-122v8.9h122z"/>
	<path id="Layer" class="s12" d="m365.9 99.2h-88.2v140.7h88.2z"/>
	<path id="Layer" class="s12" d="m306.8 102.5h-24.8v28.7h24.8z"/>
	<path id="Layer" class="s12" d="m362.9 102.5h-51.4v11.8h51.4z"/>
	<path id="Layer" class="s12" d="m362.9 119.4h-51.4v63.6h51.4z"/>
	<path id="Layer" class="s12" d="m362.9 188.1h-51.4v47.5h51.4z"/>
	<path id="Layer" class="s9" d="m311.5 142.1h-34.1v11h34.1z"/>
	<path id="Layer" class="s9" d="m278 119.4h-34.1v11h34.1z"/>
	<path id="Layer" class="s13" d="m362.9 198.5h-51.4v5.7h51.4z"/>
	<path id="Layer" class="s9" d="m316.7 107.3l1.1-2.1 1 2.1 2.4 0.4-1.7 1.7 0.4 2.3-2.1-1.1-2.2 1.1 0.4-2.3-1.7-1.7z"/>
	<path id="Layer" class="s9" d="m326.4 107.3l1.1-2.1 1.1 2.1 2.3 0.4-1.7 1.7 0.4 2.3-2.1-1.1-2.1 1.1 0.4-2.3-1.8-1.7z"/>
	<path id="Layer" class="s9" d="m336.1 107.3l1.1-2.1 1.1 2.1 2.4 0.4-1.7 1.7 0.4 2.3-2.2-1.1-2.1 1.1 0.4-2.3-1.7-1.7z"/>
	<path id="Layer" class="s13" d="m345.9 107.3l1.1-2.1 1 2.1 2.4 0.4-1.7 1.7 0.4 2.3-2.1-1.1-2.2 1.1 0.4-2.3-1.7-1.7z"/>
	<path id="Layer" class="s13" d="m355.6 107.3l1.1-2.1 1.1 2.1 2.3 0.4-1.7 1.7 0.4 2.3-2.1-1.1-2.2 1.1 0.4-2.3-1.7-1.7z"/>
	<path id="Layer" class="s6" d="m335.4 125h-20.2v1.1h20.2z"/>
	<path id="Layer" class="s6" d="m331.1 134.5h-15.9v1.1h15.9z"/>
	<path id="Layer" class="s6" d="m331.1 142.8h-15.9v1.1h15.9z"/>
	<path id="Layer" class="s6" d="m331.1 151h-15.9v1.1h15.9z"/>
	<path id="Layer" class="s6" d="m331.1 159.3h-15.9v1.1h15.9z"/>
	<path id="Layer" class="s6" d="m331.1 167.6h-15.9v1.1h15.9z"/>
	<path id="Layer" class="s6" d="m331.1 175.9h-15.9v1.1h15.9z"/>
	<path id="Layer" class="s6" d="m349.3 134.5h-16v1.1h16z"/>
	<path id="Layer" class="s6" d="m349.3 142.8h-16v1.1h16z"/>
	<path id="Layer" class="s6" d="m349.3 151h-16v1.1h16z"/>
	<path id="Layer" class="s6" d="m349.3 159.3h-16v1.1h16z"/>
	<path id="Layer" class="s6" d="m349.3 167.6h-16v1.1h16z"/>
	<path id="Layer" class="s6" d="m349.3 175.9h-16v1.1h16z"/>
	<path id="Layer" class="s6" d="m349.3 128.2h-34.1v1.1h34.1z"/>
	<path id="Layer" class="s6" d="m349.3 193.5h-34.1v1.1h34.1z"/>
	<path id="Layer" class="s6" d="m306.8 134.5h-24.8v1.1h24.8z"/>
	<path id="Layer" class="s6" d="m306.8 158.6h-24.8v1.1h24.8z"/>
	<path id="Layer" class="s6" d="m306.8 167.8h-24.8v1.1h24.8z"/>
	<path id="Layer" class="s6" d="m306.8 177h-24.8v1.1h24.8z"/>
	<path id="Layer" class="s6" d="m306.8 186.2h-24.8v1.1h24.8z"/>
	<path id="Layer" class="s6" d="m306.8 195.4h-24.8v1.1h24.8z"/>
	<path id="Layer" class="s6" d="m306.8 204.7h-24.8v1.1h24.8z"/>
	<path id="Layer" class="s6" d="m306.8 213.9h-24.8v1.1h24.8z"/>
	<path id="Layer" class="s6" d="m306.8 223.1h-24.8v1.1h24.8z"/>
	<path id="Layer" class="s6" d="m294.4 138h-12.4v1.1h12.4z"/>
	<path id="Layer" class="s6" d="m273.7 104.6h-25.6v1.1h25.6z"/>
	<path id="Layer" class="s6" d="m273.7 111.7h-25.6v1.1h25.6z"/>
	<path id="Layer" class="s6" d="m273.7 138h-25.6v1.1h25.6z"/>
	<path id="Layer" class="s6" d="m282.1 131.1v-3.5c7.8-2.8 16.2-2.9 24-0.2l0.8 0.2v3.5z"/>
	<path id="Layer" class="s16" d="m298.2 118.6l-2.6 2-3.5 2.8q0.3 0.7 0.4 1.3c0.1 0.5 0 1.1-0.2 1.5-0.2 0.4-0.6 0.8-1.1 1-0.5 0.1-1.1 2.4 1.8 2.7q1.3 0.2 2.5-0.1 1.3-0.3 2.3-1.1c0.7-0.6 0.9-1 0.5-1.9-1.2-2.5-0.7-5.7-0.1-8.2z"/>
	<path id="Layer" class="s11" d="m293 122.7l2.3-2q-0.1 0.1 0 0.2 0 0.6 0 1.1-0.3 1.1-1.1 1.9-0.7 0.7-1.7 1.1v-0.2q-0.1-0.7-0.3-1.3z"/>
	<path id="Layer" class="s6" d="m291.2 116.7c-1.3-3.7-0.6-5.6-2-7.7-0.9-0.5-2.7 0.9-2.1 3.9 0.6 3.1 4.1 3.8 4.1 3.8z"/>
	<path id="Layer" class="s16" d="m298.9 114c-0.4 4-0.5 6.4-2.6 8.3-3.2 3-8.2 0.8-8.9-3.3-0.8-3.7 0.1-9.6 4.1-11 1.4-0.4 3-0.3 4.3 0.4 1.4 0.6 2.4 1.8 2.9 3.2q0.3 1.2 0.2 2.4z"/>
	<path id="Layer" class="s6" d="m298.8 117.6l-1.7 0.1-0.4-2.7-1.6-1.3-0.5-4.2c0 0 3.7 0 5.2 0 0.5 0 2 1.6 2.2 2.2 0.2 0.8 0.2 1.7-0.1 2.6-0.3 0.8-0.8 1.5-1.4 2.1q-0.8 0.7-1.7 1.2z"/>
	<path id="Layer" class="s6" d="m298.9 111.2c-1.1 0.5-2.4-0.1-3.5-0.4q-1.6-0.5-3.3-0.9c-1-0.2-2.1 0-2.9 0.5-0.5 0.3-0.8 0.7-0.9 1.2-0.2 0.4-0.2 1 0.1 1.4q-1-0.5-1.6-1.4-0.6-0.8-0.7-1.9c-0.1-0.7 0-1.4 0.2-2 0.3-0.7 0.7-1.3 1.2-1.7 1-0.9 2.3-1.3 3.6-1.3q1.9 0 3.8 0.4c1.7 0.3 4.1 0.3 5.7 1 1.5 0.7 1.4 3.4-1.7 5.1z"/>
	<path id="Layer" class="s16" d="m300.4 117.2c-0.2 0.8-0.8 1.6-1.6 2.1-1 0.6-1.8-0.5-1.7-1.6 0-1.1 0.8-2.4 1.9-2.6 1.1-0.1 1.7 1 1.4 2.1z"/>
	<path id="Layer" class="s6" d="m292.5 115.2c0 0.4-0.2 0.7-0.4 0.7-0.2 0-0.4-0.3-0.4-0.6-0.1-0.4 0.2-0.7 0.4-0.7 0.2 0 0.4 0.3 0.4 0.6z"/>
	<path id="Layer" class="s6" d="m288.6 115.4c0 0.3-0.1 0.6-0.4 0.6-0.2 0-0.4-0.3-0.4-0.6 0-0.3 0.2-0.6 0.4-0.6 0.3 0 0.4 0.2 0.4 0.6z"/>
	<path id="Layer" class="s15" d="m289.9 115.6q-0.5 1.3-1.2 2.6 0.3 0.2 0.6 0.2 0.4 0 0.7-0.1z"/>
	<path id="Layer" class="s6" d="m290.4 120.3q0.6 0 1.1-0.3 0.6-0.2 1-0.6 0-0.1 0-0.1 0 0 0-0.1 0 0-0.1 0 0 0-0.1 0-0.4 0.5-1 0.7-0.6 0.2-1.3 0.2 0 0 0 0 0 0-0.1 0 0 0 0 0 0 0 0 0 0 0.1 0 0.1 0.1 0 0.1 0.1 0.2 0 0.4 0z"/>
	<path id="Layer" class="s6" d="m293.2 114q0.1 0 0.1 0 0 0 0.1 0 0-0.1 0-0.1 0-0.1 0-0.1-0.1 0-0.1-0.1-0.3-0.3-0.7-0.5-0.4-0.2-0.9-0.2-0.1 0-0.1 0.1-0.1 0-0.1 0.1 0 0.1 0 0.1 0 0 0.1 0.1 0 0 0 0 0.1 0 0.1 0 0.4 0 0.7 0.1 0.4 0.2 0.6 0.5 0 0 0.1 0 0.1 0 0.1 0z"/>
	<path id="Layer" class="s6" d="m288.6 113.2q0-0.1 0-0.1 0-0.1 0-0.1 0 0-0.1-0.1 0 0 0 0-0.1 0-0.1 0-0.5 0-0.9 0.3-0.4 0.2-0.6 0.6-0.1 0-0.1 0.1 0 0 0 0.1 0.1 0 0.1 0 0 0.1 0 0.1 0.1 0 0.2 0 0.1 0 0.1-0.1 0.2-0.3 0.5-0.5 0.4-0.2 0.7-0.2 0.1 0 0.1 0 0.1-0.1 0.1-0.1z"/>
	<path id="Layer" class="s8" d="m321.1 164.9h-122.3v140.9h122.3z"/>
	<path id="Layer" class="s9" d="m314.6 150.1h-122v149.5h122z"/>
	<path id="Layer" class="s6" d="m314.6 150.1h-122v8.8h122z"/>
	<path id="Layer" class="s12" d="m314.6 158.9h-88.1v140.7h88.1z"/>
	<path id="Layer" class="s12" d="m255.6 162.3h-24.8v28.6h24.8z"/>
	<path id="Layer" class="s12" d="m311.7 162.3h-51.4v11.8h51.4z"/>
	<path id="Layer" class="s12" d="m311.7 179.1h-51.4v63.6h51.4z"/>
	<path id="Layer" class="s12" d="m311.7 247.8h-51.4v47.6h51.4z"/>
	<path id="Layer" class="s9" d="m260.3 201.9h-34.1v10.9h34.1z"/>
	<path id="Layer" class="s9" d="m226.7 179.1h-34.1v11h34.1z"/>
	<path id="Layer" class="s13" d="m311.7 258.2h-51.4v5.7h51.4z"/>
	<path id="Layer" class="s9" d="m265.4 167.1l1.1-2.2 1.1 2.2 2.4 0.3-1.8 1.7 0.5 2.4-2.2-1.1-2.1 1.1 0.4-2.4-1.7-1.7z"/>
	<path id="Layer" class="s9" d="m275.2 167.1l1-2.2 1.1 2.2 2.4 0.3-1.7 1.7 0.4 2.4-2.2-1.1-2.1 1.1 0.4-2.4-1.7-1.7z"/>
	<path id="Layer" class="s9" d="m284.9 167.1l1.1-2.2 1 2.2 2.4 0.3-1.7 1.7 0.4 2.4-2.1-1.1-2.2 1.1 0.4-2.4-1.7-1.7z"/>
	<path id="Layer" class="s9" d="m294.6 167.1l1.1-2.2 1.1 2.2 2.4 0.3-1.8 1.7 0.4 2.4-2.1-1.1-2.1 1.1 0.4-2.4-1.8-1.7z"/>
	<path id="Layer" class="s13" d="m304.4 167.1l1-2.2 1.1 2.2 2.4 0.3-1.7 1.7 0.4 2.4-2.2-1.1-2.1 1.1 0.4-2.4-1.7-1.7z"/>
	<path id="Layer" class="s6" d="m284.1 184.8l-20.2-0.1v1.2h20.2z"/>
	<path id="Layer" class="s6" d="m279.9 194.2h-16v1.1h16z"/>
	<path id="Layer" class="s6" d="m279.9 202.5h-16v1.1h16z"/>
	<path id="Layer" class="s6" d="m279.9 210.8h-16v1.1h16z"/>
	<path id="Layer" class="s6" d="m279.9 219h-16v1.1h16z"/>
	<path id="Layer" class="s6" d="m279.9 227.3h-16v1.1h16z"/>
	<path id="Layer" class="s6" d="m279.9 235.6h-16v1.1h16z"/>
	<path id="Layer" class="s6" d="m298 194.2h-15.9v1.1h15.9z"/>
	<path id="Layer" class="s6" d="m298 202.5h-15.9v1.1h15.9z"/>
	<path id="Layer" class="s6" d="m298 210.8h-15.9v1.1h15.9z"/>
	<path id="Layer" class="s6" d="m298 219h-15.9v1.1h15.9z"/>
	<path id="Layer" class="s6" d="m298 227.3h-15.9v1.1h15.9z"/>
	<path id="Layer" class="s6" d="m298 235.6h-15.9v1.1h15.9z"/>
	<path id="Layer" class="s6" d="m298 187.9h-34.1v1.1h34.1z"/>
	<path id="Layer" class="s6" d="m298 253.2h-34.1v1.1h34.1z"/>
	<path id="Layer" class="s6" d="m255.6 194.2h-24.8v1.1h24.8z"/>
	<path id="Layer" class="s6" d="m255.6 218.3h-24.8v1.1h24.8z"/>
	<path id="Layer" class="s6" d="m255.6 227.5h-24.8v1.1h24.8z"/>
	<path id="Layer" class="s6" d="m255.6 236.7h-24.8v1.1h24.8z"/>
	<path id="Layer" class="s6" d="m255.6 246h-24.8v1.1h24.8z"/>
	<path id="Layer" class="s6" d="m255.6 255.2h-24.8v1.1h24.8z"/>
	<path id="Layer" class="s6" d="m255.6 264.4h-24.8v1.1h24.8z"/>
	<path id="Layer" class="s6" d="m255.6 273.6h-24.8v1.1h24.8z"/>
	<path id="Layer" class="s6" d="m255.6 282.8h-24.8v1.1h24.8z"/>
	<path id="Layer" class="s6" d="m243.2 197.8h-12.4v1.1h12.4z"/>
	<path id="Layer" class="s6" d="m222.5 164.3h-25.6v1.1h25.6z"/>
	<path id="Layer" class="s6" d="m222.5 171.5h-25.6v1.1h25.6z"/>
	<path id="Layer" class="s6" d="m222.5 197.8h-25.6v1.1h25.6z"/>
	<path id="Layer" class="s9" d="m230.8 190.9v-3.5c7.7-2.7 16.2-2.8 24-0.2l0.8 0.2v3.5z"/>
	<path id="Layer" class="s6" d="m241 165.9c-0.8-0.2-1.6-0.3-2.4-0.1-0.8 0.2-1.6 0.5-2.2 1-1.3 1-2.3 2.3-2.9 3.9q-0.4 0.6-0.4 1.3 0 0.7 0.4 1.3c0.6 0.7 1.7 0.7 2.6 0.6 1.5-2.8 3.2-5.3 4.9-8z"/>
	<path id="Layer" class="s17" d="m240.1 182.6c0.7 1.7 1.1 3.6-1.1 5.1-0.4 0.3-0.7 0.8-0.9 1.3-0.2 0.9 0.1 1.8 3.2 0.9 4.6-1.5 4.9-4.3 4.9-4.3-1.9-1.1-2.2-5.9-2-8.5z"/>
	<path id="Layer" class="s11" d="m243.1 180.8c0 1.2-1.5 2.7-2.6 3.1q-0.1-0.7-0.4-1.3l2.5-3.3q0.4 0.7 0.5 1.5z"/>
	<path id="Layer" class="s17" d="m246.8 170.7q-0.4-1.1-1.1-2-0.7-0.9-1.7-1.5-1-0.5-2.2-0.6-1.1-0.1-2.2 0.2c-4.3 1.3-5.5 7.5-5 11.4 0.5 4.3 5.6 6.1 9.1 3.1 2.4-2 2.6-3.8 3.2-8 0.2-0.9 0.1-1.8-0.1-2.6z"/>
	<path id="Layer" class="s18" d="m237.2 176.9q-0.4 0-0.7-0.1-0.3-0.1-0.6-0.3 0.9-1 1.5-2.2z"/>
	<path id="Layer" class="s6" d="m240.4 177.5q0 0 0-0.1 0 0 0-0.1 0 0 0 0-0.1 0-0.1 0 0 0 0 0 0 0 0 0-0.5 0.5-1.1 0.8-0.6 0.2-1.3 0.1 0 0 0 0-0.1 0.1-0.1 0.1 0 0 0 0.1 0.1 0 0.1 0 0.3 0 0.5 0c0.8 0 1.5-0.4 2-0.9z"/>
	<path id="Layer" class="s6" d="m237.1 167.3c0.8 0 1.5 0.2 2.2 0.5 0.7 0.4 1.2 1 1.5 1.7q0.4 1.1 0.6 2.1c0.1 0.8 0.5 1.5 0.9 2q0.4 0.4 1 0.6 0.5 0.1 1-0.2c0.2 0.7 0.6 1.3 1.1 1.7 0.5 0.5 1.1 0.8 1.8 0.9-1 1.4-2.2 2.9-3.1 4.2 0.3 1.1 0.4 1.3 0.7 2.4 1.2-0.4 2.3-1 3.2-1.8 1-0.8 1.8-1.8 2.3-2.9 1.1-2.2 1.4-4.9-0.7-5 0.7-1.5-0.6-4.6-1.8-5.8-1-1-2.2-1.7-3.6-2-1.3-0.4-2.7-0.5-4.1-0.2-1.2 0.2-2.2 0.9-3 1.8z"/>
	<path id="Layer" class="s17" d="m247.9 176.3c0.1-0.4 0-0.7-0.3-1-0.2-0.3-0.5-0.5-0.9-0.5-1.1-0.1-1.9 1.1-2.1 2.1-0.2 0.9 0.4 1.9 1.4 1.5 0.8-0.3 1.4-0.8 1.8-1.6q0.1-0.2 0.1-0.5z"/>
	<path id="Layer" class="s6" d="m241.2 172.2q0.1 0.1 0.1 0 0.1 0 0.1-0.1 0-0.1-0.1-0.2-0.3-0.4-0.9-0.7-0.5-0.2-1.1-0.2-0.1 0-0.1 0.1 0 0-0.1 0 0 0 0 0.1 0 0 0 0.1 0 0 0 0 0 0.1 0.1 0.1 0 0 0 0 0.1 0 0.1 0 0.5 0 0.9 0.2 0.5 0.2 0.8 0.6 0 0 0.1 0.1 0.1 0 0.1-0.1z"/>
	<path id="Layer" class="s6" d="m234.9 172.5q0-0.1 0-0.1 0.3-0.4 0.8-0.6 0.4-0.2 0.9-0.2 0.1 0 0.1 0 0 0 0.1 0 0-0.1 0-0.1 0 0 0-0.1 0-0.1 0-0.1-0.1-0.1-0.2-0.1-0.6 0-1.1 0.2-0.5 0.3-0.9 0.7 0 0.1-0.1 0.2 0 0 0.1 0.1 0 0.1 0.1 0.1 0.1 0 0.1 0z"/>
	<path id="Layer" class="s6" d="m240.2 173.3c0 0.4-0.2 0.7-0.5 0.7-0.2-0.1-0.4-0.4-0.4-0.8 0-0.3 0.2-0.6 0.5-0.6 0.2 0 0.4 0.3 0.4 0.7z"/>
	<path id="Layer" class="s6" d="m236.4 173.6c0 0.4-0.2 0.7-0.5 0.6-0.2 0-0.4-0.3-0.4-0.6 0-0.4 0.2-0.7 0.5-0.7 0.2 0 0.4 0.3 0.4 0.7z"/>
	<path id="Layer" class="s6" d="m236.1 172.9l-0.9-0.2c0 0 0.4 0.7 0.9 0.2z"/>
	<path id="Layer" class="s6" d="m239.9 172.6l-0.9-0.3c0 0 0.4 0.7 0.9 0.3z"/>
	<path id="Layer" class="s6" d="m99.7 215c-8.5 0-8.5-7.3-8.5-7.3l72.3-77.7 0.4-1.7 4.1 3.8q0 0.1-0.1 0.2c-0.2 0.4-63.4 82.7-68.2 82.7z"/>
	<g id="Layer" style="opacity: .5">
		<path id="Layer" class="s19" d="m208.6 112.2c-9.5 14.7-25.4 25.9-35.4 20.7q0.1-0.1 0.1-0.2l-5.5-3c-3.7-3.3-5.7-8.1-6.3-13.8-0.8-8.8 2-19.5 8-29.3 10.7-17.4 28.2-25.2 36.2-20.4q2 1.2 3.9 2.6 1.6 1.1 3 2.4 0.7 0.6 1.2 1.4c2.1 3 3.3 6.5 3.4 10.1 0.8 8.5-2.1 19.4-8.6 29.5z"/>
	</g>
	<path id="Layer" class="s7" d="m217.2 82.5l-49.4 47c-3.7-3.3-5.7-8.2-6.3-13.9v-0.1l52.3-43.1c2.1 3 3.3 6.5 3.4 10.1z"/>
	<path id="Layer" fill-rule="evenodd" class="s6" d="m170.3 135.5q-2.6-0.8-4.8-2.2c-0.4-0.3-0.8-0.5-1.1-0.8-12.9-9.1-14-31.1-2.3-50 12-19.3 33-28.1 46.9-19.5 13.9 8.6 15.4 31.3 3.4 50.7-10.7 17.3-28.6 26.1-42.1 21.8zm34.8-26.3c9.9-16 11.9-32.9 5.3-39.8q-0.7-0.8-1.5-1.4-1.7-1.3-3.5-2.4c-7.5-4.3-25.1 3.3-35.9 20.7-10.1 16.2-10.9 34.8-2.4 42.6q0.9 0.8 1.9 1.4l0.1 0.1 0.5 0.3q0.1 0.1 0.3 0.2 1 0.6 2.2 0.9c9.1 2.7 23.1-6.6 33-22.6z"/>
	<g id="Layer" style="opacity: .4">
		<path id="Layer" class="s20" d="m208.6 111.9c-9.5 14.7-25.4 26-35.4 20.7q0.1 0 0.1-0.1l-1.2-0.7c9.1 2.7 23.2-6.7 33.1-22.6 9.8-15.8 11.9-32.9 5.3-39.8q-0.3-0.4-0.7-0.7 1.5 1 2.8 2.2 0.7 0.7 1.2 1.5c2.1 2.9 3.3 6.4 3.4 10.1 0.7 8.5-2.1 19.4-8.6 29.4z"/>
	</g>
	<path id="Layer" class="s6" d="m71 283.9c0.4 2.9 3.3 4.7 6 5.8 4.8 2 10 3.2 15.2 3.5 4-14.2 6.8-28.6 8.3-43.2-12.9 8.1-31.8 18.8-29.5 33.9z"/>
	<path id="Layer" class="s11" d="m71 283.9c0.4 2.9 3.3 4.7 6 5.8 4.8 2 10 3.2 15.2 3.5 4-14.2 6.8-28.6 8.3-43.2-12.9 8.1-31.8 18.8-29.5 33.9z"/>
	<path id="Layer" class="s6" d="m136.6 109.8c0.4-0.1 0.9 0.3 1 1 0.1 0.6-0.1 1.2-0.5 1.2-0.5 0.1-0.9-0.3-1-1-0.1-0.6 0.1-1.2 0.5-1.2z"/>
	<path id="Layer" class="s21" d="m137.7 118.1q0.8 0.1 1.6-0.2 0.8-0.3 1.3-0.9-2.3-2.1-4-4.8z"/>
	<path id="Layer" class="s6" d="m133.4 107.9q0.4-0.6 1.1-0.8 0.7-0.3 1.4-0.3h0.1q0.2 0 0.3-0.1 0.1-0.1 0.1-0.3 0 0 0-0.1 0-0.1-0.1-0.1 0-0.1-0.1-0.1-0.1-0.1-0.2-0.1-0.9-0.1-1.7 0.3-0.9 0.3-1.5 1 0 0 0 0.1-0.1 0-0.1 0.1 0 0.1 0.1 0.2 0 0 0 0.1 0.1 0 0.2 0.1 0 0 0.1 0 0.1 0.1 0.3 0z"/>
	<path id="Layer" class="s22" d="m128.4 146.2c-10.8-0.1-12.4-6-12.4-6 3.3-3.1 3.6-8.9 3-14.1 0.9 1.3 1.9 2.3 3.2 3.2 1.1 0.8 2.4 1.3 3.8 1.6 1.3 0.3 2.7 0.3 4.1 0q0 0 0.1 0 0 0.1 0 0.3c-0.8 4.1-0.3 8.5 4 9.9 0 0 6.1 5.2-5.8 5.1z"/>
	<path id="Layer" class="s22" d="m130.5 129.3q-0.2 0.7-0.3 1.5-0.1 0-0.1 0c-1.4 0.3-2.8 0.3-4.1 0.1-1.4-0.3-2.7-0.9-3.8-1.7-1.3-0.8-2.3-1.9-3.2-3.1-0.1-1.3-0.3-2.6-0.6-3.8l11.7 6.7z"/>
	<path id="Layer" class="s6" d="m112.7 141.1c0 0 1.8-5.3 4.4-6.9 2.6-1.6 13.9 0.4 15.7 1.1 1.8 0.8 3.5 4.9 3.5 4.9z"/>
	<path id="Layer" class="s23" d="m112.7 141.1c0 0 1.8-5.3 4.4-6.9 2.6-1.6 13.9 0.4 15.7 1.1 1.8 0.8 3.5 4.9 3.5 4.9z"/>
	<path id="Layer" class="s22" d="m138.5 120.6c-0.1 1.9-0.6 3.7-1.6 5.3-0.9 1.6-2.3 2.9-3.9 3.8h-0.1q-1.2 0.8-2.7 1.1 0 0-0.1 0c-1.4 0.3-2.8 0.3-4.1 0.1-1.4-0.3-2.7-0.9-3.8-1.7-1.2-0.8-2.3-1.9-3.2-3.1-2-3-2.8-6.9-4.2-12.4-0.5-1.7-0.5-3.6-0.1-5.4 0.5-1.8 1.4-3.4 2.6-4.8 1.3-1.3 2.9-2.3 4.6-2.9 1.8-0.5 3.6-0.6 5.4-0.3 8.2 1.7 11.5 13 11.2 20.3z"/>
	<path id="Layer" class="s11" d="m132.9 129.7q-1.3 0.8-2.7 1.1l0.4-4.8c0 0 1.7 3.7 2.3 3.7z"/>
	<path id="Layer" class="s6" d="m112.7 110.9c-1.1 2.2-3.5 4.7-4.6 6.9-0.7 1.1-1 2.4-0.9 3.7 0.1 0.6 0.4 1.2 1 1.7 0.5 0.4 1.2 0.6 1.9 0.5-1.1 1.5-0.3 4.1 1.4 5.2 0.8 0.5 1.9 0.7 2.9 0.5 1-0.1 1.9-0.6 2.6-1.3 1.1 1.2 1.9 2 3.6 2.1q1.2 0 2.4-0.5 1.1-0.5 2-1.4c0.7 0.8 1.7 1.4 2.8 1.6 1.1 0.3 2.2 0.2 3.2-0.3 1-0.4 1.8-1.2 2.2-2.2 0.5-0.9 0.6-2 0.4-3.1-0.6-1.8-0.9-3.7-0.9-5.6 0 0 2.4-3.5 1.4-5.6l-1-6.6c-1.9-1.4-4.1-2.1-6.4-2-2.4 0.1-4.6 0.6-6.8 1.5-2.9 1.2-5.9 2.2-7.2 4.9z"/>
	<path id="Layer" class="s22" d="m130.7 110.5c2.3 0.7 3.4 4.1 3.4 6.2 0.1 2.4-1.5 3.8-3.5 2.2-1.5-1.2-2.6-2.9-3.1-4.8-0.5-2.3 0.9-4.3 3.2-3.6z"/>
	<path id="Layer" fill-rule="evenodd" class="s9" d="m109.3 389.1c-1.1 0-2.1-0.2-2.4-0.7q-0.1-0.2-0.1-0.5 0-0.2 0.2-0.4 0.1-0.2 0.3-0.3 0.1-0.1 0.4-0.1c1.4-0.3 4.2 1.5 4.4 1.6q0 0 0 0.1 0 0 0 0.1 0 0 0 0.1-0.1 0-0.1 0-1.4 0.2-2.7 0.1zm-1.2-1.7q-0.2 0-0.4 0-0.1 0-0.2 0.1-0.1 0.1-0.2 0.2c-0.1 0.2-0.1 0.3 0 0.4 0.4 0.6 2.5 0.7 4.1 0.6-1-0.6-2.1-1.1-3.2-1.3z"/>
	<path id="Layer" fill-rule="evenodd" class="s9" d="m111.9 389h-0.1c-1-0.5-2.8-2.4-2.6-3.4 0-0.2 0.3-0.5 0.8-0.5q0.3 0 0.6 0.1 0.3 0.1 0.5 0.3c1.1 0.9 1 3.2 1 3.3q0 0 0 0.1 0 0-0.1 0.1 0 0-0.1 0zm-1.7-3.5h-0.2c-0.4 0-0.4 0.2-0.4 0.2-0.2 0.6 1.1 2.1 2.1 2.8 0-1-0.4-1.9-0.9-2.7q-0.1-0.1-0.3-0.2-0.2-0.1-0.4-0.1z"/>
	<path id="Layer" class="s22" d="m122.2 369.8l-8.4-0.4-1 19.5 8.4 0.4z"/>
	<path id="Layer" class="s6" d="m110.8 388.4c-6.1 3.2-7.9 3.3-14.7 4.4-1.4 0.3-0.8 3.8 2.6 4 5.8 0.3 6.4 0.1 11.4 0.4 4.2 0.2 9 0.6 12.4 0.9q0.1 0 0.3 0c0.3-0.1 0.6-0.2 0.8-0.5 0.2-0.3 0.3-0.6 0.3-1l-1-7.6q0-0.2-0.2-0.4-0.2-0.2-0.5-0.2l-9.2-0.5c-0.8 0-1.5 0.2-2.2 0.5z"/>
	<path id="Layer" class="s11" d="m122.3 369.8l-0.7 11.8-8.4-0.4 0.6-11.8z"/>
	<path id="Layer" class="s9" d="m134 200.1c0 0-0.7 56.1-2.6 82.6-1.8 24.7-7.3 96.6-7.3 96.6l-14.3-0.8c0 0-3-73.9-3.3-99-0.3-23.8-1.5-80.5-1.5-80.5z"/>
	<path id="Layer" class="s6" d="m134 200.1c0 0-0.7 56.1-2.6 82.6-1.8 24.7-7.3 96.6-7.3 96.6l-14.3-0.8c0 0-3-73.9-3.3-99-0.3-23.8-1.5-80.5-1.5-80.5z"/>
	<path id="Layer" class="s10" d="m134 200.1c0 0-0.7 56.1-2.6 82.6-1.8 24.7-7.3 96.6-7.3 96.6l-14.3-0.8c0 0-3-73.9-3.3-99-0.3-23.8-1.5-80.5-1.5-80.5z"/>
	<path id="Layer" class="s6" d="m126.6 374.4l-0.9 5.2-17.4-1c0 0-0.3-5.9-0.3-5.9z"/>
	<g id="Layer" style="opacity: .5">
		<path id="Layer" class="s9" d="m126.6 374.4l-0.9 5.2-17.4-1c0 0-0.3-5.9-0.3-5.9z"/>
	</g>
	<path id="Layer" fill-rule="evenodd" class="s9" d="m196.4 387.6c-0.1-1.1 0-2.2 0.4-2.6q0.2-0.2 0.5-0.2 0.2 0 0.4 0.1 0.2 0.1 0.3 0.2 0.2 0.2 0.2 0.4c0.6 1.3-0.8 4.5-0.9 4.6q0 0.1-0.1 0.1 0 0.1-0.1 0.1-0.1 0-0.1-0.1 0 0-0.1-0.1-0.3-1.2-0.5-2.5zm1.6-1.6q0-0.2 0-0.4-0.1-0.1-0.2-0.2 0-0.1-0.2-0.1c-0.2-0.1-0.3 0-0.4 0-0.5 0.5-0.3 2.6 0.1 4.1 0.4-1 0.7-2.2 0.7-3.4z"/>
	<path id="Layer" fill-rule="evenodd" class="s9" d="m196.9 390.1q0-0.1 0-0.1c0.4-1.1 2-3.3 3-3.3 0.2 0 0.5 0.1 0.6 0.7q0.1 0.3 0 0.6-0.1 0.3-0.2 0.5c-0.8 1.2-3.1 1.7-3.2 1.7q0 0-0.1 0 0 0-0.1 0 0-0.1 0-0.1zm3.2-2.5v-0.1c0-0.4-0.2-0.4-0.3-0.4-0.5 0-1.8 1.5-2.4 2.7 1-0.3 1.9-0.7 2.5-1.5q0.3-0.3 0.2-0.7z"/>
	<path id="Layer" class="s22" d="m190.7 371l-8.1 1.5 6.3 19.1 8.2-1.5z"/>
	<path id="Layer" class="s6" d="m198.9 388.8c2.5 2.4 3.8 3.6 10.5 4.9 1.4 0.3 0.4 3.9-3 3.9-5.8 0.2-2.6-0.2-7.6-0.1-4.2 0.1-9 0.4-12.3 0.6q-0.2 0-0.4 0-0.2-0.1-0.4-0.2-0.2-0.2-0.4-0.4-0.1-0.2-0.1-0.4-0.1-0.3 0-0.5l1.7-7.6q0-0.2 0.2-0.4 0.3-0.2 0.5-0.2l9.3-0.2q0.5-0.1 1.1 0.1 0.5 0.1 0.9 0.5z"/>
	<path id="Layer" class="s11" d="m190.7 371l3.3 9.8-8.2 1.5-3.2-9.8z"/>
	<path id="Layer" class="s8" d="m133.7 237c-1.1 19-2 41.8-2.8 54.5 0 0.6-0.1 1.2-0.1 1.9-3.5-20.1-8.8-52.8 0.9-56.2q1-0.3 2-0.2z"/>
	<path id="Layer" class="s6" d="m108.9 202.7c0 0 1.9 19.5 4.9 28.1 4.4 12.2 9.7 16.1 13.9 23.4 7.3 12.8 11.3 23.8 16.2 34 15.4 31.9 36.8 88.1 36.8 88.1l15.4-1.1-54.6-173.5z"/>
	<path id="Layer" class="s10" d="m108.9 202.7c0 0 1.9 19.5 4.9 28.1 4.4 12.2 9.7 16.1 13.9 23.4 7.3 12.8 11.3 23.8 16.2 34 15.4 31.9 36.8 88.1 36.8 88.1l15.4-1.1-54.6-173.5z"/>
	<path id="Layer" class="s6" d="m198.8 371.9l0.2 5.3-17.9 2.7c0 0-1.6-5.8-1.6-5.8z"/>
	<g id="Layer" style="opacity: .5">
		<path id="Layer" class="s9" d="m198.8 371.9l0.2 5.3-17.9 2.7c0 0-1.6-5.8-1.6-5.8z"/>
	</g>
	<path id="Layer" class="s22" d="m113.5 188.1c-0.7 1.9-2.5 5.6-5.2 7.8q-0.4 0.4-1 0.5-0.6 0.1-1.2-0.1c0 0-4.7-2.9-5.1-4.3q0-0.1 0-0.2l1.2-5.5 0.1-0.1c0.9-0.3 5.5-1.7 7.5-0.9l3.1 1.3q0.2 0 0.4 0.2 0.2 0.2 0.3 0.4 0.1 0.2 0.1 0.5 0 0.2-0.2 0.4z"/>
	<path id="Layer" class="s9" d="m105.8 154.3l-16.1 15.7 12.7 16.3h-0.2l-1.1 5.5q-0.1 0.2 0 0.3c-0.8 0.3-1.7 0.3-2.5 0.2 0 0-24.1-19.5-22.7-22.9q1.9-4 4.4-7.7l0.2-0.2c2.1-3.5 15.4-23.5 25.5-23.4 7.9 0.1 7.5 9.2-0.2 16.2z"/>
	<path id="Layer" class="s24" d="m105.8 154.3l-16.1 15.7 12.7 16.3h-0.2l-1.1 5.5q-0.1 0.2 0 0.3c-0.8 0.3-1.7 0.3-2.5 0.2 0 0-24.3-16.7-22.7-22.9 0.5-1.7 2.6-4.8 4.4-7.7l0.2-0.2c2.1-3.5 15.4-23.5 25.5-23.4 7.9 0.1 7.5 9.2-0.2 16.2z"/>
	<path id="Layer" class="s6" d="m101.1 192q-0.1-0.1 0-0.2l1.1-5.5 0.2-0.1 0.4 0.2c0 0 1.3 4.5-1.7 5.6z"/>
	<path id="Layer" class="s9" d="m180.6 284.8c-24.8 6-22.3-14.3-56.3-1.1-10 3.9-15.9-6.2-21.3-7.8-10.8-3.3-22.8-2.3-32.3 3.8 6.9-27.8 18-54.3 32.9-78.7 0.7-5.8 3-17.9-3.2-51.9-1.1-6.2 5.3-11.6 11.7-11.9l4-0.3q9-0.4 18.1 0.2c2 0.2 3.9 0.5 5.7 0.8 2.2 0.4 4.3 1.5 5.9 3.2 1.7 1.6 2.7 3.7 3.2 5.9 1 6.2 1.4 12.4 1.1 18.6-0.3 6.4-1 14.8-2.6 26.5q-0.6 4.4-1.3 9.4c0 0 16.2 39 34.4 83.3z"/>
	<path id="Layer" class="s24" d="m180.6 284.8c-24.8 6-22.3-14.3-56.3-1.1-10 3.9-15.9-6.2-21.3-7.8-10.8-3.3-22.8-2.3-32.3 3.8 6.9-27.8 18-54.3 32.9-78.7 0.7-5.8 3-17.9-3.2-51.9-1.1-6.2 5.3-11.6 11.7-11.9l4-0.3q9-0.4 18.1 0.2c2 0.2 3.9 0.5 5.7 0.8 2.2 0.4 4.3 1.5 5.9 3.2 1.7 1.6 2.7 3.7 3.2 5.9 1 6.2 1.4 12.4 1.1 18.6-0.3 6.4-1 14.8-2.6 26.5q-0.6 4.4-1.3 9.4c0 0 16.2 39 34.4 83.3z"/>
	<path id="Layer" class="s11" d="m150.1 165.6c-0.3 6.4-1 14.9-2.6 26.5-0.9-10.2-2.6-20.2-8.7-40.7l11 3.5c0.3 3.4 0.3 7.1 0.3 10.7z"/>
	<path id="Layer" class="s22" d="m144.6 121.1q-0.2-0.5-0.7-0.8-0.4-0.3-1-0.3c-2.3-0.1-3.5-0.3-5.7 0.5q-0.2 0.1-0.4 0.3-0.1 0.2-0.1 0.4c0 1.3 0 2.6-0.1 3.9q-0.1 0.4 0.1 0.8 0.2 0.4 0.6 0.6c1.2 0.9 6.8 3.7 6.8 3.7 1.1 0.2 3.5-2 4.5-2.5z"/>
	<path id="Layer" class="s9" d="m142.6 130.4l6.3-3.4c0 0 16.4 20.9 17.4 22.6 7.7 13.5-2.9 13.2-5.9 11.3-6.9-4.3-6.2-10.5-9-15.9z"/>
	<g id="Layer" style="opacity: .5">
		<path id="Layer" class="s13" d="m142.6 130.4l6.3-3.4c0 0 16.4 20.9 17.4 22.6 7.7 13.5-2.9 13.2-5.9 11.3-6.9-4.3-6.2-10.5-9-15.9z"/>
	</g>
	<path id="Layer" class="s9" d="m146.6 140.8q10.7 8 22.4 14.4l0.4 1.7c0.2 0.7 0.1 1.6-0.1 2.3-0.2 0.8-0.6 1.5-1.2 2.1-0.6 0.5-1.3 0.9-2.1 1.1-0.8 0.2-1.6 0.1-2.4-0.1l-1.9-0.6c0 0-25.1-6.9-25.6-14.1-3.4-4.1 2.8-13.8 10.5-6.8z"/>
	<path id="Layer" class="s24" d="m146.6 140.8q10.7 8 22.4 14.4l0.4 1.7c0.2 0.7 0.1 1.6-0.1 2.3-0.2 0.8-0.6 1.5-1.2 2.1-0.6 0.5-1.3 0.9-2.1 1.1-0.8 0.2-1.6 0.1-2.4-0.1l-1.9-0.6c0 0-25.1-6.9-25.6-14.1-3.4-4.1 2.8-13.8 10.5-6.8z"/>
	<path id="Layer" class="s6" d="m136.5 104.7l-3.5 0.9-22.7 5.4q-0.1-0.3-0.2-0.5-0.3-1.6-0.5-3.1-0.1-1.1-0.2-2.2c-0.1-7.7 3.7-14.3 9.6-15.7 5.9-1.4 12.2 2.7 15.6 9.7q0.4 0.9 0.8 1.9 0.6 1.5 1 3.1c0 0.2 0.1 0.4 0.1 0.5z"/>
	<path id="Layer" class="s24" d="m136.4 104.7l-3.5 0.9-22.7 5.4c0-0.1-0.1-0.3-0.2-0.5q-0.3-1.5-0.5-3.1l25.8-6.2q0.6 1.5 1 3c0.1 0.2 0.1 0.4 0.1 0.5z"/>
	<path id="Layer" class="s6" d="m144.9 104.9q0.1 0.5 0 1 0 0.5-0.3 0.9-0.3 0.5-0.7 0.8-0.4 0.3-0.9 0.4l-35.9 8.5c-0.6 0.2-1.3 0.1-1.9-0.3-0.6-0.3-1-0.9-1.1-1.5q-0.1-0.5-0.1-1.1 0.1-0.5 0.4-0.9c0.3-0.6 0.9-1 1.6-1.1l35.9-8.6q0.4-0.1 0.9 0 0.5 0.1 1 0.3 0.4 0.3 0.7 0.7 0.3 0.4 0.4 0.9z"/>
</svg>