<svg id="Layer_1" data-name="Layer 1" xmlns="http://www.w3.org/2000/svg" xmlns:xlink="http://www.w3.org/1999/xlink" viewBox="0 0 50 50"><defs><style>.cls-1{fill:url(#linear-gradient);}.cls-2{fill:url(#linear-gradient-2);}.cls-3{fill:url(#linear-gradient-3);}.cls-4{fill:url(#linear-gradient-4);}.cls-5{fill:url(#linear-gradient-5);}.cls-6{fill:url(#linear-gradient-6);}.cls-7{fill:url(#linear-gradient-7);}.cls-8{fill:url(#linear-gradient-8);}</style><linearGradient id="linear-gradient" x1="5.46" y1="41.17" x2="45.58" y2="41.17" gradientUnits="userSpaceOnUse"><stop offset="0" stop-color="#1b4071"/><stop offset="0.26" stop-color="#1d4374"/></linearGradient><linearGradient id="linear-gradient-2" x1="21.7" y1="19.48" x2="29.35" y2="19.48" xlink:href="#linear-gradient"/><linearGradient id="linear-gradient-3" x1="35.41" y1="19.18" x2="37.19" y2="19.18" xlink:href="#linear-gradient"/><linearGradient id="linear-gradient-4" x1="9.45" y1="29.01" x2="41.6" y2="29.01" xlink:href="#linear-gradient"/><linearGradient id="linear-gradient-5" x1="13.85" y1="19.18" x2="15.63" y2="19.18" xlink:href="#linear-gradient"/><linearGradient id="linear-gradient-6" x1="16.39" y1="19.48" x2="34.65" y2="19.48" xlink:href="#linear-gradient"/><linearGradient id="linear-gradient-7" x1="12.1" y1="25.74" x2="28.83" y2="25.74" xlink:href="#linear-gradient"/><linearGradient id="linear-gradient-8" x1="22.17" y1="13.18" x2="38.95" y2="13.18" xlink:href="#linear-gradient"/></defs><path class="cls-1" d="M5.46,40.2v1.41l5.38.53H40.2l5.38-.53V40.2Zm25.06,1.35H20.73a.2.2,0,0,1-.2-.2h0V41a.2.2,0,0,1,.2-.2h9.79Z"/><path class="cls-2" d="M25.52,23.3a3.83,3.83,0,1,0-3.82-3.82A3.83,3.83,0,0,0,25.52,23.3Zm0-6.64a2.82,2.82,0,1,1-2.81,2.82h0A2.81,2.81,0,0,1,25.52,16.66Z"/><path class="cls-3" d="M36.32,18.3h0a.87.87,0,0,0-.87.87h0v0a.87.87,0,0,0,.87.87h0a.87.87,0,0,0,.87-.87v-.05A.86.86,0,0,0,36.32,18.3Z"/><path class="cls-4" d="M41.6,19.27a1,1,0,0,0-1-1h-.15a.78.78,0,0,0-.79.78h0a1.27,1.27,0,0,0,0,.2.78.78,0,0,0,.78.78v18.4H10.57V20.07a.78.78,0,0,0,.78-.78v-.2a.78.78,0,0,0-.77-.79h-.17a1,1,0,0,0-1,1V39.73H41.6Z"/><path class="cls-5" d="M14.72,20.07h0a.87.87,0,0,0,.87-.87v0a.87.87,0,0,0-.87-.87h0a.87.87,0,0,0-.87.85v0a.87.87,0,0,0,.86.89Z"/><path class="cls-6" d="M17.35,21.55l1.11.11a.24.24,0,0,1,.2.15l.36.86a.25.25,0,0,1,0,.25l-.71.87a1.05,1.05,0,0,0,.05,1.4l1.48,1.48a1,1,0,0,0,.72.3,1.14,1.14,0,0,0,.69-.25l.87-.71a.27.27,0,0,1,.15-.05l.1,0,.85.35a.25.25,0,0,1,.15.21l.11,1.12a1.06,1.06,0,0,0,1,.95h2.1a1.06,1.06,0,0,0,1-1l.11-1.11a.24.24,0,0,1,.15-.2l.86-.36A.23.23,0,0,1,29,26l.87.71a1.15,1.15,0,0,0,.69.24,1,1,0,0,0,.72-.3l1.48-1.47a1.08,1.08,0,0,0,.05-1.42l-.71-.86a.25.25,0,0,1,0-.25l.36-.86a.26.26,0,0,1,.2-.15l1.12-.11a1,1,0,0,0,.95-1V18.43a1,1,0,0,0-.95-1l-1.12-.11a.26.26,0,0,1-.2-.15L32,16.28a.25.25,0,0,1,0-.25l.72-.87a1.05,1.05,0,0,0-.06-1.4l-1.48-1.48a1,1,0,0,0-.72-.3,1.08,1.08,0,0,0-.69.25l-.87.7a.2.2,0,0,1-.15.06l-.09,0-.86-.36a.23.23,0,0,1-.15-.2l-.11-1.12a1.06,1.06,0,0,0-1-.95h-2.1a1.06,1.06,0,0,0-1,1l-.11,1.11a.24.24,0,0,1-.15.21l-.86.35a.23.23,0,0,1-.24,0l-.87-.72a1.15,1.15,0,0,0-.68-.24,1,1,0,0,0-.73.3l-1.48,1.48a1.06,1.06,0,0,0-.05,1.41L19,16a.25.25,0,0,1,0,.25l-.36.86a.24.24,0,0,1-.2.15l-1.12.11a1.06,1.06,0,0,0-.95,1v2.09A1,1,0,0,0,17.35,21.55Zm.06-3.12s0,0,0,0l1.11-.1.17,0,.08,0a1.23,1.23,0,0,0,.41-.21l.06-.06.09-.08a1.28,1.28,0,0,0,.23-.37l.18-.42.17-.43,0-.08a1.28,1.28,0,0,0,.07-.34v-.08a.19.19,0,0,0,0-.08.34.34,0,0,0,0-.1,1.16,1.16,0,0,0,0-.18l0-.09a1.38,1.38,0,0,0-.2-.33l-.64-.78-.06-.08h0v0h0l.74-.74.73-.74h.06l.86.71h0l.07,0h0l.06,0h0l.06,0h0l.07,0h0l.07,0h0l.07,0H22L22,14h.43l.07,0h0l.06,0h0l.07,0,.86-.36.15-.07a.71.71,0,0,0,.14-.1,1.54,1.54,0,0,0,.19-.17l.09-.14a1.27,1.27,0,0,0,.2-.55l.11-1.11,0,0h2.11a0,0,0,0,1,0,0l.11,1.11a1.26,1.26,0,0,0,.2.56.64.64,0,0,0,.1.13.77.77,0,0,0,.18.18.67.67,0,0,0,.14.09l.15.08.86.36.07,0h0l.06,0h0l.07,0h.51l.07,0h0l.07,0h0l.06,0h0l.07,0h0l.06,0h0l.06,0h0l.06,0h0l.3-.25.55-.45h.06L32,14.47h0l0,0-.71.87a1,1,0,0,0-.11.17,1.09,1.09,0,0,0-.08.15l0,.1a.65.65,0,0,0,0,.13c0,.05,0,.1,0,.14v.17a1.2,1.2,0,0,0,.06.33l0,.08.08.2.28.66a1.23,1.23,0,0,0,1,.77l1.1.11h.05v2.09a.05.05,0,0,1-.05,0l-1.11.11a1.25,1.25,0,0,0-.95.62c0,.05-.05.1-.08.16l-.35.85A1.52,1.52,0,0,0,31,23a.85.85,0,0,0,0,.17s0,0,0,.06a.88.88,0,0,0,.09.2l0,0,.07.11,0,0,.7.86h0a.08.08,0,0,1,0,0h0L30.53,26h-.05l-.14-.1-.73-.6h0l-.06,0h0l-.06,0h0l-.06,0h0l-.06,0h0l-.06,0h0l-.07,0h0l-.06,0h-.6l-.06,0h0l-.08,0-.85.36a1.21,1.21,0,0,0-.74.86.55.55,0,0,0,0,.17l-.11,1.11s0,0,0,0h-2.1a.05.05,0,0,1,0-.05l-.11-1.11a1.26,1.26,0,0,0-.77-1L22.71,25a1,1,0,0,0-.3-.08h-.18L22,25H22l-.07,0-.12,0-.12,0-.06,0-.17.12-.47.38-.38.32h-.06l-1.47-1.48h0a0,0,0,0,1,0,0l.71-.87a1.22,1.22,0,0,0,.28-.78,1.24,1.24,0,0,0,0-.33.75.75,0,0,0-.05-.16l-.35-.86a1.37,1.37,0,0,0-.29-.42l-.06-.06-.21-.14-.07,0a1.13,1.13,0,0,0-.24-.08l-.17,0-1.1-.11h0l0,0h0V18.43Z"/><path class="cls-7" d="M25.52,32.88l.87,0,.73-.05-.52.52-.21.22a.47.47,0,0,0,0,.69h0a.49.49,0,0,0,.69,0h0l1.61-1.61a.49.49,0,0,0,0-.69l-1.61-1.61a.5.5,0,0,0-.7,0,.49.49,0,0,0,0,.69l.38.37.42.42-.59.06c-.36,0-.72,0-1.07,0A12.46,12.46,0,0,1,13.07,19.46a13.2,13.2,0,0,1,.13-1.78.5.5,0,0,0-.14-.42.49.49,0,0,0-.34-.15h0a.45.45,0,0,0-.16,0,.48.48,0,0,0-.32.39A13.43,13.43,0,0,0,23.61,32.74,13.64,13.64,0,0,0,25.52,32.88Z"/><path class="cls-8" d="M23.93,8.63a.49.49,0,0,0,.69-.69h0l-.41-.41-.42-.42.59-.05a10.87,10.87,0,0,1,1.14,0A12.46,12.46,0,0,1,38,19.45a11.75,11.75,0,0,1-.13,1.78.5.5,0,0,0,.14.42.48.48,0,0,0,.34.14.41.41,0,0,0,.16,0,.47.47,0,0,0,.33-.39A13.81,13.81,0,0,0,39,19.45,13.44,13.44,0,0,0,25.52,6l-.86,0-.74.05.52-.52.18-.18a.49.49,0,0,0-.69-.69L22.32,6.33a.47.47,0,0,0,0,.69h0Z"/></svg>