<svg id="Layer_1" data-name="Layer 1" xmlns="http://www.w3.org/2000/svg" xmlns:xlink="http://www.w3.org/1999/xlink" viewBox="0 0 50 50"><defs><style>.cls-1{fill:url(#linear-gradient);}.cls-2{fill:url(#linear-gradient-2);}.cls-3{fill:url(#linear-gradient-3);}.cls-4{fill:url(#linear-gradient-4);}</style><linearGradient id="linear-gradient" x1="12.89" y1="19.64" x2="38.16" y2="19.64" gradientUnits="userSpaceOnUse"><stop offset="0" stop-color="#1b4071"/><stop offset="0.26" stop-color="#1d4374"/></linearGradient><linearGradient id="linear-gradient-2" x1="19.9" y1="35.44" x2="30.93" y2="35.44" xlink:href="#linear-gradient"/><linearGradient id="linear-gradient-3" x1="19.9" y1="37.53" x2="30.93" y2="37.53" xlink:href="#linear-gradient"/><linearGradient id="linear-gradient-4" x1="20.65" y1="41.48" x2="30.39" y2="41.48" xlink:href="#linear-gradient"/></defs><path class="cls-1" d="M25.52,5.48A12.63,12.63,0,0,0,12.89,18.11a13.26,13.26,0,0,0,4.16,9.66,8.48,8.48,0,0,1,2.85,6v.08h3.52V28.76h4.21v5.05h3.52v-.08a8.48,8.48,0,0,1,2.85-6,13.26,13.26,0,0,0,4.16-9.66A12.63,12.63,0,0,0,25.52,5.48Zm1.41,22.81H24.12V27.05h2.81Zm0-1.71H24.12a11,11,0,0,0-2.92-6.22,22.79,22.79,0,0,0,4.12-6.75v5.33a1.23,1.23,0,1,0,.41,2.42,1.22,1.22,0,0,0,1-1.42,1.23,1.23,0,0,0-1-1V13.61a22.58,22.58,0,0,0,4.12,6.75A10.86,10.86,0,0,0,26.93,26.58Z"/><path class="cls-2" d="M30.54,34.82H20.29a.39.39,0,0,0-.39.39h0v.46a.4.4,0,0,0,.39.4H30.54a.39.39,0,0,0,.39-.4v-.46a.39.39,0,0,0-.39-.39Z"/><path class="cls-3" d="M30.54,36.91H20.29a.39.39,0,0,0-.39.39h0v.46a.39.39,0,0,0,.39.39H30.54a.38.38,0,0,0,.39-.39V37.3A.38.38,0,0,0,30.54,36.91Z"/><path class="cls-4" d="M20.65,39.44a4.49,4.49,0,0,0,4.48,4.48h.78a4.48,4.48,0,0,0,4.48-4.48h0V39H20.65Z"/></svg>