<svg id="Layer_1" data-name="Layer 1" xmlns="http://www.w3.org/2000/svg" viewBox="0 0 50 50"><defs><style>.cls-1{fill:#153561;}</style></defs><path class="cls-1" d="M24,35a2.61,2.61,0,1,1-2.61-2.6A2.6,2.6,0,0,1,24,35Z"/><path class="cls-1" d="M36.2,18.16a1.41,1.41,0,0,0-1.41,1.41,1.14,1.14,0,0,0,.05.37L32.4,22.78a1.34,1.34,0,0,0-.4-.06,1.62,1.62,0,0,0-.44.07L29.86,21a1.27,1.27,0,0,0,0-.34,1.41,1.41,0,0,0-2.82,0,1.27,1.27,0,0,0,.05.34l-1.7,2a1.25,1.25,0,0,0-.43-.07,1.41,1.41,0,1,0,1.41,1.41,1.34,1.34,0,0,0-.05-.35l1.7-2a1.25,1.25,0,0,0,.43.07,1.27,1.27,0,0,0,.44-.07l1.71,1.79a1.27,1.27,0,0,0-.05.34,1.41,1.41,0,1,0,2.82,0,1.58,1.58,0,0,0,0-.38l2.44-2.83a1.29,1.29,0,0,0,.4.06,1.41,1.41,0,0,0,0-2.82Z"/><path class="cls-1" d="M11.6,21.08a4.22,4.22,0,1,1,4.22-4.21A4.22,4.22,0,0,1,11.6,21.08Z"/><path class="cls-1" d="M38.11,12.92H21.31a3.48,3.48,0,0,0-3.47,3.48v4.28l2.6-.27v-4a.87.87,0,0,1,.87-.87h16.8a.87.87,0,0,1,.87.87V27.23a.87.87,0,0,1-.87.87H21.31a.87.87,0,0,1-.87-.87V24l-2.6.6v2.66a3.48,3.48,0,0,0,3.47,3.47h16.8a3.48,3.48,0,0,0,3.48-3.47V16.4A3.48,3.48,0,0,0,38.11,12.92Z"/><path class="cls-1" d="M14,21.94a18,18,0,0,0-2.38-.46h0c-4.28.59-4.73,1.69-4.73,1.69a25.23,25.23,0,0,0,.37,8.34,4.85,4.85,0,0,0,1,1.55C9,40,9.67,40.88,9.67,40.88h3.85S14.19,40,15,33.06c0,0,.51-3.79.65-8.36a2.29,2.29,0,0,1,1.47-.86h0l.72-.16V21.55Z"/><path class="cls-1" d="M23.56,22.33A2.33,2.33,0,0,0,25,20.82l-4.58.47v1.79C21.89,22.75,23.16,22.45,23.56,22.33Z"/><path class="cls-1" d="M17.84,23.68l2.6-.6V21.29l-2.6.26Z"/><path class="cls-1" d="M24.74,40.88c0-.52,0-1.08-.1-1.69,0,0-.31-.76-3.26-1.17h0c-2.94.41-3.25,1.17-3.25,1.17-.06.61-.09,1.17-.1,1.69Z"/><path class="cls-1" d="M32.07,35a2.6,2.6,0,1,1-2.6-2.6A2.59,2.59,0,0,1,32.07,35Z"/><path class="cls-1" d="M32.83,40.88c0-.52,0-1.08-.11-1.69,0,0-.3-.76-3.25-1.17h0c-2.95.41-3.25,1.17-3.25,1.17-.06.61-.09,1.17-.11,1.69Z"/><path class="cls-1" d="M40.16,35a2.61,2.61,0,1,1-2.6-2.6A2.6,2.6,0,0,1,40.16,35Z"/><path class="cls-1" d="M40.91,40.88c0-.52,0-1.08-.1-1.69,0,0-.31-.76-3.25-1.17h0c-2.94.41-3.25,1.17-3.25,1.17-.06.61-.09,1.17-.1,1.69Z"/></svg>