<svg width="630" height="611" viewBox="0 0 630 611" fill="none" xmlns="http://www.w3.org/2000/svg">
<path d="M334.297 173.702C332.796 172.178 331.283 170.666 329.771 169.142L327.176 166.559C339.056 154.327 345.392 139.754 345.392 122.697C345.392 105.64 339.078 91.0673 327.132 78.7356C327.982 77.9297 328.855 77.1127 329.705 76.2737C331.221 74.8017 332.726 73.3039 334.22 71.7804C334.252 71.7403 334.278 71.6957 334.297 71.6479H334.408C334.494 71.7632 334.586 71.8738 334.684 71.9791C336.384 73.9001 338.15 75.7659 339.784 77.742C343.12 81.8367 345.969 86.3047 348.274 91.0563C351.056 96.6422 353.052 102.587 354.202 108.72C354.743 111.635 355.019 114.594 355.373 117.552C355.505 118.557 355.527 125.071 355.505 125.28C355.362 127.29 355.273 129.299 355.052 131.297C354.432 136.833 353.134 142.273 351.188 147.493C349.794 151.287 348.076 154.955 346.055 158.455C343.948 162.162 341.497 165.662 338.735 168.91C337.333 170.555 335.854 172.123 334.408 173.724L334.297 173.702Z" fill="#EBEBEB"/>
<path d="M312.869 93.1759L320.012 85.9778C328.022 93.8395 333.198 104.137 334.728 115.256C337.035 132.291 331.868 146.908 320.133 159.305C317.693 156.866 315.331 154.481 312.935 152.074C316.82 148.224 319.896 143.636 321.982 138.579C324.067 133.523 325.12 128.1 325.079 122.631C325.079 111.182 320.806 101.39 312.869 93.1759Z" fill="#EBEBEB"/>
<path d="M305.682 144.909L298.528 137.744C300.515 135.767 302.092 133.416 303.168 130.827C304.244 128.238 304.797 125.462 304.797 122.658C304.797 119.855 304.244 117.079 303.168 114.49C302.092 111.901 300.515 109.55 298.528 107.572L305.682 100.418C308.626 103.326 310.965 106.79 312.56 110.609C314.156 114.428 314.978 118.525 314.978 122.664C314.978 126.803 314.156 130.9 312.56 134.719C310.965 138.537 308.626 142.001 305.682 144.909Z" fill="#EBEBEB"/>
<path d="M508.94 401.865H538.174V389.512H508.94V401.865Z" fill="#EBEBEB"/>
<path d="M525.246 417.443H554.479V405.089H525.246V417.443Z" fill="#EBEBEB"/>
<path d="M492.623 417.443H521.856V405.089H492.623V417.443Z" fill="#EBEBEB"/>
<path d="M115.827 417.443H145.061V405.089H115.827V417.443Z" fill="#EBEBEB"/>
<path d="M115.827 84.0791H145.061V71.7253H115.827V84.0791Z" fill="#EBEBEB"/>
<path d="M99.521 99.6565H128.755V87.3027H99.521V99.6565Z" fill="#EBEBEB"/>
<path d="M525.246 84.0901H554.479V71.7363H525.246V84.0901Z" fill="#EBEBEB"/>
<path d="M473.92 218.734H444.687V231.088H473.92V218.734Z" fill="#EBEBEB"/>
<path d="M457.614 203.156H428.38V215.51H457.614V203.156Z" fill="#EBEBEB"/>
<path d="M554.424 504.725C554.424 517.255 455.859 527.423 334.264 527.423C212.67 527.423 114.149 517.255 114.149 504.725C114.149 492.195 212.714 482.027 334.309 482.027C455.903 482.027 554.424 492.195 554.424 504.725Z" fill="#EBEBEB"/>
<path d="M94.5527 479.079L152.667 478.814L210.782 478.715L327 478.527L443.218 478.715L501.333 478.814L559.447 479.079L501.333 479.355L443.218 479.443L327 479.631L210.782 479.443L152.667 479.355L94.5527 479.079Z" fill="#263238"/>
<path d="M283.955 83.8362H123.941V330.503H283.955V83.8362Z" fill="#37474F"/>
<path d="M271.8 83.8362L248.925 330.503H158.96L136.085 83.8362H271.8Z" fill="#455A64"/>
<path d="M216.744 304.018H191.164V313.579H216.744V304.018Z" fill="#A6A6A6"/>
<path d="M174.107 304.018H148.527V313.579H174.107V304.018Z" fill="#1B4071"/>
<path d="M259.369 304.018H233.79V313.579H259.369V304.018Z" fill="#A6A6A6"/>
<path d="M179.163 110.884H175.862V140.792H179.163V110.884Z" fill="#37474F"/>
<path d="M185.777 110.884H182.476V140.792H185.777V110.884Z" fill="#37474F"/>
<path d="M192.379 110.884H189.078V140.792H192.379V110.884Z" fill="#37474F"/>
<path d="M198.991 110.884H195.69V140.792H198.991V110.884Z" fill="#37474F"/>
<path d="M205.593 110.884H202.292V140.792H205.593V110.884Z" fill="#37474F"/>
<path d="M212.206 110.884H208.905V140.792H212.206V110.884Z" fill="#37474F"/>
<path d="M218.808 110.884H215.507V140.792H218.808V110.884Z" fill="#37474F"/>
<path d="M225.421 110.884H222.12V140.792H225.421V110.884Z" fill="#37474F"/>
<path d="M232.034 110.884H228.733V140.792H232.034V110.884Z" fill="#37474F"/>
<path d="M208.199 179.862V504.725H422.375V179.862H208.199ZM340.59 203.134H289.994V194.06H340.59V203.134Z" fill="#EBEBEB"/>
<path d="M422.386 265.113V504.725H208.199V387.646L422.386 265.113Z" fill="#1B4071"/>
<path opacity="0.1" d="M422.386 265.113V504.725H208.199V387.646L422.386 265.113Z" fill="black"/>
<path d="M422.386 225.877V249.756L208.199 372.146V371.362L422.386 225.877Z" fill="#1B4071"/>
<path d="M389.906 225.115H240.689V403.599H389.906V225.115Z" fill="white"/>
<path d="M301.608 194.059H309.855C309.855 194.059 310.308 198.785 314.05 199.491C317.793 200.198 323.501 197.217 328.402 187.678C333.304 178.14 330.533 169.495 329.418 169.01C328.303 168.524 319.118 170.555 313.002 179.862H303.331C305.644 175.463 308.746 171.526 312.483 168.248C319.107 162.231 325.068 160.111 327.685 159.869L333.834 153.013L344.399 161.845L349.434 162.562L343.108 172.41C343.095 175.241 342.795 178.063 342.214 180.833C340.488 186.116 337.915 191.082 334.596 195.539C331.516 199.414 326.349 205.298 317.164 205.121C307.978 204.945 303.397 199.491 301.608 194.059Z" fill="#455A64"/>
<path d="M333.834 153.013L344.399 161.834L349.434 162.551L338.769 153.543L333.834 153.013Z" fill="#263238"/>
<path d="M329.418 169.01C328.314 168.513 319.118 170.555 313.002 179.862H310.01C318.599 167.928 328.171 167.475 329.418 169.01Z" fill="#37474F"/>
<path d="M314.05 199.491C314.05 199.491 309.369 200.419 307.426 194.06H309.899C309.899 194.06 310.33 198.553 313.829 199.425L314.05 199.491Z" fill="#37474F"/>
<path d="M349.433 162.551L343.096 172.399C343.084 175.226 342.788 178.044 342.213 180.812C341.33 184.389 337.665 191.642 334.596 195.528C331.526 199.414 326.349 205.276 317.163 205.111C315.79 205.095 314.421 204.94 313.079 204.647H313.244C323.843 206.182 330.334 199.127 335.501 189.942C340.325 181.375 338.923 170.732 338.923 170.732L344.443 161.812L349.433 162.551Z" fill="#37474F"/>
<path d="M349.971 160.166L337.626 150.343L335.736 152.718L348.08 162.541L349.971 160.166Z" fill="#455A64"/>
<path d="M379.827 143.022C377.243 141.068 352.911 125.457 346.585 121.549C340.259 117.641 335.347 114.505 332.322 118.06C329.297 121.615 327.994 129.917 329.595 133.439C331.196 136.961 338.118 148.376 338.272 149.48C338.31 149.802 338.273 150.128 338.166 150.434C338.059 150.74 337.884 151.018 337.654 151.246L348.904 160.465C349.342 159.796 349.997 159.297 350.758 159.052C351.862 158.831 370.476 159.836 372.342 159.747C374.668 159.813 376.975 159.303 379.057 158.263C381.139 157.223 382.931 155.685 384.276 153.786C388.383 147.835 382.41 144.987 379.827 143.022ZM370.52 153.896C365 153.819 355.616 152.549 348.539 147.857C344.808 145.373 335.038 136.331 334.187 129.785C334.07 127.528 334.648 125.289 335.843 123.37C336.87 121.538 342.743 125.777 347.513 128.89C352.282 132.004 373.137 145.958 374.748 147.073C376.36 148.188 378.944 149.635 378.8 150.518C378.657 151.401 375.996 153.951 370.52 153.896Z" fill="#455A64"/>
<path d="M357.045 149.453L345.371 141.787L343.044 145.331L354.718 152.996L357.045 149.453Z" fill="#455A64"/>
<path d="M384.276 153.719C382.931 155.62 381.139 157.161 379.057 158.204C376.976 159.248 374.669 159.763 372.342 159.703C370.476 159.78 351.829 158.776 350.758 159.008C349.995 159.243 349.338 159.739 348.904 160.41L344.962 157.208C345.183 157.208 346.574 155.464 347.888 155.375C349.202 155.287 369.261 158.356 374.174 158.356C379.087 158.356 383.139 153.94 384.331 150.893C385.678 147.438 380.136 143.375 379.849 143.077C382.432 144.998 388.383 147.846 384.276 153.719Z" fill="#37474F"/>
<path d="M271.955 424.089H267.936L267.119 426.242C267.051 426.414 266.932 426.562 266.779 426.667C266.625 426.771 266.444 426.827 266.258 426.827C266.153 426.826 266.048 426.807 265.949 426.772C265.719 426.685 265.533 426.511 265.43 426.288C265.326 426.065 265.315 425.811 265.397 425.579L269.062 415.831C269.134 415.657 269.256 415.509 269.412 415.404C269.568 415.299 269.752 415.244 269.94 415.244C270.128 415.244 270.312 415.299 270.468 415.404C270.624 415.509 270.746 415.657 270.818 415.831L274.472 425.579C274.555 425.809 274.545 426.063 274.444 426.285C274.343 426.508 274.159 426.683 273.931 426.772C273.828 426.809 273.72 426.827 273.611 426.827C273.428 426.827 273.249 426.771 273.099 426.666C272.949 426.561 272.835 426.413 272.772 426.242L271.955 424.089ZM271.281 422.267L269.935 418.712L268.599 422.267H271.281Z" fill="#263238"/>
<path d="M278.568 425.911C278.565 426.149 278.47 426.377 278.304 426.548C278.137 426.718 277.912 426.818 277.673 426.827C277.43 426.827 277.197 426.73 277.025 426.558C276.854 426.387 276.757 426.154 276.757 425.911V416.273C276.754 416.126 276.785 415.981 276.849 415.848C276.912 415.716 277.005 415.601 277.121 415.511C277.316 415.374 277.556 415.319 277.791 415.356C278.026 415.393 278.237 415.52 278.38 415.71L283.734 423.117V416.295C283.734 416.058 283.829 415.83 283.996 415.662C284.164 415.495 284.391 415.4 284.629 415.4C284.867 415.4 285.095 415.494 285.265 415.662C285.434 415.829 285.531 416.057 285.534 416.295V425.911C285.534 426.152 285.439 426.383 285.269 426.555C285.1 426.726 284.87 426.824 284.629 426.827C284.497 426.825 284.368 426.794 284.25 426.737C284.132 426.679 284.027 426.597 283.944 426.496C283.912 426.468 283.885 426.434 283.867 426.396L278.568 419.044V425.911Z" fill="#263238"/>
<path d="M290.789 425.911C290.786 426.149 290.692 426.377 290.525 426.548C290.359 426.718 290.133 426.818 289.895 426.827C289.652 426.827 289.418 426.73 289.247 426.558C289.075 426.387 288.978 426.154 288.978 425.911V416.273C288.975 416.126 289.007 415.981 289.07 415.848C289.133 415.716 289.227 415.601 289.343 415.511C289.537 415.374 289.777 415.319 290.012 415.356C290.247 415.393 290.458 415.52 290.601 415.71L295.956 423.117V416.295C295.956 416.058 296.05 415.83 296.217 415.662C296.385 415.495 296.613 415.4 296.85 415.4C297.088 415.4 297.317 415.494 297.486 415.662C297.655 415.829 297.752 416.057 297.755 416.295V425.911C297.755 426.152 297.66 426.383 297.491 426.555C297.321 426.726 297.091 426.824 296.85 426.827C296.718 426.825 296.589 426.794 296.471 426.737C296.353 426.679 296.249 426.597 296.165 426.496C296.133 426.468 296.107 426.434 296.088 426.396L290.789 419.044V425.911Z" fill="#263238"/>
<path d="M300.659 425.911V416.14C300.657 416.021 300.68 415.903 300.725 415.792C300.77 415.682 300.836 415.581 300.921 415.497C301.005 415.412 301.105 415.346 301.216 415.301C301.326 415.256 301.445 415.233 301.564 415.235H306.985C307.224 415.238 307.452 415.334 307.622 415.503C307.791 415.672 307.887 415.901 307.89 416.14C307.89 416.382 307.795 416.615 307.626 416.788C307.457 416.962 307.227 417.062 306.985 417.068H302.491V420.104H306.355C306.594 420.109 306.821 420.206 306.989 420.375C307.158 420.543 307.255 420.771 307.261 421.009C307.262 421.129 307.24 421.249 307.195 421.36C307.15 421.472 307.084 421.574 307 421.66C306.916 421.746 306.816 421.815 306.705 421.862C306.595 421.91 306.476 421.935 306.355 421.936H302.491V424.983H306.985C307.212 425.008 307.422 425.116 307.574 425.286C307.727 425.456 307.811 425.677 307.811 425.905C307.811 426.134 307.727 426.354 307.574 426.524C307.422 426.694 307.212 426.802 306.985 426.827H301.608C301.485 426.831 301.362 426.811 301.247 426.767C301.132 426.723 301.027 426.656 300.939 426.571C300.85 426.485 300.78 426.382 300.732 426.269C300.683 426.156 300.659 426.034 300.659 425.911Z" fill="#263238"/>
<path d="M315.077 423.945C315.223 423.77 315.432 423.66 315.66 423.637C315.887 423.614 316.113 423.681 316.291 423.824C317.18 424.578 318.287 425.027 319.449 425.105C320.188 425.117 320.913 424.901 321.524 424.486C321.731 424.36 321.903 424.186 322.026 423.978C322.149 423.77 322.22 423.535 322.231 423.294C322.236 423.107 322.186 422.923 322.087 422.764C321.96 422.564 321.791 422.395 321.591 422.267C320.886 421.873 320.115 421.611 319.316 421.495C318.583 421.364 317.867 421.145 317.186 420.843C316.556 420.571 316.02 420.122 315.64 419.551C315.392 419.142 315.262 418.672 315.265 418.194C315.281 417.715 315.409 417.247 315.639 416.827C315.869 416.407 316.195 416.047 316.59 415.776C317.428 415.193 318.428 414.888 319.449 414.904C320.759 414.966 322.019 415.429 323.059 416.228C323.152 416.29 323.231 416.369 323.293 416.461C323.355 416.553 323.398 416.656 323.419 416.765C323.441 416.874 323.44 416.986 323.418 417.095C323.396 417.204 323.353 417.307 323.291 417.399C323.232 417.494 323.155 417.577 323.064 417.642C322.973 417.706 322.869 417.752 322.76 417.776C322.651 417.8 322.538 417.801 322.428 417.78C322.318 417.759 322.213 417.715 322.121 417.653C321.364 417.02 320.431 416.635 319.449 416.549C318.787 416.539 318.139 416.736 317.594 417.112C317.415 417.223 317.264 417.375 317.155 417.555C317.046 417.735 316.98 417.939 316.965 418.149C316.954 418.313 316.997 418.476 317.086 418.613C317.202 418.786 317.352 418.932 317.528 419.044C318.166 419.418 318.871 419.665 319.603 419.772C320.39 419.913 321.157 420.146 321.889 420.468C322.559 420.763 323.133 421.242 323.545 421.848C323.802 422.27 323.939 422.755 323.942 423.25C323.927 423.761 323.789 424.261 323.542 424.709C323.294 425.156 322.943 425.538 322.518 425.822C321.62 426.451 320.545 426.78 319.449 426.761C317.892 426.69 316.402 426.108 315.21 425.105C315.05 424.961 314.949 424.763 314.925 424.55C314.9 424.337 314.954 424.122 315.077 423.945Z" fill="#263238"/>
<path d="M336.461 416.14V425.911C336.456 426.154 336.356 426.385 336.183 426.556C336.01 426.727 335.777 426.824 335.534 426.827C335.291 426.827 335.058 426.73 334.886 426.559C334.714 426.387 334.618 426.154 334.618 425.911V418.944L332.233 422.256C332.149 422.374 332.038 422.47 331.909 422.535C331.781 422.6 331.638 422.634 331.493 422.632C331.346 422.633 331.2 422.6 331.068 422.535C330.935 422.47 330.82 422.374 330.732 422.256L328.358 418.944V425.911C328.358 426.154 328.261 426.387 328.09 426.559C327.918 426.73 327.685 426.827 327.442 426.827C327.199 426.827 326.966 426.73 326.794 426.559C326.622 426.387 326.525 426.154 326.525 425.911V416.14C326.525 415.9 326.621 415.67 326.791 415.5C326.96 415.33 327.191 415.235 327.431 415.235C327.573 415.236 327.713 415.27 327.84 415.335C327.967 415.401 328.076 415.495 328.159 415.61L331.471 420.181L334.783 415.61C334.867 415.493 334.978 415.397 335.107 415.332C335.236 415.266 335.379 415.233 335.523 415.235C335.766 415.235 336 415.329 336.175 415.498C336.35 415.667 336.453 415.897 336.461 416.14Z" fill="#263238"/>
<path d="M340.579 416.14C340.578 416.02 340.6 415.901 340.646 415.789C340.692 415.678 340.759 415.577 340.845 415.493C340.93 415.408 341.032 415.342 341.144 415.298C341.256 415.253 341.375 415.232 341.496 415.235C341.616 415.233 341.735 415.256 341.847 415.3C341.959 415.345 342.061 415.411 342.147 415.495C342.233 415.58 342.302 415.68 342.349 415.79C342.396 415.901 342.421 416.02 342.423 416.14V425.911C342.42 426.155 342.321 426.388 342.147 426.559C341.974 426.731 341.74 426.827 341.496 426.827C341.375 426.828 341.255 426.806 341.143 426.76C341.031 426.715 340.93 426.647 340.844 426.562C340.759 426.476 340.691 426.375 340.646 426.263C340.6 426.151 340.578 426.031 340.579 425.911V416.14Z" fill="#263238"/>
<path d="M352.602 417.068H349.975V425.9C349.989 426.028 349.976 426.157 349.936 426.28C349.897 426.402 349.832 426.515 349.746 426.611C349.66 426.707 349.555 426.784 349.438 426.837C349.32 426.889 349.193 426.916 349.064 426.916C348.935 426.916 348.808 426.889 348.69 426.837C348.572 426.784 348.467 426.707 348.381 426.611C348.295 426.515 348.231 426.402 348.191 426.28C348.152 426.157 348.139 426.028 348.153 425.9V417.068H345.537C345.292 417.065 345.059 416.966 344.888 416.792C344.716 416.618 344.62 416.384 344.62 416.14C344.619 416.02 344.641 415.901 344.687 415.789C344.733 415.678 344.8 415.577 344.886 415.493C344.971 415.408 345.073 415.342 345.185 415.298C345.297 415.253 345.416 415.232 345.537 415.235H352.602C352.843 415.235 353.075 415.33 353.246 415.499C353.418 415.669 353.516 415.899 353.518 416.14C353.516 416.383 353.419 416.616 353.248 416.789C353.077 416.962 352.845 417.062 352.602 417.068Z" fill="#263238"/>
<path d="M356.245 425.911V416.14C356.244 416.02 356.266 415.901 356.312 415.789C356.358 415.678 356.425 415.577 356.511 415.493C356.596 415.408 356.698 415.342 356.81 415.298C356.922 415.253 357.041 415.232 357.162 415.235C357.282 415.233 357.401 415.256 357.513 415.3C357.625 415.345 357.727 415.411 357.813 415.495C357.899 415.58 357.968 415.68 358.015 415.79C358.062 415.901 358.087 416.02 358.089 416.14V420.115H362.328V416.14C362.327 416.02 362.349 415.901 362.395 415.789C362.441 415.678 362.508 415.577 362.594 415.493C362.679 415.408 362.781 415.342 362.893 415.298C363.005 415.253 363.124 415.232 363.245 415.235C363.365 415.233 363.484 415.256 363.596 415.3C363.708 415.345 363.81 415.411 363.896 415.495C363.982 415.58 364.051 415.68 364.098 415.79C364.145 415.901 364.17 416.02 364.172 416.14V425.911C364.172 426.032 364.148 426.152 364.101 426.264C364.054 426.376 363.986 426.477 363.9 426.562C363.813 426.648 363.711 426.715 363.599 426.76C363.486 426.806 363.366 426.828 363.245 426.827C363.124 426.828 363.004 426.806 362.892 426.76C362.78 426.715 362.679 426.647 362.593 426.562C362.508 426.476 362.441 426.375 362.395 426.263C362.349 426.151 362.327 426.031 362.328 425.911V421.936H358.045V425.911C358.045 426.032 358.021 426.152 357.974 426.264C357.927 426.376 357.859 426.477 357.772 426.562C357.686 426.648 357.584 426.715 357.471 426.76C357.359 426.806 357.239 426.828 357.117 426.827C356.881 426.818 356.658 426.718 356.495 426.546C356.332 426.375 356.242 426.147 356.245 425.911Z" fill="#263238"/>
<path d="M264.944 451.004C264.943 450.932 264.956 450.861 264.982 450.794C265.009 450.727 265.049 450.666 265.099 450.615C265.149 450.563 265.209 450.522 265.276 450.495C265.342 450.467 265.413 450.452 265.485 450.452C265.633 450.452 265.774 450.51 265.88 450.613C265.985 450.717 266.046 450.857 266.048 451.004V456.867C266.047 456.939 266.031 457.011 266.002 457.077C265.973 457.143 265.931 457.204 265.879 457.254C265.827 457.304 265.765 457.343 265.698 457.37C265.63 457.396 265.558 457.409 265.485 457.408C265.414 457.409 265.343 457.396 265.277 457.369C265.21 457.343 265.15 457.303 265.1 457.252C265.049 457.202 265.009 457.142 264.983 457.075C264.956 457.009 264.943 456.938 264.944 456.867V451.004Z" fill="#263238"/>
<path d="M267.903 456.867V451.004C267.902 450.932 267.914 450.861 267.941 450.794C267.968 450.727 268.007 450.666 268.058 450.615C268.108 450.563 268.168 450.522 268.234 450.495C268.301 450.467 268.372 450.452 268.444 450.452H269.592C270.514 450.452 271.399 450.819 272.051 451.471C272.703 452.123 273.07 453.008 273.07 453.93C273.07 454.852 272.703 455.737 272.051 456.389C271.399 457.041 270.514 457.408 269.592 457.408H268.488C268.413 457.415 268.337 457.407 268.266 457.383C268.194 457.36 268.128 457.321 268.073 457.27C268.018 457.218 267.974 457.156 267.944 457.087C267.915 457.017 267.901 456.942 267.903 456.867ZM269.007 456.304H269.592C270.222 456.304 270.825 456.054 271.271 455.608C271.716 455.163 271.966 454.56 271.966 453.93C271.966 453.3 271.716 452.697 271.271 452.252C270.825 451.806 270.222 451.556 269.592 451.556H268.974L269.007 456.304Z" fill="#263238"/>
<path d="M279.12 456.867C279.117 457.009 279.059 457.145 278.958 457.246C278.857 457.347 278.721 457.405 278.579 457.408C278.507 457.409 278.436 457.396 278.37 457.37C278.304 457.343 278.243 457.303 278.193 457.253C278.142 457.202 278.102 457.142 278.076 457.075C278.049 457.009 278.036 456.938 278.038 456.867V451.093C278.032 451.005 278.049 450.917 278.088 450.837C278.127 450.758 278.186 450.69 278.259 450.64C278.373 450.556 278.516 450.521 278.656 450.542C278.797 450.562 278.924 450.637 279.009 450.751L282.222 455.167V451.093C282.222 450.951 282.277 450.815 282.376 450.714C282.475 450.613 282.61 450.555 282.752 450.552C282.895 450.555 283.033 450.612 283.135 450.713C283.238 450.813 283.298 450.949 283.304 451.093V456.867C283.301 457.011 283.241 457.149 283.138 457.25C283.035 457.351 282.896 457.408 282.752 457.408C282.673 457.406 282.596 457.388 282.526 457.353C282.455 457.319 282.393 457.27 282.343 457.209V457.154L279.164 452.738L279.12 456.867Z" fill="#263238"/>
<path d="M286.031 456.69C285.586 456.214 285.341 455.586 285.346 454.935C285.351 454.292 285.595 453.674 286.031 453.202C286.247 452.962 286.511 452.771 286.806 452.64C287.101 452.509 287.419 452.441 287.742 452.44C288.057 452.437 288.369 452.504 288.655 452.636C288.941 452.767 289.195 452.961 289.398 453.202C289.854 453.663 290.108 454.286 290.105 454.935C290.111 455.26 290.051 455.583 289.93 455.884C289.809 456.186 289.628 456.46 289.398 456.69C289.191 456.926 288.936 457.114 288.651 457.244C288.365 457.373 288.055 457.44 287.742 457.441C287.42 457.44 287.103 457.373 286.808 457.244C286.514 457.115 286.249 456.926 286.031 456.69ZM286.428 454.935C286.409 455.335 286.539 455.728 286.793 456.039C287.05 456.279 287.39 456.409 287.742 456.403C288.083 456.403 288.41 456.273 288.658 456.039C288.924 455.734 289.062 455.339 289.045 454.935C289.051 454.556 288.913 454.189 288.658 453.908C288.41 453.672 288.084 453.534 287.742 453.522C287.388 453.528 287.05 453.666 286.793 453.908C286.55 454.194 286.42 454.56 286.428 454.935Z" fill="#263238"/>
<path d="M292.213 456.006C292.31 456.006 292.407 456.025 292.496 456.062C292.586 456.099 292.668 456.154 292.736 456.222C292.805 456.291 292.86 456.372 292.897 456.462C292.934 456.552 292.953 456.648 292.953 456.745C292.953 456.842 292.934 456.939 292.897 457.028C292.86 457.118 292.805 457.2 292.736 457.268C292.668 457.337 292.586 457.392 292.496 457.429C292.407 457.466 292.31 457.485 292.213 457.485C292.116 457.485 292.02 457.466 291.93 457.429C291.84 457.392 291.759 457.337 291.69 457.268C291.622 457.2 291.567 457.118 291.53 457.028C291.493 456.939 291.474 456.842 291.474 456.745C291.474 456.648 291.493 456.552 291.53 456.462C291.567 456.372 291.622 456.291 291.69 456.222C291.759 456.154 291.84 456.099 291.93 456.062C292.02 456.025 292.116 456.006 292.213 456.006Z" fill="#263238"/>
<path d="M298.638 451.004V456.867C298.638 456.939 298.624 457.01 298.596 457.076C298.568 457.143 298.527 457.203 298.476 457.253C298.425 457.304 298.364 457.343 298.297 457.37C298.23 457.396 298.158 457.409 298.086 457.408C298.014 457.409 297.943 457.396 297.876 457.37C297.809 457.343 297.748 457.304 297.697 457.253C297.645 457.203 297.605 457.143 297.577 457.076C297.549 457.01 297.534 456.939 297.534 456.867V451.976L297.137 452.208C297.076 452.245 297.008 452.269 296.937 452.279C296.866 452.289 296.794 452.285 296.725 452.267C296.656 452.248 296.591 452.216 296.535 452.171C296.478 452.127 296.432 452.072 296.397 452.009C296.359 451.948 296.333 451.881 296.321 451.81C296.31 451.739 296.312 451.667 296.328 451.597C296.345 451.527 296.375 451.461 296.417 451.403C296.459 451.345 296.513 451.296 296.574 451.258L297.799 450.53H298.12C298.12 450.53 298.12 450.53 298.175 450.53H298.23C298.23 450.53 298.23 450.53 298.23 450.585C298.225 450.607 298.225 450.629 298.23 450.651L298.638 451.004Z" fill="#263238"/>
<path d="M304.401 456.867C304.401 456.939 304.387 457.01 304.359 457.076C304.331 457.143 304.29 457.203 304.239 457.253C304.187 457.304 304.126 457.343 304.059 457.37C303.993 457.396 303.921 457.409 303.849 457.408H300.316C300.239 457.41 300.163 457.396 300.092 457.365C300.021 457.335 299.959 457.289 299.908 457.231C299.807 457.128 299.75 456.989 299.75 456.845C299.75 456.7 299.807 456.562 299.908 456.458L302.855 453.798C303.035 453.62 303.158 453.393 303.21 453.146C303.262 452.898 303.24 452.641 303.147 452.406C303.054 452.171 302.894 451.969 302.688 451.824C302.481 451.678 302.236 451.597 301.983 451.59C301.666 451.592 301.36 451.71 301.122 451.921L300.813 452.197C300.764 452.25 300.704 452.292 300.637 452.321C300.571 452.349 300.499 452.364 300.427 452.364C300.354 452.364 300.283 452.349 300.216 452.321C300.15 452.292 300.09 452.25 300.04 452.197C299.989 452.147 299.948 452.086 299.92 452.02C299.892 451.954 299.878 451.882 299.878 451.81C299.878 451.739 299.892 451.667 299.92 451.601C299.948 451.535 299.989 451.474 300.04 451.424L300.349 451.148C300.781 450.747 301.35 450.525 301.939 450.53C302.273 450.532 302.603 450.603 302.909 450.738C303.214 450.873 303.489 451.069 303.717 451.314C303.927 451.546 304.09 451.817 304.195 452.113C304.301 452.408 304.347 452.721 304.33 453.034C304.314 453.347 304.235 453.654 304.1 453.937C303.964 454.219 303.774 454.472 303.54 454.681L301.663 456.381H303.816C303.957 456.372 304.097 456.417 304.206 456.507C304.314 456.598 304.384 456.726 304.401 456.867Z" fill="#263238"/>
<path d="M310.782 455.564C310.782 455.636 310.768 455.707 310.74 455.774C310.712 455.84 310.671 455.9 310.62 455.95C310.569 456.001 310.508 456.04 310.441 456.067C310.374 456.093 310.302 456.106 310.23 456.105H310.131V456.867C310.131 456.939 310.117 457.01 310.089 457.076C310.061 457.143 310.02 457.203 309.969 457.253C309.917 457.304 309.856 457.343 309.789 457.37C309.722 457.396 309.651 457.409 309.579 457.408C309.508 457.409 309.436 457.396 309.37 457.369C309.304 457.343 309.244 457.303 309.193 457.253C309.143 457.202 309.103 457.142 309.076 457.075C309.049 457.009 309.036 456.938 309.038 456.867V456.105H305.903C305.782 456.113 305.663 456.073 305.571 455.995C305.513 455.951 305.463 455.896 305.427 455.833C305.39 455.77 305.367 455.7 305.358 455.627C305.35 455.555 305.357 455.481 305.378 455.412C305.4 455.342 305.435 455.277 305.483 455.222L309.159 450.651H309.215H309.336H309.402H309.656V450.706V450.773C309.661 450.791 309.661 450.81 309.656 450.828V454.868H309.756C309.848 454.732 309.99 454.638 310.152 454.607C310.313 454.576 310.481 454.611 310.617 454.703C310.753 454.795 310.847 454.938 310.878 455.099C310.909 455.261 310.875 455.428 310.782 455.564ZM309.038 452.561L307.062 455.012H309.038V452.561Z" fill="#263238"/>
<path d="M315.728 453.202C315.962 453.428 316.147 453.699 316.272 453.999C316.397 454.299 316.46 454.621 316.457 454.946C316.456 455.27 316.392 455.591 316.267 455.891C316.142 456.19 315.959 456.462 315.728 456.69C315.502 456.92 315.232 457.102 314.934 457.225C314.637 457.348 314.317 457.41 313.995 457.408C313.673 457.41 313.354 457.347 313.056 457.224C312.758 457.101 312.488 456.919 312.262 456.69C312.204 456.639 312.158 456.577 312.126 456.508C312.093 456.438 312.075 456.363 312.073 456.286C312.071 456.209 312.084 456.133 312.113 456.062C312.141 455.99 312.183 455.925 312.238 455.871C312.292 455.817 312.357 455.774 312.428 455.746C312.499 455.718 312.576 455.704 312.652 455.707C312.729 455.709 312.804 455.727 312.874 455.759C312.944 455.792 313.006 455.838 313.057 455.895C313.182 456.022 313.332 456.122 313.497 456.19C313.662 456.259 313.839 456.293 314.017 456.293C314.192 456.292 314.365 456.257 314.526 456.189C314.688 456.12 314.833 456.021 314.956 455.895C315.081 455.771 315.181 455.623 315.249 455.46C315.318 455.297 315.353 455.123 315.353 454.946C315.357 454.769 315.324 454.592 315.256 454.429C315.187 454.265 315.085 454.118 314.956 453.996C314.835 453.87 314.689 453.77 314.527 453.703C314.366 453.637 314.192 453.605 314.017 453.61C313.839 453.605 313.662 453.637 313.497 453.704C313.332 453.77 313.182 453.87 313.057 453.996C312.951 454.102 312.808 454.161 312.659 454.161C312.51 454.161 312.367 454.102 312.262 453.996L312.162 453.864C312.164 453.842 312.164 453.82 312.162 453.798C312.151 453.739 312.151 453.679 312.162 453.621L312.46 451.049C312.489 450.888 312.581 450.745 312.714 450.651C312.791 450.606 312.879 450.583 312.968 450.585H315.905C316.032 450.611 316.147 450.68 316.23 450.78C316.312 450.881 316.357 451.007 316.357 451.137C316.357 451.267 316.312 451.393 316.23 451.494C316.147 451.594 316.032 451.663 315.905 451.689H313.454L313.344 452.672C313.56 452.614 313.782 452.585 314.006 452.583C314.639 452.556 315.257 452.778 315.728 453.202Z" fill="#263238"/>
<path d="M321.745 453.201C321.977 453.429 322.16 453.701 322.285 454C322.411 454.3 322.475 454.621 322.474 454.946C322.468 455.6 322.207 456.226 321.745 456.69C321.517 456.92 321.245 457.102 320.946 457.225C320.646 457.348 320.325 457.411 320.001 457.408C319.679 457.41 319.359 457.348 319.062 457.225C318.764 457.102 318.494 456.92 318.268 456.69C318.213 456.639 318.169 456.578 318.139 456.51C318.109 456.441 318.094 456.367 318.094 456.293C318.094 456.218 318.109 456.144 318.139 456.076C318.169 456.007 318.213 455.946 318.268 455.895C318.373 455.79 318.516 455.731 318.665 455.731C318.814 455.731 318.957 455.79 319.063 455.895C319.186 456.023 319.333 456.123 319.496 456.192C319.66 456.26 319.835 456.294 320.012 456.293C320.189 456.293 320.364 456.258 320.527 456.19C320.69 456.122 320.838 456.021 320.961 455.895C321.21 455.641 321.353 455.301 321.359 454.946C321.361 454.769 321.326 454.593 321.258 454.43C321.19 454.267 321.089 454.119 320.961 453.996C320.84 453.868 320.692 453.768 320.528 453.701C320.365 453.635 320.189 453.603 320.012 453.61C319.836 453.606 319.66 453.638 319.497 453.704C319.334 453.771 319.186 453.87 319.063 453.996C318.957 454.102 318.814 454.161 318.665 454.161C318.516 454.161 318.373 454.102 318.268 453.996L318.157 453.864C318.159 453.842 318.159 453.82 318.157 453.798C318.146 453.739 318.146 453.679 318.157 453.621L318.455 451.049C318.465 450.969 318.492 450.892 318.534 450.824C318.576 450.755 318.632 450.696 318.698 450.651C318.78 450.607 318.871 450.585 318.963 450.585H321.889C321.971 450.569 322.055 450.571 322.136 450.591C322.217 450.611 322.292 450.649 322.357 450.701C322.421 450.754 322.473 450.821 322.509 450.896C322.544 450.971 322.563 451.054 322.563 451.137C322.563 451.22 322.544 451.303 322.509 451.378C322.473 451.453 322.421 451.52 322.357 451.573C322.292 451.625 322.217 451.663 322.136 451.683C322.055 451.704 321.971 451.705 321.889 451.689H319.449L319.328 452.672C319.544 452.616 319.766 452.586 319.99 452.583C320.634 452.549 321.265 452.772 321.745 453.201Z" fill="#263238"/>
<path d="M328.744 455.045C328.748 455.459 328.644 455.867 328.442 456.228C328.24 456.59 327.948 456.893 327.594 457.107C327.239 457.321 326.835 457.439 326.422 457.45C326.008 457.461 325.598 457.364 325.233 457.168C324.868 456.973 324.561 456.685 324.34 456.335C324.12 455.984 323.995 455.582 323.977 455.169C323.96 454.755 324.05 454.344 324.239 453.976C324.428 453.608 324.71 453.295 325.057 453.069C324.841 452.787 324.724 452.442 324.726 452.086C324.726 451.647 324.9 451.226 325.211 450.915C325.521 450.605 325.943 450.43 326.382 450.43C326.821 450.43 327.242 450.605 327.553 450.915C327.863 451.226 328.038 451.647 328.038 452.086C328.039 452.442 327.923 452.787 327.707 453.069C328.028 453.288 328.291 453.583 328.472 453.927C328.653 454.272 328.747 454.656 328.744 455.045ZM327.64 455.045C327.64 454.704 327.506 454.378 327.266 454.136C327.026 453.894 326.7 453.756 326.36 453.753C326.181 453.737 326 453.758 325.83 453.815C325.66 453.872 325.503 453.964 325.37 454.085C325.237 454.206 325.131 454.353 325.059 454.518C324.986 454.682 324.949 454.86 324.949 455.04C324.949 455.219 324.986 455.397 325.059 455.561C325.131 455.726 325.237 455.873 325.37 455.994C325.503 456.115 325.66 456.207 325.83 456.264C326 456.321 326.181 456.342 326.36 456.326C326.529 456.327 326.696 456.295 326.853 456.231C327.01 456.168 327.152 456.074 327.272 455.955C327.392 455.836 327.488 455.694 327.553 455.538C327.618 455.382 327.651 455.214 327.651 455.045H327.64ZM325.797 452.086C325.794 452.198 325.826 452.308 325.886 452.402C325.947 452.496 326.034 452.57 326.136 452.614C326.239 452.659 326.353 452.671 326.463 452.651C326.573 452.631 326.674 452.578 326.754 452.5C326.834 452.421 326.888 452.321 326.911 452.211C326.934 452.102 326.923 451.988 326.881 451.885C326.839 451.781 326.766 451.693 326.674 451.63C326.581 451.568 326.471 451.534 326.36 451.534C326.214 451.537 326.075 451.596 325.972 451.699C325.87 451.802 325.81 451.941 325.808 452.086H325.797Z" fill="#263238"/>
<path d="M334.839 456.867C334.84 456.938 334.827 457.009 334.801 457.075C334.774 457.142 334.734 457.202 334.684 457.253C334.633 457.303 334.573 457.343 334.507 457.37C334.44 457.396 334.369 457.409 334.298 457.408H330.754C330.677 457.409 330.601 457.394 330.531 457.363C330.46 457.333 330.397 457.288 330.345 457.231C330.294 457.181 330.253 457.121 330.225 457.054C330.197 456.988 330.183 456.917 330.183 456.845C330.183 456.773 330.197 456.701 330.225 456.635C330.253 456.569 330.294 456.509 330.345 456.458L333.282 453.798C333.532 453.566 333.682 453.245 333.698 452.905C333.715 452.564 333.597 452.231 333.37 451.976C333.252 451.842 333.105 451.735 332.941 451.663C332.778 451.59 332.6 451.554 332.421 451.556C332.103 451.556 331.796 451.674 331.56 451.888L331.251 452.164C331.201 452.216 331.141 452.259 331.075 452.287C331.008 452.316 330.937 452.331 330.864 452.331C330.792 452.331 330.72 452.316 330.654 452.287C330.587 452.259 330.527 452.216 330.478 452.164C330.427 452.113 330.386 452.053 330.358 451.987C330.33 451.92 330.316 451.849 330.316 451.777C330.316 451.705 330.33 451.634 330.358 451.568C330.386 451.501 330.427 451.441 330.478 451.391L330.787 451.115C331.224 450.714 331.795 450.494 332.388 450.497C332.72 450.498 333.049 450.569 333.353 450.703C333.657 450.838 333.93 451.035 334.154 451.28C334.579 451.749 334.8 452.367 334.769 452.998C334.737 453.63 334.457 454.223 333.989 454.648L332.112 456.348H334.232C334.306 456.34 334.381 456.348 334.452 456.37C334.523 456.392 334.589 456.429 334.646 456.477C334.703 456.526 334.749 456.585 334.782 456.652C334.815 456.719 334.835 456.792 334.839 456.867Z" fill="#263238"/>
<path d="M340.513 451.214L338.04 457.088C338.001 457.188 337.93 457.273 337.839 457.331C337.747 457.388 337.64 457.415 337.532 457.408C337.463 457.423 337.392 457.423 337.323 457.408C337.192 457.347 337.089 457.24 337.034 457.107C336.979 456.974 336.975 456.825 337.025 456.69L339.177 451.59H336.605C336.461 451.587 336.323 451.527 336.222 451.424C336.121 451.321 336.064 451.182 336.064 451.038C336.063 450.966 336.076 450.894 336.102 450.827C336.129 450.76 336.168 450.699 336.219 450.648C336.269 450.597 336.329 450.556 336.395 450.528C336.462 450.5 336.533 450.486 336.605 450.486H340.116C340.187 450.506 340.257 450.532 340.326 450.563C340.326 450.563 340.326 450.563 340.326 450.618C340.337 450.691 340.337 450.766 340.326 450.839L340.513 451.214Z" fill="#263238"/>
<path d="M345.459 453.19C345.689 453.416 345.873 453.686 345.998 453.984C346.123 454.281 346.187 454.601 346.188 454.924C346.193 455.415 346.052 455.896 345.782 456.307C345.512 456.717 345.125 457.037 344.672 457.226C344.218 457.415 343.719 457.463 343.237 457.366C342.756 457.268 342.315 457.029 341.97 456.679C341.913 456.628 341.867 456.566 341.834 456.496C341.802 456.427 341.784 456.351 341.781 456.275C341.779 456.198 341.793 456.122 341.821 456.05C341.849 455.979 341.892 455.914 341.946 455.86C342 455.806 342.065 455.763 342.137 455.735C342.208 455.706 342.284 455.693 342.361 455.695C342.438 455.698 342.513 455.715 342.583 455.748C342.652 455.78 342.714 455.827 342.765 455.884C343.019 456.132 343.36 456.271 343.715 456.27C344.069 456.27 344.41 456.131 344.664 455.884C344.792 455.759 344.893 455.61 344.962 455.445C345.03 455.28 345.064 455.102 345.061 454.924C345.064 454.748 345.03 454.574 344.962 454.412C344.894 454.251 344.792 454.105 344.664 453.985C344.416 453.734 344.079 453.591 343.726 453.588C343.649 453.591 343.572 453.577 343.501 453.547C343.43 453.516 343.367 453.47 343.317 453.411C343.212 453.306 343.153 453.163 343.153 453.014C343.153 452.865 343.212 452.722 343.317 452.616L344.333 451.578H342.721C342.648 451.579 342.575 451.564 342.507 451.535C342.439 451.507 342.378 451.465 342.327 451.413C342.275 451.36 342.235 451.298 342.208 451.23C342.181 451.162 342.168 451.089 342.169 451.015C342.168 450.942 342.181 450.869 342.208 450.801C342.235 450.733 342.275 450.67 342.327 450.618C342.378 450.566 342.439 450.524 342.507 450.495C342.575 450.467 342.648 450.452 342.721 450.452H345.658C345.807 450.452 345.95 450.512 346.056 450.617C346.161 450.723 346.221 450.866 346.221 451.015C346.217 451.107 346.194 451.198 346.154 451.28L346.055 451.424L344.797 452.716C345.047 452.827 345.272 452.989 345.459 453.19Z" fill="#263238"/>
<path d="M347.711 452.859C347.73 452.252 347.977 451.675 348.402 451.241C348.827 450.807 349.4 450.55 350.006 450.519C350.613 450.489 351.208 450.687 351.675 451.076C352.142 451.464 352.445 452.014 352.525 452.616C352.525 452.804 352.525 453.003 352.525 453.191C352.532 453.884 352.413 454.572 352.172 455.222C351.938 455.911 351.489 456.507 350.891 456.922C350.447 457.214 349.931 457.378 349.401 457.397C349.255 457.4 349.114 457.346 349.007 457.248C348.9 457.149 348.835 457.012 348.826 456.867C348.826 456.72 348.882 456.579 348.983 456.472C349.083 456.365 349.221 456.301 349.367 456.293C349.697 456.287 350.019 456.187 350.295 456.006C350.558 455.829 350.775 455.59 350.924 455.31L351.057 455.056C350.754 455.19 350.427 455.257 350.096 455.255C349.464 455.246 348.861 454.991 348.416 454.543C347.97 454.095 347.717 453.491 347.711 452.859ZM348.815 452.859C348.799 453.041 348.82 453.225 348.878 453.398C348.936 453.571 349.03 453.73 349.153 453.865C349.276 454 349.426 454.108 349.593 454.182C349.76 454.255 349.941 454.293 350.124 454.293C350.306 454.293 350.487 454.255 350.654 454.182C350.821 454.108 350.971 454 351.094 453.865C351.217 453.73 351.311 453.571 351.369 453.398C351.427 453.225 351.449 453.041 351.432 452.859C351.402 452.533 351.251 452.23 351.009 452.009C350.767 451.788 350.451 451.666 350.124 451.666C349.796 451.666 349.48 451.788 349.238 452.009C348.996 452.23 348.845 452.533 348.815 452.859Z" fill="#263238"/>
<path d="M354.082 453.93C354.069 453.088 354.307 452.262 354.766 451.556C354.954 451.231 355.222 450.958 355.544 450.765C355.867 450.572 356.234 450.464 356.61 450.452C356.986 450.464 357.352 450.572 357.675 450.765C357.998 450.958 358.266 451.231 358.453 451.556C358.887 452.272 359.116 453.093 359.116 453.93C359.116 454.767 358.887 455.588 358.453 456.304C358.26 456.625 357.991 456.893 357.669 457.086C357.348 457.278 356.984 457.389 356.61 457.408C356.234 457.396 355.867 457.288 355.544 457.095C355.222 456.902 354.954 456.629 354.766 456.304C354.307 455.598 354.069 454.772 354.082 453.93ZM358.012 453.93C358.022 453.308 357.858 452.696 357.537 452.164C357.45 451.99 357.318 451.842 357.155 451.735C356.992 451.629 356.804 451.567 356.61 451.556C356.414 451.573 356.226 451.637 356.06 451.743C355.895 451.849 355.758 451.993 355.66 452.164C355.349 452.7 355.185 453.31 355.185 453.93C355.185 454.55 355.349 455.16 355.66 455.696C355.759 455.866 355.897 456.009 356.062 456.114C356.227 456.22 356.415 456.285 356.61 456.304C356.802 456.287 356.988 456.223 357.15 456.117C357.312 456.011 357.445 455.866 357.537 455.696C357.858 455.164 358.022 454.552 358.012 453.93Z" fill="#263238"/>
<path d="M365.795 455.045C365.801 455.46 365.698 455.868 365.497 456.231C365.297 456.594 365.005 456.898 364.651 457.114C364.298 457.329 363.894 457.449 363.479 457.461C363.065 457.473 362.655 457.377 362.289 457.182C361.923 456.987 361.615 456.7 361.394 456.349C361.172 455.999 361.047 455.597 361.028 455.183C361.01 454.769 361.1 454.357 361.289 453.988C361.478 453.619 361.76 453.306 362.108 453.08C361.891 452.798 361.775 452.453 361.776 452.097C361.776 451.658 361.951 451.237 362.261 450.926C362.572 450.616 362.993 450.441 363.432 450.441C363.872 450.441 364.293 450.616 364.603 450.926C364.914 451.237 365.088 451.658 365.088 452.097C365.09 452.453 364.974 452.798 364.757 453.08C365.077 453.298 365.339 453.591 365.52 453.934C365.701 454.276 365.795 454.658 365.795 455.045ZM364.691 455.045C364.688 454.703 364.551 454.377 364.309 454.135C364.068 453.893 363.741 453.756 363.399 453.753C363.22 453.737 363.04 453.758 362.87 453.815C362.699 453.872 362.543 453.964 362.41 454.085C362.277 454.206 362.171 454.353 362.098 454.518C362.026 454.682 361.988 454.86 361.988 455.04C361.988 455.219 362.026 455.397 362.098 455.561C362.171 455.726 362.277 455.873 362.41 455.994C362.543 456.115 362.699 456.207 362.87 456.264C363.04 456.321 363.22 456.342 363.399 456.326C363.57 456.329 363.739 456.298 363.898 456.235C364.056 456.172 364.201 456.078 364.323 455.959C364.445 455.84 364.543 455.698 364.609 455.541C364.676 455.384 364.712 455.216 364.713 455.045H364.691ZM362.836 452.086C362.834 452.198 362.865 452.308 362.926 452.402C362.986 452.496 363.073 452.57 363.176 452.614C363.279 452.659 363.392 452.671 363.502 452.651C363.612 452.63 363.713 452.578 363.793 452.499C363.873 452.421 363.928 452.321 363.951 452.211C363.973 452.102 363.963 451.988 363.92 451.885C363.878 451.781 363.806 451.692 363.713 451.63C363.62 451.568 363.511 451.534 363.399 451.534C363.256 451.54 363.12 451.6 363.019 451.703C362.919 451.806 362.861 451.943 362.858 452.086H362.836Z" fill="#263238"/>
<path d="M268.797 464.639H265.22V487.028H268.797V464.639Z" fill="#263238"/>
<path d="M280.124 464.639H276.547V487.028H280.124V464.639Z" fill="#263238"/>
<path d="M289.652 464.639H286.075V487.028H289.652V464.639Z" fill="#263238"/>
<path d="M294.233 464.639H290.656V487.028H294.233V464.639Z" fill="#263238"/>
<path d="M273.776 464.639H272.882V487.028H273.776V464.639Z" fill="#263238"/>
<path d="M365.375 464.639H364.481V487.028H365.375V464.639Z" fill="#263238"/>
<path d="M284.971 464.639H284.077V487.028H284.971V464.639Z" fill="#263238"/>
<path d="M310.109 464.639H309.215V487.028H310.109V464.639Z" fill="#263238"/>
<path d="M275.521 464.639H274.626V487.028H275.521V464.639Z" fill="#263238"/>
<path d="M271.811 464.639H270.023V487.028H271.811V464.639Z" fill="#263238"/>
<path d="M317.749 464.639H314.172V487.028H317.749V464.639Z" fill="#263238"/>
<path d="M322.728 464.639H321.833V487.028H322.728V464.639Z" fill="#263238"/>
<path d="M324.472 464.639H323.578V487.028H324.472V464.639Z" fill="#263238"/>
<path d="M320.763 464.639H318.974V487.028H320.763V464.639Z" fill="#263238"/>
<path d="M327.287 464.639H325.499V487.028H327.287V464.639Z" fill="#263238"/>
<path d="M330.169 464.639H328.38V487.028H330.169V464.639Z" fill="#263238"/>
<path d="M308.089 464.639H304.512V487.028H308.089V464.639Z" fill="#263238"/>
<path d="M334.894 464.639H331.317V487.028H334.894V464.639Z" fill="#263238"/>
<path d="M301.74 464.639H300.846V487.028H301.74V464.639Z" fill="#263238"/>
<path d="M303.485 464.639H302.591V487.028H303.485V464.639Z" fill="#263238"/>
<path d="M299.775 464.639H297.987V487.028H299.775V464.639Z" fill="#263238"/>
<path d="M282.962 464.639H281.173V487.028H282.962V464.639Z" fill="#263238"/>
<path d="M296.982 464.639H295.194V487.028H296.982V464.639Z" fill="#263238"/>
<path d="M312.913 464.639H311.125V487.028H312.913V464.639Z" fill="#263238"/>
<path d="M336.903 464.639H336.009V487.028H336.903V464.639Z" fill="#263238"/>
<path d="M344.543 464.639H340.966V487.028H344.543V464.639Z" fill="#263238"/>
<path d="M355.881 464.639H352.304V487.028H355.881V464.639Z" fill="#263238"/>
<path d="M360.529 464.639H356.952V487.028H360.529V464.639Z" fill="#263238"/>
<path d="M349.522 464.639H348.627V487.028H349.522V464.639Z" fill="#263238"/>
<path d="M351.266 464.639H350.372V487.028H351.266V464.639Z" fill="#263238"/>
<path d="M347.568 464.639H345.779V487.028H347.568V464.639Z" fill="#263238"/>
<path d="M339.718 464.639H337.93V487.028H339.718V464.639Z" fill="#263238"/>
<path d="M363.454 464.639H361.666V487.028H363.454V464.639Z" fill="#263238"/>
<path d="M337.709 433.164H291.849V435.692H337.709V433.164Z" fill="#263238"/>
<path d="M543.461 488.938C543.467 489.111 543.433 489.283 543.36 489.441C543.287 489.598 543.178 489.736 543.042 489.843C535.314 496.677 519.758 499.04 503.662 499.04H482.068C498.164 499.04 513.675 496.677 521.47 489.843C521.602 489.734 521.706 489.595 521.775 489.438C521.844 489.28 521.876 489.109 521.867 488.938C521.801 486.123 514.349 480.305 505.727 473.559C489.928 461.228 468.312 444.325 468.312 428.295C468.312 412.839 478.005 387.723 489.2 358.622C505.407 316.504 523.799 268.767 520.255 232.589C517.087 200.198 474.991 127.786 436.296 98.1109C427.828 91.6194 420.752 88.3516 415.166 88.3516H436.749C442.335 88.3516 449.423 91.6636 457.89 98.1109C496.586 127.786 538.67 200.198 541.794 232.589C545.338 268.767 526.957 316.493 510.739 358.622C499.533 387.723 489.862 412.85 489.862 428.295C489.862 444.358 511.478 461.261 527.266 473.559C535.932 480.305 543.384 486.123 543.461 488.938Z" fill="#1B4071"/>
<g opacity="0.2">
<path d="M543.461 488.938C543.467 489.111 543.433 489.283 543.36 489.441C543.287 489.598 543.178 489.736 543.042 489.843C535.314 496.677 519.758 499.04 503.662 499.04H482.068C498.164 499.04 513.675 496.677 521.47 489.843C521.602 489.734 521.706 489.595 521.775 489.438C521.844 489.28 521.876 489.109 521.867 488.938C521.801 486.123 514.349 480.305 505.727 473.559C489.928 461.228 468.312 444.325 468.312 428.295C468.312 412.839 478.005 387.723 489.2 358.622C505.407 316.504 523.799 268.767 520.255 232.589C517.087 200.198 474.991 127.786 436.296 98.1109C427.828 91.6194 420.752 88.3516 415.166 88.3516H436.749C442.335 88.3516 449.423 91.6636 457.89 98.1109C496.586 127.786 538.67 200.198 541.794 232.589C545.338 268.767 526.957 316.493 510.739 358.622C499.533 387.723 489.862 412.85 489.862 428.295C489.862 444.358 511.478 461.261 527.266 473.559C535.932 480.305 543.384 486.123 543.461 488.938Z" fill="black"/>
</g>
<path d="M503.53 500.132H481.947C461.556 500.132 440.326 496.401 432.388 493.133C416.601 486.631 429.959 381.695 440.701 297.383C446.586 251.125 451.664 211.172 449.688 203.289C445.978 188.606 432.499 166.857 413.631 145.031C397.866 126.837 382.532 113.666 377.199 113.666H398.76C404.115 113.666 419.449 126.837 435.192 145.031C454.06 166.824 467.54 188.606 471.249 203.289C473.236 211.172 468.158 251.125 462.262 297.383C451.532 381.695 438.162 486.631 453.949 493.133C461.92 496.401 483.139 500.132 503.53 500.132Z" fill="#1B4071"/>
<g opacity="0.1">
<path d="M503.53 500.132H481.947C461.556 500.132 440.326 496.401 432.388 493.133C416.601 486.631 429.959 381.695 440.701 297.383C446.586 251.125 451.664 211.172 449.688 203.289C445.978 188.606 432.499 166.857 413.631 145.031C397.866 126.837 382.532 113.666 377.199 113.666H398.76C404.115 113.666 419.449 126.837 435.192 145.031C454.06 166.824 467.54 188.606 471.249 203.289C473.236 211.172 468.158 251.125 462.262 297.383C451.532 381.695 438.162 486.631 453.949 493.133C461.92 496.401 483.139 500.132 503.53 500.132Z" fill="black"/>
</g>
<path d="M390.359 115.83H368.775C371.149 114.39 373.719 113.301 376.404 112.595H397.987C395.302 113.301 392.733 114.39 390.359 115.83Z" fill="#1B4071"/>
<g opacity="0.2">
<path d="M390.359 115.83H368.775C371.149 114.39 373.719 113.301 376.404 112.595H397.987C395.302 113.301 392.733 114.39 390.359 115.83Z" fill="black"/>
</g>
<path d="M527.928 472.621C537.511 480.117 544.488 485.516 544.488 488.905C544.5 489.251 544.434 489.596 544.295 489.913C544.155 490.231 543.946 490.512 543.682 490.738C535.723 497.715 519.88 500.133 503.475 500.133C483.084 500.133 461.865 496.401 453.916 493.133C438.129 486.631 451.498 381.696 462.229 297.383C468.125 251.125 473.203 211.172 471.216 203.289C467.506 188.606 454.027 166.857 435.159 145.031C419.405 126.837 404.071 113.666 398.727 113.666C392.335 115.013 383.845 121.196 377.95 125.965C371.734 131.22 363.035 139.213 362.891 139.29L361.467 139.069C361.765 138.793 368.478 132.633 370.664 130.723C371.337 130.094 373.722 127.952 376.945 125.314C391.695 112.794 418.831 91.0896 433.514 87.5237C434.556 87.2765 435.623 87.1542 436.694 87.1593C442.523 87.1593 449.82 90.4713 458.465 97.0953C491.353 122.311 539.057 193.828 542.866 232.402C546.442 268.834 528.006 316.747 511.744 358.997C500.582 387.988 490.944 413.016 490.944 428.229C490.989 443.74 512.351 460.433 527.928 472.621ZM543.031 489.832C543.164 489.725 543.27 489.588 543.34 489.433C543.411 489.278 543.445 489.109 543.44 488.938C543.362 486.123 535.91 480.305 527.288 473.559C511.501 461.228 489.885 444.325 489.885 428.295C489.885 412.839 499.556 387.723 510.761 358.622C526.979 316.504 545.361 268.778 541.817 232.589C538.648 200.198 496.553 127.787 457.913 98.1C449.445 91.6195 442.357 88.3517 436.782 88.3517C435.782 88.3501 434.786 88.465 433.812 88.6939C423.037 91.3214 404.932 104.304 390.381 115.863C392.755 114.424 395.324 113.334 398.01 112.629C411.39 112.551 464.161 170.622 472.331 203.024C474.373 211.139 469.516 249.282 463.378 297.571C453.254 377.059 439.399 485.913 454.391 492.096C462.285 495.341 483.448 499.073 503.685 499.073C519.781 499.073 535.292 496.71 543.075 489.865" fill="#1B4071"/>
<path d="M436.738 87.1592C435.666 87.1521 434.598 87.2782 433.558 87.5346C418.875 91.1115 391.739 112.794 376.989 125.302C373.766 127.952 371.381 130.094 370.707 130.712C368.499 132.622 361.798 138.793 361.5 139.069L349.08 130.712C349.742 130.094 352.138 127.952 355.351 125.302C370.111 112.794 397.237 91.0784 411.92 87.5346C412.96 87.2789 414.028 87.1528 415.099 87.1592H436.738Z" fill="#1B4071"/>
<g opacity="0.1">
<path d="M436.738 87.1592C435.666 87.1521 434.598 87.2782 433.558 87.5346C418.875 91.1115 391.739 112.794 376.989 125.302C373.766 127.952 371.381 130.094 370.707 130.712C368.499 132.622 361.798 138.793 361.5 139.069L349.08 130.712C349.742 130.094 352.138 127.952 355.351 125.302C370.111 112.794 397.237 91.0784 411.92 87.5346C412.96 87.2789 414.028 87.1528 415.099 87.1592H436.738Z" fill="black"/>
</g>
<path d="M295.536 241.863C284.165 256.424 291.462 272.841 287.598 283.329C285.236 289.732 275.024 298.067 274.074 305.1C272.518 316.648 282.454 318.679 281.581 324.972C280.367 333.87 269.106 335.471 269.846 349.47C270.586 363.468 288.47 374.906 324.792 371.66C361.114 368.414 377.983 351.468 376.923 339.644C375.863 327.82 363.277 326.396 360.738 317.939C359.115 312.541 365.629 307.231 363.962 296.963C362.295 286.696 351.741 285.46 348.594 277.091C345.448 268.723 345.768 247.074 330.952 238.904C316.137 230.734 301.144 234.676 295.536 241.863Z" fill="#263238"/>
<path d="M297.192 241.852C293.895 245.352 291.493 249.598 290.193 254.228C288.879 259.119 288.138 264.146 287.985 269.209C287.961 272.211 287.591 275.201 286.881 278.118C286.105 280.598 284.894 282.919 283.304 284.974C280.157 289.213 276.106 292.779 273.445 297.383C270.928 301.799 269.382 307.198 271.701 311.978C272.97 314.572 275.222 316.449 276.867 318.778C278.512 321.108 279.451 323.912 277.784 326.341C276.349 328.427 273.931 329.73 272.209 331.552C270.494 333.333 269.084 335.384 268.035 337.624C266.95 339.847 266.345 342.273 266.257 344.746C266.17 347.218 266.602 349.681 267.528 351.976C271.844 362.607 283.469 366.791 293.836 368.823C295.282 369.11 296.739 369.375 298.186 369.629C298.406 369.629 298.528 369.342 298.296 369.286C287.819 366.924 275.664 364.131 269.802 354.14C268.491 351.966 267.699 349.519 267.489 346.99C267.278 344.46 267.654 341.916 268.587 339.556C269.525 337.209 270.879 335.051 272.584 333.186C274.229 331.375 276.282 330.05 277.971 328.295C278.823 327.483 279.442 326.458 279.766 325.327C280.09 324.196 280.107 322.999 279.815 321.859C279.164 319.286 277.442 317.277 275.741 315.323C274.041 313.369 272.341 311.139 271.977 308.346C271.742 305.708 272.227 303.057 273.379 300.673C275.521 295.837 279.385 292.172 282.708 288.165C286.031 284.157 288.493 279.763 288.934 274.464C289.155 271.781 289.089 269.087 289.21 266.394C289.309 263.903 289.542 261.419 289.906 258.953C290.548 254.014 292.258 249.275 294.918 245.064C295.633 243.984 296.454 242.978 297.369 242.061C297.446 241.918 297.291 241.741 297.192 241.852Z" fill="#263238"/>
<path d="M376.769 330.9C375.96 329.102 374.765 327.504 373.269 326.22C371.723 324.906 369.957 323.89 368.301 322.72C366.641 321.708 365.298 320.251 364.426 318.514C363.521 316.306 364.028 313.965 364.702 311.801C365.51 309.573 366.156 307.289 366.634 304.968C367.177 301.476 366.897 297.906 365.816 294.542C364.735 291.178 362.883 288.113 360.407 285.592C358.795 283.848 357.095 282.28 355.428 280.514C353.644 278.639 352.118 276.534 350.891 274.254C348.208 269.22 346.729 263.656 344.333 258.5C341.837 253.227 338.815 248.219 335.313 243.552C335.225 243.442 335.059 243.552 335.148 243.707C338.266 247.932 340.941 252.468 343.13 257.242C345.216 261.768 346.618 266.526 348.429 271.152C349.276 273.439 350.349 275.635 351.63 277.71C352.893 279.611 354.327 281.392 355.914 283.031C359.105 286.453 362.361 289.821 363.962 294.325C365.545 298.753 365.681 303.57 364.349 308.081C363.245 311.989 361.368 316.405 363.83 320.225C365.916 323.437 369.681 324.862 372.485 327.312C373.975 328.674 375.161 330.334 375.966 332.185C376.77 334.036 377.176 336.036 377.155 338.054C377.243 348.388 368.323 355.332 359.049 357.706C358.991 357.72 358.941 357.757 358.909 357.809C358.878 357.86 358.867 357.921 358.88 357.98C358.893 358.039 358.928 358.09 358.978 358.123C359.028 358.157 359.09 358.169 359.149 358.158C367.241 356.425 375.344 351.082 377.619 342.702C378.713 338.789 378.413 334.617 376.769 330.9Z" fill="#263238"/>
<path d="M365.927 403.599H270.542L272.562 392.448L272.981 390.174L274.273 383.108L274.372 382.545L276.58 370.711L276.713 369.971L277.916 363.347V363.236L278.104 362.276L278.281 361.238C278.281 361.238 277.883 360.51 277.32 359.262C277.21 359.008 277.088 358.743 276.978 358.467C276.514 357.363 275.984 355.972 275.498 354.393C275.211 353.488 274.946 352.517 274.726 351.49C273.919 348.733 273.691 345.838 274.056 342.989C274.421 340.139 275.37 337.395 276.845 334.93C277.618 333.495 278.523 331.982 279.539 330.392C287.19 318.524 300.802 303.665 304.103 300.584C304.445 300.275 304.788 299.955 305.141 299.668C305.876 299.041 306.655 298.465 307.47 297.946C312.582 294.634 318.853 293.364 324.88 295.892C326.414 296.543 327.858 297.389 329.175 298.41C329.484 298.641 329.782 298.884 330.102 299.149C330.422 299.414 330.908 299.856 331.317 300.253C331.88 300.827 332.421 301.424 333.017 302.075C333.117 302.175 333.206 302.286 333.282 302.406C333.746 302.936 334.209 303.51 334.662 304.106C344.521 317.078 352.326 341.642 357.636 363.148C363.024 384.996 365.927 403.599 365.927 403.599Z" fill="#1B4071"/>
<path d="M305.119 299.713C305.119 299.713 301.365 312.961 305.064 313.855C308.762 314.749 317.649 308.136 329.164 298.399C329.208 298.443 318.168 286.52 305.119 299.713Z" fill="#D3766A"/>
<path d="M324.682 297.56C324.207 299.083 316.048 308.677 308.95 307.838C306.642 307.562 307.592 294.877 307.592 294.877L307.448 293.927L305.439 280.591L321.557 271.759L323.876 270.655C323.876 270.655 324.185 274.342 324.527 278.935C324.527 279.145 324.527 279.355 324.527 279.586C324.527 279.818 324.527 280.083 324.593 280.326C324.66 281.011 324.715 281.717 324.759 282.413C324.803 283.108 324.825 283.517 324.847 284.024C324.869 284.532 324.847 285.128 324.925 285.692C325.114 289.648 325.033 293.614 324.682 297.56Z" fill="#D3766A"/>
<path d="M324.527 278.913C322.938 282.504 320.588 285.706 317.639 288.299C314.69 290.891 311.213 292.812 307.448 293.927L305.439 280.591L321.557 271.759L323.876 270.655C323.876 270.655 324.185 274.32 324.527 278.913Z" fill="#263238"/>
<path d="M289.045 258.345C285.236 281.706 298.804 286.619 303.838 287.436C308.42 288.176 324.086 290.108 330.279 267.266C336.473 244.424 326.813 235.25 316.446 233.042C306.079 230.834 292.842 234.985 289.045 258.345Z" fill="#D3766A"/>
<path d="M295.602 254.757C296.146 254.723 296.688 254.66 297.225 254.57C297.808 254.574 298.376 254.392 298.848 254.051C298.974 253.916 299.051 253.742 299.067 253.558C299.083 253.374 299.037 253.19 298.936 253.035C298.693 252.753 298.378 252.541 298.024 252.423C297.671 252.304 297.292 252.283 296.927 252.362C296.167 252.398 295.449 252.722 294.918 253.267C294.802 253.397 294.726 253.558 294.7 253.73C294.674 253.902 294.699 254.078 294.772 254.237C294.844 254.395 294.962 254.529 295.109 254.621C295.257 254.714 295.428 254.761 295.602 254.757Z" fill="#263238"/>
<path d="M311.335 256.988C310.783 256.866 310.297 256.668 309.767 256.502C309.193 256.408 308.666 256.129 308.265 255.707C308.165 255.549 308.121 255.363 308.139 255.177C308.157 254.991 308.236 254.816 308.365 254.68C308.652 254.449 308.995 254.298 309.36 254.242C309.724 254.186 310.097 254.226 310.44 254.36C311.178 254.544 311.822 254.992 312.251 255.619C312.347 255.766 312.398 255.938 312.398 256.113C312.397 256.289 312.344 256.461 312.246 256.607C312.149 256.753 312.01 256.867 311.848 256.935C311.686 257.002 311.507 257.021 311.335 256.988Z" fill="#263238"/>
<path d="M307.647 262.64C307.647 262.585 307.757 262.728 307.746 262.795C307.514 264.395 307.514 266.261 308.905 266.957C308.905 266.957 308.905 267.056 308.905 267.045C307.128 266.592 307.128 264.119 307.647 262.64Z" fill="#263238"/>
<path d="M309.27 261.139C311.864 261.238 311.478 266.427 309.06 266.327C306.642 266.228 307.128 261.05 309.27 261.139Z" fill="#263238"/>
<path d="M310.264 261.492C310.694 261.812 311.103 262.364 311.644 262.463C312.185 262.563 312.748 262.066 313.244 261.569C313.244 261.569 313.333 261.569 313.322 261.635C313.267 262.64 312.803 263.623 311.732 263.689C310.661 263.755 310.109 262.828 309.943 261.801C309.91 261.613 310.087 261.359 310.264 261.492Z" fill="#263238"/>
<path d="M298.153 261.282C298.153 261.227 298.02 261.348 298.02 261.415C297.954 263.026 297.623 264.87 296.132 265.301C296.132 265.301 296.132 265.4 296.132 265.389C297.932 265.256 298.351 262.817 298.153 261.282Z" fill="#263238"/>
<path d="M296.828 259.505C294.256 259.14 293.704 264.307 296.088 264.649C298.473 264.992 298.992 259.88 296.828 259.505Z" fill="#263238"/>
<path d="M295.713 259.737C295.271 259.957 294.818 260.421 294.322 260.399C293.825 260.377 293.394 259.77 293.096 259.196C293.096 259.129 293.019 259.196 293.008 259.196C292.875 260.178 293.096 261.249 294.024 261.536C294.951 261.823 295.591 261.028 295.933 260.068C296 259.935 295.889 259.637 295.713 259.737Z" fill="#263238"/>
<path d="M305.582 274.895C305.229 275.303 304.887 275.844 304.302 275.999C303.705 276.03 303.107 275.94 302.546 275.734C302.541 275.729 302.534 275.726 302.527 275.724C302.52 275.722 302.513 275.722 302.505 275.723C302.498 275.724 302.491 275.727 302.485 275.73C302.479 275.734 302.473 275.739 302.469 275.745C302.465 275.75 302.462 275.757 302.46 275.764C302.458 275.771 302.458 275.778 302.459 275.786C302.46 275.793 302.462 275.8 302.466 275.806C302.469 275.812 302.474 275.818 302.48 275.822C302.738 276.116 303.068 276.336 303.439 276.46C303.809 276.584 304.206 276.608 304.589 276.528C304.901 276.41 305.173 276.203 305.369 275.932C305.565 275.661 305.678 275.339 305.693 275.005C305.759 274.861 305.626 274.828 305.582 274.895Z" fill="#263238"/>
<path d="M299.256 268.712C299.256 268.712 298.715 271.086 298.616 272.212C298.616 272.322 298.881 272.388 299.256 272.444C300.211 272.706 301.22 272.701 302.172 272.428C303.125 272.155 303.983 271.626 304.655 270.898C304.67 270.876 304.677 270.849 304.675 270.822C304.674 270.796 304.663 270.77 304.646 270.75C304.628 270.73 304.604 270.716 304.578 270.711C304.552 270.706 304.524 270.709 304.5 270.721C302.972 271.582 301.205 271.923 299.466 271.693C299.466 271.373 300.57 267.674 300.36 267.641C299.473 267.642 298.589 267.761 297.733 267.994C298.726 263.026 300.493 258.268 301.398 253.3C301.403 253.265 301.396 253.228 301.377 253.197C301.359 253.167 301.33 253.143 301.296 253.132C301.262 253.12 301.225 253.12 301.191 253.133C301.157 253.146 301.129 253.17 301.111 253.201C298.903 258.069 297.645 263.766 296.496 268.867C296.386 269.452 298.793 268.811 299.256 268.712Z" fill="#263238"/>
<path d="M299.478 272.024C300.026 273.008 300.816 273.837 301.774 274.431C302.311 274.731 302.928 274.858 303.54 274.795C304.876 274.651 305.075 273.481 304.986 272.432C304.936 271.88 304.821 271.335 304.644 270.81C303.097 271.758 301.285 272.184 299.478 272.024Z" fill="#263238"/>
<path d="M301.773 274.376C302.311 274.676 302.928 274.803 303.54 274.74C304.876 274.596 305.074 273.426 304.986 272.377C304.304 272.304 303.618 272.46 303.035 272.823C302.453 273.185 302.009 273.732 301.773 274.376Z" fill="#FF9ABB"/>
<path d="M327.861 267.244C322.507 266.581 323.677 258.147 323.677 258.147C323.677 258.147 317.671 256.789 318.532 246.941C318.532 246.941 314.823 252.461 306.388 252.583C304.611 252.583 311.047 248.862 311.047 248.862C311.047 248.862 303.209 254.261 290.546 250.143C289.652 249.845 292.599 234.952 303.407 231.64C314.216 228.328 323.865 233.649 329.307 240.902C329.307 240.902 336.318 245.318 336.218 252.516C336.119 259.714 329.948 267.498 327.861 267.244Z" fill="#263238"/>
<path d="M318.091 263.556C317.902 262.1 317.3 260.729 316.354 259.605C315.409 258.482 314.161 257.654 312.758 257.22C312.405 257.12 312.041 257.043 311.654 256.977C311.446 256.944 311.236 256.922 311.025 256.91H310.506C308.951 256.909 307.432 257.381 306.152 258.265C304.871 259.148 303.891 260.401 303.341 261.856C303.341 262.011 303.231 262.154 303.187 262.309C303.142 262.464 303.065 262.728 303.021 262.938C302.622 264.809 302.938 266.761 303.906 268.41C304.875 270.059 306.426 271.285 308.254 271.848C308.86 272.033 309.487 272.145 310.12 272.179C311.815 272.257 313.488 271.771 314.876 270.796C316.265 269.82 317.291 268.412 317.793 266.791C318.012 266.076 318.123 265.332 318.124 264.583C318.135 264.241 318.124 263.898 318.091 263.556ZM316.854 266.504C316.491 267.69 315.803 268.75 314.867 269.563C313.931 270.377 312.786 270.911 311.562 271.106C310.337 271.301 309.083 271.148 307.941 270.666C306.799 270.183 305.815 269.389 305.102 268.375C304.389 267.361 303.975 266.167 303.906 264.929C303.838 263.691 304.119 262.458 304.717 261.372C305.314 260.286 306.205 259.389 307.287 258.784C308.369 258.178 309.599 257.889 310.837 257.948C311.389 257.973 311.935 258.074 312.46 258.246C314.136 258.761 315.54 259.919 316.364 261.467C317.188 263.015 317.364 264.826 316.854 266.504Z" fill="#1B4071"/>
<path d="M299.113 258.622C298.987 258.06 298.794 257.515 298.539 256.999C298.08 256.049 297.37 255.243 296.485 254.669C296.001 254.366 295.46 254.164 294.896 254.073H294.708C293.931 253.999 293.148 254.105 292.42 254.385C291.692 254.665 291.039 255.11 290.513 255.685C290.138 256.052 289.804 256.459 289.519 256.899C289.418 257.037 289.326 257.181 289.243 257.33C288.662 258.357 288.266 259.478 288.073 260.642C287.831 262.047 287.906 263.488 288.294 264.859C288.294 265.014 288.382 265.157 288.426 265.312C288.531 265.6 288.656 265.881 288.801 266.151C288.922 266.406 289.058 266.653 289.21 266.891C289.566 267.461 290.036 267.952 290.591 268.332C291.145 268.712 291.773 268.973 292.434 269.099C292.598 269.129 292.764 269.147 292.93 269.154C293.675 269.167 294.414 269.019 295.096 268.72C295.778 268.42 296.388 267.977 296.883 267.421C297.531 266.761 298.061 265.996 298.45 265.157C298.848 264.321 299.127 263.433 299.278 262.519C299.278 262.342 299.278 262.165 299.278 262.011C299.278 261.856 299.278 261.779 299.278 261.669C299.278 261.382 299.278 261.106 299.278 260.83C299.314 260.09 299.258 259.348 299.113 258.622ZM298.241 262.364C298.22 262.532 298.187 262.698 298.141 262.861C298.149 262.901 298.149 262.942 298.141 262.982C298.04 263.427 297.903 263.862 297.733 264.285C297.644 264.495 297.556 264.694 297.457 264.881C296.353 267.089 294.465 268.414 292.577 268.105C291.77 267.919 291.031 267.51 290.446 266.924C289.86 266.339 289.451 265.6 289.265 264.793C288.88 263.52 288.797 262.174 289.022 260.863C289.196 259.836 289.544 258.847 290.049 257.937C290.363 257.382 290.753 256.873 291.208 256.425C291.606 255.993 292.089 255.648 292.627 255.412C293.164 255.176 293.745 255.055 294.332 255.056H294.708C295.347 255.192 295.945 255.479 296.45 255.894C296.955 256.309 297.354 256.84 297.611 257.44C298.168 258.617 298.419 259.916 298.34 261.216C298.359 261.599 298.345 261.984 298.296 262.364H298.241Z" fill="#1B4071"/>
<path d="M303.33 263.192L304.103 262.53C303.12 261.426 300.692 259.648 298.583 261.315L299.201 262.121C301.089 260.642 303.231 263.104 303.33 263.192Z" fill="#1B4071"/>
<path d="M336.561 270.721L337.532 270.412C337.389 269.96 336.042 265.996 333.856 265.223C331.67 264.451 318.102 263.556 317.517 263.523L317.451 264.539C321.381 264.815 331.946 265.643 333.525 266.195C335.104 266.747 336.208 269.628 336.561 270.721Z" fill="#1B4071"/>
<path d="M324.649 268.37C324.649 268.37 330.345 261.393 333.558 263.479C336.771 265.566 332.09 275.954 328.038 277.125C327.53 277.308 326.991 277.386 326.452 277.357C325.914 277.327 325.386 277.189 324.902 276.951C324.418 276.713 323.987 276.38 323.634 275.971C323.281 275.563 323.014 275.088 322.849 274.574L324.649 268.37Z" fill="#D3766A"/>
<path d="M332.145 266.416C332.2 266.416 332.211 266.504 332.145 266.526C329.307 267.431 327.662 269.838 326.459 272.444C326.64 272.185 326.874 271.968 327.146 271.807C327.418 271.647 327.721 271.546 328.035 271.513C328.349 271.479 328.666 271.514 328.966 271.613C329.265 271.713 329.54 271.876 329.771 272.09C329.837 272.146 329.771 272.256 329.694 272.234C329.221 272.045 328.701 272.007 328.206 272.123C327.71 272.24 327.262 272.506 326.923 272.885C326.364 273.531 325.876 274.234 325.466 274.983C325.322 275.215 324.88 275.049 325.002 274.773C324.997 274.751 324.997 274.729 325.002 274.707C325.256 271.196 328.347 266.504 332.145 266.416Z" fill="#263238"/>
<path d="M278.152 329.905L273.513 396.178L324.43 399.742L329.069 333.469L278.152 329.905Z" fill="#37474F"/>
<path d="M290.018 335.104L314.096 336.746L314.593 329.454L290.515 327.813L290.018 335.104Z" fill="#A6A6A6"/>
<path d="M295.978 328.196L298.947 328.394L299.168 325.038L306.377 325.524L306.145 328.891L309.115 329.09L309.535 322.963L296.353 322.068L295.978 328.196Z" fill="#A6A6A6"/>
<path d="M375.786 403.599H323.898C320.586 402.837 317.362 402.031 314.503 401.258C312.615 400.751 310.871 400.254 309.292 399.779L307.228 399.117C307.041 399.055 306.878 398.935 306.764 398.774C304.744 396.213 309.038 381.464 313.498 372.201C315.706 367.73 317.859 364.539 319.394 364.628C319.485 364.616 319.578 364.616 319.67 364.628C320.454 364.893 321.425 365.191 322.507 365.489L325.653 366.35C330.301 367.575 335.744 368.856 338.725 369.518C339.961 369.783 340.756 369.949 340.933 369.949C341.109 369.949 341.076 369.629 341.01 369C340.9 367.829 340.469 365.61 339.84 362.674C339.845 362.641 339.845 362.607 339.84 362.574C337.157 350.132 330.842 325.204 328.535 313.8C326.261 302.616 327.906 299.249 331.317 300.22C334.485 301.126 339.177 305.796 343.649 311.371C352.922 322.93 361.136 338.772 367.086 354.283C367.164 354.515 367.263 354.758 367.351 354.99C367.539 355.476 367.727 355.983 367.903 356.469C375.201 376.297 378.701 395.197 375.786 403.599Z" fill="#D3766A"/>
<path d="M273.423 352.616C271.049 355.707 273.357 359.008 273.357 359.008C271.542 359.693 270.024 360.989 269.062 362.674C267.505 365.721 271.601 369.496 271.601 369.496C269.866 370.597 268.501 372.193 267.682 374.078C266.49 377.147 270.089 381.541 270.089 381.541C269.052 383.433 268.731 385.636 269.183 387.745C270.619 393.332 279.009 396.003 284.33 397.748C289.652 399.492 306.41 399.47 309.568 399.79L321.083 365.743C321.083 365.743 299.455 351.115 292.908 349.944C287.388 348.973 276.095 349.172 273.423 352.616Z" fill="#D3766A"/>
<path d="M273.776 358.556C279.893 358.191 285.788 359.66 291.75 360.764C291.772 360.771 291.791 360.785 291.804 360.804C291.818 360.823 291.825 360.845 291.825 360.869C291.825 360.892 291.818 360.914 291.804 360.933C291.791 360.952 291.772 360.966 291.75 360.973C285.832 359.781 279.76 359.781 273.81 358.821C273.782 358.814 273.757 358.798 273.737 358.776C273.718 358.755 273.706 358.728 273.703 358.699C273.699 358.671 273.704 358.642 273.717 358.616C273.731 358.591 273.751 358.57 273.776 358.556Z" fill="#263238"/>
<path d="M271.866 369.099C273.264 369.149 274.648 369.383 275.984 369.794C277.42 370.148 278.855 370.523 280.279 370.898C283.138 371.693 285.976 372.543 288.78 373.493C288.912 373.493 288.879 373.725 288.78 373.692C285.931 372.908 283.072 372.168 280.191 371.484C278.755 371.152 277.309 370.832 275.863 370.523C274.479 370.307 273.124 369.937 271.822 369.419C271.801 369.396 271.786 369.369 271.777 369.34C271.767 369.31 271.765 369.279 271.769 369.249C271.773 369.218 271.784 369.189 271.801 369.163C271.818 369.137 271.84 369.115 271.866 369.099Z" fill="#263238"/>
<path d="M270.21 381.585C271.47 381.652 272.709 381.932 273.875 382.413C275.178 382.799 276.47 383.186 277.761 383.517C280.367 384.268 282.961 385.007 285.578 385.725C285.604 385.725 285.629 385.735 285.648 385.754C285.667 385.773 285.677 385.798 285.677 385.824C285.677 385.851 285.667 385.876 285.648 385.895C285.629 385.913 285.604 385.924 285.578 385.924C282.917 385.272 280.245 384.665 277.585 383.981C276.271 383.649 274.968 383.318 273.666 382.965C272.45 382.767 271.279 382.352 270.21 381.74C270.19 381.74 270.17 381.731 270.155 381.717C270.141 381.702 270.133 381.683 270.133 381.662C270.133 381.642 270.141 381.622 270.155 381.608C270.17 381.593 270.19 381.585 270.21 381.585Z" fill="#263238"/>
<path d="M377.331 403.599H317.561C315.849 403.19 314.768 402.903 314.359 402.793L314.171 402.738L314.514 401.258L314.933 399.348L321.082 371.936L322.518 365.533L322.584 365.257V365.18L325.686 365.93C330.488 367.034 339.221 369.055 339.619 368.757C339.693 368.688 339.747 368.6 339.773 368.503C339.778 368.462 339.778 368.422 339.773 368.381C340.369 365.544 335.578 348.079 331.659 331.949C329.793 324.31 328.126 316.957 327.32 311.636C326.05 303.267 327.221 299.337 330.047 299.171C333.039 298.984 337.896 303.069 343.692 310.631C353.561 323.941 361.627 338.496 367.682 353.919C367.771 354.162 367.87 354.405 367.969 354.647C368.135 355.089 368.312 355.509 368.466 355.95C373.048 368.039 376.481 381.132 377.298 394.171C377.607 397.759 377.938 400.982 377.331 403.599Z" fill="#1B4071"/>
<path d="M322.683 403.135C327.011 388.364 329.307 372.223 329.937 369.386C329.929 369.364 329.915 369.344 329.897 369.331C329.878 369.317 329.855 369.31 329.832 369.31C329.809 369.31 329.786 369.317 329.767 369.331C329.748 369.344 329.734 369.364 329.727 369.386C329.274 372.157 324.626 390.362 322.452 403.124C322.418 403.256 322.639 403.279 322.683 403.135Z" fill="#263238"/>
<path d="M357.658 373.25C356.221 372.702 354.745 372.263 353.242 371.936C351.851 371.572 350.46 371.174 349.069 370.832L347.27 370.357H347.446L349.93 370.214C350.758 370.159 351.586 370.037 352.414 370.048C352.547 370.048 352.558 369.827 352.414 369.839C351.586 369.839 350.769 369.838 349.941 369.783C349.113 369.728 348.23 369.783 347.369 369.783C346.508 369.783 345.868 369.783 345.161 369.783C343.814 369.441 342.467 369.11 341.12 368.801C340.745 366.063 340.016 363.281 339.42 360.609C338.824 357.937 338.129 354.968 337.411 352.152C336.693 349.337 335.965 346.632 335.148 343.928C334.739 342.559 332.653 334.212 331.924 332.015C331.924 331.883 331.703 331.927 331.736 332.093C332.079 334.301 334.209 342.846 334.507 344.237C334.728 345.241 334.949 346.246 335.181 347.262L335.071 347.096L333.613 344.767C332.609 343.199 331.684 341.581 330.842 339.92C330.776 339.777 330.555 339.92 330.621 340.031C331.383 341.764 332.112 343.508 332.94 345.208C333.359 346.058 333.79 346.897 334.254 347.714C334.674 348.542 335.181 349.323 335.766 350.044C335.954 350.872 336.13 351.7 336.318 352.528C336.936 355.299 337.566 358.048 338.184 360.841C338.747 363.38 339.199 365.986 339.873 368.503C337.113 367.884 334.353 367.321 331.549 366.747C330.136 366.449 328.711 366.162 327.298 365.886C325.885 365.61 324.163 365.445 322.684 365.047C322.551 365.047 322.485 365.224 322.606 365.246C324.108 365.544 325.598 366.14 327.022 366.527L331.195 367.631C334.143 368.392 337.091 369.165 340.027 369.839C342.964 370.512 345.901 371.13 348.859 371.726L353.275 372.599C354.698 372.949 356.145 373.197 357.603 373.338C357.622 373.333 357.638 373.321 357.648 373.305C357.658 373.288 357.662 373.269 357.658 373.25Z" fill="#263238"/>
<path d="M318.477 403.599H316.645C315.541 403.268 314.79 403.058 314.437 402.959C314.418 402.957 314.4 402.951 314.385 402.94C314.37 402.929 314.359 402.914 314.352 402.896C314.345 402.879 314.343 402.86 314.346 402.842C314.35 402.824 314.358 402.807 314.37 402.793C314.37 402.793 314.37 402.793 314.47 402.793C315.651 403.025 316.998 403.312 318.477 403.599Z" fill="#263238"/>
<path d="M158.717 412.342C157.521 416.706 156.73 421.17 156.355 425.679C156.476 425.9 156.454 426.728 156.355 426.496C156.355 427.235 155.251 427.103 155.251 426.374C155.251 425.9 155.251 425.436 155.251 424.972C152.645 421.737 148.859 419.695 145.801 416.88C143.338 414.673 141.544 411.82 140.623 408.644C138.095 399.911 140.468 390.649 137.421 381.938C134.794 374.42 130.08 367.884 126.083 361.073C121.877 353.875 118.764 346.312 118.455 337.889C118.201 331.43 118.973 322.819 123.897 318.017C129.108 312.883 135.567 316.736 139.563 321.329C151.144 334.577 156.498 351.402 158.662 368.569C159.855 378.063 161.091 387.624 160.804 397.218C160.609 402.316 159.91 407.382 158.717 412.342Z" fill="#1B4071"/>
<path d="M156.41 429.167C157.035 420.216 156.928 411.229 156.09 402.296C156.09 402.296 156.09 402.296 156.09 402.197C156.233 394.921 156.807 387.679 156.531 380.393C156.175 372.517 155.1 364.69 153.319 357.01C153.319 356.922 153.164 356.944 153.186 357.01C154.602 364.557 155.447 372.2 155.714 379.874C155.858 383.992 155.836 388.098 155.615 392.205C155.549 393.541 155.416 394.888 155.328 396.235C152.302 375.814 144.922 356.281 133.69 338.959C133.535 338.728 133.116 338.959 133.259 339.224C141.302 352.382 147.26 366.705 150.923 381.684C145.403 371.373 136.958 362.916 130.72 352.98C130.72 352.925 130.587 352.98 130.621 353.035C136.229 364.075 145.48 372.764 151.376 383.638C152.399 388.054 153.23 392.518 153.871 397.03C154.701 403.201 155.147 409.417 155.207 415.643C151.817 409.306 148.296 403.245 145.525 396.544C145.447 396.367 145.193 396.544 145.26 396.666C147.611 403.632 150.78 411.128 155.196 417.067C155.196 421.483 155.085 425.899 154.831 430.315C154.136 442.062 152.126 453.654 151.199 465.367C151.204 465.432 151.231 465.493 151.276 465.54C151.322 465.587 151.382 465.616 151.446 465.622C151.511 465.629 151.576 465.613 151.63 465.576C151.683 465.54 151.722 465.485 151.74 465.423C154.115 453.457 155.675 441.344 156.41 429.167Z" fill="#263238"/>
<path d="M143.924 338.551C143.924 338.463 143.769 338.551 143.803 338.606C145.944 344.546 147.115 350.563 148.704 356.646C148.715 356.704 148.748 356.756 148.796 356.79C148.845 356.825 148.905 356.838 148.964 356.828C149.022 356.818 149.074 356.784 149.109 356.736C149.143 356.687 149.156 356.627 149.146 356.568C148.517 350.408 146.32 344.237 143.924 338.551Z" fill="#263238"/>
<path d="M198.428 363.424C196.996 366.902 195.348 370.287 193.493 373.559C189.629 380.58 185.589 387.017 184.86 395.186C184.54 398.83 184.419 402.495 183.315 406.017C182.295 409.037 180.841 411.893 178.998 414.495C174.803 420.589 169.57 425.855 165.75 432.159C161.715 438.763 158.735 445.955 156.918 453.478C156.819 453.886 156.167 453.776 156.267 453.367C156.278 453.335 156.278 453.3 156.267 453.268C156.261 453.256 156.259 453.242 156.259 453.229C156.259 453.216 156.261 453.203 156.267 453.191C155.648 435.67 157.05 418.006 162.394 401.225C164.757 393.845 167.593 386.625 170.883 379.609C173.743 373.515 177.32 367.664 182.343 363.115C185.6 360.179 192.676 354.614 197.313 357.595C199.466 358.997 199.3 361.238 198.428 363.424Z" fill="#1B4071"/>
<path d="M181.559 395.672C177.717 400.597 174.387 405.902 171.623 411.503C171.623 411.581 171.7 411.658 171.744 411.581C175.056 406.326 178.368 401.037 181.736 395.771C181.769 395.672 181.625 395.573 181.559 395.672Z" fill="#263238"/>
<path d="M106.973 380.039C109.247 383.947 111.842 388.639 110.859 393.343C110.241 396.312 108.066 398.73 107.679 401.755C106.796 408.445 113.464 412.872 118.289 416.03C130.323 423.923 146.827 430.967 149.013 447.085C149.091 447.659 150.117 447.516 150.007 446.953C150.012 446.92 150.012 446.886 150.007 446.853C150.007 446.853 150.073 446.798 150.073 446.754C151.647 438.615 151.568 430.243 149.841 422.135C148.053 413.822 144.421 406.359 140.148 399.061C132.906 386.707 125.233 374.056 114.281 364.594C111.256 361.978 105.052 357.275 102.634 363.181C100.216 369.088 104.191 375.27 106.973 380.039Z" fill="#1B4071"/>
<path d="M117.991 406.226C125.962 414.86 138.647 419.706 145.514 429.41C141.677 414.687 134.431 401.072 124.361 389.666C124.31 389.607 124.284 389.53 124.288 389.452C124.292 389.374 124.325 389.3 124.381 389.245C124.437 389.19 124.512 389.159 124.59 389.157C124.668 389.156 124.744 389.184 124.803 389.236C132.137 396.361 138.007 404.852 142.08 414.23C140.188 407.672 137.697 401.301 134.639 395.197C134.529 394.966 134.86 394.767 134.993 394.988C138.782 401.654 141.491 408.879 143.019 416.394C152.06 438.298 152.955 463.977 151.012 487.05C151.012 487.37 150.482 487.381 150.482 487.05C151.012 468.856 150.714 450.342 146.353 432.579C146.264 432.203 146.165 431.839 146.066 431.475C138.592 421.064 125.973 416.24 117.848 406.348C117.77 406.27 117.903 406.127 117.991 406.226Z" fill="#263238"/>
<path d="M116.136 398.807C120.331 402.649 124.449 406.535 128.644 410.421C128.644 410.421 128.644 410.532 128.578 410.499C123.839 407.294 119.57 403.444 115.893 399.061C115.749 398.885 115.97 398.653 116.136 398.807Z" fill="#263238"/>
<path d="M115.474 382.159C119.178 388.233 123.368 393.996 128.004 399.392C128.07 399.47 128.004 399.569 127.905 399.503C122.702 394.56 118.418 388.732 115.253 382.291C115.187 382.148 115.385 382.015 115.474 382.159Z" fill="#263238"/>
<path d="M134.33 503.345H171.005L166.07 453.996H139.983L134.33 503.345Z" fill="#455A64"/>
<path d="M139.055 462.022H166.876L166.07 453.996H139.971L139.055 462.022Z" fill="#263238"/>
<path d="M135.478 456.414H169.857V448.532H135.478V456.414Z" fill="#455A64"/>
</svg>
