<svg width="19" height="20" viewBox="0 0 19 20" fill="none" xmlns="http://www.w3.org/2000/svg">
<g id="Linked-In">
<path id="Icon" d="M17.2973 0.977051H2.23677C1.41384 0.977051 0.694824 1.56918 0.694824 2.38245V17.4764C0.694824 18.2941 1.41384 19.0228 2.23677 19.0228H17.2929C18.1203 19.0228 18.7406 18.2893 18.7406 17.4764V2.38245C18.7454 1.56918 18.1203 0.977051 17.2973 0.977051ZM6.28861 16.0191H3.70339V7.98106H6.28861V16.0191ZM5.08542 6.75895H5.06689C4.23953 6.75895 3.70379 6.14305 3.70379 5.37208C3.70379 4.58701 4.25363 3.98562 5.09952 3.98562C5.94542 3.98562 6.46303 4.58258 6.48155 5.37208C6.48115 6.14305 5.94542 6.75895 5.08542 6.75895ZM15.7369 16.0191H13.1516V11.6241C13.1516 10.5711 12.7754 9.8517 11.8401 9.8517C11.1255 9.8517 10.7026 10.3351 10.5145 10.806C10.444 10.9751 10.425 11.2055 10.425 11.4408V16.0191H7.83982V7.98106H10.425V9.09966C10.8013 8.56393 11.389 7.79295 12.7565 7.79295C14.4535 7.79295 15.7373 8.91155 15.7373 11.3232L15.7369 16.0191Z" fill="#333333"/>
</g>
</svg>
