<svg width="24" height="24" viewBox="0 0 24 24" fill="none" xmlns="http://www.w3.org/2000/svg">
<g id="icons8-twitterx 1">
<path id="Vector" d="M5.75491 2.33984C3.98192 2.33984 2.53491 3.78685 2.53491 5.55984V18.4398C2.53491 20.2128 3.98192 21.6598 5.75491 21.6598H18.6349C20.4079 21.6598 21.8549 20.2128 21.8549 18.4398V5.55984C21.8549 3.78685 20.4079 2.33984 18.6349 2.33984H5.75491ZM5.75491 3.25984H18.6349C19.9108 3.25984 20.9349 4.28396 20.9349 5.55984V18.4398C20.9349 19.7157 19.9108 20.7398 18.6349 20.7398H5.75491C4.47903 20.7398 3.45491 19.7157 3.45491 18.4398V5.55984C3.45491 4.28396 4.47903 3.25984 5.75491 3.25984ZM6.71444 6.47984L10.9569 12.5075L6.67491 17.5198H7.82491L11.4762 13.2451L14.4841 17.5198H18.1354L13.4779 10.902L17.2549 6.47984H16.1049L12.9586 10.1643L10.3657 6.47984H6.71444ZM8.47538 7.39984H9.88503L16.3744 16.5998H14.9648L8.47538 7.39984Z" fill="#333333"/>
</g>
</svg>
