<svg width="19" height="18" viewBox="0 0 19 18" fill="none" xmlns="http://www.w3.org/2000/svg">
<path id="Icon" d="M5.7906 9.05745C6.54178 10.6087 7.79615 11.8599 9.34933 12.6071C9.4639 12.6613 9.59062 12.6848 9.71702 12.6752C9.84342 12.6656 9.96514 12.6232 10.0702 12.5523L12.3514 11.0284C12.4522 10.9601 12.5687 10.9184 12.69 10.9072C12.8112 10.896 12.9334 10.9158 13.0449 10.9646L17.3154 12.7987C17.4614 12.8594 17.5833 12.9665 17.6624 13.1033C17.7416 13.2402 17.7736 13.3992 17.7534 13.556C17.6181 14.6125 17.1024 15.5834 16.3029 16.2871C15.5035 16.9908 14.475 17.3792 13.4099 17.3794C10.1186 17.3794 6.9621 16.0719 4.63479 13.7446C2.30747 11.4173 1 8.26079 1 4.96947C1.00024 3.9044 1.38855 2.87591 2.09228 2.07645C2.79601 1.27699 3.76692 0.761345 4.82335 0.625993C4.98016 0.605851 5.13923 0.637813 5.27608 0.716957C5.41294 0.796101 5.51998 0.918037 5.58072 1.06399L7.41484 5.34359C7.46254 5.45341 7.48249 5.57327 7.47294 5.69262C7.46339 5.81196 7.42464 5.92713 7.36009 6.02796L5.83622 8.3457C5.76838 8.45053 5.72856 8.57101 5.72057 8.69562C5.71259 8.82024 5.7367 8.94481 5.7906 9.05745V9.05745Z" stroke="#333333" stroke-linecap="round" stroke-linejoin="round"/>
</svg>
