<svg width="18" height="18" viewBox="0 0 18 18" fill="none" xmlns="http://www.w3.org/2000/svg">
<g id="Instagram">
<path id="Icon" d="M12.7355 1.79078C13.7281 1.79363 14.6792 2.17433 15.3811 2.84973C16.0829 3.52513 16.4786 4.44035 16.4815 5.3955V12.6042C16.4786 13.5593 16.0829 14.4745 15.3811 15.1499C14.6792 15.8253 13.7281 16.206 12.7355 16.2089H5.24421C4.25161 16.206 3.30052 15.8253 2.59864 15.1499C1.89676 14.4745 1.50114 13.5593 1.49818 12.6042V5.3955C1.50114 4.44035 1.89676 3.52513 2.59864 2.84973C3.30052 2.17433 4.25161 1.79363 5.24421 1.79078H12.7355ZM12.7355 0.349121H5.24421C2.35984 0.349121 0 2.61993 0 5.3955V12.6042C0 15.3797 2.35984 17.6505 5.24421 17.6505H12.7355C15.6199 17.6505 17.9797 15.3797 17.9797 12.6042V5.3955C17.9797 2.61993 15.6199 0.349121 12.7355 0.349121Z" fill="#333333"/>
<path id="Icon_2" d="M13.8592 5.39608C13.6369 5.39608 13.4197 5.33266 13.2349 5.21384C13.0501 5.09502 12.906 4.92614 12.821 4.72855C12.7359 4.53096 12.7137 4.31354 12.757 4.10378C12.8004 3.89402 12.9074 3.70134 13.0646 3.55012C13.2217 3.39889 13.422 3.2959 13.6399 3.25418C13.8579 3.21245 14.0839 3.23387 14.2892 3.31571C14.4945 3.39755 14.67 3.53615 14.7935 3.71398C14.917 3.8918 14.9829 4.10087 14.9829 4.31474C14.9832 4.45683 14.9544 4.59758 14.898 4.72891C14.8416 4.86024 14.7589 4.97957 14.6545 5.08004C14.5501 5.18051 14.4261 5.26015 14.2896 5.31439C14.1531 5.36862 14.0068 5.39638 13.8592 5.39608ZM8.9898 6.11671C9.5825 6.11671 10.1619 6.28584 10.6547 6.6027C11.1475 6.91957 11.5316 7.36994 11.7584 7.89687C11.9853 8.4238 12.0446 9.00361 11.929 9.56299C11.8133 10.1224 11.5279 10.6362 11.1088 11.0395C10.6897 11.4428 10.1558 11.7174 9.57444 11.8287C8.99312 11.94 8.39058 11.8829 7.84299 11.6646C7.29541 11.4463 6.82738 11.0767 6.49809 10.6025C6.16881 10.1283 5.99305 9.57075 5.99305 9.00041C5.9939 8.23586 6.3099 7.50285 6.87172 6.96223C7.43353 6.42161 8.19527 6.11753 8.9898 6.11671ZM8.9898 4.67506C8.10079 4.67506 7.23174 4.92873 6.49255 5.40401C5.75337 5.87929 5.17724 6.55481 4.83703 7.34517C4.49682 8.13553 4.40781 9.00521 4.58124 9.84425C4.75468 10.6833 5.18278 11.454 5.81141 12.0589C6.44004 12.6638 7.24095 13.0758 8.11288 13.2427C8.98482 13.4096 9.88859 13.3239 10.7099 12.9965C11.5313 12.6691 12.2333 12.1148 12.7272 11.4035C13.2211 10.6922 13.4847 9.85589 13.4847 9.00041C13.4847 7.85326 13.0112 6.75309 12.1682 5.94192C11.3252 5.13076 10.1819 4.67506 8.9898 4.67506Z" fill="#333333"/>
</g>
</svg>
