<svg width="30" height="31" viewBox="0 0 30 31" fill="none" xmlns="http://www.w3.org/2000/svg">
<g id="icons8-twitterx 1">
<path id="Vector" d="M6.5999 2.95469C4.2873 2.95469 2.3999 4.84209 2.3999 7.15469V23.9547C2.3999 26.2673 4.2873 28.1547 6.5999 28.1547H23.3999C25.7125 28.1547 27.5999 26.2673 27.5999 23.9547V7.15469C27.5999 4.84209 25.7125 2.95469 23.3999 2.95469H6.5999ZM6.5999 4.15469H23.3999C25.0641 4.15469 26.3999 5.49049 26.3999 7.15469V23.9547C26.3999 25.6189 25.0641 26.9547 23.3999 26.9547H6.5999C4.9357 26.9547 3.5999 25.6189 3.5999 23.9547V7.15469C3.5999 5.49049 4.9357 4.15469 6.5999 4.15469ZM7.85147 8.35469L13.3851 16.2168L7.7999 22.7547H9.2999L14.0624 17.1789L17.9858 22.7547H22.7483L16.6733 14.1227L21.5999 8.35469H20.0999L15.996 13.1605L12.614 8.35469H7.85147ZM10.1483 9.55469H11.987L20.4515 21.5547H18.6128L10.1483 9.55469Z" fill="white"/>
</g>
</svg>
