<svg width="24" height="25" viewBox="0 0 24 25" fill="none" xmlns="http://www.w3.org/2000/svg">
<g id="ant-design:facebook-filled" clip-path="url(#clip0_412_1077)">
<path id="Vector" d="M23.04 0.554688H0.96C0.429 0.554688 0 0.983687 0 1.51469V23.5947C0 24.1257 0.429 24.5547 0.96 24.5547H23.04C23.571 24.5547 24 24.1257 24 23.5947V1.51469C24 0.983687 23.571 0.554688 23.04 0.554688ZM20.268 7.55969H18.351C16.848 7.55969 16.557 8.27369 16.557 9.32369V11.6367H20.145L19.677 15.2577H16.557V24.5547H12.816V15.2607H9.687V11.6367H12.816V8.96669C12.816 5.86769 14.709 4.17869 17.475 4.17869C18.801 4.17869 19.938 4.27769 20.271 4.32269V7.55969H20.268Z" fill="white"/>
</g>
<defs>
<clipPath id="clip0_412_1077">
<rect width="24" height="24" fill="white" transform="translate(0 0.554688)"/>
</clipPath>
</defs>
</svg>
