<svg width="24" height="25" viewBox="0 0 24 25" fill="none" xmlns="http://www.w3.org/2000/svg">
<g id="ant-design:facebook-filled" clip-path="url(#clip0_185_1863)">
<path id="Vector" d="M23.04 0.5H0.96C0.429 0.5 0 0.929 0 1.46V23.54C0 24.071 0.429 24.5 0.96 24.5H23.04C23.571 24.5 24 24.071 24 23.54V1.46C24 0.929 23.571 0.5 23.04 0.5ZM20.268 7.505H18.351C16.848 7.505 16.557 8.219 16.557 9.269V11.582H20.145L19.677 15.203H16.557V24.5H12.816V15.206H9.687V11.582H12.816V8.912C12.816 5.813 14.709 4.124 17.475 4.124C18.801 4.124 19.938 4.223 20.271 4.268V7.505H20.268Z" fill="white"/>
</g>
<defs>
<clipPath id="clip0_185_1863">
<rect width="24" height="24" fill="white" transform="translate(0 0.5)"/>
</clipPath>
</defs>
</svg>
