<svg width="24" height="24" viewBox="0 0 24 24" fill="none" xmlns="http://www.w3.org/2000/svg">
<g id="icons8-twitterx 1">
<path id="Vector" d="M5.75418 2.33984C3.98119 2.33984 2.53418 3.78685 2.53418 5.55984V18.4398C2.53418 20.2128 3.98119 21.6598 5.75418 21.6598H18.6342C20.4072 21.6598 21.8542 20.2128 21.8542 18.4398V5.55984C21.8542 3.78685 20.4072 2.33984 18.6342 2.33984H5.75418ZM5.75418 3.25984H18.6342C19.9101 3.25984 20.9342 4.28396 20.9342 5.55984V18.4398C20.9342 19.7157 19.9101 20.7398 18.6342 20.7398H5.75418C4.47829 20.7398 3.45418 19.7157 3.45418 18.4398V5.55984C3.45418 4.28396 4.47829 3.25984 5.75418 3.25984ZM6.71371 6.47984L10.9561 12.5075L6.67418 17.5198H7.82418L11.4754 13.2451L14.4834 17.5198H18.1346L13.4771 10.902L17.2542 6.47984H16.1042L12.9579 10.1643L10.365 6.47984H6.71371ZM8.47465 7.39984H9.8843L16.3737 16.5998H14.9641L8.47465 7.39984Z" fill="white"/>
</g>
</svg>
