<svg width="18" height="18" viewBox="0 0 18 18" fill="none" xmlns="http://www.w3.org/2000/svg">
<g id="Instagram">
<path id="Icon" d="M12.7355 1.79078C13.7281 1.79363 14.6792 2.17433 15.3811 2.84973C16.0829 3.52513 16.4786 4.44035 16.4815 5.3955V12.6042C16.4786 13.5593 16.0829 14.4745 15.3811 15.1499C14.6792 15.8253 13.7281 16.206 12.7355 16.2089H5.24421C4.25161 16.206 3.30052 15.8253 2.59864 15.1499C1.89676 14.4745 1.50114 13.5593 1.49818 12.6042V5.3955C1.50114 4.44035 1.89676 3.52513 2.59864 2.84973C3.30052 2.17433 4.25161 1.79363 5.24421 1.79078H12.7355ZM12.7355 0.349121H5.24421C2.35984 0.349121 0 2.61993 0 5.3955V12.6042C0 15.3797 2.35984 17.6505 5.24421 17.6505H12.7355C15.6199 17.6505 17.9797 15.3797 17.9797 12.6042V5.3955C17.9797 2.61993 15.6199 0.349121 12.7355 0.349121Z" fill="white"/>
<path id="Icon_2" d="M13.8594 5.39608C13.6372 5.39608 13.4199 5.33266 13.2351 5.21384C13.0503 5.09502 12.9063 4.92614 12.8212 4.72855C12.7362 4.53096 12.7139 4.31354 12.7573 4.10378C12.8006 3.89402 12.9077 3.70134 13.0648 3.55012C13.222 3.39889 13.4222 3.2959 13.6402 3.25418C13.8582 3.21245 14.0841 3.23387 14.2894 3.31571C14.4948 3.39755 14.6703 3.53615 14.7938 3.71398C14.9172 3.8918 14.9831 4.10087 14.9831 4.31474C14.9835 4.45683 14.9546 4.59758 14.8983 4.72891C14.8419 4.86024 14.7591 4.97957 14.6547 5.08004C14.5503 5.18051 14.4263 5.26015 14.2898 5.31439C14.1533 5.36862 14.0071 5.39638 13.8594 5.39608ZM8.99005 6.11671C9.58275 6.11671 10.1621 6.28584 10.655 6.6027C11.1478 6.91957 11.5319 7.36994 11.7587 7.89687C11.9855 8.4238 12.0448 9.00361 11.9292 9.56299C11.8136 10.1224 11.5282 10.6362 11.1091 11.0395C10.69 11.4428 10.156 11.7174 9.57468 11.8287C8.99337 11.94 8.39082 11.8829 7.84324 11.6646C7.29565 11.4463 6.82763 11.0767 6.49834 10.6025C6.16905 10.1283 5.99329 9.57075 5.99329 9.00041C5.99414 8.23586 6.31015 7.50285 6.87196 6.96223C7.43378 6.42161 8.19552 6.11753 8.99005 6.11671ZM8.99005 4.67506C8.10103 4.67506 7.23199 4.92873 6.4928 5.40401C5.75361 5.87929 5.17749 6.55481 4.83728 7.34517C4.49706 8.13553 4.40805 9.00521 4.58149 9.84425C4.75493 10.6833 5.18303 11.454 5.81165 12.0589C6.44028 12.6638 7.2412 13.0758 8.11313 13.2427C8.98506 13.4096 9.88884 13.3239 10.7102 12.9965C11.5315 12.6691 12.2335 12.1148 12.7274 11.4035C13.2213 10.6922 13.485 9.85589 13.485 9.00041C13.485 7.85326 13.0114 6.75309 12.1684 5.94192C11.3255 5.13076 10.1822 4.67506 8.99005 4.67506Z" fill="white"/>
</g>
</svg>
