<svg width="19" height="20" viewBox="0 0 19 20" fill="none" xmlns="http://www.w3.org/2000/svg">
<g id="Linked-In">
<path id="Icon" d="M17.2968 0.977051H2.23628C1.41335 0.977051 0.694336 1.56918 0.694336 2.38245V17.4764C0.694336 18.2941 1.41335 19.0228 2.23628 19.0228H17.2924C18.1198 19.0228 18.7401 18.2893 18.7401 17.4764V2.38245C18.7449 1.56918 18.1198 0.977051 17.2968 0.977051ZM6.28812 16.0191H3.7029V7.98106H6.28812V16.0191ZM5.08494 6.75895H5.06641C4.23904 6.75895 3.70331 6.14305 3.70331 5.37208C3.70331 4.58701 4.25314 3.98562 5.09903 3.98562C5.94493 3.98562 6.46254 4.58258 6.48107 5.37208C6.48066 6.14305 5.94493 6.75895 5.08494 6.75895ZM15.7364 16.0191H13.1512V11.6241C13.1512 10.5711 12.7749 9.8517 11.8396 9.8517C11.125 9.8517 10.7021 10.3351 10.514 10.806C10.4435 10.9751 10.4246 11.2055 10.4246 11.4408V16.0191H7.83933V7.98106H10.4246V9.09966C10.8008 8.56393 11.3885 7.79295 12.756 7.79295C14.453 7.79295 15.7368 8.91155 15.7368 11.3232L15.7364 16.0191Z" fill="white"/>
</g>
</svg>
