<svg width="17" height="20" viewBox="0 0 17 20" fill="none" xmlns="http://www.w3.org/2000/svg">
<g id="&#240;&#159;&#166;&#134; icon &#34;location&#34;">
<g id="Group">
<path id="Vector" d="M8.49706 11.8458C6.68034 11.8458 5.19629 10.3703 5.19629 8.5451C5.19629 6.71992 6.68034 5.25293 8.49706 5.25293C10.3137 5.25293 11.7978 6.72845 11.7978 8.55363C11.7978 10.3788 10.3137 11.8458 8.49706 11.8458ZM8.49706 6.53228C7.38828 6.53228 6.47564 7.43636 6.47564 8.55363C6.47564 9.67093 7.37975 10.575 8.49706 10.575C9.61436 10.575 10.5184 9.67093 10.5184 8.55363C10.5184 7.43636 9.60583 6.53228 8.49706 6.53228Z" fill="white"/>
<path id="Vector_2" d="M8.49737 19.1731C7.23507 19.1731 5.96424 18.6955 4.97487 17.7487C2.45881 15.3265 -0.321651 11.4628 0.727419 6.8657C1.67414 2.695 5.31603 0.827148 8.49737 0.827148H8.5059C11.6872 0.827148 15.3291 2.695 16.2758 6.87423C17.3164 11.4714 14.5359 15.3265 12.0199 17.7487C11.0305 18.6955 9.75966 19.1731 8.49737 19.1731ZM8.49737 2.1065C6.01541 2.1065 2.82556 3.4285 1.98119 7.14716C1.06005 11.1643 3.58464 14.6271 5.87042 16.8191C7.34595 18.2434 9.65732 18.2434 11.1328 16.8191C13.4101 14.6271 15.9347 11.1643 15.0306 7.14716C14.1777 3.4285 10.9793 2.1065 8.49737 2.1065Z" fill="white"/>
</g>
</g>
</svg>
