<svg width="34" height="33" viewBox="0 0 34 33" fill="none" xmlns="http://www.w3.org/2000/svg">
<path id="Icon" d="M10.5754 16.6033C11.9201 19.3801 14.1655 21.6197 16.9457 22.9572C17.1508 23.0544 17.3777 23.0964 17.6039 23.0792C17.8302 23.062 18.0481 22.9862 18.2361 22.8592L22.3197 20.1314C22.5001 20.0091 22.7086 19.9344 22.9256 19.9144C23.1427 19.8944 23.3613 19.9297 23.5611 20.0171L31.2054 23.3003C31.4667 23.409 31.685 23.6006 31.8267 23.8456C31.9683 24.0906 32.0255 24.3753 31.9895 24.656C31.7472 26.5471 30.8242 28.2851 29.3931 29.5448C27.962 30.8045 26.121 31.4996 24.2144 31.5C18.3228 31.5 12.6725 29.1596 8.50646 24.9935C4.34044 20.8275 2 15.1772 2 9.28557C2.00043 7.37904 2.69553 5.538 3.95524 4.10692C5.21495 2.67584 6.95294 1.75281 8.844 1.51052C9.12469 1.47446 9.40944 1.53168 9.65441 1.67335C9.89939 1.81502 10.091 2.03329 10.1997 2.29456L13.4829 9.95527C13.5683 10.1518 13.604 10.3664 13.5869 10.58C13.5698 10.7937 13.5004 10.9998 13.3849 11.1803L10.6571 15.3292C10.5357 15.5169 10.4644 15.7325 10.4501 15.9556C10.4358 16.1786 10.4789 16.4016 10.5754 16.6033V16.6033Z" stroke="#1B4071" stroke-width="3" stroke-linecap="round" stroke-linejoin="round"/>
</svg>
