<svg width="90" height="86" viewBox="0 0 90 86" fill="none" xmlns="http://www.w3.org/2000/svg">
<g id="clarity:users-line" clip-path="url(#clip0_185_1661)">
<path id="Vector" d="M46.1911 40.9401C54.5304 40.9401 61.0166 34.2199 61.0166 25.9723C61.0166 17.7248 54.2216 11.31 45.8822 11.31C37.5428 11.31 31.0566 18.0302 31.0566 25.9723C31.0566 34.2199 37.8517 40.9401 46.1911 40.9401ZM45.8822 17.4193C46.1911 17.4193 46.1911 17.4193 45.8822 17.4193C50.824 17.4193 54.8393 21.3903 54.8393 26.2778C54.8393 31.1652 50.824 34.8308 45.8822 34.8308C40.9403 34.8308 37.234 30.8598 37.234 26.2778C37.234 21.3903 41.2492 17.4193 45.8822 17.4193Z" fill="white"/>
<path id="Vector_2" d="M91.9026 39.1068C86.0341 33.9139 78.3125 31.1647 70.282 31.4702H67.811C67.1933 33.9139 66.2667 36.0522 65.0312 37.885C66.8844 37.5795 68.4288 37.5795 70.282 37.5795C76.1504 37.274 82.0189 39.1068 86.6519 42.4669V64.4604H92.8292V40.0232L91.9026 39.1068Z" fill="white"/>
<path id="Vector_3" d="M63.1796 11.9199C64.7239 8.25432 69.048 6.42153 73.0633 7.94886C76.7697 9.47618 78.6229 13.7527 77.0786 17.7238C75.8431 20.4729 73.0633 22.3057 70.2835 22.3057C69.6658 22.3057 68.7392 22.3057 68.1214 22.0003C68.4303 23.5276 68.4303 25.0549 68.4303 26.2768V28.1096C69.048 28.1096 69.6658 28.415 70.2835 28.415C78.0052 28.415 84.1825 22.3057 84.1825 14.9746C84.1825 7.33793 78.0051 1.22861 70.5924 1.22861C65.6505 1.22861 61.3264 3.67234 58.8555 7.94886C60.3998 8.86525 61.9441 10.0871 63.1796 11.9199Z" fill="white"/>
<path id="Vector_4" d="M27.9678 38.1906C26.7324 36.3578 25.8058 34.2196 25.188 31.7758H22.7171C14.6866 31.4704 6.96497 34.2196 1.09652 39.107L0.169922 40.0234V64.4607H6.34723V42.4671C11.2891 39.107 16.8487 37.2742 22.7171 37.5797C24.5703 37.5797 26.4235 37.8851 27.9678 38.1906Z" fill="white"/>
<path id="Vector_5" d="M22.7162 28.1107C23.334 28.1107 23.9517 28.1107 24.5694 27.8052V25.9725C24.5694 24.4451 24.5694 22.9178 24.8783 21.6959C24.2606 22.0014 23.334 22.0014 22.7162 22.0014C18.701 22.0014 15.3035 18.6413 15.3035 14.6702C15.3035 10.6992 18.701 7.33905 22.7162 7.33905C25.8049 7.33905 28.5847 9.17185 29.8201 11.921C31.0556 10.3937 32.9088 8.86638 34.4531 7.64452C30.4379 1.22974 22.0985 -0.908516 15.6123 3.06254C9.12615 7.03359 6.96409 15.2812 10.9793 21.6959C13.4503 25.667 17.7744 28.1107 22.7162 28.1107Z" fill="white"/>
<path id="Vector_6" d="M71.5184 57.4349L70.9006 56.5185C64.7233 49.7983 56.0751 45.8272 46.8091 46.1327C37.5432 45.8272 28.5861 49.7983 22.4087 56.5185L21.791 57.4349V80.6503C21.791 83.3995 23.9531 85.8432 27.0417 85.8432H66.5765C69.3563 85.8432 71.8272 83.3995 71.8272 80.6503V57.4349H71.5184ZM65.3411 79.7339H27.9683V59.5732C32.9102 54.6857 39.7052 52.242 46.8091 52.242C53.6042 51.9365 60.3992 54.6857 65.3411 59.5732V79.7339Z" fill="white"/>
</g>
<defs>
<clipPath id="clip0_185_1661">
<rect width="93" height="85" fill="white" transform="translate(0 0.945312)"/>
</clipPath>
</defs>
</svg>
