<svg width="65" height="87" viewBox="0 0 65 87" fill="none" xmlns="http://www.w3.org/2000/svg">
<g id="fa-solid:award" clip-path="url(#clip0_185_1691)">
<path id="Vector" d="M16.685 61.6504C15.2367 60.1956 15.9917 60.6057 12.4984 59.6666C10.9134 59.2397 9.52004 58.4193 8.26004 57.4366L0.698376 76.0594C-0.0332906 77.8624 1.33338 79.8211 3.27004 79.7475L12.0517 79.411L18.0917 85.8195C19.425 87.2324 21.765 86.7921 22.4967 84.9891L31.1717 63.6241C29.365 64.6353 27.36 65.2279 25.2867 65.2279C22.0367 65.2279 18.9834 63.9573 16.685 61.6504ZM64.2984 76.0594L56.7367 57.4366C55.4767 58.421 54.0834 59.2397 52.4984 59.6666C48.9867 60.6108 49.7567 60.1989 48.3117 61.6504C46.0134 63.9573 42.9584 65.2279 39.7084 65.2279C37.635 65.2279 35.63 64.6336 33.8234 63.6241L42.4984 84.9891C43.23 86.7921 45.5717 87.2324 46.9034 85.8195L52.945 79.411L61.7267 79.7475C63.6634 79.8211 65.0301 77.8608 64.2984 76.0594ZM44.3317 57.8619C46.8784 55.2586 47.1701 55.483 50.7967 54.4902C53.1117 53.8557 54.9217 52.0058 55.5417 49.6387C56.7884 44.8842 56.465 45.4584 59.8667 41.9796C61.5617 40.2469 62.2234 37.7207 61.6034 35.3535C60.3584 30.6024 60.3567 31.2653 61.6034 26.5092C62.2234 24.142 61.5617 21.6158 59.8667 19.8831C56.465 16.4043 56.7884 16.9768 55.5417 12.2241C54.9217 9.85686 53.1117 8.00698 50.7967 7.37249C46.1501 6.09849 46.71 6.43164 43.305 2.95117C41.6101 1.21847 39.1384 0.540459 36.8234 1.17495C32.1784 2.44727 32.8267 2.44894 28.1734 1.17495C25.8584 0.540459 23.3867 1.2168 21.6917 2.95117C18.29 6.42997 18.85 6.09849 14.2017 7.37249C11.8867 8.00698 10.0767 9.85686 9.45671 12.2241C8.21171 16.9768 8.53338 16.4043 5.13171 19.8831C3.43671 21.6158 2.77338 24.142 3.39504 26.5092C4.64004 31.257 4.64171 30.594 3.39504 35.3518C2.77504 37.719 3.43671 40.2452 5.13171 41.9796C8.53338 45.4584 8.21004 44.8842 9.45671 49.6387C10.0767 52.0058 11.8867 53.8557 14.2017 54.4902C17.9317 55.5114 18.21 55.3507 20.665 57.8619C22.87 60.1169 26.305 60.5204 28.955 58.8362C30.0147 58.1605 31.244 57.8016 32.4992 57.8016C33.7544 57.8016 34.9837 58.1605 36.0434 58.8362C38.6917 60.5204 42.1267 60.1169 44.3317 57.8619ZM16.775 30.3998C16.775 21.522 23.815 14.3251 32.4984 14.3251C41.1817 14.3251 48.2217 21.522 48.2217 30.3998C48.2217 39.2776 41.1817 46.4746 32.4984 46.4746C23.815 46.4746 16.775 39.2776 16.775 30.3998Z" fill="white"/>
</g>
<defs>
<clipPath id="clip0_185_1691">
<rect width="64" height="85.7143" fill="white" transform="translate(0.5 0.945312)"/>
</clipPath>
</defs>
</svg>
