<svg width="90" height="81" viewBox="0 0 90 81" fill="none" xmlns="http://www.w3.org/2000/svg">
<g id="carbon:notebook" clip-path="url(#clip0_185_1681)">
<path id="Vector" d="M54.6406 19.1397H77.1366V26.4083H54.6406V19.1397Z" fill="white"/>
<path id="Vector_2" d="M54.6406 37.3114H77.1366V44.58H54.6406V37.3114Z" fill="white"/>
<path id="Vector_3" d="M54.6406 55.4825H77.1366V62.7511H54.6406V55.4825Z" fill="white"/>
<path id="Vector_4" d="M83.5714 0.945312H6.42857C4.72413 0.947238 3.08999 1.71409 1.88476 3.07757C0.679542 4.44106 0.00170189 6.28978 0 8.21804V73.6726C0.00170189 75.6008 0.679542 77.4496 1.88476 78.8131C3.08999 80.1765 4.72413 80.9434 6.42857 80.9453H83.5714C85.2756 80.9424 86.9093 80.1753 88.1143 78.812C89.3193 77.4487 89.9974 75.6005 90 73.6726V8.21804C89.9983 6.28978 89.3205 4.44106 88.1152 3.07757C86.91 1.71409 85.2759 0.947238 83.5714 0.945312ZM6.42857 8.21804H41.7857V73.6726H6.42857V8.21804ZM48.2143 73.6726V8.21804H83.5714L83.5779 73.6726H48.2143Z" fill="white"/>
</g>
<defs>
<clipPath id="clip0_185_1681">
<rect width="90" height="80" fill="white" transform="translate(0 0.945312)"/>
</clipPath>
</defs>
</svg>
