<svg id="Layer_1" data-name="Layer 1" xmlns="http://www.w3.org/2000/svg" viewBox="0 0 50 50"><defs><style>.cls-1{fill:#f7fafb;}.cls-2{fill:none;stroke:#f7fafb;stroke-miterlimit:10;}</style></defs><g id="Layer_1-2" data-name="Layer 1"><path class="cls-1" d="M24.91,35.59a.65.65,0,0,1-.65-.67.66.66,0,0,1,.64-.65,12,12,0,0,0,8.16-3.37.66.66,0,0,1,.92.94,13.32,13.32,0,0,1-9.06,3.75Z"/><path class="cls-1" d="M24.49,10.22a.66.66,0,0,1,0-1.32h.22a.66.66,0,0,1,0,1.32h-.21Z"/><path class="cls-1" d="M12,22.91a.66.66,0,0,1-.65-.66,13.33,13.33,0,0,1,4.56-10,.66.66,0,0,1,.89,1l0,0a12.09,12.09,0,0,0-4.11,9.05.66.66,0,0,1-.65.66Z"/><path class="cls-1" d="M24.49,35.59h0a13.28,13.28,0,0,1-9-3.75.66.66,0,0,1,.91-.95h0a11.93,11.93,0,0,0,8.16,3.38.66.66,0,0,1,0,1.32Z"/><path class="cls-1" d="M15.88,32a.64.64,0,0,1-.45-.19,13.23,13.23,0,0,1-4.08-9.59.66.66,0,1,1,1.31,0,12,12,0,0,0,3.68,8.65.65.65,0,0,1,0,.93.69.69,0,0,1-.47.2Z"/><path class="cls-1" d="M24.7,35.6h-.22a.66.66,0,0,1-.64-.68.67.67,0,0,1,.65-.64h.21a.66.66,0,0,1,0,1.32Z"/><path class="cls-1" d="M24.7,35.6a.66.66,0,0,1,0-1.32h.19a.68.68,0,0,1,.68.65.67.67,0,0,1-.65.67H24.7Z"/><path class="cls-1" d="M33.06,13.37a.63.63,0,0,1-.43-.17,12,12,0,0,0-7.73-3,.66.66,0,0,1-.65-.67.67.67,0,0,1,.67-.65,13.37,13.37,0,0,1,8.58,3.31.66.66,0,0,1,.06.93A.69.69,0,0,1,33.06,13.37Z"/><path class="cls-1" d="M16.34,13.37a.67.67,0,0,1-.66-.66.66.66,0,0,1,.23-.5A13.32,13.32,0,0,1,24.48,8.9a.64.64,0,0,1,.67.65.66.66,0,0,1-.65.67,12.06,12.06,0,0,0-7.73,3A.63.63,0,0,1,16.34,13.37Z"/><path class="cls-1" d="M24.91,10.22H24.7a.66.66,0,0,1,0-1.32h.22a.66.66,0,0,1,.64.68.67.67,0,0,1-.65.64Z"/><path class="cls-1" d="M33.52,32a.66.66,0,0,1-.66-.66.63.63,0,0,1,.2-.47,12,12,0,0,0-.43-17.7.66.66,0,0,1-.08-.93.67.67,0,0,1,.93-.08l0,0a13.39,13.39,0,0,1,4.56,10A13.23,13.23,0,0,1,34,31.84.68.68,0,0,1,33.52,32Z"/><path class="cls-1" d="M20.12,15.47a.66.66,0,0,1-.58-1,16.15,16.15,0,0,1,4.78-5.32.67.67,0,0,1,.92.15.66.66,0,0,1-.16.92,14.88,14.88,0,0,0-4.39,4.88A.64.64,0,0,1,20.12,15.47Z"/><path class="cls-1" d="M24.7,10.37a.65.65,0,0,1-.38-1.19l.07-.06.14-.1a.66.66,0,0,1,.75,1.08l-.08.06-.12.09A.64.64,0,0,1,24.7,10.37Z"/><path class="cls-1" d="M19.78,29.66a.66.66,0,0,1-.59-.36,15.8,15.8,0,0,1-1.65-7,.66.66,0,1,1,1.31,0,14.46,14.46,0,0,0,1.52,6.46.67.67,0,0,1-.3.89.72.72,0,0,1-.29.06Z"/><path class="cls-1" d="M24.91,35.59a.7.7,0,0,1-.37-.11l-.15-.11-.07-.06a.66.66,0,0,1,.76-1.07l.12.09.08.06a.66.66,0,0,1-.37,1.2Z"/><path class="cls-1" d="M24.7,35.43a.64.64,0,0,1-.38-.12,16,16,0,0,1-5.13-6,.66.66,0,1,1,1.18-.58h0a14.82,14.82,0,0,0,4.71,5.53.65.65,0,0,1-.38,1.19Z"/><path class="cls-1" d="M18.2,22.91a.66.66,0,0,1-.66-.66,16,16,0,0,1,2-7.75.66.66,0,1,1,1.16.63h0a14.82,14.82,0,0,0-1.84,7.11A.66.66,0,0,1,18.2,22.91Z"/><path class="cls-1" d="M20.12,15.47a.62.62,0,0,1-.23,0,13.77,13.77,0,0,1-4-2.21.66.66,0,1,1,.82-1h0a12.69,12.69,0,0,0,3.59,2,.66.66,0,0,1,.4.84.67.67,0,0,1-.62.43Z"/><path class="cls-1" d="M29.28,15.47a.65.65,0,0,1-.22-1.27,12.69,12.69,0,0,0,3.59-2,.67.67,0,0,1,.93.11.65.65,0,0,1-.11.92,13.77,13.77,0,0,1-4,2.21A.59.59,0,0,1,29.28,15.47Z"/><path class="cls-1" d="M24.7,16.29a.66.66,0,0,1,0-1.32h0a12.49,12.49,0,0,0,4.36-.78.66.66,0,0,1,.84.4.65.65,0,0,1-.39.84A13.86,13.86,0,0,1,24.7,16.29Z"/><path class="cls-1" d="M24.7,16.29a13.86,13.86,0,0,1-4.81-.86.66.66,0,0,1,.45-1.24A12.49,12.49,0,0,0,24.7,15a.66.66,0,0,1,0,1.32Z"/><path class="cls-1" d="M33.52,32a.63.63,0,0,1-.43-.17,12.77,12.77,0,0,0-3.71-2.24.67.67,0,0,1-.37-.86.65.65,0,0,1,.85-.37A14.13,14.13,0,0,1,34,30.87a.67.67,0,0,1,.07.93.69.69,0,0,1-.5.23Z"/><path class="cls-1" d="M29.62,29.66a.67.67,0,0,1-.24,0,12.73,12.73,0,0,0-4.68-.9.66.66,0,0,1,0-1.32h0a14.21,14.21,0,0,1,5.16,1,.66.66,0,0,1,.37.86.65.65,0,0,1-.61.41Z"/><path class="cls-1" d="M19.78,29.66a.66.66,0,0,1-.24-1.27,14,14,0,0,1,5.16-1,.66.66,0,1,1,0,1.31,12.73,12.73,0,0,0-4.68.9A.67.67,0,0,1,19.78,29.66Z"/><path class="cls-1" d="M15.89,32a.66.66,0,0,1-.66-.66.65.65,0,0,1,.22-.5,14.13,14.13,0,0,1,4.09-2.48A.66.66,0,0,1,20,29.62a12.53,12.53,0,0,0-3.7,2.25A.69.69,0,0,1,15.89,32Z"/><path class="cls-1" d="M31.21,22.91a.66.66,0,0,1-.66-.66h0a14.71,14.71,0,0,0-1.84-7.11.66.66,0,0,1,.25-.9.65.65,0,0,1,.89.25h0a16.15,16.15,0,0,1,2,7.75.67.67,0,0,1-.66.66Z"/><path class="cls-1" d="M24.7,10.37a.63.63,0,0,1-.37-.12l-.13-.09-.08-.06A.66.66,0,0,1,24.87,9l.13.1.08.05a.67.67,0,0,1,.16.92.64.64,0,0,1-.54.28Z"/><path class="cls-1" d="M24.49,35.59a.66.66,0,0,1-.65-.66.62.62,0,0,1,.29-.54l.07-.06a.6.6,0,0,1,.13-.09.65.65,0,0,1,.91.18.67.67,0,0,1-.16.9l-.07,0-.15.11A.67.67,0,0,1,24.49,35.59Z"/><path class="cls-1" d="M29.62,29.66A.66.66,0,0,1,29,29a.73.73,0,0,1,.07-.29,14.46,14.46,0,0,0,1.52-6.46.66.66,0,0,1,.67-.65.67.67,0,0,1,.65.65,15.81,15.81,0,0,1-1.66,7.05A.66.66,0,0,1,29.62,29.66Z"/><path class="cls-1" d="M24.7,35.43a.65.65,0,0,1-.38-1.19A14.73,14.73,0,0,0,29,28.71a.66.66,0,0,1,.88-.3.66.66,0,0,1,.3.88h0a15.89,15.89,0,0,1-5.13,6A.64.64,0,0,1,24.7,35.43Z"/><path class="cls-1" d="M29.28,15.47a.65.65,0,0,1-.57-.34,14.88,14.88,0,0,0-4.39-4.88.66.66,0,0,1-.16-.92.67.67,0,0,1,.92-.15,16.22,16.22,0,0,1,4.78,5.31.66.66,0,0,1-.58,1Z"/><path class="cls-1" d="M18.2,22.91H12a.66.66,0,0,1,0-1.32h6.2a.66.66,0,0,1,0,1.32Z"/><path class="cls-1" d="M31.21,22.91H24.7a.66.66,0,1,1,0-1.32h6.51a.66.66,0,0,1,0,1.32Z"/><path class="cls-1" d="M24.7,22.91H18.2a.66.66,0,1,1,0-1.32h6.5a.66.66,0,1,1,0,1.32Z"/><path class="cls-1" d="M37,22.91H31.21a.66.66,0,0,1,0-1.32H37a.66.66,0,1,1,0,1.32Z"/><path class="cls-1" d="M24.7,16.29a.66.66,0,0,1-.66-.66h0V9.71a.66.66,0,0,1,1.32,0v5.92A.66.66,0,0,1,24.7,16.29Z"/><path class="cls-1" d="M24.7,22.91a.67.67,0,0,1-.66-.66h0V15.63a.66.66,0,0,1,1.32,0v6.62a.67.67,0,0,1-.66.66Z"/><path class="cls-1" d="M24.7,35.43a.66.66,0,0,1-.66-.65h0V28.06a.66.66,0,0,1,1.32,0v6.72a.65.65,0,0,1-.66.65Z"/><path class="cls-1" d="M24.7,10.37A.66.66,0,0,1,24,9.71V9.55a.66.66,0,0,1,.68-.64.65.65,0,0,1,.64.64v.16A.65.65,0,0,1,24.7,10.37Z"/><path class="cls-1" d="M24.7,28.72a.66.66,0,0,1-.66-.66h0V22.25a.66.66,0,0,1,1.32,0v5.81a.65.65,0,0,1-.66.66Z"/><path class="cls-1" d="M24.7,35.6a.66.66,0,0,1-.66-.66h0v-.16a.66.66,0,0,1,1.32,0v.16a.65.65,0,0,1-.66.66Z"/></g><path class="cls-2" d="M23.18,39.09s-12.43-.88-14.6-14"/><polygon class="cls-1" points="8.26 21.54 10.82 26.26 8.67 25.31 6.78 26.7 8.26 21.54"/></svg>