<svg id="Layer_1" data-name="Layer 1" xmlns="http://www.w3.org/2000/svg" viewBox="0 0 50 50"><defs><style>.cls-1{fill:#f7fafb;}</style></defs><g id="Layer_1-2" data-name="Layer 1"><path class="cls-1" d="M23.19,30.72a.56.56,0,0,1-.57-.56.57.57,0,0,1,.56-.58,10.39,10.39,0,0,0,7.08-2.92.56.56,0,0,1,.8,0,.58.58,0,0,1,0,.8,11.53,11.53,0,0,1-7.85,3.24Z"/><path class="cls-1" d="M22.83,8.74a.57.57,0,0,1,0-1.14H23a.57.57,0,0,1,.57.57.56.56,0,0,1-.57.57h-.18Z"/><path class="cls-1" d="M12,19.73a.57.57,0,0,1-.57-.57,11.57,11.57,0,0,1,4-8.69.57.57,0,1,1,.78.84l0,0a10.45,10.45,0,0,0-3.56,7.83A.56.56,0,0,1,12,19.73Z"/><path class="cls-1" d="M22.83,30.72h0A11.48,11.48,0,0,1,15,27.48a.57.57,0,0,1,0-.81.58.58,0,0,1,.81,0,10.34,10.34,0,0,0,7.07,2.92.58.58,0,1,1,0,1.15Z"/><path class="cls-1" d="M15.37,27.64a.57.57,0,0,1-.39-.16,11.5,11.5,0,0,1-3.54-8.32.58.58,0,0,1,.57-.57.57.57,0,0,1,.57.57,10.34,10.34,0,0,0,3.19,7.5.57.57,0,0,1,0,.81A.55.55,0,0,1,15.37,27.64Z"/><path class="cls-1" d="M23,30.73h-.19a.56.56,0,0,1-.56-.57.57.57,0,0,1,.57-.57H23a.57.57,0,0,1,.57.57.56.56,0,0,1-.57.57Z"/><path class="cls-1" d="M23,30.73a.57.57,0,0,1-.57-.57.58.58,0,0,1,.57-.57h.17a.58.58,0,0,1,.58.56.57.57,0,0,1-.55.58H23Z"/><path class="cls-1" d="M30.26,11.47a.57.57,0,0,1-.38-.14,10.42,10.42,0,0,0-6.7-2.59.57.57,0,0,1-.56-.58.58.58,0,0,1,.58-.56,11.56,11.56,0,0,1,7.43,2.87.58.58,0,0,1,.06.81.59.59,0,0,1-.43.19Z"/><path class="cls-1" d="M15.77,11.47a.57.57,0,0,1-.57-.57.59.59,0,0,1,.19-.43A11.56,11.56,0,0,1,22.82,7.6a.57.57,0,1,1,0,1.14,10.42,10.42,0,0,0-6.7,2.59A.55.55,0,0,1,15.77,11.47Z"/><path class="cls-1" d="M23.19,8.74H23a.57.57,0,0,1-.57-.57A.58.58,0,0,1,23,7.59h.19a.57.57,0,0,1,.57.57.58.58,0,0,1-.58.57Z"/><path class="cls-1" d="M30.65,27.64a.58.58,0,0,1-.57-.57.54.54,0,0,1,.18-.41,10.41,10.41,0,0,0-.38-15.33.58.58,0,0,1-.07-.81.57.57,0,0,1,.8-.07l0,0a11.55,11.55,0,0,1,.42,17A.59.59,0,0,1,30.65,27.64Z"/><path class="cls-1" d="M19,13.29a.57.57,0,0,1-.57-.57.64.64,0,0,1,.07-.27,14.08,14.08,0,0,1,4.14-4.61.58.58,0,0,1,.8.14.57.57,0,0,1-.14.79h0A12.94,12.94,0,0,0,19.54,13,.57.57,0,0,1,19,13.29Z"/><path class="cls-1" d="M23,8.88a.57.57,0,0,1-.33-1l.07,0,.12-.09a.57.57,0,0,1,.65.94l-.07,0-.11.08A.55.55,0,0,1,23,8.88Z"/><path class="cls-1" d="M18.75,25.59a.55.55,0,0,1-.51-.32,13.72,13.72,0,0,1-1.44-6.11.58.58,0,0,1,1.15,0,12.62,12.62,0,0,0,1.31,5.61.57.57,0,0,1-.26.76h0A.54.54,0,0,1,18.75,25.59Z"/><path class="cls-1" d="M23.19,30.72a.62.62,0,0,1-.32-.09l-.13-.1-.06,0a.57.57,0,0,1,.66-.94l.1.08.07.05a.57.57,0,0,1,.15.79.55.55,0,0,1-.47.25Z"/><path class="cls-1" d="M23,30.59a.64.64,0,0,1-.33-.1,14,14,0,0,1-4.44-5.22.57.57,0,0,1,1-.5,12.84,12.84,0,0,0,4.08,4.79.56.56,0,0,1,.14.79.58.58,0,0,1-.47.24Z"/><path class="cls-1" d="M17.38,19.73a.58.58,0,0,1-.58-.57h0a13.92,13.92,0,0,1,1.74-6.71.57.57,0,0,1,1,.54h0A12.79,12.79,0,0,0,18,19.16a.57.57,0,0,1-.57.57Z"/><path class="cls-1" d="M19,13.3l-.19,0a12.35,12.35,0,0,1-3.44-1.91.57.57,0,1,1,.71-.9h0a11,11,0,0,0,3.12,1.74.57.57,0,0,1,.34.73A.59.59,0,0,1,19,13.3Z"/><path class="cls-1" d="M27,13.3a.58.58,0,0,1-.57-.58.56.56,0,0,1,.38-.53,11.08,11.08,0,0,0,3.11-1.74.57.57,0,0,1,.8.1.58.58,0,0,1-.09.8,12.16,12.16,0,0,1-3.43,1.91Z"/><path class="cls-1" d="M23,14a.57.57,0,0,1-.57-.57.58.58,0,0,1,.57-.57,11.07,11.07,0,0,0,3.78-.67.57.57,0,0,1,.39,1.07h0A12.14,12.14,0,0,1,23,14Z"/><path class="cls-1" d="M23,14a12,12,0,0,1-4.16-.74.57.57,0,1,1,.39-1.07,11.05,11.05,0,0,0,3.77.67.57.57,0,0,1,.57.57A.56.56,0,0,1,23,14Z"/><path class="cls-1" d="M30.65,27.64a.55.55,0,0,1-.37-.14,11,11,0,0,0-3.21-1.95.57.57,0,0,1-.31-.74.56.56,0,0,1,.72-.32A12.26,12.26,0,0,1,31,26.64a.57.57,0,0,1,0,.8.55.55,0,0,1-.43.2Z"/><path class="cls-1" d="M27.28,25.59a.46.46,0,0,1-.21,0A11.27,11.27,0,0,0,23,24.77a.57.57,0,0,1-.57-.57.58.58,0,0,1,.57-.57h0a12,12,0,0,1,4.47.86.57.57,0,0,1-.2,1.1Z"/><path class="cls-1" d="M18.75,25.59a.57.57,0,0,1-.57-.57.55.55,0,0,1,.36-.53A12,12,0,0,1,23,23.63a.58.58,0,0,1,0,1.15,11,11,0,0,0-4.05.77A.52.52,0,0,1,18.75,25.59Z"/><path class="cls-1" d="M15.37,27.64a.58.58,0,0,1-.57-.57.58.58,0,0,1,.2-.43,12.35,12.35,0,0,1,3.54-2.15A.57.57,0,1,1,19,25.54h0a10.88,10.88,0,0,0-3.21,1.95A.59.59,0,0,1,15.37,27.64Z"/><path class="cls-1" d="M28.65,19.73a.56.56,0,0,1-.57-.57A12.69,12.69,0,0,0,26.48,13a.59.59,0,0,1,.22-.78.58.58,0,0,1,.78.22h0a13.81,13.81,0,0,1,1.74,6.71.57.57,0,0,1-.57.57Z"/><path class="cls-1" d="M23,8.88a.54.54,0,0,1-.32-.11l-.11-.08-.07,0a.57.57,0,0,1-.14-.79.57.57,0,0,1,.79-.15l.11.09.07,0a.56.56,0,0,1,.14.79.59.59,0,0,1-.47.25Z"/><path class="cls-1" d="M22.83,30.72a.57.57,0,0,1-.57-.57.6.6,0,0,1,.25-.47.18.18,0,0,0,.07-.05l.11-.08a.57.57,0,0,1,.79.14.57.57,0,0,1-.13.79h0l-.06.05-.13.09A.57.57,0,0,1,22.83,30.72Z"/><path class="cls-1" d="M27.28,25.59a.57.57,0,0,1-.52-.82h0a12.62,12.62,0,0,0,1.31-5.61.57.57,0,0,1,1.14,0,13.71,13.71,0,0,1-1.43,6.11A.57.57,0,0,1,27.28,25.59Z"/><path class="cls-1" d="M23,30.59a.57.57,0,0,1-.57-.57.56.56,0,0,1,.24-.46,12.84,12.84,0,0,0,4.08-4.79.57.57,0,0,1,1,.5h0a14.11,14.11,0,0,1-4.45,5.22A.61.61,0,0,1,23,30.59Z"/><path class="cls-1" d="M27,13.29a.57.57,0,0,1-.5-.29,12.83,12.83,0,0,0-3.8-4.23.57.57,0,0,1,.66-.93h0a14,14,0,0,1,4.14,4.61.56.56,0,0,1-.22.77A.53.53,0,0,1,27,13.29Z"/><path class="cls-1" d="M17.38,19.73H12a.57.57,0,0,1-.57-.57.58.58,0,0,1,.57-.57h5.37a.58.58,0,0,1,.57.57A.57.57,0,0,1,17.38,19.73Z"/><path class="cls-1" d="M28.65,19.73H23a.57.57,0,0,1-.57-.57.58.58,0,0,1,.57-.57h5.64a.58.58,0,0,1,.57.57A.57.57,0,0,1,28.65,19.73Z"/><path class="cls-1" d="M23,19.73H17.38a.57.57,0,0,1-.58-.57.58.58,0,0,1,.58-.57H23a.57.57,0,0,1,.57.57A.56.56,0,0,1,23,19.73Z"/><path class="cls-1" d="M33.69,19.73h-5a.56.56,0,0,1-.57-.57.57.57,0,0,1,.57-.57h5a.58.58,0,0,1,.57.57A.57.57,0,0,1,33.69,19.73Z"/><path class="cls-1" d="M23,14a.57.57,0,0,1-.57-.57V8.31A.58.58,0,0,1,23,7.73a.57.57,0,0,1,.57.58v5.12A.56.56,0,0,1,23,14Z"/><path class="cls-1" d="M23,19.73a.57.57,0,0,1-.57-.57h0V13.43a.58.58,0,0,1,.57-.57.57.57,0,0,1,.57.57v5.73a.56.56,0,0,1-.57.57Z"/><path class="cls-1" d="M23,30.59a.57.57,0,0,1-.57-.57h0V24.2a.58.58,0,0,1,.57-.57.57.57,0,0,1,.57.57V30a.56.56,0,0,1-.57.57Z"/><path class="cls-1" d="M23,8.88a.58.58,0,0,1-.57-.57V8.16A.58.58,0,0,1,23,7.59a.57.57,0,0,1,.57.57v.15a.57.57,0,0,1-.57.57Z"/><path class="cls-1" d="M23,24.77a.57.57,0,0,1-.57-.57h0v-5a.58.58,0,0,1,.57-.57.57.57,0,0,1,.57.57v5a.56.56,0,0,1-.57.57Z"/><path class="cls-1" d="M23,30.73a.57.57,0,0,1-.57-.57h0V30a.57.57,0,0,1,.57-.57.56.56,0,0,1,.57.57v.14a.56.56,0,0,1-.57.57Z"/><polygon class="cls-1" points="16.33 43.5 9.81 31.04 11.79 30.01 17.2 40.35 42.47 24.77 43.64 26.66 16.33 43.5"/></g></svg>