<svg id="Layer_1" data-name="Layer 1" xmlns="http://www.w3.org/2000/svg" viewBox="0 0 50 50"><defs><style>.cls-1{fill:#f7fafb;}</style></defs><path class="cls-1" d="M25,34.23a.45.45,0,0,1-.43-.46.43.43,0,0,1,.43-.43,8.14,8.14,0,0,0,5.53-2.29.44.44,0,0,1,.63,0,.45.45,0,0,1,0,.63A9,9,0,0,1,25,34.23Z"/><path class="cls-1" d="M24.75,17a.45.45,0,0,1-.45-.44.45.45,0,0,1,.45-.45h.14a.44.44,0,0,1,.46.43.43.43,0,0,1-.43.46h-.17Z"/><path class="cls-1" d="M16.29,25.63a.44.44,0,0,1-.44-.44,9,9,0,0,1,3.08-6.8.45.45,0,0,1,.63.06.44.44,0,0,1,0,.61,8.17,8.17,0,0,0-2.78,6.13.45.45,0,0,1-.45.44Z"/><path class="cls-1" d="M24.75,34.23h0a9,9,0,0,1-6.14-2.54.45.45,0,1,1,.62-.64,8.12,8.12,0,0,0,5.53,2.29.43.43,0,0,1,.43.46A.46.46,0,0,1,24.75,34.23Z"/><path class="cls-1" d="M18.92,31.81a.43.43,0,0,1-.31-.12,9,9,0,0,1-2.76-6.5.45.45,0,1,1,.89,0,8.08,8.08,0,0,0,2.49,5.86.44.44,0,0,1,0,.63.43.43,0,0,1-.32.14Z"/><path class="cls-1" d="M24.89,34.23h-.15a.45.45,0,0,1,0-.9h.14a.45.45,0,1,1,0,.89Z"/><path class="cls-1" d="M24.89,34.23a.45.45,0,0,1,0-.89H25a.46.46,0,0,1,.46.44.44.44,0,0,1-.44.45h-.15Z"/><path class="cls-1" d="M30.56,19.17a.46.46,0,0,1-.3-.11A8.13,8.13,0,0,0,25,17a.44.44,0,0,1-.44-.45.43.43,0,0,1,.45-.44h0a9,9,0,0,1,5.81,2.24.44.44,0,0,1,0,.63.41.41,0,0,1-.33.15Z"/><path class="cls-1" d="M19.23,19.17a.45.45,0,0,1-.45-.44.49.49,0,0,1,.15-.34,9,9,0,0,1,5.82-2.24.44.44,0,0,1,.45.42v0a.45.45,0,0,1-.44.45h0a8.16,8.16,0,0,0-5.24,2A.44.44,0,0,1,19.23,19.17Z"/><path class="cls-1" d="M25,17h-.14a.45.45,0,0,1-.46-.43.45.45,0,0,1,.44-.46H25a.43.43,0,0,1,.44.45A.44.44,0,0,1,25,17Z"/><path class="cls-1" d="M30.87,31.81a.44.44,0,0,1-.45-.44.46.46,0,0,1,.13-.32,8.09,8.09,0,0,0,2.5-5.86,8.18,8.18,0,0,0-2.79-6.13.45.45,0,0,1,.58-.68h0a9,9,0,0,1,3.09,6.8,8.94,8.94,0,0,1-2.77,6.5A.42.42,0,0,1,30.87,31.81Z"/><path class="cls-1" d="M21.79,20.6a.45.45,0,0,1-.45-.45.39.39,0,0,1,.06-.21,10.88,10.88,0,0,1,3.24-3.61.46.46,0,0,1,.62.09.45.45,0,0,1-.09.63h0a10.13,10.13,0,0,0-3,3.31A.45.45,0,0,1,21.79,20.6Z"/><path class="cls-1" d="M24.89,17.15a.45.45,0,0,1-.44-.45.45.45,0,0,1,.19-.37l.05,0,.09-.07a.45.45,0,0,1,.51.73h0l-.06,0-.08.06A.39.39,0,0,1,24.89,17.15Z"/><path class="cls-1" d="M21.56,30.21a.43.43,0,0,1-.4-.25A10.68,10.68,0,0,1,20,25.19a.45.45,0,1,1,.89,0,9.79,9.79,0,0,0,1,4.38.43.43,0,0,1-.4.64Z"/><path class="cls-1" d="M25,34.23a.46.46,0,0,1-.25-.08l-.1-.07,0,0a.44.44,0,0,1-.12-.62.46.46,0,0,1,.62-.12h0l.08.06.05,0a.44.44,0,0,1,.12.62.45.45,0,0,1-.37.2Z"/><path class="cls-1" d="M24.89,34.12a.44.44,0,0,1-.25-.08A10.89,10.89,0,0,1,21.16,30a.44.44,0,0,1,.21-.59.45.45,0,0,1,.59.2,10,10,0,0,0,3.19,3.74.46.46,0,0,1,.11.63.47.47,0,0,1-.37.18Z"/><path class="cls-1" d="M20.49,25.63a.45.45,0,0,1-.45-.44,10.81,10.81,0,0,1,1.36-5.25.45.45,0,0,1,.61-.18.45.45,0,0,1,.17.61h0a9.92,9.92,0,0,0-1.25,4.82.44.44,0,0,1-.44.44Z"/><path class="cls-1" d="M21.79,20.6a.41.41,0,0,1-.16,0A9.52,9.52,0,0,1,19,19.08a.46.46,0,0,1-.07-.63.44.44,0,0,1,.62-.07,8.86,8.86,0,0,0,2.44,1.36.44.44,0,0,1,.26.57A.44.44,0,0,1,21.79,20.6Z"/><path class="cls-1" d="M28,20.6a.45.45,0,0,1-.45-.45.44.44,0,0,1,.3-.41,8.81,8.81,0,0,0,2.43-1.36.45.45,0,1,1,.55.7h0a9.39,9.39,0,0,1-2.68,1.49A.4.4,0,0,1,28,20.6Z"/><path class="cls-1" d="M24.89,21.15a.45.45,0,0,1,0-.89,8.55,8.55,0,0,0,3-.53.44.44,0,0,1,.57.26.44.44,0,0,1-.25.57h0A9.53,9.53,0,0,1,24.89,21.15Z"/><path class="cls-1" d="M24.89,21.15a9.24,9.24,0,0,1-3.25-.58.44.44,0,0,1,.3-.83,8.77,8.77,0,0,0,2.95.52.45.45,0,0,1,0,.9Z"/><path class="cls-1" d="M30.87,31.81a.45.45,0,0,1-.3-.1,8.5,8.5,0,0,0-2.51-1.53.44.44,0,0,1-.26-.57.45.45,0,0,1,.57-.27h0A9.69,9.69,0,0,1,31.16,31a.45.45,0,0,1,0,.63.43.43,0,0,1-.33.15Z"/><path class="cls-1" d="M28.23,30.21a.47.47,0,0,1-.17,0,8.8,8.8,0,0,0-3.17-.61.45.45,0,0,1,0-.89,9.51,9.51,0,0,1,3.5.67.45.45,0,0,1-.16.86Z"/><path class="cls-1" d="M21.56,30.21a.45.45,0,0,1-.45-.44.46.46,0,0,1,.29-.42,9.5,9.5,0,0,1,3.49-.67.45.45,0,1,1,0,.9,8.62,8.62,0,0,0-3.17.6A.41.41,0,0,1,21.56,30.21Z"/><path class="cls-1" d="M18.92,31.81a.44.44,0,0,1-.45-.44.46.46,0,0,1,.16-.34,9.56,9.56,0,0,1,2.77-1.68.45.45,0,0,1,.57.27.44.44,0,0,1-.25.56,8.77,8.77,0,0,0-2.51,1.53A.43.43,0,0,1,18.92,31.81Z"/><path class="cls-1" d="M29.3,25.63a.45.45,0,0,1-.45-.44,10,10,0,0,0-1.24-4.82.44.44,0,0,1,.15-.61.45.45,0,0,1,.62.16v0a10.92,10.92,0,0,1,1.36,5.25.45.45,0,0,1-.45.44Z"/><path class="cls-1" d="M24.89,17.15a.44.44,0,0,1-.25-.08L24.55,17l-.05,0a.45.45,0,0,1,.51-.73l.09.07,0,0a.45.45,0,0,1,.11.62.44.44,0,0,1-.37.19Z"/><path class="cls-1" d="M24.75,34.23a.45.45,0,0,1-.44-.45.45.45,0,0,1,.19-.37.1.1,0,0,0,.05,0l.09-.06a.45.45,0,0,1,.62.1.46.46,0,0,1-.1.63h0l0,0-.1.07A.44.44,0,0,1,24.75,34.23Z"/><path class="cls-1" d="M28.23,30.21a.45.45,0,0,1-.45-.44.46.46,0,0,1,0-.2,9.92,9.92,0,0,0,1-4.38.45.45,0,1,1,.9,0A10.65,10.65,0,0,1,28.63,30,.44.44,0,0,1,28.23,30.21Z"/><path class="cls-1" d="M24.89,34.12a.44.44,0,0,1-.44-.44.45.45,0,0,1,.19-.37,10.12,10.12,0,0,0,3.19-3.74.45.45,0,0,1,.8.39A10.89,10.89,0,0,1,25.15,34,.45.45,0,0,1,24.89,34.12Z"/><path class="cls-1" d="M28,20.6a.45.45,0,0,1-.39-.23,10.13,10.13,0,0,0-3-3.31.44.44,0,1,1,.49-.74l0,0a11,11,0,0,1,3.24,3.6.44.44,0,0,1-.18.6.39.39,0,0,1-.21.06Z"/><path class="cls-1" d="M20.49,25.63h-4.2a.45.45,0,0,1,0-.89h4.2a.45.45,0,0,1,0,.89Z"/><path class="cls-1" d="M29.3,25.63H24.89a.45.45,0,0,1,0-.89H29.3a.45.45,0,1,1,0,.89Z"/><path class="cls-1" d="M24.89,25.63h-4.4a.45.45,0,1,1,0-.89h4.4a.45.45,0,1,1,0,.89Z"/><path class="cls-1" d="M33.24,25.63H29.3a.45.45,0,1,1,0-.89h3.94a.45.45,0,1,1,0,.89Z"/><path class="cls-1" d="M24.89,21.15a.44.44,0,0,1-.44-.44v-4a.45.45,0,1,1,.89,0v4a.45.45,0,0,1-.45.44Z"/><path class="cls-1" d="M24.89,25.63a.44.44,0,0,1-.44-.44V20.71a.45.45,0,1,1,.89,0v4.48a.45.45,0,0,1-.45.44Z"/><path class="cls-1" d="M24.89,34.12a.44.44,0,0,1-.44-.44V29.13a.45.45,0,1,1,.89,0v4.55a.45.45,0,0,1-.45.44Z"/><path class="cls-1" d="M24.89,17.15a.45.45,0,0,1-.44-.45h0v-.11a.45.45,0,1,1,.89,0v.11a.45.45,0,0,1-.45.45Z"/><path class="cls-1" d="M24.89,29.58a.45.45,0,0,1-.44-.45V25.19a.45.45,0,1,1,.89,0v3.94a.45.45,0,0,1-.45.45Z"/><path class="cls-1" d="M24.89,34.23a.44.44,0,0,1-.44-.44v-.11a.45.45,0,1,1,.89,0v.11a.45.45,0,0,1-.45.44Z"/><path class="cls-1" d="M37.71,39.77H7.42V6.35H37.71ZM8.13,39.06H37v-32H8.13Z"/><path class="cls-1" d="M42.58,43.65H12.29V10.23H42.58ZM13,42.94H41.87v-32H13Z"/></svg>