<svg id="Layer_1" data-name="Layer 1" xmlns="http://www.w3.org/2000/svg" viewBox="0 0 50 50"><defs><style>.cls-1{fill:#f7fafb;}</style></defs><g id="Layer_1-2" data-name="Layer 1"><path class="cls-1" d="M24.91,37.13a.64.64,0,0,1-.65-.66.65.65,0,0,1,.64-.65,12,12,0,0,0,8.16-3.38.66.66,0,0,1,.92,1,13.36,13.36,0,0,1-9.06,3.75Z"/><path class="cls-1" d="M24.49,11.76a.66.66,0,0,1,0-1.31h.22a.66.66,0,1,1,0,1.31h-.21Z"/><path class="cls-1" d="M12,24.45a.65.65,0,0,1-.65-.66,13.31,13.31,0,0,1,4.56-10,.65.65,0,0,1,.93,0,.67.67,0,0,1,0,.93l0,0a12.07,12.07,0,0,0-4.11,9,.66.66,0,0,1-.65.66Z"/><path class="cls-1" d="M24.49,37.13h0a13.31,13.31,0,0,1-9-3.74.67.67,0,0,1,0-.94.66.66,0,0,1,.93,0h0a12,12,0,0,0,8.16,3.38.66.66,0,0,1,0,1.31Z"/><path class="cls-1" d="M15.88,33.57a.63.63,0,0,1-.45-.18,13.24,13.24,0,0,1-4.08-9.6.66.66,0,1,1,1.31,0,11.93,11.93,0,0,0,3.68,8.65.66.66,0,0,1-.45,1.13Z"/><path class="cls-1" d="M24.7,37.14h-.22a.66.66,0,0,1,0-1.31h.21a.66.66,0,1,1,0,1.31Z"/><path class="cls-1" d="M24.7,37.14a.66.66,0,1,1,0-1.31h.19a.68.68,0,0,1,.68.64.66.66,0,0,1-.65.67H24.7Z"/><path class="cls-1" d="M33.06,14.91a.67.67,0,0,1-.43-.16,12,12,0,0,0-7.73-3,.65.65,0,0,1-.65-.67.66.66,0,0,1,.67-.64,13.32,13.32,0,0,1,8.58,3.31.66.66,0,0,1,.06.93A.68.68,0,0,1,33.06,14.91Z"/><path class="cls-1" d="M16.34,14.91a.66.66,0,0,1-.66-.66.62.62,0,0,1,.23-.49,13.27,13.27,0,0,1,8.57-3.31.63.63,0,0,1,.67.64.65.65,0,0,1-.65.67,12.07,12.07,0,0,0-7.73,3A.67.67,0,0,1,16.34,14.91Z"/><path class="cls-1" d="M24.91,11.76H24.7a.66.66,0,1,1,0-1.31h.22a.66.66,0,0,1,0,1.31Z"/><path class="cls-1" d="M33.52,33.57a.65.65,0,0,1-.66-.66.63.63,0,0,1,.2-.47,12,12,0,0,0-.43-17.69.66.66,0,1,1,.85-1l0,0a13.38,13.38,0,0,1,4.56,10A13.24,13.24,0,0,1,34,33.39.67.67,0,0,1,33.52,33.57Z"/><path class="cls-1" d="M20.12,17a.66.66,0,0,1-.66-.66.72.72,0,0,1,.08-.32,16.25,16.25,0,0,1,4.78-5.32.66.66,0,1,1,.76,1.08,14.78,14.78,0,0,0-4.39,4.88A.64.64,0,0,1,20.12,17Z"/><path class="cls-1" d="M24.7,11.92a.67.67,0,0,1-.66-.66.68.68,0,0,1,.28-.54l.07-.05.14-.11a.66.66,0,0,1,.75,1.09l-.08.06-.12.09A.64.64,0,0,1,24.7,11.92Z"/><path class="cls-1" d="M19.78,31.21a.65.65,0,0,1-.59-.37,15.8,15.8,0,0,1-1.65-7,.66.66,0,1,1,1.31,0,14.5,14.5,0,0,0,1.52,6.47.66.66,0,0,1-.3.88.73.73,0,0,1-.29.07Z"/><path class="cls-1" d="M24.91,37.13a.7.7,0,0,1-.37-.11l-.15-.11-.07,0a.66.66,0,0,1,.76-1.08l.12.09.08.06a.66.66,0,0,1,.17.92.64.64,0,0,1-.54.28Z"/><path class="cls-1" d="M24.7,37a.64.64,0,0,1-.38-.12,16.13,16.13,0,0,1-5.13-6,.66.66,0,1,1,1.18-.58h0a14.87,14.87,0,0,0,4.71,5.52.66.66,0,0,1,.16.92.64.64,0,0,1-.54.28Z"/><path class="cls-1" d="M18.2,24.45a.65.65,0,0,1-.66-.66,16,16,0,0,1,2-7.75.66.66,0,0,1,1.16.63h0a14.85,14.85,0,0,0-1.84,7.11A.65.65,0,0,1,18.2,24.45Z"/><path class="cls-1" d="M20.12,17a.93.93,0,0,1-.23,0,14.26,14.26,0,0,1-4-2.21.67.67,0,0,1-.11-.93.67.67,0,0,1,.93-.1h0a12.66,12.66,0,0,0,3.59,2,.66.66,0,0,1,.4.84.68.68,0,0,1-.62.44Z"/><path class="cls-1" d="M29.28,17a.66.66,0,0,1-.22-1.28,12.66,12.66,0,0,0,3.59-2,.66.66,0,1,1,.82,1,14.26,14.26,0,0,1-4,2.21A.85.85,0,0,1,29.28,17Z"/><path class="cls-1" d="M24.7,17.83a.66.66,0,1,1,0-1.31h0a13,13,0,0,0,4.36-.78A.66.66,0,0,1,29.51,17,14.09,14.09,0,0,1,24.7,17.83Z"/><path class="cls-1" d="M24.7,17.83A14.09,14.09,0,0,1,19.89,17a.67.67,0,0,1-.39-.85.66.66,0,0,1,.84-.39,13,13,0,0,0,4.36.78.66.66,0,1,1,0,1.31Z"/><path class="cls-1" d="M33.52,33.57a.67.67,0,0,1-.43-.16,12.58,12.58,0,0,0-3.71-2.25.65.65,0,0,1-.37-.85.65.65,0,0,1,.85-.37A13.7,13.7,0,0,1,34,32.42a.65.65,0,0,1-.43,1.15Z"/><path class="cls-1" d="M29.62,31.21a.69.69,0,0,1-.24-.05,12.72,12.72,0,0,0-4.68-.89.66.66,0,1,1,0-1.32h0a14,14,0,0,1,5.16,1,.65.65,0,0,1,.37.85.66.66,0,0,1-.61.42Z"/><path class="cls-1" d="M19.78,31.21a.66.66,0,0,1-.24-1.27,14,14,0,0,1,5.16-1,.66.66,0,1,1,0,1.32,12.72,12.72,0,0,0-4.68.89A.69.69,0,0,1,19.78,31.21Z"/><path class="cls-1" d="M15.89,33.57a.65.65,0,0,1-.66-.65.62.62,0,0,1,.22-.5,13.7,13.7,0,0,1,4.09-2.48A.66.66,0,0,1,20,31.16a12.53,12.53,0,0,0-3.7,2.25A.69.69,0,0,1,15.89,33.57Z"/><path class="cls-1" d="M31.21,24.45a.65.65,0,0,1-.66-.66h0a14.74,14.74,0,0,0-1.84-7.11A.66.66,0,1,1,29.85,16h0a16.15,16.15,0,0,1,2,7.75.66.66,0,0,1-.66.66Z"/><path class="cls-1" d="M24.7,11.92a.63.63,0,0,1-.37-.12l-.13-.1-.08,0a.66.66,0,0,1,.75-1.09l.13.1.08.06a.66.66,0,0,1-.38,1.2Z"/><path class="cls-1" d="M24.49,37.13a.65.65,0,0,1-.65-.65.64.64,0,0,1,.29-.55l.07-.06.13-.09a.66.66,0,0,1,.91.18.67.67,0,0,1-.16.9l-.07.06-.15.1A.67.67,0,0,1,24.49,37.13Z"/><path class="cls-1" d="M29.62,31.21a.67.67,0,0,1-.66-.66.73.73,0,0,1,.07-.29,14.5,14.5,0,0,0,1.52-6.47.66.66,0,0,1,1.32,0,15.81,15.81,0,0,1-1.66,7.05A.65.65,0,0,1,29.62,31.21Z"/><path class="cls-1" d="M24.7,37a.66.66,0,0,1-.66-.66.69.69,0,0,1,.28-.54A14.78,14.78,0,0,0,29,30.26a.66.66,0,1,1,1.18.58h0a16,16,0,0,1-5.13,6A.64.64,0,0,1,24.7,37Z"/><path class="cls-1" d="M29.28,17a.65.65,0,0,1-.57-.34,14.78,14.78,0,0,0-4.39-4.88.66.66,0,1,1,.76-1.08A16.25,16.25,0,0,1,29.86,16a.65.65,0,0,1-.26.89.57.57,0,0,1-.32.09Z"/><path class="cls-1" d="M18.2,24.45H12a.66.66,0,0,1,0-1.32h6.2a.66.66,0,0,1,0,1.32Z"/><path class="cls-1" d="M31.21,24.45H24.7a.66.66,0,1,1,0-1.32h6.51a.66.66,0,0,1,0,1.32Z"/><path class="cls-1" d="M24.7,24.45H18.2a.66.66,0,1,1,0-1.32h6.5a.66.66,0,1,1,0,1.32Z"/><path class="cls-1" d="M37,24.45H31.21a.66.66,0,0,1,0-1.32H37a.66.66,0,1,1,0,1.32Z"/><path class="cls-1" d="M24.7,17.83a.65.65,0,0,1-.66-.65h0V11.26a.66.66,0,0,1,.68-.64.65.65,0,0,1,.64.64v5.92A.66.66,0,0,1,24.7,17.83Z"/><path class="cls-1" d="M24.7,24.45a.66.66,0,0,1-.66-.66h0V17.18a.67.67,0,0,1,.68-.65.66.66,0,0,1,.64.65v6.61a.66.66,0,0,1-.66.66Z"/><path class="cls-1" d="M24.7,37a.66.66,0,0,1-.66-.66h0V29.61a.66.66,0,0,1,1.32,0v6.71a.66.66,0,0,1-.66.66Z"/><path class="cls-1" d="M24.7,11.92a.67.67,0,0,1-.66-.66v-.17a.66.66,0,0,1,1.32,0v.17A.66.66,0,0,1,24.7,11.92Z"/><path class="cls-1" d="M24.7,30.27a.67.67,0,0,1-.66-.66h0V23.79a.66.66,0,0,1,.68-.64.65.65,0,0,1,.64.64v5.82a.66.66,0,0,1-.66.66Z"/><path class="cls-1" d="M24.7,37.14a.66.66,0,0,1-.66-.65h0v-.17a.66.66,0,0,1,1.32,0v.17a.65.65,0,0,1-.66.65Z"/><path class="cls-1" d="M41.91,41.88H7.49V7.47H41.91ZM8.8,40.58H40.6V8.77H8.8Z"/></g></svg>