<svg id="Layer_1" data-name="Layer 1" xmlns="http://www.w3.org/2000/svg" viewBox="0 0 50 50"><defs><style>.cls-1{fill:#58595b;}.cls-2{fill:#f7fafb;}.cls-3{fill:#fff;fill-rule:evenodd;}</style></defs><g id="Layer_1-2" data-name="Layer 1"><path class="cls-1" d="M5.91,41.29s-.14-.09-.24-.14L5.47,41l0,0V40.9a1.46,1.46,0,0,0,.11-.18.5.5,0,0,0,0-.13s0,0,0,0V40.4a.27.27,0,0,0-.29-.24A.26.26,0,0,0,5,40.4v.15s0,0,0,0a.29.29,0,0,0,0,.13.78.78,0,0,0,.11.18v0h0v0l0,0a1.37,1.37,0,0,1-.21.15c-.1.05-.24.1-.25.14l0,.22H5.94ZM5,40.71a.78.78,0,0,1,0-.32c0-.13.14,0,.14,0a.31.31,0,0,1,.28,0s.07.09,0,.37-.22.23-.22.23-.13,0-.22-.21Z"/><path class="cls-2" d="M25.61,34.62a.48.48,0,0,1-.48-.46.47.47,0,0,1,.47-.47,8.48,8.48,0,0,0,5.79-2.4.47.47,0,0,1,.66,0A.46.46,0,0,1,32,32h0a9.36,9.36,0,0,1-6.43,2.66Z"/><path class="cls-2" d="M25.31,16.61a.46.46,0,0,1-.46-.47.48.48,0,0,1,.46-.46h.15a.47.47,0,1,1,0,.94h-.15Z"/><path class="cls-2" d="M16.45,25.62a.47.47,0,0,1-.47-.47A9.45,9.45,0,0,1,19.22,18a.47.47,0,0,1,.63.69h0a8.53,8.53,0,0,0-2.91,6.42.47.47,0,0,1-.47.47Z"/><path class="cls-2" d="M25.31,34.62h0A9.35,9.35,0,0,1,18.88,32a.47.47,0,0,1,0-.66.48.48,0,0,1,.67,0h0a8.46,8.46,0,0,0,5.79,2.4.47.47,0,0,1,0,.93Z"/><path class="cls-2" d="M19.2,32.09a.42.42,0,0,1-.32-.13A9.38,9.38,0,0,1,16,25.15a.47.47,0,0,1,.47-.47.46.46,0,0,1,.46.47,8.46,8.46,0,0,0,2.62,6.14.47.47,0,0,1,0,.66.48.48,0,0,1-.34.14Z"/><path class="cls-2" d="M25.46,34.63H25.3a.47.47,0,1,1,0-.93h.15a.47.47,0,1,1,0,.93Z"/><path class="cls-2" d="M25.46,34.63a.47.47,0,1,1,0-.93h.14a.47.47,0,0,1,.47.45.46.46,0,0,1-.45.48h-.16Z"/><path class="cls-2" d="M31.39,18.85a.42.42,0,0,1-.3-.12,8.6,8.6,0,0,0-5.49-2.12.47.47,0,1,1,0-.93A9.46,9.46,0,0,1,31.7,18a.45.45,0,0,1,0,.66.45.45,0,0,1-.35.16Z"/><path class="cls-2" d="M19.52,18.85a.47.47,0,0,1-.46-.47.48.48,0,0,1,.16-.35,9.46,9.46,0,0,1,6.08-2.35.47.47,0,1,1,0,.93,8.6,8.6,0,0,0-5.49,2.12A.43.43,0,0,1,19.52,18.85Z"/><path class="cls-2" d="M25.61,16.61h-.15a.47.47,0,0,1,0-.94h.15a.48.48,0,0,1,.46.48.46.46,0,0,1-.46.45Z"/><path class="cls-2" d="M31.72,32.09a.46.46,0,0,1-.47-.46.48.48,0,0,1,.14-.34,8.53,8.53,0,0,0-.3-12.56.46.46,0,0,1-.05-.66.47.47,0,0,1,.66,0h0a9.48,9.48,0,0,1,3.24,7.12A9.38,9.38,0,0,1,32,32,.42.42,0,0,1,31.72,32.09Z"/><path class="cls-2" d="M22.21,20.34a.46.46,0,0,1-.41-.69,11.38,11.38,0,0,1,3.39-3.78.48.48,0,0,1,.65.12.47.47,0,0,1-.11.65,10.66,10.66,0,0,0-3.12,3.46A.45.45,0,0,1,22.21,20.34Z"/><path class="cls-2" d="M25.46,16.72a.46.46,0,0,1-.47-.46.49.49,0,0,1,.2-.39l0,0,.1-.08a.47.47,0,1,1,.53.77l-.05,0-.09.07A.5.5,0,0,1,25.46,16.72Z"/><path class="cls-2" d="M22,30.42a.48.48,0,0,1-.42-.27,11.2,11.2,0,0,1-1.18-5,.47.47,0,0,1,.94,0,10.41,10.41,0,0,0,1.07,4.59.47.47,0,0,1-.21.63.46.46,0,0,1-.2.05Z"/><path class="cls-2" d="M25.61,34.62a.5.5,0,0,1-.27-.08l-.1-.08,0,0a.47.47,0,0,1-.11-.65.46.46,0,0,1,.65-.12l.08.06.06.05a.46.46,0,0,1,.12.65.49.49,0,0,1-.39.2Z"/><path class="cls-2" d="M25.46,34.51a.5.5,0,0,1-.27-.08,11.42,11.42,0,0,1-3.64-4.28.46.46,0,0,1,.21-.62.47.47,0,0,1,.63.21,10.47,10.47,0,0,0,3.34,3.92.47.47,0,0,1,.11.65.46.46,0,0,1-.38.2Z"/><path class="cls-2" d="M20.84,25.62a.47.47,0,0,1-.47-.47,11.5,11.5,0,0,1,1.43-5.5.45.45,0,0,1,.63-.18.46.46,0,0,1,.19.63,10.42,10.42,0,0,0-1.31,5,.47.47,0,0,1-.47.47Z"/><path class="cls-2" d="M22.21,20.34l-.16,0a10.14,10.14,0,0,1-2.82-1.57.47.47,0,0,1-.07-.66.46.46,0,0,1,.65-.08,9.19,9.19,0,0,0,2.56,1.43.47.47,0,0,1,.28.6.48.48,0,0,1-.44.3Z"/><path class="cls-2" d="M28.71,20.34a.45.45,0,0,1-.46-.46.46.46,0,0,1,.3-.44A9,9,0,0,0,31.1,18a.47.47,0,0,1,.59.74,10.14,10.14,0,0,1-2.82,1.57Z"/><path class="cls-2" d="M25.46,20.92a.46.46,0,0,1-.48-.45.47.47,0,0,1,.46-.48h0a9.07,9.07,0,0,0,3.09-.55.46.46,0,0,1,.6.28.47.47,0,0,1-.28.6h0A9.92,9.92,0,0,1,25.46,20.92Z"/><path class="cls-2" d="M25.46,20.92a9.88,9.88,0,0,1-3.41-.6.47.47,0,0,1,.31-.88,9.12,9.12,0,0,0,3.1.55.47.47,0,1,1,0,.94h0Z"/><path class="cls-2" d="M31.72,32.09a.49.49,0,0,1-.31-.11,9.1,9.1,0,0,0-2.63-1.6.45.45,0,0,1-.26-.6.47.47,0,0,1,.6-.27A10.1,10.1,0,0,1,32,31.27a.46.46,0,0,1,0,.66.44.44,0,0,1-.35.16Z"/><path class="cls-2" d="M29,30.42a.53.53,0,0,1-.17,0,9,9,0,0,0-3.32-.63.48.48,0,0,1-.48-.46.47.47,0,0,1,.46-.48h0a10,10,0,0,1,3.66.7.47.47,0,0,1-.17.91Z"/><path class="cls-2" d="M22,30.42A.47.47,0,0,1,21.5,30a.48.48,0,0,1,.29-.44,10,10,0,0,1,3.67-.7.47.47,0,1,1,0,.94h0a8.94,8.94,0,0,0-3.32.63A.59.59,0,0,1,22,30.42Z"/><path class="cls-2" d="M19.2,32.09a.46.46,0,0,1-.47-.46.48.48,0,0,1,.16-.36,10.15,10.15,0,0,1,2.91-1.76.47.47,0,0,1,.6.27.45.45,0,0,1-.26.6A9.1,9.1,0,0,0,19.51,32,.51.51,0,0,1,19.2,32.09Z"/><path class="cls-2" d="M30.08,25.62a.47.47,0,0,1-.47-.47,10.42,10.42,0,0,0-1.31-5,.46.46,0,0,1,.19-.63.45.45,0,0,1,.63.18,11.5,11.5,0,0,1,1.43,5.5.47.47,0,0,1-.47.47Z"/><path class="cls-2" d="M25.46,16.72a.5.5,0,0,1-.27-.08l-.09-.07-.05,0a.47.47,0,1,1,.53-.77h0l.09.07.06,0a.47.47,0,0,1,.11.65.44.44,0,0,1-.38.2Z"/><path class="cls-2" d="M25.31,34.62a.46.46,0,0,1-.26-.85l.05,0,.09-.07a.47.47,0,1,1,.54.76h0l-.05,0-.11.07A.45.45,0,0,1,25.31,34.62Z"/><path class="cls-2" d="M29,30.42a.47.47,0,0,1-.47-.47.54.54,0,0,1,.05-.21,10.29,10.29,0,0,0,1.08-4.59.47.47,0,1,1,.93,0,11.19,11.19,0,0,1-1.17,5A.48.48,0,0,1,29,30.42Z"/><path class="cls-2" d="M25.46,34.51a.47.47,0,0,1-.27-.85,10.47,10.47,0,0,0,3.34-3.92.47.47,0,0,1,.63-.21.46.46,0,0,1,.21.63h0a11.46,11.46,0,0,1-3.64,4.27A.5.5,0,0,1,25.46,34.51Z"/><path class="cls-2" d="M28.71,20.34a.47.47,0,0,1-.41-.24,10.52,10.52,0,0,0-3.11-3.46.48.48,0,0,1-.1-.66.47.47,0,0,1,.64-.11,11.38,11.38,0,0,1,3.39,3.78.46.46,0,0,1-.18.63A.46.46,0,0,1,28.71,20.34Z"/><path class="cls-2" d="M20.84,25.62H16.45a.48.48,0,0,1-.48-.46.47.47,0,0,1,.46-.48h4.41a.48.48,0,0,1,.48.46.47.47,0,0,1-.46.48Z"/><path class="cls-2" d="M30.08,25.62H25.46a.48.48,0,0,1-.48-.46.47.47,0,0,1,.46-.48h4.64a.47.47,0,0,1,.47.46.46.46,0,0,1-.45.48Z"/><path class="cls-2" d="M25.46,25.62H20.84a.47.47,0,0,1,0-.94h4.64a.47.47,0,1,1,0,.94Z"/><path class="cls-2" d="M34.2,25.62H30.08a.47.47,0,0,1,0-.94H34.2a.47.47,0,0,1,0,.94Z"/><path class="cls-2" d="M25.46,20.92a.47.47,0,0,1-.47-.46v-4.2a.47.47,0,1,1,.94,0v4.2a.47.47,0,0,1-.47.46Z"/><path class="cls-2" d="M25.46,25.62a.47.47,0,0,1-.47-.47V20.46a.47.47,0,1,1,.94,0v4.69a.47.47,0,0,1-.47.47Z"/><path class="cls-2" d="M25.46,34.51a.47.47,0,0,1-.47-.46V29.28a.47.47,0,1,1,.94,0v4.77a.47.47,0,0,1-.47.46Z"/><path class="cls-2" d="M25.46,16.72a.47.47,0,0,1-.47-.46v-.12a.47.47,0,0,1,.94,0v.12a.47.47,0,0,1-.47.46Z"/><path class="cls-2" d="M25.46,29.75a.47.47,0,0,1-.47-.47V25.15a.47.47,0,0,1,.94,0v4.13a.47.47,0,0,1-.47.47Z"/><path class="cls-2" d="M25.46,34.63a.47.47,0,0,1-.47-.47v-.11a.47.47,0,1,1,.94,0v.11a.47.47,0,0,1-.47.47Z"/><path class="cls-3" d="M28.84,11a14.6,14.6,0,0,1,4.54,1.88l4.49-3.17,1.63,1.63L41.13,13,38,17.46A14.51,14.51,0,0,1,39.83,22l5.42.92v4.61l-5.42.93A14.46,14.46,0,0,1,38,33l3.18,4.49L39.5,39.12l-1.63,1.63-4.23-3-1.35-3.37a11.34,11.34,0,1,0-13.35,0L17.81,37.6l-4.46,3.15-1.63-1.63-1.63-1.63L13.27,33a14.46,14.46,0,0,1-1.88-4.54L6,27.54V22.93L11.39,22a14.51,14.51,0,0,1,1.88-4.55L10.09,13l1.63-1.63,1.63-1.63,4.49,3.17A14.6,14.6,0,0,1,22.38,11l.93-5.42h4.6Z"/></g></svg>