<svg id="Layer_1" data-name="Layer 1" xmlns="http://www.w3.org/2000/svg" xmlns:xlink="http://www.w3.org/1999/xlink" viewBox="0 0 50 50"><defs><style>.cls-1{fill:url(#linear-gradient);}.cls-2{fill:url(#linear-gradient-2);}.cls-3{fill:url(#linear-gradient-3);}.cls-4{fill:url(#linear-gradient-4);}.cls-5{fill:url(#linear-gradient-5);}.cls-6{fill:url(#linear-gradient-6);}</style><linearGradient id="linear-gradient" x1="20.9" y1="33.28" x2="23.86" y2="33.28" gradientUnits="userSpaceOnUse"><stop offset="0" stop-color="#1b4071"/><stop offset="0.26" stop-color="#1d4374"/><stop offset="0.44" stop-color="#254b7d"/><stop offset="0.6" stop-color="#32598d"/><stop offset="0.74" stop-color="#456ea3"/><stop offset="0.88" stop-color="#5d88bf"/><stop offset="1" stop-color="#78a5df"/></linearGradient><linearGradient id="linear-gradient-2" x1="25.12" y1="31.97" x2="28.08" y2="31.97" xlink:href="#linear-gradient"/><linearGradient id="linear-gradient-3" x1="29.34" y1="31.04" x2="32.3" y2="31.04" xlink:href="#linear-gradient"/><linearGradient id="linear-gradient-4" x1="33.56" y1="30.16" x2="36.52" y2="30.16" xlink:href="#linear-gradient"/><linearGradient id="linear-gradient-5" x1="17.86" y1="14.59" x2="21.53" y2="14.59" xlink:href="#linear-gradient"/><linearGradient id="linear-gradient-6" x1="12.44" y1="26.2" x2="24.38" y2="26.2" xlink:href="#linear-gradient"/></defs><polygon class="cls-1" points="20.9 35.92 21.24 35.92 23.86 35.92 23.86 31.01 23.86 30.64 20.9 30.64 20.9 35.92"/><polygon class="cls-2" points="25.12 35.92 25.46 35.92 28.08 35.92 28.08 28.39 28.08 28.02 25.12 28.02 25.12 35.92"/><polygon class="cls-3" points="29.34 35.92 29.68 35.92 32.3 35.92 32.3 26.53 32.3 26.16 29.34 26.16 29.34 35.92"/><polygon class="cls-4" points="33.56 24.39 33.56 35.92 33.9 35.92 36.52 35.92 36.52 24.76 36.52 24.39 33.56 24.39"/><path class="cls-5" d="M18.71,16a.34.34,0,0,1-.11-.16,1.41,1.41,0,0,0,1.17.65l.22,0h0c.74-.09,1.11-.58,1.2-1.57a6.38,6.38,0,0,0-.05-.74s0,0,0-.06a2.22,2.22,0,0,0,.38-.46s-.37,0-.48-.14a1.66,1.66,0,0,0-1.95-.68,1.27,1.27,0,0,0-.92.89h0l-.06.13a2.46,2.46,0,0,0-.26,1A1.76,1.76,0,0,0,18.71,16Z"/><path class="cls-6" d="M24.1,29.85l-.42-.06L23,29h.18V24.76a.89.89,0,0,0-.46-.77l-1.85-1.1A.5.5,0,0,0,21,22.6l-.08-.86,1.57.81.33.18a.79.79,0,0,0,1-.28.69.69,0,0,0-.3-1l-.39-.21-1.79-.92-.76-2,0-.52s-.11-.9-.56-1.1l-1.24-.25c-.23,0-.49.26-.77.71l-1.79,3.5-.65,3.6-.06.35a.66.66,0,0,0,0,.14h0a.25.25,0,0,0-.25.2l-.07.35L14,25.15a.85.85,0,0,0-1,.65l-.16.83-.05.26-.33,1.72a.61.61,0,0,0,.52.7l1.83.31,1,.17L13,27.18l2.72,2.56a.24.24,0,0,0,.11.06L17,30l-.36,1.19.64.22a.69.69,0,0,0-.87.38l-.19.51c-.15.48.48.2,1,.33.09,0,2.08.1,2.16.1H16.68v3.2h3v-3.2h-.21c.16,0,.19,0,.19,0a.61.61,0,0,0-.39-.53l-.75-.33-.05,0-.64-.22.67.23,1.32-4.38a.78.78,0,0,0,0-.21L20,24.47l1.33.79V29h.08l-.24.35c-.25.45,1.37.55,1.84.79.08,0,1.06.26,1.14.28s.24,0,.25,0A.56.56,0,0,0,24.1,29.85ZM15.36,25s0,0,0,0h.09a.73.73,0,0,0,.58.46h.13a.78.78,0,0,0,.53-.2l-.07.34-1.37-.23Zm2,5-.21,0a.86.86,0,0,0,1-.65l0,.2A.66.66,0,0,1,17.38,30.06Zm.42-2h0Zm0,0h0Zm0,0Zm0,0h0Zm.78-1.52-.2,1-.13.69a.21.21,0,0,0-.29-.23h0a.59.59,0,0,0,.43-.46l.16-.83a.82.82,0,0,0-.69-.94h0l-1.09-.18.07-.36a.21.21,0,0,0-.07-.21,1.46,1.46,0,0,0,.07-.19l.06-.35.61-3.39.25-.46.21,2.16a.42.42,0,0,0,0,.16s0,.07,0,.11L18,25.82l.22,0A.61.61,0,0,1,18.7,26.56ZM18,28.08h0Zm0,0h0Zm0,0h0Z"/></svg>