<svg id="Layer_1" data-name="Layer 1" xmlns="http://www.w3.org/2000/svg" xmlns:xlink="http://www.w3.org/1999/xlink" viewBox="0 0 50 50"><defs><style>.cls-1{fill:url(#linear-gradient);}.cls-2{fill:url(#linear-gradient-2);}.cls-3{fill:url(#linear-gradient-3);}.cls-4{fill:url(#linear-gradient-4);}.cls-5{fill:url(#linear-gradient-5);}.cls-6{fill:url(#linear-gradient-6);}.cls-7{fill:url(#linear-gradient-7);}.cls-8{fill:url(#linear-gradient-8);}.cls-9{fill:url(#linear-gradient-9);}.cls-10{fill:url(#linear-gradient-10);}.cls-11{fill:url(#linear-gradient-11);}</style><linearGradient id="linear-gradient" x1="13.3" y1="33.5" x2="18.46" y2="33.5" gradientUnits="userSpaceOnUse"><stop offset="0" stop-color="#1b4071"/><stop offset="0.26" stop-color="#1d4374"/><stop offset="0.44" stop-color="#254b7d"/><stop offset="0.6" stop-color="#32598d"/><stop offset="0.74" stop-color="#456ea3"/><stop offset="0.88" stop-color="#5d88bf"/><stop offset="1" stop-color="#78a5df"/></linearGradient><linearGradient id="linear-gradient-2" x1="14.61" y1="29.99" x2="17.16" y2="29.99" xlink:href="#linear-gradient"/><linearGradient id="linear-gradient-3" x1="19" y1="33.5" x2="24.16" y2="33.5" xlink:href="#linear-gradient"/><linearGradient id="linear-gradient-4" x1="20.31" y1="29.99" x2="22.86" y2="29.99" xlink:href="#linear-gradient"/><linearGradient id="linear-gradient-5" x1="25.84" y1="33.47" x2="31" y2="33.47" xlink:href="#linear-gradient"/><linearGradient id="linear-gradient-6" x1="27.14" y1="29.96" x2="29.69" y2="29.96" xlink:href="#linear-gradient"/><linearGradient id="linear-gradient-7" x1="31.54" y1="33.47" x2="36.7" y2="33.47" xlink:href="#linear-gradient"/><linearGradient id="linear-gradient-8" x1="32.85" y1="29.96" x2="35.39" y2="29.96" xlink:href="#linear-gradient"/><linearGradient id="linear-gradient-9" x1="19.99" y1="24.16" x2="30.01" y2="24.16" xlink:href="#linear-gradient"/><linearGradient id="linear-gradient-10" x1="21.4" y1="18.95" x2="28.65" y2="18.95" xlink:href="#linear-gradient"/><linearGradient id="linear-gradient-11" x1="23.23" y1="14.38" x2="26.77" y2="14.38" xlink:href="#linear-gradient"/></defs><path class="cls-1" d="M18.46,34.3s-.28-1.81-.37-2a6.06,6.06,0,0,0-2.21-.47,4.25,4.25,0,0,0-2.2.47c-.09.22-.38,2-.38,2a3.78,3.78,0,0,0,2.55.89A4,4,0,0,0,18.46,34.3Z"/><path class="cls-2" d="M15,30.68c.16.49.45.83.92.83s.76-.34.93-.83c.14,0,.24-.14.31-.36s0-.44-.16-.48h0a2,2,0,0,0,0-.72c-.05-.14-.13-.18-.2-.18a1,1,0,0,0-.71-.4c-1-.23-1,.37-1,.37h0a.22.22,0,0,0-.26.22,5.19,5.19,0,0,0,0,.71h0c-.14,0-.25.16-.15.48S14.82,30.69,15,30.68Z"/><path class="cls-3" d="M24.16,34.3s-.28-1.81-.37-2a6.06,6.06,0,0,0-2.21-.47,4.25,4.25,0,0,0-2.2.47c-.09.22-.38,2-.38,2a3.78,3.78,0,0,0,2.55.89A4,4,0,0,0,24.16,34.3Z"/><path class="cls-4" d="M20.35,30.32c.06.22.17.37.31.36.16.49.45.83.92.83s.76-.34.93-.83c.14,0,.24-.14.31-.36s0-.44-.16-.48h0a2,2,0,0,0,0-.72c-.05-.14-.13-.18-.2-.18a1,1,0,0,0-.71-.4c-1-.23-1,.37-1,.37h0a.22.22,0,0,0-.26.22,5.19,5.19,0,0,0,0,.71h0C20.36,29.88,20.25,30,20.35,30.32Z"/><path class="cls-5" d="M26.21,32.24c-.09.22-.37,2-.37,2a3.74,3.74,0,0,0,2.54.89A4.05,4.05,0,0,0,31,34.27s-.29-1.81-.38-2a5.86,5.86,0,0,0-2.2-.46A4.21,4.21,0,0,0,26.21,32.24Z"/><path class="cls-6" d="M27.18,30.29c.07.22.17.37.31.36.17.49.46.83.93.83s.76-.34.92-.83c.15,0,.25-.14.31-.36s0-.44-.15-.48h0a2,2,0,0,0,0-.72c0-.14-.13-.18-.2-.18a1,1,0,0,0-.71-.4c-1-.23-1,.37-1,.37h0a.22.22,0,0,0-.26.22,5.19,5.19,0,0,0,0,.71h0C27.19,29.85,27.08,30,27.18,30.29Z"/><path class="cls-7" d="M36.7,34.27s-.29-1.81-.38-2a5.86,5.86,0,0,0-2.2-.46,4.21,4.21,0,0,0-2.21.46c-.09.22-.37,2-.37,2a3.74,3.74,0,0,0,2.54.89A4.05,4.05,0,0,0,36.7,34.27Z"/><path class="cls-8" d="M33.19,30.65c.17.49.46.83.93.83s.76-.34.92-.83c.15,0,.25-.14.31-.36s0-.44-.15-.48h0a2,2,0,0,0,0-.72c-.05-.14-.13-.18-.2-.18a1,1,0,0,0-.7-.4c-1-.23-1,.37-1,.37h0a.22.22,0,0,0-.26.22,5.19,5.19,0,0,0,0,.71h0c-.15,0-.26.16-.16.48S33.05,30.66,33.19,30.65Z"/><polygon class="cls-9" points="22.27 24.64 22.27 27.23 27.73 27.23 27.73 24.64 28.68 24.64 30.01 21.09 25 21.09 19.99 21.09 21.32 24.64 22.27 24.64"/><path class="cls-10" d="M28.07,17.82l-1.78-.64-.73,2.48-.35-1.77.32-.71H24.47l.32.71-.35,1.77-.73-2.48-1.78.64c-.13.31-.53,2.9-.53,2.9h7.25S28.2,18.13,28.07,17.82Z"/><path class="cls-11" d="M23.71,15.35c.23.68.63,1.14,1.29,1.14s1.06-.46,1.29-1.14c.2,0,.34-.21.43-.51.14-.46,0-.62-.21-.68h0a3,3,0,0,0,0-1,.34.34,0,0,0-.28-.25,1.41,1.41,0,0,0-1-.56c-1.34-.31-1.36.53-1.36.53h0s-.32-.08-.36.3a6.06,6.06,0,0,0,0,1h0c-.2.06-.35.22-.21.68C23.37,15.14,23.51,15.36,23.71,15.35Z"/></svg>