<svg id="Layer_1" data-name="Layer 1" xmlns="http://www.w3.org/2000/svg" xmlns:xlink="http://www.w3.org/1999/xlink" viewBox="0 0 50 50"><defs><style>.cls-1{fill:url(#linear-gradient);}.cls-2{fill:url(#linear-gradient-2);}.cls-3{fill:url(#linear-gradient-3);}.cls-4{fill:url(#linear-gradient-4);}.cls-5{fill:url(#linear-gradient-5);}.cls-6{fill:url(#linear-gradient-6);}.cls-7{fill:url(#linear-gradient-7);}.cls-8{fill:url(#linear-gradient-8);}.cls-9{fill:url(#linear-gradient-9);}.cls-10{fill:url(#linear-gradient-10);}.cls-11{fill:url(#linear-gradient-11);}.cls-12{fill:url(#linear-gradient-12);}</style><linearGradient id="linear-gradient" x1="23.01" y1="31.95" x2="26.18" y2="31.95" gradientUnits="userSpaceOnUse"><stop offset="0" stop-color="#1b4071"/><stop offset="0.26" stop-color="#1d4374"/><stop offset="0.44" stop-color="#254b7d"/><stop offset="0.6" stop-color="#32598d"/><stop offset="0.74" stop-color="#456ea3"/><stop offset="0.88" stop-color="#5d88bf"/><stop offset="1" stop-color="#78a5df"/></linearGradient><linearGradient id="linear-gradient-2" x1="21.44" y1="34.66" x2="27.72" y2="34.66" xlink:href="#linear-gradient"/><linearGradient id="linear-gradient-3" x1="19.65" y1="33.18" x2="29.51" y2="33.18" xlink:href="#linear-gradient"/><linearGradient id="linear-gradient-4" x1="15.7" y1="19.05" x2="18.86" y2="19.05" xlink:href="#linear-gradient"/><linearGradient id="linear-gradient-5" x1="14.12" y1="21.76" x2="20.41" y2="21.76" xlink:href="#linear-gradient"/><linearGradient id="linear-gradient-6" x1="12.34" y1="20.28" x2="22.2" y2="20.28" xlink:href="#linear-gradient"/><linearGradient id="linear-gradient-7" x1="31.16" y1="19.05" x2="34.33" y2="19.05" xlink:href="#linear-gradient"/><linearGradient id="linear-gradient-8" x1="29.59" y1="21.76" x2="35.88" y2="21.76" xlink:href="#linear-gradient"/><linearGradient id="linear-gradient-9" x1="27.8" y1="20.28" x2="37.66" y2="20.28" xlink:href="#linear-gradient"/><linearGradient id="linear-gradient-10" x1="24.48" y1="23.83" x2="28.01" y2="23.83" xlink:href="#linear-gradient"/><linearGradient id="linear-gradient-11" x1="24.47" y1="26.02" x2="25.4" y2="26.02" xlink:href="#linear-gradient"/><linearGradient id="linear-gradient-12" x1="21.86" y1="23.83" x2="25.39" y2="23.83" xlink:href="#linear-gradient"/></defs><path class="cls-1" d="M23.28,32.32h0c.23.81.78,1.52,1.31,1.52s1.06-.72,1.29-1.52h0c.15,0,.27-.17.27-.37A.39.39,0,0,0,26,31.6v-.07c0-1.05-.4-1.48-1.41-1.48s-1.43.46-1.43,1.51v0A.42.42,0,0,0,23,32C23,32.15,23.13,32.32,23.28,32.32Z"/><path class="cls-2" d="M27.72,35.41v-.16a.74.74,0,0,0-.44-.57h0a6.94,6.94,0,0,0-2.73-.76,7,7,0,0,0-2.67.76.74.74,0,0,0-.44.57v.16Z"/><path class="cls-3" d="M24.58,38.11a4.93,4.93,0,1,1,4.93-4.93A4.93,4.93,0,0,1,24.58,38.11Zm0-8.94a4,4,0,1,0,4,4A4,4,0,0,0,24.58,29.17Z"/><path class="cls-4" d="M16,19.42h0c.24.8.79,1.52,1.31,1.52s1.06-.72,1.29-1.52h0c.15,0,.26-.17.26-.37a.39.39,0,0,0-.17-.35v-.07c0-1.05-.39-1.48-1.41-1.48s-1.42.46-1.42,1.51v0a.39.39,0,0,0-.16.35C15.7,19.25,15.82,19.42,16,19.42Z"/><path class="cls-5" d="M20.41,22.5v-.15a.75.75,0,0,0-.43-.57h0A6.87,6.87,0,0,0,17.24,21a7.21,7.21,0,0,0-2.67.77.76.76,0,0,0-.44.57v.15Z"/><path class="cls-6" d="M17.27,25.21a4.93,4.93,0,1,1,4.93-4.93A4.93,4.93,0,0,1,17.27,25.21Zm0-8.94a4,4,0,1,0,4,4A4,4,0,0,0,17.27,16.27Z"/><path class="cls-7" d="M31.43,19.42h0c.23.8.78,1.52,1.31,1.52s1.06-.72,1.29-1.52h0c.14,0,.26-.17.26-.37a.39.39,0,0,0-.17-.35v-.07c0-1.05-.4-1.48-1.41-1.48s-1.42.46-1.42,1.51v0a.4.4,0,0,0-.17.35C31.16,19.25,31.28,19.42,31.43,19.42Z"/><path class="cls-8" d="M35.88,22.5v-.15a.74.74,0,0,0-.44-.57h0A6.87,6.87,0,0,0,32.71,21a7.14,7.14,0,0,0-2.67.77.74.74,0,0,0-.44.57v.15Z"/><path class="cls-9" d="M32.73,25.21a4.93,4.93,0,1,1,4.93-4.93A4.94,4.94,0,0,1,32.73,25.21Zm0-8.94a4,4,0,1,0,4,4A4,4,0,0,0,32.73,16.27Z"/><path class="cls-10" d="M24.94,25.14a.47.47,0,0,1-.39-.2.47.47,0,0,1,.14-.64l2.62-1.7a.45.45,0,1,1,.5.76l-2.63,1.71A.42.42,0,0,1,24.94,25.14Z"/><path class="cls-11" d="M24.93,28h0a.47.47,0,0,1-.46-.46V24.45a.46.46,0,0,1,.46-.45h0a.46.46,0,0,1,.46.45v3.13A.46.46,0,0,1,24.93,28Z"/><path class="cls-12" d="M24.93,25.14a.42.42,0,0,1-.24-.07l-2.63-1.71a.45.45,0,1,1,.5-.76l2.62,1.7a.46.46,0,0,1,.14.64A.47.47,0,0,1,24.93,25.14Z"/></svg>