<svg id="Layer_1" data-name="Layer 1" xmlns="http://www.w3.org/2000/svg" xmlns:xlink="http://www.w3.org/1999/xlink" viewBox="0 0 50 50"><defs><style>.cls-1{fill:url(#linear-gradient);}.cls-2{fill:url(#linear-gradient-2);}.cls-3{fill:url(#linear-gradient-3);}.cls-4{fill:url(#linear-gradient-4);}.cls-5,.cls-8{fill:url(#linear-gradient-6);}.cls-6{fill:#fff;}.cls-7,.cls-8,.cls-9{opacity:0.2;}.cls-7{fill:url(#linear-gradient-7);}.cls-9{fill:url(#linear-gradient-9);}.cls-10{fill:url(#linear-gradient-10);}.cls-11{fill:url(#linear-gradient-11);}.cls-12{fill:url(#linear-gradient-12);}.cls-13{fill:url(#linear-gradient-13);}.cls-14{fill:url(#linear-gradient-14);}.cls-15{fill:url(#linear-gradient-15);}.cls-16{fill:url(#linear-gradient-16);}.cls-17,.cls-18{opacity:0.3;}.cls-17{fill:url(#linear-gradient-17);}.cls-18{fill:url(#linear-gradient-18);}.cls-19{fill:url(#linear-gradient-19);}.cls-20{fill:url(#linear-gradient-20);}.cls-21{fill:url(#linear-gradient-21);}.cls-22{fill:url(#linear-gradient-22);}.cls-23{fill:url(#linear-gradient-23);}</style><linearGradient id="linear-gradient" x1="18.7" y1="21.66" x2="31.27" y2="21.66" gradientUnits="userSpaceOnUse"><stop offset="0" stop-color="#1b4071"/><stop offset="0.26" stop-color="#1d4374"/><stop offset="0.44" stop-color="#254b7d"/><stop offset="0.6" stop-color="#32598d"/><stop offset="0.74" stop-color="#456ea3"/><stop offset="0.88" stop-color="#5d88bf"/><stop offset="1" stop-color="#78a5df"/></linearGradient><linearGradient id="linear-gradient-2" x1="12.69" y1="26.8" x2="20.37" y2="26.8" xlink:href="#linear-gradient"/><linearGradient id="linear-gradient-3" x1="12" y1="27.16" x2="21.04" y2="27.16" xlink:href="#linear-gradient"/><linearGradient id="linear-gradient-4" x1="12.89" y1="26.8" x2="20.18" y2="26.8" xlink:href="#linear-gradient"/><linearGradient id="linear-gradient-6" x1="12.2" y1="27.16" x2="20.85" y2="27.16" xlink:href="#linear-gradient"/><linearGradient id="linear-gradient-7" x1="13.04" y1="27.13" x2="20.67" y2="27.13" xlink:href="#linear-gradient"/><linearGradient id="linear-gradient-9" x1="15.39" y1="22.27" x2="18.65" y2="22.27" xlink:href="#linear-gradient"/><linearGradient id="linear-gradient-10" x1="15.15" y1="21.54" x2="18.42" y2="21.54" xlink:href="#linear-gradient"/><linearGradient id="linear-gradient-11" x1="15.35" y1="21.94" x2="18.22" y2="21.94" xlink:href="#linear-gradient"/><linearGradient id="linear-gradient-12" x1="15.35" y1="21.76" x2="18.22" y2="21.76" xlink:href="#linear-gradient"/><linearGradient id="linear-gradient-13" x1="26.46" y1="30.27" x2="38.6" y2="30.27" xlink:href="#linear-gradient"/><linearGradient id="linear-gradient-14" x1="26.99" y1="28.58" x2="33.66" y2="28.58" xlink:href="#linear-gradient"/><linearGradient id="linear-gradient-15" x1="34.68" y1="33.88" x2="38.31" y2="33.88" gradientTransform="translate(38.48 -15.87) rotate(49.41)" xlink:href="#linear-gradient"/><linearGradient id="linear-gradient-16" x1="34.92" y1="33.73" x2="38.31" y2="33.73" xlink:href="#linear-gradient"/><linearGradient id="linear-gradient-17" x1="27.29" y1="28.58" x2="33.36" y2="28.58" xlink:href="#linear-gradient"/><linearGradient id="linear-gradient-18" x1="27.29" y1="28.58" x2="30.67" y2="28.58" xlink:href="#linear-gradient"/><linearGradient id="linear-gradient-19" x1="29.67" y1="28.51" x2="33.8" y2="28.51" xlink:href="#linear-gradient"/><linearGradient id="linear-gradient-20" x1="26.75" y1="28.61" x2="31.17" y2="28.61" xlink:href="#linear-gradient"/><linearGradient id="linear-gradient-21" x1="33.18" y1="31.73" x2="34.78" y2="31.73" xlink:href="#linear-gradient"/><linearGradient id="linear-gradient-22" x1="28.46" y1="27.17" x2="30.01" y2="27.17" xlink:href="#linear-gradient"/><linearGradient id="linear-gradient-23" x1="27.92" y1="28.54" x2="28.93" y2="28.54" xlink:href="#linear-gradient"/></defs><path class="cls-1" d="M31.25,27.93l-.32-2.28a1.62,1.62,0,0,0-1.26-1.36l-2.45-.55h0L26.89,23a3.92,3.92,0,0,0,.33-.27,3.15,3.15,0,0,0,1-2,1.11,1.11,0,0,0,.14-2.15,2.63,2.63,0,0,0,.68-1.93,2.82,2.82,0,0,0-1.53-2,3.47,3.47,0,0,0-3.09-.29,5.05,5.05,0,0,0-1.56.9h0a2,2,0,0,1-.56.16,2.1,2.1,0,0,0-.8.25,1.31,1.31,0,0,0-.62,1,2.41,2.41,0,0,0,.85,1.91,1.12,1.12,0,0,0,.18,2.13,3.19,3.19,0,0,0,1,2,2.26,2.26,0,0,0,.35.28L23,23.7h-.08l-2.62.59A1.62,1.62,0,0,0,19,25.65l-.33,2.28a1.1,1.1,0,0,0,1.1,1.26H30.16a1.1,1.1,0,0,0,.83-.38A1.08,1.08,0,0,0,31.25,27.93Z"/><path class="cls-2" d="M20.08,22.21H13a.3.3,0,0,0-.3.29v8.6a.3.3,0,0,0,.3.29h7.09a.29.29,0,0,0,.29-.29V22.5A.29.29,0,0,0,20.08,22.21Zm.1,8.89a.1.1,0,0,1-.1.09H13a.09.09,0,0,1-.1-.09V22.5a.09.09,0,0,1,.1-.1h7.09a.1.1,0,0,1,.1.1Z"/><path class="cls-3" d="M20.75,21.54H12.29a.3.3,0,0,0-.29.3V32.49a.29.29,0,0,0,.29.29h8.46a.29.29,0,0,0,.29-.29V21.84A.3.3,0,0,0,20.75,21.54Zm.1,11a.11.11,0,0,1-.1.1H12.29a.1.1,0,0,1-.09-.1V21.84a.09.09,0,0,1,.09-.1h8.46a.1.1,0,0,1,.1.1Z"/><rect class="cls-4" x="12.89" y="22.4" width="7.29" height="8.79" rx="0.1"/><path class="cls-4" d="M13.07,22.64a.09.09,0,0,1,.09-.1h7v0a.1.1,0,0,0-.1-.1H13a.09.09,0,0,0-.1.1v8.6a.09.09,0,0,0,.1.09h.08Z"/><path class="cls-5" d="M20.75,21.74H12.29a.09.09,0,0,0-.09.1V32.49a.1.1,0,0,0,.09.1h8.46a.11.11,0,0,0,.1-.1V21.84A.1.1,0,0,0,20.75,21.74Zm-.38,9.36a.29.29,0,0,1-.29.29H13a.3.3,0,0,1-.3-.29V22.5a.3.3,0,0,1,.3-.29h7.09a.29.29,0,0,1,.29.29Z"/><path class="cls-6" d="M15,25.29H13.52a.17.17,0,0,1-.17-.16V23.66a.18.18,0,0,1,.17-.17H15a.17.17,0,0,1,.16.17v1.47A.16.16,0,0,1,15,25.29Zm-1.44-.19H15V23.69H13.55Z"/><path class="cls-6" d="M19.63,24.29H15.75a.1.1,0,0,0-.09.1.09.09,0,0,0,.09.1h3.88a.09.09,0,0,0,.1-.1A.1.1,0,0,0,19.63,24.29Z"/><rect class="cls-6" x="13.55" y="23.69" width="1.41" height="1.41"/><path class="cls-6" d="M14.3,24.93h-.06a.34.34,0,0,1-.2-.13l-.29-.44a.31.31,0,0,1,.08-.43l0,0a.31.31,0,0,1,.23,0,.3.3,0,0,1,.2.13l.12.18,1.31-.88a.31.31,0,0,1,.43.08h0a.28.28,0,0,1,.05.23.29.29,0,0,1-.13.2l-1.61,1.08A.27.27,0,0,1,14.3,24.93ZM14,24a.07.07,0,0,0-.06,0l0,0a.12.12,0,0,0,0,.07.15.15,0,0,0,0,.09l.29.44.08.05a.11.11,0,0,0,.08,0L16,23.63a.18.18,0,0,0,0-.07.15.15,0,0,0,0-.09.18.18,0,0,0-.07,0,.15.15,0,0,0-.09,0l-1.47,1-.23-.34A.11.11,0,0,0,14,24Z"/><path class="cls-6" d="M15.93,23.42a.15.15,0,0,0-.09,0l-1.47,1-.23-.34A.11.11,0,0,0,14,24a.07.07,0,0,0-.06,0l0,0a.12.12,0,0,0,0,.07.15.15,0,0,0,0,.09l.29.44.08.05a.11.11,0,0,0,.08,0L16,23.63a.18.18,0,0,0,0-.07.15.15,0,0,0,0-.09A.18.18,0,0,0,15.93,23.42Z"/><path class="cls-6" d="M15,27.51H13.52a.18.18,0,0,1-.17-.17V25.87a.17.17,0,0,1,.17-.16H15a.16.16,0,0,1,.16.16v1.47A.17.17,0,0,1,15,27.51Zm-1.44-.2H15V25.9H13.55Z"/><path class="cls-6" d="M19.63,26.51H15.75a.09.09,0,0,0-.09.1.09.09,0,0,0,.09.09h3.88a.09.09,0,0,0,.1-.09A.09.09,0,0,0,19.63,26.51Z"/><rect class="cls-6" x="13.55" y="25.9" width="1.41" height="1.41"/><path class="cls-6" d="M14.3,27.14h-.06A.3.3,0,0,1,14,27l-.29-.44a.31.31,0,0,1,.08-.43l0,0a.32.32,0,0,1,.23-.05.34.34,0,0,1,.2.13l.12.19,1.31-.89a.31.31,0,0,1,.43.09h0a.28.28,0,0,1,.05.23.34.34,0,0,1-.13.2l-1.61,1.08A.34.34,0,0,1,14.3,27.14ZM14,26.25l-.06,0,0,0s0,0,0,.07a.11.11,0,0,0,0,.08l.29.44a.1.1,0,0,0,.08.05.11.11,0,0,0,.08,0L16,25.84a.13.13,0,0,0,0-.07.11.11,0,0,0,0-.08s0-.05-.07-.05a.1.1,0,0,0-.09,0l-1.47,1-.23-.35A.14.14,0,0,0,14,26.25Z"/><path class="cls-6" d="M15.93,25.64a.1.1,0,0,0-.09,0l-1.47,1-.23-.35a.14.14,0,0,0-.1-.05l-.06,0,0,0s0,0,0,.07a.11.11,0,0,0,0,.08l.29.44a.1.1,0,0,0,.08.05.11.11,0,0,0,.08,0L16,25.84a.13.13,0,0,0,0-.07.11.11,0,0,0,0-.08S16,25.64,15.93,25.64Z"/><path class="cls-6" d="M15,29.72H13.52a.17.17,0,0,1-.17-.16V28.09a.18.18,0,0,1,.17-.17H15a.17.17,0,0,1,.16.17v1.47A.16.16,0,0,1,15,29.72Zm-1.44-.19H15V28.12H13.55Z"/><path class="cls-6" d="M19.63,28.72H15.75a.1.1,0,0,0-.09.1.09.09,0,0,0,.09.1h3.88a.09.09,0,0,0,.1-.1A.1.1,0,0,0,19.63,28.72Z"/><rect class="cls-6" x="13.55" y="28.12" width="1.41" height="1.41"/><path class="cls-6" d="M14.3,29.36h-.06a.34.34,0,0,1-.2-.13l-.29-.44a.31.31,0,0,1,.08-.43l0,0a.31.31,0,0,1,.23,0,.3.3,0,0,1,.2.13l.12.18,1.31-.88a.31.31,0,0,1,.43.08h0a.28.28,0,0,1,.05.23.29.29,0,0,1-.13.2L14.47,29.3A.27.27,0,0,1,14.3,29.36ZM14,28.47a.07.07,0,0,0-.06,0l0,0a.12.12,0,0,0,0,.07.15.15,0,0,0,0,.09l.29.44.08.05a.11.11,0,0,0,.08,0L16,28.06A.18.18,0,0,0,16,28a.15.15,0,0,0,0-.09.18.18,0,0,0-.07,0,.15.15,0,0,0-.09,0l-1.47,1-.23-.34A.11.11,0,0,0,14,28.47Z"/><path class="cls-6" d="M15.93,27.85a.15.15,0,0,0-.09,0l-1.47,1-.23-.34a.11.11,0,0,0-.1-.05.07.07,0,0,0-.06,0l0,0a.12.12,0,0,0,0,.07.15.15,0,0,0,0,.09l.29.44.08.05a.11.11,0,0,0,.08,0L16,28.06A.18.18,0,0,0,16,28a.15.15,0,0,0,0-.09A.18.18,0,0,0,15.93,27.85Z"/><path class="cls-7" d="M20.49,22.58h-.12V31.1a.29.29,0,0,1-.29.29H13v.13a.17.17,0,0,0,.17.17h7.28a.17.17,0,0,0,.18-.17V22.75A.17.17,0,0,0,20.49,22.58Z"/><path class="cls-8" d="M12.47,21.89h8.38v-.05a.1.1,0,0,0-.1-.1H12.29a.09.09,0,0,0-.09.1V32.49a.1.1,0,0,0,.09.1h.1V22A.08.08,0,0,1,12.47,21.89Z"/><path class="cls-9" d="M15.62,23h2.8a.22.22,0,0,0,.23-.21V21.54H15.39v1.24A.22.22,0,0,0,15.62,23Z"/><path class="cls-10" d="M18.18,21.11H17.9v-.32a.19.19,0,0,0-.14-.17l-.89-.29a.22.22,0,0,0-.16,0l-.88.29a.18.18,0,0,0-.13.17v.32h-.3a.22.22,0,0,0-.24.2v1.26a.22.22,0,0,0,.24.2h2.79a.22.22,0,0,0,.24-.2V21.31A.22.22,0,0,0,18.18,21.11Zm-2.29-.3h0l.87-.29h0l.89.29h0v.3H15.88Zm2.33,1.75H15.39s0,0,0,0V21.32s0,0,0,0h2.83Z"/><path class="cls-11" d="M18.18,22.57h0V21.32H15.39s0,0,0,0v1.24s0,0,0,0Z"/><rect class="cls-12" x="15.35" y="21.54" width="2.87" height="0.45"/><path class="cls-13" d="M32.84,25.64A3.87,3.87,0,1,0,33,31.39l1.49,1.28a.5.5,0,0,0,.1.65l2.79,2.39a.51.51,0,0,0,.71-.06l.42-.49a.51.51,0,0,0,0-.71l-2.79-2.39a.5.5,0,0,0-.66,0L33.5,30.79A3.88,3.88,0,0,0,32.84,25.64ZM28,31.29a3.57,3.57,0,1,1,5-.39A3.58,3.58,0,0,1,28,31.29Zm7.44,1,2.79,2.39a.21.21,0,0,1,0,.29l-.43.5a.2.2,0,0,1-.29,0l-2.79-2.39a.2.2,0,0,1,0-.29l.42-.5A.22.22,0,0,1,35.44,32.28Zm-.66,0-.13.16-1.47-1.26.08-.09.06-.07Z"/><path class="cls-14" d="M32.49,26.05a3.33,3.33,0,1,0,.37,4.7A3.33,3.33,0,0,0,32.49,26.05Zm-4.14,4.83a3,3,0,1,1,4.28-.33A3,3,0,0,1,28.35,30.88Z"/><rect class="cls-15" x="35.96" y="31.84" width="1.07" height="4.09" rx="0.21" transform="translate(-12.98 39.55) rotate(-49.41)"/><path class="cls-16" d="M35.15,32.3l-.23.27a.22.22,0,0,1,.29,0L38,34.94a.21.21,0,0,1,0,.29l.23-.27a.21.21,0,0,0,0-.29l-2.79-2.39A.22.22,0,0,0,35.15,32.3Z"/><circle class="cls-17" cx="30.32" cy="28.58" r="3.04"/><path class="cls-18" d="M28.64,30.9a3,3,0,0,1,2-5.34,3,3,0,0,0-2.32,5.32,3,3,0,0,0,1.92.73A3,3,0,0,1,28.64,30.9Z"/><path class="cls-19" d="M32.64,26a3.35,3.35,0,0,0-3-.7,3.3,3.3,0,0,1,2.82.74,3.34,3.34,0,0,1,.37,4.7,3.39,3.39,0,0,1-1.74,1.06A3.29,3.29,0,0,0,33,30.71,3.34,3.34,0,0,0,32.64,26Z"/><path class="cls-20" d="M28.14,31.26a3.58,3.58,0,0,1-.38-5,3.52,3.52,0,0,1,1.86-1.14,3.53,3.53,0,0,0-2,1.17,3.58,3.58,0,0,0,.39,5,3.53,3.53,0,0,0,3.17.75A3.57,3.57,0,0,1,28.14,31.26Z"/><path class="cls-21" d="M33.26,31.09l-.08.09,1.47,1.26.13-.16L33.32,31Z"/><path class="cls-22" d="M30,26.91a.59.59,0,0,0-.92-.39,2.22,2.22,0,0,0-.48.44.59.59,0,0,0,.21.91h0a.58.58,0,0,0,.69-.15,1.42,1.42,0,0,1,.25-.24.58.58,0,0,0,.24-.56Z"/><circle class="cls-23" cx="28.43" cy="28.54" r="0.5"/></svg>