<svg id="Layer_1" data-name="Layer 1" xmlns="http://www.w3.org/2000/svg" xmlns:xlink="http://www.w3.org/1999/xlink" viewBox="0 0 50 50"><defs><style>.cls-1,.cls-2{fill-rule:evenodd;}.cls-1{fill:url(#linear-gradient);}.cls-2{fill:url(#linear-gradient-2);}</style><linearGradient id="linear-gradient" x1="12.72" y1="21.35" x2="37.72" y2="21.35" gradientUnits="userSpaceOnUse"><stop offset="0" stop-color="#1b4071"/><stop offset="0.26" stop-color="#1d4374"/><stop offset="0.44" stop-color="#254b7d"/><stop offset="0.6" stop-color="#32598d"/><stop offset="0.74" stop-color="#456ea3"/><stop offset="0.88" stop-color="#5d88bf"/><stop offset="1" stop-color="#78a5df"/></linearGradient><linearGradient id="linear-gradient-2" x1="21.3" y1="26.51" x2="28.74" y2="26.51" xlink:href="#linear-gradient"/></defs><path class="cls-1" d="M27.28,13.61a9.19,9.19,0,0,1,2.89,1.19l2.85-2,1,1,1,1-2,2.85a9.19,9.19,0,0,1,1.19,2.89l3.45.59v2.93l-3.45.6a9.19,9.19,0,0,1-1.19,2.89l2,2.85-1,1-1,1-2.69-1.9-.86-2.14a7.21,7.21,0,1,0-8.5,0l-.71,2-2.84,2-1-1-1-1,2-2.85a9,9,0,0,1-1.2-2.89l-3.45-.6V21.19l3.45-.59a9,9,0,0,1,1.2-2.89l-2-2.85,1-1,1-1,2.86,2a9,9,0,0,1,2.89-1.19l.59-3.45h2.93Z"/><path class="cls-2" d="M22.31,31.19h5.42a.64.64,0,0,1,.64.64h0a.64.64,0,0,1-.64.64H22.31a.64.64,0,0,1-.64-.64h0a.64.64,0,0,1,.64-.64ZM25,18.49A1.3,1.3,0,0,1,25.35,21v6.49a.34.34,0,0,1-.33.34h0a.34.34,0,0,1-.33-.34V21A1.3,1.3,0,0,1,25,18.49ZM22.6,21.33a1.3,1.3,0,0,0-.33,2.55V29.7a.33.33,0,0,0,.33.33h0a.33.33,0,0,0,.33-.33V23.88a1.3,1.3,0,0,0-.33-2.55Zm4.84,0a1.3,1.3,0,0,0-.33,2.55V29.7a.33.33,0,0,0,.33.33h0a.33.33,0,0,0,.33-.33V23.88a1.3,1.3,0,0,0-.33-2.55Zm0,.66a.64.64,0,1,1-.64.64.64.64,0,0,1,.64-.64ZM22.6,22a.64.64,0,1,1-.64.64A.64.64,0,0,1,22.6,22ZM25,19.15a.64.64,0,1,0,.64.64.64.64,0,0,0-.64-.64Zm-1.73,14.1h3.46a.64.64,0,0,1,.64.64h0a.64.64,0,0,1-.64.64H23.29a.64.64,0,0,1-.64-.64h0A.64.64,0,0,1,23.29,33.25Z"/></svg>