<svg id="Layer_1" data-name="Layer 1" xmlns="http://www.w3.org/2000/svg" xmlns:xlink="http://www.w3.org/1999/xlink" viewBox="0 0 50 50"><defs><style>.cls-1{fill:url(#linear-gradient);}.cls-2{fill:#fff;fill-rule:evenodd;}</style><linearGradient id="linear-gradient" x1="15.04" y1="25" x2="34.96" y2="25" gradientUnits="userSpaceOnUse"><stop offset="0" stop-color="#1b4071"/><stop offset="0.26" stop-color="#1d4374"/><stop offset="0.44" stop-color="#254b7d"/><stop offset="0.6" stop-color="#32598d"/><stop offset="0.74" stop-color="#456ea3"/><stop offset="0.88" stop-color="#5d88bf"/><stop offset="1" stop-color="#78a5df"/></linearGradient></defs><path class="cls-1" d="M17.69,37.22c.06-.22.11-.44.16-.66.37-1.5.78-3,1.08-4.51a3.59,3.59,0,0,0-.79-3,13.91,13.91,0,0,1-2.86-5.22,9.05,9.05,0,0,1,.55-5.76,9.36,9.36,0,0,1,7.7-5.27,10.94,10.94,0,0,1,4.55.41,7.83,7.83,0,0,1,4.41,4.12A7.72,7.72,0,0,1,33.11,20,4.43,4.43,0,0,1,33,21.34,1.59,1.59,0,0,0,33,22.57a2.12,2.12,0,0,0,.11.21c.4.65.82,1.28,1.23,1.92.17.27.36.53.51.81.25.49.17.72-.33,1-.34.18-.82.29-1,.58s0,.41.11.57a1.58,1.58,0,0,1,.17.71.43.43,0,0,1-.14.3l-.1.07a.22.22,0,0,0,0,.11c0,.17.2.2.15.4a.9.9,0,0,1-.32.45c-.48.42-.15,1.31-.19,1.83a1.41,1.41,0,0,1-.47,1c-.6.46-1.55.22-2.23.12-1.08-.17-2.48-.07-2.6,1.29a8.36,8.36,0,0,0,.39,3.37"/><path class="cls-2" d="M26.11,16.81a5.06,5.06,0,0,1,1.57.65l1.55-1.1.56.56.56.57L29.25,19a5.06,5.06,0,0,1,.65,1.57l1.87.32V22.5l-1.87.32a5,5,0,0,1-.65,1.57l1.1,1.55-.56.56-.56.56-1.46-1-.47-1.16a3.91,3.91,0,1,0-4.6,0L22.31,26l-1.54,1.09-.56-.56-.56-.56,1.1-1.55a5,5,0,0,1-.65-1.57l-1.87-.32V20.92l1.87-.32A5.06,5.06,0,0,1,20.75,19l-1.1-1.54.56-.57.56-.56,1.55,1.1a5.06,5.06,0,0,1,1.57-.65l.32-1.87h1.58Z"/></svg>