<svg id="Layer_1" data-name="Layer 1" xmlns="http://www.w3.org/2000/svg" xmlns:xlink="http://www.w3.org/1999/xlink" viewBox="0 0 50 50"><defs><style>.cls-1{fill:url(#linear-gradient);}.cls-2{fill:url(#linear-gradient-2);}.cls-3{fill:url(#linear-gradient-3);}.cls-4{fill:url(#linear-gradient-4);}.cls-5{fill:url(#linear-gradient-5);}.cls-6{fill:url(#linear-gradient-6);}.cls-7{fill:url(#linear-gradient-7);}.cls-8{fill:url(#linear-gradient-8);}.cls-9{fill:url(#linear-gradient-9);}.cls-10{fill:url(#linear-gradient-10);}.cls-11{fill:url(#linear-gradient-11);}.cls-12{fill:url(#linear-gradient-12);}.cls-13{fill:url(#linear-gradient-13);}</style><linearGradient id="linear-gradient" x1="14.29" y1="18.82" x2="18.69" y2="18.82" gradientUnits="userSpaceOnUse"><stop offset="0" stop-color="#1b4071"/><stop offset="0.26" stop-color="#1d4374"/><stop offset="0.44" stop-color="#254b7d"/><stop offset="0.6" stop-color="#32598d"/><stop offset="0.74" stop-color="#456ea3"/><stop offset="0.88" stop-color="#5d88bf"/><stop offset="1" stop-color="#78a5df"/></linearGradient><linearGradient id="linear-gradient-2" x1="14.14" y1="16.19" x2="18.79" y2="16.19" xlink:href="#linear-gradient"/><linearGradient id="linear-gradient-3" x1="10.85" y1="22.51" x2="22.04" y2="22.51" xlink:href="#linear-gradient"/><linearGradient id="linear-gradient-4" x1="23.43" y1="33.2" x2="27.82" y2="33.2" xlink:href="#linear-gradient"/><linearGradient id="linear-gradient-5" x1="23.28" y1="30.57" x2="27.93" y2="30.57" xlink:href="#linear-gradient"/><linearGradient id="linear-gradient-6" x1="19.99" y1="36.89" x2="31.18" y2="36.89" xlink:href="#linear-gradient"/><linearGradient id="linear-gradient-7" x1="31.98" y1="18.82" x2="36.37" y2="18.82" xlink:href="#linear-gradient"/><linearGradient id="linear-gradient-8" x1="31.83" y1="16.19" x2="36.48" y2="16.19" xlink:href="#linear-gradient"/><linearGradient id="linear-gradient-9" x1="28.54" y1="22.51" x2="39.73" y2="22.51" xlink:href="#linear-gradient"/><linearGradient id="linear-gradient-10" x1="25.52" y1="24.43" x2="25.64" y2="24.43" xlink:href="#linear-gradient"/><linearGradient id="linear-gradient-11" x1="13.11" y1="29.64" x2="19.21" y2="29.64" xlink:href="#linear-gradient"/><linearGradient id="linear-gradient-12" x1="20.83" y1="16.34" x2="31.54" y2="16.34" xlink:href="#linear-gradient"/><linearGradient id="linear-gradient-13" x1="30.29" y1="30.7" x2="37.08" y2="30.7" xlink:href="#linear-gradient"/></defs><path class="cls-1" d="M14.48,17.25a.23.23,0,0,0-.19.11h0a6.47,6.47,0,0,0,.46,2.25A2.12,2.12,0,0,0,16.49,21c.83,0,1.47-.79,1.81-1.64a6.91,6.91,0,0,0,.39-1.82.35.35,0,0,0-.26-.15l-.11,0-.11,0v-.12a.88.88,0,0,0-.42-.65,5.48,5.48,0,0,1-1.55.25h0a2.53,2.53,0,0,1-1.39-.35.8.8,0,0,0-.2.57v.13l-.12,0Z"/><path class="cls-2" d="M14.58,17.19a.93.93,0,0,1,.27-.69c1.07.78,3,.12,3,.12a1,1,0,0,1,.5.74.41.41,0,0,1,.48.22c.19-3.21-2.83-3.1-3.56-2.31-1.37.07-1.05,2.16-1.05,2.16A.31.31,0,0,1,14.58,17.19Z"/><path class="cls-3" d="M16.46,22.8l0-.1h-.26a.26.26,0,0,1-.26-.26V21.9a.26.26,0,0,1,.26-.26h.52a.25.25,0,0,1,.26.26v.54a.26.26,0,0,1-.26.26h-.26l0,.1.28,1H22V23.6a1.32,1.32,0,0,0-.77-1h0a12.33,12.33,0,0,0-4.86-1.37,12.84,12.84,0,0,0-4.75,1.36,1.33,1.33,0,0,0-.79,1v.21h5.34Z"/><path class="cls-4" d="M23.62,31.63a.23.23,0,0,0-.19.1h0A6.25,6.25,0,0,0,23.89,34a2.12,2.12,0,0,0,1.73,1.42c.84,0,1.48-.79,1.82-1.65A6.37,6.37,0,0,0,27.82,32a.3.3,0,0,0-.25-.15.2.2,0,0,0-.11,0l-.11,0v-.11a.86.86,0,0,0-.42-.65,5.48,5.48,0,0,1-1.55.25h0A2.42,2.42,0,0,1,24,31a.9.9,0,0,0-.21.58v.12l-.11,0Z"/><path class="cls-5" d="M27.92,32c.18-3.2-2.83-3.09-3.57-2.3-1.36.07-1,2.16-1,2.16a.32.32,0,0,1,.4-.25,1,1,0,0,1,.27-.68c1.08.78,3,.12,3,.12a.93.93,0,0,1,.49.74A.4.4,0,0,1,27.92,32Z"/><path class="cls-6" d="M30.39,37h0a12.33,12.33,0,0,0-4.86-1.37A12.78,12.78,0,0,0,20.79,37,1.31,1.31,0,0,0,20,38v.22h5.34l.27-1,0-.11h-.26a.26.26,0,0,1-.26-.26v-.54a.26.26,0,0,1,.26-.26h.52a.26.26,0,0,1,.26.26v.54a.26.26,0,0,1-.26.26h-.26l0,.11.27,1h5.25V38A1.34,1.34,0,0,0,30.39,37Z"/><path class="cls-7" d="M32.17,17.25a.23.23,0,0,0-.19.11h0a6.47,6.47,0,0,0,.46,2.25A2.12,2.12,0,0,0,34.18,21c.83,0,1.47-.79,1.81-1.64a6.42,6.42,0,0,0,.38-1.82.31.31,0,0,0-.25-.15l-.11,0-.11,0v-.12a.83.83,0,0,0-.42-.65,5.48,5.48,0,0,1-1.55.25h0a2.5,2.5,0,0,1-1.38-.35.8.8,0,0,0-.2.57v.13l-.11,0Z"/><path class="cls-8" d="M32.27,17.19a.93.93,0,0,1,.27-.69c1.07.78,3,.12,3,.12a.94.94,0,0,1,.49.74.41.41,0,0,1,.49.22c.19-3.21-2.83-3.1-3.57-2.31-1.36.07-1,2.16-1,2.16A.31.31,0,0,1,32.27,17.19Z"/><path class="cls-9" d="M34.09,21.21a12.84,12.84,0,0,0-4.75,1.36,1.33,1.33,0,0,0-.79,1v.21h5.34l.27-1,0-.1h-.26a.26.26,0,0,1-.26-.26V21.9a.26.26,0,0,1,.26-.26h.52a.26.26,0,0,1,.26.26v.54a.26.26,0,0,1-.26.26h-.26l0,.1.27,1h5.25V23.6a1.32,1.32,0,0,0-.77-1h0A12.33,12.33,0,0,0,34.09,21.21Z"/><polygon class="cls-10" points="25.61 24.43 25.57 24.37 25.55 24.43 25.52 24.49 25.58 24.48 25.64 24.49 25.61 24.43"/><path class="cls-11" d="M15.5,26.88h1l-.88-1.73v0h0l-.67-1.32-1.81,3.07h1a11.39,11.39,0,0,0,3.37,7.89c.24.24.49.47.74.69l1-1a9.72,9.72,0,0,1-.76-.68A10,10,0,0,1,15.5,26.88Z"/><path class="cls-12" d="M25.58,16.56a10.22,10.22,0,0,1,3.08.47l-.5.85h3.38L30,14.8l-.57,1a11.65,11.65,0,0,0-3.82-.64,11.42,11.42,0,0,0-4.75,1l.71,1.24A10,10,0,0,1,25.58,16.56Z"/><path class="cls-13" d="M35.55,25.13a9.5,9.5,0,0,1,.11,1.51,10,10,0,0,1-2.95,7.13l-.21.2-.4-.77-1.81,3.07h3.38l-.5-1c.19-.16.37-.33.55-.51a11.42,11.42,0,0,0,3.36-8.13A11.16,11.16,0,0,0,37,25.22Z"/></svg>