<svg id="Layer_1" data-name="Layer 1" xmlns="http://www.w3.org/2000/svg" xmlns:xlink="http://www.w3.org/1999/xlink" viewBox="0 0 50 50"><defs><style>.cls-1{fill:url(#linear-gradient);}.cls-2{fill:url(#linear-gradient-2);}.cls-3{fill:url(#linear-gradient-3);}</style><linearGradient id="linear-gradient" x1="7" y1="27.07" x2="32.79" y2="27.07" gradientUnits="userSpaceOnUse"><stop offset="0" stop-color="#1b4071"/><stop offset="0.26" stop-color="#1d4374"/><stop offset="0.44" stop-color="#254b7d"/><stop offset="0.6" stop-color="#32598d"/><stop offset="0.74" stop-color="#456ea3"/><stop offset="0.88" stop-color="#5d88bf"/><stop offset="1" stop-color="#78a5df"/></linearGradient><linearGradient id="linear-gradient-2" x1="18.86" y1="34.21" x2="26.61" y2="34.21" xlink:href="#linear-gradient"/><linearGradient id="linear-gradient-3" x1="20.52" y1="23.38" x2="41.57" y2="23.38" xlink:href="#linear-gradient"/></defs><path class="cls-1" d="M32.19,30l0,0,0,0,0,0h0l-6.84-3.46h0c-.44.1-.82.2-1.11.29h0v0a9.7,9.7,0,0,1-1.48,2.08,1.29,1.29,0,0,1-.94.41,1.26,1.26,0,0,1-.88-.35,1.29,1.29,0,0,1-.06-1.81,6,6,0,0,0,1.16-1.73,1.3,1.3,0,0,1,.66-.78l.36-.18-3.21.22a.58.58,0,0,0-.19,0l-.31,0c-1.75-1.2-6.89-5.45-8.84-7.06L7,23c2.2,1.37,8,6.23,9.2,7.13l.15.11A3.81,3.81,0,0,0,18.24,32l.12.08.44.22A1.14,1.14,0,0,1,19,32l.2-.21a1.28,1.28,0,0,1,1.81,0,1.2,1.2,0,0,1,.25.33l.05.09.47-.44a1.29,1.29,0,0,1,.88-.34,1.31,1.31,0,0,1,.94.41,1.29,1.29,0,0,1,.26.42l0,.09.09-.05a1.37,1.37,0,0,1,.63-.16,1.26,1.26,0,0,1,.9.37,1.28,1.28,0,0,1,.32,1.3l0,.08.08,0a1.34,1.34,0,0,1,.47.28,1.29,1.29,0,0,1,.42.88,1.31,1.31,0,0,1-.34.93l-.18.2.4.21a1.11,1.11,0,0,0,.5.12,1.09,1.09,0,0,0,1-1.58l.31.18a1.25,1.25,0,0,0,.52.13,1.09,1.09,0,0,0,.88-1.74l.18.08a1,1,0,0,0,.46.11,1.09,1.09,0,0,0,1-.63,1.08,1.08,0,0,0-.05-1l.24,0A1.09,1.09,0,0,0,32.19,30Z"/><path class="cls-2" d="M26.26,34.29a1.14,1.14,0,0,0-.73-.29,1.07,1.07,0,0,0-.13-1.39,1.08,1.08,0,0,0-1.54,0l-.08.08a1.1,1.1,0,0,0-.3-.77,1.09,1.09,0,0,0-1.54-.06l-.71.67a1.06,1.06,0,0,0-.32-.65,1.09,1.09,0,0,0-1.54,0l-.2.21a1.09,1.09,0,0,0,0,1.54A1.06,1.06,0,0,0,20,34l.21,0a1.09,1.09,0,0,0,.29.8,1.11,1.11,0,0,0,.8.35,1.12,1.12,0,0,0,.63-.2A1.09,1.09,0,0,0,23,36.18a1.11,1.11,0,0,0,.78-.32l.11-.11a1.09,1.09,0,0,0,.35.8,1.12,1.12,0,0,0,.74.29,1.07,1.07,0,0,0,.8-.36l.6-.65A1.09,1.09,0,0,0,26.26,34.29Z"/><path class="cls-3" d="M37.14,17l4.43,4.72c-2,1.45-8.46,7.39-8.73,7.61a3,3,0,0,1-.63.39l0,0h0l-.27-.14-6.64-3.36h0a12.68,12.68,0,0,0-1.34.36,9.47,9.47,0,0,1-1.49,2.14,1.11,1.11,0,0,1-.8.35,1.08,1.08,0,0,1-.75-.3,1.1,1.1,0,0,1-.05-1.54A6.13,6.13,0,0,0,22,25.46a1,1,0,0,1,.55-.66,10.34,10.34,0,0,1,2.22-.68h0l1-.2.21,0,2.9.07a1.06,1.06,0,0,1,.31.05,2.9,2.9,0,0,1,.41.06C30,23.85,34.94,19,37.14,17Z"/></svg>