<svg id="Layer_1" data-name="Layer 1" xmlns="http://www.w3.org/2000/svg" xmlns:xlink="http://www.w3.org/1999/xlink" viewBox="0 0 50 50"><defs><style>.cls-1{fill:url(#linear-gradient);}.cls-2{fill:url(#linear-gradient-2);}.cls-3{fill:url(#linear-gradient-3);}.cls-4{fill:url(#linear-gradient-4);}.cls-5{fill:url(#linear-gradient-5);}.cls-6{fill:url(#linear-gradient-6);}</style><linearGradient id="linear-gradient" x1="27.36" y1="21.17" x2="32.56" y2="21.17" gradientUnits="userSpaceOnUse"><stop offset="0" stop-color="#1b4071"/><stop offset="0.26" stop-color="#1d4374"/><stop offset="0.44" stop-color="#254b7d"/><stop offset="0.6" stop-color="#32598d"/><stop offset="0.74" stop-color="#456ea3"/><stop offset="0.88" stop-color="#5d88bf"/><stop offset="1" stop-color="#78a5df"/></linearGradient><linearGradient id="linear-gradient-2" x1="29.56" y1="21.26" x2="30.36" y2="21.26" xlink:href="#linear-gradient"/><linearGradient id="linear-gradient-3" x1="22.58" y1="21.23" x2="37.39" y2="21.23" xlink:href="#linear-gradient"/><linearGradient id="linear-gradient-4" x1="24.32" y1="21.23" x2="35.65" y2="21.23" xlink:href="#linear-gradient"/><linearGradient id="linear-gradient-5" x1="14.37" y1="31.31" x2="24.74" y2="31.31" xlink:href="#linear-gradient"/><linearGradient id="linear-gradient-6" x1="21.65" y1="27.11" x2="25.86" y2="27.11" xlink:href="#linear-gradient"/></defs><path class="cls-1" d="M31.06,24H28.87a1.59,1.59,0,0,1-1.51-1.64v0h.81v0a.77.77,0,0,0,.7.83h2.19a.84.84,0,0,0,0-1.66h-2.2a1.64,1.64,0,0,1,0-3.27h2.19a1.59,1.59,0,0,1,1.51,1.64h-.81a.77.77,0,0,0-.7-.83H28.86a.84.84,0,0,0,0,1.66h2.2a1.64,1.64,0,0,1,0,3.27Z"/><rect class="cls-2" x="29.56" y="17.63" width="0.81" height="7.24"/><path class="cls-3" d="M30,28.64a7.41,7.41,0,1,1,5.23-2.17A7.36,7.36,0,0,1,30,28.64Zm0-14a6.61,6.61,0,1,0,4.66,1.93A6.56,6.56,0,0,0,30,14.63Z"/><path class="cls-4" d="M30,26.89a5.65,5.65,0,0,1-5.67-5.66,5.67,5.67,0,1,1,9.67,4h0A5.64,5.64,0,0,1,30,26.89Zm0-10.51a4.86,4.86,0,1,0,3.43,8.29h0A4.86,4.86,0,0,0,30,16.38Z"/><path class="cls-5" d="M17.41,36.5l-3-3,7.33-7.34,3,3Zm-1.9-3,1.9,1.9,6.19-6.2-1.9-1.9Z"/><polygon class="cls-6" points="23.65 29.21 21.65 27.22 23.86 25 24.43 25.57 22.79 27.22 23.65 28.07 25.29 26.43 25.86 27 23.65 29.21"/></svg>