<svg id="Layer_1" data-name="Layer 1" xmlns="http://www.w3.org/2000/svg" xmlns:xlink="http://www.w3.org/1999/xlink" viewBox="0 0 50 50"><defs><style>.cls-1{fill:url(#linear-gradient);}.cls-2{fill:url(#linear-gradient-2);}.cls-3{fill:url(#linear-gradient-3);}.cls-4{fill:url(#linear-gradient-4);}.cls-5{fill:url(#linear-gradient-5);}.cls-6{fill:url(#linear-gradient-6);}</style><linearGradient id="linear-gradient" x1="10.92" y1="20.08" x2="20.75" y2="20.08" gradientUnits="userSpaceOnUse"><stop offset="0" stop-color="#1b4071"/><stop offset="0.26" stop-color="#1d4374"/><stop offset="0.44" stop-color="#254b7d"/><stop offset="0.6" stop-color="#32598d"/><stop offset="0.74" stop-color="#456ea3"/><stop offset="0.88" stop-color="#5d88bf"/><stop offset="1" stop-color="#78a5df"/></linearGradient><linearGradient id="linear-gradient-2" x1="20.05" y1="20.08" x2="29.88" y2="20.08" xlink:href="#linear-gradient"/><linearGradient id="linear-gradient-3" x1="20.12" y1="31.36" x2="29.8" y2="31.36" xlink:href="#linear-gradient"/><linearGradient id="linear-gradient-4" x1="10.8" y1="31.18" x2="39.13" y2="31.18" xlink:href="#linear-gradient"/><linearGradient id="linear-gradient-5" x1="29.17" y1="20.08" x2="39" y2="20.08" xlink:href="#linear-gradient"/><linearGradient id="linear-gradient-6" x1="15.84" y1="16.31" x2="34.09" y2="16.31" xlink:href="#linear-gradient"/></defs><path class="cls-1" d="M20.75,24.25H10.92l4.92-8.34Zm-9.12-.4h8.42L15.84,16.7Z"/><path class="cls-2" d="M29.88,24.25H20.05L25,15.91Zm-9.13-.4h8.42L25,16.7Z"/><path class="cls-3" d="M25,38.87l-4.84-15H29.8ZM20.68,24.25,25,37.55l4.29-13.3Z"/><path class="cls-4" d="M25,38.5,10.8,23.85H39.13ZM11.75,24.25,25,37.92,38.18,24.25Z"/><path class="cls-5" d="M39,24.25H29.17l4.92-8.34Zm-9.12-.4H38.3L34.09,16.7Z"/><rect class="cls-6" x="15.84" y="16.11" width="18.25" height="0.4"/></svg>