<svg id="Layer_1" data-name="Layer 1" xmlns="http://www.w3.org/2000/svg" xmlns:xlink="http://www.w3.org/1999/xlink" viewBox="0 0 2097.64 2097.64"><defs><style>.cls-1,.cls-2{fill:#fff;}.cls-1,.cls-3{stroke:#fff;stroke-miterlimit:10;}.cls-1{stroke-width:18px;}.cls-3{fill:none;stroke-width:60px;}.cls-4{fill:url(#linear-gradient);}</style><linearGradient id="linear-gradient" x1="107.93" y1="1007.19" x2="1848.41" y2="1007.19" gradientTransform="translate(998.69 -396.67) rotate(45)" gradientUnits="userSpaceOnUse"><stop offset="0" stop-color="#1b4071"/><stop offset="0.26" stop-color="#1d4374"/><stop offset="0.44" stop-color="#254b7d"/><stop offset="0.6" stop-color="#32598d"/><stop offset="0.74" stop-color="#456ea3"/><stop offset="0.88" stop-color="#5d88bf"/><stop offset="1" stop-color="#78a5df"/></linearGradient></defs><path class="cls-1" d="M1262.79,1534.07h-760V528.24h535.65l1.27,1.27,223,223Zm-751.31-8.67h742.65V756.15L1034.88,536.91H511.48Z"/><path class="cls-2" d="M808.3,812.32V741.53H591.38v381.4h583.33V812.32ZM618.85,769h162v43.32h-162Zm0,212.36h162v43.31h-162Zm0-27.47V910.57h162v43.32Zm0-70.79V839.79h162V883.1Zm0,212.36v-43.32h162v43.32Zm528.39,0H808.3v-43.32h338.94Zm0-70.79H808.3V981.36h338.94Zm0-70.78H808.3V910.57h338.94ZM808.3,883.1V839.79h338.94V883.1Z"/><line class="cls-3" x1="1711.82" y1="1301.06" x2="1337.82" y2="1301.06"/><line class="cls-3" x1="1524.82" y1="1484.82" x2="1524.82" y2="1112.82"/><circle class="cls-4" cx="978.17" cy="1007.19" r="870.24" transform="translate(-425.69 986.67) rotate(-45)"/><path class="cls-2" d="M732.36,436.79c0,.18-.59.38-1.72.63s-2.87.41-5.06,1a49.79,49.79,0,0,0-18,8,48.89,48.89,0,0,0-10.15,10.14,44.43,44.43,0,0,0-7.3,15.43,36.1,36.1,0,0,0-.89,4.63,30.8,30.8,0,0,0-.42,4.85c0,.84,0,1.67-.07,2.5s0,1.83,0,2.76c.07,1.82.1,3.7.14,5.61q.24,11.42.49,24.33.31,17.23.66,37c.38,13.18.82,27.19.63,42-2,14.82,3.62,30.46.6,46.87-.87,16.41-.08,33.6.58,51.52s-1.23,36.62.57,56c3.81,19.41-4.22,39.52.54,60.33,1,20.83.74,42.31.51,64.49-2.91,22.14,0,45,.47,68.41-3.49,23.46-2,47.55.47,72.23-4.81,24.66-4.08,49.94.44,75.8v2.19l0,1.8,2.75.92,6.77,2.35c2.75.94,5.51,1.93,8.2,3s5.5,2,8.18,3.25c10.88,4.44,21.55,9.57,32.42,14.72,24.39,13.58,47.7,31.06,66.54,53.36,21.9,19.51,38.6,45.7,47.76,74.6,15,26.56,21.06,58.11,20.89,89.25-.1,15.6.08,31.24-1.07,47.09s-4,31.81-10,46.78c-.62,1.92-1.1,3.86-1.81,5.75l-1.84,5.19c-.24.74-.49,1.47-.78,2.15-1.41,2,1.43,1.07,2.6,1.18l.53,0h1.49l5.86,0c3.92,0,7.82,0,11.77-.06,7.86,0,15.73,0,23.64.17,31.63,1.42,63.65,3,96-.18,32.39-.85,65.13-2,98.21-.14,33.09-3.68,66.5-2.06,100.21-.13,33.7-.6,67.74,2,102-.06,17.15.29,34.37-.11,51.65-.39l13-.17,6.49,0,3.25,0c1.08,0,1.67-.08,2.53-.11a40,40,0,0,0,4.73-.51c.78-.15,1.54-.37,2.31-.54l1.17-.26,1.12-.39a37.24,37.24,0,0,0,8.77-4,36.8,36.8,0,0,0,7.45-6.39,40,40,0,0,0,5.42-8.27,36.3,36.3,0,0,0,2.83-9.47,15,15,0,0,0,.26-2.49c0-.9.16-1.51.17-2.63l.06-6.49c.14-17.28-.14-34.49-1.21-51.63-2.35-34.29,1-68.32.07-102,3.44-33.72-1.14-67.15.11-100.22-.34-33.07,2-65.82.15-98.21-.63-32.37-1.31-64.39.18-96-5.32-31.63,1.37-62.86.22-93.68,2.25-30.8-.32-61.21.26-91.14-1-29.94,2.47-59.42.32-88.43.43-29-1.72-57.54.32-85.55-2.63-28,2.22-55.51.37-82.48q0-10.11,0-20.12v-8.73l-.07-1a36.66,36.66,0,0,0-1-7.76A38.91,38.91,0,0,0,1408,451.06a28.43,28.43,0,0,0-14.43-6.29c-1.37-.09-2.56-.26-4.11-.31l-4.75,0c-3.19,0-6.36.06-9.52.15-12.63.37-25.12,1.3-37.47,1.43-24.67-.44-48.75,2.34-72.19-.46-23.45-.32-46.28-2.14-68.44-.48-22.17.6-43.66-6-64.48-.52-20.81,1-40.94-4.24-60.33-.53-19.4,3.4-38.09-.43-56-.55s-35.13-.41-51.52-.59c-73.86-.9-132-1.87-171.57-2.91-19.81-.49-35-1-45.25-1.56s-15.55-1.08-15.55-1.63,6.54-1.22,19.14-1.83,31.28-1.16,55.55-1.73c48.54-1.13,119.52-2.18,209.2-3.14,17.94-.18,36.63-3.09,56-.55,19.39,0,39.52-2.21,60.33-.54,20.82-3.84,42.31-.7,64.48-.52,22.16-.18,45,1.06,68.42-.48,23.46-2.24,47.54,1.1,72.21-.45a352.67,352.67,0,0,0,37.47,1.47c3.16,0,6.33-.11,9.51-.19l4.76-.17c1.66-.05,3.7,0,5.55,0a59.44,59.44,0,0,1,22.3,5.44c13.07,8.53,23.2,21.35,27.35,36.73a57.44,57.44,0,0,1,1.87,11.76l.11,1.47,0,1.25.1,2.47.17,5c.21,6.68.37,13.38.33,20.12-3.53,27-1,54.46.39,82.48,1.28,28-.54,56.54.33,85.55-.68,29,.9,58.49.3,88.43,1.65,29.93,2.28,60.33.26,91.14,1.13,30.82.22,62.05.23,93.68,1.41,31.62-.19,63.66.18,96,.72,32.39-3.77,65.14.15,98.21.49,33.07-.6,66.5.1,100.22-.47,33.7-1,67.73.08,102a402.4,402.4,0,0,0-2,51.63l.15,6.49c0,1,0,2.57-.05,3.82a29.19,29.19,0,0,1-.25,4,61.3,61.3,0,0,1-3.65,15.55,62.79,62.79,0,0,1-7.84,14.09,60.32,60.32,0,0,1-11.48,11.54,56.38,56.38,0,0,1-14.45,7.85l-1.93.73-2,.57c-1.35.36-2.68.76-4,1a59.79,59.79,0,0,1-8.2,1.09c-1.32.07-2.91.18-4,.19l-3.25,0-6.49,0h-13c-17.28-.06-34.5-.36-51.65-.64-34.29.39-68.33.18-102-.06-33.71,1.13-67.12-1.65-100.21-.1s-65.82-1.77-98.21-.16c-32.38,1.13-64.4,1.73-96-.19-7.91,0-15.78-.22-23.64-.49-4-.16-7.85-.29-11.77-.45l-5.86-.21-9.39-.19-20.13-.25-5,0h-1.24c-.21,0-.48,0-.58,0l.22-.57.93-2.33,3.65-9.24,3.53-9.29,3.38-9.63.4-1.16.19-.66.37-1.35.72-2.67c.5-1.78.78-3.63,1.13-5.44,4-14.2,5.8-28.76,6.88-43.1s1.9-28.49,3.79-42.93c-1.45-14.23-2.8-28.36-5.47-42.25s-6.69-27.48-13.14-39.84c-3.61-13.56-10.1-26-17.84-37.38S813.12,1197,804.23,1187c-17.32-20.46-37.69-38.41-61.05-49.82-10-4.77-19.79-9.75-29.79-14.06-2.48-1.16-5-2.09-7.51-3.15s-5-2-7.57-3l-3.81-1.38-.93-.34-.48-.17c-.15-.06-.32-.12-.65-.22l-3.38-1-13.41-3.94v-9.51q0-4.51-.1-9c-2.24-25.86,3-51.14.44-75.8.52-24.68-.34-48.77.47-72.23-5.31-23.43,0-46.27.49-68.41.75-22.18-3.52-43.66.49-64.49-4-20.81-.52-40.92.56-60.33s-1.71-38.08.55-56c-2.82-17.92,1.56-35.11.59-51.52,1.85-16.41.1-32.05.6-46.87a351.57,351.57,0,0,1,.63-42q.33-19.76.66-37,.26-12.9.5-24.33c0-1.91.06-3.79.12-5.61,0-.93,0-1.86.05-2.76s.13-1.93.21-2.89A49.55,49.55,0,0,1,684,470.26a48.5,48.5,0,0,1,9.25-17,50.5,50.5,0,0,1,12-10.41,45,45,0,0,1,20-6.56,23.93,23.93,0,0,1,5.36.05C731.77,436.44,732.36,436.6,732.36,436.79Z"/><path class="cls-2" d="M772.17,536.49c1.48,0,2.89,17,4.21,48.18.2,5.22.41,10.78.64,16.74s.81,12.32.65,19c-2,6.72,3.63,13.79.6,21.22-.88,7.42-.07,15.21.57,23.32s-1.23,16.58.56,25.36c1.92,4.39.85,8.87-.09,13.41a36.78,36.78,0,0,0-.92,6.9c0,2.16.37,5.24,1.56,5.65a22.16,22.16,0,0,1,.69,4.52c1.23-.06,2.37-.06,3.56,0l1.79.08,4.11.12c10,2.89,20.33,0,31-.49,10.61,3.51,21.52,2,32.68-.47,11.17,4.82,22.63,4.09,34.3-.43,11.72-.16,23.68,1.73,35.89-.39,12.19-.32,24.63-1.22,37.32-.37,12.68-3.21,25.59-3.07,38.72-.32,13.13-3.46,26.48-2.09,40-.31s27.3-3,41.25-.27c13.93.22,28.07-.78,42.4-.22,14.31,1.42,28.81,3,43.45-.19,14.67-.83,29.5-2,44.45-.14,15-3.68,30.1-2.06,45.36-.11,15.26-.62,30.66,2,46.18-.06,7.77.28,15.55-.13,23.37-.4l5.88-.17,2.93,0h1.07a6.65,6.65,0,0,1,1.78.59h0a4.11,4.11,0,0,0,.77-1.58l.09-.29a1.45,1.45,0,0,0,0-.23l0-.74.15-2.94.16-5.87a149.68,149.68,0,0,0-1.22-23.37c-2.35-15.53,1-30.92.07-46.17,3.45-15.27-1.12-30.4.11-45.37-.16-7.48.33-14.94.65-22.35.15-3.7.25-7.39.2-11.07,0-1.85-.07-3.69-.19-5.53l-.1-1.31-.11-.27a1.5,1.5,0,0,0-.3-.43c-.15-.49-.29-.9-.41-1.23l-1.27.25c-.2,0-.36.06-.52.06h-3.21c-5.63-.06-11.23-.31-16.82-.9-14.3,5.3-28.44-1.36-42.39-.22-14-2.25-27.71.33-41.24-.27-13.55,1-26.91-2.45-40-.3-13.11-.45-26,1.71-38.71-.33-12.69,2.63-25.12-2.22-37.33-.37-12.19,0-24.15.16-35.85-.39-11.7-4.13-23.15-.72-34.33-.44-11.15-.43-22.07,2.35-32.66-.45-10.61-.32-21-2.15-31-.48-10,.61-19.75-6-29.17-.52-9.43,1-18.54-4.24-27.31-.52-8.79,3.39-17.24-.44-25.37-.58l-23.33-.59c-66.83-1.77-105.14-3.88-105.14-6.1,0-1.24,11.83-2.41,33.8-3.54s54.1-2.18,94.67-3.13c8.13-.2,16.58-3.1,25.37-.57,8.77,0,17.88-2.22,27.31-.54,9.42-3.84,19.15-.69,29.17-.5,10-.19,20.38,1,31-.5,10.61-2.22,21.53,1.11,32.68-.46,11.18,2.37,22.63,1.76,34.33-.42,11.7,2.3,23.66-.48,35.85-.38,12.21,3.52,24.64,1,37.33-.37s25.6.52,38.71-.35c13.14.68,26.5-.89,40-.3,13.53-1.66,27.28-2.28,41.24-.25,14-1.14,28.09-.22,42.39-.23a157.21,157.21,0,0,1,16.82-.58q14.37.18,28.88.41c-.06,6-.08,12,0,18l.09,5.1,0,4c-.06,1.84-.15,3.68-.29,5.53q-.43,5.52-.89,11.07c-.55,7.41-.7,14.87,1.26,22.35.49,15-.62,30.1.11,45.37-.49,15.25-1,30.64.07,46.17a83.5,83.5,0,0,0-2,23.37c.08,1.94.19,3.91.34,5.87l.23,2.94.07.74.07,1.22.12,2.64q.62,11.17,1.2,22.41h0c-7.14.28-14.61.45-22.13.54l-7.82.08h-5.88c-7.82-.08-15.6-.36-23.37-.65-15.52.4-30.92.18-46.18-.06-15.26,1.14-30.38-1.65-45.36-.11s-29.78-1.75-44.45-.14c-14.64,1.11-29.14,1.73-43.45-.19-14.33,0-28.47-3.52-42.4-.23-14,.74-27.71,5.12-41.25-.26-13.55,1.34-26.9-2.59-40-.31-13.13-3.93-26-.19-38.72-.33-12.69-.75-25.13-2.08-37.32-.35s-24.17-1-35.89-.4c-11.67,2.25-23.13-3-34.3-.44-11.16-.5-22.07.35-32.68-.46-10.63,5.32-20.94,0-31-.48-.78-.06-1.52-.08-2.26-.09l-2.64,0c-2.4.06-4.82.2-7.29.35-4.93.32-10.16.73-15.23.88-.18-6.32.09-13.46,1.71-19.71-.26-.89-.48-1.8-.68-2.74-.1-.42-.2-1.06-.26-1.31l-.24-.87a22.73,22.73,0,0,1-.59-3.49,33.83,33.83,0,0,1,.13-6.9c.49-4.54,1.64-9,2.16-13.41,1.18-8.78-1.68-17.24.58-25.36-2.84-8.11,1.56-15.9.57-23.32,1.88-7.43.11-14.5.6-21.22a71.36,71.36,0,0,1,.65-19c.23-6,.44-11.54.63-16.76C769.27,553.52,770.69,536.49,772.17,536.49Z"/><path class="cls-2" d="M860.13,1258c1.39-.54,4.11,2.78,8,9.5.6,1.15,1.2,2.38,1.86,3.71a13.09,13.09,0,0,1,2,4.25c-1.39,2.12,4.53,2.21,2.06,4.84-.38,2,.89,3.61,2,5.39s-.09,4.24,2.07,6c4.18,1.3-3.19,5.21,2,6.49,1.53,2.07,1.73,4.5,1.87,7-2.46,3,.81,5,1.74,7.51-3,3.11-1.31,5.52,1.45,8-4.46,3.31-3.31,5.92,1.31,8.45.37,2.92-1.29,6,1,8.91.48,3,1.38,6.11.63,9.3a6.93,6.93,0,0,1,2.5,4.8,7.77,7.77,0,0,1-2.19,4.87c3.33,3.37,2,6.77,0,10-2.19,3.22,2.51,7.06-.52,10.32-.52,3.46,0,7.09-1,10.58l-.18.33s-.09,0-.12,0l-.27.1a2.67,2.67,0,0,0-.54.24,2.06,2.06,0,0,0-.74.76c-.27.55,0,1.11,1.76.46a3.42,3.42,0,0,0,1.12-.17c.27-.09.16,0-.34,1a12.25,12.25,0,0,0,1.79-2.15,3.49,3.49,0,0,0-.07,2c-.09-.06.61-.09,1-.09a13.36,13.36,0,0,1,1.37.12,5.86,5.86,0,0,1,.67.11l.11.12a3.31,3.31,0,0,0,.27.26c.37.32,1,.45.73-.58.5.32.5-.21.42-.48-.2-.42-.26-.49.46-.28a1,1,0,0,0,1.23-.53.66.66,0,0,0-.15-.66s0,0-.07-.09l-.08-.36c-.09-.23-.15-.46-.25-.69a9.85,9.85,0,0,0-.66-1.41c-2.35-3.73,1-7.43.07-11.1,3.44-3.67-1.12-7.3.11-10.91-.34-3.59,2-7.16.14-10.69-.62-3.52-1.3-7,.19-10.44-5.29-3.45,1.35-6.85.22-10.2,2.24-3.36-.32-6.67.27-9.93-1-3.26,2.44-6.47.3-9.62.44-3.15-1.71-6.26.33-9.32-2.63-3,2.21-6,.36-9a47.33,47.33,0,0,1,.4-8.62c4.13-2.82.71-5.57.43-8.25.22-1.35-.37-2.66-.65-4a4.56,4.56,0,0,1-.08-1.94c.15-.47.49-.47,1.2-.87.15-.5.7-1.15,1-1.82s.31-1.38-.51-1.33c-.21-.2.38-.93,1.08-1.89a11.79,11.79,0,0,0,1.6-2.76c-.31-.16-1.31.32-3.23,2.17-.88.5-.53-.56-.74-1.28s-.82-1.11-2,.74c-2.14,3.4-1.12-.42-3.55-.55-2-.22-3.82-.41-5.6-.59-16.07-1.8-25.29-3.88-25.29-6.1,0-2.48,11.37-4.78,30.89-6.68a2.78,2.78,0,0,0,.74-.19l.39-.15.57-.18c.77-.27,1.58-.56,2.41-.79,1.66-.44,3.5-.53,4.67.74a35.54,35.54,0,0,0,5.48-.88c1.95-.36,4-.5,5.06.34a13,13,0,0,1,5.52-1.87c.18,2.5-1.25,6.35-1.37,8.94.09,1.89-.17,4-.26,6a14.18,14.18,0,0,0,.74,5.92A6.83,6.83,0,0,1,916,1272a6.75,6.75,0,0,1-.33,1.94c-.36,1.32-.81,2.63,0,4-2.37,2.68-1.75,5.43.43,8.25-2.3,2.81.48,5.68.4,8.62-3.55,2.93-1.06,5.93.37,9s-.54,6.17.31,9.32c-.67,3.15.92,6.36.32,9.62,1.65,3.26,2.28,6.57.26,9.93,1.15,3.35.22,6.75.22,10.2,1.41,3.43-.17,6.92.2,10.44.73,3.53-3.78,7.1.14,10.69.49,3.61-.62,7.24.11,10.91-.5,3.67-1,7.37,0,11.1a8.2,8.2,0,0,0-1.15,1.41,4.91,4.91,0,0,0-.4.69l-.15.36-.12.6a17.39,17.39,0,0,0-.16,4.89c.3,3.32,1.26,7.06,2,11.12a68.46,68.46,0,0,1,.64,10.2c-4.05,0-8.28-.34-12.33-.65-3.41.19-6.94.23-10.46.2l-2.63,0-1.32,0-.72,0-3.14-.17a37.15,37.15,0,0,1-10.19-.22,31.24,31.24,0,0,0-10.19.11,23,23,0,0,1-5.48.43c-.83,0-1.59-.09-2.35-.18l-1.08-.16-.27,0c-.08,0-.22,0-.14-.14l.21-.69c1.08-3.74,2.08-7.11,1.72-9.82a52.76,52.76,0,0,1,.49-9.38,48.24,48.24,0,0,1,1.06-5c.22-.85.48-1.7.77-2.5l.45-1.22a5.12,5.12,0,0,1,.25-.57l.2-.28c.37-3.25,4.36-6.12,1.38-9.65-.52-3.3-4.64-6.67,1-9.44-1.11-3.15,2.78-6.1.61-9.2a3.82,3.82,0,0,0,1.71-4.49c-.43-1.5-1.38-3-1.36-4.44.69-2.91,2-5.88.13-8.62-2.07-2.69.61-5.62-.18-8.3-2.39-2.48,2.41-5.62-.4-7.94.18-2.62-.88-5-.49-7.59-5.65-1.6-.76-4.75-.7-7.16.41-2.48-4.23-3.84-.77-6.76-4.38-1.33-1.44-4.08-.82-6.35s-2.64-3.5-.89-5.89c-3.22-1.09.55-4-.82-5.42,1.37-2.22-.86-3.31-.85-4.95a4.34,4.34,0,0,1-.74-4.46c-.21-1.41-.4-2.74-.58-4C858.83,1262.89,858.75,1258.53,860.13,1258Z"/><path class="cls-2" d="M994.67,1257.91c1.48,0,2.91,6.14,4.22,17.34q.32,2.8.66,6a27.19,27.19,0,0,1,.63,6.84c-2,2.43,3.61,5,.6,7.63-.88,2.67-.07,5.47.59,8.39s-1.25,6,.55,9.14c3.82,3.15-4.22,6.42.55,9.81,1,3.4.75,6.9.5,10.51-2.9,3.6,0,7.32.5,11.14-3.51,3.81-2,7.75.45,11.76-4.81,4-4.07,8.13.42,12.34.17,4.21-1.71,8.51.41,12.89.2,2.2.4,4.43.62,6.65a2.21,2.21,0,0,1-.26,1.85c1.69-.18,2.45-.76,2.41-.5.15,0-.33.75-.47,2.07,1.44-1.73,1.48-2.24,1.72-2.12a26.41,26.41,0,0,1,7.22,1.82c4.87,1.93,9.82-3,14.85-.26,5,.2,10.11-.79,15.24-.23,5.15,1.42,10.36,3,15.63-.19,5.29-.85,10.62-2,16-.15,5.4-3.66,10.84-2,16.33-.11,5.48-.6,11,2,16.6-.06a18.52,18.52,0,0,0,2.11.11l.91,0,.16-.07a1.31,1.31,0,0,0,.44-.4c.26-.27.21-.43,1.38.37h0a1,1,0,0,0,1.24-.74,1.6,1.6,0,0,0-.15-1,1.5,1.5,0,0,0-.18-.24c-.06-.1-.14-.63-.24-.91a14.66,14.66,0,0,0-.65-2.11c-2.36-5.58,1-11.13,0-16.61,3.45-5.49-1.11-10.93.11-16.32-.31-5.38,2-10.71.15-16-.63-5.29-1.29-10.49.19-15.64-5.3-5.15,1.36-10.24.24-15.25,2.22-5-.34-10,.26-14.85-1-4.87,2.44-9.68.3-14.39.2-2.19-.21-5.49-.44-5.13-.23-.47-.26-.69.75-2-.87.2-.9.07-.64-.55,0-.27.06-.82-.16-1.17s-.72-.45-1.37.16h-2.92a54,54,0,0,1-6.39-.4c-4.22-4.14-8.32-.71-12.34-.43-4-.45-7.94,2.35-11.77-.46-3.8-.33-7.53-2.15-11.13-.48-3.61.6-7.11-6-10.5-.52-3.39,1-6.67-4.23-9.82-.54-3.16,3.4-6.2-.42-9.12-.55s-5.71-.41-8.4-.59c-24-1.8-37.82-3.88-37.82-6.1,0-2.48,17-4.78,46.22-6.68,2.92-.2,6-3.09,9.12-.57,3.15,0,6.43-2.21,9.82-.54,3.39-3.84,6.89-.7,10.5-.52,3.6-.18,7.33,1.06,11.13-.48,3.83-2.21,7.74,1.11,11.77-.45,4,2.36,8.12,1.74,12.34-.42a9.22,9.22,0,0,0,6.39.62c.57-.09,1-.22,1.71-.33l2.78-.35a46.15,46.15,0,0,1,5.76-.35c4.1,2.35,8.28,2,14.17,1.16.45,2.06,1.06,4.18,1.55,6.57a57.57,57.57,0,0,1,.33,12.13c-.19,5-.44,6.38,0,8.92-.68,4.71.89,9.52.29,14.39,1.67,4.88,2.29,9.83.27,14.85,1.14,5,.23,10.1.23,15.25,1.4,5.15-.19,10.35.18,15.64.74,5.27-3.76,10.6.15,16,.5,5.39-.61,10.83.1,16.32-.48,5.48-1,11,.08,16.61a13.06,13.06,0,0,0-1.18,2.11,6,6,0,0,0-.38,1.17c-.11.6-.21,1.22-.27,1.82a38.68,38.68,0,0,0-.17,7.31c.3,5,1.28,10.61,2,16.74h0a125.6,125.6,0,0,1-15.69.61c-2.74,0-5.46-.12-8.15-.23l-2-.09a11.33,11.33,0,0,1-1.2-.11l-2.11-.2a143.57,143.57,0,0,1-16.6-.06c-5.49,1.13-10.93-1.67-16.33-.11s-10.7-1.76-16-.15c-5.27,1.11-10.48,1.73-15.63-.19-5.13,0-10.24-3.51-15.24-.23-5,.76-10,5.13-14.85-.26-2.44.68-4.82,0-7.29-.49-4.29-.53-8-.95-12.76.19-3-1.88-6.25-2-10.38-1.63-.41-3.61-1.38-7.11-1.31-11.41.38-4.2.9-8.27,1.11-11.9a14.07,14.07,0,0,0-.74-6.65c-1.88-4.38,1-8.68.39-12.89-2.26-4.21,3-8.32.44-12.34.51-4-.35-8,.44-11.76-5.3-3.82,0-7.54.51-11.14.75-3.61-3.52-7.11.5-10.51-4-3.39-.54-6.66.54-9.81s-1.7-6.21.56-9.14c-2.84-2.92,1.56-5.72.59-8.39,1.86-2.67.11-5.2.6-7.63a9.59,9.59,0,0,1,.63-6.84q.34-3.21.65-6C991.78,1264.05,993.19,1257.91,994.67,1257.91Z"/><path class="cls-2" d="M1216,1257.91c1.48,0,2.9,6.14,4.22,17.34.19,1.89.41,3.88.64,6a26.81,26.81,0,0,1,.63,6.85c-2,2.42,3.62,5,.61,7.64-.88,2.67-.06,5.47.59,8.39s-1.24,6,.56,9.13c3.81,3.15-4.22,6.43.53,9.82,1,3.4.77,6.89.52,10.51-2.92,3.61,0,7.32.5,11.13-3.54,3.82-2,7.75.43,11.76-4.81,4-4,8.15.44,12.35.15,4.22-1.71,8.52.4,12.91.2,2.19.41,4.42.61,6.65a2.08,2.08,0,0,1-.25,1.83c1.67-.2,2.43-.77,2.41-.52.17,0-.33.75-.47,2.07,1.44-1.73,1.47-2.24,1.73-2.12a26.31,26.31,0,0,1,7.26,1.82c4.87,1.93,9.82-3,14.85-.26,5,.2,10.11-.79,15.24-.23,5.15,1.42,10.37,3,15.65-.19,5.27-.85,10.62-2,16-.15,5.39-3.66,10.83-2,16.32-.11,5.5-.6,11,2,16.62-.06a18.47,18.47,0,0,0,2.1.11l.91,0,.16-.07a1.26,1.26,0,0,0,.45-.4c.27-.27.2-.43,1.37.37h0a1,1,0,0,0,1.23-.74,1.36,1.36,0,0,0-.15-1,2.5,2.5,0,0,0-.16-.24c-.07-.1-.15-.63-.24-.93a18.67,18.67,0,0,0-.66-2.09c-2.36-5.59,1-11.13.06-16.61,3.45-5.5-1.12-10.94.11-16.33-.33-5.39,2-10.72.16-16-.64-5.27-1.31-10.48.18-15.64-5.3-5.14,1.36-10.23.22-15.25,2.25-5-.33-10,.26-14.85-1-4.87,2.47-9.68.32-14.41a18.84,18.84,0,0,0-.06-3.52l-.08-.88c0-.35-.07-.2-.11-.34l-.19-.34c-.24-.48-.26-.69.75-2-.87.2-.9.07-.64-.54a3.06,3.06,0,0,0-.17-1.18c-.2-.33-.72-.45-1.38.16h-3a54.13,54.13,0,0,1-6.39-.4c-4.21-4.14-8.32-.71-12.36-.43-4-.45-7.92,2.35-11.75-.46-3.83-.33-7.52-2.15-11.14-.48-3.6.6-7.11-6-10.5-.52-3.41,1-6.68-4.23-9.83-.54-3.16,3.4-6.21-.42-9.14-.55s-5.71-.41-8.38-.59c-24-1.8-37.85-3.88-37.85-6.1,0-2.48,17-4.78,46.23-6.68,2.93-.2,6-3.09,9.14-.57,3.15,0,6.42-2.21,9.83-.54,3.39-3.84,6.9-.7,10.5-.52,3.62-.18,7.31,1.06,11.14-.48,3.83-2.21,7.74,1.11,11.75-.45,4,2.36,8.15,1.74,12.36-.42a9.22,9.22,0,0,0,6.39.62l1.69-.33,2.79-.35a45.9,45.9,0,0,1,5.73-.35c4.14,2.35,8.33,2,14.29,1.15.45,2,1,4.14,1.51,6.52a56.25,56.25,0,0,1,.32,12.13c0,1.79-.13,3.6-.22,5.41a17.32,17.32,0,0,0,.24,3.52c-.67,4.73.9,9.54.3,14.41,1.66,4.88,2.29,9.82.26,14.85,1.14,5,.22,10.11.23,15.25,1.4,5.16-.19,10.37.18,15.64.73,5.28-3.77,10.61.14,16,.5,5.39-.61,10.83.11,16.33-.48,5.48-1,11,.07,16.61a12.2,12.2,0,0,0-1.17,2.09,5.54,5.54,0,0,0-.38,1.17c-.11.62-.21,1.24-.28,1.84a40.42,40.42,0,0,0-.17,7.31c.31,5,1.27,10.61,2,16.74h0a125.85,125.85,0,0,1-15.71.61c-2.73,0-5.45-.12-8.15-.23l-2-.09a11.36,11.36,0,0,1-1.19-.11l-2.1-.2a143.91,143.91,0,0,1-16.62-.06c-5.49,1.13-10.93-1.67-16.32-.11s-10.72-1.76-16-.15c-5.28,1.11-10.5,1.73-15.65-.19-5.13,0-10.23-3.51-15.24-.23-5,.76-10,5.13-14.85-.26-2.45.68-4.87,0-7.26-.49-4.29-.53-8-.95-12.76.19-3.07-1.88-6.3-2-10.46-1.63-.4-3.57-1.37-7.08-1.32-11.35.38-4.2.92-8.24,1.13-11.92a14.32,14.32,0,0,0-.76-6.65c-1.86-4.39,1-8.69.41-12.91-2.26-4.2,3-8.33.41-12.35.51-4-.34-7.94.47-11.76-5.3-3.81,0-7.52.49-11.13.76-3.62-3.52-7.11.51-10.51-4-3.39-.54-6.67.53-9.82s-1.68-6.21.57-9.13c-2.83-2.92,1.56-5.72.58-8.39,1.88-2.68.11-5.22.61-7.64a9.67,9.67,0,0,1,.64-6.85c.22-2.14.44-4.13.64-6C1213.13,1264.05,1214.53,1257.91,1216,1257.91Z"/><path class="cls-2" d="M773.25,1032.67c1.48,0,2.91,5.91,4.22,16.73.21,1.79.41,3.74.63,5.79a24.87,24.87,0,0,1,.66,6.6c-2,2.33,3.62,4.79.59,7.37-.88,2.57-.07,5.27.58,8.08s-1.24,5.76.57,8.8c3.82,3.06-4.22,6.21.55,9.48,1,3.26.74,6.65.51,10.13-2.91,3.48,0,7.06.47,10.74-3.5,3.69-2,7.46.47,11.34-2.41,1.93-3.44,3.9-3.29,5.89a6.47,6.47,0,0,0,1.07,3,4.76,4.76,0,0,0,1.14,1.38,5.33,5.33,0,0,0,1.51.46,3.21,3.21,0,0,1-.17,1c-.11.37-.38.85-.07,1.08a2.07,2.07,0,0,0,.91.68,1.67,1.67,0,0,0,.65.11,2.08,2.08,0,0,1,1.11.09c3.72,2.37,7.7,4.65,10.62,8.26,5.66.48,9,4,10.55,9.19a9.89,9.89,0,0,1,6.59,3.57,12.17,12.17,0,0,1,1.12,1.45l.25.38c0,.06,0,.08,0,.13l-.06.23a5.26,5.26,0,0,0-.24,1.46c-.11.75.27.67.59.54s.52-.49,1-.81c2.38-.66,4.8-1.21,7.21.17,4.85.21,9.74-.79,14.71-.22,5,1.41,10,3,15.08-.18,5.1-.87,10.22-2,15.41-.16,5.19-3.68,10.46-2,15.74-.1a35.12,35.12,0,0,1,8,.5l.46.07.1,0a.54.54,0,0,0,.19.08.77.77,0,0,0,.42,0c.25,0,.47-.28.37-.78.44.21.68,0,.72-.21-.35-.86-.8-1.12.18-1.27a1.56,1.56,0,0,0,.41-.23l.19-.16.09-.1s0,0,.09-.25a40.71,40.71,0,0,0,.45-4.08,18.73,18.73,0,0,0-1.21-8.11c-2.35-5.38,1-10.72.07-16,3.44-5.28-1.12-10.53.11-15.73-.34-5.19,2-10.34.14-15.42-.62-5.08-1.3-10.11.19-15.08-5.29-5,1.35-9.86.22-14.7,2.24-4.85-.32-9.61.27-14.32-.49-2.35.13-4.69.59-7a18.71,18.71,0,0,0,.43-3.46,9.18,9.18,0,0,0-.16-1.72c-.06-.29-.12-.57-.21-.86a2.31,2.31,0,0,0-.35-.21,1.39,1.39,0,0,0-.41-1.35c-.23-.36-.3-.54.56-1.92l.07-.17c-1.79,1.3-1.48.76-1.76.11s-.91-1.41-1.62-.48h-5.89a44.85,44.85,0,0,1-6.15-.41c-4.07-4.12-8-.69-11.89-.41-3.91-.45-7.67,2.33-11.35-.46-3.68-.34-7.27-2.17-10.76-.49-3.47.61-6.87-6-10.13-.52-3.26,1-6.42-4.23-9.46-.54-3,3.42-6-.42-8.8-.56s-5.52-.4-8.09-.58c-23.2-1.79-36.48-3.88-36.48-6.09,0-2.48,16.41-4.78,44.57-6.7,2.81-.18,5.76-3.08,8.8-.55,3,0,6.2-2.23,9.46-.54,3.26-3.84,6.66-.69,10.13-.51,3.49-.18,7.08,1,10.76-.49,3.68-2.23,7.44,1.11,11.35-.47,3.86,2.38,7.82,1.76,11.89-.41a8.52,8.52,0,0,0,6.15.63l3.12-.68c.52-.11,1.06-.2,1.58-.26a13.44,13.44,0,0,1,2-.1,17.49,17.49,0,0,0,10.3,1.69c3.64-.36,8-1.33,12.56-2l.8-.12a59,59,0,0,1,.19,11.37,78.23,78.23,0,0,0,0,11.76l-.15,2.37c0,.58,0,1.15,0,1.72.06,1.15.18,2.3.27,3.46a31.37,31.37,0,0,1,.2,7c1.65,4.71,2.28,9.47.26,14.32,1.15,4.84.22,9.74.22,14.7,1.41,5-.17,10,.2,15.08.73,5.08-3.78,10.23.14,15.42.49,5.2-.62,10.45.11,15.73-.5,5.31-1,10.65,0,16a11.17,11.17,0,0,0-2,8.11,24.9,24.9,0,0,0,.85,4.08,5.67,5.67,0,0,1,.13.76l.14.94.31,1.91.58,3.92A144,144,0,0,1,919,1190c-4.18-.12-8.34-.34-12.4-.55-2.47.09-5,.15-7.52.18s-4.82,0-7.23,0c-2.66,0-5.32-.16-8-.28-5.28,1.14-10.55-1.65-15.74-.11s-10.31-1.76-15.41-.14c-5.09,1.12-10.11,1.73-15.08-.18-5,0-9.86-3.52-14.71-.24-2.41.37-4.83,1.66-7.21,2.17a26.73,26.73,0,0,1-6.92,0,13.82,13.82,0,0,1-3.22-.82c-.24-.11-.48-.2-.71-.32l-.34-.18c-.11-.08-.15-.3-.23-.46-.26-.64-.51-1.33-.73-2a27.31,27.31,0,0,1-4.53-4.41l-1-1.25-.5-.62-.21-.35-.88-1.47c-1.17-2-2.41-3.88-4.84-4.51-.49-5.82-6.12-6.19-9.27-8.92-2.69-3.31-5-7.11-9.34-8.18a7.07,7.07,0,0,1-2.15-1,23.37,23.37,0,0,1-2.32-1.61,39.65,39.65,0,0,1-4-3.61l-.94-.91c-.11-.17-.39-.25-.35-.5l.08-.71c.1-.92.19-1.85.27-2.78a28.89,28.89,0,0,0,.07-5.25,12.31,12.31,0,0,1-.53-2.58c0-.53,0-.64,0-.93a6.45,6.45,0,0,1,0-.76,15.71,15.71,0,0,1,.86-3c.69-2,1.37-4,.1-5.89.52-3.88-.33-7.65.46-11.34-5.3-3.68,0-7.26.5-10.74.76-3.48-3.53-6.87.49-10.13-4-3.27-.52-6.42.55-9.48s-1.69-6,.57-8.8c-2.83-2.81,1.54-5.51.59-8.08,1.85-2.58.08-5,.6-7.37a8.85,8.85,0,0,1,.63-6.58c.22-2.07.43-4,.65-5.81C770.35,1038.58,771.77,1032.67,773.25,1032.67Z"/><path class="cls-2" d="M994.67,1032.67c1.48,0,2.91,6.13,4.22,17.35q.32,2.81.66,6a27.1,27.1,0,0,1,.63,6.84c-2,2.41,3.61,5,.6,7.64-.88,2.67-.07,5.47.59,8.39s-1.25,6,.55,9.12c3.82,3.16-4.22,6.44.55,9.83,1,3.39.75,6.89.5,10.5-2.9,3.6,0,7.32.5,11.15-3.51,3.81-2,7.74.45,11.76-4.81,4-4.07,8.12.42,12.34.17,4.21-1.71,8.51.41,12.9.2,2.18.4,4.41.62,6.65a2.21,2.21,0,0,1-.26,1.85c1.69-.18,2.45-.76,2.41-.49.15,0-.33.75-.47,2.07,1.44-1.73,1.48-2.25,1.7-2.12a26.56,26.56,0,0,1,7.22,1.81c4.88,1.93,9.83-3,14.85-.26,5,.21,10.11-.79,15.25-.22,5.15,1.41,10.37,3,15.64-.18,5.26-.87,10.61-2,16-.16,5.4-3.68,10.84-2,16.33-.1,5.48-.61,11,2,16.6-.06.7.06,1.4.08,2.11.08h.91l.16-.06a1.61,1.61,0,0,0,.44-.42c.26-.28.21-.42,1.38.37h0a.94.94,0,0,0,1.24-.72,1.67,1.67,0,0,0-.15-1l-.18-.23c-.06-.09-.14-.63-.24-.93a15.09,15.09,0,0,0-.65-2.08c-2.36-5.6,1-11.13,0-16.63,3.45-5.49-1.11-10.93.11-16.3-.31-5.4,2-10.73.15-16-.63-5.29-1.29-10.49.19-15.64-5.3-5.16,1.36-10.24.24-15.25,2.22-5-.34-10,.26-14.86-1-4.86,2.44-9.67.3-14.39.2-2.19-.21-5.49-.44-5.13-.23-.48-.26-.7.75-2-.87.21-.9.07-.63-.55,0-.28,0-.84-.16-1.17s-.73-.47-1.38.15h-2.91a48.78,48.78,0,0,1-6.4-.41c-4.2-4.12-8.31-.69-12.33-.41-4-.45-7.94,2.33-11.76-.46-3.81-.34-7.54-2.17-11.14-.49-3.62.61-7.11-6-10.51-.52-3.38,1-6.65-4.23-9.82-.54-3.16,3.42-6.2-.42-9.12-.56s-5.71-.4-8.4-.58c-24-1.79-37.82-3.88-37.82-6.09,0-2.48,17-4.78,46.22-6.7,2.92-.18,6-3.08,9.12-.55,3.17,0,6.44-2.23,9.82-.54,3.4-3.84,6.89-.69,10.51-.51,3.6-.18,7.33,1,11.14-.49,3.82-2.23,7.75,1.11,11.76-.47,4,2.38,8.13,1.76,12.33-.41a9.21,9.21,0,0,0,6.4.63c.59-.09,1-.22,1.73-.34l2.79-.34a49.66,49.66,0,0,1,5.73-.36c4.11,2.35,8.27,2.06,14.16,1.18.45,2.05,1.06,4.18,1.55,6.6a57.34,57.34,0,0,1,.33,12.11c-.19,5-.44,6.37,0,8.91-.68,4.72.89,9.53.29,14.39,1.67,4.89,2.29,9.83.27,14.86,1.14,5,.23,10.09.23,15.25,1.4,5.15-.19,10.35.18,15.64.74,5.27-3.76,10.6.15,16,.5,5.37-.61,10.81.1,16.3-.48,5.5-1,11,.08,16.63a13.72,13.72,0,0,0-1.18,2.08,6.85,6.85,0,0,0-.38,1.18c-.11.62-.21,1.22-.27,1.83a38.58,38.58,0,0,0-.17,7.3c.3,5,1.28,10.62,2,16.75h0a123.65,123.65,0,0,1-15.69.62c-2.74,0-5.46-.12-8.15-.25l-2-.09c-.65,0-.8-.06-1.2-.09l-2.11-.2a148.14,148.14,0,0,1-16.6-.08c-5.49,1.14-10.93-1.65-16.33-.11s-10.73-1.76-16-.14c-5.27,1.12-10.49,1.73-15.64-.18-5.14,0-10.23-3.52-15.25-.24-5,.76-10,5.12-14.85-.26-2.45.67-4.82,0-7.29-.51-4.3-.52-8-.93-12.78.22-3-1.89-6.23-2-10.34-1.65-.4-3.61-1.38-7.13-1.31-11.43.38-4.18.9-8.28,1.11-11.88a14,14,0,0,0-.74-6.65c-1.88-4.39,1-8.69.39-12.9-2.26-4.22,3-8.33.44-12.34.51-4-.35-8,.44-11.76-5.3-3.83,0-7.55.51-11.15.75-3.61-3.52-7.11.5-10.5-4-3.39-.54-6.67.54-9.83s-1.7-6.2.56-9.12c-2.84-2.92,1.56-5.72.59-8.39,1.86-2.68.11-5.23.6-7.64a9.55,9.55,0,0,1,.63-6.83c.23-2.15.45-4.15.65-6C991.78,1038.8,993.19,1032.67,994.67,1032.67Z"/><path class="cls-2" d="M1216,1032.67c1.48,0,2.9,6.13,4.22,17.35.19,1.87.41,3.87.64,6a26.73,26.73,0,0,1,.63,6.85c-2,2.41,3.62,5,.61,7.63-.88,2.67-.06,5.47.59,8.39s-1.24,6,.56,9.13c3.81,3.16-4.22,6.43.53,9.83,1,3.39.77,6.88.52,10.5-2.92,3.61,0,7.32.5,11.14-3.54,3.83-2,7.74.43,11.77-4.81,4-4,8.13.44,12.33.15,4.22-1.71,8.54.4,12.93.2,2.19.41,4.42.61,6.64a2.09,2.09,0,0,1-.25,1.84c1.68-.19,2.43-.78,2.41-.51.15,0-.33.74-.47,2.07,1.44-1.73,1.49-2.25,1.73-2.12a26.42,26.42,0,0,1,7.24,1.81c4.88,1.93,9.83-3,14.85-.26,5,.21,10.1-.79,15.25-.22,5.16,1.41,10.37,3,15.66-.18,5.27-.87,10.6-2,16-.16,5.38-3.68,10.83-2,16.32-.1,5.48-.61,11,2,16.61-.06.71.06,1.41.08,2.11.08h.91c.06,0,.1,0,.16-.06a1.53,1.53,0,0,0,.45-.42c.27-.28.2-.42,1.37.37h0a.94.94,0,0,0,1.23-.72,1.42,1.42,0,0,0-.15-1l-.16-.23c-.07-.11-.15-.63-.24-.93a19.51,19.51,0,0,0-.66-2.1c-2.36-5.58,1-11.13.06-16.61,3.45-5.5-1.12-10.94.11-16.32-.33-5.4,2-10.72.16-16-.64-5.28-1.31-10.49.18-15.65-5.3-5.14,1.36-10.23.22-15.25,2.25-5-.33-10,.26-14.85-1-4.87,2.47-9.68.32-14.41a18.82,18.82,0,0,0-.06-3.52l-.08-.88,0-.25-.07-.11-.19-.35c-.24-.46-.26-.7.75-2-.87.2-.9.06-.64-.54a3,3,0,0,0-.17-1.17c-.2-.34-.72-.47-1.38.15h-3a48.37,48.37,0,0,1-6.38-.41c-4.2-4.12-8.33-.69-12.34-.41-4-.45-8,2.33-11.77-.46-3.82-.34-7.53-2.17-11.14-.49-3.61.61-7.11-6-10.51-.52-3.38,1-6.67-4.23-9.83-.54-3.15,3.42-6.19-.42-9.11-.56s-5.73-.4-8.4-.58c-24-1.79-37.86-3.88-37.86-6.09,0-2.48,17-4.78,46.26-6.7,2.92-.18,6-3.08,9.11-.55,3.16,0,6.45-2.23,9.83-.54,3.4-3.84,6.9-.69,10.51-.51,3.61-.18,7.32,1,11.14-.49,3.82-2.23,7.74,1.11,11.77-.47,4,2.38,8.14,1.76,12.34-.41a9.15,9.15,0,0,0,6.38.63l1.72-.34,2.78-.34a50,50,0,0,1,5.74-.36c4.12,2.37,8.33,2.06,14.26,1.17.45,2,1,4.13,1.51,6.53a56.27,56.27,0,0,1,.32,12.13c0,1.8-.13,3.6-.22,5.41a17.37,17.37,0,0,0,.24,3.52c-.67,4.73.9,9.54.3,14.41,1.66,4.88,2.29,9.83.26,14.85,1.14,5,.22,10.11.23,15.25,1.4,5.16-.19,10.37.18,15.65.73,5.28-3.77,10.6.14,16,.5,5.38-.61,10.82.11,16.32-.48,5.48-1,11,.07,16.61a12.66,12.66,0,0,0-1.17,2.1,5.46,5.46,0,0,0-.38,1.18c-.11.6-.21,1.22-.28,1.82a40.45,40.45,0,0,0-.17,7.31c.31,5,1.27,10.62,2,16.75h0a123.89,123.89,0,0,1-15.71.62c-2.74,0-5.45-.12-8.15-.25l-2-.09c-.64,0-.78-.06-1.19-.09l-2.11-.2a148.33,148.33,0,0,1-16.61-.08c-5.49,1.14-10.94-1.65-16.32-.11s-10.72-1.76-16-.14c-5.29,1.12-10.5,1.73-15.66-.18-5.15,0-10.23-3.52-15.25-.24-5,.76-10,5.12-14.85-.26-2.43.67-4.86,0-7.27-.51-4.3-.52-8-.93-12.75.22-3.06-1.91-6.31-2-10.44-1.64-.4-3.59-1.37-7.09-1.32-11.38.38-4.19.92-8.24,1.13-11.91a14.26,14.26,0,0,0-.76-6.64c-1.86-4.39,1-8.71.41-12.93-2.26-4.2,3-8.3.41-12.33.51-4-.34-7.94.47-11.77-5.3-3.82,0-7.53.49-11.14.76-3.62-3.52-7.11.51-10.5-4-3.4-.54-6.67.53-9.83s-1.68-6.21.57-9.13c-2.83-2.92,1.56-5.72.58-8.39,1.88-2.67.11-5.22.61-7.63a9.66,9.66,0,0,1,.64-6.85c.22-2.15.44-4.15.64-6C1213.13,1038.8,1214.53,1032.67,1216,1032.67Z"/><path class="cls-2" d="M773.25,807.49c1.48,0,2.91,6.13,4.22,17.33.21,1.87.41,3.88.63,6a26.67,26.67,0,0,1,.66,6.84c-2,2.41,3.62,5,.59,7.64-.88,2.67-.07,5.47.58,8.39s-1.24,6,.57,9.13c3.82,3.16-4.22,6.43.55,9.83,1,3.39.74,6.9.51,10.49-2.91,3.62,0,7.35.47,11.15-3.5,3.83-2,7.76.47,11.77-4.81,4-4.08,8.13.43,12.35.15,4.21-1.73,8.52.41,12.91.17,2.19.39,4.42.61,6.64a2.17,2.17,0,0,1-.27,1.82c1.67-.18,2.45-.77,2.4-.5.19,0-.31.75-.44,2.07,1.44-1.72,1.46-2.24,1.71-2.12a25.38,25.38,0,0,1,7.26,1.82c4.88,1.92,9.84-3,14.85-.27,5,.21,10.11-.78,15.26-.22,5.15,1.42,10.36,3,15.63-.19,5.29-.85,10.62-2,16-.16,5.37-3.67,10.82-2,16.31-.08,5.49-.62,11,2,16.62-.08a18.39,18.39,0,0,0,2.09.1l.92,0a.52.52,0,0,0,.15-.07,1.46,1.46,0,0,0,.47-.4c.25-.27.18-.43,1.36.37h0a.94.94,0,0,0,1.23-.74,1.36,1.36,0,0,0-.15-1,2.07,2.07,0,0,0-.15-.25,6.51,6.51,0,0,1-.25-.92,18.22,18.22,0,0,0-.66-2.11c-2.35-5.57,1-11.12.07-16.61,3.44-5.48-1.12-10.92.11-16.32-.34-5.39,2-10.72.14-16-.62-5.28-1.3-10.5.19-15.64-5.29-5.16,1.35-10.25.22-15.27,2.24-5-.32-10,.27-14.83-1-4.89,2.44-9.7.3-14.41a18.91,18.91,0,0,0-.05-3.53l-.1-.89c0-.35-.07-.22-.09-.34l-.18-.36c-.25-.47-.27-.69.75-1.94-.87.2-.92.06-.67-.54a2.64,2.64,0,0,0-.15-1.17c-.22-.35-.73-.47-1.38.15h-3a56.53,56.53,0,0,1-6.4-.4c-4.2-4.13-8.33-.71-12.34-.44-4-.43-7.94,2.35-11.77-.44-3.8-.32-7.53-2.15-11.15-.48-3.6.6-7.11-6-10.49-.53-3.38,1-6.66-4.23-9.84-.52-3.16,3.4-6.19-.43-9.12-.58s-5.73-.39-8.38-.59c-24.07-1.77-37.85-3.87-37.85-6.1,0-2.47,17-4.76,46.23-6.67,2.93-.18,6-3.1,9.12-.56,3.18,0,6.46-2.21,9.84-.54,3.38-3.84,6.89-.69,10.49-.51,3.62-.18,7.35,1,11.15-.49,3.83-2.23,7.76,1.11,11.77-.47,4,2.39,8.14,1.76,12.34-.42a9.15,9.15,0,0,0,6.4.64l1.69-.34,2.79-.34a44.1,44.1,0,0,1,5.74-.34c4.12,2.35,8.33,2,14.28,1.14.45,2,1,4.14,1.52,6.52a58.22,58.22,0,0,1,.31,12.12c-.07,1.81-.15,3.62-.22,5.43a18.35,18.35,0,0,0,.22,3.53c-.67,4.71.92,9.52.32,14.41,1.65,4.87,2.28,9.82.26,14.83,1.15,5,.22,10.11.22,15.27,1.41,5.14-.17,10.36.2,15.64.73,5.27-3.78,10.6.14,16,.49,5.4-.62,10.84.11,16.32-.5,5.49-1,11,0,16.61a12.26,12.26,0,0,0-1.15,2.11,4.81,4.81,0,0,0-.4,1.17c-.12.62-.19,1.24-.27,1.83a38.81,38.81,0,0,0-.16,7.32c.3,5,1.26,10.6,2,16.74h0a131.71,131.71,0,0,1-15.71.62c-2.73-.05-5.46-.14-8.14-.25l-2-.09c-.63,0-.77-.06-1.2-.09l-2.09-.22a146.19,146.19,0,0,1-16.62-.06c-5.49,1.14-10.94-1.67-16.31-.13s-10.73-1.74-16-.13c-5.27,1.13-10.48,1.73-15.63-.19-5.15,0-10.23-3.51-15.26-.23-5,.76-10,5.13-14.85-.25-2.44.67-4.85,0-7.26-.53-4.3-.52-8-.92-12.77.22-3-1.88-6.3-2-10.45-1.63-.4-3.57-1.38-7.09-1.3-11.35.38-4.2.9-8.25,1.11-11.93a14.54,14.54,0,0,0-.74-6.64c-1.88-4.39,1-8.7.38-12.91-2.26-4.22,3-8.33.43-12.35.52-4-.33-7.94.46-11.77-5.3-3.8,0-7.53.5-11.15.76-3.59-3.53-7.1.49-10.49-4-3.4-.52-6.67.55-9.83s-1.69-6.2.57-9.13c-2.83-2.92,1.54-5.72.59-8.39,1.85-2.67.08-5.23.6-7.64a9.53,9.53,0,0,1,.63-6.84c.22-2.15.43-4.16.65-6C770.35,813.62,771.77,807.49,773.25,807.49Z"/><path class="cls-2" d="M994.67,807.49c1.48,0,2.91,6.11,4.22,17.32q.32,2.82.66,6a27.19,27.19,0,0,1,.63,6.84c-2,2.42,3.61,5,.6,7.64-.88,2.67-.07,5.46.59,8.39s-1.25,6,.55,9.11c3.82,3.17-4.22,6.45.55,9.83,1,3.4.75,6.89.5,10.51-2.9,3.6,0,7.33.5,11.13-3.51,3.83-2,7.75.45,11.78-4.81,4-4.07,8.12.42,12.33.17,4.21-1.71,8.51.41,12.91.2,2.18.4,4.41.62,6.65a2.21,2.21,0,0,1-.26,1.85c1.69-.18,2.45-.77,2.41-.5.15,0-.33.75-.47,2.07,1.44-1.72,1.48-2.24,1.7-2.12a25.83,25.83,0,0,1,7.24,1.82c4.86,1.92,9.81-3,14.83-.27,5,.21,10.11-.78,15.25-.22,5.16,1.42,10.37,3,15.64-.19,5.29-.85,10.61-2,16-.16,5.4-3.67,10.84-2,16.33-.08,5.48-.62,11,2,16.6-.08a18.52,18.52,0,0,0,2.11.1l.91,0,.16-.07a1.56,1.56,0,0,0,.44-.4c.26-.27.21-.43,1.38.37h0a1,1,0,0,0,1.24-.74,1.6,1.6,0,0,0-.15-1,2.27,2.27,0,0,0-.18-.25c-.06-.09-.14-.62-.24-.92a16.13,16.13,0,0,0-.65-2.09c-2.36-5.58,1-11.13,0-16.61,3.45-5.5-1.11-10.94.11-16.32-.31-5.38,2-10.73.15-16-.63-5.28-1.29-10.5.19-15.63-5.3-5.16,1.36-10.24.24-15.27,2.22-5-.34-10,.26-14.83-1-4.88,2.44-9.68.3-14.4.2-2.2-.21-5.49-.44-5.13-.23-.48-.26-.7.75-2-.87.21-.9.06-.63-.55,0-.28,0-.84-.16-1.17s-.73-.47-1.38.15h-2.92a56.5,56.5,0,0,1-6.39-.4c-4.2-4.13-8.32-.71-12.34-.44-4-.43-7.93,2.35-11.77-.44-3.8-.32-7.52-2.15-11.13-.48-3.61.6-7.11-6-10.5-.53-3.38,1-6.65-4.23-9.82-.52-3.16,3.4-6.2-.43-9.12-.58s-5.71-.39-8.4-.59c-24-1.77-37.82-3.87-37.82-6.1,0-2.47,17-4.76,46.22-6.67,2.92-.18,6-3.1,9.12-.56,3.17,0,6.44-2.21,9.82-.54,3.39-3.84,6.89-.69,10.5-.51,3.61-.18,7.33,1,11.13-.49,3.84-2.23,7.74,1.11,11.77-.47,4,2.39,8.14,1.76,12.34-.42a9.12,9.12,0,0,0,6.39.64c.59-.09,1-.22,1.72-.34l2.81-.34a43.74,43.74,0,0,1,5.73-.34c4.09,2.33,8.27,2,14.16,1.16.45,2.05,1.06,4.17,1.55,6.58a57.53,57.53,0,0,1,.33,12.13c-.19,5-.44,6.37,0,8.91-.68,4.72.89,9.52.29,14.4,1.67,4.86,2.29,9.82.27,14.83,1.14,5,.23,10.11.23,15.27,1.4,5.13-.19,10.35.18,15.63.74,5.26-3.76,10.61.15,16,.5,5.38-.61,10.82.1,16.32-.48,5.48-1,11,.08,16.61a14.84,14.84,0,0,0-1.18,2.09,6.71,6.71,0,0,0-.38,1.17c-.11.62-.21,1.24-.27,1.84a38.68,38.68,0,0,0-.17,7.31c.3,5,1.28,10.61,2,16.74h0a131.54,131.54,0,0,1-15.69.62c-2.74-.05-5.46-.14-8.15-.25l-2-.09c-.65,0-.79-.06-1.2-.09l-2.11-.22a145.84,145.84,0,0,1-16.6-.06c-5.49,1.14-10.93-1.67-16.33-.13s-10.7-1.74-16-.13c-5.27,1.13-10.48,1.73-15.64-.19-5.14,0-10.23-3.51-15.25-.23-5,.76-10,5.13-14.83-.25-2.47.67-4.84,0-7.31-.53-4.28-.52-8-.92-12.75.22-3-1.88-6.24-2-10.37-1.63-.4-3.61-1.38-7.13-1.31-11.44.38-4.17.9-8.26,1.11-11.87a14,14,0,0,0-.74-6.65c-1.88-4.4,1-8.7.39-12.91-2.26-4.21,3-8.32.44-12.33.51-4-.35-8,.44-11.78-5.3-3.8,0-7.53.51-11.13.75-3.62-3.52-7.11.5-10.51-4-3.38-.54-6.66.54-9.83s-1.7-6.19.56-9.11c-2.84-2.93,1.56-5.72.59-8.39,1.86-2.68.11-5.22.6-7.64a9.59,9.59,0,0,1,.63-6.84q.34-3.21.65-6C991.78,813.6,993.19,807.49,994.67,807.49Z"/><path class="cls-2" d="M1216,807.49c1.48,0,2.9,6.13,4.22,17.33.19,1.87.41,3.88.64,6a26.69,26.69,0,0,1,.63,6.84c-2,2.41,3.62,5,.61,7.64-.88,2.66-.06,5.47.59,8.39s-1.24,6,.56,9.13c3.81,3.16-4.22,6.43.53,9.83,1,3.39.77,6.9.52,10.49-2.92,3.61,0,7.33.5,11.15-3.54,3.83-2,7.74.43,11.77-4.81,4-4,8.13.44,12.34.15,4.22-1.71,8.53.4,12.92.2,2.19.41,4.42.61,6.64a2.05,2.05,0,0,1-.25,1.82c1.68-.18,2.43-.77,2.41-.5.15,0-.33.75-.47,2.07,1.44-1.72,1.49-2.24,1.73-2.12a25.7,25.7,0,0,1,7.26,1.82c4.86,1.92,9.81-3,14.83-.27,5,.21,10.1-.78,15.26-.22,5.15,1.42,10.36,3,15.65-.19,5.27-.85,10.6-2,16-.16,5.39-3.67,10.83-2,16.32-.08,5.48-.62,11,2,16.61-.08a18.74,18.74,0,0,0,2.11.1l.91,0,.16-.07a1.48,1.48,0,0,0,.45-.4c.27-.27.2-.43,1.37.37h0a1,1,0,0,0,1.23-.74,1.36,1.36,0,0,0-.15-1c-.06-.09-.1-.17-.16-.25a8.72,8.72,0,0,1-.24-.92,20.39,20.39,0,0,0-.66-2.11c-2.36-5.57,1-11.12.06-16.59,3.45-5.5-1.12-10.94.11-16.34-.33-5.39,2-10.71.16-16-.64-5.28-1.31-10.5.18-15.64-5.3-5.16,1.36-10.23.22-15.27,2.25-5-.33-10,.26-14.83-1-4.89,2.47-9.68.32-14.41a18.81,18.81,0,0,0-.06-3.52l-.08-.9c0-.18,0-.23-.06-.24l-.05-.1-.19-.33c-.24-.5-.26-.72.75-2-.87.2-.9.06-.64-.54a3,3,0,0,0-.17-1.17c-.2-.35-.72-.47-1.38.15h-3a56.18,56.18,0,0,1-6.38-.4c-4.2-4.13-8.33-.71-12.34-.44-4-.43-8,2.35-11.77-.44-3.82-.32-7.53-2.15-11.14-.48-3.61.6-7.11-6-10.51-.53-3.38,1-6.67-4.23-9.83-.52-3.15,3.4-6.19-.43-9.11-.58s-5.73-.39-8.4-.59c-24-1.77-37.86-3.87-37.86-6.1,0-2.47,17-4.76,46.26-6.67,2.92-.18,6-3.1,9.11-.56,3.16,0,6.45-2.21,9.83-.54,3.4-3.84,6.9-.69,10.51-.51,3.61-.18,7.32,1,11.14-.49,3.82-2.23,7.74,1.11,11.77-.47,4,2.39,8.14,1.76,12.34-.42a9.09,9.09,0,0,0,6.38.64l1.7-.34,2.8-.34a44,44,0,0,1,5.74-.34c4.12,2.35,8.3,2,14.26,1.14.45,2,1,4.14,1.51,6.52a56.43,56.43,0,0,1,.32,12.15c0,1.79-.13,3.59-.22,5.41a17.42,17.42,0,0,0,.24,3.52c-.67,4.73.9,9.52.3,14.41,1.66,4.88,2.29,9.82.26,14.83,1.14,5,.22,10.11.23,15.27,1.4,5.14-.19,10.36.18,15.64.73,5.28-3.77,10.6.14,16,.5,5.4-.61,10.84.11,16.34-.48,5.47-1,11,.07,16.59a13.15,13.15,0,0,0-1.17,2.11,5.35,5.35,0,0,0-.38,1.17c-.11.62-.21,1.24-.28,1.83a40.56,40.56,0,0,0-.17,7.32c.31,5,1.27,10.6,2,16.74h0a131.8,131.8,0,0,1-15.71.62c-2.73-.05-5.45-.14-8.15-.25l-2-.09c-.64,0-.78-.06-1.19-.09l-2.11-.22a146,146,0,0,1-16.61-.06c-5.49,1.14-10.93-1.67-16.32-.13s-10.72-1.74-16-.13c-5.29,1.13-10.5,1.73-15.65-.19-5.16,0-10.24-3.51-15.26-.23-5,.76-10,5.13-14.83-.25-2.45.67-4.88,0-7.26-.53-4.32-.52-8-.92-12.78.22-3-1.88-6.31-2-10.44-1.63-.4-3.57-1.37-7.09-1.32-11.37.38-4.21.92-8.24,1.13-11.91a14.26,14.26,0,0,0-.76-6.64c-1.86-4.39,1-8.7.41-12.92-2.26-4.21,3-8.32.41-12.34.51-4-.34-7.94.47-11.77-5.3-3.82,0-7.54.49-11.15.76-3.59-3.52-7.1.51-10.49-4-3.4-.54-6.67.53-9.83s-1.68-6.2.57-9.13c-2.83-2.92,1.56-5.73.58-8.39,1.88-2.67.11-5.23.61-7.64a9.64,9.64,0,0,1,.64-6.84c.22-2.15.44-4.16.64-6C1213.13,813.62,1214.53,807.49,1216,807.49Z"/><path class="cls-2" d="M620.47,1094.11c0,1.87-18.07,1.76-49.52,9.08-2.62.56-5.31,1.41-8.09,2.11s-5.67,1.48-8.58,2.48l-9,3.11c-3.06,1.17-6.22,2.31-9.49,3.33-3.62.15-6.59,2.45-9.68,4.45s-6.17,4.16-10.27,4.35a43.43,43.43,0,0,0-5.41,2.09q-2.64,1.28-5.25,2.78c-1.72,1-3.49,2-5.19,3.11s-3.38,2.32-5.1,3.52-3.57,2.18-5.38,3.27-3.67,2.17-5.55,3.26a43.78,43.78,0,0,0-10.51,8,13,13,0,0,1-2.2,2.71,18.32,18.32,0,0,1-2.59,2.16,50.88,50.88,0,0,1-6.12,3.4c-4.21,2.18-8.32,4.81-10.36,9.7-6.27,7.36-13.53,14-20.32,21.69-9,5.79-13.09,16.18-18.68,25.29-8.91,7.08-13.29,17.78-16.11,29-9.15,8.13-13.32,19.68-12.55,32.37-1,2.78-1.79,5.65-2.75,8.48s-2,5.68-2.67,8.63-1.48,5.9-2.06,8.91a70.63,70.63,0,0,0-.71,9.24c-1.63,12.23-2.12,24.74-3,37.52,3.15,12.83,3.52,25.42,2.8,38.89,5.34,12.54,6.85,25.57,9.2,39.17a58.52,58.52,0,0,0,2.93,9.84c1.33,3.17,3,6.23,4.52,9.32s3.37,6.07,4.78,9.24a72.62,72.62,0,0,1,3.84,9.75c6.25,12.6,14.62,24.11,22.81,35.9,7.48,12.3,16.38,24.48,29.42,32.14,11.42,9.37,23.76,17.42,35.39,27,14.59,4.89,26.92,13.06,40.44,20.57,14.31,5.08,28.58,12,44.34,12.93,15.24,3.53,31,2.86,46.73,4.48,15.77,1.09,31.84.59,46.73-4.48,7.4-2.66,14.92-4.17,22.41-6,3.78-.78,7.48-1.86,11.16-2.94a66.05,66.05,0,0,0,10.76-4,38,38,0,0,0,5.68-1.27c1.82-.6,3.62-1.28,5.37-2s3.5-1.56,5.18-2.43,3.32-1.92,4.93-2.92l4.85-3,4.74-3.16c1.59-1,3.18-2,4.82-3s3.21-2,4.88-2.83c12.43-8.26,25.74-15.63,35.37-27,10.4-10.46,19.6-21.59,29.41-32.16,2.17-7.36,6.47-12.86,10.91-18.4,2.35-2.71,4.52-5.53,6.61-8.38,1-1.43,2.06-2.88,3-4.39a45.94,45.94,0,0,0,2.31-4.73c8.41-11.53,11.44-25.44,16-38.17,1.47-6.67,4-13,5.83-19.45.48-1.63.94-3.24,1.43-4.84s.72-3.28,1-4.93a46,46,0,0,0,.91-9.94c.53-3.27.87-6.55,1.19-9.81q.18-4.92.37-9.79c.22-3.24.09-6.47.31-9.68s.55-6.42.89-9.63a46.77,46.77,0,0,1-1.05-9.5c-.18-3.14-.13-6.31,0-9.46a79.61,79.61,0,0,0-.22-9.41,34.71,34.71,0,0,0-1.7-9.15c-1.87-12.19-5.2-23.82-8.19-35.25a35.89,35.89,0,0,0-1.1-9,53.48,53.48,0,0,0-3.17-8.2,73.59,73.59,0,0,0-4.17-7.67c-1.46-2.48-2.79-5-4.13-7.5a102.43,102.43,0,0,0-8.47-14.45c-2.91-4.7-5.89-9.18-7.62-14.49-5.75-9.07-10.63-18.74-18.68-25.32-3.5-3.71-5.88-8.33-8.69-12.56s-6.35-7.78-11.64-9.1c-4-2.77-6.74-6.74-9.93-10.22s-6.54-6.74-11.35-7.76c-4.67-1.2-8.09-3.87-11.46-6.58-1.67-1.39-3.25-2.88-4.85-4.29a37.14,37.14,0,0,0-5.13-3.72l-5.26-3.2c-1.76-1-3.56-1.94-5.3-2.91l-5.2-2.83c-1.7-.93-3.47-1.7-5.18-2.56a272.85,272.85,0,0,0-42.8-16.54L673,1103.9c-3-.8-5.92-1.34-8.7-2-5.57-1.38-10.7-2.08-15.29-3-9.19-1.45-16.34-2.46-21.15-3s-7.34-1.27-7.34-1.82,3.09-1.15,9.16-1.6c1.51-.09,3.21-.26,5.09-.26l6.16,0c2.22,0,4.64,0,7.23.15l8.25.64a239.06,239.06,0,0,1,42.43,7.71,253.57,253.57,0,0,1,53.94,22.13c1.92,1.07,4,1.93,6,2.9s4.1,2,6.15,3a33,33,0,0,1,11.1,8.52c3.92,2.68,7.93,5.4,12.08,8.13a56.72,56.72,0,0,1,11.18,10.06c10.07,4.21,15.55,14,22.39,22.33,7.35,8.06,13,17.77,20.75,26.43A55.8,55.8,0,0,1,852,1219c2.74,5.27,5,10.83,8.46,15.9.84,3,1.66,6,2.7,8.84s2.26,5.71,3.4,8.59,2.56,5.67,4,8.5,2.75,5.71,4.3,8.56a94.32,94.32,0,0,0,1.92,9.46c.78,3.12,1.87,6.17,2.74,9.3s1.91,6.27,2.87,9.42,1.55,6.44,2.11,9.72c-1.39,13.65,2.54,26.62,4,40.54s-1,28-2.32,42.24c-2.75,14.08-4.4,28.73-9.4,42.79-2.85,14.67-8.22,29.16-17,41.88-6,14.15-15.08,27-24.52,39.47-8.38,13.46-20.34,24.31-31.91,35.45-5.68,5.7-12.45,10.28-19.22,14.78-3.3,2.35-6.78,4.46-10,6.95a94.42,94.42,0,0,0-9.33,8.13c-13.67,9.25-29,15.9-44.29,22.77-15.79,5.79-32.12,10-48.67,14.36-17.38-.57-33.85,3.41-51.29,5-17.34,1.08-34.65-1.15-51.3-5a224,224,0,0,1-48.65-14.34c-16.14-5.22-29.67-15.33-44.29-22.78a67.92,67.92,0,0,1-10.52-6.47c-3.27-2.45-6.55-4.9-9.57-7.67-6.21-5.28-12-10.88-18.51-15.71-12.59-10.08-24-21.68-31.89-35.44a162.52,162.52,0,0,1-12.15-20c-2-3.32-3.69-6.75-5.73-10-1-1.62-2.08-3.21-3.21-4.78a56.57,56.57,0,0,0-3.45-4.66c-1.92-3.32-4.07-6.53-5.94-9.85s-4.08-6.55-5.65-10a65.12,65.12,0,0,1-4.12-10.6,43.43,43.43,0,0,1-1.31-11.42,91,91,0,0,1-5.25-21.46q-.44-2.72-.88-5.4c-.26-1.81-.48-3.6-.81-5.38a93.7,93.7,0,0,0-2.48-10.54,52.73,52.73,0,0,0,.35-10.83,95.06,95.06,0,0,0-.93-10.54c-.57-3.48-.86-7-1.24-10.45a65.21,65.21,0,0,1-.52-10.43c.82-13.89,3.62-27.15,4-40.53a67.67,67.67,0,0,1,1.12-9.92c.74-3.23,1.66-6.4,2.6-9.54s2.07-6.18,3.09-9.26,1.89-6.15,2.83-9.19a43.36,43.36,0,0,1,2.55-9.2c1.23-2.91,2.77-5.7,4.22-8.46.73-1.38,1.47-2.77,2.18-4.13s1.51-2.72,2.19-4.09a46.93,46.93,0,0,0,3.22-8.61c5.83-10.67,11-21.39,18.08-30.6a22.78,22.78,0,0,1,3.08-8.33,32,32,0,0,1,5.31-6.71c4.06-4,8.56-7.49,12.38-11.37,7.51-7.74,12.14-18.23,22.36-22.33a29.54,29.54,0,0,1,10.37-11.07c2.12-1.34,4.3-2.53,6.45-3.7,1.08-.59,2.15-1.18,3.22-1.75s2.16-1.1,3.22-1.69c4.2-2.25,7.7-5.36,11.44-8,1.85-1.35,3.69-2.66,5.61-3.82a26.74,26.74,0,0,1,6.18-2.61,21.62,21.62,0,0,1,5.17-4.08,38.54,38.54,0,0,1,5.93-2.44c2-.68,4-1.3,5.94-2a29.21,29.21,0,0,0,5.52-2.47c8-1.68,14.39-6,21.33-8.05a88.77,88.77,0,0,1,9.87-3.66,72.3,72.3,0,0,1,9.79-1.81c3.1-.84,6.14-1.36,9.06-1.93s5.75-1.19,8.52-1.55C602.37,1090,620.54,1093,620.47,1094.11Z"/><path class="cls-2" d="M645.13,1445.46a43.31,43.31,0,0,0,28.3-14.85c7.38-8.48,11.11-19,11.11-31.46,0-10.65-2.59-19.19-7.86-25.71s-15.87-11.68-31.55-15.71Zm-17.32-203c-11.38,1.74-20.42,6.29-26.9,13.72a38.46,38.46,0,0,0-9.85,26.3c0,10,2.81,18.41,8.37,25.13s15,11.87,28.38,15.32Zm0,257.13v-29.41c-14.68-1.82-26.56-5.1-35.77-9.84s-17.09-12.4-23.74-22.94-10.53-23.44-11.71-38.69l29.48-5.66q3.34,23.79,12,34.9c8.31,10.45,18.17,16.3,29.73,17.51v-92.22a151.73,151.73,0,0,1-37-15.31,54.07,54.07,0,0,1-21.59-21.65c-5.05-9.29-7.55-19.74-7.55-31.48q0-31.29,22.17-50.77c9.85-8.68,24.55-14,44-16v-14h17.32v14q25.51,2.45,40.41,15.11c12.78,10.7,20.4,25.37,23.06,44l-30.05,4.69c-1.72-11.61-5.37-20.58-10.86-26.76s-13-10.33-22.56-12.32v84.56c14.78,3.82,24.49,6.79,29.28,8.81,9.13,4,16.51,8.94,22.22,14.73A58.7,58.7,0,0,1,710,1371.4a72.34,72.34,0,0,1,4.55,25.76c0,20.3-6.39,37.26-19.33,50.88s-29.62,20.79-50.11,21.8v29.75Z"/></svg>