<svg id="Layer_1" data-name="Layer 1" xmlns="http://www.w3.org/2000/svg" xmlns:xlink="http://www.w3.org/1999/xlink" viewBox="0 0 2097.64 2097.64"><defs><style>.cls-1,.cls-2{fill:#fff;}.cls-1,.cls-3{stroke:#fff;stroke-miterlimit:10;}.cls-1{stroke-width:18px;}.cls-3{fill:none;stroke-width:60px;}.cls-4{fill:url(#linear-gradient);}</style><linearGradient id="linear-gradient" x1="107.93" y1="1007.19" x2="1848.41" y2="1007.19" gradientTransform="translate(998.69 -396.67) rotate(45)" gradientUnits="userSpaceOnUse"><stop offset="0" stop-color="#1b4071"/><stop offset="0.26" stop-color="#1d4374"/><stop offset="0.44" stop-color="#254b7d"/><stop offset="0.6" stop-color="#32598d"/><stop offset="0.74" stop-color="#456ea3"/><stop offset="0.88" stop-color="#5d88bf"/><stop offset="1" stop-color="#78a5df"/></linearGradient></defs><path class="cls-1" d="M1262.79,1534.07h-760V528.24h535.65l1.27,1.27,223,223Zm-751.31-8.67h742.65V756.15L1034.88,536.91H511.48Z"/><path class="cls-2" d="M808.3,812.32V741.53H591.38v381.4h583.33V812.32ZM618.85,769h162v43.32h-162Zm0,212.36h162v43.31h-162Zm0-27.47V910.57h162v43.32Zm0-70.79V839.79h162V883.1Zm0,212.36v-43.32h162v43.32Zm528.39,0H808.3v-43.32h338.94Zm0-70.79H808.3V981.36h338.94Zm0-70.78H808.3V910.57h338.94ZM808.3,883.1V839.79h338.94V883.1Z"/><line class="cls-3" x1="1711.82" y1="1301.06" x2="1337.82" y2="1301.06"/><line class="cls-3" x1="1524.82" y1="1484.82" x2="1524.82" y2="1112.82"/><circle class="cls-4" cx="978.17" cy="1007.19" r="870.24" transform="translate(-425.69 986.67) rotate(-45)"/><path class="cls-2" d="M406.72,1254.38c0,22.15-12,41-28.79,47.88l.54,2.7H514c2.08.12,4.16.18,6.27.18A113.61,113.61,0,0,0,633.64,1184.3c-3.54-56.54-49.55-102.58-106.09-106.08a113.56,113.56,0,0,0-120.83,113.34l0,2.15h0Z"/><path class="cls-2" d="M454.51,1315.87a106.75,106.75,0,0,0-106.75,106.75v51.81h345v-51.81A106.75,106.75,0,0,0,586,1315.87Z"/><path class="cls-2" d="M1477.35,1046.46V579.62c0-33.51-26.15-60.79-58.3-60.79H587.47c-32.13,0-58.3,27.28-58.3,60.79V1053a159.69,159.69,0,0,1,37.26,7.12V579.62c0-13,9.42-23.57,21-23.57h831.58c11.64,0,21.07,10.57,21.07,23.57V1058A147.44,147.44,0,0,1,1477.35,1046.46Z"/><path class="cls-2" d="M694.42,1209.44a84.49,84.49,0,1,0,84.44-84.52A84.47,84.47,0,0,0,694.42,1209.44Z"/><path class="cls-2" d="M892.44,1189.52a114.42,114.42,0,1,0,114.4-114.41A114.42,114.42,0,0,0,892.44,1189.52Z"/><path class="cls-2" d="M940.63,1314.71a107.53,107.53,0,0,0-107.54,107.54v52.18h347.53v-52.18a107.52,107.52,0,0,0-107.56-107.54Z"/><path class="cls-2" d="M1493.06,1075.11a114.4,114.4,0,1,0,114.42,114.41A114.4,114.4,0,0,0,1493.06,1075.11Z"/><path class="cls-2" d="M1426.87,1314.71a107.55,107.55,0,0,0-107.56,107.54v52.18h347.51v-52.18a107.52,107.52,0,0,0-107.55-107.54Z"/><path class="cls-2" d="M1185.9,1301.9a79,79,0,0,0-48.85,16.87,121.6,121.6,0,0,1,57.81,101.11h111.76a120,120,0,0,1,39.93-87,79.24,79.24,0,0,0-62.84-31Z"/><path class="cls-2" d="M667.17,1332.87a120,120,0,0,1,39.91,87H819.15a121.63,121.63,0,0,1,57.62-101,79,79,0,0,0-49-17H730A79.15,79.15,0,0,0,667.17,1332.87Z"/><path class="cls-2" d="M1228.58,1125.25c-42.16,2.62-76.49,36.92-79.11,79.11a84.67,84.67,0,0,0,84.49,90.09l4.67-.13h101.08l.39-2c-12.5-5.16-21.45-19.18-21.45-35.68v-45.26h-.05l.05-1.59A84.67,84.67,0,0,0,1228.58,1125.25Z"/><path class="cls-2" d="M1142.87,642.49c-28.9-26.77-72-44.81-117.54-45.71l-1.08,168Z"/><path class="cls-2" d="M993.73,595.64C874.81,595.64,787,692.05,787,811s96.37,215.31,215.31,215.31c83.35,0,160.9-49.24,189.47-112.77L998.05,811V595.75Z"/><polygon class="cls-2" points="1091.54 828.63 1135.74 687.79 1104.73 719.66 1073.57 819 1091.54 828.63"/><polygon class="cls-2" points="1068.21 816.13 1095.55 729.1 1064.53 760.95 1050.21 806.5 1068.21 816.13"/><path class="cls-2" d="M1161.5,866.09l43.6-138.94a198.74,198.74,0,0,0-12.85-26l-48.76,155.32Z"/><path class="cls-2" d="M1184.82,878.59l33-104.93a196.6,196.6,0,0,0-9.23-37.55L1166.81,869Z"/><path class="cls-2" d="M1200.69,887.1c13.53-26.17,18.89-56.9,18.89-88.36,0-3.39-.1-6.75-.33-10.1l-29.13,92.8Z"/><path class="cls-2" d="M1096.85,831.48l18,9.62,54-172.13c-2.36-2.67-4.78-5.26-7.29-7.76l-16.69,17.15Z"/><polygon class="cls-2" points="1055.35 770.4 1030.5 795.93 1044.9 803.65 1055.35 770.4"/><path class="cls-2" d="M1138.17,853.61l50-159.19a196,196,0,0,0-14.67-20.17L1120.16,844Z"/></svg>