<svg id="Layer_1" data-name="Layer 1" xmlns="http://www.w3.org/2000/svg" viewBox="0 0 50 50"><defs><style>.cls-1{fill:#fff;}</style></defs><path class="cls-1" d="M39.66,17.55A17,17,0,0,0,17.35,8.49a17.05,17.05,0,0,0-5.41,3.65A17,17,0,0,0,8.3,30.8a17,17,0,0,0,3.64,5.41l.71.7,3-3-1.41-1.41-1.6,1.6A15.06,15.06,0,0,1,9,25.17h2.25v-2H9a14.82,14.82,0,0,1,1.15-4.85,14.62,14.62,0,0,1,2.53-4l1.6,1.59,1.41-1.41-1.6-1.6a15.07,15.07,0,0,1,4-2.53A14.76,14.76,0,0,1,23,9.18v2.25h2V9.18a15,15,0,0,1,8.89,3.68l-1.59,1.6,1.41,1.41,1.59-1.59A14.92,14.92,0,0,1,39,23.17H36.72v2H39a15,15,0,0,1-3.69,8.9l-1.59-1.6-1.41,1.41,3,3,.7-.7a17,17,0,0,0,5-12A16.81,16.81,0,0,0,39.66,17.55Z"/><path class="cls-1" d="M25.83,24.17a1.85,1.85,0,0,0-1.29-1.76l-.43-8.15a.13.13,0,0,0-.26,0l-.44,8.15A1.85,1.85,0,0,0,23,25.73l-.16,3.13a.52.52,0,0,0,.52.55h1.28a.52.52,0,0,0,.52-.55L25,25.73A1.84,1.84,0,0,0,25.83,24.17Z"/><rect class="cls-1" x="18.96" y="35.24" width="10.03" height="4.1"/></svg>