<svg id="Layer_1" data-name="Layer 1" xmlns="http://www.w3.org/2000/svg" xmlns:xlink="http://www.w3.org/1999/xlink" viewBox="0 0 2097.64 2097.64"><defs><style>.cls-1,.cls-2{fill:#fff;}.cls-1,.cls-3{stroke:#fff;stroke-miterlimit:10;}.cls-1{stroke-width:18px;}.cls-3{fill:none;stroke-width:60px;}.cls-4{fill:url(#linear-gradient);}</style><linearGradient id="linear-gradient" x1="107.93" y1="1007.19" x2="1848.41" y2="1007.19" gradientTransform="translate(998.69 -396.67) rotate(45)" gradientUnits="userSpaceOnUse"><stop offset="0" stop-color="#1b4071"/><stop offset="0.26" stop-color="#1d4374"/><stop offset="0.44" stop-color="#254b7d"/><stop offset="0.6" stop-color="#32598d"/><stop offset="0.74" stop-color="#456ea3"/><stop offset="0.88" stop-color="#5d88bf"/><stop offset="1" stop-color="#78a5df"/></linearGradient></defs><path class="cls-1" d="M1262.79,1534.07h-760V528.24h535.65l1.27,1.27,223,223Zm-751.31-8.67h742.65V756.15L1034.88,536.91H511.48Z"/><path class="cls-2" d="M808.3,812.32V741.53H591.38v381.4h583.33V812.32ZM618.85,769h162v43.32h-162Zm0,212.36h162v43.31h-162Zm0-27.47V910.57h162v43.32Zm0-70.79V839.79h162V883.1Zm0,212.36v-43.32h162v43.32Zm528.39,0H808.3v-43.32h338.94Zm0-70.79H808.3V981.36h338.94Zm0-70.78H808.3V910.57h338.94ZM808.3,883.1V839.79h338.94V883.1Z"/><line class="cls-3" x1="1711.82" y1="1301.06" x2="1337.82" y2="1301.06"/><line class="cls-3" x1="1524.82" y1="1484.82" x2="1524.82" y2="1112.82"/><circle class="cls-4" cx="978.17" cy="1007.19" r="870.24" transform="translate(-425.69 986.67) rotate(-45)"/><path class="cls-2" d="M818.8,1367a95.67,95.67,0,0,1-95.65-95.24l-3.46-763.95a95.78,95.78,0,0,1,95.24-96.09l363.63-1.59a95.7,95.7,0,0,1,96.08,95.25l3.46,764a95.77,95.77,0,0,1-95.24,96.08l-158.54.7h-.09a21.9,21.9,0,0,1-.1-43.79l158.54-.69a52,52,0,0,0,51.65-52.11l-3.47-763.95A51.93,51.93,0,0,0,1179,453.87h-.23l-363.62,1.59a51.93,51.93,0,0,0-51.65,52.1l3.46,764a51.93,51.93,0,0,0,51.87,51.66h.33a21.89,21.89,0,0,1,.09,43.78Z"/><path class="cls-2" d="M1023.56,1213.47a21.89,21.89,0,0,1-.09-43.78l229.52-1h.09a21.9,21.9,0,0,1,.1,43.79l-229.52,1Z"/><path class="cls-2" d="M745.21,1214.69a21.9,21.9,0,0,1-.09-43.79l76.43-.33h.1a21.89,21.89,0,0,1,.1,43.78l-76.44.34Z"/><path class="cls-2" d="M1023.86,1282.82a21.89,21.89,0,0,1-.09-43.78l33.15-.15h.1a21.9,21.9,0,0,1,.09,43.79l-33.15.14Z"/><path class="cls-2" d="M921.23,1045.56a21.9,21.9,0,0,1-21.59-25.5l12.63-75.65-55.15-53.3a21.89,21.89,0,0,1,12-37.39l75.86-11.36,33.64-68.93a21.89,21.89,0,0,1,19.58-12.29h.1a21.91,21.91,0,0,1,19.59,12.11l34.24,68.64,76,10.69a21.9,21.9,0,0,1,12.3,37.29l-54.69,53.78,13.29,75.54a21.89,21.89,0,0,1-31.66,23.22l-68-35.4-67.73,36A21.89,21.89,0,0,1,921.23,1045.56Zm-1.79-155.11L951,920.92a21.86,21.86,0,0,1,6.38,19.35l-7.22,43.25L988.85,963a21.86,21.86,0,0,1,20.38-.09l38.9,20.23-7.6-43.18a21.89,21.89,0,0,1,6.21-19.41L1078,889.75l-43.42-6.11a21.92,21.92,0,0,1-16.54-11.9L998.47,832.5l-19.23,39.41a21.89,21.89,0,0,1-16.43,12Zm40.12-28.15h0Z"/><path class="cls-2" d="M1085.43,1595.41a21.91,21.91,0,0,1-21.2-16.49l-11.06-43.44a111.8,111.8,0,0,0-78.87-80.16l-24.88-6.76a21.91,21.91,0,0,1-16.15-21l-1.15-242a40.85,40.85,0,0,0-40.8-40.63h-.18a40.82,40.82,0,0,0-40.63,41l1.15,242.05a21.9,21.9,0,0,1-21.79,22h-.11a21.89,21.89,0,0,1-21.89-21.79l-1.14-242a84.59,84.59,0,0,1,84.22-85h.38a84.6,84.6,0,0,1,84.58,84.22L977,1410.67l8.81,2.4a155.63,155.63,0,0,1,109.81,111.6l11.06,43.44a21.9,21.9,0,0,1-21.23,27.3Z"/><path class="cls-2" d="M782.4,1702.82a21.9,21.9,0,0,1-21.81-20.24l-2.72-36c0-.52-.06-1-.06-1.55a93.71,93.71,0,0,0-22.55-60.52l-83-96.79A166.85,166.85,0,0,1,612.12,1380l-1.61-370.55A158.65,158.65,0,0,1,645.09,910l.33-.4L724.7,815a21.89,21.89,0,1,1,33.56,28.12l-79.11,94.43a114.85,114.85,0,0,0-24.86,71.71l1.62,370.55a123,123,0,0,0,29.59,79.43l83,96.79a137.5,137.5,0,0,1,33.09,88l2.66,35.26a21.89,21.89,0,0,1-20.18,23.48C783.51,1702.8,783,1702.82,782.4,1702.82Z"/><path class="cls-2" d="M1194.12,1702.82l-.84,0a21.89,21.89,0,0,1-21.06-22.7l2.51-66.59a166.21,166.21,0,0,1,9.7-56.22l21.5-60.22a122.39,122.39,0,0,0,4.59-66.16l-33.31-78.62a21.89,21.89,0,1,1,40.31-17.08l34.12,80.51a22,22,0,0,1,1.21,3.76,166.21,166.21,0,0,1-5.68,92.32l-21.5,60.21a122.21,122.21,0,0,0-7.15,41.79c0,.3,0,.61,0,.91l-2.53,67A21.9,21.9,0,0,1,1194.12,1702.82Z"/><path class="cls-2" d="M998.12,725.81a21.81,21.81,0,0,1-15.48-6.41L872.78,609.54a21.9,21.9,0,0,1,15.48-37.38h47.1V503.71a21.9,21.9,0,0,1,43.79,0v90.35A21.89,21.89,0,0,1,957.26,616H941.11l57,57,57-57h-18a21.9,21.9,0,0,1-21.9-21.89V503.71a21.9,21.9,0,0,1,43.79,0v68.45H1108a21.9,21.9,0,0,1,15.48,37.38L1013.6,719.4A21.8,21.8,0,0,1,998.12,725.81Z"/><path class="cls-2" d="M957.66,449.71a21.9,21.9,0,0,1-21.89-21.9V340.24a21.89,21.89,0,0,1,43.78,0v87.57A21.9,21.9,0,0,1,957.66,449.71Z"/><path class="cls-2" d="M1037.16,449.71a21.91,21.91,0,0,1-21.9-21.9V281.86a21.9,21.9,0,0,1,43.79,0v146A21.9,21.9,0,0,1,1037.16,449.71Z"/><path class="cls-2" d="M1476.29,866.82a20.43,20.43,0,0,1-20.44-20.43v-19.1a20.44,20.44,0,0,1,40.87,0v19.1A20.43,20.43,0,0,1,1476.29,866.82Z"/><path class="cls-2" d="M1476.29,997.77a20.44,20.44,0,0,1-20.44-20.44V958.24a20.44,20.44,0,1,1,40.87,0v19.09A20.44,20.44,0,0,1,1476.29,997.77Z"/><path class="cls-2" d="M1420.36,922.75h-19.1a20.44,20.44,0,0,1,0-40.87h19.1a20.44,20.44,0,0,1,0,40.87Z"/><path class="cls-2" d="M1551.31,922.75h-19.1a20.44,20.44,0,0,1,0-40.87h19.1a20.44,20.44,0,0,1,0,40.87Z"/><path class="cls-2" d="M533.44,604.11A20.44,20.44,0,0,1,513,583.68v-19.1a20.44,20.44,0,0,1,40.87,0v19.1A20.43,20.43,0,0,1,533.44,604.11Z"/><path class="cls-2" d="M533.44,735.05A20.43,20.43,0,0,1,513,714.62v-19.1a20.44,20.44,0,0,1,40.87,0v19.1A20.43,20.43,0,0,1,533.44,735.05Z"/><path class="cls-2" d="M477.51,660h-19.1a20.43,20.43,0,0,1,0-40.86h19.1a20.43,20.43,0,1,1,0,40.86Z"/><path class="cls-2" d="M608.46,660h-19.1a20.43,20.43,0,0,1,0-40.86h19.1a20.43,20.43,0,0,1,0,40.86Z"/><circle class="cls-2" cx="1383.35" cy="652.96" r="27.35"/><circle class="cls-2" cx="458.01" cy="930.27" r="27.35"/></svg>