<svg id="Layer_1" data-name="Layer 1" xmlns="http://www.w3.org/2000/svg" viewBox="0 0 50 50"><defs><style>.cls-1{fill:#fff;}</style></defs><path class="cls-1" d="M20.34,33.82a2.63,2.63,0,0,1-2.62-2.62l-.1-21a2.63,2.63,0,0,1,2.62-2.63l10-.05a2.64,2.64,0,0,1,2.64,2.62l.09,21a2.62,2.62,0,0,1-2.61,2.63l-4.35,0h0a.6.6,0,0,1-.6-.6.6.6,0,0,1,.6-.6l4.35,0a1.41,1.41,0,0,0,1.41-1.43l-.09-21a1.43,1.43,0,0,0-1.43-1.41h0l-10,0a1.43,1.43,0,0,0-1.42,1.43l.1,21a1.42,1.42,0,0,0,1.42,1.41h0a.6.6,0,0,1,.6.6.61.61,0,0,1-.6.61Z"/><path class="cls-1" d="M26,29.61a.6.6,0,0,1-.6-.6.62.62,0,0,1,.6-.61l6.29,0h0a.59.59,0,0,1,.6.59.6.6,0,0,1-.6.61l-6.3,0Z"/><path class="cls-1" d="M18.32,29.64a.6.6,0,0,1,0-1.2h2.1a.6.6,0,0,1,.6.6.6.6,0,0,1-.6.6h-2.1Z"/><path class="cls-1" d="M26,31.51a.6.6,0,0,1-.6-.6.6.6,0,0,1,.6-.6h.91a.6.6,0,0,1,0,1.2Z"/><path class="cls-1" d="M23.15,25a.66.66,0,0,1-.35-.11.62.62,0,0,1-.24-.59l.35-2.08-1.52-1.46a.6.6,0,0,1-.15-.61.59.59,0,0,1,.48-.41l2.08-.32.93-1.89a.59.59,0,0,1,.53-.33h0a.58.58,0,0,1,.53.33l.94,1.88,2.09.29a.61.61,0,0,1,.48.41.58.58,0,0,1-.15.62l-1.5,1.47L28,24.28a.6.6,0,0,1-.87.63l-1.87-1-1.86,1A.53.53,0,0,1,23.15,25Zm0-4.26.87.84a.58.58,0,0,1,.17.53L24,23.3,25,22.73a.61.61,0,0,1,.56,0l1.06.55-.2-1.18a.59.59,0,0,1,.17-.53l.85-.85-1.19-.16a.61.61,0,0,1-.45-.33l-.54-1.08-.53,1.08a.56.56,0,0,1-.45.33ZM24.2,20h0Z"/><path class="cls-1" d="M27.66,40.08a.6.6,0,0,1-.58-.45l-.31-1.19a3.06,3.06,0,0,0-2.16-2.2l-.68-.18a.62.62,0,0,1-.45-.58l0-6.64a1.12,1.12,0,0,0-1.12-1.12h0a1.11,1.11,0,0,0-.79.33,1.15,1.15,0,0,0-.33.8l0,6.64a.59.59,0,0,1-.59.6h0a.6.6,0,0,1-.6-.6l0-6.64a2.32,2.32,0,0,1,2.31-2.33h0a2.33,2.33,0,0,1,1.64.67,2.3,2.3,0,0,1,.68,1.64l0,6.19.24.06a4.29,4.29,0,0,1,3,3.06l.3,1.2a.61.61,0,0,1-.43.73Z"/><path class="cls-1" d="M19.34,43a.59.59,0,0,1-.59-.55l-.08-1v0a2.58,2.58,0,0,0-.62-1.67l-2.28-2.65a4.63,4.63,0,0,1-1.1-3l0-10.16a4.3,4.3,0,0,1,.95-2.73h0l2.17-2.6a.6.6,0,0,1,.92.77L16.51,22a3.2,3.2,0,0,0-.68,2l0,10.17a3.42,3.42,0,0,0,.82,2.18L19,39a3.78,3.78,0,0,1,.91,2.42l.07,1a.59.59,0,0,1-.55.64Z"/><path class="cls-1" d="M30.64,43h0a.6.6,0,0,1-.58-.62l.07-1.83A4.7,4.7,0,0,1,30.37,39L31,37.39a3.32,3.32,0,0,0,.13-1.82l-.91-2.16a.6.6,0,1,1,1.1-.46l.94,2.2,0,.11a4.54,4.54,0,0,1-.15,2.53l-.59,1.65a3.24,3.24,0,0,0-.2,1.15v0l-.07,1.84A.6.6,0,0,1,30.64,43Z"/><path class="cls-1" d="M25.26,16.23a.58.58,0,0,1-.42-.18l-3-3a.6.6,0,0,1,.43-1h1.29V10.13a.6.6,0,0,1,1.2,0v2.48a.6.6,0,0,1-.6.6H23.7l1.56,1.57,1.57-1.57h-.5a.6.6,0,0,1-.6-.6V10.13a.6.6,0,0,1,1.2,0V12h1.35a.6.6,0,0,1,.55.37.62.62,0,0,1-.13.66l-3,3A.6.6,0,0,1,25.26,16.23Z"/><path class="cls-1" d="M24.15,8.65a.6.6,0,0,1-.6-.6V5.65a.6.6,0,0,1,1.2,0v2.4A.6.6,0,0,1,24.15,8.65Z"/><path class="cls-1" d="M26.33,8.65a.6.6,0,0,1-.6-.6v-4a.6.6,0,1,1,1.2,0v4A.6.6,0,0,1,26.33,8.65Z"/><path class="cls-1" d="M38.38,20.09a.56.56,0,0,1-.56-.56V19a.56.56,0,0,1,1.12,0v.52A.56.56,0,0,1,38.38,20.09Z"/><path class="cls-1" d="M38.38,23.69a.56.56,0,0,1-.56-.56V22.6a.56.56,0,0,1,1.12,0v.53A.56.56,0,0,1,38.38,23.69Z"/><path class="cls-1" d="M36.85,21.63h-.53a.56.56,0,1,1,0-1.12h.53a.56.56,0,1,1,0,1.12Z"/><path class="cls-1" d="M40.44,21.63h-.52a.56.56,0,1,1,0-1.12h.52a.56.56,0,0,1,0,1.12Z"/><path class="cls-1" d="M12.51,12.89a.56.56,0,0,1-.56-.56V11.8a.56.56,0,1,1,1.12,0v.53A.56.56,0,0,1,12.51,12.89Z"/><path class="cls-1" d="M12.51,16.48a.56.56,0,0,1-.56-.56V15.4a.56.56,0,1,1,1.12,0v.52A.56.56,0,0,1,12.51,16.48Z"/><path class="cls-1" d="M11,14.42h-.53a.56.56,0,0,1,0-1.12H11a.56.56,0,0,1,0,1.12Z"/><path class="cls-1" d="M14.57,14.42h-.52a.56.56,0,0,1,0-1.12h.52a.56.56,0,0,1,0,1.12Z"/><circle class="cls-1" cx="35.83" cy="14.23" r="0.75"/><circle class="cls-1" cx="10.44" cy="21.84" r="0.75"/></svg>