<svg id="Layer_1" data-name="Layer 1" xmlns="http://www.w3.org/2000/svg" xmlns:xlink="http://www.w3.org/1999/xlink" viewBox="0 0 2097.64 2097.64"><defs><style>.cls-1,.cls-2{fill:#fff;}.cls-1,.cls-3{stroke:#fff;stroke-miterlimit:10;}.cls-1{stroke-width:18px;}.cls-3{fill:none;stroke-width:60px;}.cls-4{fill:url(#linear-gradient);}</style><linearGradient id="linear-gradient" x1="107.93" y1="1007.19" x2="1848.41" y2="1007.19" gradientTransform="translate(998.69 -396.67) rotate(45)" gradientUnits="userSpaceOnUse"><stop offset="0" stop-color="#1b4071"/><stop offset="0.26" stop-color="#1d4374"/><stop offset="0.44" stop-color="#254b7d"/><stop offset="0.6" stop-color="#32598d"/><stop offset="0.74" stop-color="#456ea3"/><stop offset="0.88" stop-color="#5d88bf"/><stop offset="1" stop-color="#78a5df"/></linearGradient></defs><path class="cls-1" d="M1262.79,1534.07h-760V528.24h535.65l1.27,1.27,223,223Zm-751.31-8.67h742.65V756.15L1034.88,536.91H511.48Z"/><path class="cls-2" d="M808.3,812.32V741.53H591.38v381.4h583.33V812.32ZM618.85,769h162v43.32h-162Zm0,212.36h162v43.31h-162Zm0-27.47V910.57h162v43.32Zm0-70.79V839.79h162V883.1Zm0,212.36v-43.32h162v43.32Zm528.39,0H808.3v-43.32h338.94Zm0-70.79H808.3V981.36h338.94Zm0-70.78H808.3V910.57h338.94ZM808.3,883.1V839.79h338.94V883.1Z"/><line class="cls-3" x1="1711.82" y1="1301.06" x2="1337.82" y2="1301.06"/><line class="cls-3" x1="1524.82" y1="1484.82" x2="1524.82" y2="1112.82"/><circle class="cls-4" cx="978.17" cy="1007.19" r="870.24" transform="translate(-425.69 986.67) rotate(-45)"/><path class="cls-2" d="M1547.05,773.9A620.49,620.49,0,1,0,536.83,1454l25.72,25.72,110.36-110.37-51.44-51.44L563.39,1376a545.28,545.28,0,0,1-134.32-324.28h82.15V979H429.07A545.22,545.22,0,0,1,563.4,654.73l58.07,58.08,51.45-51.44-58.08-58.08A545.23,545.23,0,0,1,939.1,469v82.14h72.75V469a545.22,545.22,0,0,1,324.27,134.32L1278,661.37l51.44,51.44,58.08-58.08A545.29,545.29,0,0,1,1521.88,979h-82.14v72.75h82.14A545.36,545.36,0,0,1,1387.57,1376l-58.09-58.09L1278,1369.38l110.37,110.37,25.72-25.72A621,621,0,0,0,1547.05,773.9Z"/><path class="cls-2" d="M1042.94,1015.38a67.49,67.49,0,0,0-46.87-64.25L980.21,654.07c-.32-6-9.14-6-9.46,0L954.88,951.13a67.48,67.48,0,0,0-15.7,121.12l-6.09,114.2a19,19,0,0,0,19,20.06h46.76a19,19,0,0,0,19-20.06l-6.1-114.2A67.41,67.41,0,0,0,1042.94,1015.38Z"/><rect class="cls-2" x="792.62" y="1418.8" width="365.72" height="149.46"/></svg>