<svg id="Layer_1" data-name="Layer 1" xmlns="http://www.w3.org/2000/svg" viewBox="0 0 50 50"><defs><style>.cls-1{fill:#fff;}</style></defs><path class="cls-1" d="M12,30.73A1.39,1.39,0,0,1,11.19,32l0,.08H15.1A3.12,3.12,0,1,0,12,29v.06h0Z"/><path class="cls-1" d="M13.29,32.41a2.94,2.94,0,0,0-2.93,2.93v1.42h9.47V35.34a2.93,2.93,0,0,0-2.93-2.93Z"/><path class="cls-1" d="M41.36,25V12.22a1.64,1.64,0,0,0-1.6-1.67H16.94a1.64,1.64,0,0,0-1.6,1.67v13a4,4,0,0,1,1,.2V12.22a.62.62,0,0,1,.58-.65H39.76a.61.61,0,0,1,.57.65V25.34A4.59,4.59,0,0,1,41.36,25Z"/><path class="cls-1" d="M19.88,29.49a2.32,2.32,0,1,0,2.31-2.31A2.31,2.31,0,0,0,19.88,29.49Z"/><path class="cls-1" d="M25.31,29a3.14,3.14,0,1,0,3.14-3.14A3.14,3.14,0,0,0,25.31,29Z"/><path class="cls-1" d="M26.63,32.38a3,3,0,0,0-2.95,2.95v1.43h9.54V35.33a3,3,0,0,0-3-2.95Z"/><path class="cls-1" d="M41.79,25.81A3.14,3.14,0,1,0,44.93,29,3.13,3.13,0,0,0,41.79,25.81Z"/><path class="cls-1" d="M40,32.38A3,3,0,0,0,37,35.33v1.43h9.53V35.33a3,3,0,0,0-2.95-2.95Z"/><path class="cls-1" d="M33.36,32a2.15,2.15,0,0,0-1.34.46,3.38,3.38,0,0,1,1.59,2.78h3.06a3.29,3.29,0,0,1,1.1-2.39A2.19,2.19,0,0,0,36,32Z"/><path class="cls-1" d="M19.13,32.88a3.28,3.28,0,0,1,1.09,2.39H23.3a3.33,3.33,0,0,1,1.58-2.77A2.18,2.18,0,0,0,23.54,32H20.85A2.19,2.19,0,0,0,19.13,32.88Z"/><path class="cls-1" d="M34.53,27.18a2.33,2.33,0,0,0,.15,4.65h2.9v-.05a1,1,0,0,1-.59-1V29.55h0V29.5A2.33,2.33,0,0,0,34.53,27.18Z"/><path class="cls-1" d="M32.18,13.94A5,5,0,0,0,29,12.69l0,4.6Z"/><path class="cls-1" d="M28.09,12.65a5.71,5.71,0,0,0-5.67,5.91,5.91,5.91,0,0,0,5.9,5.91,5.79,5.79,0,0,0,5.2-3.09l-5.31-2.82v-5.9Z"/><polygon class="cls-1" points="30.77 19.05 31.98 15.18 31.13 16.06 30.28 18.78 30.77 19.05"/><polygon class="cls-1" points="30.13 18.7 30.88 16.32 30.03 17.19 29.64 18.44 30.13 18.7"/><path class="cls-1" d="M32.69,20.07l1.2-3.81a4.73,4.73,0,0,0-.36-.71L32.2,19.81Z"/><path class="cls-1" d="M33.33,20.42l.9-2.88a5.16,5.16,0,0,0-.25-1l-1.14,3.64Z"/><path class="cls-1" d="M33.77,20.65a5.29,5.29,0,0,0,.51-2.42V18l-.8,2.55Z"/><path class="cls-1" d="M30.92,19.13l.49.26,1.48-4.72a2.09,2.09,0,0,0-.2-.22l-.45.47Z"/><polygon class="cls-1" points="29.78 17.45 29.1 18.15 29.49 18.36 29.78 17.45"/><path class="cls-1" d="M32.05,19.73l1.37-4.37c-.12-.19-.26-.37-.4-.55l-1.46,4.66Z"/></svg>