<svg id="Layer_1" data-name="Layer 1" xmlns="http://www.w3.org/2000/svg" viewBox="0 0 50 50"><defs><style>.cls-1{fill:#fff;}</style></defs><path class="cls-1" d="M17.93,8.3h0l-.14,0a1.32,1.32,0,0,0-.49.22,1.06,1.06,0,0,0-.28.28,1.17,1.17,0,0,0-.2.42l0,.13s0,.09,0,.13v.3c0,.21,0,.43,0,.67s0,.65,0,1,0,.75,0,1.16.1.83,0,1.28,0,.92,0,1.42,0,1,0,1.53-.12,1.09,0,1.66,0,1.16,0,1.77a13,13,0,0,0,0,1.87,8.3,8.3,0,0,0,0,2,5.39,5.39,0,0,0,0,2.08v.11l.07,0,.19.07.22.08.23.09c.3.12.59.26.89.4a6.37,6.37,0,0,1,1.82,1.47,4.59,4.59,0,0,1,1.31,2A5,5,0,0,1,22.22,33c0,.43,0,.86,0,1.29a4.08,4.08,0,0,1-.28,1.29l-.05.15-.05.15s0,0,0,.06,0,0,.07,0h1.19a17.77,17.77,0,0,0,2.63,0c.89,0,1.79-.05,2.7,0a15.78,15.78,0,0,1,2.75,0c.92,0,1.85,0,2.8,0,.47,0,.94,0,1.41,0H36a.28.28,0,0,0,.13,0h.13a1.75,1.75,0,0,0,.24-.11,1.18,1.18,0,0,0,.21-.18,1.28,1.28,0,0,0,.14-.23A.72.72,0,0,0,37,35.1.13.13,0,0,0,37,35v-.25c0-.48,0-.95,0-1.42-.06-.94,0-1.87,0-2.8s0-1.84,0-2.75,0-1.8,0-2.69,0-1.77,0-2.64a18.37,18.37,0,0,1,0-2.57c.06-.84,0-1.68,0-2.5S37,15.79,37,15s0-1.58,0-2.35.06-1.52,0-2.26V9.57a1.5,1.5,0,0,0,0-.22,1.07,1.07,0,0,0-.5-.66.72.72,0,0,0-.39-.17h-.51c-.35,0-.69,0-1,0-.67,0-1.33.06-2,0s-1.27-.06-1.88,0a8,8,0,0,0-1.76,0,11.53,11.53,0,0,0-1.66,0,8.76,8.76,0,0,1-1.54,0l-1.41,0c-2,0-3.62-.05-4.71-.08-.54,0-1,0-1.24,0a1.84,1.84,0,0,1-.43,0,1.69,1.69,0,0,1,.53-.05c.35,0,.86,0,1.52-.05l5.74-.09a11.27,11.27,0,0,1,1.54,0c.53,0,1.08-.06,1.66,0a9.39,9.39,0,0,1,1.76,0c.61,0,1.24,0,1.88,0s1.31,0,2,0a7,7,0,0,0,1,0h.55a1.71,1.71,0,0,1,.61.15,1.81,1.81,0,0,1,.75,1,1.77,1.77,0,0,1,.05.32v.28c0,.19,0,.37,0,.56a12.2,12.2,0,0,0,0,2.26c0,.77,0,1.55,0,2.35s0,1.6,0,2.42a20.85,20.85,0,0,1,0,2.5c0,.85,0,1.7,0,2.57s0,1.75,0,2.64a26.82,26.82,0,0,0,0,2.69c0,.91,0,1.83,0,2.75s0,1.86,0,2.8a11.17,11.17,0,0,0-.05,1.42v.28a.41.41,0,0,1,0,.11,1.51,1.51,0,0,1-.1.42,1.47,1.47,0,0,1-.21.39,1.39,1.39,0,0,1-.32.32,1.47,1.47,0,0,1-.39.21l-.05,0-.06,0-.11,0a1.6,1.6,0,0,1-.23,0H33.93c-1,0-1.88,0-2.8,0s-1.85,0-2.75,0-1.81-.05-2.7,0a25.61,25.61,0,0,1-2.63,0H20.92v0l0-.06.1-.26.1-.25.09-.27v-.08l0-.08s0-.1,0-.15a5.8,5.8,0,0,0,.18-1.18c0-.39.06-.78.11-1.18s-.08-.77-.15-1.15a3.84,3.84,0,0,0-.36-1.1,3.43,3.43,0,0,0-.49-1,8.59,8.59,0,0,0-.7-.87,5.37,5.37,0,0,0-1.68-1.37c-.27-.13-.54-.27-.82-.38a1.21,1.21,0,0,0-.2-.09L17,27l-.1,0h-.06l-.09,0-.37-.11v-.5c-.07-.71.08-1.41,0-2.08s0-1.34,0-2a7.79,7.79,0,0,1,0-1.87,13,13,0,0,1,0-1.77,6.58,6.58,0,0,1,0-1.66c0-.53,0-1,0-1.53a13.35,13.35,0,0,1,0-1.42,11.1,11.1,0,0,0,0-1.28,8.86,8.86,0,0,1,0-1.16c0-.36,0-.7,0-1s0-.46,0-.67V9.59a.22.22,0,0,0,0-.08.77.77,0,0,1,0-.15.83.83,0,0,1,0-.15,1.27,1.27,0,0,1,.25-.46,1.25,1.25,0,0,1,.33-.29,1.28,1.28,0,0,1,.55-.18h.15S17.93,8.29,17.93,8.3Z"/><path class="cls-1" d="M19,11a5.62,5.62,0,0,1,.11,1.32c0,.15,0,.3,0,.46s0,.34,0,.52.1.38,0,.59a3.5,3.5,0,0,0,0,.64,5.4,5.4,0,0,0,0,.69.59.59,0,0,1,0,.37,1.23,1.23,0,0,0,0,.19c0,.06,0,.14,0,.15a.69.69,0,0,1,0,.13h.26a2.7,2.7,0,0,0,.85,0,1.68,1.68,0,0,0,.89,0,1.25,1.25,0,0,0,.95,0,6.44,6.44,0,0,0,1,0c.34,0,.68,0,1,0a2.42,2.42,0,0,1,1.07,0,2.71,2.71,0,0,1,1.1,0c.37.05.74-.09,1.13,0s.77,0,1.16,0a3.66,3.66,0,0,0,1.19,0,7.09,7.09,0,0,1,1.22,0,3.5,3.5,0,0,1,1.25,0,10.59,10.59,0,0,0,1.26,0c.22,0,.43,0,.64,0h.28l0,0h0l0,0h0v-.26a4.58,4.58,0,0,0,0-.64c-.06-.43,0-.85,0-1.27a8.55,8.55,0,0,0,0-1.24c0-.21,0-.41,0-.62v-.49h0v-.05h-.13a3.71,3.71,0,0,1-.47,0c-.39.15-.78,0-1.16,0a10.67,10.67,0,0,0-1.13,0c-.37,0-.74-.07-1.1,0a7.49,7.49,0,0,1-1.06,0c-.35.08-.69-.06-1,0s-.66,0-1,0a2.48,2.48,0,0,0-.94,0,4.49,4.49,0,0,1-.9,0,4.85,4.85,0,0,0-.85,0c-.27,0-.54-.16-.8,0s-.51-.12-.75,0-.47,0-.69,0l-.64,0A17.79,17.79,0,0,1,19,11a3.06,3.06,0,0,1,.93-.1l2.6-.09a2.27,2.27,0,0,1,.69,0,4.64,4.64,0,0,1,.75,0,2,2,0,0,1,.8,0,8.07,8.07,0,0,0,.85,0c.29-.07.59,0,.9,0a2.29,2.29,0,0,0,.94,0,5.36,5.36,0,0,0,1,0,2.55,2.55,0,0,0,1,0c.35,0,.7,0,1.06,0s.73,0,1.1,0a4.27,4.27,0,0,1,1.13,0,11.2,11.2,0,0,1,1.16,0,3.7,3.7,0,0,1,.47,0h.79v.75a.76.76,0,0,1,0,.15c0,.1,0,.2,0,.3a1.85,1.85,0,0,0,0,.62c0,.41,0,.82,0,1.24s0,.84,0,1.27a2,2,0,0,0-.06.64c0,.05,0,.11,0,.16V16c0,.2,0,.41,0,.61h0l-.61,0h-.38l-.64,0c-.42,0-.85,0-1.26,0s-.84,0-1.25,0-.82,0-1.22,0a5.92,5.92,0,0,1-1.19,0,5,5,0,0,0-1.16,0,2.53,2.53,0,0,1-1.13,0c-.38,0-.74-.07-1.1,0a3.49,3.49,0,0,0-1.07,0,5,5,0,0,0-1,0c-.33,0-.66,0-1,0s-.64-.08-.95,0-.6,0-.89,0c-.29.15-.58,0-.85,0h-.34l-.41,0a2,2,0,0,1,0-.54.19.19,0,0,0,0-.07v-.06a.38.38,0,0,1,0-.1.61.61,0,0,1,0-.19c0-.12,0-.25.06-.37a5.24,5.24,0,0,1,0-.69c-.07-.23.05-.44,0-.64a4,4,0,0,0,0-.59,2.25,2.25,0,0,1,0-.52c0-.16,0-.31,0-.46A5.89,5.89,0,0,1,19,11Z"/><path class="cls-1" d="M21.44,30.83s.11.07.22.26l.05.1a.22.22,0,0,1,.05.12c0,.05.13.06.06.13s0,.1.06.15,0,.11.05.16-.08.14.06.18a.38.38,0,0,1,.05.19c-.07.08,0,.14.05.21s0,.15,0,.22c-.13.09-.09.16,0,.23s0,.16,0,.24a.74.74,0,0,1,0,.26.19.19,0,0,1,.07.13.19.19,0,0,1-.06.13c.09.09.05.19,0,.28s.06.19,0,.28a1.36,1.36,0,0,1,0,.29h0l0,0s0,0,.05,0,0,0,0,0,0,0,0,0,0-.07,0-.06a.08.08,0,0,0,0,.05h.09s0,0,0,0,0,0,0,0,0,0,0,0h0v0h0v0s0,0,0,0,0-.21,0-.31,0-.2,0-.3.06-.19,0-.29a.48.48,0,0,1,0-.29c-.14-.09,0-.18,0-.27s0-.19,0-.28.06-.17,0-.26,0-.17,0-.26.06-.16,0-.24a1.93,1.93,0,0,1,0-.24c.12-.08,0-.15,0-.23a.52.52,0,0,0,0-.11,0,0,0,0,1,0-.05s0,0,0,0,0,0,0-.05,0,0,0,0l0-.05,0-.08s0,0-.09.06,0,0,0,0,0,0-.06,0,0,0-.1,0h-.15c-.44,0-.69-.11-.69-.17s.31-.13.84-.18h.05l.07,0a.13.13,0,0,1,.12,0l.15,0c.06,0,.11,0,.14,0a.64.64,0,0,1,.15-.06,2.13,2.13,0,0,1,0,.25c0,.05,0,.11,0,.16a.5.5,0,0,0,0,.17.12.12,0,0,1,0,.08.07.07,0,0,1,0,.05.14.14,0,0,0,0,.11.17.17,0,0,0,0,.23c-.06.08,0,.16,0,.24s0,.16,0,.24,0,.17,0,.26,0,.17,0,.26a.26.26,0,0,1,0,.28.82.82,0,0,1,0,.27c0,.1,0,.19,0,.29s-.1.2,0,.29,0,.2,0,.3a.65.65,0,0,0,0,.31l0,0v0h0a.33.33,0,0,0,0,.14,1.87,1.87,0,0,0,.05.3c0,.1,0,.19,0,.28l-.34,0h-.5a.88.88,0,0,1-.28,0,.87.87,0,0,0-.28,0H21.4v0a.78.78,0,0,0,.05-.27,1.15,1.15,0,0,1,0-.26l0-.14a.25.25,0,0,1,0-.07v0h0c0-.09.12-.17,0-.27s-.12-.18,0-.26c0-.08.08-.16,0-.25a.1.1,0,0,0,0-.12s0-.08,0-.12.05-.17,0-.24,0-.15,0-.23.07-.15,0-.22,0-.13,0-.2c-.16,0,0-.13,0-.2s-.12-.11,0-.19c-.12,0,0-.11,0-.17s-.08-.1,0-.16,0-.11,0-.15,0-.09,0-.14a.1.1,0,0,1,0-.12l0-.11C21.4,31,21.4,30.84,21.44,30.83Z"/><path class="cls-1" d="M25.13,30.82s.08.17.12.48l0,.17a.53.53,0,0,1,0,.18c-.05.07.1.14,0,.21a.45.45,0,0,0,0,.23c0,.08,0,.17,0,.25s-.12.18,0,.27a.94.94,0,0,1,0,.29c-.08.1,0,.2,0,.31s-.05.21,0,.32c-.14.11-.12.22,0,.34s0,.23,0,.35,0,.12,0,.18a0,0,0,0,1,0,.05h.06s0,0,0,.06,0-.06.05-.06a.84.84,0,0,1,.2.05c.13,0,.27-.08.4,0s.28,0,.42,0a.5.5,0,0,0,.43,0,.94.94,0,0,1,.44,0,.48.48,0,0,1,.45,0c.15,0,.3.06.45,0h.1s0,0,0,0h0s0,0,0,0,0,0,0,0h0v0s0,0,0-.06,0-.3,0-.45,0-.3,0-.45a1.62,1.62,0,0,0,0-.44,1,1,0,0,1,0-.43c-.14-.14,0-.28,0-.41s0-.28,0-.41.06-.27,0-.4,0-.15,0-.14,0,0,0-.05,0,0,0,0a0,0,0,0,0,0,0s0,0,0,0h-.08l-.18,0c-.12-.11-.23,0-.34,0s-.22.07-.32,0-.21-.06-.31,0-.19-.17-.29,0-.18-.11-.26,0-.17,0-.25,0h-.24c-.65,0-1-.11-1-.17s.46-.13,1.27-.18c.08,0,.16-.09.25,0s.17-.06.26,0c.1-.11.19,0,.29,0a.82.82,0,0,0,.31,0c.1-.06.21,0,.32,0a.35.35,0,0,0,.34,0,.23.23,0,0,0,.18,0h.28a.55.55,0,0,0,.39,0c0,.05,0,.11,0,.18a1.73,1.73,0,0,1,0,.33.62.62,0,0,0,0,.24c0,.13,0,.26,0,.4a.53.53,0,0,1,0,.41,1.86,1.86,0,0,1,0,.41,2.06,2.06,0,0,1,0,.43c0,.15-.1.29,0,.44s0,.3,0,.45a1.69,1.69,0,0,0,0,.45l0,.06v0a.43.43,0,0,1,0,.05.67.67,0,0,0,0,.2c0,.14,0,.3.05.46h0a3,3,0,0,1-.43,0h-.37a3.38,3.38,0,0,1-.45,0c-.15,0-.3,0-.45,0s-.29,0-.44,0a.7.7,0,0,1-.43,0c-.14,0-.28-.1-.42,0s-.27.14-.4,0a.44.44,0,0,1-.2,0,1,1,0,0,0-.35,0,.47.47,0,0,0-.29-.05,1.48,1.48,0,0,1,0-.31q0-.18,0-.33a.55.55,0,0,0,0-.18c-.06-.12,0-.24,0-.35s.08-.23,0-.34,0-.22,0-.32c-.14-.11,0-.21,0-.31s-.09-.19,0-.29c-.11-.09,0-.18,0-.27s0-.17,0-.25,0-.15,0-.23,0-.14,0-.21a.22.22,0,0,1,0-.18.88.88,0,0,1,0-.17C25.05,31,25.09,30.82,25.13,30.82Z"/><path class="cls-1" d="M31.2,30.82s.08.17.12.48c0,.05,0,.11,0,.17a1,1,0,0,1,0,.18c-.06.07.09.14,0,.21a.45.45,0,0,0,0,.23c0,.08,0,.17,0,.25s-.11.18,0,.27a.71.71,0,0,1,0,.29c-.08.1,0,.2,0,.31s-.06.21,0,.32c-.13.11-.11.22,0,.34s0,.23,0,.35l0,.19a.13.13,0,0,1,0,.05l.07,0,0,.06s0-.06.05-.06a.73.73,0,0,1,.2.05c.13,0,.27-.08.41,0s.28,0,.42,0a.5.5,0,0,0,.43,0,.89.89,0,0,1,.43,0,.48.48,0,0,1,.45,0c.15,0,.3.06.46,0h.1s0,0,0,0h0s0,0,0,0a0,0,0,0,0,0,0h0v0s0,0,0-.06,0-.3,0-.45,0-.3,0-.45a1.62,1.62,0,0,0,0-.44,1.24,1.24,0,0,1,0-.43c-.15-.14,0-.28,0-.42s0-.27,0-.4.07-.27,0-.4v-.12s0,0,0,0h0s0,0,0-.05,0,0,0,0v0s0,0,0,0h-.08l-.18,0c-.11-.11-.22,0-.34,0s-.21.07-.32,0-.2-.06-.3,0-.2-.17-.29,0-.19-.11-.27,0-.17,0-.25,0h-.23c-.66,0-1-.11-1-.17s.47-.13,1.27-.18c.08,0,.16-.09.25,0s.17-.06.27,0c.09-.11.19,0,.29,0a.76.76,0,0,0,.3,0c.11-.06.21,0,.32,0a.34.34,0,0,0,.34,0,.23.23,0,0,0,.18,0h.28a.51.51,0,0,0,.39,0c0,.06,0,.12,0,.18a1.26,1.26,0,0,1,0,.34v.15a.27.27,0,0,0,0,.09c0,.13,0,.26,0,.4a.55.55,0,0,1,0,.4,2,2,0,0,1,0,.42,2.06,2.06,0,0,1,0,.43c0,.15-.11.29,0,.44s0,.3,0,.45a1.7,1.7,0,0,0,0,.45l0,.06a0,0,0,0,1,0,0v.05a1.41,1.41,0,0,0,0,.2c0,.14,0,.3.06.46h0a3,3,0,0,1-.43,0h-.37a3.53,3.53,0,0,1-.46,0c-.15,0-.3,0-.45,0s-.29,0-.43,0a.7.7,0,0,1-.43,0c-.14,0-.28-.1-.42,0s-.28.14-.41,0a.46.46,0,0,1-.2,0,1,1,0,0,0-.35,0A.45.45,0,0,0,31,35a2.51,2.51,0,0,1,0-.31l0-.32a.58.58,0,0,0,0-.19c-.05-.12,0-.24,0-.35s.08-.23,0-.34,0-.22,0-.32c-.14-.11,0-.21,0-.31s-.1-.19,0-.29c-.11-.09,0-.18,0-.27s-.05-.17,0-.25,0-.15,0-.23,0-.14,0-.21a.28.28,0,0,1,0-.18c0-.06,0-.12,0-.17C31.13,31,31.16,30.82,31.2,30.82Z"/><path class="cls-1" d="M19.06,24.65s.08.16.11.45c0,0,0,.11,0,.16a1.1,1.1,0,0,1,0,.18c-.06.07.1.14,0,.21a.42.42,0,0,0,0,.22c0,.08,0,.16,0,.24s-.12.17,0,.26a.66.66,0,0,1,0,.28c-.08.09,0,.19,0,.29s-.06.21,0,.31a.21.21,0,0,0-.09.16.16.16,0,0,0,0,.09s0,0,0,0l0,0v0s0,0,0,0a0,0,0,0,0,0,0h.05a1.05,1.05,0,0,1,.29.23.31.31,0,0,1,.29.25.27.27,0,0,1,.18.1l0,0h0s0,0,0,0,0,0,0,0,0,0,0,0a.28.28,0,0,1,.2,0c.13,0,.27,0,.4,0a.48.48,0,0,0,.42,0,.85.85,0,0,1,.42,0,.42.42,0,0,1,.43,0,.81.81,0,0,1,.22,0h0s0,0,0,0h0s0,0,0,0h0s0-.07,0-.11a.42.42,0,0,0,0-.22c-.07-.15,0-.3,0-.44s0-.29,0-.43.06-.29,0-.43a1,1,0,0,1,0-.41c-.14-.14,0-.27,0-.4s0-.27,0-.4a.41.41,0,0,1,0-.19.28.28,0,0,0,0-.09V25h0s0,0,0,0,0,0,0-.05h0c-.05,0,0,0-.05,0s0,0,0,0h-.16l-.17,0c-.12-.11-.22,0-.33,0s-.21.07-.31,0-.2-.06-.3,0-.18-.17-.27,0-.18-.11-.26,0-.17,0-.25,0h-.22c-.63,0-1-.11-1-.17s.45-.13,1.22-.18c.08,0,.16-.09.25,0s.17-.06.26,0c.09-.11.18,0,.27,0a.76.76,0,0,0,.3,0c.1-.06.2,0,.31,0a.33.33,0,0,0,.33,0,.2.2,0,0,0,.17,0l.08,0h.1a.47.47,0,0,0,.28.05l.35-.06h0a1.6,1.6,0,0,1,0,.31c0,.11,0,.22,0,.32v.12a.28.28,0,0,0,0,.09,1.2,1.2,0,0,1,0,.19.5.5,0,0,1,0,.4,1.77,1.77,0,0,1,0,.4,2.81,2.81,0,0,1,0,.41c0,.14-.1.28,0,.43s0,.28,0,.43a1.3,1.3,0,0,0,0,.44.3.3,0,0,0-.05.22.43.43,0,0,0,0,.11v.1l0,.11a4.78,4.78,0,0,1,0,.53h-1c-.14,0-.29,0-.43,0s-.28-.05-.42,0a.75.75,0,0,1-.42,0c-.13,0-.27-.1-.4,0s-.13,0-.2.06H20l-.09,0h0v0a.08.08,0,0,1,0-.05.74.74,0,0,1-.13-.12l0,0h0l0,0a.21.21,0,0,0-.13-.13c0-.16-.17-.17-.25-.24s-.14-.2-.26-.23L19,28,18.93,28a.52.52,0,0,1-.11-.1l0,0s0,0,0,0v-.09a.75.75,0,0,0,0-.15.15.15,0,0,1,0-.07v0a.29.29,0,0,1,0-.09.15.15,0,0,0,0-.16c0-.1,0-.21,0-.31-.15-.1,0-.2,0-.29s-.1-.19,0-.28c-.11-.09,0-.18,0-.26s-.05-.16,0-.24.05-.15,0-.22,0-.14,0-.21a.23.23,0,0,1,0-.18.88.88,0,0,0,0-.16C19,24.81,19,24.65,19.06,24.65Z"/><path class="cls-1" d="M25.13,24.65s.08.16.12.47l0,.17a.53.53,0,0,1,0,.18c-.05.07.1.14,0,.21a.45.45,0,0,0,0,.23c0,.08,0,.17,0,.25s-.12.18,0,.27a.94.94,0,0,1,0,.29c-.08.1,0,.2,0,.31s-.05.21,0,.32c-.14.11-.12.22,0,.34s0,.23,0,.35,0,.12,0,.18a.06.06,0,0,1,0,.06l.06,0s0,0,0,.06,0-.06.05-.06a.84.84,0,0,1,.2,0c.13.05.27-.08.4,0s.28,0,.42,0a.5.5,0,0,0,.43,0,.94.94,0,0,1,.44,0,.45.45,0,0,1,.45,0c.15,0,.3.05.45,0h.09s0,0,0,0,0,0,0,0h0s0,0,0,0,0,0,0,0h0v0s0,0,0-.05,0-.31,0-.46,0-.3,0-.45a1.62,1.62,0,0,0,0-.44,1,1,0,0,1,0-.43c-.14-.14,0-.28,0-.41s0-.28,0-.41.06-.27,0-.4,0-.15,0-.14,0,0,0-.05,0,0,0,0a0,0,0,0,0,0,0s0,0,0,0h-.08l-.18,0c-.12-.11-.23,0-.34,0s-.22.07-.32,0-.21-.06-.31,0-.19-.17-.29,0-.18-.11-.26,0-.17,0-.25,0h-.24c-.65,0-1-.11-1-.17s.46-.13,1.27-.18c.08,0,.16-.09.25,0s.17-.06.26,0c.1-.11.19,0,.29,0a.82.82,0,0,0,.31,0c.1-.06.21,0,.32,0a.35.35,0,0,0,.34,0,.23.23,0,0,0,.18,0h.28a.55.55,0,0,0,.39,0c0,.05,0,.11,0,.18a1.79,1.79,0,0,1,0,.33.62.62,0,0,0,0,.24c0,.13,0,.27,0,.4a.53.53,0,0,1,0,.41,1.86,1.86,0,0,1,0,.41,2.06,2.06,0,0,1,0,.43c0,.15-.1.29,0,.44s0,.3,0,.45a1.77,1.77,0,0,0,0,.46l0,.05s0,0,0,0a.43.43,0,0,0,0,.05.67.67,0,0,0,0,.2c0,.13,0,.29.05.46h-.8a3.38,3.38,0,0,1-.45,0c-.15,0-.3,0-.45,0s-.29-.05-.44,0a.79.79,0,0,1-.43,0c-.14,0-.28-.1-.42,0s-.27.15-.4,0a.34.34,0,0,1-.2,0,1,1,0,0,0-.35,0,.47.47,0,0,0-.29-.05,1.42,1.42,0,0,1,0-.31l0-.33a.55.55,0,0,0,0-.18c-.06-.12,0-.24,0-.35s.08-.23,0-.34,0-.22,0-.32c-.14-.11,0-.21,0-.31s-.09-.19,0-.29c-.11-.09,0-.18,0-.27s0-.17,0-.25,0-.15,0-.23,0-.14,0-.21a.22.22,0,0,1,0-.18.88.88,0,0,1,0-.17C25.05,24.81,25.09,24.65,25.13,24.65Z"/><path class="cls-1" d="M31.2,24.65s.08.16.12.47c0,.05,0,.11,0,.17a1.1,1.1,0,0,1,0,.18c-.06.07.09.14,0,.21a.45.45,0,0,0,0,.23c0,.08,0,.17,0,.25s-.11.18,0,.27a.71.71,0,0,1,0,.29c-.08.1,0,.2,0,.31s-.06.21,0,.32c-.13.11-.11.22,0,.34s0,.23,0,.35l0,.19a.13.13,0,0,1,0,.05c.05,0,.07,0,.07,0l0,.06c0-.05,0-.06.05-.06a.73.73,0,0,1,.2,0c.13.05.27-.08.41,0s.27,0,.42,0a.5.5,0,0,0,.43,0,.89.89,0,0,1,.43,0,.45.45,0,0,1,.45,0c.15,0,.3.05.46,0h.13s0,0,0,0a0,0,0,0,0,0,0h0v0a.43.43,0,0,0,0-.05c-.07-.16,0-.31,0-.46s0-.3,0-.45a1.62,1.62,0,0,0,0-.44,1.25,1.25,0,0,1,0-.43c-.15-.14,0-.28,0-.41s0-.28,0-.41.07-.27,0-.4V25h0s0,0,0-.05,0,0,0,0v0s0,0,0,0h-.08l-.18,0c-.11-.11-.22,0-.34,0s-.21.07-.32,0-.2-.06-.3,0-.2-.17-.29,0-.18-.11-.27,0-.17,0-.25,0h-.23c-.66,0-1-.11-1-.17s.47-.13,1.27-.18c.08,0,.16-.09.25,0s.18-.06.27,0c.09-.11.19,0,.29,0a.76.76,0,0,0,.3,0c.11-.06.21,0,.32,0a.34.34,0,0,0,.34,0,.23.23,0,0,0,.18,0h.28a.56.56,0,0,0,.39,0c0,.05,0,.11,0,.17a1.26,1.26,0,0,1,0,.34v.15a.27.27,0,0,0,0,.09c0,.13,0,.26,0,.4a.58.58,0,0,1,0,.41,1.87,1.87,0,0,1,0,.41,2.08,2.08,0,0,1,0,.43c0,.15-.11.29,0,.44s0,.3,0,.45a1.78,1.78,0,0,0,0,.46.1.1,0,0,0,0,.05.08.08,0,0,1,0,0v.05a1.27,1.27,0,0,0,0,.2c0,.13,0,.29.06.46h-.8a3.49,3.49,0,0,1-.46,0c-.15,0-.3,0-.45,0s-.29-.05-.43,0a.78.78,0,0,1-.43,0c-.15,0-.29-.1-.42,0s-.28.15-.41,0a.35.35,0,0,1-.2,0,1,1,0,0,0-.35,0,.45.45,0,0,0-.29-.05,2.51,2.51,0,0,1,0-.31l0-.32a.58.58,0,0,0,0-.19c-.05-.12,0-.24,0-.35s.08-.23,0-.34,0-.22,0-.32c-.14-.11,0-.21,0-.31s-.1-.19,0-.29c-.11-.09,0-.18,0-.27S31,26,31,25.91s0-.15,0-.23,0-.14,0-.21a.28.28,0,0,1,0-.18c0-.06,0-.12,0-.17C31.13,24.81,31.16,24.65,31.2,24.65Z"/><path class="cls-1" d="M19.06,18.47s.08.17.11.47c0,0,0,.11,0,.17a1.11,1.11,0,0,1,0,.19c-.06.06.1.13,0,.21a.46.46,0,0,0,0,.23c0,.08,0,.16,0,.25s-.12.17,0,.27a.66.66,0,0,1,0,.28c-.08.1,0,.2,0,.31s-.06.21,0,.32c-.13.11-.11.23,0,.34s-.05.23,0,.36,0,.12,0,.18a.09.09,0,0,1,0,.05l.07,0a.15.15,0,0,0,0,.06c0-.05,0-.06,0-.06l.2.05c.14.05.27-.08.41,0s.28,0,.42,0a.5.5,0,0,0,.43,0,.93.93,0,0,1,.44,0,.43.43,0,0,1,.44,0c.16,0,.31.05.46,0h.09s0,0,0,0,0,0,0,0h0s0,0,0,0v0h0v0s0,0,0-.05,0-.31,0-.46,0-.3,0-.45.06-.29,0-.44a1,1,0,0,1,0-.42c-.14-.15,0-.29,0-.42s0-.28,0-.41.06-.27,0-.4a.14.14,0,0,0,0-.09v0h0s0,0,0,0,0,0,0,0,0,0,0,0,0,0,0,0h-.25c-.12-.12-.23,0-.34,0s-.22.07-.33,0-.2-.06-.3,0-.2-.17-.29,0-.18-.11-.27,0-.17,0-.25,0H20.1c-.66-.05-1-.11-1-.17s.47-.13,1.27-.18c.08,0,.16-.09.25,0s.18-.06.27,0c.09-.11.19,0,.29,0a.76.76,0,0,0,.3,0c.11-.06.22,0,.33,0a.34.34,0,0,0,.34,0,.25.25,0,0,0,.17,0h.12a.85.85,0,0,1,.16,0,.62.62,0,0,0,.39,0c0,.05,0,.11.05.18a1.82,1.82,0,0,1,0,.33V19c0,.13,0,.27,0,.4a.53.53,0,0,1,0,.41,1.93,1.93,0,0,1,0,.42,2.94,2.94,0,0,1,0,.42c0,.15-.1.3,0,.44s0,.3,0,.45A1.42,1.42,0,0,0,23,22L23,22a.06.06,0,0,0,0,0,.07.07,0,0,0,0,.05.67.67,0,0,0,0,.2,4.57,4.57,0,0,0,.05.46h0a3,3,0,0,1-.43,0h-.37a3.57,3.57,0,0,1-.46,0c-.15,0-.3,0-.44,0s-.3-.05-.44,0a.7.7,0,0,1-.43,0c-.14,0-.28-.09-.42,0s-.27.14-.41,0a.35.35,0,0,1-.2,0,1,1,0,0,0-.35,0,.43.43,0,0,0-.28,0,2.79,2.79,0,0,1,0-.32c0-.11,0-.22,0-.32a.37.37,0,0,0,0-.18c-.05-.13,0-.24,0-.36s.08-.23,0-.34,0-.22,0-.32c-.15-.11,0-.21,0-.31s-.1-.19,0-.28c-.11-.1,0-.19,0-.27s-.05-.17,0-.25.05-.16,0-.23,0-.15,0-.21a.25.25,0,0,1,0-.19,1.11,1.11,0,0,0,0-.17C19,18.64,19,18.47,19.06,18.47Z"/><path class="cls-1" d="M25.13,18.47s.08.16.12.47l0,.17a.59.59,0,0,1,0,.19c-.05.06.1.13,0,.2a.45.45,0,0,0,0,.23c0,.09,0,.17,0,.26s-.12.17,0,.26a.94.94,0,0,1,0,.29c-.08.1,0,.2,0,.31s-.05.21,0,.32c-.14.11-.12.22,0,.34s0,.23,0,.35,0,.12,0,.19,0,0,0,.05l.06,0s0,0,0,.06,0-.06.05-.06l.2.05c.13.05.27-.08.4,0s.28,0,.42,0a.5.5,0,0,0,.43,0,.94.94,0,0,1,.44,0,.45.45,0,0,1,.45,0c.15,0,.3.05.45,0h.09s0,0,0,0,0,0,0,0h0s0,0,0,0,0,0,0,0h0v0s0,0,0-.05,0-.31,0-.46,0-.3,0-.45a1.62,1.62,0,0,0,0-.44,1,1,0,0,1,0-.42c-.14-.15,0-.28,0-.42s0-.28,0-.41.06-.27,0-.39,0-.16,0-.15l0,0s0,0,0,0a.06.06,0,0,0,0,0s0,0,0,0h-.26c-.12-.12-.23,0-.34,0s-.22.07-.32,0-.21-.06-.31,0-.19-.17-.29,0-.18-.11-.26,0-.17,0-.25,0h-.24c-.65-.05-1-.11-1-.17s.46-.13,1.27-.18c.08,0,.16-.09.25,0s.17-.06.26,0c.1-.11.19,0,.29,0a.82.82,0,0,0,.31,0c.1-.06.21,0,.32,0a.34.34,0,0,0,.34,0,.28.28,0,0,0,.18,0h.12a.85.85,0,0,1,.16,0,.61.61,0,0,0,.39,0c0,.05,0,.11,0,.18a1.79,1.79,0,0,1,0,.33.67.67,0,0,0,0,.25c0,.12,0,.26,0,.39a.53.53,0,0,1,0,.41,2,2,0,0,1,0,.42,2,2,0,0,1,0,.42c0,.15-.1.3,0,.44s0,.3,0,.45a1.77,1.77,0,0,0,0,.46l0,.05s0,0,0,0a.43.43,0,0,0,0,.05.67.67,0,0,0,0,.2c0,.13,0,.29.05.46h0a3,3,0,0,1-.43,0h-.37a3.38,3.38,0,0,1-.45,0c-.15,0-.3,0-.45,0s-.29-.05-.44,0a.7.7,0,0,1-.43,0c-.14,0-.28-.09-.42,0s-.27.14-.4,0a.34.34,0,0,1-.2,0,1,1,0,0,0-.35,0,.47.47,0,0,0-.29,0,1.58,1.58,0,0,1,0-.32l0-.32a.58.58,0,0,0,0-.19c-.06-.12,0-.23,0-.35s.08-.23,0-.34,0-.22,0-.32c-.14-.11,0-.21,0-.31s-.09-.19,0-.29c-.11-.09,0-.18,0-.26s0-.17,0-.26,0-.15,0-.23,0-.14,0-.2a.25.25,0,0,1,0-.19.88.88,0,0,1,0-.17C25.05,18.63,25.09,18.47,25.13,18.47Z"/><path class="cls-1" d="M31.2,18.47s.08.17.12.47c0,0,0,.11,0,.17a1.11,1.11,0,0,1,0,.19c-.06.06.09.13,0,.21a.46.46,0,0,0,0,.23c0,.08,0,.16,0,.25s-.11.17,0,.27a.66.66,0,0,1,0,.28c-.08.1,0,.2,0,.31s-.06.21,0,.32c-.13.11-.11.23,0,.34s0,.23,0,.36l0,.18a.09.09,0,0,1,0,.05l.07,0,0,.06c0-.05,0-.06.05-.06l.2.05c.13.05.27-.08.41,0s.27,0,.42,0a.5.5,0,0,0,.43,0,.89.89,0,0,1,.43,0,.45.45,0,0,1,.45,0c.15,0,.3.05.46,0h.08l0,0s0,0,0,0h0s0,0,0,0v0h0v0a.43.43,0,0,1,0-.05c-.07-.16,0-.31,0-.46s0-.3,0-.45a1.62,1.62,0,0,0,0-.44,1.19,1.19,0,0,1,0-.42c-.15-.15,0-.29,0-.42s0-.28,0-.41.07-.27,0-.4v-.12h0s0,0,0,0,0,0,0,0v0s0,0,0,0h-.26c-.11-.12-.22,0-.34,0s-.21.07-.32,0-.2-.06-.3,0-.2-.17-.29,0-.18-.11-.27,0-.17,0-.25,0h-.23c-.66-.05-1-.11-1-.17s.47-.13,1.27-.18c.08,0,.16-.09.25,0s.18-.06.27,0c.09-.11.19,0,.29,0a.76.76,0,0,0,.3,0c.11-.06.21,0,.32,0a.34.34,0,0,0,.34,0,.28.28,0,0,0,.18,0h.12a.86.86,0,0,1,.16,0,.62.62,0,0,0,.39,0c0,.05,0,.11,0,.18a1.19,1.19,0,0,1,0,.33v.15a.27.27,0,0,0,0,.09c0,.13,0,.27,0,.4a.58.58,0,0,1,0,.41,2,2,0,0,1,0,.42,2,2,0,0,1,0,.42c0,.15-.11.3,0,.44s0,.3,0,.45a1.78,1.78,0,0,0,0,.46l0,.05a.06.06,0,0,1,0,0v.05a1.27,1.27,0,0,0,0,.2c0,.13,0,.29.06.46h0a3,3,0,0,1-.43,0h-.37a3.49,3.49,0,0,1-.46,0c-.15,0-.3,0-.45,0s-.29-.05-.43,0a.7.7,0,0,1-.43,0c-.15,0-.29-.09-.42,0s-.28.14-.41,0a.35.35,0,0,1-.2,0,1,1,0,0,0-.35,0,.45.45,0,0,0-.29,0,2.91,2.91,0,0,1,0-.32l0-.32a.55.55,0,0,0,0-.18c-.05-.13,0-.24,0-.36s.08-.23,0-.34,0-.22,0-.32c-.14-.11,0-.21,0-.31s-.1-.19,0-.28c-.11-.1,0-.19,0-.27s-.05-.17,0-.25,0-.16,0-.23,0-.15,0-.21a.31.31,0,0,1,0-.19c0-.06,0-.12,0-.17C31.13,18.64,31.16,18.47,31.2,18.47Z"/><path class="cls-1" d="M14.86,26.33c0,.05-.49.05-1.35.25l-.23.06-.23.07-.25.08-.26.09a.62.62,0,0,0-.26.12.5.5,0,0,1-.29.12l-.14.06-.15.08-.14.08-.14.1-.15.09-.15.09a1.48,1.48,0,0,0-.29.22l-.06.07a.13.13,0,0,1-.07.06,1,1,0,0,1-.17.1.55.55,0,0,0-.28.26c-.17.2-.37.39-.56.6a1.86,1.86,0,0,0-.51.69,1.36,1.36,0,0,0-.44.8,1,1,0,0,0-.35.88,2.17,2.17,0,0,0-.07.24,2.09,2.09,0,0,0-.08.23,2.21,2.21,0,0,0-.05.25,1.06,1.06,0,0,0,0,.25c-.05.34-.06.68-.09,1a3.47,3.47,0,0,1,.08,1.07,4.28,4.28,0,0,1,.25,1.07,2.76,2.76,0,0,0,.08.27l.13.26c0,.08.09.16.13.25a1.25,1.25,0,0,1,.1.27,10.18,10.18,0,0,0,.63,1,2.47,2.47,0,0,0,.81.89c.31.25.65.47,1,.74a6.79,6.79,0,0,1,1.11.56,4.57,4.57,0,0,0,1.21.36c.42.09.85.07,1.29.12A3.25,3.25,0,0,0,16.15,40a4.63,4.63,0,0,1,.61-.17l.31-.08a1.45,1.45,0,0,0,.29-.11l.16,0,.15-.06.14-.07a.57.57,0,0,0,.13-.08l.14-.08.13-.08.13-.09.13-.07a4.22,4.22,0,0,0,1-.74c.29-.29.54-.6.81-.89a1.48,1.48,0,0,1,.3-.5l.18-.23.08-.12a.83.83,0,0,0,.07-.13,4.18,4.18,0,0,0,.44-1.05c0-.18.11-.35.16-.53a.74.74,0,0,1,0-.14.59.59,0,0,0,0-.13.83.83,0,0,0,0-.27l0-.27v-.27a2.44,2.44,0,0,0,0-.27l0-.26a1.15,1.15,0,0,1,0-.26,1.13,1.13,0,0,1,0-.26,2.26,2.26,0,0,0,0-.26,1.11,1.11,0,0,0-.05-.25c0-.33-.14-.65-.22-1a.93.93,0,0,0,0-.24,1.57,1.57,0,0,0-.09-.23,2.12,2.12,0,0,0-.11-.21L21,30.41a1.9,1.9,0,0,0-.23-.39,1.9,1.9,0,0,1-.21-.4,2.75,2.75,0,0,0-.51-.69,2.71,2.71,0,0,1-.24-.35.54.54,0,0,0-.32-.25,1.44,1.44,0,0,1-.27-.28.66.66,0,0,0-.31-.21.92.92,0,0,1-.32-.18l-.13-.12a.71.71,0,0,0-.14-.1l-.14-.09L18,27.27l-.14-.08-.14-.07a8.16,8.16,0,0,0-1.18-.45l-.26-.07-.23-.06-.42-.08-.58-.08c-.14,0-.21,0-.21-.05s.09,0,.26,0h.5l.23,0a6.57,6.57,0,0,1,2.64.82l.17.08.17.08a.86.86,0,0,1,.3.24l.33.22a1.64,1.64,0,0,1,.31.28c.28.11.43.38.61.61s.36.49.57.72a1.62,1.62,0,0,1,.27.41,3,3,0,0,0,.23.43,2.33,2.33,0,0,0,.07.25c0,.07.07.15.1.23a1.63,1.63,0,0,0,.11.23,2.56,2.56,0,0,0,.11.24,2.44,2.44,0,0,0,.06.26l.07.25c0,.09.05.18.08.26l.06.27a5.29,5.29,0,0,0,.11,1.11,5.69,5.69,0,0,1-.07,1.16,7.86,7.86,0,0,1-.25,1.17,3,3,0,0,1-.47,1.15,5.61,5.61,0,0,1-.67,1.09,5.72,5.72,0,0,1-.88,1,3.07,3.07,0,0,1-.53.4l-.27.19a1.86,1.86,0,0,0-.26.23,8.1,8.1,0,0,1-1.21.62,13.9,13.9,0,0,1-1.34.4,11,11,0,0,0-1.4.13,5.12,5.12,0,0,1-1.41-.13,6.26,6.26,0,0,1-1.34-.4,8.61,8.61,0,0,1-1.21-.62,1.75,1.75,0,0,1-.29-.18,2.65,2.65,0,0,1-.26-.21c-.17-.15-.33-.3-.51-.43a3.68,3.68,0,0,1-.88-1c-.12-.18-.23-.37-.33-.55s-.1-.19-.16-.28L8.4,36.9l-.1-.13-.16-.27L8,36.23c0-.1-.08-.19-.11-.29a1.65,1.65,0,0,1,0-.32A2.89,2.89,0,0,1,7.69,35a.77.77,0,0,1,0-.15l0-.15c0-.1,0-.19-.06-.29s0-.2,0-.3l0-.29a2.66,2.66,0,0,1,0-.28,2.83,2.83,0,0,1,0-.29c0-.38.1-.74.11-1.11l0-.27c0-.09,0-.18.07-.26l.09-.26c0-.08.05-.17.08-.25A1,1,0,0,1,8,30.89a1.63,1.63,0,0,1,.11-.23l.06-.12.06-.11a1,1,0,0,0,.09-.24,6.42,6.42,0,0,1,.5-.84.53.53,0,0,1,.08-.22A.9.9,0,0,1,9,28.94l.34-.31c.2-.21.33-.5.61-.61a.84.84,0,0,1,.28-.31l.18-.1.09-.05.09,0a3.46,3.46,0,0,0,.31-.22.91.91,0,0,1,.16-.11l.17-.07.14-.11.16-.07.16-.05a.52.52,0,0,0,.15-.07c.22-.05.4-.17.59-.22a1.48,1.48,0,0,1,.27-.1,1.28,1.28,0,0,1,.27-.05l.25-.05.23,0A3.41,3.41,0,0,1,14.86,26.33Z"/><path class="cls-1" d="M15.54,36a1.18,1.18,0,0,0,.78-.41,1.27,1.27,0,0,0,.3-.86,1.13,1.13,0,0,0-.21-.71,1.75,1.75,0,0,0-.87-.43Zm-.47-5.57a1.15,1.15,0,0,0-.74.38,1,1,0,0,0-.27.72,1.08,1.08,0,0,0,.23.69,1.5,1.5,0,0,0,.78.42Zm0,7.06v-.81a2.87,2.87,0,0,1-1-.27,1.72,1.72,0,0,1-.66-.63,2.28,2.28,0,0,1-.32-1.06l.81-.16a2,2,0,0,0,.33,1,1.16,1.16,0,0,0,.82.48V33.44a4.59,4.59,0,0,1-1-.42,1.52,1.52,0,0,1-.59-.59,1.81,1.81,0,0,1-.21-.87,1.76,1.76,0,0,1,.61-1.39,2.14,2.14,0,0,1,1.21-.44v-.38h.47v.38a1.93,1.93,0,0,1,1.11.42,1.81,1.81,0,0,1,.63,1.2l-.82.13a1.4,1.4,0,0,0-.3-.73,1.08,1.08,0,0,0-.62-.34v2.32a6.69,6.69,0,0,1,.8.24,1.76,1.76,0,0,1,.61.41,1.57,1.57,0,0,1,.37.56,2,2,0,0,1,.13.71A2,2,0,0,1,16.92,36a2,2,0,0,1-1.38.6v.82Z"/></svg>