<svg version="1.2" xmlns="http://www.w3.org/2000/svg" viewBox="0 0 524 449" width="524" height="449">
	<title>صورة رقم2-svg</title>
	<style>
		.s0 { fill: #ffffff;stroke: #ffffff;stroke-miterlimit:10;stroke-width: 18 } 
		.s1 { fill: #ffffff } 
		.s2 { fill: none;stroke: #ffffff;stroke-miterlimit:10;stroke-width: 60 } 
		.s3 { fill: #58595b } 
		.s4 { fill: #e1e1e1 } 
		.s5 { fill: #ececec } 
		.s6 { fill: #f0f0f0 } 
		.s7 { fill: #e7e7e7 } 
		.s8 { fill: #007cff } 
		.s9 { fill: #cd7a63 } 
		.s10 { fill: #000000 } 
		.s11 { opacity: .3;fill: #000000 } 
		.s12 { fill: #1a2e35 } 
		.s13 { opacity: .2;fill: #000000 } 
		.s14 { fill: #b94d3c } 
		.s15 { opacity: .2;fill: none;stroke: #000000;stroke-linecap: round;stroke-linejoin: round;stroke-width: .5 } 
		.s16 { fill: #ff4f4d } 
		.s17 { opacity: .3;fill: #ffffff } 
		.s18 { fill: #ffae6a } 
		.s19 { opacity: .3;fill: none;stroke: #000000;stroke-linecap: round;stroke-linejoin: round;stroke-width: .4 } 
		.s20 { opacity: .5;fill: #ffffff } 
		.s21 { opacity: .1;fill: #000000 } 
		.s22 { opacity: .1;fill: #ffffff } 
		.s23 { opacity: .7;fill: #ffffff } 
		.s24 { fill: #ff8038 } 
		.s25 { opacity: .1;fill: none;stroke: #000000;stroke-miterlimit:10;stroke-width: .5 } 
	</style>
	<path id="Layer" fill-rule="evenodd" class="s0" d="m329.1 371h-229.5v-303.8h161.8l0.4 0.4 67.3 67.4zm-227-2.6h224.4v-232.4l-66.2-66.2h-158.1z"/>
	<path id="Layer" fill-rule="evenodd" class="s1" d="m302.5 153v93.8h-176.2v-115.2h65.5v21.4zm-167.9 0h49v-13.1h-49zm0 64.2h49v-13.1h-49zm49-21.4v-13.1h-49v13.1zm0-21.4v-13.1h-48.9v13.1zm0 64.1v-13h-48.9v13zm110.7-13.1h-102.4v13.1h102.4zm0-21.4h-102.4v13.1h102.4zm0-21.4h-102.4v13.1h102.4zm0-8.3v-13.1h-102.4v13.1z"/>
	<path id="Layer" class="s2" d="m464.8 300.6h-113"/>
	<path id="Layer" class="s2" d="m408.3 356.2v-112.4"/>
	<path id="Layer" fill-rule="evenodd" class="s3" d="m19.7 399.3h-15.4l0.2-2.6c0.1-0.4 1.7-1 2.8-1.6q0.3-0.1 0.6-0.3 0.3-0.2 0.6-0.4 0.3-0.3 0.6-0.5 0.3-0.2 0.6-0.4l0.5-0.5v-0.7q-0.2-0.2-0.3-0.5-0.2-0.2-0.4-0.5-0.1-0.3-0.3-0.5-0.1-0.3-0.3-0.5-0.1-0.2-0.1-0.4-0.1-0.2-0.2-0.4 0-0.1-0.1-0.3 0-0.2-0.1-0.4c0-0.3 0.4-0.5 0.4-0.5v-1.8q0-0.6 0.3-1.1 0.3-0.5 0.7-0.9 0.5-0.4 1-0.6 0.6-0.1 1.2-0.1 0.6 0 1.2 0.1 0.5 0.2 1 0.6 0.4 0.4 0.7 0.9 0.3 0.5 0.3 1.1v1.8c0 0 0.4 0.2 0.4 0.5q-0.1 0.2-0.1 0.4 0 0.2-0.1 0.3-0.1 0.2-0.2 0.4 0 0.2-0.1 0.3-0.2 0.3-0.3 0.6-0.2 0.2-0.3 0.5-0.2 0.3-0.4 0.5-0.1 0.3-0.3 0.5v0.8l0.5 0.4q0.3 0.2 0.6 0.4 0.3 0.3 0.6 0.5 0.3 0.2 0.6 0.4 0.3 0.1 0.6 0.3c1.1 0.6 2.7 1.2 2.7 1.6zm-7.7-6.7c0 0 1.8 0.5 2.4-2.7 0.7-3.3 0.1-4.2-0.2-4.3q-0.4-0.1-0.8-0.2-0.4-0.1-0.8 0-0.4 0-0.8 0.2-0.4 0.1-0.7 0.3c0 0-1.1-0.9-1.6 0.5q-0.1 0.5-0.2 0.9 0 0.5 0 1 0 0.4 0 0.9 0.1 0.4 0.2 0.9c1 2.8 2.5 2.5 2.5 2.5z"/>
	<path id="Layer" fill-rule="evenodd" class="s4" d="m478.4 296.5h-194.5q-1.3 0-2.4-0.5-1.2-0.5-2.1-1.3-0.9-0.9-1.3-2.1-0.5-1.1-0.5-2.4v-283.4q0-1.2 0.5-2.4 0.4-1.2 1.3-2 0.9-0.9 2.1-1.4 1.1-0.5 2.4-0.5h194.5q1.3 0 2.5 0.5 1.1 0.5 2 1.4 0.9 0.8 1.4 2 0.4 1.2 0.5 2.4v283.4q-0.1 1.3-0.5 2.4-0.5 1.2-1.4 2.1-0.9 0.8-2 1.3-1.2 0.5-2.5 0.5zm-194.5-295.7q-1.2 0-2.3 0.4-1.1 0.5-2 1.3-0.8 0.9-1.3 2-0.4 1.1-0.4 2.3v283.4q0 1.2 0.4 2.3 0.5 1.1 1.3 1.9 0.9 0.9 2 1.3 1.1 0.5 2.3 0.5h194.5q1.2 0 2.3-0.5 1.1-0.4 2-1.3 0.8-0.8 1.3-1.9 0.4-1.1 0.4-2.3v-283.4q0-1.2-0.4-2.3-0.5-1.1-1.3-1.9-0.9-0.9-2-1.3-1.1-0.5-2.3-0.5z"/>
	<path id="Layer" fill-rule="evenodd" class="s4" d="m254.1 296.5h-194.6q-1.2 0-2.4-0.5-1.1-0.5-2-1.3-0.9-0.9-1.4-2.1-0.5-1.1-0.5-2.4v-283.4q0-1.2 0.5-2.4 0.5-1.2 1.4-2 0.9-0.9 2-1.4 1.2-0.5 2.4-0.5h194.6q1.2 0 2.4 0.5 1.2 0.5 2 1.4 0.9 0.8 1.4 2 0.5 1.2 0.5 2.4v283.4q0 1.3-0.5 2.4-0.5 1.2-1.4 2.1-0.8 0.8-2 1.3-1.2 0.5-2.4 0.5zm-194.6-295.7q-1.2 0-2.3 0.4-1.1 0.5-1.9 1.3-0.9 0.9-1.3 2-0.5 1.1-0.5 2.3v283.4q0 1.2 0.5 2.3 0.4 1.1 1.3 1.9 0.8 0.9 1.9 1.3 1.1 0.5 2.3 0.5h194.6q1.2 0 2.3-0.5 1.1-0.4 1.9-1.3 0.9-0.8 1.3-1.9 0.5-1.1 0.5-2.3v-283.4q0-1.2-0.5-2.3-0.4-1.1-1.3-1.9-0.8-0.9-1.9-1.3-1.1-0.5-2.3-0.5z"/>
	<path id="Layer" class="s4" d="m0.6 362.3l538.2-0.1v0.3h-538.2z"/>
	<path id="Layer" class="s4" d="m56.2 377.6h17.3v0.3h-17.3z"/>
	<path id="Layer" class="s4" d="m184 374.7h57.6v0.3h-57.6z"/>
	<path id="Layer" class="s4" d="m74.6 387.6h39v0.3h-39z"/>
	<path id="Layer" class="s4" d="m407.9 374.5h46.5v0.3h-46.5z"/>
	<path id="Layer" class="s4" d="m463.9 374.5h6.9v0.3h-6.9z"/>
	<path id="Layer" class="s4" d="m341 381.3l58-0.1v0.3h-58z"/>
	<path id="Layer" class="s4" d="m441.7 424.8c0-0.4-1.4-42.2-8.2-48.9-6.7-6.4-14.3-0.2-14.6 0l-0.7-0.8c0.1 0 8.7-7 16 0 7.2 6.9 8.5 47.9 8.6 49.6z"/>
	<path id="Layer" class="s4" d="m442.3 433.1c-0.1-0.5-4.7-50.3 13.5-71.1l0.8 0.7c-17.9 20.5-13.3 69.8-13.2 70.3z"/>
	<path id="Layer" class="s4" d="m441.6 427.8l-1-0.1c0-0.5 3.5-56.5-9.8-68.8l0.7-0.8c13.7 12.6 10.3 67.4 10.1 69.7z"/>
	<path id="Layer" class="s4" d="m443.4 427.8h-1.1c0-1.6 0.4-37.9 10.7-43.8q0.8-0.4 1.6-0.7 0.8-0.3 1.7-0.4 0.9-0.1 1.7 0.1 0.9 0.1 1.7 0.4c6.2 2.6 9.3 13.7 9.5 14.1l-1 0.3c0-0.1-3.1-11-8.9-13.4q-0.7-0.3-1.4-0.4-0.8-0.1-1.5 0-0.8 0.1-1.5 0.3-0.7 0.3-1.3 0.7c-9.8 5.6-10.2 42.4-10.2 42.8z"/>
	<path id="Layer" class="s4" d="m439.4 427.8l-1.1-0.1c0-0.2 1.5-28.6-6.1-38.6q-2.8-3.7-6-3.5c-5 0.4-9.2 7.7-9.3 7.8l-0.9-0.5c0.2-0.3 4.5-7.9 10.1-8.3 2.5-0.2 4.8 1.1 6.9 3.8 7.9 10.3 6.4 38.2 6.4 39.4z"/>
	<path id="Layer" class="s4" d="m441 431.6c-0.2-2.7-5-67.5 3.4-79l0.9 0.7c-8.2 11.1-3.3 77.6-3.2 78.2z"/>
	<path id="Layer" class="s5" d="m462 390c0 0-5.1 1.9-3.6 6.3 1.5 4.4 17.6 11.6 17.6 11.6 0 0 6.7-6.1 0.6-16.1-6.2-10-14.5-5-14.6-1.8z"/>
	<path id="Layer" class="s5" d="m440 381.6c0 0 5.4-0.3 5.7 4.4 0.3 4.6-11.7 17.5-11.7 17.5 0 0-8.6-3.1-6.7-14.7 1.8-11.6 11.3-10.1 12.7-7.2z"/>
	<path id="Layer" class="s5" d="m435.4 359.3c0 0 3.6-0.4 3.3-2.6-0.3-2.1-14-7.8-22 1.3 0 0 5.1 8.9 12.6 9 7.5 0.2 6.1-7.7 6.1-7.7z"/>
	<path id="Layer" class="s5" d="m442.1 354c0 0-3.2 1.6-4.2-0.4-0.9-2 7.8-14 19.4-10.6 0 0 0.3 10.3-6 14.3-6.3 4.1-9.2-3.3-9.2-3.3z"/>
	<path id="Layer" class="s5" d="m425.1 388.2c0 0 2.5-2-0.2-3-2.7-1-15.8-0.7-16 12.3 0 0 15.3 2.5 17.2-2.4 1.9-5-1-6.9-1-6.9z"/>
	<path id="Layer" class="s5" d="m456.3 359c0 0-2.5-2 0.2-3 2.7-1 15.8-0.7 15.9 12.3 0 0-15.3 2.6-17.2-2.4-1.8-5 1.1-6.9 1.1-6.9z"/>
	<path id="Layer" class="s5" d="m448.2 369.5c0 0-0.2-2.5 1.8-1.5 2 1 8.8 8.4 1.7 15.4 0 0-9.6-7.1-7.8-10.8 1.7-3.7 4.3-3.1 4.3-3.1z"/>
	<path id="Layer" class="s5" d="m422.9 373c0 0 1.5-1.9-0.7-2.2-2.2-0.2-11.9 2.4-9.7 12.1 0 0 11.9-0.9 12.4-4.9 0.5-4.1-2-5-2-5z"/>
	<path id="Layer" class="s6" d="m453.3 446.5h-23.9l-6.4-29.3h36.1l-5.8 29.3z"/>
	<path id="Layer" class="s7" d="m420.9 416.8h40.3v8.4h-40.3z"/>
	<path id="Layer" class="s4" d="m66.5 424.8c0-0.4-1.5-42.2-8.3-48.9-6.6-6.4-14.2-0.2-14.5 0l-0.7-0.8c0.1 0 8.7-7 16 0 7.1 6.9 8.5 47.9 8.6 49.6z"/>
	<path id="Layer" class="s4" d="m67 433.1c0-0.5-4.6-50.3 13.6-71.1l0.8 0.7c-17.9 20.5-13.3 69.8-13.3 70.3z"/>
	<path id="Layer" class="s4" d="m66.4 427.8l-1.1-0.1c0-0.5 3.6-56.5-9.8-68.8l0.8-0.8c13.7 12.6 10.2 67.4 10.1 69.7z"/>
	<path id="Layer" class="s4" d="m68.1 427.8h-1c0-1.6 0.4-37.9 10.7-43.8q0.7-0.4 1.6-0.7 0.8-0.3 1.7-0.4 0.8-0.1 1.7 0.1 0.8 0.1 1.7 0.4c6.2 2.6 9.3 13.7 9.4 14.1l-1 0.3c0-0.1-3.1-11-8.8-13.4q-0.7-0.3-1.5-0.4-0.7-0.1-1.5 0-0.7 0.1-1.4 0.3-0.7 0.3-1.3 0.7c-9.8 5.6-10.3 42.4-10.3 42.8z"/>
	<path id="Layer" class="s4" d="m64.1 427.8l-1.1-0.1c0-0.2 1.6-28.6-6.1-38.6q-2.8-3.7-6-3.5c-5 0.4-9.2 7.7-9.3 7.8l-0.9-0.5c0.2-0.3 4.5-7.9 10.1-8.3 2.5-0.2 4.9 1.1 6.9 3.8 8 10.3 6.5 38.2 6.4 39.4z"/>
	<path id="Layer" class="s4" d="m65.8 431.6c-0.2-2.7-5-67.5 3.4-79l0.9 0.7c-8.2 11.1-3.3 77.6-3.3 78.2z"/>
	<path id="Layer" class="s5" d="m86.8 390c0 0-5.1 1.9-3.6 6.3 1.5 4.4 17.5 11.6 17.5 11.6 0 0 6.7-6.1 0.6-16.1-6.2-10-14.4-5-14.5-1.8z"/>
	<path id="Layer" class="s5" d="m64.7 381.6c0 0 5.4-0.3 5.7 4.4 0.3 4.6-11.6 17.5-11.6 17.5 0 0-8.6-3.1-6.8-14.7 1.8-11.6 11.4-10.1 12.7-7.2z"/>
	<path id="Layer" class="s5" d="m60.2 359.3c0 0 3.6-0.4 3.3-2.6-0.3-2.1-14-7.8-22 1.3 0 0 5.2 8.9 12.6 9 7.5 0.2 6.1-7.7 6.1-7.7z"/>
	<path id="Layer" class="s5" d="m66.9 354c0 0-3.3 1.6-4.2-0.4-0.9-2 7.7-14 19.4-10.6 0 0 0.3 10.3-6 14.3-6.3 4.1-9.2-3.3-9.2-3.3z"/>
	<path id="Layer" class="s5" d="m49.8 388.2c0 0 2.5-2-0.2-3-2.6-1-15.8-0.7-16 12.3 0 0 15.3 2.5 17.2-2.4 2-5-1-6.9-1-6.9z"/>
	<path id="Layer" class="s5" d="m81.1 359c0 0-2.5-2 0.2-3 2.6-1 15.8-0.7 15.9 12.3 0 0-15.3 2.6-17.2-2.4-1.9-5 1.1-6.9 1.1-6.9z"/>
	<path id="Layer" class="s5" d="m73 369.5c0 0-0.2-2.5 1.8-1.5 1.9 0.9 8.8 8.3 1.7 15.4 0 0-9.6-7.1-7.9-10.8 1.8-3.7 4.4-3.1 4.4-3.1z"/>
	<path id="Layer" class="s5" d="m47.6 373c0 0 1.5-1.9-0.7-2.2-2.1-0.2-11.9 2.3-9.6 12 0 0 11.9-0.9 12.4-4.9 0.5-4-2.1-4.9-2.1-4.9z"/>
	<path id="Layer" class="s6" d="m78.1 446.5h-23.9l-6.4-29.3h36l-5.7 29.3z"/>
	<path id="Layer" class="s7" d="m45.6 416.8h40.3v8.4h-40.3z"/>
	<path id="Layer" fill-rule="evenodd" class="s5" d="m399.4 82.3v17.2l-8.9 0.8q-0.4 2.2-1.1 4.2-0.6 2.1-1.4 4.1-0.9 2-1.9 3.9-1 1.9-2.2 3.7l5.7 6.9-12.1 12.2-6.9-5.7q-1.8 1.2-3.7 2.2-1.9 1-3.9 1.8-2 0.9-4.1 1.5-2.1 0.6-4.2 1.1l-0.8 8.8h-17.2l-0.9-8.8q-2.1-0.5-4.1-1.1-2.1-0.6-4.1-1.5-2-0.8-3.9-1.8-1.9-1-3.7-2.2l-6.9 5.7-12.2-12.2 5.7-6.9q-1.2-1.8-2.2-3.7-1-1.9-1.8-3.9-0.9-2-1.5-4.1-0.7-2-1.1-4.2l-8.9-0.8v-17.2l8.9-0.8q0.4-2.1 1.1-4.2 0.6-2.1 1.4-4.1 0.9-2 1.9-3.9 1-1.9 2.2-3.7l-5.7-6.9 12.2-12.2 6.8 5.7q1.8-1.2 3.7-2.2 2-1 4-1.8 2-0.8 4-1.5 2.1-0.6 4.2-1.1l0.8-8.8h17.2l0.9 8.8q2.1 0.5 4.2 1.1 2 0.7 4 1.5 2 0.8 3.9 1.8 2 1 3.8 2.2l6.8-5.7 12.2 12.2-5.7 6.9q1.2 1.8 2.2 3.7 1 1.9 1.9 3.9 0.8 2 1.4 4.1 0.7 2 1.1 4.2zm-32.6-0.3c-1.2-2.9-2.9-5.4-5-7.6-2.2-2.2-4.8-3.9-7.6-5-2.8-1.2-5.9-1.8-8.9-1.8-9.4 0-17.9 5.6-21.5 14.4-3.7 8.7-1.7 18.7 5 25.3 6.7 6.7 16.7 8.7 25.4 5.1 8.7-3.6 14.4-12.1 14.4-21.5 0-3.1-0.6-6.1-1.8-8.9z"/>
	<path id="Layer" fill-rule="evenodd" class="s5" d="m151.9 202.8v14.8l-7.6 0.7q-0.4 1.8-1 3.6-0.5 1.8-1.3 3.5-0.7 1.7-1.5 3.4-0.9 1.6-1.9 3.2l4.9 6-10.5 10.5-6-4.9q-1.5 1-3.2 1.9-1.6 0.9-3.4 1.6-1.7 0.7-3.5 1.2-1.8 0.6-3.6 1l-0.7 7.6h-14.8l-0.8-7.6q-1.8-0.4-3.6-1-1.8-0.5-3.5-1.2-1.7-0.7-3.4-1.6-1.6-0.9-3.2-1.9l-5.9 4.9-10.5-10.5 4.9-6q-1-1.6-1.9-3.2-0.9-1.6-1.6-3.4-0.7-1.7-1.2-3.5-0.6-1.8-1-3.6l-7.6-0.7v-14.9l7.6-0.7q0.4-1.8 1-3.6 0.5-1.8 1.2-3.5 0.7-1.7 1.6-3.4 0.9-1.6 1.9-3.2l-4.9-5.9 10.5-10.5 5.9 4.9q1.6-1 3.2-1.9 1.7-0.9 3.4-1.6 1.7-0.7 3.5-1.3 1.8-0.5 3.6-0.9l0.8-7.6h14.8l0.8 7.6q1.8 0.4 3.6 0.9 1.8 0.6 3.5 1.3 1.7 0.7 3.4 1.6 1.6 0.9 3.2 1.9l5.9-4.9 10.5 10.5-4.9 5.9q1 1.6 1.9 3.2 0.8 1.7 1.5 3.4 0.8 1.7 1.3 3.5 0.6 1.8 0.9 3.6zm-26.6 7.4c0-2.6-0.5-5.2-1.5-7.7-1-2.4-2.5-4.7-4.3-6.5-1.9-1.9-4.1-3.4-6.6-4.4-2.4-1-5-1.5-7.7-1.5-8.1 0-15.5 4.9-18.6 12.4-3.1 7.5-1.3 16.2 4.4 21.9 5.8 5.8 14.4 7.5 21.9 4.4 7.5-3.2 12.4-10.5 12.4-18.6z"/>
	<path id="Layer" fill-rule="evenodd" class="s5" d="m477.5 242.1v13.3l-6.9 0.7q-0.3 1.6-0.8 3.2-0.5 1.6-1.2 3.2-0.6 1.5-1.4 3-0.8 1.5-1.7 2.9l4.4 5.3-9.4 9.4-5.4-4.4q-1.4 1-2.9 1.7-1.4 0.8-3 1.5-1.5 0.6-3.1 1.1-1.6 0.5-3.3 0.9l-0.6 6.8h-13.3l-0.7-6.8q-1.6-0.4-3.2-0.9-1.6-0.5-3.2-1.1-1.5-0.7-3-1.5-1.5-0.7-2.9-1.7l-5.3 4.4-9.5-9.4 4.4-5.3q-0.9-1.4-1.7-2.9-0.8-1.5-1.4-3-0.6-1.6-1.1-3.2-0.5-1.6-0.9-3.2l-6.8-0.7v-13.3l6.8-0.6q0.4-1.7 0.9-3.3 0.5-1.6 1.1-3.1 0.6-1.6 1.4-3.1 0.8-1.4 1.7-2.9l-4.4-5.3 9.5-9.4 5.3 4.4q1.4-0.9 2.9-1.7 1.5-0.8 3-1.4 1.6-0.7 3.2-1.2 1.6-0.5 3.2-0.8l0.7-6.9h13.3l0.6 6.9q1.7 0.3 3.3 0.8 1.6 0.5 3.1 1.2 1.6 0.6 3 1.4 1.5 0.8 2.9 1.7l5.4-4.4 9.4 9.4-4.4 5.3q0.9 1.5 1.7 2.9 0.8 1.5 1.4 3.1 0.7 1.5 1.2 3.1 0.5 1.6 0.8 3.3zm-23.9 6.6c0-2.3-0.5-4.7-1.4-6.9-0.9-2.2-2.2-4.1-3.9-5.8-1.6-1.7-3.6-3-5.8-3.9-2.2-0.9-4.5-1.4-6.9-1.4-7.3 0-13.8 4.4-16.6 11.2-2.8 6.7-1.2 14.4 3.9 19.6 5.2 5.1 12.9 6.6 19.6 3.8 6.8-2.7 11.1-9.3 11.1-16.6z"/>
	<path id="Layer" fill-rule="evenodd" class="s6" d="m258.3 234.9v13.1l-6.8 0.7q-0.3 1.6-0.8 3.2-0.5 1.6-1.1 3.1-0.6 1.5-1.4 3-0.8 1.4-1.7 2.8l4.4 5.3-9.3 9.3-5.3-4.4q-1.3 0.9-2.8 1.7-1.5 0.8-3 1.4-1.5 0.7-3.1 1.2-1.6 0.5-3.2 0.8l-0.6 6.8h-13.2l-0.6-6.8q-1.6-0.3-3.2-0.8-1.6-0.5-3.1-1.1-1.5-0.7-3-1.5-1.5-0.7-2.8-1.6l-5.3 4.3-9.3-9.3 4.4-5.2q-0.9-1.4-1.7-2.9-0.8-1.4-1.4-3-0.6-1.5-1.1-3.1-0.5-1.5-0.8-3.2l-6.8-0.6v-13.1l6.8-0.7q0.3-1.6 0.8-3.2 0.5-1.5 1.1-3.1 0.6-1.5 1.4-3 0.8-1.4 1.7-2.8l-4.4-5.3 9.3-9.3 5.3 4.4q1.4-0.9 2.8-1.7 1.5-0.7 3-1.4 1.5-0.6 3.1-1.1 1.6-0.5 3.2-0.8l0.6-6.8h13.2l0.6 6.8q1.6 0.3 3.2 0.8 1.6 0.5 3.1 1.1 1.5 0.7 3 1.4 1.5 0.8 2.8 1.7l5.3-4.4 9.3 9.3-4.3 5.3q0.9 1.3 1.7 2.8 0.7 1.5 1.4 3 0.6 1.5 1.1 3.1 0.4 1.6 0.8 3.2zm-24.9-0.2c-0.9-2.2-2.2-4.2-3.9-5.8-1.6-1.7-3.6-3-5.7-3.9-2.2-0.9-4.5-1.3-6.8-1.3-7.2 0-13.7 4.3-16.5 11-2.7 6.6-1.2 14.3 3.9 19.4 5.1 5 12.7 6.6 19.4 3.8 6.6-2.8 11-9.2 11-16.4 0-2.4-0.5-4.7-1.4-6.8z"/>
	<path id="Layer" fill-rule="evenodd" class="s6" d="m237.6 165.9v6.2l-3.2 0.3q-0.2 0.8-0.4 1.5-0.2 0.7-0.5 1.5-0.3 0.7-0.7 1.4-0.4 0.7-0.8 1.3l2 2.5-4.4 4.3-2.4-2q-0.7 0.5-1.4 0.8-0.6 0.4-1.4 0.7-0.7 0.3-1.4 0.5-0.8 0.2-1.5 0.4l-0.3 3.2h-6.2l-0.3-3.2q-0.8-0.2-1.5-0.4-0.7-0.2-1.5-0.5-0.7-0.3-1.4-0.7-0.7-0.3-1.3-0.8l-2.5 2-4.3-4.3 2-2.5q-0.5-0.6-0.8-1.3-0.4-0.7-0.7-1.4-0.3-0.8-0.5-1.5-0.2-0.7-0.4-1.5l-3.2-0.3v-6.2l3.2-0.3q0.2-0.7 0.4-1.5 0.2-0.7 0.5-1.4 0.3-0.7 0.7-1.4 0.3-0.7 0.8-1.4l-2-2.4 4.3-4.4 2.5 2q0.6-0.4 1.3-0.8 0.7-0.4 1.4-0.7 0.8-0.3 1.5-0.5 0.7-0.2 1.5-0.4l0.3-3.2h6.1l0.3 3.2q0.8 0.2 1.5 0.4 0.7 0.2 1.5 0.5 0.7 0.3 1.4 0.7 0.7 0.4 1.3 0.8l2.5-2 4.3 4.4-2 2.4q0.5 0.7 0.8 1.4 0.4 0.7 0.7 1.4 0.3 0.7 0.5 1.4 0.2 0.8 0.4 1.5zm-11.8-0.1c-0.4-1-1-1.9-1.8-2.7-0.8-0.8-1.7-1.4-2.7-1.8-1-0.4-2.1-0.7-3.2-0.7-3.4 0-6.4 2.1-7.7 5.2-1.3 3.1-0.6 6.7 1.8 9.1 2.4 2.4 6 3.1 9.1 1.8 3.1-1.3 5.2-4.3 5.2-7.7 0-1.1-0.3-2.2-0.7-3.2z"/>
	<path id="Layer" fill-rule="evenodd" class="s6" d="m307 19.1v7l-3.6 0.3q-0.1 0.9-0.4 1.8-0.3 0.8-0.6 1.6-0.3 0.8-0.8 1.6-0.4 0.8-0.9 1.5l2.4 2.8-5 4.9-2.8-2.3q-0.7 0.5-1.5 0.9-0.8 0.4-1.6 0.8-0.8 0.3-1.6 0.6-0.9 0.2-1.7 0.4l-0.4 3.6h-7l-0.3-3.6q-0.9-0.2-1.7-0.4-0.8-0.3-1.6-0.7-0.8-0.3-1.6-0.7-0.8-0.4-1.5-0.9l-2.8 2.3-5-4.9 2.3-2.8q-0.5-0.8-0.9-1.5-0.4-0.8-0.7-1.6-0.4-0.8-0.6-1.7-0.3-0.8-0.5-1.7l-3.6-0.3v-7l3.6-0.4q0.2-0.8 0.5-1.7 0.2-0.8 0.6-1.6 0.3-0.8 0.7-1.6 0.4-0.8 0.9-1.5l-2.3-2.8 5-4.9 2.7 2.3q0.8-0.5 1.5-0.9 0.8-0.4 1.6-0.8 0.8-0.3 1.7-0.6 0.8-0.2 1.7-0.4l0.3-3.6h7l0.4 3.6q0.8 0.2 1.7 0.4 0.8 0.3 1.6 0.6 0.8 0.4 1.6 0.8 0.8 0.4 1.5 0.9l2.8-2.3 5 4.9-2.4 2.8q0.5 0.7 0.9 1.5 0.4 0.8 0.8 1.6 0.3 0.8 0.6 1.6 0.2 0.9 0.4 1.7zm-13.2-0.1c-0.5-1.2-1.2-2.2-2.1-3.1-0.9-0.9-1.9-1.6-3.1-2-1.1-0.5-2.4-0.8-3.6-0.7-3.8 0-7.3 2.3-8.7 5.8-1.5 3.5-0.7 7.6 2 10.3 2.7 2.7 6.8 3.5 10.3 2 3.6-1.4 5.9-4.9 5.9-8.7 0-1.2-0.3-2.5-0.7-3.6z"/>
	<path id="Layer" fill-rule="evenodd" class="s6" d="m445.5 68.4v5.3l-2.7 0.3q-0.2 0.6-0.4 1.3-0.1 0.6-0.4 1.2-0.3 0.6-0.6 1.2-0.3 0.6-0.6 1.2l1.7 2.1-3.7 3.8-2.2-1.8q-0.5 0.4-1.1 0.7-0.6 0.3-1.2 0.5-0.6 0.3-1.3 0.5-0.6 0.2-1.3 0.3l-0.2 2.7h-5.3l-0.3-2.7q-0.6-0.1-1.3-0.3-0.6-0.2-1.2-0.5-0.7-0.2-1.2-0.5-0.6-0.3-1.2-0.7l-2.1 1.8-3.7-3.8 1.8-2.1q-0.4-0.6-0.7-1.2-0.3-0.5-0.6-1.2-0.2-0.6-0.4-1.2-0.2-0.7-0.3-1.3l-2.8-0.3v-5.3l2.8-0.2q0.1-0.7 0.3-1.3 0.2-0.7 0.4-1.3 0.3-0.6 0.6-1.2 0.3-0.6 0.7-1.1l-1.8-2.2 3.8-3.7 2.1 1.7q0.5-0.3 1.1-0.6 0.6-0.3 1.2-0.6 0.7-0.3 1.3-0.4 0.6-0.2 1.3-0.4l0.3-2.7h5.3l0.2 2.7q0.7 0.2 1.3 0.4 0.6 0.1 1.3 0.4 0.6 0.3 1.2 0.6 0.6 0.3 1.1 0.6l2.2-1.7 3.7 3.7-1.7 2.2q0.3 0.5 0.6 1.1 0.3 0.6 0.6 1.2 0.2 0.6 0.4 1.3 0.2 0.6 0.4 1.3zm-10-0.1q-0.6-1.3-1.6-2.3-1-1.1-2.3-1.6-1.4-0.5-2.8-0.6c-2.9 0.1-5.5 1.8-6.6 4.5-1.2 2.7-0.5 5.8 1.5 7.8 2.1 2.1 5.2 2.7 7.9 1.6 2.7-1.1 4.4-3.7 4.4-6.7q0-1.4-0.5-2.7z"/>
	<path id="Layer" class="s8" d="m440.1 116.1h-36.2q-1.3 0-2.6 0.5-1.2 0.5-2.2 1.5-0.9 0.9-1.4 2.1-0.5 1.3-0.5 2.6v26.3q0 1.3 0.5 2.6 0.5 1.2 1.4 2.1 1 1 2.2 1.5 1.3 0.5 2.6 0.5h4.5v8.2l6.7-8.2h25q1.4 0 2.6-0.5 1.3-0.5 2.2-1.4 0.9-1 1.5-2.2 0.5-1.3 0.5-2.6v-26.3q0-1.3-0.5-2.6-0.6-1.2-1.5-2.1-0.9-1-2.2-1.5-1.2-0.5-2.6-0.5z"/>
	<path id="Layer" fill-rule="evenodd" class="s1" d="m413 132.2c1.3-0.2 2.6 0.4 3.2 1.6 0.7 1.2 0.4 2.7-0.5 3.6-1 1-2.4 1.2-3.6 0.6-1.2-0.6-1.9-1.9-1.7-3.3q0.1-0.4 0.3-0.9 0.2-0.4 0.6-0.8 0.3-0.3 0.8-0.5 0.4-0.3 0.9-0.3zm6.9 2.5q0.1-0.4 0.3-0.9 0.2-0.4 0.6-0.8 0.3-0.3 0.7-0.5 0.5-0.2 0.9-0.3c1.4-0.2 2.7 0.4 3.3 1.6 0.6 1.2 0.4 2.7-0.6 3.6-0.9 1-2.4 1.2-3.6 0.6-1.2-0.6-1.9-1.9-1.6-3.3zm9.4 0q0.1-0.4 0.3-0.9 0.2-0.4 0.6-0.8 0.3-0.3 0.7-0.5 0.5-0.2 1-0.3c1.3-0.2 2.6 0.4 3.2 1.6 0.6 1.2 0.4 2.7-0.6 3.6-0.9 1-2.4 1.2-3.6 0.6-1.2-0.6-1.8-1.9-1.6-3.3z"/>
	<path id="Layer" class="s8" d="m404.4 114.6h23.7q0.1 0 0.2-0.1 0.1-0.1 0.1-0.2 0-0.2-0.1-0.3-0.1-0.1-0.2-0.1h-23.7q-0.1 0-0.2 0.1-0.1 0.1-0.1 0.3 0 0.1 0.1 0.2 0.1 0.1 0.2 0.1z"/>
	<path id="Layer" class="s9" d="m327.5 244.4c0.1 0 8 4 8 4l3.8-9.2h-6.3c0 0-5.9 5.1-5.7 5.2"/>
	<path id="Layer" class="s9" d="m333.3 239.3q-0.1-0.6-0.2-1.2-0.1-0.7-0.4-1.2-0.2-0.6-0.6-1.2-0.3-0.5-0.8-1c-1.8-1.6-2.8-3.4-4.2-4.5-1.4-1.1-1 1.3-0.5 2.5 0.6 1.2 1.1 2.6 0.1 2.9-1 0.2-9.3-2.2-10.6-1.8-1.4 0.5-0.1 1.3-0.1 1.3 0 0-1.9-0.5-2.5 0.2-0.6 0.8 0.5 1.5 0.5 1.5 0 0-1.3-0.3-1.4 0.6-0.1 0.9 6.3 4 6.5 4.2 0 0-3.3-2.4-4.2-1.6-0.9 0.8 1.4 2.2 3.1 3.3q0.7 0.5 1.5 0.8 0.7 0.3 1.5 0.5 0.8 0.2 1.6 0.3 0.8 0.1 1.6 0c2.1-0.2 5.9 0.5 7.2-1.7q0.3-0.4 0.5-0.9 0.3-0.5 0.5-1 0.3-0.5 0.5-1 0.2-0.5 0.4-1z"/>
	<g id="Layer" style="opacity: .2">
		<path id="Layer" class="s10" d="m314.2 237q3.2 0.9 6.3 2.1 0 0.2-0.1 0.4-0.1 0.2-0.1 0.4-0.1 0.2-0.1 0.5-0.1 0.2-0.1 0.4c0 0.3 0.4 0.2 0.4 0q0.2-0.7 0.4-1.3 0.2-0.7 0.4-1.3 0.3-0.6 0.6-1.2 0.4-0.6 0.7-1.1c0.2-0.3-0.1-0.5-0.3-0.2q-0.1 0.1-0.2 0.3-0.1 0.1-0.2 0.2-0.1 0.2-0.2 0.3-0.1 0.2-0.2 0.3c0 0.1 0 0 0 0q-0.6-0.3-1.2-0.6-0.7-0.2-1.3-0.4-0.6-0.2-1.2-0.4-0.7-0.1-1.3-0.2c-0.3 0-0.5 0.3-0.2 0.4q0.7 0.1 1.3 0.3 0.6 0.1 1.2 0.3 0.6 0.2 1.2 0.4 0.6 0.3 1.2 0.5c0.1 0-0.2 0.7-0.2 0.7q0 0.1-0.1 0.2 0 0.1-0.1 0.2 0 0.1-0.1 0.3 0 0.1 0 0.2-3.1-1.1-6.4-2.1c-0.2 0-0.4 0.4-0.1 0.4z"/>
	</g>
	<g id="Layer" style="opacity: .2">
		<path id="Layer" class="s10" d="m323.1 238.6q0.9-0.3 1.8-0.2 0.9 0 1.7 0.3 0.8 0.3 1.5 0.9 0.7 0.6 1.1 1.4c0.1 0.2 0.5 0 0.4-0.3q-0.5-0.8-1.2-1.4-0.7-0.6-1.6-1-0.9-0.3-1.9-0.4-0.9 0-1.8 0.2-0.1 0.1-0.2 0.1 0 0.1 0 0.2 0 0.1 0.1 0.1 0.1 0.1 0.1 0.1z"/>
	</g>
	<path id="Layer" class="s8" d="m369.5 212.4q-0.2 0-0.4 0.1-0.1 0-0.3 0-0.2 0.1-0.3 0.1-0.2 0.1-0.3 0.2c-3.8 2-5.5 5.4-6.7 9.6-2.6 8.8-5.1 19.7-5.1 19.7 0 0-17.7-4.1-21.8-4.7l-3.3 9.4c0 0 23.3 10.9 25.6 11.5 6.7 1.8 10.2-9.8 10.2-9.8l2.4-36z"/>
	<path id="Layer" class="s11" d="m361.7 257.3l-2.1-19.2v20.4q0.2-0.1 0.5-0.3 0.3-0.1 0.6-0.3 0.2-0.1 0.5-0.3 0.3-0.2 0.5-0.3z"/>
	<path id="Layer" class="s12" d="m405.4 204.7c0.9-7.8-4.8-5.8-4-15.8 0.8-10.9-9.6-13.6-9.6-13.6 0 0-3.6-4.8-8.6-6.2-6.4-1.7-22.7 2.5-18.9 16.3 2.2 8.3 0.8 7.9-0.4 11.4-1.7 4.8 2.5 11.5-2.2 14.5 0 0 17.9-0.4 36.9 0.7 0 0 6.4-2.5 6.9-7.3z"/>
	<path id="Layer" class="s9" d="m391.2 211.6q-1 0.6-1.9 1.1-0.9 0.6-1.8 1.2-0.9 0.7-1.7 1.3-0.9 0.7-1.7 1.4-0.3 0.3-0.6 0.6-0.4 0.2-0.7 0.4-0.3 0.3-0.7 0.5-0.3 0.2-0.7 0.4c-2.5 1.3-4.9 2.1-5.5 0.9q-0.1-0.1-0.1-0.2-0.1-0.1-0.1-0.3-0.1-0.1-0.1-0.2 0-0.1-0.1-0.2c-0.5-2.1-0.3-5 1.4-6.3 1.9-1.5 2.8-2.8 2.5-4.9q-0.1-0.4-0.2-0.9-0.1-0.4-0.3-0.8-0.1-0.5-0.3-0.9-0.1-0.4-0.3-0.9l2.2-1.3 7.7-7.8c-0.8 4.7-1.1 14.1 3 16.9z"/>
	<path id="Layer" class="s13" d="m379.4 207.7c2.2-1.2 4.5-3.4 4.2-6q0-0.3-0.1-0.7 0-0.3-0.1-0.7-0.1-0.3-0.2-0.6-0.1-0.4-0.2-0.7l-4.3 5.8q0.1 0.3 0.2 0.7 0.1 0.4 0.2 0.7 0.1 0.4 0.2 0.8 0.1 0.4 0.1 0.7z"/>
	<path id="Layer" class="s9" d="m389.8 185.8c-0.8 8-0.9 11.3-5 15.5-6.3 6.3-15.8 4.2-17.4-3.7-1.5-7.1 0-19 7.8-22.4 1.6-0.8 3.5-1.1 5.3-0.9 1.8 0.2 3.6 0.8 5.1 1.9 1.5 1.1 2.6 2.5 3.4 4.2 0.7 1.7 1 3.5 0.8 5.4z"/>
	<path id="Layer" class="s12" d="m381.1 185.4q-0.1 0-0.1 0 0 0-0.1 0 0 0 0 0-0.1-0.1-0.1-0.1-0.3-0.2-0.6-0.4-0.3-0.2-0.6-0.3-0.4-0.1-0.7-0.1-0.4 0-0.7 0.1-0.1 0-0.2 0-0.1 0-0.1 0-0.1-0.1-0.1-0.1-0.1-0.1-0.1-0.2 0-0.1 0-0.1 0-0.1 0-0.2 0.1 0 0.1-0.1 0.1 0 0.2-0.1 0.4-0.1 0.9-0.1 0.4 0 0.9 0.1 0.4 0.2 0.8 0.4 0.4 0.2 0.7 0.5 0.1 0.1 0.1 0.1 0 0.1 0 0.2 0 0.1 0 0.2 0 0-0.1 0.1 0 0 0 0-0.1 0.1-0.1 0.1 0 0-0.1 0 0 0 0 0z"/>
	<path id="Layer" class="s12" d="m368.9 184.3q-0.1 0-0.1 0 0 0-0.1 0 0-0.1 0-0.1 0 0 0 0 0-0.1 0-0.2 0-0.1 0-0.1 0-0.1 0.1-0.2 0 0 0.1-0.1 0.3-0.2 0.7-0.3 0.4-0.2 0.9-0.2 0.4 0 0.8 0.1 0.4 0 0.8 0.2 0.1 0.1 0.1 0.1 0.1 0.1 0.1 0.2 0 0 0 0.1-0.1 0.1-0.1 0.1 0 0.1-0.1 0.1 0 0.1-0.1 0.1-0.1 0-0.2 0 0 0-0.1 0-0.3-0.2-0.6-0.2-0.4-0.1-0.7 0-0.3 0-0.7 0.1-0.3 0.1-0.6 0.3 0 0 0 0-0.1 0-0.1 0 0 0-0.1 0 0 0 0 0z"/>
	<path id="Layer" class="s14" d="m373.7 188q-0.3 0.6-0.6 1.3-0.3 0.6-0.6 1.2-0.4 0.6-0.7 1.2-0.4 0.6-0.8 1.2-0.1 0.1-0.1 0.2 0 0.2 0 0.3 0.1 0.1 0.2 0.2 0.1 0.2 0.2 0.2 0.3 0.1 0.5 0.1 0.3 0 0.6 0 0.2 0 0.5 0 0.3 0 0.5-0.1z"/>
	<path id="Layer" class="s12" d="m378.1 188.6c0 0.8-0.5 1.5-1 1.6-0.5 0-0.9-0.7-0.9-1.6 0.1-0.8 0.5-1.5 1-1.5 0.5 0 1 0.7 0.9 1.5z"/>
	<path id="Layer" class="s12" d="m377.5 187.1l-1.8-0.4c0 0 0.9 1.4 1.8 0.4z"/>
	<path id="Layer" class="s12" d="m370.7 188.6c0 0.8-0.5 1.5-1 1.5-0.5 0-0.9-0.7-0.9-1.5 0.1-0.8 0.5-1.5 1-1.5 0.5 0 0.9 0.7 0.9 1.5z"/>
	<path id="Layer" class="s12" d="m370 187.1l-1.8-0.4c0 0 1 1.4 1.8 0.4z"/>
	<path id="Layer" class="s12" d="m387 188.5c0 0-4.1-6.2-3.9-11.2 0 0-7.9-2.1-14.2 6.3-1 1.4-1.6 3.6-2.5 5.5 0 0-1.5-15.2 12-16.4 13.5-1.3 16.1 17.7 9.5 24.1q0.4-1.1 0.5-2.1 0.1-1.1 0-2.2-0.1-1-0.5-2-0.3-1.1-0.9-2z"/>
	<path id="Layer" class="s9" d="m392.2 192.3q-0.3 0.5-0.8 1-0.4 0.5-0.9 0.9-0.5 0.4-1 0.6-0.6 0.3-1.2 0.5c-2.1 0.5-3.2-2.9-2.5-5q0.3-0.7 0.8-1.3 0.4-0.6 1.1-1 0.7-0.4 1.4-0.5 0.8-0.1 1.5 0c2 0.5 2.7 2.9 1.6 4.8z"/>
	<path id="Layer" fill-rule="evenodd" class="s15" d="m387.7 191.8q0-0.5 0.3-1 0.3-0.6 0.7-0.9 0.4-0.4 1-0.6 0.5-0.2 1.1-0.2"/>
	<path id="Layer" class="s12" d="m374.8 195.5q0.4-0.2 0.8-0.4 0.4-0.2 0.8-0.4 0.4-0.2 0.8-0.4 0.4-0.1 0.8-0.3 0.2 0 0.4 0 0.3 0.1 0.4 0.2 0.2 0.2 0.3 0.4 0.1 0.2 0.1 0.4 0 0 0 0.1 0 0 0 0 0 0 0 0.1 0 0 0 0c-0.2 1-0.9 2-3 2.9l-0.5 0.1q-0.2-0.3-0.4-0.6-0.2-0.3-0.4-0.6-0.2-0.3-0.4-0.6-0.2-0.3-0.4-0.6z"/>
	<path id="Layer" class="s1" d="m374.1 195.8l0.5 0.7c2-0.8 3.3-1.7 3.7-2.5-0.2-0.3-2.6 1.1-2.6 1.1q-0.2 0.1-0.4 0.2-0.2 0.1-0.4 0.2-0.2 0.1-0.4 0.1-0.2 0.1-0.4 0.2z"/>
	<path id="Layer" class="s16" d="m376.2 198c2.2-0.9 2.9-2 3-3q-0.3 0.1-0.6 0.3-0.3 0.1-0.5 0.3-0.3 0.2-0.6 0.4-0.2 0.2-0.5 0.4-0.1 0.2-0.3 0.4-0.1 0.2-0.2 0.4-0.1 0.2-0.2 0.4 0 0.2-0.1 0.4z"/>
	<path id="Layer" class="s1" d="m396.6 264.5c0.7-8.2 3.6-23.3 8.6-39.1 1.7-5.1-3.8-11.4-3.8-11.4 0 0-4.2 0.3-4.8 0.2-0.7-0.1-1.6-0.2-2.4-0.2q-1.9-0.2-3.9-0.4-2-0.1-4-0.2-2 0-4 0-2 0-4 0-2 0.2-4 0.4c-0.4 0-3.2 0-3.6 0.1 0 0-7.5 8.8-7.9 15-0.3 3.5-1.9 5-1.7 13.2 0 5.7 4.1 13.9 4.5 21.8z"/>
	<path id="Layer" class="s1" d="m375.3 214l3.9-5.3 1.9 3.1 7.2-4.8 1.4 2.1-2.7 8c0 0-6.8 2.8-7.2 2.8-0.4 0-4.5-5.9-4.5-5.9z"/>
	<path id="Layer" class="s11" d="m375.2 214.3l1.6 3.9 3.9-3.9 2.7 4.6 4-2-4.3 3.4-2.5-5-4.5 4.2-0.9-5.2z"/>
	<path id="Layer" class="s8" d="m405.1 428.1l-0.9 1.2-1.8-0.7-1 5.3-7.4 10.3c0 0-2.8 0.5-0.6-5.4q0-0.1 0.1-0.2 0-0.1 0-0.2 0.1-0.1 0.1-0.2 0-0.1 0-0.3c0.7-3.4-0.8-10.1-0.8-10.1l4-5.7q0.2 0 0.3 0 0.2 0 0.3 0 0.2 0.1 0.3 0.1 0.1 0 0.3 0c1.7 0.3 5 1.1 7.1 5.9z"/>
	<path id="Layer" class="s13" d="m405.1 428.1l-0.9 1.2-1.8-0.7-1 5.3-7.4 10.3c0 0-2.8 0.5-0.6-5.4q0-0.1 0.1-0.2 0-0.1 0-0.2 0.1-0.1 0.1-0.2 0-0.1 0-0.3c0.7-3.4-0.8-10.1-0.8-10.1l4-5.7q0.2 0 0.3 0 0.2 0 0.3 0 0.2 0.1 0.3 0.1 0.1 0 0.3 0c1.7 0.3 5 1.1 7.1 5.9z"/>
	<path id="Layer" class="s14" d="m398 422.2c-1.4 0.2-0.2 6.2-0.7 9.6-0.5 3-1.8 5.8-3.7 6.1 0.7-3.5-1.7-11.4-1.7-11.4l3.2-4.6c0 0 2.2 0.2 2.9 0.3z"/>
	<path id="Layer" class="s8" d="m395.9 443.8h-1.5l-0.4-1.9-5 2.2h-12.6c0 0-2-2 4-3.6q0.1 0 0.2-0.1 0.2 0 0.3 0 0.1-0.1 0.2-0.1 0.1-0.1 0.2-0.1c3.2-1.5 7.7-6.6 7.7-6.6h6.9q0.1 0.1 0.2 0.2 0 0.1 0.1 0.3 0.1 0.1 0.2 0.2 0 0.1 0.1 0.3c0.7 1.5 2 4.7-0.6 9.2z"/>
	<path id="Layer" class="s9" d="m396.5 434.6c-0.9-1-5.1 3.4-8.1 5-2.7 1.3-5.8 2-7.1 0.5 3.2-1.5 8.2-8.4 8.2-8.4l5.6 0.2c0 0 1 2 1.4 2.7z"/>
	<path id="Layer" class="s12" d="m382.4 373.9c-3.4-9.5-7.6-18.8-12.7-26.3 20.6-59 20-85.4 20-85.4h-24.8l-2.7 9.8c0 0-6.2 24.6-8 38.7l-5.1 31.4v0.1q-0.2 2.4 0 4.8 0.2 2.4 0.8 4.8 0.5 2.4 1.3 4.7 0.9 2.2 2 4.4c3.4 6.2 9.4 13.7 12.6 20.4 4.3 8.9 8.4 17.9 11.8 25.8 3.7 8.5 6.7 15.8 8.5 20.9 1.8 0.2 7.1-3 8.6-5.8q-1-6.2-2.3-12.3-1.3-6.1-2.8-12.2-1.6-6-3.4-12-1.8-5.9-3.8-11.8z"/>
	<path id="Layer" class="s13" d="m375.4 330.1c3.1-10 6.4-15.8 8-23.2 0-1.8-5.8-9.2-8.7-12.2 0 0-3.6 14.2 0.8 35.4z"/>
	<path id="Layer" class="s13" d="m377.6 407.2c3.7 8.4 6.7 15.7 8.5 20.9 1.8 0.2 7.1-3 8.6-5.9q-1-6.2-2.3-12.3-1.3-6.1-2.8-12.1-1.6-6.1-3.4-12.1-1.8-5.9-3.8-11.8c-1.8 9.7-3.7 22.1-4.8 33.3z"/>
	<path id="Layer" class="s12" d="m371.1 262.7c0 0 9.5 65.2 10.6 79.9 0 0 5.8 71.3 4.7 89.2l13 0.6c0 0 8.8-54 4.4-88.6-0.4-4.5 3.6-34 4.2-45.7 1.6-28.2-9.9-36-9.9-36z"/>
	<path id="Layer" class="s13" d="m387.6 263.7l2.1 32.4 18.5-2.2v-3.3l-20.6-26.9z"/>
	<path id="Layer" class="s8" d="m401.9 255.5l5.5-26.7c1.2-4.9-0.6-4-0.6-5.3 0.3-4.1-4.8-10.7-4.8-10.7l-12.7-1.6c0 0-2.5 8.8-3 25.7-0.5 16.8 4.4 56.5 4.4 56.5l23.9-2.4z"/>
	<path id="Layer" class="s8" d="m389.6 209.4c0 0-5 9.7-3.1 34.2l8.2-17.6-3-4.8 3.9-7.9c0 0-4.2-2.7-6-4.1z"/>
	<g id="Layer" style="opacity: .2">
		<path id="Layer" class="s10" d="m389.6 209.4c0 0-5 9.7-3.1 34.2l8.2-17.6-3-4.8 3.9-7.9c0 0-4.2-2.7-6-4.1z"/>
	</g>
	<path id="Layer" class="s8" d="m378.1 210.2c0 0-11 13.3-13.7 22.8-1.7 6.3 1.8 24.4 1.3 29.2-0.6 7.9-4.1 17.5-8.6 31.7l-3-0.4 8.2-31.4c0 0-3.8-23.5-2.8-29.4 1-5.9 9.8-20.3 9.8-20.3l4-0.2z"/>
	<path id="Layer" class="s8" d="m364.3 243.8q-0.4-1.3-0.7-2.6-0.3-1.3-0.5-2.6-0.2-1.3-0.2-2.6-0.1-1.3-0.1-2.6c0.4-5 0.4-8.7 0.4-8.7l5.7-4.2-0.8-5.1c0 0 2.8-1.7 5.3-3.4 1.7-1.2 5.1-3 5.6-2.8 0 0-14.5 18.3-14.5 25.7-0.1 7.2-0.2 8.8-0.2 8.8z"/>
	<path id="Layer" class="s11" d="m364.3 243.8q-0.4-1.3-0.7-2.6-0.3-1.3-0.5-2.6-0.2-1.3-0.2-2.6-0.1-1.3-0.1-2.6c0.4-5 0.4-8.7 0.4-8.7l5.7-4.2-0.8-5.1c0 0 2.8-1.7 5.3-3.4 1.7-1.2 5.1-3 5.6-2.8 0 0-14.5 18.3-14.5 25.7-0.1 7.2-0.2 8.8-0.2 8.8z"/>
	<path id="Layer" class="s11" d="m350.4 248c0 0 27.1 11.4 34.7 10.3 7.7-1.1 20.2-27.4 20.2-27.4l-24.3 22.6-31.3-5.7"/>
	<path id="Layer" class="s9" d="m345.3 236c-0.1 0-5.3-17-6.4-16.2-1.2 0.8 0 18.7 0 18.7q0.1 0.5 0.4 0.8 0.2 0.4 0.6 0.7 0.3 0.3 0.7 0.5 0.4 0.2 0.8 0.3c1.6 0.5 9.5 2.6 9.5 2.6l1.2-6.7z"/>
	<path id="Layer" class="s8" d="m402 212.8c0 0 9.7 1.5 6.2 13.6-2.1 7.2-20.4 29.9-24.9 30-4.5 0.2-38-10-38-10l2.5-11.8 29 6.4 18.5-25.1z"/>
	<path id="Layer" class="s8" d="m268.1 115.4h-2.8-18.1v82.6h18.1 2.8 79.8v-82.6h-79.8z"/>
	<path id="Layer" class="s17" d="m247.2 115.4h100.7v82.6h-100.7z"/>
	<path id="Layer" class="s11" d="m247.2 115.4h17.5v82.6h-17.5z"/>
	<path id="Layer" fill-rule="evenodd" class="s1" d="m318.8 176.1l-8.9-12.6c-0.8 0-1.7 0.1-2.6 0.1h-10.1v12.5h-5.9v-41.1h16c10.7 0 17.1 5.4 17.1 14.3 0 6.4-3.3 11-9 13l9.8 13.9zm-0.2-26.8c0-5.9-3.9-9.3-11.4-9.3h-10v18.5h10c7.5 0 11.4-3.4 11.4-9.2z"/>
	<path id="Layer" class="s11" d="m247.2 141.6c0 0 28.1 1.1 28.1 0 0-1.1-1.1-26.2 0-26.2h-28.1z"/>
	<path id="Layer" class="s12" d="m259 198h-2.8-18.1v82.6h18.1 2.8 79.8v-82.6h-79.8z"/>
	<path id="Layer" class="s17" d="m238.1 198h100.7v82.6h-100.7z"/>
	<path id="Layer" class="s11" d="m238.1 198h17.5v82.6h-17.5z"/>
	<path id="Layer" fill-rule="evenodd" class="s1" d="m308.4 248.4h-21.9l-4.5 10.3h-6l18.6-41.1h5.8l18.6 41.1h-6.2zm-2-4.7l-8.9-20.2-8.9 20.2z"/>
	<path id="Layer" class="s12" d="m260.9 279.9h-2.7-18.2v82.5h18.2 2.7 79.9v-82.5h-79.9z"/>
	<path id="Layer" class="s11" d="m240 279.9h17.5v82.5h-17.5z"/>
	<path id="Layer" class="s1" d="m319.5 299.4v41.1h-4.8l-24.7-30.7v30.7h-5.9v-41.1h4.8l24.7 30.7v-30.7z"/>
	<path id="Layer" class="s8" d="m268.6 362.4h-2.8-18.1v82.6h18.1 2.8 79.8v-82.6h-79.8z"/>
	<path id="Layer" class="s11" d="m247.7 362.4h17.5v82.6h-17.5z"/>
	<path id="Layer" fill-rule="evenodd" class="s1" d="m291.7 382h17.4c13.2 0 22.2 8.4 22.2 20.6 0 12.2-9 20.5-22.2 20.5h-17.4zm17 36c10.2 0 16.7-6.2 16.7-15.4 0-9.2-6.5-15.5-16.7-15.5h-11.1v30.9z"/>
	<path id="Layer" class="s18" d="m238.4 99c0.2-2.6-7.2-1.2-8.1-1.5 0 0 4.5-0.3 6.6-0.6 3-0.8-0.6-2-1.1-1.8 3.5-2.5-10-2-10.2-2.6-0.9-0.5 0-1.7 0.9-2.7 3.6-5.3-2.7-0.6-5 0.6q-0.4 0.2-0.8 0.5-0.4 0.2-0.7 0.6-0.4 0.3-0.6 0.7-0.3 0.4-0.5 0.8l-5.2 0.1-0.5 8.3 7.2-0.5v-0.1c2.7 1.7 7.4 1.5 11.1 1.4 8.3 0.1 2.5-2.6-0.5-1.9 0.3-0.2 7.2-0.4 7.4-1.3z"/>
	<path id="Layer" fill-rule="evenodd" class="s19" d="m235.5 95.1q-2.4 0-5 0.1"/>
	<path id="Layer" fill-rule="evenodd" class="s19" d="m229.5 100.5q0.2-0.8 0.3-1.6 0.1-0.8 0.1-1.6 0-0.8-0.1-1.6-0.2-0.8-0.4-1.6"/>
	<path id="Layer" fill-rule="evenodd" class="s19" d="m225 93.3q-0.1 0.7-0.4 1.3-0.4 0.5-0.8 1-0.5 0.4-1.2 0.7-0.6 0.2-1.2 0.2"/>
	<path id="Layer" class="s8" d="m152.6 62.1c10.2 2.9 34.5 28 34.5 28l29.8 2.1 1.2 9.8c0 0-30.6 1.8-35.4 1-4.9-0.8-27-20.1-27-20.1z"/>
	<path id="Layer" class="s20" d="m152.6 62.1c10.2 2.9 34.5 28 34.5 28l29.8 2.1 1.2 9.8c0 0-30.6 1.8-35.4 1-4.9-0.8-27-20.1-27-20.1z"/>
	<path id="Layer" class="s21" d="m167.3 92.7c-3.1-2.5-6.1-5-8.3-6.8-0.7-2.7-0.7-5.2-1.1-8.3 0 0 8.3 6.7 9.4 15.1z"/>
	<path id="Layer" class="s8" d="m152.6 62.1c0 0 11.1 24.8 14.7 69.2l-47.2 3.4c-0.9-6.5 0.7-39-8.1-69.5q1.7-0.5 3.5-0.9 1.8-0.4 3.5-0.8 1.8-0.4 3.6-0.7 1.8-0.3 3.6-0.6 2.3-0.3 4.5-0.5 2.3-0.3 4.6-0.4 2.3-0.2 4.6-0.3 2.2-0.1 4.5-0.2c4.2 0.1 4 0.5 8.2 1.3z"/>
	<path id="Layer" class="s20" d="m152.6 62.1c0 0 11.1 24.8 14.7 69.2l-47.2 3.4c-0.9-6.5 0.7-39-8.1-69.5q1.7-0.5 3.5-0.9 1.8-0.4 3.5-0.8 1.8-0.4 3.6-0.7 1.8-0.3 3.6-0.6 2.3-0.3 4.5-0.5 2.3-0.3 4.6-0.4 2.3-0.2 4.6-0.3 2.2-0.1 4.5-0.2c4.2 0.1 4 0.5 8.2 1.3z"/>
	<path id="Layer" class="s12" d="m90.5 448.1h-10.5l30.6-131.2 9.9 2.3-30 128.9z"/>
	<path id="Layer" class="s17" d="m90.5 448.1h-10.5l30.6-131.2 9.9 2.3-30 128.9z"/>
	<path id="Layer" class="s12" d="m204.1 317h10.3v131.1h-10.3z"/>
	<path id="Layer" class="s17" d="m204.1 317h10.3v131.1h-10.3z"/>
	<path id="Layer" class="s12" d="m160.6 317h10.2v131.1h-10.2z"/>
	<path id="Layer" class="s22" d="m160.6 317h10.2v131.1h-10.2z"/>
	<path id="Layer" class="s12" d="m105.6 317h111.4v8.9h-111.4z"/>
	<path id="Layer" class="s20" d="m105.6 317h111.4v8.9h-111.4z"/>
	<path id="Layer" class="s17" d="m106.1 317h60.6v8.9h-60.6z"/>
	<path id="Layer" class="s12" d="m92 362.2h92v8.9h-92z"/>
	<path id="Layer" class="s20" d="m92 362.2h92v8.9h-92z"/>
	<path id="Layer" class="s17" d="m92 371.1v-8.9h52.1v8.9"/>
	<path id="Layer" class="s12" d="m80 409.4l95.3 0.1v8.9h-95.3z"/>
	<path id="Layer" class="s20" d="m80 409.4l95.3 0.1v8.9h-95.3z"/>
	<path id="Layer" class="s17" d="m80 409.4l49.1 0.1v8.9h-49.1z"/>
	<path id="Layer" class="s12" d="m146.9 448.1h-10.5l30.5-131.2 10 2.3-30 128.9z"/>
	<path id="Layer" class="s17" d="m146.9 448.1h-10.5l30.5-131.2 10 2.3-30 128.9z"/>
	<path id="Layer" class="s8" d="m113.4 304.9l3-24.2 15.4 3.2-9.1 27.1-9.3-6.1z"/>
	<path id="Layer" class="s23" d="m113.4 304.9l3-24.2 15.4 3.2-9.1 27.1-9.3-6.1z"/>
	<path id="Layer" class="s12" d="m112 316.7l8.2 0.4q0.3-0.2 0.5-0.3 0.3-0.1 0.5-0.1 0.3-0.1 0.5-0.1 0.3-0.1 0.5-0.1c0.8 0.1 3.4 0.6 3.4 0.6l16.5 0.1q-0.1-0.3-0.1-0.5-0.1-0.2-0.1-0.4-0.1-0.3-0.2-0.5 0-0.2-0.1-0.4-0.1-0.2-0.2-0.4-0.1-0.2-0.2-0.4-0.1-0.3-0.2-0.5-0.1-0.1-0.2-0.3-0.3-0.5-0.7-1-0.4-0.4-0.9-0.7-0.4-0.3-1-0.5-0.5-0.2-1.1-0.2c-2.4-0.1-9.8-4.8-9.8-4.8 0 0-1.8-0.7-1.5-3.4 0-0.9 0.6-1.8-1-2.3-1.5-0.5-3.9 0.5-4.1 2q-0.1 0.3-0.2 0.5 0 0.3 0 0.6 0 0.3 0 0.6 0.1 0.2 0.2 0.5l-5-1c0 0-3.6-1.7-3.4 0 0.1 0.9-1.3 4.8-0.9 8.1q0.2 1.2 0.3 2.2c0.2 1.3 0.3 2.3 0.3 2.3z"/>
	<path id="Layer" class="s23" d="m142.1 317.2l-16.5-0.1c0 0-2.6-0.5-3.3-0.6q-0.3 0-0.5 0.1-0.3 0-0.6 0.1-0.2 0-0.5 0.1-0.2 0.1-0.4 0.3l-8.3-0.4c0 0-0.1-1-0.2-2.4l29.9 1.1q0 0.2 0.1 0.4 0 0.2 0.1 0.5 0.1 0.2 0.1 0.4 0.1 0.2 0.1 0.5z"/>
	<path id="Layer" class="s1" d="m131.1 308.4q-0.1-0.1-0.1-0.1 0 0-0.1 0 0 0-0.1 0 0 0 0 0.1-0.2 0-0.3 0.2-0.2 0.1-0.3 0.2-0.1 0.2-0.2 0.3-0.1 0.2-0.2 0.3c-0.1 0.3 0.2 0.5 0.4 0.3q0-0.2 0.1-0.3 0.1-0.2 0.2-0.3 0.1-0.1 0.3-0.2 0.1-0.1 0.2-0.2 0.1-0.1 0.1-0.1 0 0 0-0.1 0 0 0-0.1 0 0-0.1-0.1z"/>
	<path id="Layer" class="s1" d="m129.7 307.6q0 0 0 0-0.1 0-0.1 0-0.1 0-0.1 0 0 0-0.1 0-0.1 0.1-0.3 0.2-0.1 0.2-0.2 0.3-0.2 0.1-0.3 0.3-0.1 0.1-0.2 0.3c-0.1 0.2 0.3 0.5 0.4 0.2q0.1-0.1 0.2-0.3 0.1-0.1 0.2-0.2 0.1-0.1 0.2-0.3 0.1-0.1 0.3-0.2 0 0 0.1 0 0-0.1 0-0.1 0-0.1 0-0.1-0.1-0.1-0.1-0.1z"/>
	<path id="Layer" class="s1" d="m128.3 306.9q0 0 0 0-0.1 0-0.1 0 0 0-0.1 0 0 0 0 0-0.2 0.1-0.3 0.2-0.2 0.2-0.3 0.3-0.1 0.1-0.2 0.3-0.2 0.1-0.2 0.3c-0.2 0.3 0.2 0.5 0.3 0.2q0.1-0.1 0.2-0.3 0.1-0.1 0.2-0.2 0.1-0.1 0.3-0.3 0.1-0.1 0.2-0.2 0.1 0 0.1 0 0-0.1 0-0.1 0-0.1 0-0.1 0-0.1-0.1-0.1z"/>
	<path id="Layer" class="s8" d="m191.7 306.2l-1.8-24.4 15.7 0.2-3.7 28.4-10.2-4.2z"/>
	<path id="Layer" class="s23" d="m191.7 306.2l-1.8-24.4 15.7 0.2-3.7 28.4-10.2-4.2z"/>
	<path id="Layer" class="s12" d="m190.3 316.9l8.2 0.3q0.2-0.2 0.5-0.3 0.2-0.1 0.5-0.1 0.2-0.1 0.5-0.2 0.2 0 0.5 0c0.8 0.1 3.4 0.5 3.4 0.5l16.4-0.2q0-0.2-0.1-0.5 0-0.2-0.1-0.4 0-0.2-0.1-0.4-0.1-0.3-0.2-0.5 0-0.2-0.1-0.4-0.1-0.2-0.2-0.4-0.1-0.2-0.3-0.4-0.1-0.2-0.2-0.4-0.3-0.5-0.7-0.9-0.4-0.4-0.9-0.7-0.5-0.3-1-0.5-0.6-0.2-1.1-0.2c-2.4-0.1-9.9-4.6-9.9-4.6 0 0-1.8-0.7-1.6-3.4 0.1-0.9 0.6-1.8-1.1-2.3-1.5-0.4-3.8 0.6-4 2.1q-0.1 0.2-0.1 0.5-0.1 0.3-0.1 0.6 0 0.3 0.1 0.5 0.1 0.3 0.2 0.6l-5-1c0 0-3.6-1.6-3.4 0 0.1 1-1.2 4.8-0.7 8.2q0.1 1.1 0.3 2.1z"/>
	<path id="Layer" class="s23" d="m220.4 316.9l-16.5 0.2c0 0-2.6-0.5-3.4-0.5q-0.2 0-0.5 0-0.2 0.1-0.5 0.2-0.3 0-0.5 0.1-0.2 0.1-0.5 0.3l-8.2-0.3-0.3-2.4 29.9 0.6q0 0.2 0.1 0.5 0.1 0.2 0.2 0.4 0 0.2 0.1 0.4 0 0.3 0.1 0.5z"/>
	<path id="Layer" class="s1" d="m209.2 308.3q-0.1 0-0.1-0.1 0 0-0.1 0 0 0-0.1 0 0 0.1 0 0.1-0.2 0.1-0.3 0.2-0.2 0.1-0.3 0.3-0.1 0.1-0.2 0.3-0.1 0.1-0.2 0.3c-0.1 0.2 0.2 0.5 0.4 0.2q0-0.1 0.1-0.3 0.1-0.1 0.2-0.2 0.1-0.2 0.3-0.3 0.1-0.1 0.2-0.2 0.1 0 0.1-0.1 0 0 0-0.1 0 0 0 0 0-0.1-0.1-0.1z"/>
	<path id="Layer" class="s1" d="m207.8 307.6q0-0.1 0-0.1-0.1 0-0.1 0-0.1 0-0.1 0 0 0-0.1 0.1-0.1 0.1-0.3 0.2-0.1 0.1-0.2 0.2-0.2 0.2-0.3 0.3-0.1 0.2-0.2 0.4c-0.1 0.2 0.3 0.4 0.4 0.2q0.1-0.2 0.2-0.3 0.1-0.1 0.2-0.3 0.1-0.1 0.2-0.2 0.1-0.1 0.3-0.2 0 0 0-0.1 0.1 0 0.1-0.1 0 0-0.1-0.1 0 0 0 0z"/>
	<path id="Layer" class="s1" d="m206.4 306.9q0 0 0 0-0.1 0-0.1 0-0.1 0-0.1 0 0 0-0.1 0-0.1 0.1-0.3 0.2-0.1 0.1-0.2 0.3-0.2 0.1-0.3 0.3-0.1 0.1-0.2 0.3c-0.1 0.2 0.3 0.5 0.4 0.2q0.1-0.1 0.2-0.3 0.1-0.1 0.2-0.2 0.1-0.2 0.2-0.3 0.1-0.1 0.3-0.2 0 0 0-0.1 0.1 0 0.1 0 0-0.1-0.1-0.1 0-0.1 0-0.1z"/>
	<path id="Layer" class="s12" d="m111.7 296.8l18.1 3.9c0 0 17.9-60.5 20.3-75.6 2.5-15.1 1.3-51.7 1.3-51.7v0.1c0.5 0.8 5.4 8.7 11.1 17.8 7.4 12 16.1 26.1 17.9 29.5 5.2 10.1 8.2 79.5 8.2 79.5l20.3 0.1c0 0 1.2-60.4-4.8-82.3-6-21.8-36.5-81-36.5-81l-0.3-5.8-47.3 3.4c0 0 0.1 7.2-0.2 13.5-1.2 23.6 5.1 56.1 5.3 64.7 0.5 16.4-13.4 83.9-13.4 83.9z"/>
	<path id="Layer" class="s13" d="m151.4 173.4v0.1c0.5 0.8 5.4 8.7 11.1 17.8 1.8-9.6-2.9-23-11.1-28.4z"/>
	<path id="Layer" class="s18" d="m126.4 42.8c1.8 5.7 4.1 16.3 0.4 20.6 5.9 1.8 10.1 2.9 15.3 6.7q0.4-1.1 0.6-2.2 0.3-1.1 0.5-2.2 0.1-1.1 0.3-2.3 0.1-1.1 0.1-2.2c-5.1-0.7-5.6-5.5-5-10.1z"/>
	<path id="Layer" class="s13" d="m131.4 46.2l7.1 4.9q0 0.4-0.1 0.8 0 0.4 0 0.8-0.1 0.4-0.1 0.8 0 0.4 0 0.8c-2.5 0-6.2-2.4-6.8-5q-0.1-0.4-0.1-0.8-0.1-0.4-0.1-0.8 0-0.4 0-0.8 0-0.4 0.1-0.7z"/>
	<path id="Layer" class="s12" d="m142.4 23.9c2.1 1.7 2.5 5.9 2.9 8.4 0.4 2.4 1 5.5-2.4 2.5-3.4-3.1-7.8-16.4-0.5-10.9z"/>
	<path id="Layer" class="s13" d="m128.9 51.9c0 0 3.3 5.7 9.9 5.1q-0.2-0.8-0.3-1.6-0.1-0.8-0.1-1.6 0-0.8 0.1-1.6 0.1-0.8 0.4-1.6c-0.6-0.1 0-0.9 0-0.9z"/>
	<path id="Layer" class="s18" d="m128.9 52.3c4.3 2.8 8.9 3.2 12.6 0.9q1-0.6 1.8-1.3 0.8-0.8 1.4-1.7 0.7-0.9 1.2-1.9 0.4-1 0.7-2 0-0.2 0.1-0.3 0-0.2 0-0.3 0.1-0.2 0.1-0.3 0-0.2 0.1-0.3c1.1-7.6-1.1-19.8-9.5-22.3-1.8-0.6-3.8-0.7-5.7-0.3-1.8 0.4-3.6 1.2-5.1 2.5-1.4 1.3-2.6 2.9-3.2 4.7-0.7 1.8-0.9 3.8-0.5 5.7 1.2 8.2 1 13.6 6 16.9z"/>
	<path id="Layer" class="s12" d="m135.6 37.1c0 0.8 0.5 1.5 1.1 1.5 0.6-0.1 1-0.8 0.9-1.7-0.1-0.9-0.6-1.5-1.2-1.5-0.5 0.1-0.9 0.8-0.8 1.7z"/>
	<path id="Layer" class="s12" d="m143.1 36.6c0 0.8 0.6 1.5 1.2 1.4 0.5 0 1-0.8 0.9-1.6-0.1-0.9-0.6-1.5-1.2-1.5-0.6 0.1-0.9 0.8-0.9 1.7z"/>
	<path id="Layer" class="s24" d="m140.8 36.5q0.3 0.7 0.8 1.5 0.4 0.7 0.8 1.4 0.5 0.6 1 1.3 0.5 0.6 1.1 1.3-0.3 0.2-0.7 0.4-0.4 0.2-0.8 0.4-0.4 0.1-0.8 0.1-0.5 0-0.9-0.1z"/>
	<path id="Layer" class="s12" d="m145.7 32.5q0 0-0.1 0-0.1 0-0.1 0-0.1 0-0.1 0-0.1 0-0.1 0-0.3-0.2-0.7-0.3-0.4-0.1-0.7-0.1-0.4 0-0.8 0-0.3 0.1-0.7 0.3 0 0-0.1 0-0.1 0-0.2 0 0 0-0.1 0-0.1-0.1-0.1-0.2 0 0-0.1-0.1 0-0.1 0.1-0.2 0 0 0-0.1 0.1-0.1 0.1-0.1 0.5-0.2 0.9-0.3 0.5-0.1 0.9-0.1 0.5 0 1 0.1 0.4 0.1 0.8 0.4 0.1 0 0.2 0.1 0 0 0 0.1 0.1 0.1 0.1 0.1 0 0.1-0.1 0.2 0 0 0 0 0 0.1 0 0.1 0 0-0.1 0 0 0.1 0 0.1z"/>
	<path id="Layer" class="s12" d="m133.8 33.7q0 0-0.1 0 0 0 0 0 0 0-0.1 0 0 0 0-0.1-0.1 0-0.1-0.1 0-0.1 0-0.1 0-0.1 0-0.2 0-0.1 0.1-0.1 0.3-0.4 0.7-0.6 0.4-0.3 0.8-0.4 0.5-0.2 1-0.2 0.4-0.1 0.9 0 0.1 0 0.1 0 0.1 0.1 0.1 0.2 0.1 0 0.1 0.1 0 0.1 0 0.2v-0.1q0 0.1-0.1 0.2 0 0.1-0.1 0.1 0 0-0.1 0.1-0.1 0-0.2 0-0.3-0.1-0.7 0-0.4 0-0.7 0.1-0.4 0.2-0.7 0.4-0.3 0.2-0.6 0.5 0 0 0 0-0.1 0-0.1 0-0.1 0-0.1 0 0 0-0.1 0z"/>
	<path id="Layer" class="s12" d="m138.3 44.2q-0.5-0.1-1.1-0.3-0.6-0.2-1.2-0.5-0.5-0.2-1-0.5-0.6-0.3-1.1-0.7 0 0.1 0 0.2-0.1 0.1-0.1 0.2 0 0.1-0.1 0.2 0 0.1 0 0.2 0 0.2 0 0.4-0.1 0.2 0 0.4 0 0.1 0 0.3 0 0.2 0.1 0.4c0.3 1 1.2 2 3.6 2.5l0.5 0.1q0.1-0.4 0.3-0.7 0.1-0.3 0.3-0.7 0.2-0.3 0.3-0.7 0.2-0.3 0.4-0.6c0.1-0.2-0.3-0.1-0.9-0.2z"/>
	<path id="Layer" class="s1" d="m134 42.2q0 0.1-0.1 0.2 0 0.1 0 0.2-0.1 0.1-0.1 0.2 0 0.1 0 0.2c0.5 0.9 2 1.5 4.2 2l0.4-0.8q-0.6-0.1-1.2-0.3-0.5-0.2-1.1-0.4-0.6-0.3-1.1-0.6-0.5-0.3-1-0.7z"/>
	<path id="Layer" class="s16" d="m136.3 45.6q-0.3-0.2-0.6-0.4-0.3-0.1-0.6-0.3-0.3-0.1-0.6-0.2-0.4-0.1-0.7-0.2c0.3 1 1.2 2 3.6 2.5q-0.1-0.2-0.2-0.4-0.1-0.2-0.3-0.4-0.1-0.2-0.3-0.3-0.1-0.2-0.3-0.3z"/>
	<path id="Layer" class="s12" d="m140 18.6c-5.8-1.4-19.9 2.1-21.3 5q-0.2 0.5-0.4 1-0.1 0.5-0.2 1 0 0.5 0.1 1 0 0.5 0.2 1c-3 3 0.9 15.3 7.5 14.5 4.2-0.5 3.4-2.2 3.2-2.6-1.3-1.6-0.3-4.2 0.7-7.7 0.4-1.3-0.5-2.6-1.9-3.6q0.7-0.9 1.7-1.5 0.9-0.5 2.1-0.8 1.1-0.2 2.2 0 1.1 0.1 2.1 0.7c0.7 0.3 4.8 2.4 7-3.1q0-0.1 0.1-0.2 0-0.1 0-0.2 0-0.1 0.1-0.2 0-0.1 0-0.2 0.1-0.7-0.1-1.4-0.2-0.7-0.7-1.3-0.4-0.6-1-0.9-0.7-0.4-1.4-0.5z"/>
	<path id="Layer" class="s18" d="m119.8 42.5q0.4 0.6 1 1.2 0.5 0.6 1.1 1 0.6 0.5 1.3 0.8 0.7 0.4 1.5 0.5c2.7 0.7 3.9-1.7 3.1-4.2-0.8-2.2-3-5.3-5.7-4.8-2.7 0.5-3.6 3.3-2.3 5.5z"/>
	<path id="Layer" fill-rule="evenodd" class="s25" d="m126.1 42.5q-0.2-0.5-0.4-1-0.3-0.5-0.6-0.9-0.3-0.4-0.7-0.7-0.5-0.4-0.9-0.6-0.2-0.1-0.4-0.2-0.2 0-0.5 0-0.2 0-0.4 0-0.2 0.1-0.4 0.2"/>
	<path id="Layer" class="s21" d="m128.3 134.1l-8.2 0.6c-0.6-4-0.2-17.7-1.8-34.8 3.4-7.6 5.3-18.1 5.3-18.1q2.1 3.1 4.1 6.2 1.9 3.1 3.8 6.2 1.9 3.2 3.6 6.4 1.8 3.2 3.5 6.5c4.5 8.8-1.2 21.4-10.3 27z"/>
	<path id="Layer" class="s8" d="m191.9 53.5h-2.8-18.2v82.5h18.2 2.8 79.8v-82.5h-79.8z"/>
	<path id="Layer" fill-rule="evenodd" class="s1" d="m252 103c0 7.1-5.4 11.1-15.7 11.1h-19.6v-41.1h18.4c9.5 0 14.8 4 14.8 10.6q0 1.5-0.3 2.8-0.4 1.4-1.1 2.6-0.8 1.3-1.8 2.2-1.1 1-2.4 1.6c4.7 1.3 7.7 4.7 7.7 10.2zm-29.5-25.3v13.2h12c6 0 9.4-2.2 9.4-6.6 0-4.3-3.4-6.6-9.4-6.6zm23.6 24.8c0-4.7-3.6-6.9-10.1-6.9h-13.5v13.7h13.6c6.5 0 10-2 10-6.8z"/>
	<path id="Layer" class="s11" d="m170.9 53.5h21v82.5h-21z"/>
	<path id="Layer" class="s8" d="m124.7 63.5c0 0 3.4-6.5 3.9-6.5 0.4 0.1 10 4.4 10 4.4l0.6-3.9 5 3.8-1.6 10.6z"/>
	<path id="Layer" class="s20" d="m124.7 63.5c0 0 3.4-6.5 3.9-6.5 0.4 0.1 10 4.4 10 4.4l0.6-3.9 5 3.8-1.6 10.6z"/>
	<path id="Layer" class="s21" d="m125.3 62.4c0 0 10.2 6.2 10.2 6.2 0.1 0 2.2-4.7 2.2-4.7l-1.3 6.2z"/>
	<path id="Layer" class="s8" d="m137.8 63.9l-1 3.3 1.9 2.8c1.8 0.1 11.8 46.1 7.8 63.3l9.6 6 2.8-6.6c0.8-14.6-11.5-57.1-17.8-63.3l0.8-4.1-2.5-1.9z"/>
	<path id="Layer" class="s8" d="m112 65.2c-11.6 6.3 4.9 43.6 8.1 49.3 3.2 5.6 50.3 6.1 50.3 6.1l-0.4-10.8-38-5.2-9.6-28.8c-3.8-9.2-10.4-10.6-10.4-10.6z"/>
	<path id="Layer" class="s20" d="m112 65.2c-11.6 6.3 4.9 43.6 8.1 49.3 3.2 5.6 50.3 6.1 50.3 6.1l-0.4-10.8-38-5.2-9.6-28.8c-3.8-9.2-10.4-10.6-10.4-10.6z"/>
	<path id="Layer" class="s18" d="m173.1 110.4c0 0 7.8 1.2 8.7 2.8 0.9 1.6-1.8 1.7-1.8 1.7 0 0 3 0.1 3.1 1.4 0.1 1.5-2.7 1.5-2.7 1.5 0 0 2.4 0.2 2.5 1.3 0 1.2-3.1 1.5-3.1 1.5 0 0 1.6 0.4 1.2 1.2-0.4 0.8-7.1 1.6-9.2 0.5-2-1.1-2.9-8.5-2.3-11.3 0.4-1.8 1.8-4.1 3.6-4.4z"/>
	<path id="Layer" class="s13" d="m180.4 114.8l-5.1-0.4q0 0 0 0-0.1 0-0.1 0 0-0.1 0-0.1 0 0 0 0c0-0.1 0.1-0.2 0.1-0.2l5.2 0.5q0 0 0 0 0 0 0 0 0.1 0 0.1 0 0 0.1 0 0.1 0 0 0 0.1 0 0-0.1 0 0 0 0 0 0 0-0.1 0z"/>
	<path id="Layer" class="s13" d="m180.7 117.8h-5q0 0-0.1-0.1 0 0 0-0.1 0 0 0-0.1 0.1 0 0.1 0h5q0.1 0 0.1 0 0.1 0.1 0.1 0.1 0 0.1-0.1 0.1 0 0.1-0.1 0.1z"/>
	<path id="Layer" class="s13" d="m180 120.5l-3.7 0.1q0 0 0 0-0.1 0-0.1 0 0 0 0-0.1 0 0 0 0 0 0 0-0.1 0 0 0 0 0 0 0.1 0 0-0.1 0-0.1h3.7q0 0 0.1 0 0 0 0 0.1 0 0 0 0.1-0.1 0-0.1 0z"/>
</svg>