<svg id="Layer_1" data-name="Layer 1" xmlns="http://www.w3.org/2000/svg" viewBox="0 0 50 50"><defs><style>.cls-1{fill:#fff;}</style></defs><polygon class="cls-1" points="26.24 36.06 23.59 36.06 23.59 38.63 17.66 39.65 17.66 41.05 32.17 41.05 32.17 39.65 26.24 38.63 26.24 36.06"/><path class="cls-1" d="M44.11,12.5H5.72a1.25,1.25,0,0,0-1.25,1.25V34.19a1.25,1.25,0,0,0,1.25,1.25H44.11a1.26,1.26,0,0,0,1.25-1.25V13.75A1.26,1.26,0,0,0,44.11,12.5Zm-.63,19.82a1.26,1.26,0,0,1-1.25,1.25H7.59a1.26,1.26,0,0,1-1.25-1.25V15.62a1.26,1.26,0,0,1,1.25-1.25H42.23a1.25,1.25,0,0,1,1.25,1.25Z"/><path class="cls-1" d="M23.05,29.09h0a7.16,7.16,0,0,1-3,2.09,2.38,2.38,0,0,0,.49-1.07,8.23,8.23,0,0,0,1.71-.71,5.66,5.66,0,0,0,.48-.31h-.32l-.08.05a7.87,7.87,0,0,1-1.75.72,7.81,7.81,0,0,0,.11-1.28v-.95h0v-.37h-.07a20.34,20.34,0,0,0-.48-2.68l.55-.19V24c-.21.08-.43.16-.65.22a22.13,22.13,0,0,0-.89-2.64,3.71,3.71,0,0,0,.9-.37,2.85,2.85,0,0,0,.6-.43h0v-.17a1.25,1.25,0,0,1,.57-1.05v-.15l.14.07a1.14,1.14,0,0,1,.26-.09l-.43-.19a1.94,1.94,0,0,0-.72-1.13,3.72,3.72,0,0,1,.75.17,7.3,7.3,0,0,1,1.42,1.12h.47a1.13,1.13,0,0,1,.32.05,7.75,7.75,0,1,0-.91,10.92,7.84,7.84,0,0,0,1.32-1.44.24.24,0,0,1-.11-.06A1.29,1.29,0,0,1,23.05,29.09Zm-3-1.66a11.21,11.21,0,0,1-3.7.19c0-.87.11-1.8.2-2.74a9.29,9.29,0,0,0,3.11-.16A24.77,24.77,0,0,1,20,27.43Zm-7.16-3.9A9.48,9.48,0,0,0,12,26a4,4,0,0,1-1.51-2.17,5.88,5.88,0,0,1,1.13-2.14,3.34,3.34,0,0,0,1.26,1.84Zm-1-2.1A7.71,7.71,0,0,1,14,19.8a2,2,0,0,0,.78,1.11,11.86,11.86,0,0,0-1.65,2.27,3.18,3.18,0,0,1-1.26-1.75Zm1.42,2.37a7.48,7.48,0,0,0,2.74,1c-.14.93-.24,1.86-.3,2.72a8.62,8.62,0,0,1-3.26-1.2,10.52,10.52,0,0,1,.78-2.52Zm.17-.36A13,13,0,0,1,15,21.08a4.38,4.38,0,0,0,1.68.62c-.21.86-.4,1.79-.55,2.71a7,7,0,0,1-2.69-1Zm6.13.89a8.9,8.9,0,0,1-3,.16c.1-.94.22-1.87.37-2.74a5.77,5.77,0,0,0,1.9-.11c.25.86.5,1.77.69,2.69Zm-3.2-6.95a5.23,5.23,0,0,1,1.72-.12,4.68,4.68,0,0,0-.44,1.22h0a3.28,3.28,0,0,1,.71-1.19,4.06,4.06,0,0,1,1.65.6h.25a4.76,4.76,0,0,0-1.1-.5,8.15,8.15,0,0,1,1.65.6,4.56,4.56,0,0,0-3,.55h0A5.6,5.6,0,0,1,20.23,18a1.79,1.79,0,0,1,.66,1,8.7,8.7,0,0,0-3-.4h0a9,9,0,0,1,3,.58,1.56,1.56,0,0,1-.4,1.05,9.57,9.57,0,0,0-2.63-1.51h0a9.93,9.93,0,0,1,2.49,1.66,3,3,0,0,1-.54.4,3.91,3.91,0,0,1-.82.33,13,13,0,0,0-1.27-2.31h0a15.55,15.55,0,0,1,1,2.38A5.53,5.53,0,0,1,17,21.3c.13-.83.31-1.65.52-2.46h0a20.27,20.27,0,0,0-.79,2.43,4.36,4.36,0,0,1-1.52-.56,10.39,10.39,0,0,1,2.15-1.93h0A10.32,10.32,0,0,0,15,20.63a1.79,1.79,0,0,1-.7-1,9,9,0,0,1,3-.89h0a9.15,9.15,0,0,0-3,.72,1.49,1.49,0,0,1,.35-1.05,6.69,6.69,0,0,1,2.67.22h0a6.46,6.46,0,0,0-2.54-.37,2.83,2.83,0,0,1,.59-.44,3.49,3.49,0,0,1,.75-.31,3.48,3.48,0,0,1,1.34,1h0a3.19,3.19,0,0,0-1.09-1.13Zm-.44,0a4.83,4.83,0,0,0-.81.35,3.09,3.09,0,0,0-.66.48,3.94,3.94,0,0,0-1,.29,7.29,7.29,0,0,1,2.43-1.09Zm-3.85,2.38A6.91,6.91,0,0,1,13,18.9a4.52,4.52,0,0,1,1.37-.5A1.59,1.59,0,0,0,14,19.56,7.43,7.43,0,0,0,11.8,21.1a2.31,2.31,0,0,1,.28-1.31Zm-.33.41a2.43,2.43,0,0,0-.19,1.16,5.21,5.21,0,0,0-1.08,1.9,7.13,7.13,0,0,1,1.23-3Zm-1.37,4.22v-.26a4,4,0,0,0,1.52,2.2,7.28,7.28,0,0,0-.07.93A4.73,4.73,0,0,0,12,28.61a4.77,4.77,0,0,1-.76-.73,7.07,7.07,0,0,1-.86-3.46Zm1.2,4a6.17,6.17,0,0,0,.54.48,2.62,2.62,0,0,0,.22.48,8.14,8.14,0,0,1-.8-1Zm.75-.77a7.42,7.42,0,0,1,.06-.94,9.08,9.08,0,0,0,3.3,1.22v1a10.79,10.79,0,0,0,0,1.27A8.74,8.74,0,0,1,12.54,29a5.21,5.21,0,0,1-.21-1.36ZM13,29.9a3.16,3.16,0,0,1-.36-.71,8.71,8.71,0,0,0,3.19,1.17,2.51,2.51,0,0,0,.33,1.1,7.16,7.16,0,0,1-3.2-1.56Zm6.63,1.45a7.67,7.67,0,0,1-.93.19,8.36,8.36,0,0,1-2,0H16.6a3.43,3.43,0,0,1-.23-1.1A11.07,11.07,0,0,0,20,30.26a2.44,2.44,0,0,1-.45,1.09Zm-3.21-1.14V27.94a11.67,11.67,0,0,0,3.73-.2v1A9.51,9.51,0,0,1,20,30a11.26,11.26,0,0,1-3.66.21Z"/><polygon class="cls-1" points="24.63 21.19 24.63 22.94 24.63 24.07 24.63 24.6 24.63 25.47 24.47 24.95 24.38 24.64 23.53 21.8 23.37 21.24 23.19 20.65 23.18 20.62 23.16 20.62 21.96 20.62 21.96 21.68 21.96 22.24 21.96 23.31 21.96 23.77 21.96 26.76 21.96 27.13 21.96 27.84 23.05 27.84 23.05 26.51 23.05 26.12 23.05 24.13 23.05 23.22 24.03 26.25 24.29 27.04 24.54 27.83 24.55 27.84 25.72 27.84 25.72 20.62 24.63 20.62 24.63 21.19"/><polygon class="cls-1" points="26.69 27.84 29.79 27.84 29.79 26.75 27.78 26.75 27.78 24.78 29.25 24.78 29.25 23.68 27.78 23.68 27.78 21.71 29.79 21.71 29.79 20.62 26.69 20.62 26.69 27.84"/><polygon class="cls-1" points="34.49 24.49 33.92 20.62 32.78 20.62 32.25 24.49 31.68 20.62 30.54 20.62 31.75 27.84 32.79 27.84 33.37 23.87 33.99 27.84 35.03 27.84 36.16 20.62 35.02 20.62 34.49 24.49"/><path class="cls-1" d="M40,25a3.67,3.67,0,0,0-.62-.79c-.08-.09-.25-.23-.5-.45a3.56,3.56,0,0,1-.49-.46,1.61,1.61,0,0,1-.42-1,1,1,0,0,1,.12-.53.52.52,0,0,1,.46-.27.55.55,0,0,1,.43.18,1.24,1.24,0,0,1,.25.69l1-.19a2.46,2.46,0,0,0-.24-.84,1.47,1.47,0,0,0-.52-.56,1.85,1.85,0,0,0-1-.26,1.63,1.63,0,0,0-1,.31,1.75,1.75,0,0,0-.66,1.49,2.17,2.17,0,0,0,.24,1,4.34,4.34,0,0,0,.77.94l1,.91a1.39,1.39,0,0,1,.41.9,1,1,0,0,1-.11.48.68.68,0,0,1-.57.35.53.53,0,0,1-.45-.21,1.52,1.52,0,0,1-.34-.91l-1,.07a2.87,2.87,0,0,0,.24,1,1.72,1.72,0,0,0,.55.7,1.74,1.74,0,0,0,1.06.32,2.49,2.49,0,0,0,.61-.08,1.45,1.45,0,0,0,.75-.51A2,2,0,0,0,40.36,26a2.38,2.38,0,0,0-.16-.7C40.1,25.25,40.05,25.14,40,25Z"/></svg>