<svg id="Layer_1" data-name="Layer 1" xmlns="http://www.w3.org/2000/svg" viewBox="0 0 50 50"><defs><style>.cls-1{fill:#fff;}</style></defs><path class="cls-1" d="M39.62,37h-27a2.23,2.23,0,0,1-2.23-2.46,2.3,2.3,0,0,1,2.31-2H18.3a1.1,1.1,0,0,1,1.1,1.1.32.32,0,0,0,.32.32H32.5a.32.32,0,0,0,.32-.32,1.1,1.1,0,0,1,1.1-1.1h5.62a2.24,2.24,0,0,1,1.74,3.75A2.28,2.28,0,0,1,39.62,37ZM12.68,33.3a1.52,1.52,0,0,0-1.54,1.31,1.46,1.46,0,0,0,.38,1.13,1.43,1.43,0,0,0,1.08.48h27a1.45,1.45,0,0,0,1.08-.48,1.46,1.46,0,0,0,.38-1.13,1.52,1.52,0,0,0-1.54-1.31H33.92a.32.32,0,0,0-.32.32,1.09,1.09,0,0,1-1.1,1.09H19.72a1.09,1.09,0,0,1-1.1-1.09.32.32,0,0,0-.32-.32Z"/><path class="cls-1" d="M39.62,37h-27a2.23,2.23,0,0,1-2.23-2.46,2.3,2.3,0,0,1,2.31-2H18.3a1.1,1.1,0,0,1,1.1,1.1.32.32,0,0,0,.32.32H32.5a.32.32,0,0,0,.32-.32,1.1,1.1,0,0,1,1.1-1.1h5.62a2.24,2.24,0,0,1,1.74,3.75A2.28,2.28,0,0,1,39.62,37ZM12.68,33.3a1.52,1.52,0,0,0-1.54,1.31,1.46,1.46,0,0,0,.38,1.13,1.43,1.43,0,0,0,1.08.48h27a1.45,1.45,0,0,0,1.08-.48,1.46,1.46,0,0,0,.38-1.13,1.52,1.52,0,0,0-1.54-1.31H33.92a.32.32,0,0,0-.32.32,1.09,1.09,0,0,1-1.1,1.09H19.72a1.09,1.09,0,0,1-1.1-1.09.32.32,0,0,0-.32-.32Z"/><path class="cls-1" d="M37.78,31.41H14.44a.39.39,0,0,1-.39-.39V15.28a.38.38,0,0,1,.39-.39.39.39,0,0,1,.39.39V30.63H37.39v-15H29.13a.39.39,0,0,1-.39-.39.38.38,0,0,1,.39-.39h8.65a.38.38,0,0,1,.39.39V31A.39.39,0,0,1,37.78,31.41Z"/><path class="cls-1" d="M15.6,15.67H14.44a.39.39,0,0,1-.39-.39.38.38,0,0,1,.39-.39H15.6a.38.38,0,0,1,.39.39A.39.39,0,0,1,15.6,15.67Z"/><path class="cls-1" d="M25.49,15.67H23a.39.39,0,0,1-.39-.39.38.38,0,0,1,.39-.39h2.47a.39.39,0,0,1,.39.39A.4.4,0,0,1,25.49,15.67Zm-4.94,0H18.07a.39.39,0,0,1-.38-.39.38.38,0,0,1,.38-.39h2.48a.38.38,0,0,1,.38.39A.39.39,0,0,1,20.55,15.67Z"/><path class="cls-1" d="M29.13,15.67H28a.4.4,0,0,1-.39-.39.39.39,0,0,1,.39-.39h1.17a.38.38,0,0,1,.38.39A.39.39,0,0,1,29.13,15.67Z"/><path class="cls-1" d="M32.5,34.71H19.72a1.09,1.09,0,0,1-1.1-1.09.32.32,0,0,0-.32-.32H12.68l-.22,0a.42.42,0,0,1-.31-.09.43.43,0,0,1-.13-.3V12.77a.38.38,0,0,1,.38-.39H39.81a.38.38,0,0,1,.39.39V32.93a.38.38,0,0,1-.44.39l-.22,0H33.92a.32.32,0,0,0-.32.32A1.09,1.09,0,0,1,32.5,34.71ZM12.79,32.52H18.3a1.1,1.1,0,0,1,1.1,1.1.32.32,0,0,0,.32.32H32.5a.32.32,0,0,0,.32-.32,1.1,1.1,0,0,1,1.1-1.1h5.51V13.16H12.79Z"/><path class="cls-1" d="M20.29,24.1A.35.35,0,0,1,20,24L15.9,20.21a.39.39,0,0,1,0-.55.4.4,0,0,1,.55,0l3.83,3.51,4.15-5.26a.39.39,0,0,1,.54-.06.4.4,0,0,1,.07.55L20.6,24a.42.42,0,0,1-.28.14Z"/><path class="cls-1" d="M35.48,21.3H26.63a.39.39,0,0,1-.39-.39.38.38,0,0,1,.39-.39h8.85a.38.38,0,0,1,.39.39A.39.39,0,0,1,35.48,21.3Z"/><path class="cls-1" d="M35.48,24.43H26.63a.38.38,0,0,1-.39-.39.39.39,0,0,1,.39-.39h8.85a.39.39,0,0,1,.39.39A.38.38,0,0,1,35.48,24.43Z"/><path class="cls-1" d="M21.8,28.78a.33.33,0,0,1-.17,0,.38.38,0,0,1-.21-.38l.31-3.85a.39.39,0,0,1,.2-.31.42.42,0,0,1,.38,0l3.37,1.88a.38.38,0,0,1,.2.38.39.39,0,0,1-.28.33l-2,.55-1.55,1.34A.39.39,0,0,1,21.8,28.78Zm.66-3.6-.19,2.3.9-.79.15-.08,1.15-.31Z"/><path class="cls-1" d="M22,26H17.16a.39.39,0,0,1-.39-.39V19.34a.39.39,0,0,1,.39-.39h6.27a.39.39,0,0,1,.38.39v5.93a.39.39,0,0,1-.19.34.39.39,0,0,1-.38,0l-.78-.43,0,.46A.4.4,0,0,1,22,26Zm-4.48-.78h4.12l.06-.71a.39.39,0,0,1,.2-.31.42.42,0,0,1,.38,0l.73.41V19.73H17.55Z"/></svg>