<svg id="Layer_1" data-name="Layer 1" xmlns="http://www.w3.org/2000/svg" viewBox="0 0 50 50"><defs><style>.cls-1{fill:#fff;}</style></defs><path class="cls-1" d="M36.6,30.24H11.46a1.13,1.13,0,0,1-1.12-1.13v-17A1.13,1.13,0,0,1,11.46,11H36.6a1.13,1.13,0,0,1,1.13,1.13v17A1.13,1.13,0,0,1,36.6,30.24ZM11.46,11.72a.4.4,0,0,0-.4.41v17a.4.4,0,0,0,.4.41H36.6a.41.41,0,0,0,.41-.41v-17a.41.41,0,0,0-.41-.41Z"/><path class="cls-1" d="M30.34,37.77H17.73a1.92,1.92,0,1,1,0-3.84H30.34a1.92,1.92,0,0,1,0,3.84ZM17.73,34.65a1.2,1.2,0,0,0,0,2.4H30.34a1.2,1.2,0,0,0,0-2.4Z"/><path class="cls-1" d="M29.91,34.65H18.16a.36.36,0,0,1-.28-.59,7.08,7.08,0,0,0,1.36-4.18.36.36,0,0,1,.36-.36h8.87a.36.36,0,0,1,.36.36,6.93,6.93,0,0,0,1.36,4.18.36.36,0,0,1-.28.59Zm-11.07-.72H29.23a8,8,0,0,1-1.11-3.69H20A8,8,0,0,1,18.84,33.93Z"/><path class="cls-1" d="M37.37,28.13H10.7a.36.36,0,0,1-.36-.36V13.52a.36.36,0,0,1,.36-.36H37.37a.36.36,0,0,1,.36.36V27.77A.36.36,0,0,1,37.37,28.13Zm-26.31-.72H37V13.88H11.06Z"/><path class="cls-1" d="M17,21.67a.76.76,0,0,1-.43-.14l-1.29-.94-1.3.94a.74.74,0,0,1-.87,0,.75.75,0,0,1-.27-.83l.5-1.51-1.3-1a.74.74,0,0,1-.26-.83.72.72,0,0,1,.7-.5H14.1l.5-1.53a.73.73,0,0,1,.7-.51.72.72,0,0,1,.7.51l.49,1.52H18.1a.73.73,0,0,1,.43,1.33l-1.28.93.48,1.53a.73.73,0,0,1-.27.83A.76.76,0,0,1,17,21.67Zm-1.73-1.8a.72.72,0,0,1,.44.14l1.28.93-.47-1.53a.73.73,0,0,1,.27-.82l1.29-.94-1.6,0a.74.74,0,0,1-.7-.51l-.49-1.51-.52,1.51a.74.74,0,0,1-.7.51H12.51l1.27,1a.73.73,0,0,1,.27.82l-.49,1.52L14.87,20A.69.69,0,0,1,15.3,19.87Z"/><path class="cls-1" d="M25.76,21.67a.76.76,0,0,1-.43-.14L24,20.59l-1.3.94a.73.73,0,0,1-1.13-.83l.49-1.51-1.29-1a.73.73,0,0,1,.43-1.33h1.59l.5-1.53a.73.73,0,0,1,.7-.51.72.72,0,0,1,.7.51l.5,1.52h1.6a.73.73,0,0,1,.43,1.33L26,19.17l.48,1.53a.74.74,0,0,1-.26.83A.82.82,0,0,1,25.76,21.67ZM24,19.87a.7.7,0,0,1,.44.14l1.28.93-.46-1.53a.73.73,0,0,1,.26-.82l1.29-.94-1.6,0a.74.74,0,0,1-.7-.51l-.49-1.51-.52,1.51a.74.74,0,0,1-.7.51H21.24l1.28,1a.74.74,0,0,1,.26.82l-.49,1.52L23.6,20A.69.69,0,0,1,24,19.87Z"/><path class="cls-1" d="M31,21.67a.82.82,0,0,1-.44-.14.74.74,0,0,1-.26-.83l.49-1.51-1.29-1A.73.73,0,0,1,30,16.91h1.59l.51-1.53a.72.72,0,0,1,.7-.51.73.73,0,0,1,.7.51L34,16.9h1.6a.72.72,0,0,1,.7.5.74.74,0,0,1-.26.83l-1.29.93.48,1.53a.73.73,0,0,1-1.13.83l-1.29-.94-1.3.94A.76.76,0,0,1,31,21.67Zm1.73-1.8a.69.69,0,0,1,.43.14l1.29.93L34,19.41a.74.74,0,0,1,.26-.82l1.29-.94-1.6,0a.74.74,0,0,1-.7-.51l-.49-1.51-.52,1.51a.74.74,0,0,1-.7.51H30l1.28,1a.73.73,0,0,1,.26.82L31,20.93,32.33,20A.7.7,0,0,1,32.77,19.87Z"/><path class="cls-1" d="M18.34,24H17.8a.37.37,0,0,1,0-.73h.54a.37.37,0,0,1,0,.73Z"/><path class="cls-1" d="M26.59,24h-1a.37.37,0,0,1,0-.73h1a.37.37,0,0,1,0,.73Zm-2.06,0h-1a.37.37,0,0,1,0-.73h1a.37.37,0,0,1,0,.73Zm-2.06,0h-1a.37.37,0,0,1,0-.73h1a.37.37,0,0,1,0,.73Zm-2.06,0h-1a.37.37,0,1,1,0-.73h1a.37.37,0,0,1,0,.73Z"/><path class="cls-1" d="M28.17,24h-.54a.37.37,0,1,1,0-.73h.54a.37.37,0,0,1,0,.73Z"/><path class="cls-1" d="M17.8,24H12.13a.37.37,0,0,1,0-.73H17.8a.37.37,0,0,1,0,.73Z"/><path class="cls-1" d="M28.17,26h-16a.36.36,0,1,1,0-.72h16a.36.36,0,0,1,0,.72Z"/><path class="cls-1" d="M37.37,37.77H10.7a.36.36,0,0,1,0-.72H37.37a.36.36,0,0,1,0,.72Z"/></svg>