<svg id="Capa_1" data-name="Capa 1" xmlns="http://www.w3.org/2000/svg" viewBox="0 0 50 50"><defs><style>.cls-1{fill:#fff;}</style></defs><path class="cls-1" d="M45,44.45,38.43,37.9l-1-.11-.9-.89a5.24,5.24,0,0,0,.83-1.45,5.14,5.14,0,0,0,.3-1.74,5,5,0,1,0-5.05,5,4.91,4.91,0,0,0,1.74-.31,4.85,4.85,0,0,0,1.45-.82l.89.89.11,1,6.55,6.55a1,1,0,0,0,1.44,0l.18-.18A1,1,0,0,0,45,44.45Zm-9.35-7.73a4.27,4.27,0,1,1,1.24-3A4.24,4.24,0,0,1,35.63,36.72Z"/><path class="cls-1" d="M34.84,32,32,35l-1.16-1.57a.4.4,0,0,0-.56-.09.41.41,0,0,0-.08.56L31.6,35.8a.43.43,0,0,0,.29.16h0a.4.4,0,0,0,.29-.12l3.2-3.26a.43.43,0,0,0,.11-.28A.4.4,0,0,0,35.4,32,.4.4,0,0,0,34.84,32Z"/><path class="cls-1" d="M34.71,38.94a.3.3,0,0,0-.3.3V42h-17V16.64h17V28.42a.31.31,0,0,0,.3.3.3.3,0,0,0,.3-.3V16.34a.3.3,0,0,0-.3-.3H31.27V11.91a.29.29,0,0,0-.29-.3H27.54V7.47a.3.3,0,0,0-.3-.3H9.68a.3.3,0,0,0-.29.3v26a.29.29,0,0,0,.29.3h3.44v4.14a.3.3,0,0,0,.3.3h3.43v4.13a.3.3,0,0,0,.3.3H34.71a.29.29,0,0,0,.3-.3V39.24A.29.29,0,0,0,34.71,38.94Zm-21.59-27V33.15H10V7.77h17v3.84H13.42A.29.29,0,0,0,13.12,11.91Zm3.73,4.43V37.59H13.72V12.21h17V16H17.15A.31.31,0,0,0,16.85,16.34Z"/><path class="cls-1" d="M31,20.16H20.74a.3.3,0,0,0-.3.3.29.29,0,0,0,.3.3H31a.29.29,0,0,0,.29-.3A.3.3,0,0,0,31,20.16Z"/><path class="cls-1" d="M31,23.57H20.74a.29.29,0,0,0-.3.3.3.3,0,0,0,.3.3H31a.3.3,0,0,0,.29-.3A.29.29,0,0,0,31,23.57Z"/><path class="cls-1" d="M31.27,27.28A.29.29,0,0,0,31,27H20.74a.29.29,0,0,0-.3.3.3.3,0,0,0,.3.3H31A.3.3,0,0,0,31.27,27.28Z"/><path class="cls-1" d="M27.3,30.38H20.74a.3.3,0,0,0-.3.3.29.29,0,0,0,.3.3H27.3a.29.29,0,0,0,.3-.3A.3.3,0,0,0,27.3,30.38Z"/><path class="cls-1" d="M20.74,34.39h5.78a.3.3,0,0,0,.3-.3.31.31,0,0,0-.3-.3H20.74a.3.3,0,0,0-.3.3A.29.29,0,0,0,20.74,34.39Z"/><path class="cls-1" d="M20.74,37.8h7.08a.3.3,0,0,0,.3-.3.29.29,0,0,0-.3-.3H20.74a.29.29,0,0,0-.3.3A.3.3,0,0,0,20.74,37.8Z"/></svg>