<svg id="_ëîé_1" data-name="‘ëîé_1" xmlns="http://www.w3.org/2000/svg" xmlns:xlink="http://www.w3.org/1999/xlink" viewBox="0 0 550 550"><defs><style>.cls-1{fill:#edf7ff;}.cls-2{fill:url(#_åçûìßííûé_ãðàäèåíò_26);}.cls-3{fill:url(#_åçûìßííûé_ãðàäèåíò_43);}.cls-4{fill:url(#_åçûìßííûé_ãðàäèåíò_43-2);}.cls-5{fill:url(#_åçûìßííûé_ãðàäèåíò_43-3);}.cls-6{fill:url(#_åçûìßííûé_ãðàäèåíò_43-4);}.cls-7{fill:url(#_åçûìßííûé_ãðàäèåíò_43-5);}.cls-8{fill:url(#_åçûìßííûé_ãðàäèåíò_43-6);}.cls-9{fill:url(#_åçûìßííûé_ãðàäèåíò_43-7);}.cls-10{fill:url(#_åçûìßííûé_ãðàäèåíò_43-8);}.cls-11{fill:url(#_åçûìßííûé_ãðàäèåíò_43-9);}.cls-12{fill:url(#_åçûìßííûé_ãðàäèåíò_43-10);}.cls-13{fill:url(#_åçûìßííûé_ãðàäèåíò_43-11);}.cls-14{fill:url(#_åçûìßííûé_ãðàäèåíò_43-12);}.cls-15{fill:url(#_åçûìßííûé_ãðàäèåíò_43-13);}.cls-16{fill:url(#_åçûìßííûé_ãðàäèåíò_43-14);}.cls-17{fill:url(#_åçûìßííûé_ãðàäèåíò_43-15);}.cls-18{fill:url(#_åçûìßííûé_ãðàäèåíò_43-16);}.cls-19{fill:url(#_åçûìßííûé_ãðàäèåíò_43-17);}.cls-20{fill:url(#_åçûìßííûé_ãðàäèåíò_43-18);}.cls-21{fill:url(#_åçûìßííûé_ãðàäèåíò_43-19);}.cls-22{fill:url(#_åçûìßííûé_ãðàäèåíò_43-20);}.cls-23{fill:url(#_åçûìßííûé_ãðàäèåíò_43-21);}.cls-24{fill:url(#_åçûìßííûé_ãðàäèåíò_43-22);}.cls-25{fill:url(#_åçûìßííûé_ãðàäèåíò_43-23);}.cls-26{fill:url(#_åçûìßííûé_ãðàäèåíò_43-24);}.cls-27{fill:url(#_åçûìßííûé_ãðàäèåíò_43-25);}.cls-28{fill:url(#_åçûìßííûé_ãðàäèåíò_43-26);}.cls-29{fill:url(#_åçûìßííûé_ãðàäèåíò_43-27);}.cls-30{fill:url(#_åçûìßííûé_ãðàäèåíò_43-28);}.cls-31{fill:url(#_åçûìßííûé_ãðàäèåíò_43-29);}.cls-32{fill:url(#_åçûìßííûé_ãðàäèåíò_43-30);}.cls-33{fill:url(#_åçûìßííûé_ãðàäèåíò_43-31);}.cls-34{fill:url(#_åçûìßííûé_ãðàäèåíò_43-32);}.cls-35{fill:url(#_åçûìßííûé_ãðàäèåíò_43-33);}.cls-36{fill:url(#_åçûìßííûé_ãðàäèåíò_43-34);}.cls-37{fill:url(#_åçûìßííûé_ãðàäèåíò_43-35);}.cls-38{fill:url(#_åçûìßííûé_ãðàäèåíò_43-36);}.cls-39{fill:url(#_åçûìßííûé_ãðàäèåíò_43-37);}.cls-40{fill:url(#_åçûìßííûé_ãðàäèåíò_43-38);}.cls-41{fill:url(#_åçûìßííûé_ãðàäèåíò_43-39);}.cls-42{fill:url(#_åçûìßííûé_ãðàäèåíò_43-40);}.cls-43{fill:url(#_åçûìßííûé_ãðàäèåíò_43-41);}.cls-44{fill:url(#_åçûìßííûé_ãðàäèåíò_43-42);}.cls-45{fill:url(#_åçûìßííûé_ãðàäèåíò_43-43);}.cls-46{fill:url(#_åçûìßííûé_ãðàäèåíò_43-44);}.cls-47{fill:url(#_åçûìßííûé_ãðàäèåíò_43-45);}.cls-48{fill:url(#_åçûìßííûé_ãðàäèåíò_43-46);}.cls-49{fill:url(#_åçûìßííûé_ãðàäèåíò_43-47);}.cls-50{fill:url(#_åçûìßííûé_ãðàäèåíò_43-48);}.cls-51{fill:#93bffa;}.cls-52,.cls-69,.cls-70{fill:#fff;}.cls-53{fill:#cfe2f3;}.cls-54{opacity:0.3;}.cls-55{fill:#dae5f5;}.cls-56{fill:#ebf1fa;}.cls-57{fill:url(#_åçûìßííûé_ãðàäèåíò_3);}.cls-58{fill:#8c97db;}.cls-59{fill:#2d3b8f;}.cls-60{fill:#3e51c2;}.cls-61{fill:#89f;}.cls-62{fill:#b8c2ff;}.cls-63{fill:#ccd3ff;}.cls-64{fill:#5e75ff;}.cls-65{fill:#697eff;}.cls-66{fill:#222c6b;}.cls-67{fill:url(#_åçûìßííûé_ãðàäèåíò_3-2);}.cls-68{fill:url(#_åçûìßííûé_ãðàäèåíò_3-3);}.cls-158,.cls-69{opacity:0.6;}.cls-70{opacity:0.8;}.cls-71{fill:url(#_åçûìßííûé_ãðàäèåíò_3-4);}.cls-72{fill:url(#_åçûìßííûé_ãðàäèåíò_3-5);}.cls-73{fill:url(#_åçûìßííûé_ãðàäèåíò_3-6);}.cls-74{fill:url(#_åçûìßííûé_ãðàäèåíò_3-7);}.cls-75{fill:url(#_åçûìßííûé_ãðàäèåíò_3-8);}.cls-76{fill:url(#_åçûìßííûé_ãðàäèåíò_3-9);}.cls-77{fill:url(#_åçûìßííûé_ãðàäèåíò_3-10);}.cls-78{fill:url(#_åçûìßííûé_ãðàäèåíò_3-11);}.cls-79{fill:url(#_åçûìßííûé_ãðàäèåíò_3-12);}.cls-80{fill:url(#_åçûìßííûé_ãðàäèåíò_3-13);}.cls-81{fill:url(#_åçûìßííûé_ãðàäèåíò_3-14);}.cls-82{fill:url(#_åçûìßííûé_ãðàäèåíò_3-15);}.cls-83{fill:url(#_åçûìßííûé_ãðàäèåíò_3-16);}.cls-84{fill:url(#_åçûìßííûé_ãðàäèåíò_3-17);}.cls-85{fill:url(#_åçûìßííûé_ãðàäèåíò_3-18);}.cls-86{fill:url(#_åçûìßííûé_ãðàäèåíò_3-19);}.cls-87{fill:url(#_åçûìßííûé_ãðàäèåíò_3-20);}.cls-88{fill:url(#_åçûìßííûé_ãðàäèåíò_3-21);}.cls-89{fill:url(#_åçûìßííûé_ãðàäèåíò_3-22);}.cls-90{fill:url(#_åçûìßííûé_ãðàäèåíò_3-23);}.cls-91{fill:url(#_åçûìßííûé_ãðàäèåíò_3-24);}.cls-92{fill:url(#_åçûìßííûé_ãðàäèåíò_3-25);}.cls-93{fill:url(#_åçûìßííûé_ãðàäèåíò_3-26);}.cls-94{fill:url(#_åçûìßííûé_ãðàäèåíò_3-27);}.cls-95{fill:url(#_åçûìßííûé_ãðàäèåíò_3-28);}.cls-96{fill:url(#_åçûìßííûé_ãðàäèåíò_3-29);}.cls-97{fill:url(#_åçûìßííûé_ãðàäèåíò_3-30);}.cls-98{fill:url(#_åçûìßííûé_ãðàäèåíò_3-31);}.cls-99{fill:url(#_åçûìßííûé_ãðàäèåíò_3-32);}.cls-100{fill:url(#_åçûìßííûé_ãðàäèåíò_3-33);}.cls-101{fill:url(#_åçûìßííûé_ãðàäèåíò_3-34);}.cls-102{fill:url(#_åçûìßííûé_ãðàäèåíò_3-35);}.cls-103{fill:url(#_åçûìßííûé_ãðàäèåíò_3-36);}.cls-104{fill:url(#_åçûìßííûé_ãðàäèåíò_3-37);}.cls-105{fill:url(#_åçûìßííûé_ãðàäèåíò_3-38);}.cls-106{fill:url(#_åçûìßííûé_ãðàäèåíò_3-39);}.cls-107{fill:url(#_åçûìßííûé_ãðàäèåíò_3-40);}.cls-108{fill:url(#_åçûìßííûé_ãðàäèåíò_3-41);}.cls-109{fill:url(#_åçûìßííûé_ãðàäèåíò_3-42);}.cls-110{fill:url(#_åçûìßííûé_ãðàäèåíò_3-43);}.cls-111{fill:url(#_åçûìßííûé_ãðàäèåíò_3-44);}.cls-112{fill:url(#_åçûìßííûé_ãðàäèåíò_3-45);}.cls-113{fill:url(#_åçûìßííûé_ãðàäèåíò_3-46);}.cls-114{fill:url(#_åçûìßííûé_ãðàäèåíò_3-47);}.cls-115{fill:url(#_åçûìßííûé_ãðàäèåíò_3-48);}.cls-116{fill:url(#_åçûìßííûé_ãðàäèåíò_3-49);}.cls-117{fill:url(#_åçûìßííûé_ãðàäèåíò_3-50);}.cls-118{fill:url(#_åçûìßííûé_ãðàäèåíò_3-51);}.cls-119{fill:url(#_åçûìßííûé_ãðàäèåíò_3-52);}.cls-120{fill:url(#_åçûìßííûé_ãðàäèåíò_3-53);}.cls-121{fill:url(#_åçûìßííûé_ãðàäèåíò_3-54);}.cls-122{fill:url(#_åçûìßííûé_ãðàäèåíò_3-55);}.cls-123{fill:url(#_åçûìßííûé_ãðàäèåíò_3-56);}.cls-124{fill:url(#_åçûìßííûé_ãðàäèåíò_3-57);}.cls-125{fill:url(#_åçûìßííûé_ãðàäèåíò_3-58);}.cls-126{fill:url(#_åçûìßííûé_ãðàäèåíò_3-59);}.cls-127{fill:url(#_åçûìßííûé_ãðàäèåíò_3-60);}.cls-128{fill:url(#_åçûìßííûé_ãðàäèåíò_3-61);}.cls-129{fill:url(#_åçûìßííûé_ãðàäèåíò_3-62);}.cls-130{fill:url(#_åçûìßííûé_ãðàäèåíò_3-63);}.cls-131{fill:url(#_åçûìßííûé_ãðàäèåíò_3-64);}.cls-132{fill:url(#_åçûìßííûé_ãðàäèåíò_3-65);}.cls-133{fill:url(#_åçûìßííûé_ãðàäèåíò_3-66);}.cls-134{fill:url(#_åçûìßííûé_ãðàäèåíò_3-67);}.cls-135{fill:url(#_åçûìßííûé_ãðàäèåíò_3-68);}.cls-136{fill:url(#_åçûìßííûé_ãðàäèåíò_3-69);}.cls-137{fill:url(#_åçûìßííûé_ãðàäèåíò_3-70);}.cls-138{fill:url(#_åçûìßííûé_ãðàäèåíò_3-71);}.cls-139{fill:url(#_åçûìßííûé_ãðàäèåíò_3-72);}.cls-140{fill:url(#_åçûìßííûé_ãðàäèåíò_3-73);}.cls-141{fill:url(#_åçûìßííûé_ãðàäèåíò_3-74);}.cls-142{fill:url(#_åçûìßííûé_ãðàäèåíò_3-75);}.cls-143{fill:#3d4ebf;}.cls-144{fill:#465adb;}.cls-145{fill:url(#_åçûìßííûé_ãðàäèåíò_115);}.cls-146{fill:#e1ebfa;}.cls-147{fill:url(#_åçûìßííûé_ãðàäèåíò_115-2);}.cls-148{fill:url(#_åçûìßííûé_ãðàäèåíò_115-3);}.cls-149{fill:#1a1a1a;}.cls-150{fill:#212121;}.cls-151{fill:#81acf4;}.cls-152{fill:none;stroke:#000;stroke-linecap:round;stroke-linejoin:round;stroke-width:5.61px;}.cls-153{fill:#ccc;}.cls-154{fill:#4256d1;}.cls-155{fill:url(#_åçûìßííûé_ãðàäèåíò_115-4);}.cls-156{fill:#fafafa;}.cls-157{fill:url(#_åçûìßííûé_ãðàäèåíò_3-76);}.cls-159{fill:#3342a1;}.cls-160{fill:#a4acdb;}.cls-161{fill:#bfc8ff;}</style><linearGradient id="_åçûìßííûé_ãðàäèåíò_26" x1="273.42" y1="133.26" x2="273.42" y2="328.05" gradientUnits="userSpaceOnUse"><stop offset="0" stop-color="#e0eaf3"/><stop offset="1" stop-color="#93bffa"/></linearGradient><linearGradient id="_åçûìßííûé_ãðàäèåíò_43" x1="408.93" y1="-61.51" x2="435.67" y2="-252.45" gradientTransform="translate(12.25 357.92) rotate(7.15)" gradientUnits="userSpaceOnUse"><stop offset="0" stop-color="#fff"/><stop offset="0.25" stop-color="#fcfdff"/><stop offset="0.43" stop-color="#f3f8fe"/><stop offset="0.6" stop-color="#e2eefe"/><stop offset="0.75" stop-color="#cce1fd"/><stop offset="0.89" stop-color="#afcffb"/><stop offset="1" stop-color="#93bffa"/></linearGradient><linearGradient id="_åçûìßííûé_ãðàäèåíò_43-2" x1="445.03" y1="-56.45" x2="471.77" y2="-247.4" xlink:href="#_åçûìßííûé_ãðàäèåíò_43"/><linearGradient id="_åçûìßííûé_ãðàäèåíò_43-3" x1="446.85" y1="-56.19" x2="473.6" y2="-247.14" xlink:href="#_åçûìßííûé_ãðàäèåíò_43"/><linearGradient id="_åçûìßííûé_ãðàäèåíò_43-4" x1="436.32" y1="-57.67" x2="463.07" y2="-248.62" xlink:href="#_åçûìßííûé_ãðàäèåíò_43"/><linearGradient id="_åçûìßííûé_ãðàäèåíò_43-5" x1="427.88" y1="-58.85" x2="454.63" y2="-249.8" xlink:href="#_åçûìßííûé_ãðàäèåíò_43"/><linearGradient id="_åçûìßííûé_ãðàäèåíò_43-6" x1="422.78" y1="-59.57" x2="449.53" y2="-250.52" xlink:href="#_åçûìßííûé_ãðàäèåíò_43"/><linearGradient id="_åçûìßííûé_ãðàäèåíò_43-7" x1="418.17" y1="-60.21" x2="444.92" y2="-251.15" xlink:href="#_åçûìßííûé_ãðàäèåíò_43"/><linearGradient id="_åçûìßííûé_ãðàäèåíò_43-8" x1="414.46" y1="-60.74" x2="441.21" y2="-251.68" xlink:href="#_åçûìßííûé_ãðàäèåíò_43"/><linearGradient id="_åçûìßííûé_ãðàäèåíò_43-9" x1="412.12" y1="-61.06" x2="438.87" y2="-252.01" xlink:href="#_åçûìßííûé_ãðàäèåíò_43"/><linearGradient id="_åçûìßííûé_ãðàäèåíò_43-10" x1="407.97" y1="-61.65" x2="434.71" y2="-252.59" xlink:href="#_åçûìßííûé_ãðàäèåíò_43"/><linearGradient id="_åçûìßííûé_ãðàäèåíò_43-11" x1="404.99" y1="-62.06" x2="431.74" y2="-253.01" xlink:href="#_åçûìßííûé_ãðàäèåíò_43"/><linearGradient id="_åçûìßííûé_ãðàäèåíò_43-12" x1="402.48" y1="-62.42" x2="429.22" y2="-253.36" xlink:href="#_åçûìßííûé_ãðàäèåíò_43"/><linearGradient id="_åçûìßííûé_ãðàäèåíò_43-13" x1="399.58" y1="-62.82" x2="426.33" y2="-253.77" xlink:href="#_åçûìßííûé_ãðàäèåíò_43"/><linearGradient id="_åçûìßííûé_ãðàäèåíò_43-14" x1="415.46" y1="-60.6" x2="442.21" y2="-251.54" xlink:href="#_åçûìßííûé_ãðàäèåíò_43"/><linearGradient id="_åçûìßííûé_ãðàäèåíò_43-15" x1="408.15" y1="-61.62" x2="434.9" y2="-252.56" xlink:href="#_åçûìßííûé_ãðàäèåíò_43"/><linearGradient id="_åçûìßííûé_ãðàäèåíò_43-16" x1="402.63" y1="-62.4" x2="429.37" y2="-253.34" xlink:href="#_åçûìßííûé_ãðàäèåíò_43"/><linearGradient id="_åçûìßííûé_ãðàäèåíò_43-17" x1="397.18" y1="-63.16" x2="423.93" y2="-254.1" xlink:href="#_åçûìßííûé_ãðàäèåíò_43"/><linearGradient id="_åçûìßííûé_ãðàäèåíò_43-18" x1="393.52" y1="-63.67" x2="420.27" y2="-254.61" xlink:href="#_åçûìßííûé_ãðàäèåíò_43"/><linearGradient id="_åçûìßííûé_ãðàäèåíò_43-19" x1="390.69" y1="-64.07" x2="417.44" y2="-255.01" xlink:href="#_åçûìßííûé_ãðàäèåíò_43"/><linearGradient id="_åçûìßííûé_ãðàäèåíò_43-20" x1="387.85" y1="-64.47" x2="414.6" y2="-255.4" xlink:href="#_åçûìßííûé_ãðàäèåíò_43"/><linearGradient id="_åçûìßííûé_ãðàäèåíò_43-21" x1="386.63" y1="-64.64" x2="413.38" y2="-255.57" xlink:href="#_åçûìßííûé_ãðàäèåíò_43"/><linearGradient id="_åçûìßííûé_ãðàäèåíò_43-22" x1="384.85" y1="-64.89" x2="411.59" y2="-255.82" xlink:href="#_åçûìßííûé_ãðàäèåíò_43"/><linearGradient id="_åçûìßííûé_ãðàäèåíò_43-23" x1="384.36" y1="-64.95" x2="411.1" y2="-255.89" xlink:href="#_åçûìßííûé_ãðàäèåíò_43"/><linearGradient id="_åçûìßííûé_ãðàäèåíò_43-24" x1="383.85" y1="-65.03" x2="410.6" y2="-255.96" xlink:href="#_åçûìßííûé_ãðàäèåíò_43"/><linearGradient id="_åçûìßííûé_ãðàäèåíò_43-25" x1="142.33" y1="412.82" x2="80.52" y2="160.46" gradientTransform="matrix(1, 0, 0, 1, 0, 0)" xlink:href="#_åçûìßííûé_ãðàäèåíò_43"/><linearGradient id="_åçûìßííûé_ãðàäèåíò_43-26" x1="116.11" y1="419.24" x2="54.31" y2="166.88" gradientTransform="matrix(1, 0, 0, 1, 0, 0)" xlink:href="#_åçûìßííûé_ãðàäèåíò_43"/><linearGradient id="_åçûìßííûé_ãðàäèåíò_43-27" x1="112.75" y1="420.06" x2="50.95" y2="167.7" gradientTransform="matrix(1, 0, 0, 1, 0, 0)" xlink:href="#_åçûìßííûé_ãðàäèåíò_43"/><linearGradient id="_åçûìßííûé_ãðàäèåíò_43-28" x1="121.51" y1="417.92" x2="59.71" y2="165.55" gradientTransform="matrix(1, 0, 0, 1, 0, 0)" xlink:href="#_åçûìßííûé_ãðàäèåíò_43"/><linearGradient id="_åçûìßííûé_ãðàäèåíò_43-29" x1="128.22" y1="416.27" x2="66.42" y2="163.91" gradientTransform="matrix(1, 0, 0, 1, 0, 0)" xlink:href="#_åçûìßííûé_ãðàäèåíò_43"/><linearGradient id="_åçûìßííûé_ãðàäèåíò_43-30" x1="131.67" y1="415.43" x2="69.87" y2="163.07" gradientTransform="matrix(1, 0, 0, 1, 0, 0)" xlink:href="#_åçûìßííûé_ãðàäèåíò_43"/><linearGradient id="_åçûìßííûé_ãðàäèåíò_43-31" x1="134.63" y1="414.7" x2="72.83" y2="162.34" gradientTransform="matrix(1, 0, 0, 1, 0, 0)" xlink:href="#_åçûìßííûé_ãðàäèåíò_43"/><linearGradient id="_åçûìßííûé_ãðàäèåíò_43-32" x1="136.82" y1="414.17" x2="75.02" y2="161.8" gradientTransform="matrix(1, 0, 0, 1, 0, 0)" xlink:href="#_åçûìßííûé_ãðàäèåíò_43"/><linearGradient id="_åçûìßííûé_ãðàäèåíò_43-33" x1="137.67" y1="413.96" x2="75.87" y2="161.6" gradientTransform="matrix(1, 0, 0, 1, 0, 0)" xlink:href="#_åçûìßííûé_ãðàäèåíò_43"/><linearGradient id="_åçûìßííûé_ãðàäèåíò_43-34" x1="139.99" y1="413.39" x2="78.19" y2="161.03" gradientTransform="matrix(1, 0, 0, 1, 0, 0)" xlink:href="#_åçûìßííûé_ãðàäèåíò_43"/><linearGradient id="_åçûìßííûé_ãðàäèåíò_43-35" x1="141.43" y1="413.04" x2="79.63" y2="160.67" gradientTransform="matrix(1, 0, 0, 1, 0, 0)" xlink:href="#_åçûìßííûé_ãðàäèåíò_43"/><linearGradient id="_åçûìßííûé_ãðàäèåíò_43-36" x1="142.51" y1="412.77" x2="80.7" y2="160.41" gradientTransform="matrix(1, 0, 0, 1, 0, 0)" xlink:href="#_åçûìßííûé_ãðàäèåíò_43"/><linearGradient id="_åçûìßííûé_ãðàäèåíò_43-37" x1="144.05" y1="412.39" x2="82.25" y2="160.03" gradientTransform="matrix(1, 0, 0, 1, 0, 0)" xlink:href="#_åçûìßííûé_ãðàäèåíò_43"/><linearGradient id="_åçûìßííûé_ãðàäèåíò_43-38" x1="144.93" y1="412.18" x2="83.12" y2="159.82" gradientTransform="matrix(1, 0, 0, 1, 0, 0)" xlink:href="#_åçûìßííûé_ãðàäèåíò_43"/><linearGradient id="_åçûìßííûé_ãðàäèåíò_43-39" x1="150.37" y1="410.85" x2="88.57" y2="158.48" gradientTransform="matrix(1, 0, 0, 1, 0, 0)" xlink:href="#_åçûìßííûé_ãðàäèåíò_43"/><linearGradient id="_åçûìßííûé_ãðàäèåíò_43-40" x1="153.83" y1="410" x2="92.03" y2="157.64" gradientTransform="matrix(1, 0, 0, 1, 0, 0)" xlink:href="#_åçûìßííûé_ãðàäèåíò_43"/><linearGradient id="_åçûìßííûé_ãðàäèåíò_43-41" x1="157.27" y1="409.16" x2="95.47" y2="156.8" gradientTransform="matrix(1, 0, 0, 1, 0, 0)" xlink:href="#_åçûìßííûé_ãðàäèåíò_43"/><linearGradient id="_åçûìßííûé_ãðàäèåíò_43-42" x1="159.34" y1="408.65" x2="97.54" y2="156.29" gradientTransform="matrix(1, 0, 0, 1, 0, 0)" xlink:href="#_åçûìßííûé_ãðàäèåíò_43"/><linearGradient id="_åçûìßííûé_ãðàäèåíò_43-43" x1="160.65" y1="408.33" x2="98.84" y2="155.97" gradientTransform="matrix(1, 0, 0, 1, 0, 0)" xlink:href="#_åçûìßííûé_ãðàäèåíò_43"/><linearGradient id="_åçûìßííûé_ãðàäèåíò_43-44" x1="161.98" y1="408.01" x2="100.17" y2="155.64" gradientTransform="matrix(1, 0, 0, 1, 0, 0)" xlink:href="#_åçûìßííûé_ãðàäèåíò_43"/><linearGradient id="_åçûìßííûé_ãðàäèåíò_43-45" x1="161.38" y1="408.15" x2="99.58" y2="155.79" gradientTransform="matrix(1, 0, 0, 1, 0, 0)" xlink:href="#_åçûìßííûé_ãðàäèåíò_43"/><linearGradient id="_åçûìßííûé_ãðàäèåíò_43-46" x1="161.68" y1="408.08" x2="99.88" y2="155.72" gradientTransform="matrix(1, 0, 0, 1, 0, 0)" xlink:href="#_åçûìßííûé_ãðàäèåíò_43"/><linearGradient id="_åçûìßííûé_ãðàäèåíò_43-47" x1="160.72" y1="408.31" x2="98.91" y2="155.95" gradientTransform="matrix(1, 0, 0, 1, 0, 0)" xlink:href="#_åçûìßííûé_ãðàäèåíò_43"/><linearGradient id="_åçûìßííûé_ãðàäèåíò_43-48" x1="159.81" y1="408.53" x2="98.01" y2="156.17" gradientTransform="matrix(1, 0, 0, 1, 0, 0)" xlink:href="#_åçûìßííûé_ãðàäèåíò_43"/><linearGradient id="_åçûìßííûé_ãðàäèåíò_3" x1="273.84" y1="163.15" x2="273.84" y2="171.33" gradientUnits="userSpaceOnUse"><stop offset="0" stop-color="#7687f5"/><stop offset="0.34" stop-color="#6272dc"/><stop offset="1" stop-color="#3342a1"/></linearGradient><linearGradient id="_åçûìßííûé_ãðàäèåíò_3-2" x1="408.27" y1="168.21" x2="408.27" y2="176.21" xlink:href="#_åçûìßííûé_ãðàäèåíò_3"/><linearGradient id="_åçûìßííûé_ãðàäèåíò_3-3" x1="408.27" y1="179.93" x2="408.27" y2="213.54" xlink:href="#_åçûìßííûé_ãðàäèåíò_3"/><linearGradient id="_åçûìßííûé_ãðàäèåíò_3-4" x1="227.74" y1="263.96" x2="227.74" y2="388.63" xlink:href="#_åçûìßííûé_ãðàäèåíò_3"/><linearGradient id="_åçûìßííûé_ãðàäèåíò_3-5" x1="190.66" y1="263.96" x2="190.66" y2="388.63" xlink:href="#_åçûìßííûé_ãðàäèåíò_3"/><linearGradient id="_åçûìßííûé_ãðàäèåíò_3-6" x1="191.28" y1="263.96" x2="191.28" y2="388.63" xlink:href="#_åçûìßííûé_ãðàäèåíò_3"/><linearGradient id="_åçûìßííûé_ãðàäèåíò_3-7" x1="200.11" y1="263.96" x2="200.11" y2="388.63" xlink:href="#_åçûìßííûé_ãðàäèåíò_3"/><linearGradient id="_åçûìßííûé_ãðàäèåíò_3-8" x1="207.55" y1="263.96" x2="207.55" y2="388.63" xlink:href="#_åçûìßííûé_ãðàäèåíò_3"/><linearGradient id="_åçûìßííûé_ãðàäèåíò_3-9" x1="212.76" y1="263.96" x2="212.76" y2="388.63" xlink:href="#_åçûìßííûé_ãðàäèåíò_3"/><linearGradient id="_åçûìßííûé_ãðàäèåíò_3-10" x1="217.63" y1="263.96" x2="217.63" y2="388.63" xlink:href="#_åçûìßííûé_ãðàäèåíò_3"/><linearGradient id="_åçûìßííûé_ãðàäèåíò_3-11" x1="221.8" y1="263.96" x2="221.8" y2="388.63" xlink:href="#_åçûìßííûé_ãðàäèåíò_3"/><linearGradient id="_åçûìßííûé_ãðàäèåíò_3-12" x1="225.04" y1="263.96" x2="225.04" y2="388.63" xlink:href="#_åçûìßííûé_ãðàäèåíò_3"/><linearGradient id="_åçûìßííûé_ãðàäèåíò_3-13" x1="229.85" y1="263.96" x2="229.85" y2="388.63" xlink:href="#_åçûìßííûé_ãðàäèåíò_3"/><linearGradient id="_åçûìßííûé_ãðàäèåíò_3-14" x1="233.54" y1="263.96" x2="233.54" y2="388.63" xlink:href="#_åçûìßííûé_ãðàäèåíò_3"/><linearGradient id="_åçûìßííûé_ãðàäèåíò_3-15" x1="236.83" y1="263.96" x2="236.83" y2="388.63" xlink:href="#_åçûìßííûé_ãðàäèåíò_3"/><linearGradient id="_åçûìßííûé_ãðàäèåíò_3-16" x1="240.27" y1="263.96" x2="240.27" y2="388.63" xlink:href="#_åçûìßííûé_ãðàäèåíò_3"/><linearGradient id="_åçûìßííûé_ãðàäèåíò_3-17" x1="210.3" y1="263.96" x2="210.3" y2="388.63" xlink:href="#_åçûìßííûé_ãðàäèåíò_3"/><linearGradient id="_åçûìßííûé_ãðàäèåíò_3-18" x1="217.23" y1="263.96" x2="217.23" y2="388.63" xlink:href="#_åçûìßííûé_ãðàäèåíò_3"/><linearGradient id="_åçûìßííûé_ãðàäèåíò_3-19" x1="223.2" y1="263.96" x2="223.2" y2="388.63" xlink:href="#_åçûìßííûé_ãðàäèåíò_3"/><linearGradient id="_åçûìßííûé_ãðàäèåíò_3-20" x1="229.06" y1="263.96" x2="229.06" y2="388.63" xlink:href="#_åçûìßííûé_ãðàäèåíò_3"/><linearGradient id="_åçûìßííûé_ãðàäèåíò_3-21" x1="233.26" y1="263.96" x2="233.26" y2="388.63" xlink:href="#_åçûìßííûé_ãðàäèåíò_3"/><linearGradient id="_åçûìßííûé_ãðàäèåíò_3-22" x1="236.85" y1="263.96" x2="236.85" y2="388.63" xlink:href="#_åçûìßííûé_ãðàäèåíò_3"/><linearGradient id="_åçûìßííûé_ãðàäèåíò_3-23" x1="240.43" y1="263.96" x2="240.43" y2="388.63" xlink:href="#_åçûìßííûé_ãðàäèåíò_3"/><linearGradient id="_åçûìßííûé_ãðàäèåíò_3-24" x1="243.35" y1="263.96" x2="243.35" y2="388.63" xlink:href="#_åçûìßííûé_ãðàäèåíò_3"/><linearGradient id="_åçûìßííûé_ãðàäèåíò_3-25" x1="246.26" y1="263.96" x2="246.26" y2="388.63" xlink:href="#_åçûìßííûé_ãðàäèåíò_3"/><linearGradient id="_åçûìßííûé_ãðàäèåíò_3-26" x1="248.28" y1="263.96" x2="248.28" y2="388.62" xlink:href="#_åçûìßííûé_ãðàäèåíò_3"/><linearGradient id="_åçûìßííûé_ãðàäèåíò_3-27" x1="250.26" y1="263.96" x2="250.26" y2="388.63" xlink:href="#_åçûìßííûé_ãðàäèåíò_3"/><linearGradient id="_åçûìßííûé_ãðàäèåíò_3-28" x1="249.78" y1="263.96" x2="249.78" y2="388.63" xlink:href="#_åçûìßííûé_ãðàäèåíò_3"/><linearGradient id="_åçûìßííûé_ãðàäèåíò_3-29" x1="238.56" y1="263.96" x2="238.56" y2="388.63" xlink:href="#_åçûìßííûé_ãðàäèåíò_3"/><linearGradient id="_åçûìßííûé_ãðàäèåíò_3-30" x1="236.26" y1="263.96" x2="236.26" y2="388.63" xlink:href="#_åçûìßííûé_ãðàäèåíò_3"/><linearGradient id="_åçûìßííûé_ãðàäèåíò_3-31" x1="240.28" y1="263.96" x2="240.28" y2="388.63" xlink:href="#_åçûìßííûé_ãðàäèåíò_3"/><linearGradient id="_åçûìßííûé_ãðàäèåíò_3-32" x1="243.23" y1="263.96" x2="243.23" y2="388.63" xlink:href="#_åçûìßííûé_ãðàäèåíò_3"/><linearGradient id="_åçûìßííûé_ãðàäèåíò_3-33" x1="244.49" y1="263.96" x2="244.49" y2="388.63" xlink:href="#_åçûìßííûé_ãðàäèåíò_3"/><linearGradient id="_åçûìßííûé_ãðàäèåíò_3-34" x1="245.49" y1="263.96" x2="245.49" y2="388.63" xlink:href="#_åçûìßííûé_ãðàäèåíò_3"/><linearGradient id="_åçûìßííûé_ãðàäèåíò_3-35" x1="246.13" y1="263.96" x2="246.13" y2="388.63" xlink:href="#_åçûìßííûé_ãðàäèåíò_3"/><linearGradient id="_åçûìßííûé_ãðàäèåíò_3-36" x1="246.07" y1="263.96" x2="246.07" y2="388.63" xlink:href="#_åçûìßííûé_ãðàäèåíò_3"/><linearGradient id="_åçûìßííûé_ãðàäèåíò_3-37" x1="246.66" y1="263.96" x2="246.66" y2="388.63" xlink:href="#_åçûìßííûé_ãðàäèåíò_3"/><linearGradient id="_åçûìßííûé_ãðàäèåíò_3-38" x1="246.91" y1="263.96" x2="246.91" y2="388.63" xlink:href="#_åçûìßííûé_ãðàäèåíò_3"/><linearGradient id="_åçûìßííûé_ãðàäèåíò_3-39" x1="246.98" y1="263.96" x2="246.98" y2="388.63" xlink:href="#_åçûìßííûé_ãðàäèåíò_3"/><linearGradient id="_åçûìßííûé_ãðàäèåíò_3-40" x1="247.34" y1="263.96" x2="247.34" y2="388.63" xlink:href="#_åçûìßííûé_ãðàäèåíò_3"/><linearGradient id="_åçûìßííûé_ãðàäèåíò_3-41" x1="253.46" y1="263.96" x2="253.46" y2="388.63" xlink:href="#_åçûìßííûé_ãðàäèåíò_3"/><linearGradient id="_åçûìßííûé_ãðàäèåíò_3-42" x1="255.71" y1="263.96" x2="255.71" y2="388.63" xlink:href="#_åçûìßííûé_ãðàäèåíò_3"/><linearGradient id="_åçûìßííûé_ãðàäèåíò_3-43" x1="256.83" y1="263.96" x2="256.83" y2="388.63" xlink:href="#_åçûìßííûé_ãðàäèåíò_3"/><linearGradient id="_åçûìßííûé_ãðàäèåíò_3-44" x1="257.97" y1="263.96" x2="257.97" y2="388.63" xlink:href="#_åçûìßííûé_ãðàäèåíò_3"/><linearGradient id="_åçûìßííûé_ãðàäèåíò_3-45" x1="258.52" y1="263.96" x2="258.52" y2="388.63" xlink:href="#_åçûìßííûé_ãðàäèåíò_3"/><linearGradient id="_åçûìßííûé_ãðàäèåíò_3-46" x1="258.69" y1="263.96" x2="258.69" y2="388.63" xlink:href="#_åçûìßííûé_ãðàäèåíò_3"/><linearGradient id="_åçûìßííûé_ãðàäèåíò_3-47" x1="258.88" y1="263.96" x2="258.88" y2="388.63" xlink:href="#_åçûìßííûé_ãðàäèåíò_3"/><linearGradient id="_åçûìßííûé_ãðàäèåíò_3-48" x1="257.95" y1="263.96" x2="257.95" y2="388.63" xlink:href="#_åçûìßííûé_ãðàäèåíò_3"/><linearGradient id="_åçûìßííûé_ãðàäèåíò_3-49" x1="257.6" y1="263.96" x2="257.6" y2="388.63" xlink:href="#_åçûìßííûé_ãðàäèåíò_3"/><linearGradient id="_åçûìßííûé_ãðàäèåíò_3-50" x1="256.6" y1="263.96" x2="256.6" y2="388.63" xlink:href="#_åçûìßííûé_ãðàäèåíò_3"/><linearGradient id="_åçûìßííûé_ãðàäèåíò_3-51" x1="255.65" y1="263.96" x2="255.65" y2="388.63" xlink:href="#_åçûìßííûé_ãðàäèåíò_3"/><linearGradient id="_åçûìßííûé_ãðàäèåíò_3-52" x1="268.19" y1="263.96" x2="268.19" y2="388.63" xlink:href="#_åçûìßííûé_ãðàäèåíò_3"/><linearGradient id="_åçûìßííûé_ãðàäèåíò_3-53" x1="294.83" y1="263.96" x2="294.83" y2="388.63" xlink:href="#_åçûìßííûé_ãðàäèåíò_3"/><linearGradient id="_åçûìßííûé_ãðàäèåíò_3-54" x1="294.39" y1="263.96" x2="294.39" y2="388.63" xlink:href="#_åçûìßííûé_ãðàäèåíò_3"/><linearGradient id="_åçûìßííûé_ãðàäèåíò_3-55" x1="288.04" y1="263.96" x2="288.04" y2="388.63" xlink:href="#_åçûìßííûé_ãðàäèåíò_3"/><linearGradient id="_åçûìßííûé_ãðàäèåíò_3-56" x1="282.7" y1="263.96" x2="282.7" y2="388.63" xlink:href="#_åçûìßííûé_ãðàäèåíò_3"/><linearGradient id="_åçûìßííûé_ãðàäèåíò_3-57" x1="278.96" y1="263.96" x2="278.96" y2="388.63" xlink:href="#_åçûìßííûé_ãðàäèåíò_3"/><linearGradient id="_åçûìßííûé_ãðàäèåíò_3-58" x1="275.45" y1="263.96" x2="275.45" y2="388.63" xlink:href="#_åçûìßííûé_ãðàäèåíò_3"/><linearGradient id="_åçûìßííûé_ãðàäèåíò_3-59" x1="272.46" y1="263.96" x2="272.46" y2="388.63" xlink:href="#_åçûìßííûé_ãðàäèåíò_3"/><linearGradient id="_åçûìßííûé_ãðàäèåíò_3-60" x1="270.13" y1="263.96" x2="270.13" y2="388.63" xlink:href="#_åçûìßííûé_ãðàäèåíò_3"/><linearGradient id="_åçûìßííûé_ãðàäèåíò_3-61" x1="266.68" y1="263.96" x2="266.68" y2="388.63" xlink:href="#_åçûìßííûé_ãðàäèåíò_3"/><linearGradient id="_åçûìßííûé_ãðàäèåíò_3-62" x1="264.03" y1="263.96" x2="264.03" y2="388.63" xlink:href="#_åçûìßííûé_ãðàäèåíò_3"/><linearGradient id="_åçûìßííûé_ãðàäèåíò_3-63" x1="261.66" y1="263.96" x2="261.66" y2="388.63" xlink:href="#_åçûìßííûé_ãðàäèåíò_3"/><linearGradient id="_åçûìßííûé_ãðàäèåíò_3-64" x1="259.19" y1="263.96" x2="259.19" y2="388.63" xlink:href="#_åçûìßííûé_ãðàäèåíò_3"/><linearGradient id="_åçûìßííûé_ãðàäèåíò_3-65" x1="280.72" y1="263.96" x2="280.72" y2="388.63" xlink:href="#_åçûìßííûé_ãðàäèåíò_3"/><linearGradient id="_åçûìßííûé_ãðàäèåíò_3-66" x1="275.75" y1="263.96" x2="275.75" y2="388.63" xlink:href="#_åçûìßííûé_ãðàäèåíò_3"/><linearGradient id="_åçûìßííûé_ãðàäèåíò_3-67" x1="271.45" y1="263.96" x2="271.45" y2="388.63" xlink:href="#_åçûìßííûé_ãðàäèåíò_3"/><linearGradient id="_åçûìßííûé_ãðàäèåíò_3-68" x1="267.25" y1="263.96" x2="267.25" y2="388.63" xlink:href="#_åçûìßííûé_ãðàäèåíò_3"/><linearGradient id="_åçûìßííûé_ãðàäèåíò_3-69" x1="264.23" y1="263.96" x2="264.23" y2="388.63" xlink:href="#_åçûìßííûé_ãðàäèåíò_3"/><linearGradient id="_åçûìßííûé_ãðàäèåíò_3-70" x1="261.65" y1="263.96" x2="261.65" y2="388.63" xlink:href="#_åçûìßííûé_ãðàäèåíò_3"/><linearGradient id="_åçûìßííûé_ãðàäèåíò_3-71" x1="259.08" y1="263.96" x2="259.08" y2="388.63" xlink:href="#_åçûìßííûé_ãðàäèåíò_3"/><linearGradient id="_åçûìßííûé_ãðàäèåíò_3-72" x1="256.98" y1="263.96" x2="256.98" y2="388.63" xlink:href="#_åçûìßííûé_ãðàäèåíò_3"/><linearGradient id="_åçûìßííûé_ãðàäèåíò_3-73" x1="254.89" y1="263.96" x2="254.89" y2="388.63" xlink:href="#_åçûìßííûé_ãðàäèåíò_3"/><linearGradient id="_åçûìßííûé_ãðàäèåíò_3-74" x1="253.43" y1="263.96" x2="253.43" y2="388.63" xlink:href="#_åçûìßííûé_ãðàäèåíò_3"/><linearGradient id="_åçûìßííûé_ãðàäèåíò_3-75" x1="252.01" y1="263.96" x2="252.01" y2="388.63" xlink:href="#_åçûìßííûé_ãðàäèåíò_3"/><linearGradient id="_åçûìßííûé_ãðàäèåíò_115" x1="356.81" y1="307.18" x2="369.19" y2="307.18" gradientUnits="userSpaceOnUse"><stop offset="0" stop-color="#ffcdb1"/><stop offset="0.2" stop-color="#ffbb93"/><stop offset="1" stop-color="#ffa065"/></linearGradient><linearGradient id="_åçûìßííûé_ãðàäèåíò_115-2" x1="-2485.7" y1="1435.97" x2="-2485.7" y2="1465.51" gradientTransform="matrix(-1, 0.08, 0.08, 1, -2169.83, -1006.91)" xlink:href="#_åçûìßííûé_ãðàäèåíò_115"/><linearGradient id="_åçûìßííûé_ãðàäèåíò_115-3" x1="-2189.36" y1="235.04" x2="-2189.36" y2="264.54" gradientTransform="matrix(-1, 0, 0, 1, -1764.01, 0)" xlink:href="#_åçûìßííûé_ãðàäèåíò_115"/><linearGradient id="_åçûìßííûé_ãðàäèåíò_115-4" x1="375.33" y1="305.85" x2="387.71" y2="305.85" xlink:href="#_åçûìßííûé_ãðàäèåíò_115"/><linearGradient id="_åçûìßííûé_ãðàäèåíò_3-76" x1="109.05" y1="193.48" x2="190.85" y2="229" xlink:href="#_åçûìßííûé_ãðàäèåíò_3"/></defs><ellipse class="cls-1" cx="273.39" cy="411.14" rx="269.84" ry="19.72"/><path class="cls-2" d="M123.65,394.91S14.73,162.2,163.53,137.35c0,0,58.24-12.49,108.13,35.15s114.82-20.76,114.82-20.76,33-34.58,64.68,0-18.41,250.52-18.41,250.52Z"/><path class="cls-3" d="M395.19,380.07a766.74,766.74,0,0,1,31.61-86.56c11.5-26,24.64-51.49,41.29-74.64a217,217,0,0,1,21.18-25.15,178.61,178.61,0,0,0-22.43,24.21c-14.87,19.19-26.78,40.52-37.07,62.45a525.94,525.94,0,0,0-34.58,99.69Z"/><path class="cls-4" d="M489.29,193.77c10.63-7,20.87-14.15,32.36-19.56,1.63-.81,3.3-1.52,5-2.35-14-.23-30.09,10.27-37.36,21.91Z"/><path class="cls-5" d="M483.21,199.73c13-2.4,26-5.13,39.24-3.67,1.88.21,3.76.53,5.71.86a21.61,21.61,0,0,0-2.52-1.56c-.4-.21-.92-.49-1.33-.66-12.33-5.62-30.15-2.49-41.1,5Z"/><path class="cls-6" d="M471.32,213.72c11.33-2.66,22.64-5.72,34.32-4.36,1.66.19,3.3.51,5,.84a16.87,16.87,0,0,0-2.17-1.47c-.33-.19-.81-.47-1.16-.63-11-5.36-26.74-1.78-36,5.62Z"/><path class="cls-7" d="M459.43,227.7c10.91-2.71,21.81-5.86,33.11-4.53,1.59.19,3.18.51,4.85.84a16.19,16.19,0,0,0-2.09-1.45,12.23,12.23,0,0,0-1.12-.62c-10.62-5.29-25.93-1.58-34.75,5.76Z"/><path class="cls-8" d="M451.51,242.19c10.11-2.81,20.27-6.14,30.85-4.85,1.49.18,3,.5,4.53.83a14.15,14.15,0,0,0-1.92-1.41c-.3-.19-.73-.45-1-.6-10-5.18-24.39-1.22-32.42,6Z"/><path class="cls-9" d="M442.39,256.52c10.36-2.78,20.77-6,31.57-4.75,1.53.19,3.05.5,4.64.84a14.55,14.55,0,0,0-2-1.43c-.31-.18-.75-.45-1.07-.61-10.19-5.21-24.88-1.33-33.17,5.95Z"/><path class="cls-10" d="M435.1,270.07c10.21-2.79,20.47-6.1,31.13-4.81,1.51.19,3,.5,4.58.84a15.08,15.08,0,0,0-1.94-1.42c-.31-.18-.74-.45-1.05-.6-10.06-5.19-24.6-1.26-32.72,6Z"/><path class="cls-11" d="M428.9,283.76c10.24-2.79,20.53-6.09,31.22-4.8,1.51.19,3,.51,4.59.84a14.52,14.52,0,0,0-1.95-1.42c-.3-.18-.74-.45-1.05-.6-10.09-5.2-24.65-1.28-32.81,6Z"/><path class="cls-12" d="M421.92,300.38c9.16-2.91,18.35-6.47,28.08-5.25,1.36.19,2.72.5,4.15.84a14.22,14.22,0,0,0-3.67-2.46c-9.19-4.17-21.72,0-28.56,6.87Z"/><path class="cls-13" d="M416.49,314.38c8.28-3,16.63-6.78,25.59-5.6a33.16,33.16,0,0,1,3.81.84,12.2,12.2,0,0,0-3.32-2.38c-8.45-4-20.19.46-26.08,7.14Z"/><path class="cls-14" d="M411.18,327.61c7.77-3,15.57-7,24.06-5.83a30.09,30.09,0,0,1,3.6.85c-7.61-7.76-21.68-2.4-27.66,5Z"/><path class="cls-15" d="M407.21,340c4.7-2.29,9.08-5,14.13-6.17a14.67,14.67,0,0,1,5.83-.25,17.93,17.93,0,0,1,3,.86,8.48,8.48,0,0,0-2.55-2.2c-7-3.73-16.53,1.69-20.45,7.76Z"/><path class="cls-16" d="M474.64,161.13c2.41,13,5.13,26,3.67,39.24-.21,1.88-.53,3.76-.86,5.71a21.61,21.61,0,0,0,1.56-2.52c.21-.4.49-.92.66-1.33,5.62-12.33,2.49-30.15-5-41.1Z"/><path class="cls-17" d="M462.46,179.28c2.66,11.33,5.72,22.64,4.36,34.32-.19,1.66-.51,3.3-.84,5a16.87,16.87,0,0,0,1.47-2.17c.19-.33.47-.81.63-1.16,5.36-11,1.78-26.75-5.62-36Z"/><path class="cls-18" d="M451.69,198.08c2.72,10.92,5.87,21.82,4.53,33.11-.19,1.6-.5,3.19-.83,4.86a16.91,16.91,0,0,0,1.45-2.09c.19-.32.46-.78.62-1.12,5.29-10.62,1.58-25.93-5.77-34.76Z"/><path class="cls-19" d="M441.12,216.82c2.8,10.11,6.14,20.26,4.85,30.84-.19,1.5-.5,3-.84,4.54a14.81,14.81,0,0,0,1.41-1.92c.19-.3.46-.73.61-1,5.17-10,1.21-24.4-6-32.42Z"/><path class="cls-20" d="M433.48,230.67c2.78,10.36,6.06,20.76,4.75,31.57-.19,1.52-.5,3-.84,4.64a14.64,14.64,0,0,0,1.43-2c.19-.31.46-.75.61-1.07,5.21-10.19,1.33-24.88-5.95-33.16Z"/><path class="cls-21" d="M426.78,244.66c2.79,10.21,6.1,20.47,4.81,31.14-.19,1.5-.5,3-.84,4.57a13.6,13.6,0,0,0,1.42-1.94c.19-.3.46-.74.61-1.05,5.19-10.06,1.26-24.6-6-32.72Z"/><path class="cls-22" d="M420.12,258.29c2.79,10.24,6.1,20.53,4.8,31.22-.19,1.51-.5,3-.84,4.59a13.7,13.7,0,0,0,1.42-2c.19-.3.46-.74.61-1,5.19-10.09,1.27-24.65-6-32.81Z"/><path class="cls-23" d="M414,277c2.91,9.17,6.48,18.36,5.25,28.08-.19,1.37-.5,2.73-.84,4.16a14.39,14.39,0,0,0,2.46-3.67c4.17-9.2,0-21.73-6.87-28.57Z"/><path class="cls-24" d="M408.27,292.12c3,8.29,6.78,16.64,5.6,25.6a33.63,33.63,0,0,1-.84,3.81,12.4,12.4,0,0,0,2.38-3.33c4-8.45-.46-20.18-7.14-26.08Z"/><path class="cls-25" d="M403.88,306.86c3,7.77,7,15.57,5.83,24.06a28.28,28.28,0,0,1-.85,3.6c7.76-7.61,2.4-21.68-5-27.66Z"/><path class="cls-26" d="M399.54,322.21c2.25,4.59,4.83,8.87,6.1,13.77a14.51,14.51,0,0,1-.53,9.22,8.62,8.62,0,0,0,2.2-2.55c3.73-7-1.7-16.53-7.77-20.44Z"/><path class="cls-27" d="M148.92,403.67A780.41,780.41,0,0,0,128,312.32c-8.31-27.73-18.36-55.09-32.23-80.55a219.53,219.53,0,0,0-18.19-28.06A181,181,0,0,1,97.12,231c12.58,21.25,21.9,44.27,29.52,67.71a535.16,535.16,0,0,1,22.28,105Z"/><path class="cls-28" d="M77.52,203.75c-9.84-8.38-19.27-16.92-30.18-23.83-1.54-1-3.14-2-4.75-3,14.11,1.54,29.06,14.18,34.93,26.84Z"/><path class="cls-29" d="M82.9,210.54c-12.84-4.08-25.58-8.47-39.14-8.67-1.92,0-3.86.06-5.87.14a22.57,22.57,0,0,1,2.74-1.25c.44-.16,1-.38,1.43-.5,13.15-4.11,30.74,1.3,40.84,10.28Z"/><path class="cls-30" d="M93.14,226.16C82,222,71,217.52,59.05,217.41c-1.7,0-3.4.1-5.18.22a17.16,17.16,0,0,1,2.38-1.21,12,12,0,0,1,1.25-.49c11.75-4,27.22,1.59,35.64,10.23Z"/><path class="cls-31" d="M103.37,241.77C92.7,237.65,82.09,233.1,70.53,233c-1.64,0-3.28.11-5,.24a15.12,15.12,0,0,1,2.29-1.2,11.35,11.35,0,0,1,1.21-.49c11.39-4,26.37,1.68,34.35,10.21Z"/><path class="cls-32" d="M109.52,257.39c-9.84-4.11-19.67-8.76-30.51-8.8-1.53,0-3.07.13-4.69.28a15.16,15.16,0,0,1,2.12-1.19c.33-.15.8-.36,1.13-.47,10.73-4,24.77,1.86,32,10.18Z"/><path class="cls-33" d="M116.91,273c-10.1-4.11-20.19-8.73-31.26-8.78-1.56,0-3.14.12-4.79.25A14.78,14.78,0,0,1,83,263.3c.33-.15.81-.37,1.15-.48,10.94-4,25.28,1.8,32.72,10.19Z"/><path class="cls-34" d="M122.56,287.61c-10-4.11-19.88-8.75-30.82-8.79-1.54,0-3.09.13-4.72.27a14.42,14.42,0,0,1,2.14-1.19c.33-.15.8-.37,1.14-.48,10.81-4,25,1.84,32.26,10.19Z"/><path class="cls-35" d="M127.08,302.21c-10-4.11-19.94-8.74-30.9-8.79-1.55,0-3.1.13-4.74.27a15.49,15.49,0,0,1,2.15-1.19c.33-.15.8-.37,1.14-.48,10.84-4,25,1.83,32.35,10.19Z"/><path class="cls-36" d="M132,319.87c-8.89-4.1-17.71-8.86-27.68-8.85-1.4,0-2.81.15-4.3.32a14.45,14.45,0,0,1,4-2c9.8-3,21.92,2.74,28,10.55Z"/><path class="cls-37" d="M135.74,334.69c-8-4.05-15.94-8.95-25.13-8.9a34.78,34.78,0,0,0-4,.37,12.85,12.85,0,0,1,3.66-2c9-3,20.31,3,25.42,10.52Z"/><path class="cls-38" d="M139.42,348.71c-7.46-4-14.84-9-23.55-8.93a31.55,31.55,0,0,0-3.74.4c8.67-6.86,22.18.32,27.29,8.53Z"/><path class="cls-39" d="M141.85,361.73c-4.45-2.91-8.53-6.17-13.48-8a15.26,15.26,0,0,0-5.84-1,19.67,19.67,0,0,0-3.18.49,8.89,8.89,0,0,1,2.85-1.9c7.57-2.87,16.47,3.81,19.65,10.43Z"/><path class="cls-40" d="M96.44,172.66C92.36,185.5,88,198.24,87.77,211.8c0,1.93.06,3.86.14,5.87a22.57,22.57,0,0,1-1.25-2.74c-.16-.43-.38-1-.5-1.43-4.11-13.15,1.3-30.74,10.28-40.84Z"/><path class="cls-41" d="M106.43,192.52c-4.12,11.1-8.63,22.13-8.74,34.09,0,1.69.1,3.39.21,5.17a17,17,0,0,1-1.21-2.37c-.15-.37-.37-.89-.49-1.26-4-11.75,1.59-27.22,10.23-35.63Z"/><path class="cls-42" d="M114.92,212.86c-4.12,10.67-8.68,21.28-8.76,32.84,0,1.64.11,3.28.23,5a16.63,16.63,0,0,1-1.2-2.29c-.15-.35-.37-.85-.49-1.21-4-11.39,1.69-26.37,10.22-34.35Z"/><path class="cls-43" d="M123.22,233.1c-4.11,9.85-8.76,19.68-8.79,30.52,0,1.53.12,3.07.27,4.69a15.75,15.75,0,0,1-1.19-2.12c-.14-.33-.36-.8-.47-1.13-4-10.74,1.86-24.77,10.18-32Z"/><path class="cls-44" d="M129.17,248.05c-4.11,10.1-8.73,20.19-8.78,31.26,0,1.56.12,3.14.26,4.79a14,14,0,0,1-1.19-2.18c-.15-.33-.37-.81-.48-1.15-4-10.94,1.8-25.28,10.19-32.72Z"/><path class="cls-45" d="M134.17,263c-4.11,10-8.75,19.88-8.79,30.81,0,1.55.12,3.1.26,4.73a14.87,14.87,0,0,1-1.18-2.14c-.15-.33-.37-.8-.48-1.14-4-10.81,1.84-25,10.19-32.26Z"/><path class="cls-46" d="M139.16,277.62c-4.11,10-8.74,19.94-8.79,30.9,0,1.55.13,3.1.27,4.74a15.49,15.49,0,0,1-1.19-2.15c-.15-.33-.36-.8-.48-1.14-4-10.84,1.83-25,10.19-32.35Z"/><path class="cls-47" d="M142.94,297.27c-4.09,8.88-8.85,17.71-8.84,27.68a40.55,40.55,0,0,0,.32,4.3,14.32,14.32,0,0,1-2-4c-3.05-9.81,2.73-21.93,10.54-28Z"/><path class="cls-48" d="M146.85,313.26c-4,8-8.95,15.93-8.89,25.12a32.38,32.38,0,0,0,.36,3.95,12.63,12.63,0,0,1-2-3.65c-3-9,3-20.32,10.51-25.42Z"/><path class="cls-49" d="M149.41,328.69c-4,7.46-9,14.83-8.93,23.55a31.55,31.55,0,0,0,.4,3.74c-6.86-8.67.32-22.19,8.53-27.29Z"/><path class="cls-50" d="M151.85,344.72c-2.86,4.35-6,8.35-7.89,13.14a14.74,14.74,0,0,0-.64,9.37,8.73,8.73,0,0,1-1.9-2.85c-2.87-7.57,3.81-16.47,10.43-19.66Z"/><path class="cls-51" d="M139.18,379.64S57.09,376,43.65,284.11C43.65,284.11,128.24,288,139.18,379.64Z"/><path class="cls-52" d="M139.18,379.64A1024.87,1024.87,0,0,1,65.07,305a1024.89,1024.89,0,0,1,74.11,74.61Z"/><polygon class="cls-52" points="85.68 327.16 63.16 322.22 85.64 324.21 85.68 327.16 85.68 327.16"/><polygon class="cls-52" points="104.73 346.57 84.11 346.08 104.6 343.7 104.73 346.57 104.73 346.57"/><polygon class="cls-52" points="93.43 335.34 94.68 316.37 96.3 335.31 93.43 335.34 93.43 335.34"/><polygon class="cls-52" points="116.15 357.73 118.5 338.62 119.02 357.87 116.15 357.73 116.15 357.73"/><path class="cls-52" d="M136.12,375.15s-44.13-38.76-10.53-96C125.59,279.16,171,319.18,136.12,375.15Z"/><path class="cls-51" d="M136.12,375.15a729.39,729.39,0,0,1-8-74.75,735,735,0,0,1,8,74.75Z"/><polygon class="cls-51" points="129.77 321.96 119.42 309.14 131.06 320.3 129.77 321.96 129.77 321.96"/><polygon class="cls-51" points="131.71 341.31 120.43 331.81 132.92 339.65 131.71 341.31 131.71 341.31"/><polygon class="cls-51" points="130.43 329.99 139.61 319.97 132.04 331.26 130.43 329.99 130.43 329.99"/><polygon class="cls-51" points="133.08 352.64 142.94 343.03 134.62 354 133.08 352.64 133.08 352.64"/><path class="cls-53" d="M110.59,406.86c-13.79-.24-27.46-.34-41.21-.2-3.87,0-7.76,0-11.61.41s-7.71.93-11.48.89a57.82,57.82,0,0,1-7.08-.5q-5-.63-10-1.67c-1.95-.42-3.91-.89-5.84-1.41s-4.07-1.11-6.15-1.9a1,1,0,0,1-.33-1.59,24.23,24.23,0,0,1,2.65-2.13,38.63,38.63,0,0,1,7.18-3.89,49.81,49.81,0,0,1,22.77-3.73c4.53.46,9,1.59,13.47,2.33A277.85,277.85,0,0,1,93.75,400c4.77,1.3,9.61,2.71,14.3,4.28.66.21,2.17.72,2.84,1a.82.82,0,0,1-.3,1.6Z"/><path class="cls-53" d="M109.4,406.8a349.62,349.62,0,0,0-44.51-14C58.58,391.25,52,391.45,45.68,390c-6.52-1.44-13.19-3.38-19.83-4.42-.82-.13-2.18-.31-3-.42-.54-.06-1.11-.11-1.7-.2a1,1,0,0,1-.65-1.45c5.22-7.56,15.6-10.27,24.33-10.31,8.76-.25,16.39,3.84,24.16,7.14a160.72,160.72,0,0,1,21.61,11.19,179.44,179.44,0,0,1,19.68,13.84.83.83,0,0,1-.84,1.4Z"/><path class="cls-53" d="M109.78,406.18a195.2,195.2,0,0,0-26.67-19.72,95.73,95.73,0,0,0-14.18-7.59c-3.25-1.28-6.62-2.27-9.77-3.7-1.56-.7-3.07-1.48-4.57-2.31-5-2.8-10.14-5.89-15-9.16-1.31-.88-2.53-1.68-3.82-2.7a1,1,0,0,1-.18-1.38.89.89,0,0,1,.3-.25,20.28,20.28,0,0,1,3-1.32,29,29,0,0,1,4.63-1.22c8.33-1.48,18.15,0,25.46,4.31,4.31,2.57,8.08,6,12,9.05a121.92,121.92,0,0,1,20.47,20.71,110.45,110.45,0,0,1,9.65,14.29.82.82,0,0,1-1.29,1Z"/><path class="cls-53" d="M108,406c-5.63-8.19-12-17.3-17.89-25.23a146.6,146.6,0,0,0-9.27-12,76.25,76.25,0,0,1-6.59-7.46,35.34,35.34,0,0,1-2.53-4.17,76.67,76.67,0,0,1-5.27-13c-.39-1.25-.82-2.8-1.12-4.08a27.42,27.42,0,0,1-.64-3.06,1.13,1.13,0,0,1,1.21-1.28,25.58,25.58,0,0,1,7.42,1.93A40.51,40.51,0,0,1,88,348.51a29.66,29.66,0,0,1,4.26,6.89c1.46,3.22,2.71,6.73,4.2,9.93a174.39,174.39,0,0,1,6.87,17.19c1.39,4.06,2.77,8.45,3.9,12.58.93,3.39,1.79,6.78,2.48,10.24A.92.92,0,0,1,108,406Z"/><path class="cls-53" d="M109.21,406A303,303,0,0,1,97.9,368.14c-1-4.78-3.6-9.3-4-14.2-.38-5.66,1.88-12.23,4.71-17.16a36.44,36.44,0,0,1,3.48-5,26.23,26.23,0,0,1,2.37-2.56A2,2,0,0,1,107,329a35,35,0,0,1,8.35,9.12c2.64,4.17,4.9,9.23,5.18,14.13.17,3.27-.74,6.53-1.42,9.72-1,4.84-1.18,9.7-1.92,14.58-.9,6.4-2.06,13.12-3.3,19.47-.64,3.26-1.33,6.51-2.14,9.77a1.35,1.35,0,0,1-2.56.16Z"/><path class="cls-52" d="M109.91,387l5.54-6.63-5.6,5q-.25-6.48-.7-13l4.9-6.6-5,5q-.18-2.51-.39-5h0q-.53-6.31-1.22-12.59,0,5.78.23,11.55l-6-6.32,6.06,8.28q.19,5.31.51,10.6l-6.61-4.6,6.71,6.22q.69,10.77,1.87,21.51Q110.15,393.64,109.91,387Z"/><path class="cls-52" d="M84.91,370.87l7.29,3.44q5.4,9.35,11.11,18.51Q100.2,386.9,97,381l.62-7.59-1.42,6.14Q93,373.91,89.75,368.3l.21-7.37-1,6q-1.28-2.16-2.56-4.32h0q-3.24-5.43-6.59-10.79,2.68,5.12,5.46,10.18l-6.87-3.76,7.81,5.48q2.56,4.65,5.21,9.25Z"/><path class="cls-52" d="M81.16,379.1q8.5,6.63,17.23,13-5.1-4.32-10.29-8.53l-2.28-7.27,1,6.23q-5.06-4.08-10.18-8.06l-2.58-6.91,1.28,5.9q-2-1.53-4-3h0q-5-3.83-10.15-7.54,4.41,3.73,8.88,7.39l-7.77-.9,9.3,2.14q4.13,3.34,8.29,6.62l-6.77.55Z"/><path class="cls-52" d="M71.91,388.81q10.38,3,20.84,5.63-6.34-2.1-12.73-4.09l-4.82-5.9,3.23,5.41Q72.23,388,66,386.17l-5-5.45,3.38,5-4.84-1.34h0q-6.11-1.68-12.23-3.22,5.47,1.83,11,3.55l-7.54,2.06,9.42-1.47q5.07,1.57,10.17,3.06l-6.09,3Z"/><path class="cls-52" d="M66.75,400.77q10.74,1,21.52,1.64-6.63-.89-13.27-1.64l-5.83-4.9,4.18,4.71q-6.45-.7-12.92-1.29l-5.89-4.43,4.26,4.28-5-.41h0q-6.3-.5-12.61-.87,5.71.76,11.46,1.44l-7,3.43,9-3.21c3.52.4,7,.77,10.56,1.11l-5.42,4.11Z"/><path class="cls-53" d="M103.85,406.86c13.79-.24,27.45-.34,41.2-.2,3.87,0,7.77,0,11.62.41s7.7.93,11.48.89a58,58,0,0,0,7.08-.5q5-.63,10-1.67c1.94-.42,3.9-.89,5.83-1.41a62.88,62.88,0,0,0,6.15-1.9,1,1,0,0,0,.34-1.59,26.29,26.29,0,0,0-2.65-2.13,38.63,38.63,0,0,0-7.18-3.89,49.85,49.85,0,0,0-22.77-3.73c-4.53.46-9,1.59-13.48,2.33A278.17,278.17,0,0,0,120.69,400c-4.78,1.3-9.61,2.71-14.31,4.28-.66.21-2.17.72-2.83,1a.82.82,0,0,0,.3,1.6Z"/><path class="cls-53" d="M105,406.8a350.63,350.63,0,0,1,44.51-14c6.32-1.52,12.91-1.32,19.21-2.74,6.53-1.44,13.19-3.38,19.83-4.42.82-.13,2.19-.31,3-.42.55-.06,1.12-.11,1.71-.2a1,1,0,0,0,.65-1.45c-5.23-7.56-15.61-10.27-24.33-10.31-8.76-.25-16.4,3.84-24.16,7.14a160.12,160.12,0,0,0-21.61,11.19,179.57,179.57,0,0,0-19.69,13.84.83.83,0,0,0,.84,1.4Z"/><path class="cls-53" d="M104.66,406.18a194.59,194.59,0,0,1,26.67-19.72,95.73,95.73,0,0,1,14.18-7.59c3.25-1.28,6.61-2.27,9.77-3.7,1.55-.7,3.07-1.48,4.56-2.31,5-2.8,10.15-5.89,15-9.16,1.3-.88,2.53-1.68,3.82-2.7a1,1,0,0,0,.18-1.38,1,1,0,0,0-.3-.25,20.39,20.39,0,0,0-3-1.32,28.43,28.43,0,0,0-4.63-1.22c-8.32-1.48-18.14,0-25.45,4.31-4.32,2.57-8.08,6-12,9.05A122.23,122.23,0,0,0,113,390.9a109.44,109.44,0,0,0-9.65,14.29.82.82,0,0,0,1.29,1Z"/><path class="cls-53" d="M106.41,406c5.64-8.19,12-17.3,17.9-25.23a146.6,146.6,0,0,1,9.27-12,77.59,77.59,0,0,0,6.59-7.46,35.34,35.34,0,0,0,2.53-4.17,77.51,77.51,0,0,0,5.27-13c.39-1.25.81-2.8,1.12-4.08a30,30,0,0,0,.63-3.06,1.12,1.12,0,0,0-1.2-1.28,25.73,25.73,0,0,0-7.43,1.93,38.82,38.82,0,0,0-10.77,6.88,36.52,36.52,0,0,0-3.85,3.92,29.66,29.66,0,0,0-4.26,6.89c-1.46,3.22-2.71,6.73-4.2,9.93a174.46,174.46,0,0,0-6.88,17.19c-1.38,4.06-2.76,8.45-3.89,12.58-.94,3.39-1.79,6.78-2.48,10.24a.91.91,0,0,0,1.65.69Z"/><path class="cls-52" d="M128.5,370.39l-5.41,1.36c.59-1.18,1.17-2.37,1.75-3.56h0q2.19-4.5,4.25-9.06-2.31,3.94-4.5,8l-1.54-6.72.79,8.09q-2,3.69-3.93,7.42l-2.65-5.8,2.07,6.95q-3.89,7.61-7.4,15.4,2.66-4.57,5.19-9.23l6.44-2.28L117.76,382q2.43-4.51,4.75-9.11Z"/><path class="cls-52" d="M141.66,378.42l-5.42-1.33c1.07-.77,2.15-1.54,3.22-2.33h0q4-3,8-6-3.89,2.42-7.71,4.92l1.79-6.66-3.09,7.52q-3.5,2.33-7,4.72l.38-6.36-1.43,7.1q-7,4.9-13.75,10.14,4.49-2.81,8.91-5.72l6.76,1-5.67-1.73q4.28-2.85,8.47-5.83Z"/><path class="cls-52" d="M151,390.56l-4.72-3,3.8-1.19h0q4.77-1.53,9.49-3.18c-3,.71-5.92,1.45-8.86,2.23l3.8-5.75-5.31,6.15q-4.05,1.1-8.09,2.28l2.38-5.92-3.61,6.29c-5.45,1.63-10.88,3.38-16.25,5.26q5.14-1.23,10.26-2.6l6.09,3.09-4.82-3.44q5-1.35,9.88-2.84Z"/><path class="cls-52" d="M150.38,400.94h0q5-.33,10-.81c-3.05,0-6.1,0-9.15.05l5.08-4.67-6.63,4.7q-4.2.09-8.4.27l3.72-5.18-5,5.24q-8.53.42-17.05,1.22c3.53,0,7.06,0,10.59-.07l5.18,4.46-3.86-4.49c3.42-.08,6.85-.22,10.27-.4l5.16,3.95-3.87-4c1.32-.07,2.64-.16,4-.25Z"/><path class="cls-53" d="M440.27,406.86c-13.79-.24-27.45-.34-41.21-.2-3.86,0-7.76,0-11.61.41s-7.71.93-11.48.89a58,58,0,0,1-7.08-.5q-5-.63-10-1.67c-1.95-.42-3.91-.89-5.84-1.41a63.56,63.56,0,0,1-6.14-1.9,1,1,0,0,1-.34-1.59,25.22,25.22,0,0,1,2.65-2.13,38.63,38.63,0,0,1,7.18-3.89,49.81,49.81,0,0,1,22.77-3.73c4.53.46,9,1.59,13.48,2.33A278.17,278.17,0,0,1,423.43,400c4.77,1.3,9.61,2.71,14.31,4.28.65.21,2.16.72,2.83,1a.82.82,0,0,1-.3,1.6Z"/><path class="cls-53" d="M439.09,406.8a350.27,350.27,0,0,0-44.52-14c-6.31-1.52-12.9-1.32-19.2-2.74-6.53-1.44-13.2-3.38-19.84-4.42-.81-.13-2.18-.31-3-.42-.54-.06-1.11-.11-1.7-.2a1,1,0,0,1-.65-1.45c5.22-7.56,15.61-10.27,24.33-10.31,8.76-.25,16.4,3.84,24.16,7.14a160.12,160.12,0,0,1,21.61,11.19,178.49,178.49,0,0,1,19.68,13.84.82.82,0,0,1-.83,1.4Z"/><path class="cls-53" d="M439.46,406.18a195.2,195.2,0,0,0-26.67-19.72,95.73,95.73,0,0,0-14.18-7.59c-3.25-1.28-6.62-2.27-9.77-3.7-1.56-.7-3.07-1.48-4.57-2.31-5-2.8-10.14-5.89-15-9.16-1.31-.88-2.53-1.68-3.82-2.7a1,1,0,0,1-.18-1.38.89.89,0,0,1,.3-.25,20.28,20.28,0,0,1,3-1.32,28.82,28.82,0,0,1,4.64-1.22c8.32-1.48,18.14,0,25.45,4.31,4.31,2.57,8.08,6,12,9.05A122.23,122.23,0,0,1,431.1,390.9a109.44,109.44,0,0,1,9.65,14.29.82.82,0,0,1-1.29,1Z"/><path class="cls-53" d="M437.7,406c-5.63-8.19-12-17.3-17.89-25.23a146.6,146.6,0,0,0-9.27-12,77.59,77.59,0,0,1-6.59-7.46,35.34,35.34,0,0,1-2.53-4.17,77.51,77.51,0,0,1-5.27-13c-.39-1.25-.82-2.8-1.12-4.08a27.42,27.42,0,0,1-.64-3.06,1.13,1.13,0,0,1,1.21-1.28,25.73,25.73,0,0,1,7.43,1.93,38.82,38.82,0,0,1,10.77,6.88,37.48,37.48,0,0,1,3.85,3.92,29.66,29.66,0,0,1,4.26,6.89c1.46,3.22,2.71,6.73,4.2,9.93A172,172,0,0,1,433,382.52c1.39,4.06,2.77,8.45,3.9,12.58.93,3.39,1.79,6.78,2.48,10.24a.92.92,0,0,1-1.66.69Z"/><path class="cls-53" d="M438.9,406a301.41,301.41,0,0,1-11.32-37.85c-1-4.78-3.6-9.3-4-14.2-.38-5.66,1.88-12.23,4.71-17.16a37.41,37.41,0,0,1,3.49-5,24.89,24.89,0,0,1,2.36-2.56,2,2,0,0,1,2.55-.15,35.2,35.2,0,0,1,8.36,9.12c2.63,4.17,4.89,9.23,5.17,14.13.17,3.27-.74,6.53-1.42,9.72-1,4.84-1.18,9.7-1.92,14.58-.89,6.4-2.06,13.12-3.3,19.47-.64,3.26-1.33,6.51-2.14,9.77a1.34,1.34,0,0,1-2.55.16Z"/><path class="cls-52" d="M439.59,387l5.54-6.63-5.6,5q-.25-6.48-.7-13l4.9-6.6-5,5q-.18-2.51-.39-5h0q-.52-6.31-1.21-12.59c0,3.85.1,7.7.22,11.55l-6-6.32,6.06,8.28q.19,5.31.51,10.6l-6.61-4.6,6.71,6.22q.69,10.77,1.87,21.51Q439.85,393.64,439.59,387Z"/><path class="cls-52" d="M414.59,370.87l7.29,3.44q5.4,9.35,11.11,18.51-3.11-5.93-6.34-11.78l.62-7.59-1.42,6.14q-3.15-5.68-6.42-11.29l.21-7.37-1,6c-.84-1.44-1.7-2.88-2.55-4.32h0q-3.24-5.43-6.59-10.79,2.69,5.12,5.46,10.18l-6.87-3.76,7.82,5.48q2.56,4.65,5.2,9.25Z"/><path class="cls-52" d="M410.84,379.1q8.51,6.63,17.23,13-5.1-4.32-10.29-8.53l-2.28-7.27,1,6.23q-5.06-4.08-10.18-8.06l-2.58-6.91,1.28,5.9q-2-1.53-4-3h0q-5-3.83-10.15-7.54,4.39,3.73,8.87,7.39l-7.77-.9,9.31,2.14q4.11,3.34,8.28,6.62l-6.77.55Z"/><path class="cls-52" d="M401.6,388.81q10.36,3,20.83,5.63-6.35-2.1-12.73-4.09l-4.82-5.9,3.23,5.41q-6.19-1.91-12.45-3.69l-5-5.45,3.38,5-4.83-1.34h0q-6.11-1.68-12.23-3.22,5.48,1.83,11,3.55l-7.55,2.06,9.43-1.47q5.06,1.57,10.16,3.06l-6.09,3Z"/><path class="cls-52" d="M396.43,400.77q10.76,1,21.52,1.64-6.61-.89-13.27-1.64l-5.83-4.9,4.18,4.71q-6.45-.7-12.92-1.29l-5.89-4.43,4.26,4.28-5-.41h0q-6.3-.5-12.61-.87,5.72.76,11.46,1.44l-7,3.43,9-3.21q5.28.6,10.56,1.11l-5.41,4.11Z"/><path class="cls-53" d="M433.53,406.86c13.79-.24,27.45-.34,41.21-.2,3.86,0,7.76,0,11.61.41s7.71.93,11.48.89a58,58,0,0,0,7.08-.5q5-.63,10-1.67c2-.42,3.91-.89,5.84-1.41a63.56,63.56,0,0,0,6.14-1.9,1,1,0,0,0,.34-1.59,25.22,25.22,0,0,0-2.65-2.13,38.63,38.63,0,0,0-7.18-3.89,49.85,49.85,0,0,0-22.77-3.73c-4.53.46-9,1.59-13.48,2.33A278.17,278.17,0,0,0,450.37,400c-4.77,1.3-9.61,2.71-14.31,4.28-.65.21-2.17.72-2.83,1a.82.82,0,0,0,.3,1.6Z"/><path class="cls-53" d="M434.71,406.8a350.27,350.27,0,0,1,44.52-14c6.31-1.52,12.9-1.32,19.2-2.74,6.53-1.44,13.19-3.38,19.84-4.42.81-.13,2.18-.31,3-.42.54-.06,1.11-.11,1.7-.2a1,1,0,0,0,.65-1.45c-5.22-7.56-15.61-10.27-24.33-10.31-8.76-.25-16.4,3.84-24.16,7.14a160.12,160.12,0,0,0-21.61,11.19,178.49,178.49,0,0,0-19.68,13.84.82.82,0,0,0,.83,1.4Z"/><path class="cls-53" d="M434.34,406.18A195.2,195.2,0,0,1,461,386.46a95.73,95.73,0,0,1,14.18-7.59c3.25-1.28,6.62-2.27,9.77-3.7,1.56-.7,3.07-1.48,4.56-2.31,5-2.8,10.15-5.89,15.05-9.16,1.31-.88,2.53-1.68,3.82-2.7a1,1,0,0,0,.18-1.38.89.89,0,0,0-.3-.25,20.28,20.28,0,0,0-3-1.32,28.82,28.82,0,0,0-4.64-1.22c-8.32-1.48-18.14,0-25.45,4.31-4.32,2.57-8.08,6-12,9.05A122.23,122.23,0,0,0,442.7,390.9a109.44,109.44,0,0,0-9.65,14.29.82.82,0,0,0,1.29,1Z"/><path class="cls-53" d="M436.1,406c5.63-8.19,12-17.3,17.89-25.23a146.6,146.6,0,0,1,9.27-12,77.59,77.59,0,0,0,6.59-7.46,35.34,35.34,0,0,0,2.53-4.17,77.51,77.51,0,0,0,5.27-13c.39-1.25.81-2.8,1.12-4.08a27.42,27.42,0,0,0,.64-3.06,1.13,1.13,0,0,0-1.21-1.28,25.73,25.73,0,0,0-7.43,1.93A38.82,38.82,0,0,0,460,344.59a37.48,37.48,0,0,0-3.85,3.92,29.66,29.66,0,0,0-4.26,6.89c-1.46,3.22-2.71,6.73-4.2,9.93a172,172,0,0,0-6.87,17.19c-1.39,4.06-2.77,8.45-3.9,12.58-.93,3.39-1.79,6.78-2.48,10.24a.92.92,0,0,0,1.66.69Z"/><path class="cls-52" d="M458.18,370.39l-5.41,1.36c.59-1.18,1.18-2.37,1.75-3.56h0q2.19-4.5,4.25-9.06-2.29,3.94-4.5,8l-1.54-6.72.79,8.09q-2,3.69-3.93,7.42l-2.64-5.8L449,377q-3.88,7.61-7.4,15.4,2.65-4.57,5.19-9.23l6.44-2.28L447.44,382q2.43-4.51,4.75-9.11Z"/><path class="cls-52" d="M471.34,378.42l-5.42-1.33c1.07-.77,2.15-1.54,3.22-2.33h0q4-3,8-6-3.88,2.42-7.71,4.92l1.8-6.66-3.1,7.52q-3.5,2.33-6.95,4.72l.38-6.36-1.43,7.1q-7,4.9-13.75,10.14,4.5-2.81,8.91-5.72l6.76,1-5.67-1.73q4.28-2.85,8.47-5.83Z"/><path class="cls-52" d="M480.66,390.56l-4.73-3,3.8-1.19h0q4.77-1.53,9.5-3.18-4.46,1.07-8.87,2.23l3.81-5.75-5.32,6.15q-4,1.1-8.09,2.28l2.38-5.92-3.6,6.29q-8.19,2.44-16.26,5.26,5.15-1.23,10.26-2.6l6.1,3.09-4.83-3.44q5-1.35,9.88-2.84Z"/><path class="cls-52" d="M480.06,400.94h0q5-.33,10-.81c-3.05,0-6.1,0-9.14.05L486,395.5l-6.63,4.7q-4.2.09-8.4.27l3.72-5.18-5,5.24q-8.54.42-17.05,1.22c3.53,0,7.06,0,10.59-.07l5.18,4.46-3.86-4.49c3.42-.08,6.85-.22,10.27-.4L480,405.2l-3.87-4c1.32-.07,2.65-.16,4-.25Z"/><g class="cls-54"><rect class="cls-52" x="143.91" y="263.43" width="8.63" height="7.03"/><rect class="cls-52" x="145.52" y="250.14" width="7.03" height="7.03"/><rect class="cls-52" x="145.52" y="236.84" width="7.03" height="7.03"/><rect class="cls-52" x="145.52" y="223.54" width="7.03" height="7.03"/><rect class="cls-52" x="145.52" y="210.24" width="7.03" height="7.03"/><rect class="cls-52" x="143.91" y="276.73" width="8.63" height="7.03"/><rect class="cls-52" x="143.91" y="290.03" width="8.63" height="7.03"/><rect class="cls-52" x="143.91" y="303.33" width="8.63" height="7.03"/><rect class="cls-52" x="143.91" y="316.63" width="8.63" height="7.03"/><rect class="cls-52" x="143.91" y="329.92" width="8.63" height="7.03"/><rect class="cls-52" x="143.91" y="343.22" width="8.63" height="7.03"/><rect class="cls-52" x="143.91" y="356.52" width="8.63" height="7.03"/><path class="cls-52" d="M192.2,216.31H163.49a2.51,2.51,0,0,1,0-5H192.2a2.51,2.51,0,1,1,0,5Z"/><path class="cls-52" d="M247.82,216.31H206.66a2.51,2.51,0,1,1,0-5h41.16a2.51,2.51,0,0,1,0,5Z"/><path class="cls-52" d="M228.55,229.57H181.29a2.51,2.51,0,0,1,0-5h47.26a2.51,2.51,0,0,1,0,5Z"/><path class="cls-52" d="M228.55,362.49H181.29a2.51,2.51,0,1,1,0-5h47.26a2.51,2.51,0,0,1,0,5Z"/><path class="cls-52" d="M278.34,229.57h-35a2.51,2.51,0,0,1,0-5h35a2.51,2.51,0,1,1,0,5Z"/><path class="cls-52" d="M400.42,282.78h-35a2.51,2.51,0,0,1,0-5h35a2.51,2.51,0,1,1,0,5Z"/><path class="cls-52" d="M388.78,336h-35a2.51,2.51,0,1,1,0-5h35a2.51,2.51,0,1,1,0,5Z"/><path class="cls-52" d="M340.19,216.31H322.68a2.51,2.51,0,0,1,0-5h17.51a2.51,2.51,0,0,1,0,5Z"/><path class="cls-52" d="M361.27,296H338.94a2.51,2.51,0,0,1,0-5h22.33a2.51,2.51,0,0,1,0,5Z"/><path class="cls-52" d="M283,349.24H260.63a2.51,2.51,0,0,1,0-5H283a2.51,2.51,0,1,1,0,5Z"/><path class="cls-52" d="M307.46,216.31h-45a2.51,2.51,0,0,1,0-5h45a2.51,2.51,0,1,1,0,5Z"/><path class="cls-52" d="M291.8,269.52H254a2.51,2.51,0,0,1,0-5H291.8a2.51,2.51,0,0,1,0,5Z"/><path class="cls-52" d="M299.23,296h-45a2.51,2.51,0,0,1,0-5h45a2.51,2.51,0,0,1,0,5Z"/><path class="cls-52" d="M284.77,322.53H254.21a2.51,2.51,0,0,1,0-5h30.56a2.51,2.51,0,0,1,0,5Z"/><path class="cls-52" d="M279.88,256.07h-43a2.51,2.51,0,0,1,0-5h43a2.51,2.51,0,0,1,0,5Z"/><path class="cls-52" d="M327.34,296H312.81a2.51,2.51,0,1,1,0-5h14.53a2.51,2.51,0,1,1,0,5Z"/><path class="cls-52" d="M279.88,282.78h-43a2.51,2.51,0,1,1,0-5h43a2.51,2.51,0,0,1,0,5Z"/><path class="cls-52" d="M279.27,309.28h-43a2.51,2.51,0,1,1,0-5h43a2.51,2.51,0,0,1,0,5Z"/><path class="cls-52" d="M279.88,336h-43a2.51,2.51,0,1,1,0-5h43a2.51,2.51,0,1,1,0,5Z"/><path class="cls-52" d="M238.26,242.82h-31.8a2.51,2.51,0,0,1,0-5h31.8a2.51,2.51,0,1,1,0,5Z"/><path class="cls-52" d="M361.67,256.07H293.73a2.51,2.51,0,0,1,0-5h67.94a2.51,2.51,0,0,1,0,5Z"/><path class="cls-52" d="M351.63,282.78h-57.7a2.51,2.51,0,0,1,0-5h57.7a2.51,2.51,0,0,1,0,5Z"/><path class="cls-52" d="M339.58,309.28H293.33a2.51,2.51,0,1,1,0-5h46.25a2.51,2.51,0,0,1,0,5Z"/><path class="cls-52" d="M339.58,336H293.33a2.51,2.51,0,1,1,0-5h46.25a2.51,2.51,0,1,1,0,5Z"/><path class="cls-52" d="M320.71,242.82H254.18a2.51,2.51,0,0,1,0-5h66.53a2.51,2.51,0,1,1,0,5Z"/><path class="cls-52" d="M238.26,269.52h-31.8a2.51,2.51,0,0,1,0-5h31.8a2.51,2.51,0,1,1,0,5Z"/><path class="cls-52" d="M238.26,296h-31.8a2.51,2.51,0,0,1,0-5h31.8a2.51,2.51,0,1,1,0,5Z"/><path class="cls-52" d="M238.26,322.73h-31.8a2.51,2.51,0,0,1,0-5h31.8a2.51,2.51,0,0,1,0,5Z"/><path class="cls-52" d="M246.09,349.24H206.46a2.51,2.51,0,0,1,0-5h39.63a2.51,2.51,0,1,1,0,5Z"/><path class="cls-52" d="M385.36,216.31H354.57a2.51,2.51,0,1,1,0-5h30.79a2.51,2.51,0,0,1,0,5Z"/></g><polygon class="cls-55" points="295.6 261.65 330.11 275.43 330.11 261.65 295.6 261.65"/><rect class="cls-56" x="202.84" y="163.46" width="142.01" height="98.19" rx="19.52"/><path class="cls-57" d="M208.79,163.46H338.89a6,6,0,0,1,6,6v1.95a0,0,0,0,1,0,0h-142a0,0,0,0,1,0,0v-1.95a6,6,0,0,1,6-6Z"/><circle class="cls-58" cx="208.72" cy="167.42" r="1.91" transform="translate(-48.03 92.11) rotate(-22.39)"/><circle class="cls-58" cx="214.23" cy="167.42" r="1.91" transform="translate(-32.64 53.5) rotate(-13.24)"/><circle class="cls-58" cx="219.73" cy="167.42" r="1.91" transform="translate(-47.2 96.3) rotate(-22.39)"/><rect class="cls-59" x="216.5" y="184.29" width="21.59" height="21.59"/><rect class="cls-60" x="247.53" y="184.29" width="21.59" height="21.59"/><rect class="cls-61" x="278.56" y="184.29" width="21.59" height="21.59"/><rect class="cls-62" x="309.59" y="184.29" width="21.59" height="21.59"/><rect class="cls-63" x="216.5" y="219.24" width="21.59" height="21.59"/><rect class="cls-64" x="247.53" y="219.24" width="21.59" height="21.59"/><rect class="cls-65" x="278.56" y="219.24" width="21.59" height="21.59"/><rect class="cls-66" x="309.59" y="219.24" width="21.59" height="21.59"/><rect class="cls-56" x="376.97" y="168.52" width="62.6" height="47.99" rx="18.09"/><path class="cls-67" d="M382.8,168.52h51a5.82,5.82,0,0,1,5.82,5.82v1.9a0,0,0,0,1,0,0H377a0,0,0,0,1,0,0v-1.9A5.82,5.82,0,0,1,382.8,168.52Z"/><circle class="cls-58" cx="382.73" cy="172.38" r="1.87"/><circle class="cls-58" cx="388.11" cy="172.38" r="1.87"/><circle class="cls-58" cx="393.49" cy="172.38" r="1.87"/><rect class="cls-68" x="385.36" y="180.12" width="45.83" height="32.03"/><polygon class="cls-69" points="385.36 207.98 396.92 194.98 413.97 212.15 385.36 212.15 385.36 207.98"/><polygon class="cls-70" points="405.45 203.56 419.54 186.68 431.19 195.63 431.19 212.15 413.97 212.15 405.45 203.56"/><circle class="cls-52" cx="402.18" cy="186.67" r="2.7"/><path class="cls-71" d="M253.21,406a501.71,501.71,0,0,0-15.75-58.4c-6-17.68-13.19-35.08-22.77-51.17a140.18,140.18,0,0,0-12.42-17.65,116.69,116.69,0,0,1,13.3,17.11c8.63,13.4,15.21,28,20.7,42.95A345.72,345.72,0,0,1,253.21,406Z"/><path class="cls-72" d="M202.26,278.77c-6.56-5.16-12.85-10.44-20-14.63-1-.62-2.08-1.19-3.14-1.82,9.14.64,19.09,8.43,23.19,16.45Z"/><path class="cls-73" d="M205.9,283c-8.39-2.31-16.71-4.83-25.46-4.63-1.24,0-2.49.14-3.78.24a14,14,0,0,1,1.73-.87c.28-.12.63-.27.91-.36,8.38-3,19.86.08,26.6,5.62Z"/><path class="cls-74" d="M212.88,292.84c-7.26-2.39-14.49-5-22.2-4.8-1.1,0-2.19.14-3.34.26a12.36,12.36,0,0,1,1.51-.84c.23-.11.56-.26.79-.34,7.48-2.88,17.6.35,23.24,5.72Z"/><path class="cls-75" d="M219.86,302.66c-7-2.4-13.93-5.07-21.4-4.84-1.05,0-2.11.15-3.22.27a9.89,9.89,0,0,1,1.45-.83,7.51,7.51,0,0,1,.77-.34c7.24-2.86,17,.43,22.4,5.74Z"/><path class="cls-76" d="M224.22,312.58c-6.46-2.41-12.91-5.16-19.9-4.92-1,0-2,.16-3,.29a9.25,9.25,0,0,1,1.34-.82c.21-.1.5-.25.72-.33,6.82-2.82,16,.59,20.86,5.78Z"/><path class="cls-77" d="M229.36,322.47c-6.61-2.4-13.23-5.13-20.37-4.9-1,0-2,.16-3.09.29a9.12,9.12,0,0,1,1.38-.82,6.89,6.89,0,0,1,.73-.34c7-2.83,16.35.54,21.35,5.77Z"/><path class="cls-78" d="M233.36,331.75c-6.51-2.4-13-5.15-20.09-4.91-1,0-2,.16-3,.29a9.35,9.35,0,0,1,1.35-.82,6.89,6.89,0,0,1,.73-.34c6.87-2.82,16.15.58,21.05,5.78Z"/><path class="cls-79" d="M236.64,341.06c-6.54-2.41-13.08-5.15-20.15-4.91-1,0-2,.15-3.05.28a9.76,9.76,0,0,1,1.36-.81,7.79,7.79,0,0,1,.72-.34c6.89-2.82,16.2.57,21.12,5.78Z"/><path class="cls-80" d="M240.26,352.33c-5.83-2.43-11.64-5.28-18.07-5a27.75,27.75,0,0,0-2.76.31,9.11,9.11,0,0,1,2.54-1.4c6.25-2.21,14.21,1.23,18.29,6.12Z"/><path class="cls-81" d="M243,361.79c-5.25-2.41-10.5-5.38-16.42-5.12a23.59,23.59,0,0,0-2.54.33,8.09,8.09,0,0,1,2.31-1.36c5.75-2.17,13.17,1.45,16.65,6.15Z"/><path class="cls-82" d="M245.74,370.74c-4.91-2.4-9.79-5.44-15.41-5.17a19.23,19.23,0,0,0-2.4.34c5.42-4.63,14.31-.33,17.81,4.83Z"/><path class="cls-83" d="M247.63,379.08c-2.95-1.76-5.66-3.76-8.89-4.84a9.79,9.79,0,0,0-3.8-.5,12.23,12.23,0,0,0-2,.4,5.62,5.62,0,0,1,1.8-1.3c4.81-2,10.71,2.05,12.93,6.24Z"/><path class="cls-84" d="M213.7,258.25c-2.32,8.39-4.84,16.71-4.63,25.46,0,1.24.13,2.49.23,3.78a14,14,0,0,1-.87-1.73c-.12-.28-.27-.63-.36-.91-3-8.38.08-19.86,5.63-26.6Z"/><path class="cls-85" d="M220.63,270.82c-2.39,7.26-5,14.48-4.8,22.2,0,1.09.14,2.18.26,3.33a12.24,12.24,0,0,1-.84-1.5,8,8,0,0,1-.34-.8c-2.88-7.48.35-17.59,5.72-23.23Z"/><path class="cls-86" d="M226.6,283.73c-2.39,7-5.07,13.93-4.84,21.39,0,1.06.15,2.12.27,3.23a10.44,10.44,0,0,1-.83-1.45,7.51,7.51,0,0,1-.34-.77c-2.86-7.24.43-17.05,5.74-22.4Z"/><path class="cls-87" d="M232.46,296.58c-2.41,6.45-5.17,12.91-4.93,19.9,0,1,.16,2,.29,3a11.43,11.43,0,0,1-.82-1.34c-.1-.21-.25-.51-.33-.72-2.82-6.83.59-16,5.79-20.86Z"/><path class="cls-88" d="M236.66,306.07c-2.4,6.62-5.14,13.24-4.9,20.38,0,1,.16,2,.28,3.08a10.34,10.34,0,0,1-.82-1.37c-.1-.21-.25-.51-.33-.73-2.83-7,.54-16.35,5.77-21.36Z"/><path class="cls-89" d="M240.25,315.61c-2.41,6.52-5.16,13-4.92,20.09,0,1,.16,2,.29,3a11.56,11.56,0,0,1-.82-1.35c-.1-.21-.25-.51-.33-.73-2.82-6.87.57-16.15,5.78-21.05Z"/><path class="cls-90" d="M243.83,324.9c-2.41,6.54-5.15,13.08-4.91,20.15,0,1,.15,2,.28,3.05a9.76,9.76,0,0,1-.81-1.36,7.79,7.79,0,0,1-.34-.72c-2.82-6.89.57-16.2,5.78-21.12Z"/><path class="cls-91" d="M246.75,337.48c-2.43,5.83-5.28,11.64-5,18.07,0,.9.17,1.81.31,2.77a9.81,9.81,0,0,1-1.4-2.54c-2.2-6.26,1.23-14.21,6.12-18.3Z"/><path class="cls-92" d="M249.66,347.7c-2.41,5.25-5.38,10.5-5.12,16.42a23.59,23.59,0,0,0,.33,2.54,8.12,8.12,0,0,1-1.37-2.31c-2.16-5.76,1.46-13.17,6.16-16.65Z"/><path class="cls-93" d="M251.69,357.59c-2.4,4.91-5.44,9.79-5.18,15.41a19.58,19.58,0,0,0,.35,2.4c-4.64-5.42-.34-14.32,4.83-17.81Z"/><path class="cls-94" d="M253.65,367.87c-1.73,2.88-3.66,5.53-4.76,8.66a9.55,9.55,0,0,0-.18,6.07,5.62,5.62,0,0,1-1.3-1.8c-2-4.81,2.05-10.71,6.24-12.93Z"/><path class="cls-95" d="M249.18,398.81A400.81,400.81,0,0,0,253,350.74c.21-14.89-.49-29.87-3.37-44.51a112.67,112.67,0,0,0-4.59-16.59,92.7,92.7,0,0,1,5.39,16.41,173.4,173.4,0,0,1,4,37.8,274.8,274.8,0,0,1-5.3,55Z"/><path class="cls-96" d="M245.05,289.66c-3.53-5.63-6.84-11.28-11.12-16.36-.6-.74-1.24-1.45-1.87-2.21,6.69,2.94,12.07,11.45,13,18.57Z"/><path class="cls-97" d="M246.64,293.82c-5.67-4-11.24-8.11-17.86-10.3-.94-.31-1.91-.57-2.91-.84a11.56,11.56,0,0,1,1.54-.19c.24,0,.55,0,.78,0,7.09,0,14.89,5.39,18.45,11.35Z"/><path class="cls-98" d="M249.25,303.07c-4.81-3.74-9.53-7.66-15.38-9.56-.83-.27-1.68-.47-2.57-.69a8.86,8.86,0,0,1,1.35-.23c.21,0,.49,0,.69,0,6.39-.15,13.12,5,15.91,10.53Z"/><path class="cls-99" d="M251.86,312.32c-4.6-3.67-9.1-7.55-14.76-9.38-.81-.26-1.63-.45-2.5-.66a8.36,8.36,0,0,1,1.31-.23c.2,0,.48-.05.67-.05,6.21-.21,12.68,4.9,15.28,10.32Z"/><path class="cls-100" d="M252.47,320.93c-4.2-3.53-8.31-7.34-13.62-9-.75-.24-1.53-.41-2.34-.59a7.37,7.37,0,0,1,1.22-.26l.63-.06c5.88-.28,11.87,4.75,14.11,9.94Z"/><path class="cls-101" d="M253.68,329.74c-4.33-3.58-8.56-7.41-14-9.14-.76-.25-1.55-.43-2.39-.62a7.66,7.66,0,0,1,1.25-.24,4.76,4.76,0,0,1,.64-.06c6-.26,12.13,4.79,14.49,10.06Z"/><path class="cls-102" d="M254.19,337.78c-4.25-3.56-8.4-7.37-13.76-9.08-.76-.24-1.54-.42-2.36-.6a8.38,8.38,0,0,1,1.23-.25c.19,0,.45-.06.63-.06,5.92-.27,12,4.77,14.26,10Z"/><path class="cls-103" d="M254.15,345.64c-4.26-3.56-8.43-7.37-13.8-9.09-.76-.24-1.54-.42-2.37-.6a7.36,7.36,0,0,1,1.24-.25c.18,0,.45-.06.63-.06,5.93-.27,12,4.77,14.3,10Z"/><path class="cls-104" d="M253.85,355.07c-3.72-3.38-7.32-7.08-12.21-8.62a20.06,20.06,0,0,0-2.16-.5,7.57,7.57,0,0,1,2.28-.38c5.28,0,10.34,4.74,12.09,9.5Z"/><path class="cls-105" d="M253.38,362.92c-3.29-3.22-6.43-6.86-10.95-8.25a17.22,17.22,0,0,0-2-.43,6.48,6.48,0,0,1,2.1-.41c4.9-.08,9.5,4.62,10.85,9.09Z"/><path class="cls-106" d="M253,370.37c-3-3.12-5.89-6.71-10.18-8A15,15,0,0,0,241,362c5.31-2,10.83,3.58,12.07,8.4Z"/><path class="cls-107" d="M252.2,377.14c-1.73-2.12-3.23-4.35-5.37-6a7.91,7.91,0,0,0-2.72-1.4,10.12,10.12,0,0,0-1.63-.25,4.59,4.59,0,0,1,1.69-.49c4.16-.24,7.5,4.41,8,8.16Z"/><path class="cls-108" d="M259.14,277.33c-4,5.67-8.11,11.24-10.3,17.87-.32.94-.57,1.9-.84,2.9a11.37,11.37,0,0,1-.19-1.54c0-.24,0-.54,0-.78,0-7.09,5.39-14.88,11.36-18.45Z"/><path class="cls-109" d="M261,288.62c-3.74,4.81-7.66,9.53-9.56,15.38-.27.83-.48,1.68-.7,2.57a8.86,8.86,0,0,1-.23-1.35c0-.21,0-.5,0-.69-.16-6.39,5-13.12,10.53-15.91Z"/><path class="cls-110" d="M262,299.91c-3.67,4.6-7.55,9.1-9.38,14.77-.26.8-.45,1.62-.66,2.49a8.36,8.36,0,0,1-.23-1.31c0-.2,0-.48-.06-.67-.2-6.2,4.91-12.68,10.33-15.28Z"/><path class="cls-111" d="M262.94,311.13c-3.54,4.2-7.34,8.31-9,13.62-.24.75-.41,1.52-.59,2.34a7.37,7.37,0,0,1-.26-1.22c0-.19-.05-.45-.06-.63-.28-5.88,4.75-11.87,9.94-14.11Z"/><path class="cls-112" d="M263.55,319.39c-3.58,4.32-7.4,8.55-9.14,14-.24.77-.43,1.56-.61,2.39a7.69,7.69,0,0,1-.25-1.25c0-.19-.06-.46-.06-.64-.26-6,4.79-12.13,10.06-14.48Z"/><path class="cls-113" d="M263.69,327.51c-3.55,4.24-7.37,8.4-9.08,13.76-.24.76-.41,1.54-.6,2.36a8.51,8.51,0,0,1-.25-1.24c0-.18,0-.45-.06-.63-.27-5.92,4.77-12,10-14.25Z"/><path class="cls-114" d="M263.88,335.44c-3.56,4.27-7.37,8.44-9.09,13.81-.24.76-.41,1.54-.6,2.36a8.38,8.38,0,0,1-.25-1.23c0-.19-.05-.45-.06-.64-.27-5.93,4.77-12,10-14.3Z"/><path class="cls-115" d="M262.7,345.67c-3.38,3.73-7.08,7.32-8.62,12.22-.21.69-.36,1.4-.51,2.15a7.51,7.51,0,0,1-.37-2.28c0-5.28,4.74-10.34,9.5-12.09Z"/><path class="cls-116" d="M262.15,354.12c-3.22,3.3-6.86,6.44-8.25,11a16.61,16.61,0,0,0-.43,2,6.43,6.43,0,0,1-.41-2.1c-.08-4.9,4.62-9.5,9.09-10.85Z"/><path class="cls-117" d="M261,362.09c-3.12,3-6.71,5.89-8,10.18a17,17,0,0,0-.39,1.89c-2-5.31,3.59-10.83,8.41-12.07Z"/><path class="cls-118" d="M259.73,370.34a38.26,38.26,0,0,0-5.9,5.22,7.62,7.62,0,0,0-1.76,4.5,4.59,4.59,0,0,1-.49-1.69c-.24-4.16,4.41-7.5,8.15-8Z"/><path class="cls-119" d="M249.89,404.49a360,360,0,0,1,11.32-42c4.34-12.7,9.48-25.2,16.36-36.76a101.18,101.18,0,0,1,8.92-12.68,84.26,84.26,0,0,0-9.55,12.29,156.09,156.09,0,0,0-14.87,30.86,247.71,247.71,0,0,0-12.18,48.26Z"/><path class="cls-120" d="M286.5,313.1c4.71-3.71,9.23-7.5,14.41-10.51.73-.45,1.49-.85,2.25-1.31-6.56.46-13.72,6.05-16.66,11.82Z"/><path class="cls-121" d="M283.89,316.15c6-1.66,12-3.47,18.29-3.33.89,0,1.79.1,2.72.17a12.18,12.18,0,0,0-1.25-.63c-.2-.08-.45-.19-.65-.25-6-2.14-14.27.06-19.11,4Z"/><path class="cls-122" d="M278.87,323.21c5.22-1.72,10.41-3.61,15.95-3.45.79,0,1.57.1,2.4.19a8.81,8.81,0,0,0-1.08-.61l-.57-.24c-5.38-2.07-12.65.25-16.7,4.11Z"/><path class="cls-123" d="M273.85,330.26c5-1.72,10-3.64,15.38-3.48.76,0,1.52.11,2.31.2a6.69,6.69,0,0,0-1-.6c-.16-.07-.38-.18-.55-.24-5.2-2.06-12.25.31-16.1,4.12Z"/><path class="cls-124" d="M270.73,337.39c4.63-1.73,9.27-3.71,14.29-3.54.71,0,1.42.12,2.17.21a7.2,7.2,0,0,0-1-.58,3.48,3.48,0,0,0-.52-.24c-4.9-2-11.51.42-15,4.15Z"/><path class="cls-125" d="M267,344.5c4.75-1.73,9.51-3.69,14.64-3.52.72,0,1.45.11,2.21.21a6.53,6.53,0,0,0-1-.59c-.16-.08-.37-.19-.53-.25-5-2-11.75.39-15.34,4.15Z"/><path class="cls-126" d="M264.15,351.17c4.69-1.73,9.37-3.71,14.44-3.53.71,0,1.43.11,2.18.2a6.38,6.38,0,0,0-1-.58,5,5,0,0,0-.52-.25c-4.94-2-11.61.42-15.13,4.16Z"/><path class="cls-127" d="M261.8,357.85c4.7-1.72,9.4-3.7,14.47-3.53.72,0,1.44.12,2.2.21a6.88,6.88,0,0,0-1-.59c-.15-.07-.36-.18-.52-.24-5-2-11.63.41-15.17,4.15Z"/><path class="cls-128" d="M259.2,366c4.19-1.74,8.36-3.79,13-3.61.65,0,1.3.12,2,.22a6.74,6.74,0,0,0-1.82-1c-4.49-1.58-10.21.89-13.14,4.4Z"/><path class="cls-129" d="M257.22,372.75c3.77-1.73,7.54-3.87,11.8-3.68a17.51,17.51,0,0,1,1.82.24,5.64,5.64,0,0,0-1.66-1c-4.13-1.56-9.46,1-12,4.42Z"/><path class="cls-130" d="M255.26,379.18c3.53-1.72,7-3.91,11.07-3.72a13.87,13.87,0,0,1,1.73.25c-3.9-3.33-10.29-.24-12.8,3.47Z"/><path class="cls-131" d="M253.91,385.17a32.68,32.68,0,0,1,6.38-3.47,7,7,0,0,1,2.73-.36,8,8,0,0,1,1.46.28,4,4,0,0,0-1.28-.93c-3.46-1.47-7.7,1.47-9.29,4.48Z"/><path class="cls-132" d="M278.28,298.36c1.67,6,3.48,12,3.33,18.29,0,.89-.1,1.79-.17,2.72a10.45,10.45,0,0,0,.63-1.25c.08-.2.19-.45.26-.65,2.13-6-.06-14.27-4.05-19.11Z"/><path class="cls-133" d="M273.3,307.39c1.72,5.21,3.61,10.4,3.45,15.95,0,.78-.1,1.57-.19,2.39a8.13,8.13,0,0,0,.61-1.08,5.72,5.72,0,0,0,.24-.57c2.07-5.37-.25-12.64-4.11-16.69Z"/><path class="cls-134" d="M269,316.66c1.72,5,3.65,10,3.48,15.38,0,.75-.11,1.51-.19,2.31a7.55,7.55,0,0,0,.59-1c.08-.16.19-.39.25-.55,2.05-5.21-.32-12.25-4.13-16.1Z"/><path class="cls-135" d="M264.81,325.9c1.73,4.63,3.71,9.27,3.54,14.29,0,.71-.12,1.42-.21,2.17a7.2,7.2,0,0,0,.58-1,3.48,3.48,0,0,0,.24-.52c2-4.9-.42-11.51-4.15-15Z"/><path class="cls-136" d="M261.79,332.72c1.72,4.75,3.69,9.51,3.52,14.64,0,.72-.12,1.45-.21,2.21a7.49,7.49,0,0,0,.59-1,4.13,4.13,0,0,0,.24-.53c2-5-.39-11.75-4.14-15.34Z"/><path class="cls-137" d="M259.21,339.57c1.73,4.68,3.7,9.36,3.53,14.43,0,.72-.12,1.43-.21,2.19a6.88,6.88,0,0,0,.59-1c.07-.15.18-.36.24-.51,2-4.94-.41-11.61-4.15-15.13Z"/><path class="cls-138" d="M256.63,346.25c1.73,4.69,3.71,9.39,3.53,14.47,0,.72-.11,1.43-.2,2.19a6.38,6.38,0,0,0,.58-1c.08-.15.19-.37.25-.52,2-5-.41-11.64-4.16-15.17Z"/><path class="cls-139" d="M254.54,355.28c1.74,4.19,3.79,8.37,3.61,13a17.7,17.7,0,0,1-.23,2,6.74,6.74,0,0,0,1-1.82c1.58-4.49-.88-10.21-4.39-13.15Z"/><path class="cls-140" d="M252.44,362.62c1.74,3.78,3.87,7.55,3.68,11.8a13.32,13.32,0,0,1-.24,1.83,5.8,5.8,0,0,0,1-1.66c1.55-4.14-1.05-9.47-4.43-12Z"/><path class="cls-141" d="M251,369.73c1.72,3.53,3.91,7,3.72,11.07a13.87,13.87,0,0,1-.25,1.73c3.33-3.9.24-10.29-3.47-12.8Z"/><path class="cls-142" d="M249.58,377.12a35.29,35.29,0,0,1,3.42,6.22,6.92,6.92,0,0,1,.13,4.36,4,4,0,0,0,.93-1.29c1.46-3.46-1.47-7.7-4.48-9.29Z"/><rect class="cls-143" x="226.51" y="376.92" width="48.34" height="6.75"/><polygon class="cls-144" points="266.94 411.22 234.43 411.22 230.11 383.66 271.26 383.66 266.94 411.22"/><path class="cls-145" d="M369.19,303.71,362.35,305l-4.3,3-1.15,1.82a.53.53,0,0,0,.44.81h0a.53.53,0,0,0,.43-.22l1.16-1.62,3.86-1.78,2.28-.33-1.2,2.23-1.16.6a.55.55,0,0,0-.16.84h0a.53.53,0,0,0,.59.16l1.47-.49,3.35-2.64h1.23Z"/><polygon class="cls-146" points="413.23 266.29 412.32 272.35 410.22 279.77 403.19 289.02 396.86 294.93 368.66 303.25 368.66 307.65 404.43 302.36 413.06 294.63 417.2 285.23 420.83 268.02 413.23 266.29"/><polygon class="cls-143" points="383.74 416.42 389.93 416.42 369.28 316 363.09 316 383.74 416.42"/><rect class="cls-59" x="416.29" y="361.29" width="1.68" height="40.9" transform="translate(-129.1 527.89) rotate(-57.44)"/><rect class="cls-59" x="389.23" y="380.9" width="40.9" height="1.68" transform="translate(-141.05 280.46) rotate(-32.56)"/><polygon class="cls-143" points="441.17 416.42 445.63 416.42 422.45 354.33 417.99 354.33 441.17 416.42"/><polygon class="cls-143" points="384.92 416.42 380.46 416.42 403.64 354.33 408.1 354.33 384.92 416.42"/><rect class="cls-59" x="426.25" y="361.29" width="1.68" height="40.9" transform="translate(-124.5 536.28) rotate(-57.44)"/><rect class="cls-59" x="399.19" y="380.9" width="40.9" height="1.68" transform="translate(-139.49 285.81) rotate(-32.56)"/><polygon class="cls-143" points="451.12 416.42 455.59 416.42 432.41 354.33 427.94 354.33 451.12 416.42"/><polygon class="cls-143" points="394.88 416.42 390.41 416.42 413.59 354.33 418.06 354.33 394.88 416.42"/><path class="cls-144" d="M378.88,353.92c15.79-2.59,31.79-3.65,47.75-4.34,1.34,0,2.74-.12,4.05-.28a24.91,24.91,0,0,0,21.11-21c.13-.61.22-1.53.3-2.15.43-3.51,1-7.76,1.51-11.28,1.09-7.47,2.32-15.07,3.76-22.49,1.18-5.79,2.33-11.59,3.87-17.35a.65.65,0,0,1,.71-.49h0c-1.33,15.89-3.17,36.29-4.6,52.1a29.18,29.18,0,0,1-26.11,27.89c-2.21.2-4.65.15-6.87.15l-27.29-.08-18.19-.14v-.56Z"/><path class="cls-147" d="M421.76,260.62l-1.86-3.55-4.3,1.4a2.85,2.85,0,0,1-3.77-2l-.71-4-1-.31a1.21,1.21,0,0,1-.89-1.47l1-3.64-.69-3.72A3.52,3.52,0,0,1,411,240l3.15-2.38a8.91,8.91,0,0,1,8.86-1l.11,0a7.32,7.32,0,0,1,4.36,5.33c.66,3.73,1.59,9,1.59,9l-.1,7.73Z"/><polygon class="cls-148" points="418.08 259.88 424.81 258.18 432.62 259.03 428.49 264.18 421.37 266.52 418.08 263.12 418.08 259.88"/><polygon class="cls-149" points="415.74 329.64 360.03 342.88 360.91 407.48 370.17 407.48 373.23 353.69 428.48 351.71 415.74 329.64"/><path class="cls-150" d="M379.66,407.42l-5.58-71.73,41.66-6.05,30.62-5.17-3.52,18.84a10,10,0,0,1-9.27,8.12l-44.7,2.32-.55,53.67Z"/><path class="cls-56" d="M413.23,266.29a8.27,8.27,0,0,1,3.53-6.55,2,2,0,0,1,2.83.68,5.37,5.37,0,0,0,4.69,3,5.53,5.53,0,0,0,5.1-3.89,2,2,0,0,1,1.85-1.33h0a10.47,10.47,0,0,1,10.54,10.36l4.57,55.93-30.62,5.17Z"/><polygon points="360.91 407.48 339.47 416.42 370.57 416.42 370.17 407.48 360.91 407.48"/><polygon points="379.06 407.48 357.62 416.42 388.71 416.42 388.32 407.48 379.06 407.48"/><polygon class="cls-149" points="422.62 262.35 425.35 263.7 424.68 267.66 420.83 268.02 421.29 263.08 422.62 262.35"/><polygon class="cls-151" points="432.17 258.17 430.6 256.55 422.62 262.35 425.87 265.48 432.17 258.17"/><polygon class="cls-151" points="422.62 262.35 420.58 264.47 419.05 259.23 419.77 257.79 422.62 262.35"/><path class="cls-152" d="M428.3,383l.58-1a3.91,3.91,0,0,1,3.41-2h7.78a3.9,3.9,0,0,1,3.41,2l.58,1"/><rect x="413.59" y="383.03" width="45.19" height="33.48" transform="translate(872.36 799.55) rotate(180)"/><polygon class="cls-149" points="413.59 399.78 436.18 404.65 458.77 399.78 458.77 383.04 413.59 383.04 413.59 399.78"/><polygon class="cls-153" points="434.3 406.7 438.06 406.7 438.51 401.02 433.85 401.02 434.3 406.7"/><polygon class="cls-150" points="424.68 267.66 426.89 281.45 424.05 308.26 421.59 317.99 418.08 308.53 418.08 280.09 420.83 268.02 424.68 267.66"/><path class="cls-149" d="M429,250.92l-.21-14.59-2.72.42.53-2.76-2.66,1.1L421.24,232,415.36,234l-7.44.52,1.27,1.64-3.81,1.33,3.95,4.79s6.66-2.6,11.19,6.07c0,0,3.4-9,5.43.67Z"/><rect class="cls-144" x="301.63" y="316" width="91.52" height="11.66"/><rect class="cls-154" x="270.4" y="309.84" width="142.67" height="6.17"/><polygon class="cls-143" points="310.53 416.42 304.34 416.42 324.99 316 331.18 316 310.53 416.42"/><polygon class="cls-143" points="410.42 416.42 416.61 416.42 395.96 316 389.77 316 410.42 416.42"/><rect class="cls-59" x="301.63" y="309.84" width="124.89" height="6.17"/><polygon class="cls-143" points="283.85 416.42 277.66 416.42 298.31 316 304.5 316 283.85 416.42"/><path class="cls-155" d="M387.71,302.39l-6.84,1.31-4.3,3-1.15,1.82a.53.53,0,0,0,.44.81h0a.53.53,0,0,0,.43-.22l1.16-1.62,3.86-1.78,2.28-.33-1.2,2.23-1.16.6a.55.55,0,0,0-.16.84h0a.55.55,0,0,0,.59.16l1.46-.49,3.36-2.65h1.23Z"/><path class="cls-156" d="M431.13,270.13l-.34,2.22-2.09,7.42-7,9.25-6.34,5.91-28.19,7v4.4l35.77-4,8.63-7.73,7.35-12.6,1.62-10.47a4.75,4.75,0,0,0-4.93-5.47h0A4.75,4.75,0,0,0,431.13,270.13Z"/><rect class="cls-146" x="331.18" y="308.24" width="55.23" height="1.61"/><polygon class="cls-146" points="355.12 281.28 322.23 281.28 331.18 308.24 364.08 308.24 355.12 281.28"/><ellipse class="cls-52" cx="343.15" cy="294.76" rx="3.03" ry="4.21" transform="translate(-103.14 368.65) rotate(-50.06)"/><path class="cls-157" d="M173.86,219.29c0,23.18,25.53,38.7-20.1,38.7-29.83,0-54-18.79-54-42s24.24-43.85,54-42C248.49,180.08,173.86,196.11,173.86,219.29Z"/><g class="cls-158"><circle class="cls-159" cx="159.03" cy="241.69" r="7.21" transform="translate(-79.17 77.49) rotate(-22.08)"/><circle class="cls-159" cx="134.73" cy="237.38" r="7.21" transform="translate(-128.74 308.68) rotate(-75.57)"/><circle class="cls-159" cx="117.99" cy="220.61" r="7.21"/><circle class="cls-159" cx="122.1" cy="198.58" r="7.21"/><circle class="cls-159" cx="144.58" cy="189.34" r="7.21" transform="translate(-60.56 68.22) rotate(-22.08)"/><circle class="cls-159" cx="170.09" cy="191.36" r="7.21"/><path class="cls-159" d="M162.71,215c0,6.47,5.08,11.71-9.62,11.71-9.84,0-17.82-5.24-17.82-11.71s8-11.71,17.82-11.71C167.92,203.29,162.71,208.54,162.71,215Z"/></g><path class="cls-159" d="M173.57,128.52c1,5.4.75,9.95-.47,10.16s-3-4-3.95-9.37a24.46,24.46,0,0,1,.47-10.17A24.39,24.39,0,0,1,173.57,128.52Z"/><path class="cls-159" d="M183.52,180.93a408.93,408.93,0,0,1,5.62,47.8,410,410,0,0,1-11.23-46.81,336,336,0,0,1-5.15-45.15A336.37,336.37,0,0,1,183.52,180.93Z"/><polygon class="cls-160" points="174.26 134.35 170.52 135.01 175.22 165.84 180.49 164.91 174.26 134.35"/><rect class="cls-144" x="126.5" y="313.86" width="93.66" height="7.03" transform="translate(275.18 -29.61) rotate(45)"/><rect class="cls-143" x="121.53" y="318.83" width="93.66" height="7.03" transform="translate(277.24 -24.64) rotate(45)"/><rect class="cls-159" x="116.56" y="323.8" width="93.66" height="7.03" transform="translate(279.3 -19.67) rotate(45)"/><polygon class="cls-161" points="208.93 348 212.22 366.19 194.02 362.9 208.93 348"/><polygon class="cls-159" points="211.02 359.56 205.58 365 212.22 366.19 211.02 359.56"/><rect class="cls-161" x="130.13" y="276.57" width="6" height="21.08" transform="translate(242.01 -10.04) rotate(45)"/><path class="cls-159" d="M130.32,272.78H132a0,0,0,0,1,0,0v19.51a0,0,0,0,1,0,0h-1.7a5.22,5.22,0,0,1-5.22-5.22V278a5.22,5.22,0,0,1,5.22-5.22Z" transform="translate(237.44 -8.15) rotate(45)"/></svg>