<svg id="Layer_1" data-name="Layer 1" xmlns="http://www.w3.org/2000/svg" xmlns:xlink="http://www.w3.org/1999/xlink" viewBox="0 0 50 50"><defs><style>.cls-1{fill:url(#linear-gradient);}</style><linearGradient id="linear-gradient" x1="14.27" y1="25" x2="35.73" y2="25" gradientUnits="userSpaceOnUse"><stop offset="0" stop-color="#1b4071"/><stop offset="0.26" stop-color="#1d4374"/><stop offset="0.44" stop-color="#254b7d"/><stop offset="0.6" stop-color="#32598d"/><stop offset="0.74" stop-color="#456ea3"/><stop offset="0.88" stop-color="#5d88bf"/><stop offset="1" stop-color="#78a5df"/></linearGradient></defs><path class="cls-1" d="M30.52,32.46h-11v4.22h11ZM31,37.52H17.42v.83H32.58v-.83Zm-7.84-5.89h3.74l-.63-3.7-.74-.5a.91.91,0,0,0-1,0l-.74.5Zm5.73,2.49H21.14V35h7.72Zm-8.13-.83h8.54a.41.41,0,0,1,.41.41v1.74a.41.41,0,0,1-.41.42H20.73a.42.42,0,0,1-.42-.42V33.7a.42.42,0,0,1,.42-.41Zm5.5-19.86c-.16-.4-.3-.84-.45-1.26a.85.85,0,0,0-1.56,0L22.54,17A1.63,1.63,0,0,1,21,18.07h-5a.73.73,0,0,0-.48,1.33l4,3A1.51,1.51,0,0,1,20,24.11l-1.69,4.82c-.24.68.64,1.23,1.28.81l4.41-3a1.69,1.69,0,0,1,1.92,0l4.41,3c.64.42,1.52-.13,1.28-.81L30,24.11a1.53,1.53,0,0,1,.6-1.75l4-3a.73.73,0,0,0-.48-1.33H29A1.63,1.63,0,0,1,27.46,17Zm2.11,15.93-1.15-.78.19,1.14a7.89,7.89,0,0,0,1-.36Zm4.91-8L31,23a.7.7,0,0,0-.3.82l1,2.78a8.3,8.3,0,0,0,1.53-5.23Zm-6-7.53,1,2.86a.82.82,0,0,0,.79.52h2.85a8.26,8.26,0,0,0-4.63-3.37Zm-9.13,3.37H21a.82.82,0,0,0,.79-.52l1-2.86a8.26,8.26,0,0,0-4.63,3.37Zm.16,9.39,1-2.78A.71.71,0,0,0,19,23l-2.21-1.63a8.3,8.3,0,0,0,1.53,5.23Zm4.34,3.1.19-1.14-1.16.78a8.72,8.72,0,0,0,1,.36Zm-6.16,9V37.1a.45.45,0,0,1,.48-.41h1.71V32a.41.41,0,0,1,.42-.41h3.21l.19-1.09a9.41,9.41,0,0,1-1.62-.64l-.76.52a1.62,1.62,0,0,1-2.52-1.76L18,27.55a9.06,9.06,0,0,1-2-6.74l-1-.76a1.55,1.55,0,0,1,1-2.82h1.22a9.2,9.2,0,0,1,5.93-4.31l.36-1a1.69,1.69,0,0,1,3.14,0l.36,1a9.15,9.15,0,0,1,5.92,4.31h1.23a1.55,1.55,0,0,1,1,2.82l-1,.76a9.06,9.06,0,0,1-2,6.74l.39,1.11a1.62,1.62,0,0,1-2.52,1.76l-.77-.52a9,9,0,0,1-1.61.64l.19,1.09h3.21a.41.41,0,0,1,.42.41v4.65h1.71a.45.45,0,0,1,.48.41v1.66a.46.46,0,0,1-.48.42H16.94a.46.46,0,0,1-.48-.42Z"/></svg>