<svg id="Layer_1" data-name="Layer 1" xmlns="http://www.w3.org/2000/svg" xmlns:xlink="http://www.w3.org/1999/xlink" viewBox="0 0 50 50"><defs><style>.cls-1{fill:url(#linear-gradient);}.cls-2{fill:url(#linear-gradient-2);}.cls-3{fill:url(#linear-gradient-3);}.cls-4{fill:url(#linear-gradient-4);}.cls-5{fill:url(#linear-gradient-5);}.cls-6{fill:#fff;}.cls-7{fill:url(#linear-gradient-6);}.cls-8{fill:url(#linear-gradient-7);}.cls-9{fill:url(#linear-gradient-8);}.cls-10{fill:url(#linear-gradient-9);}</style><linearGradient id="linear-gradient" x1="20.41" y1="21.85" x2="29.59" y2="21.85" gradientUnits="userSpaceOnUse"><stop offset="0" stop-color="#1b4071"/><stop offset="0.26" stop-color="#1d4374"/><stop offset="0.44" stop-color="#254b7d"/><stop offset="0.6" stop-color="#32598d"/><stop offset="0.74" stop-color="#456ea3"/><stop offset="0.88" stop-color="#5d88bf"/><stop offset="1" stop-color="#78a5df"/></linearGradient><linearGradient id="linear-gradient-2" x1="15.78" y1="35.83" x2="34.22" y2="35.83" xlink:href="#linear-gradient"/><linearGradient id="linear-gradient-3" x1="22.48" y1="21.25" x2="27.52" y2="21.25" xlink:href="#linear-gradient"/><linearGradient id="linear-gradient-4" x1="15.3" y1="35.85" x2="34.7" y2="35.85" xlink:href="#linear-gradient"/><linearGradient id="linear-gradient-5" x1="15.52" y1="25.53" x2="34.48" y2="25.53" xlink:href="#linear-gradient"/><linearGradient id="linear-gradient-6" x1="19.91" y1="21.52" x2="30.09" y2="21.52" xlink:href="#linear-gradient"/><linearGradient id="linear-gradient-7" x1="18.2" y1="28.8" x2="31.8" y2="28.8" xlink:href="#linear-gradient"/><linearGradient id="linear-gradient-8" x1="19.83" y1="30.4" x2="30.17" y2="30.4" xlink:href="#linear-gradient"/><linearGradient id="linear-gradient-9" x1="21.45" y1="32.04" x2="28.55" y2="32.04" xlink:href="#linear-gradient"/></defs><path class="cls-1" d="M29.59,16.94A6.88,6.88,0,0,1,26,16.72h-2a7.2,7.2,0,0,1-3.64.22c0,7.44-.3,6.06,3.55,10H26C29.89,23,29.59,24.34,29.59,16.94Z"/><path class="cls-2" d="M32.45,35.81a1.69,1.69,0,0,0,1.6,1.64H17.51a1.69,1.69,0,0,1-1.73-1.64,1.52,1.52,0,0,1,.47-1.13,1.67,1.67,0,0,1,1.22-.47H34.22A1.72,1.72,0,0,0,32.45,35.81Z"/><path class="cls-3" d="M27.29,19.36a.85.85,0,0,1,0,1.17l-1.73,1.73-1.17,1.12-1.17-1.16-.51-.57a.82.82,0,1,1,1.16-1.17l.57.57,1.73-1.74A.84.84,0,0,1,27.29,19.36Z"/><path class="cls-4" d="M34.09,38H17.55a2.2,2.2,0,0,1-2.25-2.17A2,2,0,0,1,16,34.34a2.3,2.3,0,0,1,1.56-.65h1.6a.56.56,0,1,1,0,1.12h-1.6a1.32,1.32,0,0,0-.82.31,1,1,0,0,0-.31.78A1.12,1.12,0,0,0,17.55,37H34.13a.57.57,0,0,1,.57.56A.67.67,0,0,1,34.09,38Z"/><path class="cls-5" d="M31.06,38h0a2.21,2.21,0,0,1-2.08-2.16,2.26,2.26,0,0,1,.3-1.08H16.08a.57.57,0,0,1-.56-.57V13.64a.57.57,0,0,1,.56-.56H33.92a.57.57,0,0,1,.56.56V34.77A3.3,3.3,0,0,1,31.06,38ZM16.6,33.69H31.19a.5.5,0,0,1,.52.52.56.56,0,0,1-.52.56A1.18,1.18,0,0,0,30,35.85a1.12,1.12,0,0,0,1.08,1.08,2.19,2.19,0,0,0,2.26-2.16V14.21H16.6Z"/><path class="cls-6" d="M24.46,24a.54.54,0,0,1-.39-.18L22.34,22a1.34,1.34,0,0,1,1.9-1.9l.18.17L25.76,19a1.35,1.35,0,0,1,1.9,0,1.35,1.35,0,0,1,0,1.9L24.8,23.73A.34.34,0,0,1,24.46,24Zm-1.13-3.12a.17.17,0,0,0-.17.09c-.09.08-.09.13-.09.17a.17.17,0,0,0,.09.17L24.5,22.6,27,20.14a.31.31,0,0,0,0-.39c-.09-.09-.13-.09-.17-.09a.18.18,0,0,0-.18.09l-1.73,1.73a.54.54,0,0,1-.78,0l-.56-.56A.28.28,0,0,0,23.33,20.83Z"/><path class="cls-7" d="M26.1,27.19H24a.46.46,0,0,1-.39-.17c-.48-.52-.91-.91-1.26-1.3a7.33,7.33,0,0,1-2.16-2.86,17.82,17.82,0,0,1-.31-4.8V16.59a.52.52,0,0,1,.18-.39.71.71,0,0,1,.43-.13A9.6,9.6,0,0,0,22,16.2a5,5,0,0,0,1.9-.31.3.3,0,0,1,.18,0h2a.27.27,0,0,1,.17,0,5,5,0,0,0,1.91.31,8.55,8.55,0,0,0,1.38-.13.49.49,0,0,1,.43.13.47.47,0,0,1,.18.39v1.47a17.82,17.82,0,0,1-.31,4.8,7,7,0,0,1-2.16,2.86c-.39.39-.78.78-1.26,1.3C26.36,27.11,26.23,27.19,26.1,27.19Zm-1.81-1.08h1.6c.43-.43.78-.82,1.12-1.12,1.13-1.13,1.65-1.65,1.86-2.43a17.76,17.76,0,0,0,.26-4.5v-.87a6.31,6.31,0,0,1-.95,0A6.56,6.56,0,0,1,26,16.89H24.2a8,8,0,0,1-3.16.3v.87a18.17,18.17,0,0,0,.26,4.5A6.37,6.37,0,0,0,23.16,25C23.46,25.29,23.85,25.64,24.29,26.11Z"/><path class="cls-8" d="M31.23,29.36H18.77a.57.57,0,1,1,0-1.13H31.23a.57.57,0,1,1,0,1.13Z"/><path class="cls-9" d="M29.57,31H20.39a.57.57,0,0,1,0-1.13h9.22a.57.57,0,0,1,.56.57A.61.61,0,0,1,29.57,31Z"/><path class="cls-10" d="M28,32.61H22a.57.57,0,0,1,0-1.13h6a.57.57,0,0,1,.56.56A.6.6,0,0,1,28,32.61Z"/></svg>