<svg id="Layer_1" data-name="Layer 1" xmlns="http://www.w3.org/2000/svg" xmlns:xlink="http://www.w3.org/1999/xlink" viewBox="0 0 50 50"><defs><style>.cls-1{fill:url(#linear-gradient);}.cls-2{fill:url(#linear-gradient-2);}.cls-3{fill:url(#linear-gradient-3);}.cls-4{fill:url(#linear-gradient-4);}.cls-5{fill:url(#linear-gradient-5);}.cls-6{fill:url(#linear-gradient-6);}.cls-7{fill:url(#linear-gradient-7);}.cls-8{fill:url(#linear-gradient-8);}.cls-9{fill:url(#linear-gradient-9);}.cls-10{fill:url(#linear-gradient-10);}.cls-11{fill:url(#linear-gradient-11);}.cls-12{fill:url(#linear-gradient-12);}.cls-13{fill:url(#linear-gradient-13);}.cls-14{fill:url(#linear-gradient-14);}.cls-15{fill:url(#linear-gradient-15);}.cls-16{fill:url(#linear-gradient-16);}.cls-17{fill:url(#linear-gradient-17);}.cls-18{fill:url(#linear-gradient-18);}.cls-19{fill:url(#linear-gradient-19);}.cls-20{fill:url(#linear-gradient-20);}.cls-21{fill:url(#linear-gradient-21);}.cls-22{fill:url(#linear-gradient-22);}.cls-23{fill:url(#linear-gradient-23);}.cls-24{fill:url(#linear-gradient-24);}.cls-25{fill:url(#linear-gradient-25);}</style><linearGradient id="linear-gradient" x1="30.7" y1="16.05" x2="31.98" y2="16.05" gradientUnits="userSpaceOnUse"><stop offset="0" stop-color="#1b4071"/><stop offset="0.26" stop-color="#1d4374"/><stop offset="0.44" stop-color="#254b7d"/><stop offset="0.6" stop-color="#32598d"/><stop offset="0.74" stop-color="#456ea3"/><stop offset="0.88" stop-color="#5d88bf"/><stop offset="1" stop-color="#78a5df"/></linearGradient><linearGradient id="linear-gradient-2" x1="20.13" y1="15.36" x2="21.1" y2="15.36" xlink:href="#linear-gradient"/><linearGradient id="linear-gradient-3" x1="25.89" y1="19.2" x2="28.45" y2="19.2" xlink:href="#linear-gradient"/><linearGradient id="linear-gradient-4" x1="19.49" y1="20.95" x2="26.04" y2="20.95" xlink:href="#linear-gradient"/><linearGradient id="linear-gradient-5" x1="28.29" y1="20.94" x2="34.85" y2="20.94" xlink:href="#linear-gradient"/><linearGradient id="linear-gradient-6" x1="21.41" y1="17.92" x2="24.63" y2="17.92" xlink:href="#linear-gradient"/><linearGradient id="linear-gradient-7" x1="30.39" y1="16.05" x2="32.34" y2="16.05" xlink:href="#linear-gradient"/><linearGradient id="linear-gradient-8" x1="24.61" y1="21.44" x2="29.73" y2="21.44" xlink:href="#linear-gradient"/><linearGradient id="linear-gradient-9" x1="25.83" y1="24.61" x2="27.96" y2="24.61" xlink:href="#linear-gradient"/><linearGradient id="linear-gradient-10" x1="24.76" y1="26.47" x2="29.02" y2="26.47" xlink:href="#linear-gradient"/><linearGradient id="linear-gradient-11" x1="29.73" y1="17.92" x2="32.95" y2="17.92" xlink:href="#linear-gradient"/><linearGradient id="linear-gradient-12" x1="16.99" y1="14.8" x2="19.13" y2="14.8" xlink:href="#linear-gradient"/><linearGradient id="linear-gradient-13" x1="34.15" y1="13.98" x2="36.81" y2="13.98" xlink:href="#linear-gradient"/><linearGradient id="linear-gradient-14" x1="35.78" y1="34.62" x2="37.93" y2="34.62" xlink:href="#linear-gradient"/><linearGradient id="linear-gradient-15" x1="15.36" y1="34.88" x2="16.99" y2="34.88" xlink:href="#linear-gradient"/><linearGradient id="linear-gradient-16" x1="25.87" y1="33.96" x2="27.42" y2="33.96" xlink:href="#linear-gradient"/><linearGradient id="linear-gradient-17" x1="28.79" y1="35.14" x2="32.52" y2="35.14" xlink:href="#linear-gradient"/><linearGradient id="linear-gradient-18" x1="26.86" y1="27.13" x2="39.56" y2="27.13" xlink:href="#linear-gradient"/><linearGradient id="linear-gradient-19" x1="25.31" y1="30.93" x2="36.53" y2="30.93" xlink:href="#linear-gradient"/><linearGradient id="linear-gradient-20" x1="20.81" y1="35.14" x2="24.54" y2="35.14" xlink:href="#linear-gradient"/><linearGradient id="linear-gradient-21" x1="13.77" y1="27.11" x2="27.94" y2="27.11" xlink:href="#linear-gradient"/><linearGradient id="linear-gradient-22" x1="16.43" y1="14.75" x2="19.69" y2="14.75" xlink:href="#linear-gradient"/><linearGradient id="linear-gradient-23" x1="35.23" y1="34.62" x2="38.49" y2="34.62" xlink:href="#linear-gradient"/><linearGradient id="linear-gradient-24" x1="14.84" y1="34.92" x2="17.51" y2="34.92" xlink:href="#linear-gradient"/><linearGradient id="linear-gradient-25" x1="33.6" y1="13.98" x2="37.37" y2="13.98" xlink:href="#linear-gradient"/></defs><g id="_714_Insurance_Group_Insurance_Life_Insurance" data-name="714, Insurance, Group Insurance, Life Insurance"><path class="cls-1" d="M32,16.15a.71.71,0,0,1-.15.44,1.25,1.25,0,0,0-1,0,.62.62,0,0,1-.15-.44.64.64,0,0,1,1.28,0Z"/><path class="cls-2" d="M20.62,14.87a.49.49,0,1,1-.49.49A.49.49,0,0,1,20.62,14.87Z"/><path class="cls-3" d="M27.17,20.63a1.44,1.44,0,1,1,1.28-1.43A1.35,1.35,0,0,1,27.17,20.63Zm0-2.22a.81.81,0,1,0,.64.79A.72.72,0,0,0,27.17,18.41Z"/><path class="cls-4" d="M24.94,22.88H19.82a.33.33,0,0,1-.33-.33A3.54,3.54,0,0,1,23,19a3.49,3.49,0,0,1,3,1.64s0,0,0,0a.44.44,0,0,1,0,.16.33.33,0,0,1-.33.33.29.29,0,0,1-.28-.15A2.85,2.85,0,0,0,23,19.68a2.88,2.88,0,0,0-2.87,2.56h4.79a.35.35,0,0,1,.33.34A.33.33,0,0,1,24.94,22.88Z"/><path class="cls-5" d="M34.54,22.88H29.42a.33.33,0,1,1,0-.66h4.79A2.89,2.89,0,0,0,28.91,21a.3.3,0,0,1-.28.15.34.34,0,0,1-.34-.33.27.27,0,0,1,0-.15,0,0,0,0,1,0,0,3.5,3.5,0,0,1,3-1.64,3.61,3.61,0,0,1,3.54,3.56A.34.34,0,0,1,34.54,22.88Z"/><path class="cls-6" d="M23,19.68a1.77,1.77,0,1,1,1.61-1.76A1.7,1.7,0,0,1,23,19.68Zm0-2.89a1.14,1.14,0,1,0,1,1.13A1.08,1.08,0,0,0,23,16.79Z"/><path class="cls-7" d="M30.85,16.9a.28.28,0,0,1-.23-.11,1,1,0,0,1-.23-.64,1,1,0,0,1,2,0,1,1,0,0,1-.23.64l0,0a.32.32,0,0,1-.46,0,.3.3,0,0,1,0-.44.32.32,0,0,0-.25-.53.34.34,0,0,0-.34.33.28.28,0,0,0,.08.2.32.32,0,0,1,0,.46A.6.6,0,0,1,30.85,16.9Z"/><path class="cls-8" d="M29.42,22.88H24.94a.33.33,0,0,1-.33-.33A2.56,2.56,0,0,1,27.17,20a2.48,2.48,0,0,1,1.66.62,2.58,2.58,0,0,1,.9,1.94A.34.34,0,0,1,29.42,22.88Zm-4.15-.64h3.79a2.08,2.08,0,0,0-.64-1.15,1.93,1.93,0,0,0-1.25-.46,2,2,0,0,0-1.26.46A2,2,0,0,0,25.27,22.24Z"/><path class="cls-9" d="M26.89,25.8A1.2,1.2,0,1,1,28,24.61,1.13,1.13,0,0,1,26.89,25.8Zm0-1.85a.67.67,0,1,0,.54.66A.61.61,0,0,0,26.89,24Z"/><path class="cls-10" d="M28.77,27.67H25a.28.28,0,0,1-.28-.27,2.13,2.13,0,0,1,2.13-2.13,2.09,2.09,0,0,1,1.39.51A2.13,2.13,0,0,1,29,27.4.28.28,0,0,1,28.77,27.67Zm-3.45-.53h3.15a1.84,1.84,0,0,0-.53-1,1.63,1.63,0,0,0-2.09,0A1.65,1.65,0,0,0,25.32,27.14Z"/><path class="cls-11" d="M31.34,19.68a1.7,1.7,0,0,1-1.61-1.76,1.76,1.76,0,0,1,1-1.64,1.63,1.63,0,0,1,.61-.13,1.67,1.67,0,0,1,.61.13,1.81,1.81,0,0,1,1,1.64A1.72,1.72,0,0,1,31.34,19.68Zm0-2.89a.94.94,0,0,0-.36.08,1.17,1.17,0,0,0-.61,1.05,1,1,0,1,0,1.94,0,1.17,1.17,0,0,0-.61-1.05A1.07,1.07,0,0,0,31.34,16.79Z"/></g><g id="_715_Hands_Insurance_Safe_Box" data-name="715, Hands, Insurance, Safe, Box"><path class="cls-12" d="M18.06,13.72A1.08,1.08,0,1,1,17,14.8,1.07,1.07,0,0,1,18.06,13.72Z"/><path class="cls-13" d="M35.48,12.65A1.33,1.33,0,1,1,34.15,14,1.33,1.33,0,0,1,35.48,12.65Z"/><path class="cls-14" d="M36.86,33.55a1.07,1.07,0,1,1-1.08,1.07A1.07,1.07,0,0,1,36.86,33.55Z"/><path class="cls-15" d="M16.17,34.06a.82.82,0,0,1,.82.82.82.82,0,0,1-.82.81.81.81,0,0,1-.81-.81A.82.82,0,0,1,16.17,34.06Z"/><polygon class="cls-16" points="27.42 31.19 27.42 37.32 25.87 37.32 25.87 31.19 26.64 30.59 27.42 31.19"/><path class="cls-17" d="M32,35.69H29.35a.56.56,0,0,1-.56-.55.57.57,0,0,1,.56-.56H32a.56.56,0,0,1,.55.56A.63.63,0,0,1,32,35.69Z"/><path class="cls-18" d="M32,37.84H27.42a.56.56,0,0,1,0-1.12h4V35.09a.44.44,0,0,1,.17-.38l6.86-6.44V18.4a1,1,0,0,0-1-1,1,1,0,0,0-.73.3,1,1,0,0,0-.3.73l.08,7A.53.53,0,0,1,36,26h0a.53.53,0,0,1-.52-.51l0-7A2.06,2.06,0,0,1,36,17a2,2,0,0,1,1.46-.6,2.06,2.06,0,0,1,2.06,2.06V28.57a.47.47,0,0,1-.17.39l-6.87,6.43v1.93A.64.64,0,0,1,32,37.84Z"/><path class="cls-19" d="M25.87,37.84a.57.57,0,0,1-.56-.56V31.19a.6.6,0,0,1,.22-.43l7.81-6.27A1.93,1.93,0,0,1,34.58,24a2,2,0,0,1,1.2.43,2.07,2.07,0,0,1,.61.77,2,2,0,0,1-.48,2.19l-4.07,3.73a.55.55,0,1,1-.73-.81l4.07-3.73a.94.94,0,0,0,.22-1,.62.62,0,0,0-.26-.34.86.86,0,0,0-.56-.18.83.83,0,0,0-.56.22h0l-7.63,6.14v5.83A.54.54,0,0,1,25.87,37.84Z"/><path class="cls-20" d="M24,35.69H21.37a.56.56,0,0,1-.56-.55.57.57,0,0,1,.56-.56H24a.57.57,0,0,1,.56.56A.63.63,0,0,1,24,35.69Z"/><path class="cls-21" d="M27.42,37.84h-6.1a.56.56,0,0,1-.55-.56V35.35L13.9,28.91a.45.45,0,0,1-.13-.34V18.44A2.06,2.06,0,0,1,17.29,17a2,2,0,0,1,.6,1.46l0,5.75a1.69,1.69,0,0,1,.81-.17,1.9,1.9,0,0,1,1.25.47l7.81,6.27a.52.52,0,0,1,.21.43v6.09A.51.51,0,0,1,27.42,37.84Zm-5.54-1.07h5V31.45l-7.64-6.14h0a.89.89,0,0,0-.55-.22,1.16,1.16,0,0,0-.56.18.62.62,0,0,0-.26.34,1,1,0,0,0,.21,1l4.08,3.73a.55.55,0,0,1-.73.81l-4.07-3.73a1.83,1.83,0,0,1-.56-1.93v-.09l0-6.95a.86.86,0,0,0-.3-.68,1,1,0,0,0-.73-.3,1,1,0,0,0-1,1v9.87l6.87,6.44a.47.47,0,0,1,.17.39Z"/><path class="cls-22" d="M18.06,16.38a1.63,1.63,0,1,1,1.63-1.63A1.63,1.63,0,0,1,18.06,16.38Zm0-2.14a.56.56,0,1,0,.56.56A.57.57,0,0,0,18.06,14.24Z"/><path class="cls-23" d="M36.86,36.25a1.63,1.63,0,1,1,1.63-1.63A1.66,1.66,0,0,1,36.86,36.25Zm0-2.14a.56.56,0,0,0-.56.55.56.56,0,0,0,1.12,0A.6.6,0,0,0,36.86,34.11Z"/><path class="cls-24" d="M16.17,36.25a1.33,1.33,0,1,1,1.33-1.33A1.34,1.34,0,0,1,16.17,36.25Zm0-1.63a.26.26,0,0,0,0,.52.28.28,0,0,0,.26-.26C16.47,34.75,16.35,34.62,16.17,34.62Z"/><path class="cls-25" d="M35.48,15.87A1.89,1.89,0,1,1,37.37,14,1.9,1.9,0,0,1,35.48,15.87Zm0-2.71a.82.82,0,0,0-.81.82.79.79,0,0,0,.81.82A.82.82,0,0,0,36.3,14,.79.79,0,0,0,35.48,13.16Z"/></g></svg>