<svg id="Layer_1" data-name="Layer 1" xmlns="http://www.w3.org/2000/svg" xmlns:xlink="http://www.w3.org/1999/xlink" viewBox="0 0 50 50"><defs><style>.cls-1{fill:url(#linear-gradient);}.cls-2{fill:url(#linear-gradient-2);}.cls-3{fill:url(#linear-gradient-3);}.cls-4{fill:url(#linear-gradient-4);}.cls-5{fill:url(#linear-gradient-5);}.cls-6{fill:url(#linear-gradient-6);}.cls-7{fill:url(#linear-gradient-7);}.cls-8{fill:url(#linear-gradient-8);}.cls-9{fill:url(#linear-gradient-9);}.cls-10{fill:url(#linear-gradient-10);}.cls-11{fill:url(#linear-gradient-11);}.cls-12{fill:url(#linear-gradient-12);}.cls-13{fill:url(#linear-gradient-13);}.cls-14{fill:url(#linear-gradient-14);}.cls-15{fill:url(#linear-gradient-15);}.cls-16{fill:url(#linear-gradient-16);}.cls-17{fill:url(#linear-gradient-17);}.cls-18{fill:url(#linear-gradient-18);}</style><linearGradient id="linear-gradient" x1="24.7" y1="11.15" x2="25.3" y2="11.15" gradientUnits="userSpaceOnUse"><stop offset="0" stop-color="#1b4071"/><stop offset="0.26" stop-color="#1d4374"/><stop offset="0.44" stop-color="#254b7d"/><stop offset="0.6" stop-color="#32598d"/><stop offset="0.74" stop-color="#456ea3"/><stop offset="0.88" stop-color="#5d88bf"/><stop offset="1" stop-color="#78a5df"/></linearGradient><linearGradient id="linear-gradient-2" x1="31.69" y1="14.26" x2="33.35" y2="14.26" xlink:href="#linear-gradient"/><linearGradient id="linear-gradient-3" x1="16.65" y1="29.3" x2="18.31" y2="29.3" xlink:href="#linear-gradient"/><linearGradient id="linear-gradient-4" x1="34.58" y1="21.78" x2="36.69" y2="21.78" xlink:href="#linear-gradient"/><linearGradient id="linear-gradient-5" x1="13.31" y1="21.78" x2="15.42" y2="21.78" xlink:href="#linear-gradient"/><linearGradient id="linear-gradient-6" x1="31.69" y1="29.3" x2="33.35" y2="29.3" xlink:href="#linear-gradient"/><linearGradient id="linear-gradient-7" x1="16.65" y1="14.26" x2="18.31" y2="14.26" xlink:href="#linear-gradient"/><linearGradient id="linear-gradient-8" x1="28.51" y1="11.97" x2="29.7" y2="11.97" xlink:href="#linear-gradient"/><linearGradient id="linear-gradient-9" x1="33.84" y1="17.75" x2="35.84" y2="17.75" xlink:href="#linear-gradient"/><linearGradient id="linear-gradient-10" x1="14.16" y1="25.82" x2="16.16" y2="25.82" xlink:href="#linear-gradient"/><linearGradient id="linear-gradient-11" x1="33.82" y1="25.89" x2="35.8" y2="25.89" xlink:href="#linear-gradient"/><linearGradient id="linear-gradient-12" x1="14.2" y1="17.68" x2="16.18" y2="17.68" xlink:href="#linear-gradient"/><linearGradient id="linear-gradient-13" x1="20.38" y1="11.94" x2="21.56" y2="11.94" xlink:href="#linear-gradient"/><linearGradient id="linear-gradient-14" x1="22.01" y1="35.69" x2="28.18" y2="35.69" xlink:href="#linear-gradient"/><linearGradient id="linear-gradient-15" x1="22.01" y1="37.34" x2="28.18" y2="37.34" xlink:href="#linear-gradient"/><linearGradient id="linear-gradient-16" x1="23.65" y1="39.19" x2="26.51" y2="39.19" xlink:href="#linear-gradient"/><linearGradient id="linear-gradient-17" x1="17.29" y1="24.18" x2="32.83" y2="24.18" xlink:href="#linear-gradient"/><linearGradient id="linear-gradient-18" x1="19.42" y1="22.43" x2="21.8" y2="22.43" xlink:href="#linear-gradient"/></defs><path class="cls-1" d="M25,12.2a.29.29,0,0,1-.3-.3V10.4a.3.3,0,1,1,.6,0v1.5A.29.29,0,0,1,25,12.2Z"/><path class="cls-2" d="M32,15.1a.27.27,0,0,1-.21-.09.3.3,0,0,1,0-.43l1-1.06a.3.3,0,1,1,.43.43L32.2,15A.27.27,0,0,1,32,15.1Z"/><path class="cls-3" d="M17,30.14a.29.29,0,0,1-.21-.09.3.3,0,0,1,0-.43l1.06-1.06a.29.29,0,0,1,.42,0,.3.3,0,0,1,0,.43l-1,1.06A.31.31,0,0,1,17,30.14Z"/><path class="cls-4" d="M36.38,22.09H34.89a.31.31,0,1,1,0-.61h1.49a.31.31,0,1,1,0,.61Z"/><path class="cls-5" d="M15.11,22.09H13.62a.31.31,0,1,1,0-.61h1.49a.31.31,0,1,1,0,.61Z"/><path class="cls-6" d="M33.05,30.14a.31.31,0,0,1-.22-.09l-1-1.06a.3.3,0,0,1,0-.43.29.29,0,0,1,.42,0l1.06,1.06a.3.3,0,0,1,0,.43A.29.29,0,0,1,33.05,30.14Z"/><path class="cls-7" d="M18,15.1A.27.27,0,0,1,17.8,15L16.74,14a.3.3,0,1,1,.43-.43l1,1.06a.3.3,0,0,1,0,.43A.27.27,0,0,1,18,15.1Z"/><path class="cls-8" d="M28.82,13a.27.27,0,0,1-.12,0,.29.29,0,0,1-.16-.39l.58-1.38a.3.3,0,0,1,.39-.17.31.31,0,0,1,.17.4l-.58,1.38A.3.3,0,0,1,28.82,13Z"/><path class="cls-9" d="M34.15,18.34a.29.29,0,0,1-.28-.19.31.31,0,0,1,.16-.4l1.39-.56a.29.29,0,0,1,.39.16.3.3,0,0,1-.16.4l-1.39.57Z"/><path class="cls-10" d="M14.47,26.4a.3.3,0,0,1-.12-.58l1.39-.57a.3.3,0,0,1,.39.17.29.29,0,0,1-.16.39l-1.39.57A.22.22,0,0,1,14.47,26.4Z"/><path class="cls-11" d="M35.5,26.48a.25.25,0,0,1-.12,0L34,25.88a.3.3,0,0,1-.16-.4.31.31,0,0,1,.4-.16l1.38.58a.3.3,0,0,1-.12.58Z"/><path class="cls-12" d="M15.88,18.27l-.12,0-1.38-.58a.32.32,0,0,1-.16-.4.3.3,0,0,1,.4-.16l1.38.58a.29.29,0,0,1,.16.39A.3.3,0,0,1,15.88,18.27Z"/><path class="cls-13" d="M21.25,12.94a.3.3,0,0,1-.28-.19l-.57-1.38a.31.31,0,0,1,.17-.4.3.3,0,0,1,.39.17l.57,1.38a.3.3,0,0,1-.16.4Z"/><path class="cls-14" d="M27.66,36.21H22.53a.52.52,0,0,1-.52-.52h0a.52.52,0,0,1,.52-.52h5.13a.52.52,0,0,1,.52.52h0A.52.52,0,0,1,27.66,36.21Z"/><path class="cls-15" d="M27.66,37.86H22.53a.52.52,0,0,1-.52-.52h0a.52.52,0,0,1,.52-.53h5.13a.52.52,0,0,1,.52.53h0A.52.52,0,0,1,27.66,37.86Z"/><path class="cls-16" d="M23.85,38.48a.21.21,0,0,0-.2.24,1.46,1.46,0,0,0,2.86,0,.2.2,0,0,0-.2-.24Z"/><path class="cls-17" d="M27.11,34.51H23a1.37,1.37,0,0,1-1.36-1.27,10.69,10.69,0,0,0-2.13-5.34,10.76,10.76,0,0,1-2.22-6.29,7.73,7.73,0,0,1,6.52-7.67,8.1,8.1,0,0,1,2.69,0,7.78,7.78,0,0,1,6.33,7.64A10.7,10.7,0,0,1,30.6,27.9a10.68,10.68,0,0,0-2.12,5.34A1.37,1.37,0,0,1,27.11,34.51ZM25.06,14.85a6.5,6.5,0,0,0-1.09.09,6.72,6.72,0,0,0-5.67,6.67,9.76,9.76,0,0,0,2.06,5.74,11.55,11.55,0,0,1,2.28,5.81.37.37,0,0,0,.36.34h4.11a.36.36,0,0,0,.36-.34,11.73,11.73,0,0,1,2.28-5.81,9.77,9.77,0,0,0,2.07-5.74A6.75,6.75,0,0,0,26.31,15,6.54,6.54,0,0,0,25.06,14.85Z"/><path class="cls-18" d="M21.29,26.47a.49.49,0,0,1-.4-.2,7.1,7.1,0,0,1-.65-7.63.5.5,0,0,1,.87.51,6.11,6.11,0,0,0,.59,6.52.5.5,0,0,1-.11.71A.53.53,0,0,1,21.29,26.47Z"/></svg>