<svg id="Layer_1" data-name="Layer 1" xmlns="http://www.w3.org/2000/svg" xmlns:xlink="http://www.w3.org/1999/xlink" viewBox="0 0 50 50"><defs><style>.cls-1{fill:url(#linear-gradient);}.cls-2{fill:url(#linear-gradient-2);}.cls-3{fill:url(#linear-gradient-3);}</style><linearGradient id="linear-gradient" x1="14.94" y1="32.87" x2="35.06" y2="32.87" gradientUnits="userSpaceOnUse"><stop offset="0" stop-color="#1b4071"/><stop offset="0.26" stop-color="#1d4374"/><stop offset="0.44" stop-color="#254b7d"/><stop offset="0.6" stop-color="#32598d"/><stop offset="0.74" stop-color="#456ea3"/><stop offset="0.88" stop-color="#5d88bf"/><stop offset="1" stop-color="#78a5df"/></linearGradient><linearGradient id="linear-gradient-2" x1="13.36" y1="17.95" x2="36.64" y2="17.95" xlink:href="#linear-gradient"/><linearGradient id="linear-gradient-3" x1="16.68" y1="17.95" x2="33.32" y2="17.95" xlink:href="#linear-gradient"/></defs><path class="cls-1" d="M31,28.58a2.13,2.13,0,0,1-.79-.15.84.84,0,0,0-.27,0,.74.74,0,0,0-.71.48v0a2.24,2.24,0,0,1-3.67.78h0a.75.75,0,0,0-.53-.22.79.79,0,0,0-.54.22h0a2.21,2.21,0,0,1-1.57.65,2.24,2.24,0,0,1-2.1-1.43h0a.75.75,0,0,0-1-.43h0a2.17,2.17,0,0,1-.79.15,2.25,2.25,0,0,1-1.48-.56L14.94,34.9l4.73-1.42,2.58,4.21L25,30.49l2.75,7.2,2.58-4.21,4.73,1.42-2.61-6.85a2.26,2.26,0,0,1-1.44.53Z"/><path class="cls-2" d="M36.1,18l0,0a1.5,1.5,0,0,1-.22-2.09l0,0a1.5,1.5,0,0,0-.77-2.38h0a1.5,1.5,0,0,1-1-1.82v0a1.51,1.51,0,0,0-1.68-1.86h0A1.5,1.5,0,0,1,30.6,8.46v0a1.5,1.5,0,0,0-2.29-1h0A1.51,1.51,0,0,1,26.23,7h0a1.5,1.5,0,0,0-2.51,0V7a1.51,1.51,0,0,1-2.07.44h0a1.5,1.5,0,0,0-2.29,1v0a1.5,1.5,0,0,1-1.7,1.24h0A1.51,1.51,0,0,0,16,11.59v.05a1.49,1.49,0,0,1-1.05,1.82h0a1.5,1.5,0,0,0-.77,2.38l0,.05A1.5,1.5,0,0,1,13.93,18l0,0a1.5,1.5,0,0,0,.26,2.48l0,0a1.48,1.48,0,0,1,.65,2v0a1.5,1.5,0,0,0,1.25,2.17h0a1.49,1.49,0,0,1,1.41,1.56v0a1.5,1.5,0,0,0,2,1.47h0a1.5,1.5,0,0,1,1.92.86h0a1.5,1.5,0,0,0,2.45.52h0a1.5,1.5,0,0,1,2.11,0h0a1.51,1.51,0,0,0,2.46-.52v0a1.49,1.49,0,0,1,1.92-.86h0a1.51,1.51,0,0,0,2-1.47v0a1.52,1.52,0,0,1,1.41-1.57h0a1.5,1.5,0,0,0,1.25-2.17l0,0a1.51,1.51,0,0,1,.65-2l0,0A1.5,1.5,0,0,0,36.1,18ZM25,27A9.06,9.06,0,1,1,34,17.91,9.06,9.06,0,0,1,25,27Z"/><path class="cls-3" d="M25,9.63A8.33,8.33,0,0,0,16.68,18a8.2,8.2,0,0,0,1,3.94A8.32,8.32,0,1,0,25,9.63Zm-5.2,7.68a.91.91,0,0,1,1.31,0l2.24,2.24L28.89,14a.93.93,0,0,1,1.31,0h0a.93.93,0,0,1,0,1.31l-6.85,6.85L22,20.85h0L19.8,18.61A.92.92,0,0,1,19.8,17.31Z"/></svg>