<svg version="1.2" xmlns="http://www.w3.org/2000/svg" viewBox="0 0 503 477" width="503" height="477">
	<title>صورة رقم2-svg</title>
	<style>
		.s0 { fill: #fafafa } 
		.s1 { fill: #ffffff } 
		.s2 { fill: #f0f0f0 } 
		.s3 { fill: #e0e0e0 } 
		.s4 { fill: #ebebeb } 
		.s5 { fill: #37474f } 
		.s6 { fill: #263238 } 
		.s7 { fill: #455a64 } 
		.s8 { fill: #1b4071 } 
		.s9 { opacity: .5;fill: #000000 } 
		.s10 { opacity: .3;fill: #ffffff } 
		.s11 { opacity: .2;fill: #000000 } 
		.s12 { fill: #000000 } 
		.s13 { opacity: .1;fill: #000000 } 
		.s14 { opacity: .4;fill: #ffffff } 
		.s15 { opacity: .3;fill: #000000 } 
		.s16 { opacity: .6;fill: #ffffff } 
		.s17 { opacity: .1;fill: #ffffff } 
		.s18 { fill: #c8856a } 
		.s19 { fill: #af6152 } 
		.s20 { fill: #ffa8a7 } 
	</style>
	<path id="Layer" class="s0" d="m74 253.2c-98 51-98 133.7 0 184.7 98 51 257 51.1 355 0 98-51 98-133.7 0-184.7-98-51-257-51-355 0z"/>
	<path id="Layer" class="s0" d="m167.2 11.5l3.4 1.9v149.7l-3.4-1.9z"/>
	<path id="Layer" class="s1" d="m167.2 161.2v-145.9l-136.9 79.1 0.1 145.8z"/>
	<path id="Layer" fill-rule="evenodd" class="s2" d="m24 255v-164.3l153-88.3v164.4zm146.6-92v-149.7l-140.3 81v149.7z"/>
	<path id="Layer" class="s3" d="m170.6 163.1l-3.4-1.9-136.8 79-0.1 3.9z"/>
	<path id="Layer" class="s0" d="m132.4 35.4l3.4-1.9v149.7l-3.4-1.9z"/>
	<path id="Layer" class="s0" d="m55.5 79.8l3.4-1.9v149.7l-3.4-1.9z"/>
	<path id="Layer" class="s3" d="m24 255l-3.4-1.9v-164.3l3.4 1.9z"/>
	<path id="Layer" class="s0" d="m20.6 88.8l3.4 1.9 153-88.3-3.4-2z"/>
	<path id="Layer" class="s3" d="m30.3 162.6v4l140.4-81.1-3.4-1.9z"/>
	<path id="Layer" class="s2" d="m30.4 173.9l-0.1-7.3 140.4-81.1-0.1 7.4z"/>
	<path id="Layer" class="s2" d="m59 234.9l6.3-3.7v-164.3l-6.4 3.7z"/>
	<path id="Layer" class="s2" d="m135.8 190.5l6.3-3.7v-164.3l-6.3 3.7z"/>
	<path id="Layer" class="s0" d="m58.9 150l-3.4-1.9v-68.3l3.4-1.9z"/>
	<path id="Layer" class="s0" d="m135.8 105.7l-3.4-2v-68.2l3.4-2z"/>
	<path id="Layer" class="s0" d="m302 79.7l1.8 1.1 35.1-20.4-1.7-1z"/>
	<path id="Layer" class="s1" d="m337.2 59.4l-33.4 19.3v-35l33.4-19.3z"/>
	<path id="Layer" fill-rule="evenodd" class="s2" d="m342.1 62.3l-41.6 24.1v-44.6l41.6-24zm-3.2-38.9l-35.1 20.2v37.1l35.1-20.3z"/>
	<path id="Layer" class="s3" d="m338.9 60.4l-1.7-1v-35l1.7-1z"/>
	<path id="Layer" class="s0" d="m342.2 17.8l-1.8-1-41.6 24 1.7 1z"/>
	<path id="Layer" class="s3" d="m298.8 40.8l1.7 1v44.6l-1.7-1z"/>
	<path id="Layer" class="s2" d="m335.9 58.4l-30.8 17.8v-8.9l7.7-17.8 4.8 4.4-1.7 7.5 10.6-22.8 9.4 10.9z"/>
	<path id="Layer" class="s2" d="m317.3 40.9q-1 0.6-1.6 1.7c-0.4 0.7-0.6 1.4-0.7 2.2 0 1.5 1 2.1 2.3 1.3 0.7-0.4 1.2-1 1.6-1.7 0.4-0.7 0.6-1.4 0.7-2.2 0-1.5-1-2.1-2.3-1.3z"/>
	<path id="Layer" class="s0" d="m302 139.5l1.8 1 35.1-20.3-1.7-1.1z"/>
	<path id="Layer" class="s1" d="m337.2 119.1l-33.4 19.4v-35.1l33.4-19.3z"/>
	<path id="Layer" fill-rule="evenodd" class="s2" d="m342.1 122l-41.6 24.1v-44.5l41.6-24.1zm-3.2-38.9l-35.2 20.3v37l35.2-20.3z"/>
	<path id="Layer" class="s3" d="m338.9 120.2l-1.7-1.1v-35l1.7-1z"/>
	<path id="Layer" class="s0" d="m342.2 77.5l-1.8-1-41.6 24.1 1.7 1z"/>
	<path id="Layer" class="s3" d="m298.8 100.6l1.7 1v44.5l-1.7-1z"/>
	<path id="Layer" class="s2" d="m335.9 118.1l-30.8 17.8v-8.9l7.7-17.8 4.8 4.4-1.7 7.5 10.6-22.8 9.4 10.9z"/>
	<path id="Layer" class="s2" d="m317.3 100.6c-0.7 0.4-1.2 1-1.6 1.7-0.4 0.7-0.6 1.5-0.7 2.2 0 1.5 1 2.1 2.3 1.4 0.7-0.5 1.2-1.1 1.6-1.7 0.4-0.7 0.6-1.5 0.7-2.3 0-1.5-1-2-2.3-1.3z"/>
	<path id="Layer" class="s3" d="m402 441.9c41.8 0 75.6-19.5 75.6-43.6 0-24.2-33.8-43.7-75.6-43.7-41.8 0-75.7 19.5-75.7 43.7 0 24.1 33.9 43.6 75.7 43.6z"/>
	<path id="Layer" class="s3" d="m275.2 356.8l-10.7-6.2c-5.3-3.1-5.3-8 0-11l66.5-38.4c5.3-3.1 13.9-3.1 19.2 0l10.7 6.1c5.3 3.1 5.3 8.1 0 11.1l-66.6 38.4c-5.3 3.1-13.8 3.1-19.1 0z"/>
	<path id="Layer" class="s3" d="m98.4 419.1c-0.3 1.7-1 3.2-1.9 4.6-2 2.7-4.5 4.9-7.4 6.5-12.8 7.4-33.5 7.4-46.2 0-3-1.6-5.5-3.8-7.4-6.5-1-1.4-1.6-3-2-4.6-1.1-5.5 2-11.3 9.4-15.6 12.7-7.3 33.4-7.3 46.2 0 7.3 4.3 10.5 10.1 9.3 15.6z"/>
	<path id="Layer" class="s3" d="m245.7 333.7l-155.2 89.6c-1.8 1-1.8 2.7 0 3.8l24.3 14c1 0.5 2.1 0.8 3.3 0.8 1.1 0 2.2-0.3 3.2-0.8l155.3-89.6c1.8-1 1.8-2.7-0.1-3.8l-24.2-14c-1.1-0.5-2.2-0.7-3.3-0.7-1.2 0-2.3 0.2-3.3 0.7z"/>
	<path id="Layer" fill-rule="evenodd" class="s4" d="m269.6 417q0.5 0 0.9 0.2l7.3 4.2q0.2 0.1 0.3 0.2 0.1 0.1 0.1 0.3 0 0.2-0.1 0.3-0.1 0.2-0.2 0.2l-5.9 4.2q-0.1 0.1-0.2 0.3-0.1 0.1-0.1 0.3 0 0.2 0 0.3 0.1 0.2 0.2 0.3 1.2 1.4 2.1 2.9 0.2 0.4 0.5 0.6 0.4 0.2 0.8 0.3l9.8 0.6q0.4 0.1 0.6 0.3 0.3 0.3 0.3 0.7v5.5q0 0.4-0.3 0.6-0.2 0.3-0.6 0.3l-9.8 0.7q-0.4 0-0.8 0.3-0.3 0.2-0.5 0.6-0.9 1.5-2.1 2.8-0.1 0.2-0.2 0.3 0 0.2 0 0.4 0 0.1 0.1 0.3 0.1 0.1 0.2 0.2l5.8 4.2q0.2 0.1 0.3 0.2 0.1 0.2 0.1 0.4 0 0.1-0.1 0.3-0.1 0.1-0.3 0.2l-7.4 4.2q-0.3 0.2-0.8 0.2-0.4 0-0.8-0.1l-7.5-3.5c-0.5-0.2-1.1-0.2-1.7-0.1q-2.8 0.9-5.8 1.4-0.3 0.1-0.6 0.4-0.3 0.2-0.4 0.6l-1 4.9q-0.1 0.4-0.4 0.7-0.3 0.2-0.7 0.3h-10.8q-0.4-0.1-0.7-0.3-0.3-0.3-0.4-0.7l-0.9-4.9q-0.1-0.4-0.4-0.6-0.3-0.3-0.7-0.4-2.9-0.5-5.8-1.4c-0.5-0.1-1.1-0.1-1.7 0.1l-7.4 3.5q-0.4 0.1-0.9 0.1-0.4 0-0.8-0.2l-7.3-4.2q-0.2-0.1-0.3-0.2-0.1-0.2-0.1-0.3 0-0.2 0.1-0.4 0.1-0.1 0.2-0.2l5.9-4.2q0.1-0.1 0.2-0.2 0.1-0.2 0.1-0.3 0-0.2 0-0.4-0.1-0.1-0.2-0.3-1.2-1.3-2.1-2.8-0.2-0.4-0.6-0.6-0.3-0.3-0.7-0.3l-9.8-0.7q-0.4 0-0.7-0.3-0.2-0.2-0.2-0.6v-5.4q0-0.4 0.2-0.7 0.3-0.3 0.7-0.3l9.8-0.6q0.4-0.1 0.7-0.3 0.4-0.3 0.6-0.6 0.9-1.6 2.1-2.9 0.1-0.1 0.2-0.3 0-0.2 0-0.3 0-0.2-0.1-0.4-0.1-0.1-0.2-0.2l-5.9-4.2q-0.1-0.1-0.2-0.2-0.1-0.2-0.1-0.3 0-0.2 0.1-0.4 0.1-0.1 0.3-0.1l7.3-4.3q0.4-0.2 0.8-0.2 0.5 0 0.9 0.1l7.4 3.5c0.6 0.2 1.2 0.2 1.7 0.1q2.9-0.9 5.8-1.4 0.4-0.1 0.7-0.3 0.3-0.3 0.4-0.7l0.9-4.9q0.1-0.4 0.4-0.7 0.3-0.2 0.7-0.2h10.8q0.4 0 0.7 0.2 0.4 0.3 0.4 0.7l1 4.9q0.1 0.4 0.4 0.7 0.3 0.2 0.6 0.3 3 0.5 5.8 1.4c0.6 0.1 1.2 0.1 1.7-0.1l7.5-3.5q0.4-0.1 0.8-0.1zm-36.7 11.8c-6.9 3.9-6.9 10.4 0 14.3 6.9 4 18 4 24.9 0 6.8-3.9 6.8-10.4 0-14.3-6.9-4-18-4-24.9 0z"/>
	<path id="Layer" fill-rule="evenodd" class="s4" d="m300.8 384.5q0.4 0 0.6 0.2l5.5 3.1q0.1 0.1 0.2 0.2 0 0.1 0 0.2 0 0.1 0 0.2-0.1 0.1-0.2 0.2l-4.3 3.1q-0.1 0-0.2 0.2-0.1 0.1-0.1 0.2 0 0.1 0.1 0.2 0 0.2 0.1 0.3 0.9 0.9 1.5 2.1 0.2 0.3 0.5 0.4 0.2 0.2 0.6 0.2l7.2 0.5q0.3 0 0.5 0.2 0.1 0.2 0.1 0.5v4.1q0 0.3-0.1 0.5-0.2 0.2-0.5 0.2l-7.2 0.5q-0.4 0-0.6 0.2-0.3 0.1-0.5 0.4-0.6 1.2-1.5 2.1-0.1 0.1-0.2 0.3 0 0.1 0 0.2 0 0.1 0.1 0.2 0 0.2 0.1 0.2l4.4 3.1q0.1 0.1 0.1 0.2 0.1 0.1 0.1 0.2 0 0.1-0.1 0.2 0 0.1-0.1 0.2l-5.5 3.1q-0.3 0.1-0.6 0.2-0.3 0-0.6-0.1l-5.5-2.6c-0.4-0.2-0.9-0.2-1.3-0.1q-2.1 0.7-4.3 1-0.3 0.1-0.5 0.3-0.2 0.2-0.3 0.5l-0.7 3.7q0 0.3-0.2 0.4-0.3 0.2-0.6 0.2h-8q-0.3 0-0.5-0.2-0.2-0.1-0.3-0.4l-0.7-3.7q0-0.3-0.3-0.5-0.2-0.2-0.5-0.3-2.2-0.3-4.3-1c-0.4-0.1-0.8-0.1-1.2 0.1l-5.6 2.6q-0.3 0.1-0.6 0.1-0.3-0.1-0.6-0.2l-5.4-3.1q-0.1-0.1-0.2-0.2-0.1-0.1-0.1-0.2 0-0.1 0.1-0.2 0.1-0.1 0.2-0.2l4.3-3.1q0.1 0 0.2-0.2 0-0.1 0-0.2 0.1-0.1 0-0.2 0-0.2-0.1-0.3-0.9-0.9-1.6-2.1-0.1-0.3-0.4-0.4-0.2-0.2-0.6-0.3l-7.2-0.4q-0.3 0-0.5-0.2-0.2-0.2-0.2-0.5v-4.1q0-0.3 0.2-0.5 0.2-0.2 0.5-0.2l7.2-0.5q0.4 0 0.6-0.2 0.3-0.2 0.4-0.4 0.7-1.2 1.6-2.2 0.1-0.1 0.1-0.2 0.1-0.1 0-0.2 0-0.2 0-0.3-0.1-0.1-0.2-0.2l-4.3-3q-0.1-0.1-0.2-0.2-0.1-0.1-0.1-0.2 0-0.1 0.1-0.2 0.1-0.1 0.2-0.2l5.4-3.1q0.3-0.2 0.6-0.2 0.3 0 0.6 0.1l5.6 2.6q0.6 0.2 1.2 0.1 2.1-0.7 4.3-1.1 0.3 0 0.5-0.2 0.2-0.3 0.3-0.6l0.7-3.6q0.1-0.3 0.3-0.5 0.2-0.2 0.5-0.2h8q0.3 0 0.6 0.2 0.2 0.2 0.2 0.5l0.7 3.6q0.1 0.3 0.3 0.6 0.2 0.2 0.5 0.2 2.2 0.4 4.3 1.1c0.4 0.1 0.9 0 1.3-0.1l5.5-2.6q0.3-0.1 0.6-0.1zm-27.2 8.7c-5.1 3-5.1 7.7 0 10.7 5.1 2.9 13.4 2.9 18.4 0 5.1-3 5.1-7.7 0-10.7-5-2.9-13.3-2.9-18.4 0z"/>
	<path id="Layer" class="s5" d="m95.4 389.8h-58.8l6.1 25.3c0.4 3.1 2.7 6.1 6.7 8.4 9.2 5.3 24 5.3 33.1 0 4.4-2.5 6.7-5.8 6.9-9.1z"/>
	<path id="Layer" class="s6" d="m88.2 407.2q1.9-1.1 3.5-2.5l3.3-13.5c-1.7 1.8-3.7 3.4-5.9 4.7-12.4 7.2-32.3 7.3-45.1 0.6l1.5-6.1-0.5-0.6h-8.4l6.1 25.3c0.4 3.1 2.7 6 6.7 8.4 6.5 3.7 15.9 4.8 24.1 3.2-14.6 1.1-24.7-5.3-26.2-11.2-0.6-2.4-1.7-7.6-1.7-7.6 12.3 6.2 30.9 6 42.6-0.7z"/>
	<path id="Layer" class="s7" d="m98.4 382.3c-0.3 1.7-1 3.2-1.9 4.6-2 2.7-4.5 4.9-7.4 6.5-12.8 7.4-33.5 7.4-46.2 0-3-1.6-5.5-3.8-7.4-6.5-1-1.4-1.6-2.9-2-4.6-1.1-5.5 2-11.3 9.4-15.5 12.7-7.4 33.4-7.4 46.2 0 7.3 4.2 10.5 10 9.3 15.5z"/>
	<path id="Layer" class="s5" d="m96.5 386.9c-2 2.7-4.5 4.9-7.4 6.5-12.8 7.4-33.5 7.4-46.2 0-3-1.6-5.5-3.8-7.4-6.5-1-1.4-1.6-2.9-2-4.6l1.5 10c0.7 4 3.6 7.9 9 11 12.1 7 31.8 7 44 0 5.3-3.1 8.2-6.9 8.9-10.9l0.1-0.5 1.4-9.6c-0.3 1.7-1 3.2-1.9 4.6z"/>
	<path id="Layer" class="s6" d="m85.2 369c-10.6-6.2-27.8-6.2-38.5 0-6 3.5-8.6 8.1-7.8 12.7 0.6 3.5 3.2 6.8 7.8 9.5 10.7 6.2 27.9 6.2 38.5 0 4.7-2.7 7.2-6 7.9-9.5 0.8-4.6-1.8-9.2-7.9-12.7z"/>
	<path id="Layer" class="s0" d="m40.7 385.9c1.6 2.2 3.6 4 6 5.3 10.7 6.2 27.9 6.2 38.5 0 2.4-1.3 4.5-3.1 6.1-5.3-0.1-3.7-2.6-7.4-7.4-10.2-9.9-5.7-25.9-5.7-35.8 0-4.9 2.8-7.3 6.5-7.4 10.2z"/>
	<path id="Layer" class="s8" d="m51.4 293.2q-0.1-0.3 0-0.7c0-0.3 0-0.5-0.1-0.8q-0.1-0.8-0.2-1.5-0.3-1.6-0.8-3.1 0-0.3-0.2-0.6l-0.2-0.6-0.4-1.2-0.6-1.7q-0.3-0.8-0.5-1.6-0.1-0.3-0.2-0.6 0-0.2-0.1-0.3 0-0.4-0.1-0.9-0.2-0.8-0.4-1.6-0.5-1.7-1.1-3.3-0.4-1.2-1-2.4c-0.6-1.5-1.5-2.8-2.8-3.8q-0.2-0.2-0.5-0.3-0.3 0-0.6 0.1c-0.4 0.2-0.5 0.7-0.5 1.1l-0.5 7.3q-0.2 2.2 0 4.5c0.3 2 1.2 3.9 2.5 5.5q1.3 1.4 2.9 2.6c0.8 0.7 1.6 1.3 2.4 1.9q1.3 1.3 3 2z"/>
	<path id="Layer" class="s8" d="m65.7 277.9q-0.1-0.5-0.2-1-0.3-1.1-0.9-2.1c-0.2-0.3-0.3-0.7-0.5-1q-0.3-0.5-0.8-0.9-0.2-0.2-0.6-0.3-0.2-0.1-0.4 0-0.1 0-0.2 0.2-0.2 0.2-0.2 0.5-0.2 2-0.8 3.9-0.2 0.9-0.6 1.8-0.2 0.3-0.4 0.5-0.1 0.2-0.2 0.4-0.4 0.9-1 1.7-0.5 0.6-1 1.2c-1.1 1.1-2.6 2-3.4 3.3-1.3 2.1-1 4.7-1.1 6.9q0 0.6 0 1.2c0 3.2-0.5 5.9 0.3 9 0 0.2 0.2 0.7 0.6 0.5l0.3-0.2c1.7-1.4 2.9-3.2 3.6-5.2l0.6-1.6q0.3-0.5 0.7-1c0.8-1 1.4-2 2.1-3.1q2-3.2 3.3-6.8c0.6-1.8 0.9-3.6 0.9-5.4q0.1-1.3-0.1-2.5z"/>
	<path id="Layer" class="s8" d="m43.9 302.7c0.6 0 1.2 0.1 1.8 0.1q1.8 0 3.6-0.1h1.9q0.3 0 0.6 0 0.4 0.1 0.9 0 0.1 0 0.2 0 0-0.1 0-0.1 0.1-0.1 0-0.2c0-0.8-0.2-1.7-0.5-2.4q-0.3-0.6-0.7-1c-0.9-1.1-2-1.9-3.2-2.5q-1.8-0.8-3.7-1.1l-10-2.1q-0.3-0.2-0.7-0.1-0.3 0-0.6 0.2-0.2 0.4-0.2 0.8c-0.1 1.2 0.2 2.5 0.8 3.6 0.6 1.2 1.5 2.1 2.5 2.8 2.2 1.3 4.7 2.1 7.3 2.1z"/>
	<path id="Layer" class="s8" d="m54.8 315q-0.4-0.8-1.1-1.5-1.1-1-2.4-1.5-2.2-0.9-4.5-1.3-5.3-1.3-10.2-3.7-0.3-0.2-0.7-0.2c-0.6 0.1-0.8 0.8-0.9 1.4 0 1.6 0.4 3.2 1.2 4.5 0.7 1.4 1.9 2.6 3.3 3.3 2.8 1.4 6.1 1.2 9.2 1.1h0.1q1.7-0.1 3.3 0.1 0.9 0 1.7 0.2c0.4 0.1 1.3 0.6 1.6 0q0.1-0.3 0-0.7-0.2-0.9-0.6-1.6z"/>
	<path id="Layer" class="s8" d="m58.2 315.9q-0.2 0.2-0.5 0.3-0.1 0.1-0.3 0.1-0.2 0-0.3 0-0.2-0.1-0.3-0.2-0.1-0.1-0.1-0.3-0.2-0.3-0.3-0.6-0.3-0.7-0.4-1.4 0-0.1 0-0.3 0-0.8-0.1-1.5c0-0.3 0-0.6-0.1-0.8q0-0.3 0-0.6 0-0.5 0-0.9 0-0.6 0-1.2c0.3-3.4 2.8-6.2 4.9-9q2.8-3.7 4.7-8c0.3-0.7 0.7-1.4 1.4-1.3 0.7 0.1 0.9 0.7 1.1 1.2 1.1 3.7 1 7.7-0.3 11.4-0.8 2.2-1.8 4.3-3.1 6.2q-1 1.5-2.2 2.8-0.3 0.4-0.6 0.7-1.1 1.2-2.2 2.3l-0.9 0.9z"/>
	<path id="Layer" class="s8" d="m51.9 325.4q-3.5-1.2-7.1-1.4c-2.4-0.2-4.7-0.9-6.9-2.1q-0.3-0.2-0.7-0.3c-0.5 0-0.7 0.6-0.8 1.1-0.1 1.5 0.3 3 1.1 4.3 1.4 2 3.3 3.7 5.5 4.7 2.3 1.1 4.8 1.4 7.2 1 1.6-0.2 3.1-0.8 4.7-1q0.5 0 1.1 0c0.3 0 0.7 0.2 0.9 0 0.4-0.5-0.1-1.1-0.2-1.6q-0.2-0.8-0.7-1.5c-0.6-0.9-1.5-1.7-2.4-2.3q-0.8-0.6-1.7-0.9z"/>
	<path id="Layer" class="s8" d="m52.1 339.5c-2.4-0.6-4.9-0.7-7.3-1.6-1-0.3-2-0.8-3-1.3-0.3-0.1-0.6-0.2-0.9 0q-0.1 0.2-0.1 0.3 0 0.1 0 0.3c0 1.3 0.4 2.6 1 3.7 0.6 1.2 1.6 2.2 2.7 2.9 2.2 1.4 4.8 2.1 7.4 2.1 1.6 0 3.1-0.1 4.7 0q0.6 0 1.1 0.2c0.2 0.1 0.3 0.3 0.5 0.3 0.7 0.3 0.8-0.7 0.7-1.2q-0.2-1.2-0.9-2.2-0.3-0.6-0.8-1-0.2-0.1-0.4-0.2c-0.7-0.3-1.2-0.9-1.9-1.3q-1.4-0.7-2.8-1z"/>
	<path id="Layer" class="s8" d="m42.7 345.8q-1.7-1-3.6-1.7l-8-3.3q-0.3-0.1-0.6-0.2-0.3 0-0.6 0.2-0.2 0.1-0.3 0.3-0.1 0.3-0.1 0.5c0 1.1 0.2 2.3 0.5 3.3 1.6 4.7 5.6 8.6 10.4 9.4 2.1 0.3 4.1 0.1 6.1 0.5 0.8 0.2 2.1 0.5 2.1-0.7q0-0.5-0.3-0.9c-0.2-0.4-0.3-0.8-0.4-1.2-0.7-1.7-1.6-3.2-2.9-4.4q-1-1.1-2.3-1.8z"/>
	<path id="Layer" class="s8" d="m46.8 359.4q-2.5-1-5.1-1.3l-4.6-0.7c-0.6-0.1-1.2-0.2-1.8-0.3q-0.1 0-0.2 0-0.4-0.2-0.8-0.2c-0.3 0-0.4 0.3-0.4 0.6q-0.1 0.9 0.1 1.8c0.4 1.2 1.1 2.3 2 3.2 1.6 1.3 3.5 2.2 5.6 2.5q2.4 0.5 5 0.4c1.4 0 2.8-0.3 3.5-1.7 0.6-1.2-0.5-2.3-1.3-3.1q-0.9-0.8-2-1.2z"/>
	<path id="Layer" class="s8" d="m52 349.6q-0.1-0.5 0.1-1 0.2-0.3 0.5-0.5 0.3-0.1 0.7-0.1 0.7 0.1 1.2 0.6c1.4 1.3 1.8 3.4 2 5.3 0.2 1.9 0.1 3.9-0.2 5.8-0.4 1.4-1.1 3.2-2.6 3.5-0.6 0.1-1.2 0.1-1.7-0.2-0.5-0.2-0.9-0.6-1.2-1.1-0.9-1.6-0.1-3.8 0.3-5.4q0.9-3.1 1-6.2 0-0.3-0.1-0.7z"/>
	<path id="Layer" class="s8" d="m48.7 370.2c-2-0.7-4.1-1.2-6.2-1.4l-2.3-0.2q-0.2-0.1-0.5 0c-0.5 0.1-0.5 0.8-0.3 1.3 0.7 2.2 3.1 3.4 5.3 3.8 2.2 0.4 4.6 0.4 6.7 1.3 0.5 0.2 1.3 0.5 1.6-0.1 0.3-0.5-0.2-0.9-0.4-1.3-0.5-1-1.3-1.8-2.2-2.5q-0.8-0.5-1.7-0.9z"/>
	<path id="Layer" class="s8" d="m53.3 367.4c0.7-1.7 2.2-3.2 2.6-5.1q0.3-0.1 0.5 0.1 0.3 0.1 0.5 0.3 0.3 0.5 0.4 1.1 0.6 2.2 0.7 4.5c0.1 1.5-0.3 3-1.2 4.3q-0.3 0.5-0.8 0.8-0.4 0.3-1 0.4-0.5 0-1-0.2-0.4-0.1-0.8-0.5c-0.7-0.8-0.5-1.9-0.4-2.8q0-1.5 0.5-2.9z"/>
	<path id="Layer" class="s8" d="m91.6 282.4c1.8-3.9 5.2-7.1 6.6-11.2q0.1-0.3 0.3-0.6 0.3-0.1 0.6-0.1 0.3 0 0.5 0.2 0.3 0.5 0.5 1.1c1 3 1.1 6.3 0.4 9.4q-0.7 2.2-1.7 4.2-1.4 3.6-3.2 7.2-1.1 1.9-2.7 3.4c-0.8 0.7-2.2 1.9-3.1 0.6-0.3-0.6-0.4-1.3-0.3-2q0-1.2 0-2.4 0-2.4 0.4-4.7 0.4-2.4 1.3-4.5c0.2-0.2 0.3-0.4 0.4-0.6z"/>
	<path id="Layer" class="s8" d="m85.2 297.4c-0.5-2.2-1.4-4.2-2.6-6l-4.3-7.4c-0.1-0.2-0.2-0.4-0.4-0.4-0.2-0.1-0.4 0.2-0.6 0.4-2 3.2-1.9 7.4-0.6 11 1.5 3.5 3.7 6.8 6.4 9.5q0.2 0.3 0.6 0.4 0.3 0.1 0.7 0 0.4-0.2 0.6-0.5 0.2-0.4 0.2-0.8 0.1-0.2 0-0.5 0-0.7 0.1-1.4c0-0.6 0.1-1.2 0.1-1.8q0-1.3-0.2-2.5z"/>
	<path id="Layer" class="s8" d="m101.9 294.7l4.1-2q0.2-0.1 0.3-0.1c0.2 0 0.3 0.3 0.4 0.5 0.3 1.4 0 2.9-0.7 4.2q-1.1 2-2.8 3.5-1.6 1.5-3.5 2.9-1.8 1.3-3.8 2.4-2 1.1-4.2 1.9-2.1 0.7-4.4 1.1c-0.8 0.1-1.8 0.2-2-0.8 0-1 0.3-1.9 0.8-2.7q1.1-1.7 2.6-2.9 1.8-1.5 3.8-2.8 2-1.3 4.1-2.5 2.1-1.1 4.2-2.2z"/>
	<path id="Layer" class="s8" d="m77.5 310.2q-0.6-1.7-1.4-3.4-1.8-4-3-8.2c-0.4 0-0.8 0.3-1.1 0.7-1.8 2.2-2.8 5-3 7.8-0.1 1.4 0.1 2.8 0.6 4.1 0.5 1.4 1.3 2.6 2.2 3.6 1.5 1.5 3.4 2.5 4.5 4.2 0.2 0.4 0.3 0.8 0.7 0.9q0.2 0 0.4-0.1 0.1 0 0.2-0.2c0.1-0.2-0.1-0.4 0-0.6q0.1-1.1 0.3-2.2 0.2-2.1 0-4.2-0.1-1.2-0.4-2.4z"/>
	<path id="Layer" class="s8" d="m82.1 315.9c2.1-1.8 5-2.3 7.7-2.6 2.7-0.4 5.6-0.6 7.9-2q0.4-0.3 0.9-0.4c0.8 0 1.1 1.1 1 1.9-0.3 1.1-0.8 2.1-1.5 3q-1 1.4-2.3 2.5c-3 2.4-7.2 2.7-11.1 2.7l-2.8 0.1h-1.4q-0.7 0.1-1.4 0c-0.7-0.1-0.1-0.9 0-1.2 0.4-0.7 0.8-1.4 1.2-2.1q0.8-1.1 1.8-1.9z"/>
	<path id="Layer" class="s8" d="m71.6 326.1q-0.7-1.8-1.7-3.3l-3.4-5.7c-0.3-0.5-0.8-1.2-1.5-1.2-1.6 4.3-2.5 9.3-0.4 13.4q1.1 2 2.6 3.7l2.9 3.5c0.4 0.5 1.1 1.1 1.7 0.7 0.3-0.2 0.4-0.6 0.5-0.9q0.1-0.7 0.1-1.4 0.1-0.5 0-1-0.2-1.6-0.2-3.1c0.1-1.6-0.1-3.2-0.6-4.7z"/>
	<path id="Layer" class="s8" d="m81.7 328.1q1.5-0.8 3.1-1.2c1.2-0.2 2.5-0.3 3.7-0.4 2.1-0.3 4.1-0.9 6.1-1.2q0.3-0.1 0.6 0 0.2 0.1 0.3 0.3 0.1 0.3 0.1 0.5c0.1 1.4-0.3 2.8-1 4-1 1.8-2.4 3.3-4 4.5-1.7 1.2-3.5 2.1-5.5 2.5q-2.8 0.4-5.6 0.4-1.3 0.1-2.7 0.3-0.7 0.1-1.4 0.2-0.4 0.2-0.8 0.1c-0.5-0.2-0.5-0.8-0.5-1.3q0.2-1 0.7-1.8 1.1-2.1 2.8-3.8 1.6-1.7 3.6-2.9z"/>
	<path id="Layer" class="s8" d="m62.2 338.6q-0.5 2.8-0.6 5.7c-0.1 2.4 0.2 4.9 1 7.2 1.1 2.4 2.6 4.6 4.3 6.6q0.2 0.2 0.4 0.3c0.3 0 0.6-0.3 0.7-0.7 1.2-2.8 1.5-5.9 1-8.9q-0.4-2.4-1.4-4.5c-0.3-0.6-0.8-1.2-1-1.9q-0.1-0.2-0.2-0.5-0.3-0.7-0.8-1.4-0.8-1.5-1.4-3.1-0.1-0.5-0.5-0.9-0.2-0.1-0.4-0.1-0.1 0-0.3 0.1c-0.2 0.1-0.2 0.3-0.3 0.5-0.1 0.2-0.3 0.5-0.4 0.8q-0.1 0.4-0.1 0.8z"/>
	<path id="Layer" class="s8" d="m72.7 345.8c0.7-1.4 1.7-2.5 2.9-3.4q1.5-0.9 3.2-1.4l8.4-2.7c0.5 3.1-0.9 6.2-3 8.5-2.2 2.1-4.6 3.9-7.3 5.3-1.8 1-3.7 1.9-4.7 2.6q-0.7 0.4-1.4 0.9c-0.4 0.4-1 0.8-1.3 0.5-0.2-0.2-0.1-0.6 0-0.8 0-0.2 0.1-0.6 0.2-1 0.1-0.3 0.2-0.8 0.3-1.2q0.2-0.6 0.3-1.2c0-0.2 0.1-0.3 0.1-0.5q0.3-1.5 0.9-2.9 0.6-1.4 1.4-2.7z"/>
	<path id="Layer" class="s8" d="m74.2 374.1q0-2-0.6-3.8c-0.3-1.8-1.2-3.4-2.5-4.6q-0.6-0.5-1.3-0.7-0.6-0.2-1.3-0.1l0.8 5.5c0 0.2 0 0.4 0.1 0.6 0.1 1.4 0.5 2.7 1.2 4q0.3 0.4 0.7 0.7 0.8 0.7 1.6 1.3l0.3 0.1q0.2 0.2 0.4 0.2c0.6 0 0.5-0.8 0.5-1.2q0.1-0.9 0.1-1.8z"/>
	<path id="Layer" class="s8" d="m82.9 367.2q1.6-0.7 2.9-1.6c0.2-0.2 0.5-0.4 0.7-0.2q0.1 0 0.1 0.1 0.1 0.1 0.1 0.2c0.4 1.4-0.3 2.7-1.2 3.8-1 1.4-2.1 2.5-3.5 3.4-1.3 0.9-2.8 1.5-4.4 1.8-1 0.1-3 0.3-2.6-1.3q0.3-0.9 0.9-1.6 0.6-0.9 1.4-1.8c1.4-1.3 3.3-1.8 5-2.5z"/>
	<path id="Layer" class="s8" d="m83.2 357.2c3.3-1 6.9-0.9 10.1 0.4 0.9 0.2 1.6 0.7 2.2 1.3 0.3 0.4 0.4 0.8 0.4 1.2 0 0.5-0.2 0.9-0.5 1.2q-0.5 0.3-1 0.4l-15.8 3.9q-0.6 0.1-1.3 0.1c-0.2 0-0.4-0.1-0.6-0.2-0.2 0-0.3 0.1-0.4-0.1q-0.1-0.2-0.1-0.4 0-0.5 0.1-1 0.1-0.3 0.2-0.5c0.1-0.3 0.3-0.7 0.4-1 0.8-1.6 2.1-3 3.5-4q1.3-0.8 2.8-1.3z"/>
	<path id="Layer" class="s8" d="m86 347.8c2.7-1.4 5.9-1.6 8.9-1.7q0.3 0 0.5 0.1 0.1 0.2 0.2 0.4 0 1-0.4 2-0.3 0.9-1.1 1.7c-1.1 1.2-2.4 2.2-3.9 2.9q-2.2 0.9-4.5 1.4l-4.1 1c-0.2 0-0.9 0.3-1.1 0.2-0.3-0.2 0-1.1 0-1.3q0.3-0.8 0.8-1.6 0.7-1.5 1.8-2.8c0.8-1 1.8-1.7 2.9-2.3z"/>
	<path id="Layer" class="s8" d="m71.2 356.5c-0.1 0-0.2-0.1-0.3-0.1-0.1 0.1-0.1 0.2-0.1 0.2q-0.1 0.4-0.1 0.7v0.2q-0.1 0.3-0.1 0.5-0.2 0.6-0.2 1.3 0.1 0.6 0.2 1.3 0.4 1.5 1.3 2.9 0.2 0.3 0.4 0.6 0.3 0.3 0.6 0.6 0.7 0.7 1.1 1.5c0.1 0.1 0.3 0.3 0.4 0.3q0.1-0.1 0.2-0.1 0-0.1 0.1-0.1 0.2-0.3 0.4-0.7 0.1-0.3 0.1-0.7 0-0.1 0-0.1c0.2-2-0.3-3.9-1.3-5.6-0.7-1.1-1.6-2-2.7-2.7z"/>
	<g id="Layer" style="opacity: .5">
		<path id="Layer" class="s1" d="m51.4 293.2q-0.1-0.3 0-0.7c0-0.3 0-0.5-0.1-0.8q-0.1-0.8-0.2-1.5-0.3-1.6-0.8-3.1 0-0.3-0.2-0.6l-0.2-0.6-0.4-1.2-0.6-1.7q-0.3-0.8-0.5-1.6-0.1-0.3-0.2-0.6 0-0.2-0.1-0.3 0-0.4-0.1-0.9-0.2-0.8-0.4-1.6-0.5-1.7-1.1-3.3-0.4-1.2-1-2.4c-0.6-1.5-1.5-2.8-2.8-3.8q-0.2-0.2-0.5-0.3-0.3 0-0.6 0.1c-0.4 0.2-0.5 0.7-0.5 1.1l-0.5 7.3q-0.2 2.2 0 4.5c0.3 2 1.2 3.9 2.5 5.5q1.3 1.4 2.9 2.6c0.8 0.7 1.6 1.3 2.4 1.9q1.3 1.3 3 2z"/>
		<path id="Layer" class="s1" d="m54.8 315q-0.4-0.8-1.1-1.5-1.1-1-2.4-1.5-2.2-0.9-4.5-1.3-5.3-1.3-10.2-3.7-0.3-0.2-0.7-0.2c-0.6 0.1-0.8 0.8-0.9 1.4 0 1.6 0.4 3.2 1.2 4.5 0.7 1.4 1.9 2.6 3.3 3.3 2.8 1.4 6.1 1.2 9.2 1.1h0.1q1.7-0.1 3.3 0.1 0.9 0 1.7 0.2c0.4 0.1 1.3 0.6 1.6 0q0.1-0.3 0-0.7-0.2-0.9-0.6-1.6z"/>
		<path id="Layer" class="s1" d="m58.2 315.9q-0.2 0.2-0.5 0.3-0.1 0.1-0.3 0.1-0.2 0-0.3 0-0.2-0.1-0.3-0.2-0.1-0.1-0.1-0.3-0.2-0.3-0.3-0.6-0.3-0.7-0.4-1.4 0-0.1 0-0.3 0-0.8-0.1-1.5c0-0.3 0-0.6-0.1-0.8q0-0.3 0-0.6 0-0.5 0-0.9 0-0.6 0-1.2c0.3-3.4 2.8-6.2 4.9-9q2.8-3.7 4.7-8c0.3-0.7 0.7-1.4 1.4-1.3 0.7 0.1 0.9 0.7 1.1 1.2 1.1 3.7 1 7.7-0.3 11.4-0.8 2.2-1.8 4.3-3.1 6.2q-1 1.5-2.2 2.8-0.3 0.4-0.6 0.7-1.1 1.2-2.2 2.3l-0.9 0.9z"/>
		<path id="Layer" class="s1" d="m52.1 339.5c-2.4-0.6-4.9-0.7-7.3-1.6-1-0.3-2-0.8-3-1.3-0.3-0.1-0.6-0.2-0.9 0q-0.1 0.2-0.1 0.3 0 0.1 0 0.3c0 1.3 0.4 2.6 1 3.7 0.6 1.2 1.6 2.2 2.7 2.9 2.2 1.4 4.8 2.1 7.4 2.1 1.6 0 3.1-0.1 4.7 0q0.6 0 1.1 0.2c0.2 0.1 0.3 0.3 0.5 0.3 0.7 0.3 0.8-0.7 0.7-1.2q-0.2-1.2-0.9-2.2-0.3-0.6-0.8-1-0.2-0.1-0.4-0.2c-0.7-0.3-1.2-0.9-1.9-1.3q-1.4-0.7-2.8-1z"/>
		<path id="Layer" class="s1" d="m42.7 345.8q-1.7-1-3.6-1.7l-8-3.3q-0.3-0.1-0.6-0.2-0.3 0-0.6 0.2-0.2 0.1-0.3 0.3-0.1 0.3-0.1 0.5c0 1.1 0.2 2.3 0.5 3.3 1.6 4.7 5.6 8.6 10.4 9.4 2.1 0.3 4.1 0.1 6.1 0.5 0.8 0.2 2.1 0.5 2.1-0.7q0-0.5-0.3-0.9c-0.2-0.4-0.3-0.8-0.4-1.2-0.7-1.7-1.6-3.2-2.9-4.4q-1-1.1-2.3-1.8z"/>
		<path id="Layer" class="s1" d="m46.8 359.4q-2.5-1-5.1-1.3l-4.6-0.7c-0.6-0.1-1.2-0.2-1.8-0.3q-0.1 0-0.2 0-0.4-0.2-0.8-0.2c-0.3 0-0.4 0.3-0.4 0.6q-0.1 0.9 0.1 1.8c0.4 1.2 1.1 2.3 2 3.2 1.6 1.3 3.5 2.2 5.6 2.5q2.4 0.5 5 0.4c1.4 0 2.8-0.3 3.5-1.7 0.6-1.2-0.5-2.3-1.3-3.1q-0.9-0.8-2-1.2z"/>
		<path id="Layer" class="s1" d="m48.7 370.2c-2-0.7-4.1-1.2-6.2-1.4l-2.3-0.2q-0.2-0.1-0.5 0c-0.5 0.1-0.5 0.8-0.3 1.3 0.7 2.2 3.1 3.4 5.3 3.8 2.2 0.4 4.6 0.4 6.7 1.3 0.5 0.2 1.3 0.5 1.6-0.1 0.3-0.5-0.2-0.9-0.4-1.3-0.5-1-1.3-1.8-2.2-2.5q-0.8-0.5-1.7-0.9z"/>
		<path id="Layer" class="s1" d="m91.6 282.4c1.8-3.9 5.2-7.1 6.6-11.2q0.1-0.3 0.3-0.6 0.3-0.1 0.6-0.1 0.3 0 0.5 0.2 0.3 0.5 0.5 1.1c1 3 1.1 6.3 0.4 9.4q-0.7 2.2-1.7 4.2-1.4 3.6-3.2 7.2-1.1 1.9-2.7 3.4c-0.8 0.7-2.2 1.9-3.1 0.6-0.3-0.6-0.4-1.3-0.3-2q0-1.2 0-2.4 0-2.4 0.4-4.7 0.4-2.4 1.3-4.5c0.2-0.2 0.3-0.4 0.4-0.6z"/>
		<path id="Layer" class="s1" d="m85.2 297.4c-0.5-2.2-1.4-4.2-2.6-6l-4.3-7.4c-0.1-0.2-0.2-0.4-0.4-0.4-0.2-0.1-0.4 0.2-0.6 0.4-2 3.2-1.9 7.4-0.6 11 1.5 3.5 3.7 6.8 6.4 9.5q0.2 0.3 0.6 0.4 0.3 0.1 0.7 0 0.4-0.2 0.6-0.5 0.2-0.4 0.2-0.8 0.1-0.2 0-0.5 0-0.7 0.1-1.4c0-0.6 0.1-1.2 0.1-1.8q0-1.3-0.2-2.5z"/>
		<path id="Layer" class="s1" d="m82.1 315.9c2.1-1.8 5-2.3 7.7-2.6 2.7-0.4 5.6-0.6 7.9-2q0.4-0.3 0.9-0.4c0.8 0 1.1 1.1 1 1.9-0.3 1.1-0.8 2.1-1.5 3q-1 1.4-2.3 2.5c-3 2.4-7.2 2.7-11.1 2.7l-2.8 0.1h-1.4q-0.7 0.1-1.4 0c-0.7-0.1-0.1-0.9 0-1.2 0.4-0.7 0.8-1.4 1.2-2.1q0.8-1.1 1.8-1.9z"/>
		<path id="Layer" class="s1" d="m62.2 338.6q-0.5 2.8-0.6 5.7c-0.1 2.4 0.2 4.9 1 7.2 1.1 2.4 2.6 4.6 4.3 6.6q0.2 0.2 0.4 0.3c0.3 0 0.6-0.3 0.7-0.7 1.2-2.8 1.5-5.9 1-8.9q-0.4-2.4-1.4-4.5c-0.3-0.6-0.8-1.2-1-1.9q-0.1-0.2-0.2-0.5-0.3-0.7-0.8-1.4-0.8-1.5-1.4-3.1-0.1-0.5-0.5-0.9-0.2-0.1-0.4-0.1-0.1 0-0.3 0.1c-0.2 0.1-0.2 0.3-0.3 0.5-0.1 0.2-0.3 0.5-0.4 0.8q-0.1 0.4-0.1 0.8z"/>
		<path id="Layer" class="s1" d="m72.7 345.8c0.7-1.4 1.7-2.5 2.9-3.4q1.5-0.9 3.2-1.4l8.4-2.7c0.5 3.1-0.9 6.2-3 8.5-2.2 2.1-4.6 3.9-7.3 5.3-1.8 1-3.7 1.9-4.7 2.6q-0.7 0.4-1.4 0.9c-0.4 0.4-1 0.8-1.3 0.5-0.2-0.2-0.1-0.6 0-0.8 0-0.2 0.1-0.6 0.2-1 0.1-0.3 0.2-0.8 0.3-1.2q0.2-0.6 0.3-1.2c0-0.2 0.1-0.3 0.1-0.5q0.3-1.5 0.9-2.9 0.6-1.4 1.4-2.7z"/>
		<path id="Layer" class="s1" d="m74.2 374.1q0-2-0.6-3.8c-0.3-1.8-1.2-3.4-2.5-4.6q-0.6-0.5-1.3-0.7-0.6-0.2-1.3-0.1l0.8 5.5c0 0.2 0 0.4 0.1 0.6 0.1 1.4 0.5 2.7 1.2 4q0.3 0.4 0.7 0.7 0.8 0.7 1.6 1.3l0.3 0.1q0.2 0.2 0.4 0.2c0.6 0 0.5-0.8 0.5-1.2q0.1-0.9 0.1-1.8z"/>
		<path id="Layer" class="s1" d="m82.9 367.2q1.6-0.7 2.9-1.6c0.2-0.2 0.5-0.4 0.7-0.2q0.1 0 0.1 0.1 0.1 0.1 0.1 0.2c0.4 1.4-0.3 2.7-1.2 3.8-1 1.4-2.1 2.5-3.5 3.4-1.3 0.9-2.8 1.5-4.4 1.8-1 0.1-3 0.3-2.6-1.3q0.3-0.9 0.9-1.6 0.6-0.9 1.4-1.8c1.4-1.3 3.3-1.8 5-2.5z"/>
		<path id="Layer" class="s1" d="m86 347.8c2.7-1.4 5.9-1.6 8.9-1.7q0.3 0 0.5 0.1 0.1 0.2 0.2 0.4 0 1-0.4 2-0.3 0.9-1.1 1.7c-1.1 1.2-2.4 2.2-3.9 2.9q-2.2 0.9-4.5 1.4l-4.1 1c-0.2 0-0.9 0.3-1.1 0.2-0.3-0.2 0-1.1 0-1.3q0.3-0.8 0.8-1.6 0.7-1.5 1.8-2.8c0.8-1 1.8-1.7 2.9-2.3z"/>
		<path id="Layer" class="s1" d="m71.2 356.5c-0.1 0-0.2-0.1-0.3-0.1-0.1 0.1-0.1 0.2-0.1 0.2q-0.1 0.4-0.1 0.7v0.2q-0.1 0.3-0.1 0.5-0.2 0.6-0.2 1.3 0.1 0.6 0.2 1.3 0.4 1.5 1.3 2.9 0.2 0.3 0.4 0.6 0.3 0.3 0.6 0.6 0.7 0.7 1.1 1.5c0.1 0.1 0.3 0.3 0.4 0.3q0.1-0.1 0.2-0.1 0-0.1 0.1-0.1 0.2-0.3 0.4-0.7 0.1-0.3 0.1-0.7 0-0.1 0-0.1c0.2-2-0.3-3.9-1.3-5.6-0.7-1.1-1.6-2-2.7-2.7z"/>
	</g>
	<g id="Layer" style="opacity: .2">
		<path id="Layer" class="s1" d="m65.7 277.9q-0.1-0.5-0.2-1-0.3-1.1-0.9-2.1c-0.2-0.3-0.3-0.7-0.5-1q-0.3-0.5-0.8-0.9-0.2-0.2-0.6-0.3-0.2-0.1-0.4 0-0.1 0-0.2 0.2-0.2 0.2-0.2 0.5-0.2 2-0.8 3.9-0.2 0.9-0.6 1.8-0.2 0.3-0.4 0.5-0.1 0.2-0.2 0.4-0.4 0.9-1 1.7-0.5 0.6-1 1.2c-1.1 1.1-2.6 2-3.4 3.3-1.3 2.1-1 4.7-1.1 6.9q0 0.6 0 1.2c0 3.2-0.5 5.9 0.3 9 0 0.2 0.2 0.7 0.6 0.5l0.3-0.2c1.7-1.4 2.9-3.2 3.6-5.2l0.6-1.6q0.3-0.5 0.7-1c0.8-1 1.4-2 2.1-3.1q2-3.2 3.3-6.8c0.6-1.8 0.9-3.6 0.9-5.4q0.1-1.3-0.1-2.5z"/>
		<path id="Layer" class="s1" d="m43.9 302.7c0.6 0 1.2 0.1 1.8 0.1q1.8 0 3.6-0.1h1.9q0.3 0 0.6 0 0.4 0.1 0.9 0 0.1 0 0.2 0 0-0.1 0-0.1 0.1-0.1 0-0.2c0-0.8-0.2-1.7-0.5-2.4q-0.3-0.6-0.7-1c-0.9-1.1-2-1.9-3.2-2.5q-1.8-0.8-3.7-1.1l-10-2.1q-0.3-0.2-0.7-0.1-0.3 0-0.6 0.2-0.2 0.4-0.2 0.8c-0.1 1.2 0.2 2.5 0.8 3.6 0.6 1.2 1.5 2.1 2.5 2.8 2.2 1.3 4.7 2.1 7.3 2.1z"/>
		<path id="Layer" class="s1" d="m51.9 325.4q-3.5-1.2-7.1-1.4c-2.4-0.2-4.7-0.9-6.9-2.1q-0.3-0.2-0.7-0.3c-0.5 0-0.7 0.6-0.8 1.1-0.1 1.5 0.3 3 1.1 4.3 1.4 2 3.3 3.7 5.5 4.7 2.3 1.1 4.8 1.4 7.2 1 1.6-0.2 3.1-0.8 4.7-1q0.5 0 1.1 0c0.3 0 0.7 0.2 0.9 0 0.4-0.5-0.1-1.1-0.2-1.6q-0.2-0.8-0.7-1.5c-0.6-0.9-1.5-1.7-2.4-2.3q-0.8-0.6-1.7-0.9z"/>
		<path id="Layer" class="s1" d="m52 349.6q-0.1-0.5 0.1-1 0.2-0.3 0.5-0.5 0.3-0.1 0.7-0.1 0.7 0.1 1.2 0.6c1.4 1.3 1.8 3.4 2 5.3 0.2 1.9 0.1 3.9-0.2 5.8-0.4 1.4-1.1 3.2-2.6 3.5-0.6 0.1-1.2 0.1-1.7-0.2-0.5-0.2-0.9-0.6-1.2-1.1-0.9-1.6-0.1-3.8 0.3-5.4q0.9-3.1 1-6.2 0-0.3-0.1-0.7z"/>
		<path id="Layer" class="s1" d="m53.3 367.4c0.7-1.7 2.2-3.2 2.6-5.1q0.3-0.1 0.5 0.1 0.3 0.1 0.5 0.3 0.3 0.5 0.4 1.1 0.6 2.2 0.7 4.5c0.1 1.5-0.3 3-1.2 4.3q-0.3 0.5-0.8 0.8-0.4 0.3-1 0.4-0.5 0-1-0.2-0.4-0.1-0.8-0.5c-0.7-0.8-0.5-1.9-0.4-2.8q0-1.5 0.5-2.9z"/>
		<path id="Layer" class="s1" d="m101.9 294.7l4.1-2q0.2-0.1 0.3-0.1c0.2 0 0.3 0.3 0.4 0.5 0.3 1.4 0 2.9-0.7 4.2q-1.1 2-2.8 3.5-1.6 1.5-3.5 2.9-1.8 1.3-3.8 2.4-2 1.1-4.2 1.9-2.1 0.7-4.4 1.1c-0.8 0.1-1.8 0.2-2-0.8 0-1 0.3-1.9 0.8-2.7q1.1-1.7 2.6-2.9 1.8-1.5 3.8-2.8 2-1.3 4.1-2.5 2.1-1.1 4.2-2.2z"/>
		<path id="Layer" class="s1" d="m77.5 310.2q-0.6-1.7-1.4-3.4-1.8-4-3-8.2c-0.4 0-0.8 0.3-1.1 0.7-1.8 2.2-2.8 5-3 7.8-0.1 1.4 0.1 2.8 0.6 4.1 0.5 1.4 1.3 2.6 2.2 3.6 1.5 1.5 3.4 2.5 4.5 4.2 0.2 0.4 0.3 0.8 0.7 0.9q0.2 0 0.4-0.1 0.1 0 0.2-0.2c0.1-0.2-0.1-0.4 0-0.6q0.1-1.1 0.3-2.2 0.2-2.1 0-4.2-0.1-1.2-0.4-2.4z"/>
		<path id="Layer" class="s1" d="m71.6 326.1q-0.7-1.8-1.7-3.3l-3.4-5.7c-0.3-0.5-0.8-1.2-1.5-1.2-1.6 4.3-2.5 9.3-0.4 13.4q1.1 2 2.6 3.7l2.9 3.5c0.4 0.5 1.1 1.1 1.7 0.7 0.3-0.2 0.4-0.6 0.5-0.9q0.1-0.7 0.1-1.4 0.1-0.5 0-1-0.2-1.6-0.2-3.1c0.1-1.6-0.1-3.2-0.6-4.7z"/>
		<path id="Layer" class="s1" d="m81.7 328.1q1.5-0.8 3.1-1.2c1.2-0.2 2.5-0.3 3.7-0.4 2.1-0.3 4.1-0.9 6.1-1.2q0.3-0.1 0.6 0 0.2 0.1 0.3 0.3 0.1 0.3 0.1 0.5c0.1 1.4-0.3 2.8-1 4-1 1.8-2.4 3.3-4 4.5-1.7 1.2-3.5 2.1-5.5 2.5q-2.8 0.4-5.6 0.4-1.3 0.1-2.7 0.3-0.7 0.1-1.4 0.2-0.4 0.2-0.8 0.1c-0.5-0.2-0.5-0.8-0.5-1.3q0.2-1 0.7-1.8 1.1-2.1 2.8-3.8 1.6-1.7 3.6-2.9z"/>
		<path id="Layer" class="s1" d="m83.2 357.2c3.3-1 6.9-0.9 10.1 0.4 0.9 0.2 1.6 0.7 2.2 1.3 0.3 0.4 0.4 0.8 0.4 1.2 0 0.5-0.2 0.9-0.5 1.2q-0.5 0.3-1 0.4l-15.8 3.9q-0.6 0.1-1.3 0.1c-0.2 0-0.4-0.1-0.6-0.2-0.2 0-0.3 0.1-0.4-0.1q-0.1-0.2-0.1-0.4 0-0.5 0.1-1 0.1-0.3 0.2-0.5c0.1-0.3 0.3-0.7 0.4-1 0.8-1.6 2.1-3 3.5-4q1.3-0.8 2.8-1.3z"/>
	</g>
	<path id="Layer" class="s8" d="m65.8 387.5c-0.2-0.8-0.3-1.6-0.5-2.4-0.2-0.8-0.5-1.7-0.8-2.6q-0.7-2.4-1.2-4.8-1.1-4.9-1.8-9.9c-0.8-6.7-1.1-13.4-1.4-20.2-0.3-6.7-0.6-13.5-1.3-20.3-0.4-4.1-1-8.1-1.7-12.1 0.5-2.1 1.4-4 2.6-5.8q2.2-3.4 3.9-7.2c0-0.1 0-0.3-0.1-0.1-1.3 2.5-3.3 4.5-4.9 6.8q-1.3 1.8-2 3.9-0.6-3-1.2-6-0.5-1.8-1-3.7c0.1-0.7 0.3-1.4 0.3-2.1q0.1-1.3 0.4-2.5 0.5-2.5 1.6-4.9c1.3-3.1 3.5-5.8 4.5-9 0-0.1-0.1-0.4-0.2-0.1q-1.2 2.5-2.9 4.7-1.7 2.1-2.8 4.5-1.1 2.4-1.5 5-0.1 0.7-0.2 1.4-2.4-8.3-5.9-16.2c-0.1-0.1-0.2 0.1-0.2 0.2 1.8 5.8 3.4 11.6 4.9 17.5l-0.4-0.2q-1.2-0.7-2.5-1.2c-2.3-0.8-4.6-1.3-6.9-2.1-0.2 0-0.2 0.4-0.1 0.4q3.2 1.1 6.4 2.3 1.2 0.4 2.4 1 0.6 0.4 1.2 0.8c0 0 0.1 0.1 0.2 0.2q1.6 6.9 2.8 13.8c-1.5-1.7-3.5-2.8-5.8-3.1-1.5-0.4-3.1-0.4-4.7-0.6q-2.4-0.4-4.5-1.4c0 0-0.1 0.1 0 0.2 2.1 2 5.7 2 8.4 2.5 1.5 0.2 3 0.7 4.3 1.4 1 0.7 1.9 1.6 2.6 2.7q0.6 3.5 1 7 0.4 3.3 0.6 6.5-1-1.1-2.4-1.7-2-0.9-4.2-1.2c-3-0.5-6.1-0.6-8.6-2.4 0 0-0.1 0.1 0 0.1 2.1 2.1 5 2.5 7.8 3.1q2.1 0.3 4.1 1 1 0.4 1.8 0.9 0.9 0.7 1.7 1.4c0.3 3.9 0.4 7.9 0.6 11.8q-0.4-0.4-0.8-0.7-1.2-0.9-2.6-1.2c-2.3-0.6-4.7-0.3-7-1-0.1 0-0.2 0.2-0.1 0.2 2.1 0.8 4.3 0.9 6.4 1.4q1.3 0.3 2.5 1 0.6 0.3 1 0.7 0.4 0.4 0.7 0.9c0.2 6.4 0.5 12.8 1.2 19.1 0.4 3.6 1 7.2 1.7 10.8q0.6 2.7 1.4 5.3 0.4 1.6 1 3.1 0.6 1.7 1.5 3.2c0.1 0.4 0.8 0.4 0.7-0.1z"/>
	<path id="Layer" class="s9" d="m65.8 387.5c-0.2-0.8-0.3-1.6-0.5-2.4-0.2-0.8-0.5-1.7-0.8-2.6q-0.7-2.4-1.2-4.8-1.1-4.9-1.8-9.9c-0.8-6.7-1.1-13.4-1.4-20.2-0.3-6.7-0.6-13.5-1.3-20.3-0.4-4.1-1-8.1-1.7-12.1 0.5-2.1 1.4-4 2.6-5.8q2.2-3.4 3.9-7.2c0-0.1 0-0.3-0.1-0.1-1.3 2.5-3.3 4.5-4.9 6.8q-1.3 1.8-2 3.9-0.6-3-1.2-6-0.5-1.8-1-3.7c0.1-0.7 0.3-1.4 0.3-2.1q0.1-1.3 0.4-2.5 0.5-2.5 1.6-4.9c1.3-3.1 3.5-5.8 4.5-9 0-0.1-0.1-0.4-0.2-0.1q-1.2 2.5-2.9 4.7-1.7 2.1-2.8 4.5-1.1 2.4-1.5 5-0.1 0.7-0.2 1.4-2.4-8.3-5.9-16.2c-0.1-0.1-0.2 0.1-0.2 0.2 1.8 5.8 3.4 11.6 4.9 17.5l-0.4-0.2q-1.2-0.7-2.5-1.2c-2.3-0.8-4.6-1.3-6.9-2.1-0.2 0-0.2 0.4-0.1 0.4q3.2 1.1 6.4 2.3 1.2 0.4 2.4 1 0.6 0.4 1.2 0.8c0 0 0.1 0.1 0.2 0.2q1.6 6.9 2.8 13.8c-1.5-1.7-3.5-2.8-5.8-3.1-1.5-0.4-3.1-0.4-4.7-0.6q-2.4-0.4-4.5-1.4c0 0-0.1 0.1 0 0.2 2.1 2 5.7 2 8.4 2.5 1.5 0.2 3 0.7 4.3 1.4 1 0.7 1.9 1.6 2.6 2.7q0.6 3.5 1 7 0.4 3.3 0.6 6.5-1-1.1-2.4-1.7-2-0.9-4.2-1.2c-3-0.5-6.1-0.6-8.6-2.4 0 0-0.1 0.1 0 0.1 2.1 2.1 5 2.5 7.8 3.1q2.1 0.3 4.1 1 1 0.4 1.8 0.9 0.9 0.7 1.7 1.4c0.3 3.9 0.4 7.9 0.6 11.8q-0.4-0.4-0.8-0.7-1.2-0.9-2.6-1.2c-2.3-0.6-4.7-0.3-7-1-0.1 0-0.2 0.2-0.1 0.2 2.1 0.8 4.3 0.9 6.4 1.4q1.3 0.3 2.5 1 0.6 0.3 1 0.7 0.4 0.4 0.7 0.9c0.2 6.4 0.5 12.8 1.2 19.1 0.4 3.6 1 7.2 1.7 10.8q0.6 2.7 1.4 5.3 0.4 1.6 1 3.1 0.6 1.7 1.5 3.2c0.1 0.4 0.8 0.4 0.7-0.1z"/>
	<path id="Layer" class="s8" d="m58.3 388.8c-1.5-2.2-2.6-4.7-3.1-7.3-0.6-2.2-1-4.4-1.4-6.7q0.1-0.7 0.3-1.4 0.3-0.8 0.7-1.5l0.4-0.8q0.2-0.5 0.3-1.1c0 0 0-0.1-0.1-0.1-0.6 0.2-0.9 0.9-1.3 1.4q-0.4 0.7-0.7 1.4c-0.5-2.5-1-5.1-1.5-7.6q0.1-0.6 0.3-1.3c0.2-0.8 0.6-1.5 1-2.3q0.5-1.2 0.8-2.6 0.3-1.2 0.2-2.5c-0.1-0.2-0.3 0-0.3 0.1 0.2 1-0.6 1.8-1 2.6-0.4 0.8-0.7 1.4-1.1 2.1q-0.2 0.5-0.5 1.1c-0.3-2.5-1-4.8-2-7.1-0.7-1.2-1.6-2.4-2.7-3.3q-1-0.8-2.1-1.4-1.2-0.6-2.5-1c-0.1 0-0.1 0.1-0.1 0.2 0.7 0.4 1.3 0.9 1.9 1.3q1.1 0.6 2 1.4c1 0.8 1.8 1.9 2.3 3.1q1.2 3.7 1.8 7.5-1.8-0.5-3.6-0.6-2-0.3-3.8-1.1c-0.2-0.1-0.3 0.2-0.2 0.3 1.2 0.8 2.5 1.3 3.9 1.5q1 0.2 2.1 0.5c0.6 0.1 1.2 0.3 1.8 0.5q0.9 4.4 1.7 8.8l0.2 0.9q-0.2-0.2-0.5-0.3-0.6-0.5-1.4-0.7-0.4-0.2-0.8-0.2-0.4 0-0.7 0c-0.3 0-0.2 0.3 0 0.4q0.7 0.1 1.4 0.5 0.7 0.2 1.3 0.6 0.5 0.3 0.9 0.8c0.5 2.1 0.9 4.3 1.4 6.5q0.5 2 1.3 4c0.8 1.6 1.9 3 3.2 4.1 0.4 0.3 0.4-0.4 0.2-0.7z"/>
	<path id="Layer" class="s9" d="m58.3 388.8c-1.5-2.2-2.6-4.7-3.1-7.3-0.6-2.2-1-4.4-1.4-6.7q0.1-0.7 0.3-1.4 0.3-0.8 0.7-1.5l0.4-0.8q0.2-0.5 0.3-1.1c0 0 0-0.1-0.1-0.1-0.6 0.2-0.9 0.9-1.3 1.4q-0.4 0.7-0.7 1.4c-0.5-2.5-1-5.1-1.5-7.6q0.1-0.6 0.3-1.3c0.2-0.8 0.6-1.5 1-2.3q0.5-1.2 0.8-2.6 0.3-1.2 0.2-2.5c-0.1-0.2-0.3 0-0.3 0.1 0.2 1-0.6 1.8-1 2.6-0.4 0.8-0.7 1.4-1.1 2.1q-0.2 0.5-0.5 1.1c-0.3-2.5-1-4.8-2-7.1-0.7-1.2-1.6-2.4-2.7-3.3q-1-0.8-2.1-1.4-1.2-0.6-2.5-1c-0.1 0-0.1 0.1-0.1 0.2 0.7 0.4 1.3 0.9 1.9 1.3q1.1 0.6 2 1.4c1 0.8 1.8 1.9 2.3 3.1q1.2 3.7 1.8 7.5-1.8-0.5-3.6-0.6-2-0.3-3.8-1.1c-0.2-0.1-0.3 0.2-0.2 0.3 1.2 0.8 2.5 1.3 3.9 1.5q1 0.2 2.1 0.5c0.6 0.1 1.2 0.3 1.8 0.5q0.9 4.4 1.7 8.8l0.2 0.9q-0.2-0.2-0.5-0.3-0.6-0.5-1.4-0.7-0.4-0.2-0.8-0.2-0.4 0-0.7 0c-0.3 0-0.2 0.3 0 0.4q0.7 0.1 1.4 0.5 0.7 0.2 1.3 0.6 0.5 0.3 0.9 0.8c0.5 2.1 0.9 4.3 1.4 6.5q0.5 2 1.3 4c0.8 1.6 1.9 3 3.2 4.1 0.4 0.3 0.4-0.4 0.2-0.7z"/>
	<path id="Layer" class="s8" d="m94.5 303.2q-3.7 1.6-7.3 3.6-0.7 0.4-1.5 0.9l0.2-0.2q3.4-5.5 5.7-11.5 1.2-3 2-6.1 0.8-3.3 1.3-6.6c0-0.2-0.3-0.4-0.3-0.1-0.5 2-1.2 3.9-1.9 5.9-0.6 1.9-1.3 3.7-2 5.6q-2.3 5.3-5.3 10.3l-0.8 1.3q0-0.4 0-0.9 0-1.8-0.3-3.6-0.3-1.7-0.9-3.3c-0.3-1.1-0.8-2.2-1.6-3.1-0.1-0.1-0.2 0.1-0.2 0.2q0.5 1.6 1.2 3 0.5 1.6 0.7 3.3 0.2 1.7 0.2 3.3-0.2 1.5-0.2 3c-1.4 2.4-2.8 4.7-4.1 7.2q-0.9 1.7-1.7 3.4 0-0.1 0-0.2-0.5-1.9-1.4-3.7c-1.2-2.8-2.7-5.6-3.1-8.6 0-0.2-0.2 0-0.2 0 0.2 2.7 0.8 5.3 1.8 7.8q0.7 2 1.3 4 0.3 1 0.4 2.1c0 0.3 0 0.6 0.1 1q-0.1 0.2-0.2 0.4-0.3 0.6-0.5 1.2-0.6 1.3-1 2.6-1.9 4.8-3.3 9.8-0.3-1.9-0.9-3.6-0.7-1.8-1.7-3.5-0.8-1.8-2.3-3.2c-0.1-0.1-0.1 0.2-0.1 0.2 0.5 1.1 1.2 2.1 1.7 3.3q0.7 1.6 1.3 3.3 0.8 3 1.3 6-1.7 6.6-2.7 13.4c-0.8-1.8-1.7-3.4-2.5-5.1-0.1-0.2-0.3 0.1-0.2 0.3q1.3 3.1 2 6.3 0.1 0.7 0.2 1.4c-0.6 4.8-1 9.7-1.1 14.5 0 0.8 0.1 5.2 0.2 7.9q0 3.5 0.6 6.8 0.3 1.9 1 3.6c0.3 0.5 0.8 1 1.3 0.8-0.1-0.9-0.1-1.7-0.3-2.6q-1.1-5.6-1-11.4 0-1.8 0-3.6 0.1-5.7 0.6-11.4 0.6-1.5 1.6-2.9c1.7-2.6 4.4-4.2 6.1-6.6 0.2-0.2 0.1-0.7-0.2-0.5q-2.2 1.3-4.1 3-1.7 1.4-3 3.1c0.3-2.2 0.6-4.4 1-6.6q0.7-3.6 1.6-7.2c0.3-0.4 0.6-0.8 0.9-1.1 0.4-0.5 0.7-1.1 1.2-1.6q1.2-1.4 2.8-2.4 1.5-0.9 3.1-1.3 0.8-0.3 1.6-0.4 0.8-0.1 1.6-0.4c0.1 0 0.1-0.2 0-0.3-1.1-0.5-2.8-0.2-3.9 0q-2 0.5-3.7 1.5-1.5 1-2.7 2.4 1.3-5.1 3.2-10.1 1.1-2.9 2.4-5.8 1-0.7 2.1-1.2 1.7-0.6 3.4-1.1 1.6-0.5 3.1-1.2c0.1-0.1 0.1-0.4 0-0.4-1.3 0.4-2.7 0.5-4 0.7q-1.9 0.4-3.6 1.1 1.9-4.1 4.1-7.9 0.8-1 1.6-1.9 1.5-1.1 3.1-1.9 3.3-1.7 6.4-3.8c0.1-0.2 0.1-0.7-0.2-0.6z"/>
	<path id="Layer" class="s9" d="m94.5 303.2q-3.7 1.6-7.3 3.6-0.7 0.4-1.5 0.9l0.2-0.2q3.4-5.5 5.7-11.5 1.2-3 2-6.1 0.8-3.3 1.3-6.6c0-0.2-0.3-0.4-0.3-0.1-0.5 2-1.2 3.9-1.9 5.9-0.6 1.9-1.3 3.7-2 5.6q-2.3 5.3-5.3 10.3l-0.8 1.3q0-0.4 0-0.9 0-1.8-0.3-3.6-0.3-1.7-0.9-3.3c-0.3-1.1-0.8-2.2-1.6-3.1-0.1-0.1-0.2 0.1-0.2 0.2q0.5 1.6 1.2 3 0.5 1.6 0.7 3.3 0.2 1.7 0.2 3.3-0.2 1.5-0.2 3c-1.4 2.4-2.8 4.7-4.1 7.2q-0.9 1.7-1.7 3.4 0-0.1 0-0.2-0.5-1.9-1.4-3.7c-1.2-2.8-2.7-5.6-3.1-8.6 0-0.2-0.2 0-0.2 0 0.2 2.7 0.8 5.3 1.8 7.8q0.7 2 1.3 4 0.3 1 0.4 2.1c0 0.3 0 0.6 0.1 1q-0.1 0.2-0.2 0.4-0.3 0.6-0.5 1.2-0.6 1.3-1 2.6-1.9 4.8-3.3 9.8-0.3-1.9-0.9-3.6-0.7-1.8-1.7-3.5-0.8-1.8-2.3-3.2c-0.1-0.1-0.1 0.2-0.1 0.2 0.5 1.1 1.2 2.1 1.7 3.3q0.7 1.6 1.3 3.3 0.8 3 1.3 6-1.7 6.6-2.7 13.4c-0.8-1.8-1.7-3.4-2.5-5.1-0.1-0.2-0.3 0.1-0.2 0.3q1.3 3.1 2 6.3 0.1 0.7 0.2 1.4c-0.6 4.8-1 9.7-1.1 14.5 0 0.8 0.1 5.2 0.2 7.9q0 3.5 0.6 6.8 0.3 1.9 1 3.6c0.3 0.5 0.8 1 1.3 0.8-0.1-0.9-0.1-1.7-0.3-2.6q-1.1-5.6-1-11.4 0-1.8 0-3.6 0.1-5.7 0.6-11.4 0.6-1.5 1.6-2.9c1.7-2.6 4.4-4.2 6.1-6.6 0.2-0.2 0.1-0.7-0.2-0.5q-2.2 1.3-4.1 3-1.7 1.4-3 3.1c0.3-2.2 0.6-4.4 1-6.6q0.7-3.6 1.6-7.2c0.3-0.4 0.6-0.8 0.9-1.1 0.4-0.5 0.7-1.1 1.2-1.6q1.2-1.4 2.8-2.4 1.5-0.9 3.1-1.3 0.8-0.3 1.6-0.4 0.8-0.1 1.6-0.4c0.1 0 0.1-0.2 0-0.3-1.1-0.5-2.8-0.2-3.9 0q-2 0.5-3.7 1.5-1.5 1-2.7 2.4 1.3-5.1 3.2-10.1 1.1-2.9 2.4-5.8 1-0.7 2.1-1.2 1.7-0.6 3.4-1.1 1.6-0.5 3.1-1.2c0.1-0.1 0.1-0.4 0-0.4-1.3 0.4-2.7 0.5-4 0.7q-1.9 0.4-3.6 1.1 1.9-4.1 4.1-7.9 0.8-1 1.6-1.9 1.5-1.1 3.1-1.9 3.3-1.7 6.4-3.8c0.1-0.2 0.1-0.7-0.2-0.6z"/>
	<path id="Layer" class="s8" d="m87.3 360.6c-1.3-0.3-2.7-0.3-4 0.1q-2.1 0.3-4.1 1.2-1.2 0.5-2.3 1.4 1.4-3.1 3.6-5.8c1.7-2.1 3.7-3.9 5.9-5.5 0.1 0 0.1-0.4 0-0.3-2.2 0.9-4.2 2.2-6 3.8-1.8 1.7-3.3 3.7-4.4 5.9q-0.8 1.5-1.4 3.1-0.1-0.3-0.2-0.6-0.3-1-0.9-1.8-0.2-0.5-0.5-0.9c-0.2-0.2-0.4-0.5-0.6-0.4 0 0-0.1 0.1-0.1 0.1q0.1 0.5 0.4 0.9 0.2 0.4 0.4 0.8 0.4 0.7 0.6 1.6 0.3 0.8 0.4 1.7-0.3 1.1-0.5 2.3-0.4 2.2-0.5 4.5-0.2-0.5-0.4-1-0.7-1.3-1.6-2.4c-0.1-0.1-0.2 0.2-0.1 0.3 1 1.5 1.6 3.3 1.9 5.1 0 0.3 0.1 0.6 0.1 0.9q0 0.8 0 1.5 0 2.8 0 5.6c0 1.8-0.2 3.5-0.3 5.3 0 0.3 0.4 0.8 0.7 0.4 1.2-2.5 1.2-5.7 1.2-8.5q0-2.5 0-5.1h0.1q0.4-0.3 0.9-0.4 1-0.4 2-0.9 1.9-1 3.3-2.5c0.1-0.1 0-0.3-0.1-0.2-1 1-2.3 1.7-3.6 2q-1.1 0.3-2.2 0.6l-0.3 0.1c0-0.8 0-1.6 0.1-2.4q0.2-2.1 0.8-4.1c0.5-0.6 1-1.4 1.5-2q1.2-1.1 2.7-1.8 1.7-0.9 3.5-1.3l1.8-0.5q1-0.4 2.1-0.4c0.2-0.1 0.2-0.4 0.1-0.4z"/>
	<path id="Layer" class="s9" d="m87.3 360.6c-1.3-0.3-2.7-0.3-4 0.1q-2.1 0.3-4.1 1.2-1.2 0.5-2.3 1.4 1.4-3.1 3.6-5.8c1.7-2.1 3.7-3.9 5.9-5.5 0.1 0 0.1-0.4 0-0.3-2.2 0.9-4.2 2.2-6 3.8-1.8 1.7-3.3 3.7-4.4 5.9q-0.8 1.5-1.4 3.1-0.1-0.3-0.2-0.6-0.3-1-0.9-1.8-0.2-0.5-0.5-0.9c-0.2-0.2-0.4-0.5-0.6-0.4 0 0-0.1 0.1-0.1 0.1q0.1 0.5 0.4 0.9 0.2 0.4 0.4 0.8 0.4 0.7 0.6 1.6 0.3 0.8 0.4 1.7-0.3 1.1-0.5 2.3-0.4 2.2-0.5 4.5-0.2-0.5-0.4-1-0.7-1.3-1.6-2.4c-0.1-0.1-0.2 0.2-0.1 0.3 1 1.5 1.6 3.3 1.9 5.1 0 0.3 0.1 0.6 0.1 0.9q0 0.8 0 1.5 0 2.8 0 5.6c0 1.8-0.2 3.5-0.3 5.3 0 0.3 0.4 0.8 0.7 0.4 1.2-2.5 1.2-5.7 1.2-8.5q0-2.5 0-5.1h0.1q0.4-0.3 0.9-0.4 1-0.4 2-0.9 1.9-1 3.3-2.5c0.1-0.1 0-0.3-0.1-0.2-1 1-2.3 1.7-3.6 2q-1.1 0.3-2.2 0.6l-0.3 0.1c0-0.8 0-1.6 0.1-2.4q0.2-2.1 0.8-4.1c0.5-0.6 1-1.4 1.5-2q1.2-1.1 2.7-1.8 1.7-0.9 3.5-1.3l1.8-0.5q1-0.4 2.1-0.4c0.2-0.1 0.2-0.4 0.1-0.4z"/>
	<path id="Layer" class="s8" d="m358.9 230.4c0-1.7-1.2-3.5-3.5-4.8l-6.7-3.9c-4.6-2.7-12.1-2.7-16.7 0l-61.4 35.5c-2.3 1.3-3.4 3-3.4 4.8v81.1c0 1.7 1.1 3.5 3.4 4.8l6.8 3.9c4.6 2.7 12 2.7 16.6 0l61.4-35.5c2.3-1.3 3.5-3 3.5-4.8z"/>
	<path id="Layer" class="s10" d="m277.4 270.7l-6.8-3.9c-4.6-2.7-4.6-7 0-9.6l61.4-35.5c4.6-2.7 12.1-2.7 16.7 0l6.7 3.9c4.6 2.7 4.6 7 0 9.6l-61.4 35.5c-4.6 2.6-12 2.6-16.6 0z"/>
	<path id="Layer" class="s11" d="m285.7 272.7v81.1c-2.9 0.1-5.7-0.6-8.3-2l-6.8-3.9c-2.3-1.3-3.5-3.1-3.4-4.8v-81.1c0 1.7 1.1 3.4 3.4 4.8l6.8 3.9c2.6 1.3 5.4 2 8.3 2z"/>
	<path id="Layer" class="s5" d="m330.4 312.8l-14.7 8.5 2.3-26.6c-1.7-0.9-2.9-3.2-2.9-6.5 0-5.8 3.6-12.6 8-15.1 4.4-2.5 7.9 0.2 7.9 6-0.1 3.5-1.1 6.8-2.9 9.8z"/>
	<path id="Layer" class="s6" d="m330.4 312.8l-13.3-7.7-1.4 16.2z"/>
	<path id="Layer" class="s6" d="m323.1 273.1c-2.9 1.6-5.4 5.1-6.8 9l11.8 6.8c1.8-3 2.8-6.3 2.9-9.8 0-5.8-3.5-8.5-7.9-6z"/>
	<path id="Layer" class="s2" d="m342.3 234.3v-34.5c0-10.1-3.8-18-10.4-21.8-6.3-3.7-14.2-3.2-22 1.3-14.5 8.4-25.8 28.8-25.8 46.4v32.6q0.1 0.9 0.6 1.6 0.6 0.8 1.4 1.1c1.4 0.8 3 1.1 4.7 1.1 1.6 0 3.2-0.3 4.6-1.1q0.9-0.3 1.4-1.1 0.5-0.7 0.6-1.6v-32.6c0-12.9 8.8-28.8 19.1-34.9 3.6-2 6.8-2.5 8.8-1.3 2.3 1.3 3.8 5.2 3.8 10.3v34.4q0.1 0.9 0.6 1.6 0.5 0.7 1.3 1.1c1.5 0.7 3.1 1.1 4.7 1.1 1.6 0 3.2-0.4 4.7-1.1q0.8-0.4 1.3-1.1 0.5-0.7 0.6-1.6z"/>
	<path id="Layer" fill-rule="evenodd" class="s3" d="m322.7 175.5c3.2 0 6.4 0.9 9.2 2.5 6.6 3.8 10.4 11.7 10.4 21.8v34.4q-0.1 0.9-0.6 1.6-0.6 0.7-1.4 1.1c-1.4 0.8-3 1.1-4.7 1.1-1.6 0-3.2-0.3-4.6-1.1q-0.9-0.4-1.4-1.1-0.5-0.7-0.6-1.6v-34.4c0-5.1-1.4-9-3.8-10.3-0.8-0.5-1.6-0.7-2.5-0.7-2.2 0.2-4.3 0.9-6.2 2-10.4 6.1-19.1 22-19.1 34.9v32.6q-0.1 0.9-0.6 1.6c-0.4 0.5-0.8 0.9-1.4 1.1-1.4 0.8-3 1.1-4.7 1.1-1.6 0-3.2-0.3-4.7-1.1q-0.8-0.3-1.3-1.1-0.5-0.7-0.6-1.6v-32.6c0-17.6 11.3-38 25.7-46.4 3.9-2.3 8.4-3.6 12.9-3.8zm0 1.1c-4.4 0.1-8.7 1.4-12.4 3.6-14.2 8.2-25.2 28.2-25.2 45.5v32.7q0.1 0.6 0.5 1.1 0.3 0.4 0.9 0.6c1.3 0.7 2.7 1 4.2 1 1.4 0 2.8-0.3 4.1-1 0.9-0.5 1.5-1.1 1.5-1.8v-32.6c0-13.2 9-29.6 19.6-35.7 2-1.3 4.4-2.1 6.7-2.2 1.1 0 2.2 0.2 3.1 0.8 2.8 1.5 4.3 5.6 4.3 11.2v34.5q0.1 0.6 0.5 1.1 0.4 0.4 1 0.7c1.3 0.6 2.7 1 4.1 1 1.5 0 2.9-0.4 4.2-1q0.6-0.3 0.9-0.7 0.4-0.5 0.5-1.1v-34.5c0-9.7-3.6-17.3-9.9-20.9-2.6-1.6-5.6-2.3-8.6-2.3z"/>
	<path id="Layer" class="s3" d="m315.9 176.7q-1 0.5-2 1.1c-14.4 8.3-25.8 28.7-25.8 46.3v32.6q0.1 0.9 0.6 1.6 0.6 0.8 1.4 1.1c1.9 1 4 1.4 6.2 1.1q-0.4 0.3-0.8 0.5c-1.5 0.8-3.1 1.2-4.7 1.2-1.7 0-3.3-0.4-4.7-1.2-0.6-0.2-1-0.6-1.4-1.1-0.3-0.4-0.5-1-0.6-1.6v-32.6c0-17.6 11.4-38 25.8-46.3q2.9-1.7 6-2.7z"/>
	<path id="Layer" class="s5" d="m261.3 340.5v-311.7c0-8-3.9-10.2-7.5-12.2-3.5-2.1-9.3-3.3-14.4-0.4l-128.7 74.3c-5 2.9-9.1 10-9.1 15.8v311.6c0 5.8 3.7 9.2 7.3 11.3 3.5 2 9.7 4.2 14.7 1.3l128.6-74.2c2.9-1.5 5.3-3.8 6.9-6.6 1.6-2.8 2.4-6 2.2-9.2z"/>
	<path id="Layer" class="s6" d="m253.1 343.4l-132.3 76.4v-313l-16.5-9.5c-1.7 2.7-2.6 5.8-2.7 8.9v311.7c0 5.8 3.6 9.2 7.2 11.3 3.6 2 9.7 4.2 14.7 1.3l128.7-74.2c3.6-1.9 6.4-5 7.9-8.8l-0.5-0.3z"/>
	<path id="Layer" class="s7" d="m252 26.1l-129.1 74.6c-1.8 1.2-3.4 2.8-4.5 4.7-1.1 1.9-1.7 4.1-1.9 6.3v309.1c0 6.2 4.5 8.8 9.9 5.7l125.6-72.5c2.1-1.4 3.9-3.3 5.1-5.5 1.3-2.1 2-4.6 2.1-7.1v-311c0-4.7-3.2-6.6-7.2-4.3z"/>
	<path id="Layer" class="s12" d="m252.9 45.1v288.9c-0.1 2.4-0.8 4.8-2 6.8-1.2 2.1-2.8 3.9-4.8 5.2l-116.4 67.1c-3.8 2.2-6.9 0.5-6.9-3.9v-291.1c0.3-3.9 2-7.7 4.9-10.4q0.3-0.3 0.6-0.5 0.7-0.6 1.4-1l32.7-18.9 2.2-1.2c1.2-0.7 2.1-0.2 2.1 1.2 0 1.4 1 1.9 2.3 1.1l38.1-22c0.6-0.4 1.2-0.9 1.6-1.6q0.6-1 0.7-2.1 0-1.1 0.6-2 0.5-1 1.3-1.6l0.2-0.1 32.1-18.5 0.6-0.4c4.8-2.8 8.7-0.5 8.7 5z"/>
	<path id="Layer" class="s6" d="m236.1 338.2c2-1.3 3.6-3 4.8-5.1 1.2-2.1 1.9-4.4 2-6.8v-285.5l-31.4 18.1-0.2 0.2q-0.9 0.6-1.4 1.6-0.5 0.9-0.5 2-0.1 1.1-0.7 2.1c-0.4 0.7-1 1.2-1.6 1.6l-38.1 22c-1.3 0.8-2.3 0.3-2.3-1.1 0-1.3-0.9-1.9-2.1-1.2l-2.2 1.2-32.7 18.9q-0.7 0.4-1.4 1-0.3 0.2-0.6 0.5c-2.9 2.7-4.6 6.5-4.9 10.4v285.6z"/>
	<path id="Layer" class="s6" d="m174.8 76.8l17.5-10.1c1-0.6 1.9-0.1 1.9 1q-0.1 0.9-0.6 1.8-0.5 0.8-1.3 1.3l-17.5 10.1c-1.1 0.6-1.9 0.1-1.9-1q0.1-0.9 0.6-1.8 0.5-0.8 1.3-1.3z"/>
	<path id="Layer" class="s6" d="m201.2 60.7c1.2-0.7 2.2-0.2 2.2 1.2q-0.1 1.1-0.7 2.1-0.5 1-1.5 1.6c-1.1 0.7-2.1 0.1-2.1-1.2q0.1-1.2 0.6-2.1 0.6-1 1.5-1.6z"/>
	<path id="Layer" class="s7" d="m113.6 143.6c-0.1-1.2-0.4-2.3-1-3.4-0.6-1.1-1.4-2-2.4-2.6q-0.5-0.4-1.1-0.5-0.6 0-1.2 0.3c-0.4 0.2-2.1 1.1-2.5 1.4q-0.6 0.4-0.8 1.1-0.3 0.6-0.2 1.3v25.4c0 1.2 0.3 2.4 0.9 3.4 0.6 1.1 1.4 2 2.4 2.7q0.5 0.3 1.1 0.4 0.6 0 1.1-0.2c0.5-0.2 2.2-1.2 2.6-1.5q0.6-0.4 0.9-1 0.2-0.7 0.2-1.4z"/>
	<path id="Layer" class="s5" d="m111.1 145.1v25.4c0 2.3-1.5 3.2-3.4 2.2-1-0.7-1.8-1.6-2.4-2.7-0.6-1-0.9-2.2-0.9-3.4v-25.4c0-2.3 1.5-3.3 3.3-2.2 1 0.7 1.8 1.6 2.4 2.7 0.6 1 0.9 2.2 1 3.4z"/>
	<path id="Layer" class="s7" d="m113.6 188.1c-0.1-1.2-0.4-2.4-1-3.5-0.6-1-1.4-1.9-2.4-2.6q-0.5-0.4-1.1-0.4-0.6-0.1-1.2 0.2c-0.4 0.3-2.1 1.2-2.5 1.5q-0.6 0.4-0.8 1-0.3 0.6-0.2 1.3v25.5c0 1.2 0.3 2.3 0.9 3.4 0.6 1.1 1.4 2 2.4 2.6q0.5 0.4 1.1 0.4 0.6 0.1 1.1-0.1c0.5-0.3 2.2-1.3 2.6-1.5q0.6-0.4 0.9-1.1 0.2-0.6 0.2-1.3z"/>
	<path id="Layer" class="s5" d="m111.1 189.5v25.4c0 2.3-1.5 3.3-3.4 2.2-1-0.7-1.8-1.6-2.4-2.6-0.6-1.1-0.9-2.3-0.9-3.5v-25.4c0-2.2 1.5-3.2 3.3-2.2 1 0.7 1.8 1.6 2.4 2.7 0.6 1 0.9 2.2 1 3.4z"/>
	<path id="Layer" class="s13" d="m218.5 374.2v-15.5q0.1-0.4 0.2-0.6 0.2-0.3 0.4-0.5l37.2-21.4c0.3-0.2 0.6 0 0.6 0.3v15.6q-0.1 0.3-0.2 0.6-0.2 0.2-0.4 0.4l-37.2 21.4c-0.3 0.2-0.6 0.1-0.6-0.3z"/>
	<path id="Layer" class="s8" d="m258.3 337.4l-37.2 21.4q-0.2 0.2-0.4 0.5-0.1 0.3-0.1 0.6v15.5q0 0.3 0.1 0.6 0.2 0.3 0.4 0.4l2.1 1.2q0.3 0.1 0.6 0.1 0.3 0 0.5-0.1l37.2-21.5q0.3-0.1 0.4-0.4 0.2-0.3 0.2-0.6v-15.5q0-0.4-0.2-0.6-0.1-0.3-0.4-0.5l-2.1-1.1q-0.2-0.2-0.5-0.2-0.3 0-0.6 0.2z"/>
	<path id="Layer" class="s8" d="m223.8 377.2v-15.6q0-0.3 0.1-0.5 0.2-0.3 0.5-0.5l37.1-21.4c0.3-0.2 0.6 0 0.6 0.3v15.6q0 0.3-0.2 0.5-0.1 0.3-0.4 0.5l-37.1 21.4c-0.4 0.2-0.6 0.1-0.6-0.3z"/>
	<path id="Layer" class="s11" d="m224.4 377.5q-0.3 0.2-0.6 0.2-0.3 0-0.6-0.2l-2.1-1.1q-0.2-0.2-0.4-0.5-0.1-0.2-0.2-0.6v-15.5q0.1-0.3 0.2-0.6l3.2 1.8q-0.1 0.3-0.1 0.6v15.6c0 0.3 0.2 0.5 0.6 0.3z"/>
	<path id="Layer" class="s14" d="m262.1 339.4c0-0.3-0.3-0.4-0.6-0.2l-37.1 21.4q-0.3 0.2-0.5 0.5l-3.2-1.9q0.2-0.2 0.4-0.4l37.2-21.4q0.3-0.2 0.6-0.2 0.3 0 0.6 0.2l2 1.1q0.2 0.2 0.4 0.4 0.2 0.3 0.2 0.5z"/>
	<path id="Layer" fill-rule="evenodd" class="s1" d="m229.4 361.5q0.1-0.1 0.2 0 0.1 0.1 0.1 0.3l2.2 7.3v0.1q0 0.1-0.1 0.3 0 0.1-0.2 0.2l-0.6 0.3q-0.2 0.1-0.2 0-0.1-0.1-0.1-0.1l-0.4-1.3-2.8 1.6-0.4 1.8q0 0.1-0.1 0.2 0 0.2-0.2 0.3l-0.6 0.4q-0.1 0-0.1 0-0.1 0-0.1 0 0-0.1-0.1-0.1 0-0.1 0-0.2 0 0 0-0.1l2.2-9.7q0-0.2 0.1-0.4 0.1-0.2 0.2-0.3zm0.5 5.7l-1-3.3-0.9 4.4z"/>
	<path id="Layer" class="s1" d="m236.3 363.9q0-0.1 0.1-0.3 0.1-0.1 0.2-0.2l0.7-0.4q0 0 0.1 0 0 0 0.1 0 0 0.1 0 0.1 0 0.1 0 0.2 0 0.6-0.2 1.2c-0.2 0.9-0.6 1.7-1.2 2.4q-0.5 0.6-1.2 1-0.5 0.3-1 0.3-0.5 0-0.8-0.3-0.4-0.4-0.5-0.9-0.2-0.7-0.2-1.4 0-0.5 0-1.1 0-0.6 0-1.1 0-0.8 0.2-1.6 0.2-0.8 0.5-1.5 0.3-0.7 0.8-1.2 0.4-0.6 1-0.9 0.5-0.4 1.2-0.4 0.4 0 0.8 0.2 0.3 0.3 0.4 0.8 0.2 0.5 0.2 1 0 0.2 0 0.3-0.1 0.1-0.2 0.2l-0.7 0.4q-0.1 0-0.1 0-0.1 0-0.1 0c0 0-0.1-0.1-0.1-0.2q0-0.2-0.1-0.4-0.1-0.2-0.3-0.3-0.2-0.2-0.4-0.1-0.3 0-0.6 0.2-0.3 0.2-0.6 0.5-0.2 0.3-0.4 0.7-0.2 0.4-0.3 0.8-0.1 0.4-0.1 0.8 0 0.6 0 1.2 0 0.6 0 1.1 0 0.4 0.1 0.7 0.1 0.3 0.3 0.5 0.1 0.1 0.2 0.2 0.1 0 0.2 0 0.3 0 0.6-0.2 0.3-0.2 0.6-0.4 0.5-0.6 0.7-1.2 0.1-0.3 0.1-0.7z"/>
	<path id="Layer" class="s1" d="m242.3 360.5q0-0.2 0.1-0.3 0.1-0.1 0.2-0.2l0.7-0.4q0-0.1 0.1-0.1 0 0 0.1 0.1 0 0 0 0.1 0 0 0 0.1 0 0.6-0.2 1.2-0.1 0.7-0.4 1.3-0.4 0.6-0.8 1.2-0.5 0.6-1.2 0.9-0.5 0.3-1 0.4-0.5 0-0.8-0.3-0.4-0.4-0.5-0.9-0.2-0.7-0.2-1.4 0-0.5 0-1.1 0-0.6 0-1.2 0-0.8 0.2-1.6 0.2-0.8 0.5-1.5 0.3-0.6 0.8-1.2 0.4-0.5 1-0.9 0.5-0.3 1.2-0.4 0.4 0 0.8 0.3 0.3 0.3 0.4 0.7 0.2 0.5 0.2 1.1 0 0.1 0 0.3-0.1 0.1-0.2 0.1l-0.7 0.5q-0.1 0-0.1 0-0.1 0-0.1 0c0 0-0.1-0.1-0.1-0.2q0-0.3-0.1-0.5-0.1-0.2-0.3-0.3-0.2-0.1-0.4-0.1-0.3 0-0.6 0.2-0.3 0.2-0.6 0.5-0.2 0.3-0.4 0.7-0.2 0.4-0.3 0.8-0.1 0.4-0.1 0.9 0 0.5 0 1.1 0 0.6 0 1.1 0 0.4 0.1 0.8 0.1 0.2 0.3 0.5 0.2 0.1 0.4 0.1 0.3 0 0.6-0.1 0.3-0.2 0.6-0.5 0.2-0.3 0.4-0.6 0.2-0.3 0.3-0.6 0.1-0.3 0.1-0.6z"/>
	<path id="Layer" class="s1" d="m248.6 358.1q0.1 0 0.1 0 0.1 0 0.1 0 0 0.1 0.1 0.1 0 0.1 0 0.2v1q0 0.1-0.1 0.3 0 0.1-0.2 0.2l-3.8 2.2q-0.1 0-0.1 0 0 0-0.1 0 0-0.1 0-0.1-0.1-0.1-0.1-0.1v-8.8q0-0.1 0.1-0.2 0.1-0.2 0.2-0.3l3.8-2.1q0-0.1 0-0.1 0.1 0 0.1 0.1 0.1 0 0.1 0.1 0 0 0 0.1v0.9q0 0.2-0.1 0.3 0 0.2-0.1 0.2l-2.9 1.7v2.1l2.7-1.5q0 0 0.1 0 0 0 0 0 0.1 0.1 0.1 0.2v1q0 0.1-0.1 0.3 0 0.1-0.1 0.2l-2.7 1.5v2.2z"/>
	<path id="Layer" fill-rule="evenodd" class="s1" d="m252.5 348.1q1.1-0.6 1.7-0.2 0.6 0.5 0.6 2c0 0.9-0.2 1.8-0.6 2.6-0.4 0.7-1 1.3-1.7 1.7l-1.4 0.8v3q0 0.2 0 0.3-0.1 0.2-0.2 0.2l-0.7 0.5q-0.1 0-0.1 0-0.1 0-0.1 0-0.1-0.1-0.1-0.2v-8.8q0-0.1 0.1-0.3 0.1-0.1 0.2-0.2zm-1.4 5.2l1.3-0.8q0.6-0.3 0.9-0.8 0.3-0.5 0.2-1.2 0-0.7-0.3-0.8-0.2-0.1-0.4 0-0.2 0-0.4 0.1l-1.3 0.8z"/>
	<path id="Layer" class="s1" d="m259.8 343.9q0.1 0 0.1 0 0.1 0 0.1 0 0 0.1 0.1 0.1 0 0.1 0 0.1v1q0 0.2-0.1 0.3-0.1 0.1-0.2 0.2l-1.5 0.9v7.4q-0.1 0.2-0.1 0.3-0.1 0.1-0.2 0.2l-0.7 0.4q0 0 0 0-0.1 0.1-0.1 0.1 0 0 0-0.1 0 0-0.1 0 0-0.1 0-0.2v-7.4l-1.6 0.9q0 0-0.1 0 0 0-0.1 0 0 0 0-0.1-0.1 0-0.1-0.1v-1q0-0.1 0.1-0.3 0.1-0.1 0.2-0.2z"/>
	<path id="Layer" class="s3" d="m154.7 411.1v-15.6q0-0.3 0.1-0.6 0.2-0.2 0.5-0.4l37.1-21.5c0.3-0.1 0.6 0 0.6 0.4v15.5q0 0.3-0.2 0.6-0.1 0.3-0.4 0.5l-37.1 21.4c-0.3 0.2-0.6 0-0.6-0.3z"/>
	<path id="Layer" fill-rule="evenodd" class="s0" d="m163.1 403.5q0 0-0.1 0 0 0-0.1 0 0 0 0-0.1 0-0.1 0-0.1v-8.7q0-0.2 0-0.3 0.1-0.2 0.2-0.2l2.6-1.5q0.4-0.3 0.9-0.3 0.4 0 0.6 0.3 0.3 0.3 0.4 0.7 0.1 0.4 0.1 0.8 0 0.4-0.1 0.7-0.1 0.4-0.2 0.7-0.1 0.3-0.2 0.5-0.1 0.2-0.1 0.3 0.3 0.2 0.5 0.5 0.2 0.6 0.2 1.2 0 0.5-0.1 1.1-0.2 0.5-0.4 1.1-0.2 0.5-0.6 1-0.3 0.5-0.8 0.7zm3.4-8.7q0-0.5-0.2-0.6-0.3-0.1-0.7 0.1l-1.6 0.9v2.1l1.6-0.9q0.4-0.3 0.7-0.7 0.2-0.4 0.2-0.9zm-2.5 6.5l1.7-0.9q0.4-0.3 0.7-0.8 0.2-0.4 0.2-0.9 0-0.2-0.1-0.4 0-0.2-0.1-0.3-0.3-0.2-0.7 0.1l-1.7 0.9z"/>
	<path id="Layer" fill-rule="evenodd" class="s0" d="m171.7 389.1q0.1-0.1 0.2 0 0.1 0.1 0.1 0.3l2.1 7.3q0.1 0 0 0 0 0.2 0 0.3-0.1 0.2-0.2 0.3l-0.6 0.3q-0.2 0.1-0.3 0 0-0.1-0.1-0.2l-0.3-1.2-2.8 1.6-0.4 1.7q0 0.1-0.1 0.3-0.1 0.1-0.2 0.2l-0.7 0.4q0 0 0 0-0.1 0-0.1 0-0.1-0.1-0.1-0.2v-0.1l2.2-9.8q0-0.2 0.1-0.4 0-0.2 0.2-0.3zm0.5 5.7l-1-3.3-0.9 4.4z"/>
	<path id="Layer" class="s0" d="m178.6 391.5q0-0.1 0.1-0.3 0.1-0.1 0.2-0.1l0.7-0.5q0 0 0.1 0 0 0 0 0 0.1 0.1 0.1 0.1 0 0.1 0 0.2 0 0.6-0.2 1.2-0.1 0.6-0.4 1.3-0.4 0.6-0.8 1.1-0.5 0.6-1.2 1-0.5 0.3-1 0.3-0.5 0-0.8-0.3-0.4-0.4-0.5-0.9-0.2-0.6-0.2-1.3 0-0.5 0-1.2 0-0.6 0-1.1 0-0.8 0.2-1.6 0.1-0.8 0.5-1.5 0.3-0.7 0.8-1.2 0.4-0.6 1-0.9 0.5-0.4 1.2-0.4 0.4 0 0.8 0.3 0.3 0.3 0.4 0.7 0.2 0.5 0.2 1 0 0.2-0.1 0.3 0 0.1-0.1 0.2l-0.7 0.4q-0.1 0.1-0.1 0.1-0.1 0-0.1-0.1c-0.1 0-0.1-0.1-0.1-0.2q0-0.2-0.1-0.4-0.1-0.2-0.3-0.3-0.2-0.2-0.4-0.1-0.3 0-0.6 0.2-0.3 0.2-0.6 0.5-0.3 0.3-0.4 0.7-0.2 0.4-0.3 0.8-0.1 0.4-0.1 0.8 0 0.6 0 1.2 0 0.6 0 1.1 0 0.4 0.1 0.7 0.1 0.3 0.3 0.5 0.2 0.2 0.4 0.2 0.3 0 0.6-0.2 0.3-0.2 0.6-0.4 0.2-0.3 0.4-0.6 0.2-0.3 0.3-0.6 0.1-0.3 0.1-0.7z"/>
	<path id="Layer" class="s0" d="m185.5 390q0 0 0 0.1v0.1q0 0.1 0 0.3-0.1 0.1-0.2 0.2l-0.8 0.5q-0.2 0.1-0.3 0l-0.1-0.1-2.1-2.4v3.5q0 0.1-0.1 0.3 0 0.1-0.1 0.2l-0.7 0.4q-0.1 0-0.1 0-0.1 0-0.1 0 0 0-0.1-0.1 0-0.1 0-0.1v-8.7q0-0.2 0.1-0.3 0.1-0.2 0.2-0.2l0.7-0.4q0-0.1 0-0.1 0 0 0.1 0 0 0 0 0 0 0 0 0.1 0.1 0 0.1 0.1 0 0 0 0.1v3.1l1.9-4.3q0.1-0.2 0.2-0.3 0.1-0.1 0.2-0.2l0.8-0.5q0.1 0 0.1 0 0 0 0 0 0 0 0.1 0 0 0 0 0 0.1 0.1 0.1 0.2 0 0.1-0.1 0.3l-2.3 5.3z"/>
	<path id="Layer" class="s8" d="m268.9 46.4c-1.7-0.9-3.9-0.8-6.4 0.6l-0.8 0.4-33.5 19.4-0.2 0.1q-0.9 0.7-1.4 1.7-0.5 1-0.6 2.1c-0.1 0.8-0.3 1.5-0.7 2.2q-0.7 1.1-1.7 1.7l-39.9 23.1h-0.1q0-0.4-0.1-0.8-0.2-0.4-0.5-0.6c-0.4-0.2-1.9-1.1-2.4-1.3q-0.3-0.2-0.8-0.2-0.4 0.1-0.7 0.3l-2.3 1.3-34.2 19.9q-0.8 0.5-1.5 1l-0.7 0.6c-3 2.9-4.8 6.8-5 10.9v302.7c0 2.3 0.8 3.9 2 4.6l2.4 1.4c1.3 0.7 3.1 0.6 5-0.6l121.9-70.3c2.1-1.4 3.8-3.2 5.1-5.4 1.2-2.2 2-4.6 2.1-7.1v-300.5c0-2.9-1-4.9-2.7-5.9z"/>
	<path id="Layer" class="s15" d="m145.6 435.9v0.6l-0.7 0.4c-2 1.2-3.8 1.3-5.1 0.5l-2.3-1.3c-1.3-0.8-2.1-2.4-2.1-4.7v-302.7c0.1-2.7 1-5.4 2.5-7.7l2.8 1.6c-1.5 2.2-2.3 4.8-2.4 7.4v302.8c-0.1 1.2 0.3 2.4 1 3.4q0.4 0.6 1.1 0.9 0.6 0.3 1.4 0.3c1 0 2-0.4 2.9-0.9z"/>
	<path id="Layer" class="s15" d="m229.7 69.7c-0.5 0.6-0.8 1.5-0.9 2.3 0 1-0.3 1.9-0.8 2.7l-2.8-1.6c0.5-0.7 0.8-1.6 0.8-2.4 0.1-1 0.4-1.9 0.9-2.6z"/>
	<path id="Layer" class="s0" d="m141.7 437.4q-0.7 0-1.4-0.3-0.6-0.3-1.1-0.8c-0.7-1.1-1.1-2.3-1-3.5v-302.8c0.2-3.9 1.9-7.7 4.9-10.4l0.3-0.2 0.4-0.4q0.7-0.5 1.4-1l34.2-19.8c0 0 1-0.5 2.2-1.2q0.4-0.3 0.8-0.3c0.6 0 0.7 0.8 0.7 1.1q0 0.3 0.1 0.7 0.1 0.4 0.3 0.7 0.3 0.3 0.6 0.4 0.4 0.2 0.8 0.2 0.7 0 1.4-0.4l39.9-23.1c0.7-0.4 1.4-1.1 1.8-1.8 0.5-0.8 0.8-1.6 0.8-2.5q0.1-1 0.6-1.9 0.4-0.8 1.2-1.4l0.2-0.1 33.5-19.4 0.7-0.4c1.2-0.7 2.5-1.1 3.8-1.2 2.8 0 4.6 2.3 4.6 6v300.5c-0.1 2.4-0.8 4.8-2 6.9-1.3 2.1-2.9 3.8-5 5.2l-121.8 70.3c-0.9 0.5-1.9 0.9-2.9 0.9z"/>
	<path id="Layer" class="s8" d="m268.8 47.6c-1.3 0.1-2.6 0.5-3.8 1.2l-0.7 0.4-33.5 19.4q-0.1 0-0.2 0.1-0.8 0.6-1.2 1.4-0.5 0.9-0.6 1.9c0 0.9-0.3 1.8-0.7 2.5-0.5 0.8-1.1 1.4-1.9 1.9l-39.9 23q-0.7 0.4-1.4 0.5-0.4 0-0.7-0.2-0.4-0.2-0.6-0.5-0.3-0.3-0.4-0.6-0.1-0.4-0.1-0.8c0-0.3-0.1-1-0.7-1q-0.4 0-0.7 0.2l-2.3 1.2-34.3 19.8q-0.7 0.4-1.3 1l-0.5 0.4-0.2 0.2c-2.9 2.7-4.7 6.5-4.9 10.4v18.2l135.2-78.1v-16.5c0-3.7-1.8-6-4.6-6z"/>
	<g id="Layer" style="opacity: .3">
		<path id="Layer" class="s1" d="m268.8 47.6c-1.3 0.1-2.6 0.5-3.8 1.2l-0.7 0.4-33.5 19.4q-0.1 0-0.2 0.1-0.8 0.6-1.2 1.4-0.5 0.9-0.6 1.9c0 0.9-0.3 1.8-0.7 2.5-0.5 0.8-1.1 1.4-1.9 1.9l-39.9 23q-0.7 0.4-1.4 0.5-0.4 0-0.7-0.2-0.4-0.2-0.6-0.5-0.3-0.3-0.4-0.6-0.1-0.4-0.1-0.8c0-0.3-0.1-1-0.7-1q-0.4 0-0.7 0.2l-2.3 1.2-34.3 19.8q-0.7 0.4-1.3 1l-0.5 0.4-0.2 0.2c-2.9 2.7-4.7 6.5-4.9 10.4v18.2l135.2-78.1v-16.5c0-3.7-1.8-6-4.6-6z"/>
	</g>
	<path id="Layer" class="s0" d="m148 130.1q0 0.2-0.1 0.2 0 0.1-0.1 0.2l-0.3 0.1q-0.1 0-0.1 0-0.1 0-0.1 0 0 0 0-0.1v-4.9l-1 1.7q-0.1 0.1-0.1 0.1c0 0-0.1 0-0.2 0l-0.1-0.2q-0.1 0 0-0.1 0-0.1 0-0.2l1.5-2.3q0-0.1 0.1-0.1l0.1-0.1 0.3-0.2q0 0 0 0 0.1 0 0.1 0 0 0.1 0 0.1 0 0 0 0.1z"/>
	<path id="Layer" class="s0" d="m150.8 128.5q0 0.1 0 0.2-0.1 0.1-0.2 0.2l-0.2 0.1c0 0-0.1 0-0.2 0 0 0 0-0.1 0-0.1v-4.9l-1 1.7q-0.1 0.1-0.2 0.1 0 0 0 0-0.1 0-0.1 0l-0.2-0.2q0 0 0 0 0-0.1 0-0.1 0-0.1 0.1-0.2l1.4-2.3q0.1-0.1 0.1-0.1l0.1-0.1 0.3-0.2q0.1 0 0.1 0c0 0 0 0.1 0 0.2z"/>
	<path id="Layer" class="s0" d="m152.4 123.7q0-0.1 0-0.1 0 0 0.1 0.1 0 0 0 0 0 0.1 0 0.1v0.6q0 0.1 0 0.2-0.1 0.1-0.1 0.1l-0.5 0.3q0 0-0.1 0 0 0 0 0-0.1 0-0.1-0.1 0 0 0-0.1v-0.5q0-0.2 0.1-0.2 0-0.1 0-0.1 0.1-0.1 0.1-0.1zm0 3.1q0 0 0.1 0 0 0 0 0 0 0 0 0.1 0 0 0 0v0.6q0 0.1 0 0.2 0 0.1-0.1 0.2l-0.5 0.2q0 0.1 0 0.1 0 0-0.1-0.1c0 0 0 0 0-0.1v-0.6q0-0.1 0-0.2 0 0 0.1-0.1 0 0 0 0z"/>
	<path id="Layer" class="s0" d="m153.9 125.3q0 0.2 0.1 0.3 0.1 0.1 0.3 0.2 0.3 0 0.7-0.2 0.2-0.1 0.4-0.3 0.2-0.2 0.3-0.4 0.2-0.3 0.2-0.6 0.1-0.3 0.1-0.6 0-0.2-0.1-0.5 0-0.2-0.2-0.3-0.2 0-0.3 0-0.2 0.1-0.4 0.2-0.3 0.1-0.4 0.3-0.2 0.1-0.3 0.3l-0.2 0.3q0 0.1-0.1 0.1l-0.4 0.2q0 0 0 0-0.1 0-0.1 0 0 0 0 0 0-0.1 0-0.1l0.2-3.1q0-0.1 0-0.2 0.1-0.1 0.1-0.1l2.4-1.4c0 0 0.1 0 0.1 0 0.1 0 0 0.1 0 0.2v0.3q0.1 0.1 0 0.2 0 0.1-0.1 0.1l-1.9 1.2-0.2 1.6q0.2-0.2 0.4-0.4 0.2-0.2 0.4-0.3 0.4-0.2 0.7-0.2 0.3-0.1 0.6 0.1 0.2 0.1 0.3 0.4 0.2 0.4 0.1 0.8 0.1 0.5-0.1 1-0.1 0.4-0.3 0.8-0.3 0.4-0.6 0.8-0.3 0.3-0.7 0.5-0.2 0.2-0.6 0.2-0.3 0.1-0.5 0-0.3-0.1-0.4-0.3-0.1-0.3-0.1-0.6-0.1-0.1 0-0.2 0 0 0.1-0.1l0.3-0.2q0 0 0 0 0 0 0.1 0 0 0 0 0 0.1 0 0.1 0z"/>
	<path id="Layer" class="s0" d="m157.9 123.2q0 0.1 0.1 0.2 0 0.1 0.1 0.1 0.2 0.1 0.3 0 0.6-0.1 1-0.5 0.1-0.2 0.3-0.4 0.1-0.2 0.2-0.5 0.1-0.2 0.1-0.5 0-0.2-0.1-0.4 0-0.1-0.1-0.2 0 0-0.1 0-0.2-0.1-0.3 0-0.2 0-0.4 0.1l-0.6 0.4q0 0-0.1 0 0 0 0 0-0.1-0.1-0.1-0.1 0 0 0-0.1v-0.3q0-0.1 0-0.2 0 0 0.1-0.1l1.2-2.5-1.9 1.2q0 0-0.1 0 0 0 0 0 0 0-0.1-0.1 0 0 0-0.1v-0.3q0-0.1 0.1-0.2 0-0.1 0.1-0.1l2.6-1.5q0.1-0.1 0.1-0.1 0 0 0.1 0.1 0 0 0 0.1v0.3q0 0.1 0 0.2 0 0.1-0.1 0.2l-1.2 2.4q0.3-0.2 0.7-0.2 0.2-0.1 0.4 0.1 0.3 0.1 0.4 0.4 0.1 0.3 0.1 0.6 0 0.5-0.2 0.9-0.2 0.9-0.9 1.5-0.2 0.3-0.6 0.5-0.4 0.3-0.8 0.3-0.3 0.1-0.5 0-0.2-0.1-0.3-0.3-0.1-0.3-0.1-0.5-0.1-0.1 0-0.2 0-0.1 0.1-0.1l0.3-0.2q0 0 0 0 0.1 0 0.1 0 0 0 0.1 0.1z"/>
	<path id="Layer" fill-rule="evenodd" class="s0" d="m168.3 112.1q0.1 0 0.2 0.1 0.1 0 0.2 0.1 0.1 0 0.1 0.1 0.1 0.1 0.1 0.2 0 0.1 0 0.2l-2.1 7q-0.1 0.2-0.2 0.3-0.1 0.1-0.3 0.1h-0.1q-0.2 0-0.3-0.2-0.1-0.1-0.1-0.3v-2.2l-1.5 0.9q-0.2 0.1-0.3 0.1-0.1 0-0.3-0.1-0.1-0.1-0.2-0.2 0-0.2 0-0.3 0-0.2 0.1-0.3l4.3-5.3q0.1 0 0.1-0.1 0.2-0.1 0.3-0.1zm0 0.6q0 0 0 0zm0 0c0 0-4.4 5.3-4.4 5.3l2.3-1.4v3.1z"/>
	<path id="Layer" class="s0" d="m239.8 77.3l-1.1 0.6v-2.2l1.1-0.6z"/>
	<path id="Layer" class="s0" d="m241.6 76.3l-1.1 0.6v-3.1l1.1-0.7z"/>
	<path id="Layer" class="s0" d="m243.4 75.2l-1.2 0.7v-4.3l1.2-0.7z"/>
	<path id="Layer" class="s8" d="m245.1 74.2l-1.1 0.7v-5.5l1.1-0.6z"/>
	<path id="Layer" class="s0" d="m252.9 64.1c-1.2 0.8-2.3 2-2.9 3.3l0.7 0.6c0.5-1 1.3-1.9 2.2-2.5q0.5-0.3 1.1-0.4 0.6 0 1.2 0.3l0.7-1.4c-0.5-0.3-1-0.4-1.5-0.4-0.5 0-1 0.2-1.5 0.5zm-1.9 4.1l0.7 0.6c0.3-0.6 0.7-1.1 1.2-1.5q0.3-0.1 0.7-0.1 0.3 0 0.6 0.1l0.7-1.3q-0.5-0.3-1-0.2-0.5 0-1 0.3c-0.8 0.5-1.5 1.3-1.9 2.1zm1 0.8l1 0.8 0.9-1.9q-0.2-0.1-0.5-0.1-0.2 0-0.4 0.1-0.7 0.4-1 1.2z"/>
	<path id="Layer" fill-rule="evenodd" class="s8" d="m267.4 56.9v3.5q0 0.5-0.3 1-0.2 0.5-0.7 0.8l-6.3 3.7c-0.5 0.3-0.9-0.1-0.9-0.8v-3.5q0-0.5 0.2-1 0.3-0.5 0.7-0.8l6.3-3.7c0.6-0.3 1 0.1 1 0.8zm-7.3 3.2q-0.3 0.2-0.5 0.6-0.2 0.4-0.2 0.8v3.5c0 0.6 0.3 0.8 0.7 0.6l6.3-3.7q0.4-0.2 0.6-0.6 0.2-0.4 0.2-0.8v-3.5c0-0.6-0.4-0.8-0.8-0.6z"/>
	<path id="Layer" class="s0" d="m263.9 62.5l-3.6 2.1c-0.1 0.1-0.3 0-0.3-0.3v-2.9q0-0.2 0.1-0.3 0.1-0.2 0.2-0.3l3.6-2c0.1-0.1 0.2 0 0.2 0.2v2.9q0 0.2 0 0.4-0.1 0.1-0.2 0.2z"/>
	<path id="Layer" class="s8" d="m268.1 59.2l-0.3 0.1v-1.9l0.3-0.1c0.1-0.1 0.2 0.3 0.2 0.8 0 0.5-0.1 1-0.2 1.1z"/>
	<path id="Layer" fill-rule="evenodd" class="s8" d="m268.8 47.1c3 0 5.1 2.4 5.1 6.5v300.5c-0.1 2.5-0.9 4.9-2.1 7.1-1.3 2.2-3 4-5.1 5.4l-121.9 70.3c-1 0.6-2.1 1-3.2 1-2.4 0-4-1.9-4-5.1v-302.7c0.2-4.2 2-8 5.1-10.9l0.6-0.6q0.7-0.6 1.5-1l34.3-19.8 2.2-1.3q0.5-0.3 1-0.3c0.8 0 1.3 0.6 1.3 1.6 0 1 0.5 1.5 1.2 1.5q0.6 0 1.2-0.3l39.9-23c0.7-0.5 1.2-1.1 1.6-1.7q0.7-1.1 0.8-2.3 0-1.1 0.6-2.1 0.5-1 1.4-1.6l0.2-0.2 33.5-19.3 0.8-0.4c1.2-0.8 2.6-1.2 4-1.3zm-3.5 2.1l-0.7 0.4-33.6 19.4-0.1 0.1q-0.7 0.5-1.1 1.3-0.4 0.7-0.5 1.6c0 1-0.3 1.9-0.8 2.8-0.5 0.8-1.2 1.5-2.1 2l-39.9 23.1q-0.8 0.4-1.6 0.5-0.5-0.1-1-0.3-0.4-0.2-0.7-0.5-0.4-0.4-0.5-0.9-0.2-0.4-0.1-0.9c0-0.1 0-0.6-0.2-0.6q-0.3 0-0.5 0.2c-1.2 0.7-2.3 1.3-2.3 1.3l-34.2 19.8q-0.7 0.4-1.3 0.9l-0.5 0.3-0.2 0.2c-2.8 2.7-4.5 6.3-4.7 10.1v302.8c0 2.6 1.1 4.1 3 4.1 0.9-0.1 1.8-0.4 2.7-0.9l121.7-70.3c2-1.3 3.6-3 4.8-5 1.1-2 1.8-4.3 1.9-6.6v-300.5c0-3.4-1.5-5.5-4-5.5-1.3 0.1-2.5 0.5-3.5 1.1z"/>
	<path id="Layer" fill-rule="evenodd" class="s8" d="m162.6 150.6q1.4-0.8 2.2-0.2 0.8 0.6 0.8 2.6c0 1.2-0.2 2.4-0.8 3.5-0.5 1-1.3 1.8-2.2 2.4l-1.9 1.1v4.1q0 0.2-0.1 0.4-0.1 0.2-0.3 0.3l-0.9 0.6q-0.1 0-0.1 0-0.1 0-0.1 0-0.1-0.1-0.1-0.2-0.1-0.1-0.1-0.1v-11.9q0.1-0.3 0.2-0.4 0-0.2 0.2-0.3zm-1.9 7.1l1.8-1.1c0.5-0.2 0.9-0.6 1.2-1.1q0.4-0.8 0.3-1.6 0-1-0.4-1.2-0.3 0-0.5 0-0.3 0.1-0.5 0.3l-1.9 1z"/>
	<path id="Layer" fill-rule="evenodd" class="s8" d="m170.3 146.2c1.1-0.6 1.8-0.7 2.3-0.3q0.5 0.5 0.7 1.2 0.2 0.6 0.1 1.3 0 1.3-0.4 2.5-0.4 1.2-1.2 2.1l1.6 3.6q0.1 0.1 0 0.2 0 0.2 0 0.3-0.1 0.2-0.2 0.2l-1 0.6q-0.3 0.2-0.4 0-0.1-0.1-0.2-0.2l-1.5-3.3-1.6 0.9v4.3q0 0.2-0.1 0.4 0 0.1-0.2 0.2l-1 0.6q0 0-0.1 0 0 0-0.1 0-0.1-0.1-0.1-0.3v-11.9q0-0.2 0.1-0.4 0.1-0.2 0.2-0.3zm-1.7 6.9l1.7-1.1q0.7-0.3 1.1-1c0.3-0.5 0.4-1.1 0.4-1.6q0-1.1-0.4-1.2c-0.4 0-0.8 0.1-1.1 0.3l-1.7 1z"/>
	<path id="Layer" class="s8" d="m175.3 156.2q-0.1 0-0.1 0-0.1 0-0.1 0-0.1-0.1-0.1-0.2 0 0 0-0.1v-11.9q0-0.2 0.1-0.4 0-0.2 0.2-0.3l0.9-0.5q0.1-0.1 0.2-0.1 0 0 0.1 0.1 0.1 0.1 0.1 0.2v11.9q0 0.2-0.1 0.4-0.1 0.2-0.3 0.3z"/>
	<path id="Layer" class="s8" d="m181.5 149l2-10q0-0.2 0.1-0.3 0.1-0.2 0.3-0.3l0.9-0.6q0 0 0.1 0 0 0 0.1 0 0.1 0.2 0.1 0.3v0.1q0 0 0 0.1l-2.7 13.1q0 0.3-0.2 0.6 0 0.2-0.2 0.3l-1 0.6q-0.2 0.1-0.3 0-0.1-0.2-0.2-0.4l-2.6-10q0-0.1 0-0.1v-0.1q0-0.2 0.1-0.4 0-0.2 0.2-0.3l0.9-0.5q0.2-0.1 0.3 0 0 0.1 0.1 0.2z"/>
	<path id="Layer" fill-rule="evenodd" class="s8" d="m189.7 135q0.2-0.1 0.3 0 0.1 0.2 0.2 0.4l2.9 9.9c0 0 0 0.1 0 0.1q0 0.2-0.1 0.4-0.1 0.2-0.2 0.3l-0.9 0.5c-0.2 0.1-0.3 0.1-0.3 0q-0.1-0.1-0.2-0.2l-0.5-1.8-3.8 2.2-0.5 2.3q0 0.2-0.1 0.4-0.1 0.2-0.3 0.4l-0.9 0.5q0 0-0.1 0-0.1 0-0.1 0-0.1-0.1-0.1-0.2 0 0 0-0.1 0-0.1 0-0.2l2.9-13.3q0.1-0.3 0.2-0.5 0.1-0.3 0.3-0.4zm0.6 7.7l-1.3-4.5-1.4 6z"/>
	<path id="Layer" class="s8" d="m199.1 138.3q0-0.2 0.1-0.4 0.1-0.2 0.2-0.3l1-0.5q0.1-0.1 0.1-0.1 0.1 0 0.1 0.1 0.1 0.1 0.1 0.3 0 0.8-0.2 1.6-0.2 0.9-0.6 1.8-0.5 0.8-1.1 1.6-0.7 0.8-1.6 1.3-0.7 0.4-1.5 0.5c-0.4-0.1-0.7-0.2-1-0.5q-0.5-0.5-0.7-1.2-0.3-0.9-0.3-1.9 0-0.6 0-1.5c0-0.6 0-1 0-1.6q0.1-1.1 0.3-2.2 0.2-1 0.7-2 0.4-0.9 1-1.6 0.6-0.8 1.5-1.2 0.7-0.5 1.6-0.6c0.4 0 0.7 0.1 1.1 0.4q0.4 0.4 0.6 1 0.2 0.7 0.2 1.4 0 0.2-0.1 0.4 0 0.2-0.2 0.3l-1 0.5q0 0-0.1 0 0 0-0.1 0-0.1 0-0.1-0.3 0-0.3-0.2-0.6-0.1-0.2-0.3-0.4-0.3-0.2-0.6-0.1-0.4 0-0.8 0.3-0.5 0.2-0.8 0.7-0.4 0.4-0.6 0.9-0.3 0.5-0.4 1.1-0.1 0.5-0.1 1.1c0 0.5 0 1.1 0 1.6 0 0.5 0 1.1 0 1.5q0 0.6 0.1 1.1 0.1 0.3 0.4 0.6 0.2 0.3 0.6 0.3 0.4 0 0.8-0.3 0.4-0.2 0.8-0.6 0.3-0.4 0.6-0.8 0.2-0.4 0.3-0.8 0.2-0.4 0.2-0.9z"/>
	<path id="Layer" class="s8" d="m208.2 124.3q0.1-0.1 0.2-0.1 0 0 0.1 0.1 0.1 0.1 0.1 0.3 0 0 0 0.1l-2.9 9.3v4.1q0 0.2-0.1 0.4 0 0.1-0.2 0.2l-1 0.6q0 0-0.1 0 0 0-0.1 0 0-0.1-0.1-0.1 0-0.1 0-0.2v-4l-2.8-6.1q0-0.1 0-0.1 0-0.2 0.1-0.4 0.1-0.2 0.2-0.3l0.9-0.5q0.3-0.2 0.4 0 0.1 0 0.1 0.2l2 4.1 1.9-6.3q0-0.2 0.1-0.4 0.2-0.2 0.4-0.4z"/>
	<path id="Layer" fill-rule="evenodd" class="s8" d="m215.7 120q1.4-0.9 2.2-0.3 0.8 0.6 0.8 2.6c0.1 1.2-0.2 2.5-0.8 3.6-0.5 1-1.2 1.8-2.2 2.3l-1.9 1.1v4.1q0 0.3-0.1 0.5-0.1 0.1-0.2 0.2l-1 0.6q-0.1 0-0.1 0-0.1 0-0.1 0-0.1-0.1-0.1-0.2 0 0 0-0.1v-11.9q0-0.2 0.1-0.4 0-0.2 0.2-0.3zm-1.9 7.1l1.8-1.1c0.5-0.2 0.9-0.6 1.2-1.1 0.2-0.5 0.4-1 0.3-1.6q0-1-0.4-1.2-0.2 0-0.5 0-0.3 0.1-0.5 0.2l-1.9 1.1z"/>
	<path id="Layer" fill-rule="evenodd" class="s8" d="m219.8 122.4q0-1 0.2-2.1 0.2-1 0.7-1.9 0.4-0.9 1-1.7 0.6-0.8 1.5-1.3 0.7-0.4 1.5-0.5c0.4 0 0.8 0.2 1.1 0.5q0.4 0.5 0.6 1.2 0.3 0.8 0.4 1.7 0 0.4 0 0.8 0 0.4 0 0.9 0 0.4 0 0.9 0 0.4 0 0.7-0.1 1.1-0.3 2.1-0.2 1-0.6 2-0.5 0.9-1.1 1.6-0.7 0.8-1.5 1.3-0.7 0.4-1.6 0.5c-0.4 0-0.7-0.2-1-0.4q-0.5-0.6-0.6-1.2-0.3-0.9-0.3-1.8 0-0.4 0-0.8 0-0.4 0-0.9 0-0.4 0-0.9c0-0.2-0.1-0.5 0-0.7zm5.4-3q0-0.5-0.1-0.9-0.2-0.5-0.5-0.9-0.5-0.4-1.3 0.1c-0.6 0.4-1.1 0.9-1.4 1.5q-0.5 1.1-0.5 2.4c0 0.4 0 1 0 1.5q0 0.8 0 1.6-0.1 0.5 0.1 0.9 0.1 0.4 0.4 0.8 0.3 0.2 0.7 0.2 0.4 0 0.7-0.3c0.6-0.3 1-0.8 1.3-1.5q0.5-1.1 0.6-2.3c0-0.5 0-1 0-1.6 0-0.5 0-1.1 0-1.5z"/>
	<path id="Layer" class="s8" d="m233.9 120q0.1 0 0.1 0 0.1 0 0.1 0 0.1 0.1 0.1 0.3v1.3q0 0.2-0.1 0.4 0 0.2-0.2 0.3l-5.2 3q-0.1 0.1-0.1 0.1-0.1 0-0.2-0.1 0 0 0-0.1-0.1-0.1 0-0.2v-11.8q0-0.2 0-0.4 0.1-0.2 0.3-0.3l0.9-0.5q0.1-0.1 0.2-0.1 0 0 0.1 0.1 0 0 0 0.1 0.1 0.1 0.1 0.1v10.1z"/>
	<path id="Layer" class="s8" d="m235.7 121.3q0 0-0.1 0-0.1 0-0.1 0-0.1-0.1-0.1-0.2 0 0 0-0.1v-11.9q0-0.2 0.1-0.4 0-0.2 0.2-0.3l1-0.6q0 0 0.1 0 0 0 0.1 0 0 0.1 0.1 0.2 0 0 0 0.1v11.9q0 0.2-0.1 0.4-0.1 0.2-0.2 0.3z"/>
	<path id="Layer" class="s8" d="m244 112.4q0-0.2 0.1-0.4 0.1-0.2 0.2-0.3l1-0.6q0.1 0 0.1 0 0.1 0 0.2 0 0 0.1 0 0.2 0.1 0.1 0 0.1 0 0.9-0.2 1.7-0.2 0.9-0.6 1.7-0.5 0.9-1.1 1.6-0.7 0.8-1.6 1.3-0.7 0.5-1.5 0.5c-0.4 0-0.7-0.1-1-0.4q-0.5-0.5-0.7-1.2-0.3-1-0.3-1.9 0-0.7 0-1.5c0-0.6 0-1.1 0-1.6q0.1-1.1 0.3-2.2 0.2-1 0.7-2 0.4-0.9 1-1.7 0.7-0.7 1.5-1.2 0.7-0.5 1.6-0.5c0.4 0 0.8 0.1 1.1 0.3q0.4 0.5 0.6 1.1 0.2 0.6 0.2 1.3 0.1 0.2 0 0.4-0.1 0.2-0.3 0.3l-0.9 0.6q-0.1 0-0.2 0 0 0-0.1 0c0 0-0.1-0.2-0.1-0.3q0-0.3-0.2-0.6-0.1-0.3-0.3-0.5-0.3-0.1-0.6-0.1-0.4 0.1-0.8 0.3-0.5 0.3-0.8 0.7-0.4 0.4-0.6 0.9-0.2 0.5-0.4 1.1-0.1 0.6-0.1 1.1c0 0.5 0 1.1 0 1.6 0 0.5 0 1.1 0 1.5q0 0.6 0.1 1.1 0.1 0.3 0.4 0.6 0.2 0.3 0.6 0.3 0.4 0 0.8-0.3 0.4-0.2 0.8-0.6 0.3-0.4 0.6-0.8 0.2-0.4 0.3-0.8 0.1-0.4 0.2-0.8z"/>
	<path id="Layer" class="s8" d="m253.1 98.3q0.1 0 0.1 0 0.1 0 0.2 0 0.1 0.2 0 0.3 0.1 0.1 0 0.2l-2.8 9.3v4.1q0 0.2-0.1 0.4-0.1 0.1-0.2 0.3l-1 0.5q0 0-0.1 0 0 0-0.1 0 0-0.1-0.1-0.1 0-0.1 0-0.2v-4l-2.8-6.1q0 0 0-0.1 0-0.2 0.1-0.4 0.1-0.2 0.2-0.3l0.9-0.5q0.2-0.2 0.4 0 0.1 0.1 0.1 0.2l1.9 4.1 2-6.3q0-0.2 0.1-0.4 0.1-0.2 0.4-0.4z"/>
	<path id="Layer" class="s3" d="m258.5 125.7l-105.4 60.9c-0.9 0.5-1.6 0-1.6-1.2v-0.3q0-0.9 0.4-1.8 0.4-0.8 1.2-1.3l105.4-60.9c0.9-0.5 1.6 0 1.6 1.2v0.3q0 0.9-0.4 1.8-0.4 0.8-1.2 1.3z"/>
	<path id="Layer" class="s3" d="m258.5 159.1l-105.4 60.9c-0.9 0.5-1.6 0-1.6-1.2v-0.4q0-0.9 0.4-1.7 0.4-0.8 1.2-1.4l105.4-60.8c0.9-0.6 1.6 0 1.6 1.2v0.3q0 0.9-0.4 1.7-0.4 0.8-1.2 1.4z"/>
	<path id="Layer" class="s3" d="m258.5 173.7l-105.4 60.8c-0.9 0.5-1.6 0-1.6-1.2v-0.3q0-0.9 0.4-1.7 0.4-0.8 1.2-1.4l105.4-60.9c0.9-0.5 1.6 0 1.6 1.2v0.4q0 0.9-0.4 1.7-0.4 0.8-1.2 1.4z"/>
	<path id="Layer" class="s3" d="m258.5 306.8l-105.4 60.9c-0.9 0.6-1.6 0-1.6-1.2v-0.3q0-0.9 0.4-1.7 0.4-0.8 1.2-1.4l105.4-60.9c0.9-0.5 1.6 0 1.6 1.3v0.3q0 0.9-0.4 1.7-0.4 0.8-1.2 1.3z"/>
	<path id="Layer" class="s3" d="m258.5 321.4l-105.4 60.9c-0.9 0.5-1.6 0-1.6-1.2v-0.3q0-0.9 0.4-1.7 0.4-0.9 1.2-1.4l105.4-60.9c0.9-0.5 1.6 0 1.6 1.2v0.4q0 0.9-0.4 1.7-0.4 0.8-1.2 1.3z"/>
	<path id="Layer" class="s3" d="m258.5 188.2l-105.4 61c-0.9 0.5-1.6 0-1.6-1.2v-0.4q0-0.9 0.4-1.7 0.4-0.8 1.2-1.4l105.4-60.8c0.9-0.6 1.6 0 1.6 1.2v0.3q0 0.9-0.4 1.7-0.5 0.8-1.2 1.3z"/>
	<path id="Layer" class="s3" d="m248.2 144.7l-84.8 49c-0.9 0.5-1.7 0-1.7-1.2v-0.4q0.1-0.9 0.5-1.7 0.4-0.8 1.2-1.4l84.8-49c0.9-0.5 1.6 0 1.6 1.3v0.3q0 0.9-0.4 1.7-0.4 0.8-1.2 1.4z"/>
	<path id="Layer" class="s3" d="m258.5 222.3l-105.4 60.8c-0.9 0.6-1.6 0-1.6-1.2v-0.3q0-0.9 0.4-1.7 0.4-0.8 1.2-1.4l105.4-60.8c0.9-0.6 1.6 0 1.6 1.2v0.4q0 0.9-0.4 1.7-0.5 0.8-1.2 1.3z"/>
	<path id="Layer" class="s3" d="m258.5 237.2l-105.4 60.9c-0.9 0.5-1.6 0-1.6-1.2v-0.4q0-0.9 0.4-1.7 0.4-0.8 1.2-1.3l105.4-60.9c0.9-0.5 1.6 0 1.6 1.2v0.3q0 0.9-0.4 1.7-0.4 0.9-1.2 1.4z"/>
	<path id="Layer" class="s3" d="m258.5 207.5l-98.5 56.9c-0.9 0.5-1.6 0-1.6-1.2v-0.3q0-1 0.4-1.8 0.5-0.8 1.2-1.3l98.5-56.9c0.9-0.5 1.6 0 1.6 1.2v0.3q0 0.9-0.4 1.8-0.4 0.8-1.2 1.3z"/>
	<path id="Layer" class="s8" d="m152.9 268.5c-0.8 0.4-1.4 0-1.4-1.2v-0.6q0-0.8 0.4-1.6 0.4-0.7 1-1.2c0.9-0.5 1.5 0 1.5 1.1v0.6q0 0.9-0.4 1.6-0.4 0.8-1.1 1.3z"/>
	<path id="Layer" class="s3" d="m258.5 271.6l-105.4 60.9c-0.9 0.5-1.6 0-1.6-1.2v-0.3q0-1 0.4-1.8 0.4-0.8 1.2-1.3l105.4-60.9c0.9-0.5 1.6 0 1.6 1.2v0.3q0 0.9-0.4 1.7-0.4 0.9-1.2 1.4z"/>
	<path id="Layer" class="s3" d="m258.5 286.5l-105.4 60.9c-0.9 0.5-1.6 0-1.6-1.2v-0.4q0-0.9 0.4-1.7 0.4-0.8 1.2-1.3l105.4-60.9c0.9-0.5 1.6 0 1.6 1.2v0.3q0 0.9-0.4 1.8-0.4 0.8-1.2 1.3z"/>
	<path id="Layer" class="s3" d="m258.5 256.8l-98.5 56.9c-0.9 0.5-1.6 0-1.6-1.2v-0.3q0-1 0.4-1.8 0.5-0.8 1.2-1.3l98.5-56.9c0.9-0.5 1.6 0 1.6 1.3v0.3q0 0.9-0.4 1.7-0.4 0.8-1.2 1.3z"/>
	<path id="Layer" class="s8" d="m152.9 317.7c-0.8 0.5-1.4 0-1.4-1.1v-0.6q0-0.8 0.4-1.6 0.4-0.7 1-1.2c0.9-0.5 1.5 0 1.5 1.1v0.6q0 0.9-0.4 1.6-0.4 0.8-1.1 1.2z"/>
	<path id="Layer" class="s8" d="m93.3 29q-1.8-1-3.4-2.3c0.3-1 0.7-1.8 1-2.7 2.2 3.5 5.2 6.5 8.7 8.6z"/>
	<path id="Layer" class="s13" d="m93.3 29q-1.8-1-3.4-2.3c0.3-1 0.7-1.8 1-2.7 2.2 3.5 5.2 6.5 8.7 8.6z"/>
	<path id="Layer" class="s8" d="m136.8 37.8c0.2 37.3 0.5 87.6-41.8 128.2l-0.9 0.8-1.3 0.3q-3.8 0.7-7.7 0.8c-6.5 0.1-12.9-2.1-18-6.1 3.5 1.4 7.3 2 11 2q3.9 0 7.7-0.8l1.3-0.2 0.9-0.9c42.3-40.6 42-90.9 41.8-128.1q0-3 0-5.8l7-5.5v8.9q0 3 0 6.4z"/>
	<path id="Layer" class="s11" d="m136.8 37.8c0.2 37.3 0.5 87.6-41.8 128.2l-0.9 0.8-1.3 0.3q-3.8 0.7-7.7 0.8c-6.5 0.1-12.9-2.1-18-6.1 3.5 1.4 7.3 2 11 2q3.9 0 7.7-0.8l1.3-0.2 0.9-0.9c42.3-40.6 42-90.9 41.8-128.1q0-3 0-5.8l7-5.5v8.9q0 3 0 6.4z"/>
	<path id="Layer" class="s13" d="m94.1 166.8l0.9-0.8c42.3-40.6 42-90.9 41.8-128.2q0-3.4 0-6.4v-8.9l-3.6 2.9-3.3 2.6v0.1q0 2.7 0 5.7c0.2 37.2 0.5 87.5-41.9 128.1l-0.9 0.9 7 4z"/>
	<path id="Layer" class="s8" d="m109.7 31.6c-2.5 0-5.9-1-9.9-4.4q1.4 0.4 2.9 0.4c5.6 0 11.6-2.5 17.5-7l13.9-11 7 4-13.9 11c-5.9 4.6-11.9 7-17.5 7z"/>
	<path id="Layer" class="s16" d="m109.7 31.6c-2.5 0-5.9-1-9.9-4.4q1.4 0.4 2.9 0.4c5.6 0 11.6-2.5 17.5-7l13.9-11 7 4-13.9 11c-5.9 4.6-11.9 7-17.5 7z"/>
	<path id="Layer" class="s6" d="m132.5 31.4l-7-4.1c-11.8 9.3-23.2 10.3-31.3 7.5q-1.2-1.1-2.2-2.3l-7-4.1c-6.5 16-23.1 39.3-40.5 45.7 0 28.7-2.1 68.8 21.1 82.2l7 4c5.1 3 11.5 4.1 19.4 2.5 43.5-41.7 40.5-96.4 40.5-131.4z"/>
	<path id="Layer" class="s5" d="m86.2 78.6l5.8-46.1-7-4.1c-6.5 16-23.1 39.3-40.5 45.7l7 4z"/>
	<path id="Layer" class="s0" d="m85.1 161.8c-3 0.1-6.1-0.4-8.9-1.6-2.9-1.1-5.4-2.9-7.6-5.1-15.7-15.8-15.5-43.9-15.4-70.5q0-2.7 0-5.3c17.6-7.1 32.8-29.4 39.3-43.7 4.7 4.2 10.8 6.5 17.1 6.4 7.1 0 14.3-2.5 21.1-7.3q0 1.6 0 3.1c0.3 36.3 0.6 84.7-39.5 123.4q-3 0.6-6.1 0.6z"/>
	<path id="Layer" fill-rule="evenodd" class="s7" d="m132.5 31.4c0 35.1 3 89.7-40.5 131.5q-3.4 0.7-6.9 0.7c-36.3 0-33.6-52.3-33.6-85.4 17.4-6.4 33.9-29.8 40.5-45.7 3.5 4.5 9.9 7.8 17.7 7.8 6.8 0 14.7-2.5 22.8-8.9zm-3.5 6.5c-5.8 3.7-12.5 5.6-19.3 5.8-6 0.1-11.8-1.8-16.6-5.3-7 14.2-21.4 34.6-38.2 42q0 2 0 4.2c-0.1 26.3-0.3 54 15 69.3 2 2 4.3 3.6 6.9 4.7 2.7 1 5.5 1.6 8.3 1.5q2.6 0 5.2-0.5c39.2-38.3 38.9-85.9 38.8-121.7z"/>
	<path id="Layer" class="s8" d="m71.5 137.2l44.9-26-0.7-6.4c-0.5-4.1-2.1-7-4.4-8.3l-6.3-3.6c-2.3-1.4-5.4-1.2-8.6 0.7l-17.3 9.9c-6.6 3.8-12.2 13.5-13.1 22.8l-0.7 7.3z"/>
	<path id="Layer" class="s15" d="m71.5 137.2l44.9-26-0.7-6.4c-0.5-4.1-2.1-7-4.4-8.3l-6.3-3.6c-2.3-1.4-5.4-1.2-8.6 0.7l-17.3 9.9c-6.6 3.8-12.2 13.5-13.1 22.8l-0.7 7.3z"/>
	<path id="Layer" class="s8" d="m115.7 104.8c-0.5-4.1-2.1-7-4.4-8.3-2.4-1.4-5.4-1.2-8.7 0.7l-17.2 9.9c-6.6 3.8-12.2 13.5-13.1 22.8l-0.8 7.3 45-26z"/>
	<path id="Layer" class="s8" d="m103.7 68.9c2.2 1.3 3.6 4 3.6 7.9 0 7.8-5.5 17.3-12.2 21.2-3.4 2-6.5 2.1-8.7 0.9l-6.2-3.6c-2.2-1.3-3.5-4-3.5-7.9 0-7.8 5.4-17.3 12.2-21.2 3.4-1.9 6.4-2.1 8.6-0.8z"/>
	<path id="Layer" class="s15" d="m103.7 68.9c2.2 1.3 3.6 4 3.6 7.9 0 7.8-5.5 17.3-12.2 21.2-3.4 2-6.5 2.1-8.7 0.9l-6.2-3.6c-2.2-1.3-3.5-4-3.5-7.9 0-7.8 5.4-17.3 12.2-21.2 3.4-1.9 6.4-2.1 8.6-0.8z"/>
	<path id="Layer" class="s8" d="m95.1 98c-3.4 2-6.5 2.2-8.7 0.9-2.2-1.3-3.6-4-3.6-7.9 0-7.8 5.5-17.3 12.3-21.2 3.3-2 6.4-2.1 8.6-0.9 2.2 1.3 3.6 4 3.6 8 0 7.7-5.5 17.2-12.2 21.1z"/>
	<path id="Layer" class="s8" d="m82.7 9.7c-4.2 19.4-26.1 50.8-41.2 56.3l-5.6 2.1 7 4 5.6-2.1c15.1-5.5 36.9-36.8 41.2-56.2z"/>
	<path id="Layer" class="s16" d="m82.7 9.7c-4.2 19.4-26.1 50.8-41.2 56.3l-5.6 2.1 7 4 5.6-2.1c15.1-5.5 36.9-36.8 41.2-56.2z"/>
	<path id="Layer" class="s8" d="m61.3 162.4c-18.8-18.9-18.6-49.5-18.4-77.8q0-3.4 0-6.5v-6l-7-4v6q0 3 0 6.4c-0.2 28.3-0.4 59 18.4 77.9 2.1 2.1 4.4 3.9 7 5.4l6.5 3.7q-3.6-2.1-6.5-5.1z"/>
	<path id="Layer" class="s17" d="m61.3 162.4c-18.8-18.9-18.6-49.5-18.4-77.8q0-3.4 0-6.5v-6l-7-4v6q0 3 0 6.4c-0.2 28.3-0.4 59 18.4 77.9 2.1 2.1 4.4 3.9 7 5.4l6.5 3.7q-3.6-2.1-6.5-5.1z"/>
	<path id="Layer" fill-rule="evenodd" class="s8" d="m98 169.1l-1.8 1.8-2.5 0.5q-4.2 0.8-8.5 0.8c-4.4 0.1-8.8-0.7-12.9-2.4-4.1-1.7-7.8-4.1-10.9-7.3-18.8-18.9-18.6-49.6-18.5-77.9 0-2.2 0-10.4 0-12.5l5.7-2.1c15-5.5 36.8-36.8 41-56.2 8.2 14.7 15.6 17.8 20.1 17.8 5.6 0 11.6-2.4 17.5-7l13.9-11c0 2 0 21.9 0 24.2 0.2 37.9 0.5 89.4-43.1 131.3zm38.8-131.3c0-2.2 0-13.2 0-15.3l-7 5.5c-6.6 5.2-13.5 8-20.1 8-6 0-14.4-4.6-18.9-12-4.7 14.5-24.4 44.1-40.8 50.1l-2.8 1c0 2 0 7.2 0 9.5-0.1 27.6-0.3 57.2 17.2 74.8 2.7 2.7 5.9 4.9 9.5 6.4 3.5 1.4 7.4 2.1 11.2 2.1q3.9-0.1 7.7-0.8l1.3-0.3 0.9-0.8c42.3-40.7 42-90.9 41.8-128.2z"/>
	<path id="Layer" fill-rule="evenodd" class="s10" d="m98 169.1l-1.8 1.8-2.5 0.5q-4.2 0.8-8.5 0.8c-4.4 0.1-8.8-0.7-12.9-2.4-4.1-1.7-7.8-4.1-10.9-7.3-18.8-18.9-18.6-49.6-18.5-77.9 0-2.2 0-10.4 0-12.5l5.7-2.1c15-5.5 36.8-36.8 41-56.2 8.2 14.7 15.6 17.8 20.1 17.8 5.6 0 11.6-2.4 17.5-7l13.9-11c0 2 0 21.9 0 24.2 0.2 37.9 0.5 89.4-43.1 131.3zm38.8-131.3c0-2.2 0-13.2 0-15.3l-7 5.5c-6.6 5.2-13.5 8-20.1 8-6 0-14.4-4.6-18.9-12-4.7 14.5-24.4 44.1-40.8 50.1l-2.8 1c0 2 0 7.2 0 9.5-0.1 27.6-0.3 57.2 17.2 74.8 2.7 2.7 5.9 4.9 9.5 6.4 3.5 1.4 7.4 2.1 11.2 2.1q3.9-0.1 7.7-0.8l1.3-0.3 0.9-0.8c42.3-40.7 42-90.9 41.8-128.2z"/>
	<path id="Layer" class="s18" d="m448.6 372.9c-1.1-14.8 0.6-26.1-0.6-49.1-0.2-5.9-0.4-12.3-0.8-17.9-1.3-18.9-4.3-25.4-4.6-29 0 0-0.5-29.5-1.8-70.9-0.6-19.5-6.4-25.4-11-35.7h-57.1c-6.1 25.5-5.7 81.1-5.5 107.4 0.1 13.4 5.7 85.1 5.8 86.8 0.4 5.8-0.2 8.1-2.5 10.6-4.9 5.2-12.1 10.1-18.2 14.6 0.9 2.3 8.3 2.2 12 0.4q7.2-3.6 13.6-8.5c5.1-3.6 11.6-6.6 11.7-12.2q0-0.5 0.1-1c0.1-3.2 7.9-51.2 8.5-62.3 0.6-9.6-0.6-25.8-0.6-25.8l6.3-40.5c0 0 3.9 23.9 7.9 40.3 3.2 13.3 8.5 36 12.1 52.4 3.5 18.9 8.6 32.3 9.5 41.8 0.2 2.2 2.8 24.4 3.9 29.5 1.1 5 12.4 5.2 13.1-3.6 0.5-5.8-1.6-24.5-1.8-27.3z"/>
	<path id="Layer" class="s6" d="m341.8 395.5c-0.3 0-0.8 3.4 0.9 4.9 1.9 1.6 7.6 4.4 15.3 3.5 7.6-0.9 11.8-3.1 14.8-5.6 3.1-2.4 7.4-5.9 10.9-6.6 3.2-0.7 6.7-2.1 7.7-3 1.1-0.9 1-5.3 1-5.3z"/>
	<path id="Layer" class="s5" d="m389.9 366.9c0 0 0.6 0 0.7 1 0.3 1.2 0.5 4.6 1 6.6 0.6 2.7 1 8.2 0.6 10.4-0.4 2.2-5.7 3.7-9 4.9-4 1.6-7.6 3.8-10.9 6.6-3.6 2.8-11.2 5.6-16.2 5.6-7.5 0-12.4-2-13.9-4.7-1.9-3.3-0.4-5.2 8.4-9 1.6-0.7 7.5-4 9.5-5.2q3.1-1.9 5.9-4.3 1.5-1.2 2.7-2.5 1.3-1.2 2.3-2.7c0.1-0.3 0.1-0.5 0.2-0.8q0.4-0.9 0.6-2c0.2-0.7 0.3-1.7 1-2.1 0.9-0.4 2-0.5 3.1-0.3q1.6 0.1 3.3 0.5c1.3 0.3 2.8 0.4 3.5 1.6 0.5 0.9 0.7 2 0.7 3.1 0 0.5 0 1 0 1.5 0 0.2-0.1 0.5 0.2 0.5 0.3-0.1 0.6-0.9 0.8-1.1 0.2-0.5 0.4-1.1 0.6-1.7 0.6-1.2 1.4-2.3 2.5-3.1q0.8-0.4 1.5-0.9c0.5-0.6 0.8-1.2 0.9-1.9z"/>
	<path id="Layer" class="s0" d="m349.2 388.9c10.9 0.9 14.3 7.5 14.7 11.6-2.5 0.9-5.1 1.4-7.8 1.5-7.5 0-12.7-2-14.2-4.7-1.8-3.1-0.5-5.6 7.3-8.4z"/>
	<path id="Layer" class="s2" d="m365.6 389.2q0.2 0 0.4-0.1 0.1 0 0.1-0.1 0.1-0.1 0.1-0.2 0-0.1 0-0.2-0.1-0.1-0.1-0.2c-1.3-1.3-2.9-2.4-4.6-3-1.7-0.7-3.5-1-5.3-0.9q-0.1 0-0.2 0-0.1 0.1-0.2 0.1-0.1 0.1-0.1 0.2 0 0.1 0 0.2 0 0.2 0.2 0.4 0.2 0.1 0.4 0.1c1.6 0 3.3 0.2 4.8 0.8 1.6 0.7 2.9 1.6 4.1 2.7q0.1 0.1 0.2 0.2 0.1 0 0.2 0z"/>
	<path id="Layer" class="s2" d="m370.4 386.5q0.2 0 0.3-0.1 0.1 0 0.2-0.1 0-0.1 0-0.2 0-0.1 0-0.2 0-0.1-0.1-0.2c-1.3-1.3-2.8-2.3-4.5-3-1.7-0.7-3.5-1-5.4-0.9q-0.1 0-0.2 0-0.1 0-0.2 0.1-0.1 0.1-0.1 0.2 0 0.1 0 0.2 0 0.2 0 0.3 0.1 0.1 0.2 0.1 0.1 0.1 0.2 0.1 0.1 0 0.2 0c1.7-0.1 3.3 0.2 4.9 0.8 1.5 0.6 2.9 1.6 4.1 2.7q0 0.1 0.2 0.2 0.1 0 0.2 0z"/>
	<path id="Layer" class="s2" d="m374.8 383.5q0.2 0 0.3-0.1 0.1-0.1 0.2-0.2 0 0 0-0.1 0.1-0.2 0-0.3 0-0.1-0.1-0.1c-1.3-1.3-2.8-2.4-4.5-3-1.7-0.7-3.5-1-5.4-1q-0.1 0.1-0.2 0.1 0 0-0.1 0.1-0.1 0.1-0.1 0.2 0 0.1 0 0.2 0 0.2 0.2 0.4 0.1 0.1 0.3 0.1c1.7-0.1 3.3 0.2 4.9 0.8 1.5 0.6 2.9 1.5 4.1 2.7q0.1 0.1 0.2 0.2 0.1 0 0.2 0z"/>
	<path id="Layer" class="s2" d="m379.1 380.5q0.2 0 0.4-0.1 0-0.1 0.1-0.2 0-0.1 0.1-0.2 0-0.1 0-0.2-0.1-0.1-0.1-0.2c-2.1-2.6-6.8-4.3-10.8-3.9q-0.1 0-0.2 0-0.1 0.1-0.2 0.1-0.1 0.1-0.1 0.2 0 0.1 0 0.2 0 0.1 0 0.2 0.1 0.1 0.2 0.2 0.1 0 0.2 0.1 0.1 0 0.2 0c3.6-0.3 8 1.3 9.8 3.6q0.1 0.1 0.2 0.1 0.1 0.1 0.2 0.1z"/>
	<path id="Layer" class="s6" d="m433.7 407.7c0.3 5.1 1.1 8.4 3 11.3 1.8 3 5.3 3.9 8.8 3.1 3.5-0.9 8-3.2 9-7.6 1-4.3 1.6-7.3 0.8-12z"/>
	<path id="Layer" class="s5" d="m448.5 371.1c1.4 0.1 1.9 6.9 2.7 13.7 0.9 7.3 3.1 10.3 3.9 16.3 0.9 6.8-0.2 9.8-2.7 14-2.4 4.1-11.1 8.1-15.4 2.2-3.5-4.8-3.6-10.1-3.3-16.9q0.3-8.7-0.4-17.3c-0.3-5.2-1.5-10.3-0.2-10.9 0.1 0.8 0.2 1.8 0.3 2.5q0 1.4 0.4 2.7c0.2 0.4 0.5 0.8 0.6 0.2q0.1-0.7 0-1.3c-0.2-1.9 0.8-2.1 1.3-2.2q3.3-0.6 6.7-0.9c1.1-0.1 4.9-0.2 5.4 0.4q0.5 0.9 0.5 1.9c0.1 1.1 0.4 1.8 0.4 1.5 0.1-0.7-0.1-2.6-0.1-3.1 0-0.4-0.1-1-0.1-1.5q0-0.7 0-1.3z"/>
	<path id="Layer" class="s0" d="m455.5 405c0.3 3.7-0.7 7.3-2.7 10.4-2.4 4.1-11.8 8.2-16.1 2.3-2.1-3-2.7-6.4-3-10 2.6-4.6 17.8-6.6 21.8-2.7z"/>
	<path id="Layer" class="s2" d="m436.9 400.3q0.1 0 0.2-0.1c0 0 6.7-2.7 13.2-1.2q0.3 0 0.4-0.1 0.2-0.1 0.3-0.3 0-0.1 0-0.2 0-0.1-0.1-0.2 0-0.1-0.1-0.2-0.1 0-0.2 0c-6.9-1.6-13.7 1.2-14 1.3q-0.1 0-0.2 0.1 0 0.1-0.1 0.2 0 0.1 0 0.2 0 0.1 0.1 0.2 0 0.1 0.2 0.2 0.1 0.1 0.3 0.1z"/>
	<path id="Layer" class="s2" d="m450 393.9q0.2 0 0.3-0.1 0.1-0.1 0.2-0.3 0-0.2-0.1-0.4-0.1-0.2-0.3-0.2c-6.5-2.2-13.7 1-13.9 1.2q-0.1 0-0.2 0.1-0.1 0.1-0.1 0.2 0 0.1 0 0.2 0 0.1 0 0.2 0.2 0.2 0.4 0.2 0.2 0.1 0.4 0c0 0 7.1-3.1 13.1-1.1q0.1 0 0.2 0z"/>
	<path id="Layer" class="s2" d="m449.8 389.1q0.1 0 0.3-0.1 0.1-0.1 0.1-0.3 0.1-0.1 0.1-0.2 0-0.1-0.1-0.2 0-0.1-0.1-0.1-0.1-0.1-0.2-0.1c-7.1-2.5-14 1-14.2 1.1q-0.2 0.2-0.3 0.4 0 0.2 0.1 0.4 0.1 0.2 0.3 0.2 0.3 0.1 0.4-0.1c0.1 0 6.7-3.4 13.3-1q0.2 0 0.3 0z"/>
	<path id="Layer" class="s4" d="m449.4 384.4q0.2 0 0.3-0.1 0.1-0.1 0.2-0.3 0-0.1 0-0.2 0-0.1 0-0.2-0.1-0.1-0.2-0.1 0-0.1-0.1-0.1c-6.7-2.5-14.1 1.1-14.4 1.3q0 0-0.1 0.1-0.1 0.1-0.1 0.2 0 0.1 0 0.2 0 0.1 0 0.2 0.1 0.1 0.2 0.1 0.1 0.1 0.2 0.1 0.1 0.1 0.2 0.1 0.1-0.1 0.2-0.1c0.1 0 7.2-3.5 13.4-1.3q0.1 0.1 0.2 0.1z"/>
	<path id="Layer" class="s7" d="m439.7 170.5c0.9 16.4 2.9 21 3.6 55.5 0.6 34.4 0.5 44 0.7 48.2 0.1 4.1 2.6 11.6 4.7 32 2.2 20.5-0.4 44.8-0.4 44.8 0 0-1.4 3.3-9.5 4-7.3 0.7-11-2-11-2 0 0-10.1-39.9-12.9-52.2-2.8-12.3-11-52.8-11-52.8l-4.8 32.8c0 0 2.3 11.4 0 29.3-2.2 17.9-6.2 36.3-6.2 36.3-3.6 1.2-7.4 1.8-11.3 1.8-3.5 0-6.9-0.8-10-2.6 0 0-6.2-53.3-6.2-73.7 0-20.3 1.6-72.1 2.8-101.2z"/>
	<path id="Layer" class="s5" d="m442.1 290.1q-0.4-1.8-0.7-3.4c-2.1-9.5-2-21.9-2-37.7 0-4.8 0-9.7 0-14.9-0.2-20.5-1.8-43.5-12.4-58.3l-0.9 0.6c7.2 10 10.2 23.7 11.4 37.9-10.5-1.3-12.8-11.5-16-25.5q-0.6-2.9-1.3-5.9l-1.1 0.2c0.5 2.1 0.9 4 1.4 5.9 3.1 14 5.6 25.1 17.1 26.4 0.5 6.3 0.7 12.6 0.7 18.7 0.1 5.2 0 10.1 0 14.9 0 15.8 0 28.3 2.1 37.9q0.3 1.6 0.7 3.4c2.8 12.3 6.9 30.8 4.8 62.9q0.6-0.3 1.1-0.7c1.9-31.8-2.2-50.2-4.9-62.4zm-65.8-84.3c1.4 6.7 12.5 12.4 17.5 13.6l1.2 6.9q-0.3 5.5-0.8 11.5c-1.5 21.8-3.7 38.7-2.5 43.8 3 13.4 2.1 21.9 0.5 37.4q-0.3 2.4-0.5 5c-0.9 9-2 17.8-2.6 23.4l1.1-0.2c0.6-5.7 1.6-14.3 2.5-23.1q0.3-2.6 0.5-5c1.7-15.6 2.6-24.1-0.5-37.7-1.1-5 1.1-22.8 2.6-43.6q0.3-3.8 0.5-7.4l3.9 18.6-0.7 31.9 4.9-32.9-6-33.4c0 0-13.9-0.9-21.6-8.8z"/>
	<path id="Layer" class="s18" d="m379.5 98.5c-6.5 1-12.9 4.1-17.8 13.9-4.1 8.1-7.1 17.7-12.1 31.3l-26.8-0.4 4.8 17.1c0 0 16 2.4 24.2 3.5 10.5 1.2 11.7 0.6 14.5-5 4.8-9.8 10.3-26.7 10.3-26.7z"/>
	<path id="Layer" class="s8" d="m379.5 98.2c-5.1 0.9-11.1 1.7-15.6 9.1-4.5 7.5-13.5 32.9-13.5 32.9 0 0 2.5 3.2 9.2 6.8 6.8 3.6 11.6 2.5 11.6 2.5l6.5-17.1z"/>
	<path id="Layer" class="s0" d="m415.3 96.6c10.8 2.4 16.4 4 21.5 5.2 0 0 5.9 6.9 5.4 43.6-0.1 4.4-1.2 36.1-0.4 46.9 0 0-18 10.2-48.3 7.1-23.7-2.4-26.6-11.3-26.6-11.3 0 0 1.3-32.4 1.6-50 0.4-22.8 2.7-32.9 11-39.9l17-2.9z"/>
	<path id="Layer" fill-rule="evenodd" class="s3" d="m396.6 95.3l18.8 1.3c10.8 2.4 16.4 4 21.5 5.2 0 0 5.9 6.9 5.3 43.6 0 4.4-1.1 36.1-0.3 46.9 0 0-13.6 7.7-37 7.7q-5.7 0-11.4-0.6c-23.7-2.4-26.6-11.3-26.6-11.3 0 0 1.4-32.4 1.7-50 0.4-22.8 2.7-32.9 11-39.9l16.9-2.9zm0 0.8l-16.6 2.9c-7.6 6.5-10.1 15.7-10.5 39.1-0.3 16.7-1.6 47.2-1.7 49.9 0.5 1 4.6 8.4 25.9 10.5q5.6 0.6 11.2 0.6c20.5 0 33.5-6 36.1-7.3-0.6-9.3 0-32.1 0.3-41.9 0.1-2.2 0.1-3.8 0.1-4.6 0.5-32.3-4.1-41.3-5-42.8-1.8-0.3-3.6-0.8-5.7-1.4-3.9-0.9-8.6-2.1-15.4-3.7l-18.7-1.3z"/>
	<path id="Layer" class="s6" d="m413.1 56.7c-1.7 6.2 3.1 12.1 5.4 13.9-0.2 3.6-0.3 11.4-0.3 15.1 6.3-1.5 16.9-34.4 5.9-38 1.3-6.8-6.7-10.4-13-12.2-6.4-1.7-9.1-5-14.7-3.5-0.8 0.3-1.6 0.8-2.2 1.6-0.6 0.7-0.9 1.6-1 2.5-2.4-0.8-5-0.9-7.5-0.2-3.1 0.7-4.9 5.3-1.5 6.8-2.8 0.4-6.2 2.3-5.7 5.5 0.2 0.7 0.6 1.4 1.2 1.8 0.6 0.5 1.3 0.8 2 0.8-3.1 0.5-5.7 3.8-2.7 6.3q0.3 0.4 0.4 0.9 0.1 0.4 0 0.9c-0.2 0.6-1 1.1-1.5 0.4q0.4 0.5 1 0.7 0.6 0.2 1.2 0.1 0.6-0.1 1.1-0.4 0.5-0.4 0.7-1c0.4-0.8 0.1-1.6 0.3-2.4 0.9 3.5 5.4 2.1 8 2.4 7.6-1.1 15.3-1.1 22.9-2z"/>
	<path id="Layer" class="s18" d="m426.4 79.3c-4.6 2.3-6.7-1.3-6.7-1.3l0.2 20.9c-8.6 11.9-32.9 6.5-23.4-2.5v-5.6q-2-0.1-4-0.4c-4.1-0.6-6.7-4.4-7.9-8.8-1.9-6.5-1.1-19.8-0.2-25.7 1-6.2 2.7-9.1 3.6-9.8 5.1 0.9 7.9 5 15.7 5.7 4.9 0.5 8.7-0.1 10.5-1-1.2 8.1 0.1 11.8 0.8 13.9 0.9 3.1 2.3 4.6 2.9 4.7 2.8 0.6 3.1-1.8 4.3-3.2q0.9-0.7 2.1-1 1.2-0.3 2.4-0.1 1.1 0.3 2.1 1c0.6 0.5 1.1 1.2 1.4 1.9 0.5 1 0.8 2 0.9 3.2 0.1 1.1 0 2.2-0.4 3.2-0.4 1.1-0.9 2.1-1.7 2.9-0.7 0.8-1.6 1.5-2.6 2z"/>
	<path id="Layer" class="s19" d="m416.8 83.2c-1.3 6.1-10 9.7-20.3 10v-2.4q3.8-0.1 7.6-0.8c5.9-1.1 10.6-3.4 12.7-6.8z"/>
	<path id="Layer" class="s6" d="m406.6 63.6q-0.1 0.6-0.4 1.1-0.4 0.5-0.9 0.7-0.6 0.2-1.2 0.1-0.6-0.1-1-0.6-0.4-0.4-0.5-1-0.1-0.6 0.1-1.2 0.3-0.5 0.8-0.8 0.5-0.4 1.1-0.4 0.4 0.1 0.8 0.2 0.3 0.2 0.6 0.5 0.3 0.3 0.4 0.6 0.2 0.4 0.2 0.8z"/>
	<path id="Layer" class="s6" d="m391.6 63.3q0 0.6-0.3 1.1-0.4 0.5-0.9 0.7-0.6 0.2-1.2 0.1-0.6-0.1-1-0.6-0.4-0.4-0.5-1-0.1-0.6 0.1-1.2 0.3-0.5 0.8-0.8 0.5-0.4 1.1-0.3 0.4-0.1 0.8 0.1 0.4 0.1 0.7 0.4 0.2 0.3 0.4 0.7 0.1 0.4 0 0.8z"/>
	<path id="Layer" class="s19" d="m398.4 62.1l-1.9 11.9-6.2-1.5c1.7-4.1 4.5-7.7 8.1-10.4z"/>
	<path id="Layer" class="s6" d="m386.9 59.2l4.7-1.5q-0.1-0.4-0.4-0.8-0.3-0.4-0.7-0.7-0.4-0.2-0.9-0.3-0.5 0-1 0.1c-0.6 0.2-1.1 0.7-1.5 1.3-0.3 0.5-0.4 1.2-0.2 1.9z"/>
	<path id="Layer" class="s6" d="m407.9 59.1l-4.4-2.4q0.2-0.5 0.6-0.8 0.4-0.3 0.8-0.5 0.5-0.1 1-0.1 0.5 0.1 0.9 0.3c0.6 0.4 1.1 0.9 1.3 1.5 0.2 0.7 0.1 1.4-0.2 2z"/>
	<path id="Layer" class="s19" d="m402.4 75.5l-6.9 2.7q0.2 0.7 0.7 1.2 0.5 0.6 1.2 0.9 0.6 0.3 1.4 0.3 0.7 0.1 1.4-0.2c0.9-0.4 1.7-1.1 2.1-2 0.4-0.9 0.4-2 0.1-2.9z"/>
	<path id="Layer" class="s20" d="m401.7 76.8q0.4-0.1 0.9-0.2c0 0.8-0.2 1.6-0.6 2.3-0.5 0.7-1.1 1.2-1.8 1.5q-0.6 0.2-1.2 0.2c-0.1-0.9 0.1-1.7 0.6-2.4 0.5-0.8 1.2-1.3 2.1-1.4z"/>
	<path id="Layer" class="s7" d="m316.6 119.2l1.7-1.1q0.4-0.2 0.9-0.2 0.4 0 0.8 0.2l19.3 8c0.8 0.4 1.6 0.9 2.2 1.6q0.8 1.1 1.2 2.4l8 37q0.1 0.5 0 1-0.1 0.4-0.5 0.8l-1.8 1.2q-0.4 0.2-0.8 0.2-0.4 0-0.8-0.2l-19.4-8q-1.2-0.6-2.1-1.7c-0.6-0.7-1-1.5-1.3-2.4l-7.9-37c-0.2-0.8 0-1.5 0.5-1.8z"/>
	<path id="Layer" class="s5" d="m339.3 128.5c0.8 0.8 1.3 1.8 1.6 2.8l8 37q0.2 0.5 0.1 0.9-0.1 0.5-0.5 0.8l1.7-1.1q0.4-0.3 0.5-0.8 0.1-0.5 0-1l-8-36.9c-0.3-1-0.8-2-1.5-2.7z"/>
	<path id="Layer" class="s6" d="m348.9 168.3l-8-37q-0.3-1.3-1.2-2.4-0.9-1-2.2-1.6l-19.3-8c-1.5-0.6-2.5 0.2-2.1 1.8l7.9 37c0.3 0.8 0.7 1.7 1.3 2.4 0.6 0.7 1.3 1.2 2.1 1.6l19.4 8c1.5 0.6 2.4-0.2 2.1-1.8z"/>
	<path id="Layer" class="s7" d="m340 138.8l-1.5-7q-0.1-0.2-0.2-0.4-0.2-0.2-0.4-0.3l-3.1-1.3c-0.3-0.1-0.5 0-0.4 0.4 0.3 1.3 1.2 5.5 1.5 6.9q0 0.2 0.2 0.4 0.2 0.2 0.4 0.3l3.1 1.3c0.3 0.1 0.5 0 0.4-0.3z"/>
	<path id="Layer" class="s6" d="m338.2 133.4q-0.2-0.6-0.6-1.1-0.5-0.5-1.1-0.8c-0.7-0.3-1.2 0-1 0.8q0.2 0.6 0.6 1.1 0.4 0.5 1 0.8c0.8 0.3 1.2-0.1 1.1-0.8z"/>
	<path id="Layer" class="s6" d="m338.9 136.9q-0.2-0.6-0.6-1.1-0.5-0.5-1.1-0.8c-0.7-0.3-1.2 0-1 0.8q0.2 0.6 0.6 1.1 0.5 0.5 1 0.8c0.8 0.3 1.3-0.1 1.1-0.8z"/>
	<path id="Layer" class="s18" d="m317.6 142.9c-1.4-2.3-1.3-2.6-0.4-3.6 0.7-0.9 1.6-1.6 2.6-2 1-0.5 2.1-0.7 3.2-0.6 1.9 0.1 3.9 0.2 4.8 0.8 1 0.5 0 2.6-2.5 3.1-4 0.6-4 1.7-4 1.7q2.5-0.4 5.1-0.6 2.9 0.3 5.8 1.2c1.6 0.3 1.8 2.5-1.1 3.1l3.1 0.6c2.1 0.5 2.7 1.6 1 2.9-0.6 0.4-1.3 0.6-2 0.6 0 0 2.3 0.1 2.3 0.9 0 2.2-1.4 2.6-6.1 3.7-4.5 1.1-5.5 3.4-4.7 5.1 0 0-1.7-1.1-3.2-2.3-1.1-0.9-2.1-1.8-1.5-3.6 0 0-2.5-0.1-2.5-1.6 0-1.2 0.3-2.3 0.7-3.3q-0.6-0.5-1-1.2-0.3-0.7-0.2-1.5c0-1 0.4-1.9 1-2.7z"/>
	<path id="Layer" class="s19" d="m331.2 145.9q-1.4-0.3-2.8-0.4-1.4 0.1-2.7 0.7-2.6 0.9-5 2.3 2.7-0.6 5.2-1.6 1.3-0.5 2.5-0.8c0.9-0.1 1.9 0 2.8-0.2z"/>
	<path id="Layer" class="s19" d="m333.3 150.1c-1-0.4-2-0.4-3-0.3q-1.5 0.3-2.9 0.8-2.9 1-5.4 2.5 2.8-0.7 5.6-1.8c1.8-0.7 3.7-1.2 5.7-1.2z"/>
	<path id="Layer" class="s19" d="m438.8 102.9c8.6 2.1 11.3 5 14.3 14.6 2.9 9.4 9.5 30.5 6.2 44.1-2.1 8.3-20.8-13.2-20.8-13.2l-7.1-30.4c0 0 1.9-14.9 7.4-15.1z"/>
	<path id="Layer" class="s8" d="m436.9 101.8c4.8 0.9 11.3 1.6 14.9 9.9 3.5 8.3 7.9 27.4 8.4 31.6-9.4 6.8-22 5.7-22 5.7l-7.5-30.9c0 0-0.7-10.7 6.2-16.3z"/>
	<path id="Layer" class="s18" d="m435.6 114.3c-1.7-2.8-3.4-5.6-4.1-9.6-0.7-4-3.6-7.8-4.5-9.4-1-1.6-3.1-3.9-4.7-6.1-1.6-2.2-2.1-2.9-4.5-3.4-3.4-0.9-6.1-1.6-7.5-1.3-1.3 0.3-1.4 1.2-0.3 2.5 1.1 1.3 3.5 1.7 4.3 2.1 0.7 0.3 2.4 1.1 2.4 1.1l2.8 4.9q-3.3 0.3-6.5 1.1c-1.1 0.5-2.2 3.2-1.9 4.7 0 0-2 1.2-1.4 3.2 0 0-1.3 1.5-0.6 2.9q1.3 2 3 3.7c0.6 0.7 3.2 1 3.2 1q1.5 2.7 3.7 5c1.8 1.5 3 1.5 4.8 4.5z"/>
	<path id="Layer" class="s19" d="m417 95.4c-0.7-0.7-1.8-1.8-3-1.4-1.3 0.4-0.5 2-0.5 2z"/>
	<path id="Layer" class="s19" d="m411.1 101q1.3-0.9 2.8-1.5c0.9-0.4 2.8-0.9 2.8-0.9q-2 0-3.8 0.6-1 0.3-1.8 0.8-0.1 0.4 0 0.9z"/>
	<path id="Layer" class="s19" d="m410.9 102.8q-0.7 0.2-1.3 0.6 0 0.4 0.1 0.8c0.8-0.9 3.6-1.8 3.6-1.8q-1.3 0-2.4 0.4z"/>
	<path id="Layer" class="s19" d="m415.7 112.4q-0.9-2.3-2.3-4.4c-0.3-0.4-0.8-0.7-1.3-0.8-0.4 0-0.9 0.1-1.3 0.3-0.4 0.5 1.3 0.6 1.8 0.8q1.9 1.8 3.1 4.1z"/>
	<path id="Layer" class="s19" d="m421 95c0 0-0.9-1.5-2.5-3.8-1.6-2.3-1.6-2-3.2-2.5-1.7-0.4-4.9-1.2-5.8-2.3q0.2 0.3 0.5 0.6c1 1.2 3.5 1.7 4.3 2.1 0.7 0.3 2.3 1.1 2.3 1.1l3 5z"/>
	<path id="Layer" class="s18" d="m435.6 114.3c5.3 7.3 19.7 25.1 22.8 32 2.2 4.8 2.1 15.5-0.7 19.2-2.9 3.8-10 1.6-15.5-3.9-4.8-4.8-8.2-15.8-11.4-23.7-3.2-7.9-7-16.8-7-16.8z"/>
	<path id="Layer" class="s19" d="m432.6 108.4q-0.6-1.5-1-3.1-0.2-1.7-0.8-3.2-1.2-3.1-3.1-5.9-1.8-2.8-3.9-5.3-1-1.3-2-2.6c-0.6-1-1.5-1.7-2.5-2.2q-1.6-0.6-3.2-0.9c-1-0.3-2.1-0.5-3.2-0.7q-0.9-0.2-1.7-0.2c-0.6 0-1.2 0.1-1.7 0.4q-0.2 0.2-0.3 0.4-0.1 0.2-0.1 0.4 0 0.5 0.3 0.9 0.4 0.8 1.1 1.3 1.5 0.9 3.1 1.3 1.6 0.5 3 1.3l2.7 4.6q-2.9 0.3-5.7 0.9-0.4 0.1-0.7 0.3-0.4 0.2-0.6 0.5-0.5 0.6-0.8 1.3c-0.4 0.9-0.6 1.9-0.5 2.9q-0.8 0.6-1.2 1.4-0.2 0.4-0.3 0.9 0 0.5 0.1 1-0.5 0.5-0.7 1.2-0.1 0.7 0.1 1.4 0.6 1.3 1.6 2.4 0.4 0.5 0.9 1.1 0.4 0.5 1.1 0.9 1.3 0.5 2.7 0.6 0.8 1.4 1.7 2.7 1 1.3 2.2 2.4c0.8 0.7 1.8 1.2 2.6 1.9q1.3 1 2.1 2.4-0.8-1.4-2.1-2.5c-0.8-0.7-1.8-1.2-2.6-1.9q-1.2-1-2.1-2.4-0.9-1.3-1.7-2.7h-0.1q-1.4-0.2-2.7-0.6-0.6-0.4-1.1-0.9-0.4-0.6-0.9-1.1-0.9-1-1.5-2.3-0.2-0.6 0-1.3 0.2-0.6 0.7-1.1v-0.1q-0.2-0.4-0.1-0.9 0-0.5 0.2-0.9 0.5-0.8 1.2-1.3h0.1v-0.3c-0.1-0.9 0-1.9 0.4-2.8 0.4-0.9 1-1.8 2-1.9q2.9-0.6 5.9-0.9h0.2l-0.1-0.2-2.8-4.9q-1.5-0.8-3.1-1.4-1.6-0.4-3-1.2-0.7-0.5-1.1-1.2c-0.2-0.4-0.3-1 0-1.3 1-0.4 2.1-0.4 3.1-0.1 1.1 0.2 2.2 0.4 3.2 0.7q1.7 0.3 3.2 0.8c1 0.5 1.8 1.2 2.4 2.1 0.7 0.9 1.3 1.8 2 2.6q2.2 2.5 4 5.3 1.8 2.7 3.1 5.8 0.6 1.5 0.9 3.2 0.3 1.6 0.9 3.1 1.3 3.1 3.1 5.8-1.7-2.8-2.9-5.9z"/>
	<path id="Layer" class="s8" d="m462.3 57.9l11.5 6.7-4.6 10.3q-0.1 0.3-0.4 0.5l-5.9 3.3q-0.2 0.2-0.4 0.2-0.3 0-0.5-0.1-0.2-0.1-0.4-0.3-0.2-0.2-0.2-0.4l-4.9-16.8z"/>
	<path id="Layer" class="s8" d="m453.9 7.2l35.5 20.5q0.4 0.3 0.7 0.7 0.2 0.4 0.3 0.9v44.1q0 0.5-0.3 1-0.2 0.4-0.7 0.7l-5.2 3q-0.5 0.2-1 0.2-0.5 0-0.9-0.2l-35.6-20.6q-0.4-0.3-0.7-0.7-0.2-0.5-0.2-1v-44q0-0.5 0.2-0.9 0.3-0.5 0.7-0.7l5.3-3q0.4-0.2 0.9-0.2 0.5 0 1 0.2z"/>
	<path id="Layer" class="s13" d="m445.8 11.6c0.1-0.5 0.5-0.6 0.9-0.3l35.6 20.5q0.4 0.3 0.7 0.7l7.1-4.1q-0.2-0.4-0.7-0.7l-35.5-20.5q-0.5-0.2-1-0.2-0.5 0-0.9 0.2l-5.3 3q-0.3 0.2-0.6 0.6-0.2 0.4-0.3 0.8z"/>
	<path id="Layer" class="s8" d="m463.4 78.2l3.9-8.9 15 8.7c0.5 0.3 0.9 0 0.9-0.6v-44q0-0.5-0.3-0.9-0.2-0.5-0.6-0.7l-35.6-20.6c-0.5-0.3-0.9 0-0.9 0.6v44q0 0.5 0.3 0.9 0.2 0.5 0.6 0.7l10.4 6 4.3 14.6q0.1 0.4 0.4 0.6 0.2 0.2 0.5 0.2 0.4 0 0.6-0.2 0.3-0.1 0.5-0.4z"/>
	<path id="Layer" class="s10" d="m463.4 78.2l3.9-8.9 15 8.7c0.5 0.3 0.9 0 0.9-0.6v-44q0-0.5-0.3-0.9-0.2-0.5-0.6-0.7l-35.6-20.6c-0.5-0.3-0.9 0-0.9 0.6v44q0 0.5 0.3 0.9 0.2 0.5 0.6 0.7l10.4 6 4.3 14.6q0.1 0.4 0.4 0.6 0.2 0.2 0.5 0.2 0.4 0 0.6-0.2 0.3-0.1 0.5-0.4z"/>
	<path id="Layer" fill-rule="evenodd" class="s0" d="m472.7 45.3q0.5 1 0.5 2.1v15c0 1.3-0.6 2-1.5 1.7-5.4-1.6-10.3-4.4-14.4-8.3q-0.7-0.7-1.1-1.5-0.4-1-0.4-1.9v-15.1c0-1.5 0.8-2.1 1.9-1.5l1.3 0.7v-5.4c0-4 2.4-5.9 5.5-4.1 3 1.7 5.5 6.4 5.5 10.5v5.4l1.2 0.7q1 0.7 1.5 1.7zm-11.5-7.4l6.5 3.7v-5.4c0-1.2-0.3-2.4-0.9-3.5-0.5-1.1-1.3-2-2.3-2.7-1.8-1-3.3 0-3.3 2.4zm8.7 9.2q0.1-0.2 0.1-0.4 0-0.3-0.1-0.5-0.1-0.2-0.3-0.3c-0.3-0.2-0.6-0.3-0.9-0.3-0.3 0-0.6 0.1-0.8 0.4l-5.5 6.4-1.1-2.4c-0.2-0.3-0.4-0.5-0.7-0.6-0.3-0.1-0.6-0.1-0.9 0-0.3 0.2-0.5 0.4-0.6 0.7-0.1 0.3-0.1 0.6 0 0.9l1.9 4.1q0.2 0.2 0.4 0.4 0.2 0.2 0.6 0.2h0.1q0.3 0 0.5-0.1 0.2-0.1 0.4-0.3l6.7-7.8q0.2-0.1 0.2-0.4z"/>
</svg>