<svg xmlns="http://www.w3.org/2000/svg" viewBox="0 0 50 50"><defs><style>.cls-1{fill:#fff;}</style></defs><g id="Character_1" data-name="Character 1"><path class="cls-1" d="M39.91,11.39A13.92,13.92,0,0,0,18.48,29l-2.74,2.74L15.09,31a.5.5,0,0,0-.7,0L6.3,39.13a1,1,0,0,0,0,1.41l3.75,3.75a1,1,0,0,0,1.41,0l8.09-8.09a.5.5,0,0,0,0-.7l-.64-.64,2.63-2.64A13.91,13.91,0,0,0,39.91,11.39ZM37.1,28.26a9.95,9.95,0,1,1,2.91-7A9.89,9.89,0,0,1,37.1,28.26Z"/><path class="cls-1" d="M31,20H29.13a.62.62,0,0,1,0-1.24h3.73a1.24,1.24,0,0,0,0-2.48H31.31v-.62a1.25,1.25,0,0,0-2.49,0v.65a3.1,3.1,0,0,0,.31,6.18H31a.61.61,0,0,1,.61.61.61.61,0,0,1-.61.62H27.27a1.25,1.25,0,0,0,0,2.49h1.55v.61a1.25,1.25,0,1,0,2.49,0v-.65A3.09,3.09,0,0,0,31,20Z"/></g></svg>