<svg id="Layer_1" data-name="Layer 1" xmlns="http://www.w3.org/2000/svg" viewBox="0 0 50 50"><defs><style>.cls-1{fill:#fff;}</style></defs><path class="cls-1" d="M29.53,38.07A.25.25,0,1,1,30,38c.07.54.95,1,1.95,1h0c.91,0,2-.28,2-1.07s-1.07-1.06-2-1.06h0c-1.55,0-2.3-.52-2.31-1.58a1.32,1.32,0,0,1,.71-1.12,3.15,3.15,0,0,1,1.35-.35v-.75a.25.25,0,0,1,.25-.24h0a.24.24,0,0,1,.24.24v.75c1.11.07,1.93.58,2,1.31a.25.25,0,0,1-.49.06c-.06-.51-.83-.89-1.79-.89h0a2.73,2.73,0,0,0-1.33.3.83.83,0,0,0-.46.69c0,.5.21,1.09,1.81,1.09h0c2.15,0,2.47,1,2.47,1.55,0,.9-.87,1.49-2.23,1.55v.78a.25.25,0,0,1-.24.25h0a.25.25,0,0,1-.25-.25v-.78C30.54,39.4,29.63,38.83,29.53,38.07ZM32,42.7h0a6,6,0,0,0,0-12.06h0A6,6,0,0,0,32,42.7Zm-3.92-9.94A5.5,5.5,0,0,1,32,31.14h0a5.48,5.48,0,0,1,3.9,1.61h0A5.54,5.54,0,0,1,32,42.2h0a5.55,5.55,0,0,1-5.54-5.53A5.53,5.53,0,0,1,28.06,32.76Z"/><path class="cls-1" d="M15.09,28.06H26.35a.31.31,0,0,0,.3-.3.3.3,0,0,0-.3-.3H15.09a.29.29,0,0,0-.3.3A.3.3,0,0,0,15.09,28.06Z"/><path class="cls-1" d="M15.09,31H26.35a.31.31,0,0,0,.3-.3.3.3,0,0,0-.3-.3H15.09a.29.29,0,0,0-.3.3A.3.3,0,0,0,15.09,31Z"/><path class="cls-1" d="M33.36,10.78h2a3.06,3.06,0,0,1,3,3.06V26.65a.31.31,0,0,0,.3.3.3.3,0,0,0,.3-.3V13.84a3.66,3.66,0,0,0-3.65-3.66h-2a.3.3,0,0,0-.3.3A.31.31,0,0,0,33.36,10.78Z"/><path class="cls-1" d="M23.47,42.9H13.8a3.06,3.06,0,0,1-3.06-3.06v-26a3.06,3.06,0,0,1,3.06-3.06h2a.3.3,0,0,0,.3-.3.29.29,0,0,0-.3-.3h-2a3.66,3.66,0,0,0-3.66,3.66v26A3.66,3.66,0,0,0,13.8,43.5h9.67a.3.3,0,0,0,.3-.3A.29.29,0,0,0,23.47,42.9Z"/><path class="cls-1" d="M20.88,19.39l.17,1.1h-.21a.29.29,0,0,0-.3.3.3.3,0,0,0,.3.3h.3l.19,1.18h-.18a.3.3,0,0,0-.3.3.31.31,0,0,0,.3.3h.27l.13.81a.94.94,0,0,0,.93.8H23l.14.62a1,1,0,0,0,.92.74h1.15a1,1,0,0,0,.92-.74l.15-.62h.46a1,1,0,0,0,.94-.8l.12-.81H28a.3.3,0,0,0,.3-.3.29.29,0,0,0-.3-.3h-.17L28,21.09h.3a.3.3,0,0,0,.3-.3.29.29,0,0,0-.3-.3h-.21l.18-1.1A6.75,6.75,0,1,0,19.94,8.85a6.76,6.76,0,0,0,.94,10.54ZM25.49,25a.33.33,0,0,1-.33.26H24a.34.34,0,0,1-.33-.26l-.11-.49h2ZM27,23.59a.34.34,0,0,1-.34.29H22.48a.34.34,0,0,1-.34-.29L22,22.87h5.11Zm.21-1.32h-5.3l-.19-1.18h5.67Zm-5.58-1.78-.15-1h6.16l-.16,1Zm-1.3-11.2a6.13,6.13,0,0,1,4.56-1.68,6.2,6.2,0,0,1,5.81,6.22A6.1,6.1,0,0,1,28,18.89H21.22a6.14,6.14,0,0,1-.86-9.6Z"/><path class="cls-1" d="M14.72,13.15a.3.3,0,0,0-.31.3.31.31,0,0,0,.31.3H16.1a.31.31,0,0,0,.31-.3.3.3,0,0,0-.31-.3Z"/><path class="cls-1" d="M17.58,20.74a.3.3,0,0,0,.21-.09l1-1a.3.3,0,0,0,0-.43.31.31,0,0,0-.42,0l-1,1a.3.3,0,0,0,.22.51Z"/><path class="cls-1" d="M31.54,20.8a.3.3,0,0,0,.21-.09.29.29,0,0,0,0-.42l-1-1a.3.3,0,0,0-.43,0,.29.29,0,0,0,0,.42l1,1A.31.31,0,0,0,31.54,20.8Z"/><path class="cls-1" d="M33.07,13.84h1.39a.31.31,0,0,0,0-.61H33.07a.31.31,0,0,0,0,.61Z"/><path class="cls-1" d="M40.74,39.53a.31.31,0,0,0,.22-.09l.9-.9a.31.31,0,0,0,0-.42.3.3,0,0,0-.43,0l-.9.89a.3.3,0,0,0,0,.43A.3.3,0,0,0,40.74,39.53Z"/><path class="cls-1" d="M43.18,40.42a.3.3,0,0,0-.36-.24l-1.24.26a.3.3,0,0,0,.06.6h.06L43,40.77A.3.3,0,0,0,43.18,40.42Z"/></svg>