<svg id="Layer_1" data-name="Layer 1" xmlns="http://www.w3.org/2000/svg" viewBox="0 0 50 50"><defs><style>.cls-1{fill:#fff;}</style></defs><path class="cls-1" d="M38.89,39.55H12.32a4.12,4.12,0,0,1-4.11-4.12V19.13A4.11,4.11,0,0,1,12.32,15h3.37a.42.42,0,0,1,.42.42.41.41,0,0,1-.42.41H12.32A3.28,3.28,0,0,0,9,19.13v16.3a3.28,3.28,0,0,0,3.28,3.28H38.89a3.29,3.29,0,0,0,3.28-3.28V19.13a3.29,3.29,0,0,0-3.28-3.28H35.52a.41.41,0,0,1-.42-.41.42.42,0,0,1,.42-.42h3.37A4.12,4.12,0,0,1,43,19.13v16.3A4.12,4.12,0,0,1,38.89,39.55Zm-3.37-2.16H15.69a.42.42,0,0,1,0-.84H35.52a.42.42,0,0,1,0,.84Z"/><path class="cls-1" d="M39.08,37.39H35.52a.42.42,0,0,1,0-.84h3.56a.92.92,0,0,0,.92-.93V18.94a.93.93,0,0,0-.92-.93H35.52a.41.41,0,0,1-.42-.41.42.42,0,0,1,.42-.42h3.56a1.76,1.76,0,0,1,1.76,1.76V35.62A1.77,1.77,0,0,1,39.08,37.39Zm-23.39,0H12.13a1.77,1.77,0,0,1-1.76-1.77V18.94a1.76,1.76,0,0,1,1.76-1.76h3.56a.42.42,0,0,1,.42.42.41.41,0,0,1-.42.41H12.13a.93.93,0,0,0-.93.93V35.62a.93.93,0,0,0,.93.93h3.56a.42.42,0,1,1,0,.84Z"/><path class="cls-1" d="M27.45,43.06a.42.42,0,0,1-.42-.42V39.13a.42.42,0,1,1,.84,0v3.51A.42.42,0,0,1,27.45,43.06Zm-3.69,0a.42.42,0,0,1-.42-.42V39.13a.42.42,0,0,1,.42-.42.41.41,0,0,1,.41.42v3.51A.41.41,0,0,1,23.76,43.06Z"/><path class="cls-1" d="M30.92,45.85H20.29a.42.42,0,0,1-.42-.42V42.64a.42.42,0,0,1,.42-.42H30.92a.42.42,0,0,1,.42.42v2.79A.42.42,0,0,1,30.92,45.85ZM20.71,45H30.5V43.06H20.71Z"/><path class="cls-1" d="M35.52,37.39A.42.42,0,0,1,35.1,37V12H29.63a.41.41,0,0,1-.41-.41.41.41,0,0,1,.41-.42h5.89a.41.41,0,0,1,.41.42V37A.41.41,0,0,1,35.52,37.39Zm-19.83,0a.42.42,0,0,1-.42-.42V11.59a.42.42,0,0,1,.42-.42h5.89a.41.41,0,0,1,.41.42.41.41,0,0,1-.41.41H16.11V37A.42.42,0,0,1,15.69,37.39Z"/><path class="cls-1" d="M22.92,24.09H18.31a.42.42,0,0,1-.42-.42V21.91a.42.42,0,0,1,.42-.42h4.61a.42.42,0,0,1,.42.42v1.76A.42.42,0,0,1,22.92,24.09Zm-4.19-.83H22.5v-.93H18.73v.93Z"/><path class="cls-1" d="M22.92,27.53H18.31a.41.41,0,0,1-.42-.41V25.35a.41.41,0,0,1,.42-.41h4.61a.41.41,0,0,1,.42.41v1.77A.41.41,0,0,1,22.92,27.53Zm-4.19-.83H22.5v-.93H18.73v.93Z"/><path class="cls-1" d="M22.92,31H18.31a.41.41,0,0,1-.42-.41V28.79a.41.41,0,0,1,.42-.41h4.61a.41.41,0,0,1,.42.41v1.77A.41.41,0,0,1,22.92,31Zm-4.19-.83H22.5v-.93H18.73v.93Z"/><path class="cls-1" d="M22.92,34.41H18.31a.41.41,0,0,1-.42-.41V32.23a.41.41,0,0,1,.42-.41h4.61a.41.41,0,0,1,.42.41V34A.41.41,0,0,1,22.92,34.41Zm-4.19-.83H22.5v-.93H18.73v.93Z"/><path class="cls-1" d="M32.9,23.21h-8a.42.42,0,0,1-.42-.42.41.41,0,0,1,.42-.41h8a.41.41,0,0,1,.42.41A.42.42,0,0,1,32.9,23.21Z"/><path class="cls-1" d="M32.9,26.65h-8a.42.42,0,0,1-.42-.42.41.41,0,0,1,.42-.41h8a.41.41,0,0,1,.42.41A.42.42,0,0,1,32.9,26.65Z"/><path class="cls-1" d="M32.9,30.09h-8a.42.42,0,0,1-.42-.42.41.41,0,0,1,.42-.41h8a.41.41,0,0,1,.42.41A.42.42,0,0,1,32.9,30.09Z"/><path class="cls-1" d="M32.9,33.53h-8a.41.41,0,0,1-.42-.41.42.42,0,0,1,.42-.42h8a.42.42,0,0,1,.42.42A.41.41,0,0,1,32.9,33.53Z"/><path class="cls-1" d="M25.6,20a5.45,5.45,0,1,1,5.45-5.44A5.45,5.45,0,0,1,25.6,20Zm0-10a4.61,4.61,0,1,0,4.62,4.61A4.61,4.61,0,0,0,25.6,10Z"/><path class="cls-1" d="M25.65,12.79a.41.41,0,0,1-.41-.41v-.79a.41.41,0,0,1,.41-.42.42.42,0,0,1,.42.42v.79A.41.41,0,0,1,25.65,12.79Z"/><path class="cls-1" d="M25.56,18a.41.41,0,0,1-.42-.41v-.79a.42.42,0,0,1,.42-.42.41.41,0,0,1,.41.42v.79A.41.41,0,0,1,25.56,18Z"/><path class="cls-1" d="M25.49,17.24h-.08a1.4,1.4,0,0,1-1.36-1.55.41.41,0,0,1,.42-.41.42.42,0,0,1,.42.42c0,.45.18.69.56.71s.81-.23.83-.51h0c.08-.55-.73-.87-.89-.93-1.05-.38-1.48-1-1.28-1.73A1.58,1.58,0,0,1,25.87,12a1.48,1.48,0,0,1,1.29,1.57.42.42,0,0,1-.84,0,.65.65,0,0,0-.57-.72.75.75,0,0,0-.83.63c0,.14-.11.42.76.73.37.14,1.58.67,1.43,1.82A1.57,1.57,0,0,1,25.49,17.24Z"/></svg>