<svg id="Layer_1" data-name="Layer 1" xmlns="http://www.w3.org/2000/svg" viewBox="0 0 50 50"><defs><style>.cls-1{fill:#fff;}</style></defs><path class="cls-1" d="M39.48,46.91a2.55,2.55,0,0,1-1.71-.66L34,42.74a8.72,8.72,0,0,1-4.9,1.49,8.84,8.84,0,1,1,8.12-5.39l4,3.69A2.55,2.55,0,0,1,42,44.39a2.52,2.52,0,0,1-.67,1.71A2.49,2.49,0,0,1,39.48,46.91ZM34,41.55l4.38,4a1.6,1.6,0,0,0,2.16-2.36L36,39.07l.15-.31a7.79,7.79,0,0,0,.75-3.34,7.9,7.9,0,1,0-3.23,6.35Zm-5,.39a6.53,6.53,0,1,1,6.53-6.52A6.54,6.54,0,0,1,29.05,41.94Zm0-12.13a5.61,5.61,0,1,0,5.6,5.61A5.61,5.61,0,0,0,29.05,29.81Z"/><path class="cls-1" d="M18.88,23.43h-.8a5.21,5.21,0,0,1-3.58-8.56l.33-.38,2.07,2.07-.24.32a2.28,2.28,0,0,0-.45,1.35,2.29,2.29,0,0,0,1.94,2.25h.68a2.29,2.29,0,0,0,1.94-2.25,2.26,2.26,0,0,0-.45-1.35l-.24-.32,2.07-2.07.33.38a5.22,5.22,0,0,1-3.58,8.56Zm-.75-.93h.72a4.3,4.3,0,0,0,3.93-4.27,4.24,4.24,0,0,0-.71-2.35l-.79.79a3.13,3.13,0,0,1,.41,1.56,3.21,3.21,0,0,1-2.76,3.17h-.88a3.21,3.21,0,0,1-2.6-4.18,3.39,3.39,0,0,1,.24-.55l-.78-.79a4.24,4.24,0,0,0-.71,2.35A4.3,4.3,0,0,0,18.13,22.5Z"/><path class="cls-1" d="M20.39,15.17l-.32-.25a2.54,2.54,0,0,0-3.16,0l-.32.25-2.23-2.23.37-.33a5.74,5.74,0,0,1,7.51,0l.38.33ZM15.74,13l.94.95a3.53,3.53,0,0,1,3.62,0l.94-.95a4.83,4.83,0,0,0-5.5,0Z"/><path class="cls-1" d="M28.17,38.76l-3.51-3.43.65-.66,2.85,2.79,1.67-1.68.85-.87c.58-.59,1.26-1.28,2-2l.65.66c-.73.72-1.41,1.41-2,2l-.85.87c-.6.61-1.26,1.28-2,2Z"/><polygon class="cls-1" points="24.28 42.74 9.68 42.74 9.68 8.69 37.05 8.69 37.05 31.82 36.13 31.82 36.13 9.61 10.61 9.61 10.61 41.81 24.28 41.81 24.28 42.74"/><rect class="cls-1" x="15.4" y="30.84" width="6.54" height="0.93"/><rect class="cls-1" x="15.4" y="34.35" width="5.3" height="0.93"/><rect class="cls-1" x="15.4" y="37.86" width="5.65" height="0.93"/><rect class="cls-1" x="25.7" y="14.02" width="7.37" height="0.93"/><rect class="cls-1" x="25.7" y="17.77" width="7.37" height="0.93"/><rect class="cls-1" x="25.7" y="21.51" width="7.37" height="0.93"/><rect class="cls-1" x="18.03" y="20.94" width="0.93" height="2.02"/></svg>