<svg id="Layer_1" data-name="Layer 1" xmlns="http://www.w3.org/2000/svg" viewBox="0 0 50 50"><defs><style>.cls-1{fill:#fff;}</style></defs><path class="cls-1" d="M36.52,41c-.25.14-.5.28-.76.41a17.78,17.78,0,0,1-3.7,1.39l-.74.17a17.49,17.49,0,0,1-16.2-29.12,1.15,1.15,0,0,0,.72.25A1.21,1.21,0,0,0,17,13.29a1.2,1.2,0,0,0-2.28-.74,1.21,1.21,0,0,0,.18,1.08A17.81,17.81,0,0,0,31.39,43.32l.75-.17a18.52,18.52,0,0,0,3.78-1.41l.77-.42a.19.19,0,0,0,.07-.24A.18.18,0,0,0,36.52,41ZM15,12.66a.86.86,0,0,1,1.07-.55.89.89,0,0,1,.5.43.86.86,0,0,1,0,.65.85.85,0,0,1-1.07.54A.84.84,0,0,1,15,12.66Zm28.69,5.12A17.85,17.85,0,0,0,24.31,8.4c-.23,0-.48.09-.77.17A17.28,17.28,0,0,0,19.77,10c-.26.13-.53.27-.78.42a.17.17,0,0,0-.06.23.18.18,0,0,0,.23.07c.25-.15.51-.29.76-.42a18.11,18.11,0,0,1,3.7-1.38l.75-.17a17.47,17.47,0,0,1,16.32,29,1.29,1.29,0,0,0-.33-.17,1.16,1.16,0,0,0-.91.07,1.19,1.19,0,0,0-.59.69,1.15,1.15,0,0,0,.07.91,1.17,1.17,0,0,0,.69.6,1.19,1.19,0,0,0,.37.06,1.26,1.26,0,0,0,.54-.13,1.22,1.22,0,0,0,.6-.7,1.2,1.2,0,0,0-.19-1.09A17.87,17.87,0,0,0,43.72,17.78ZM40.8,38.92a.84.84,0,0,1-.42.5.85.85,0,0,1-1.2-1h0a.85.85,0,1,1,1.62.52Zm-6.1.41a15.19,15.19,0,0,1-17-2.22,1.09,1.09,0,0,0,.17-.32,1.18,1.18,0,0,0-.07-.92,1.14,1.14,0,0,0-.7-.59,1.2,1.2,0,0,0-1.51.76,1.21,1.21,0,0,0,.77,1.52,1.19,1.19,0,0,0,.37.06,1.21,1.21,0,0,0,.55-.14.71.71,0,0,0,.18-.12A15.46,15.46,0,0,0,43,22.79c0-.22-.09-.44-.15-.67a15.89,15.89,0,0,0-1.22-3.27.17.17,0,0,0-.31.15,15.32,15.32,0,0,1,1.2,3.21c0,.21.1.43.14.64A15.15,15.15,0,0,1,34.7,39.33ZM17.17,37.18a.86.86,0,0,1-1.2-1,.86.86,0,0,1,.81-.59.84.84,0,0,1,.27,0,.88.88,0,0,1,.5.43.86.86,0,0,1-.38,1.15ZM39.41,14.3a1.2,1.2,0,0,0-.91.07,1.08,1.08,0,0,0-.18.11A15.47,15.47,0,0,0,12.69,28.93q.06.33.15.66a15.62,15.62,0,0,0,1.22,3.28.17.17,0,0,0,.16.09l.07,0a.17.17,0,0,0,.08-.23,14.9,14.9,0,0,1-1.2-3.2L13,28.86A15.12,15.12,0,0,1,38.08,14.73a1,1,0,0,0-.18.34,1.2,1.2,0,1,0,1.51-.77Zm.44,1.41a.86.86,0,0,1-1.63-.54.9.9,0,0,1,.43-.49.78.78,0,0,1,.39-.1.75.75,0,0,1,.26.05A.85.85,0,0,1,39.85,15.71Zm-7.6,17.65a.17.17,0,0,1,.14-.2.19.19,0,0,1,.2.15c0,.38.65.69,1.34.69h0c.62,0,1.35-.2,1.35-.74s-.74-.73-1.36-.73h0c-1.07,0-1.59-.36-1.59-1.1a.89.89,0,0,1,.49-.77,2.08,2.08,0,0,1,.93-.24V29.9a.17.17,0,0,1,.17-.17h0a.18.18,0,0,1,.17.17v.52c.77,0,1.34.4,1.4.9a.18.18,0,0,1-.15.19.16.16,0,0,1-.19-.15c0-.35-.58-.61-1.24-.61h0A1.9,1.9,0,0,0,33,31a.55.55,0,0,0-.32.47c0,.35.14.75,1.25.75h0c1.48,0,1.7.68,1.7,1.08,0,.62-.6,1-1.53,1.07v.54a.18.18,0,0,1-.18.17h0a.18.18,0,0,1-.17-.17v-.54C33,34.28,32.32,33.88,32.25,33.36Zm1.69,3.19h0a4.13,4.13,0,0,0,3-1.22,4.18,4.18,0,0,0,1.21-2.95,4.17,4.17,0,0,0-4.16-4.16h0a4.17,4.17,0,0,0,0,8.33Zm-2.71-6.86a3.81,3.81,0,0,1,2.7-1.13h0a3.8,3.8,0,0,1,2.7,1.12h0a3.83,3.83,0,0,1-2.7,6.53h0a3.83,3.83,0,0,1-2.71-6.52Zm5.45-8-.63-.62a.17.17,0,0,0-.22,0l-.5.38a2.6,2.6,0,0,0-.69-.29l-.09-.62a.17.17,0,0,0-.17-.15H33.5a.16.16,0,0,0-.17.14l-.09.62a3,3,0,0,0-.69.29l-.5-.38a.17.17,0,0,0-.22,0l-.63.62a.17.17,0,0,0,0,.23l.37.5a2.64,2.64,0,0,0-.28.68l-.62.09a.18.18,0,0,0-.15.17v.89a.18.18,0,0,0,.15.17l.62.09a2.64,2.64,0,0,0,.28.68l-.38.5a.18.18,0,0,0,0,.23l.63.62a.17.17,0,0,0,.22,0l.5-.38a2.6,2.6,0,0,0,.69.29l.09.62a.16.16,0,0,0,.17.14h.88a.17.17,0,0,0,.17-.14l.09-.62a3,3,0,0,0,.69-.29l.5.38a.17.17,0,0,0,.22,0l.63-.62a.18.18,0,0,0,0-.23l-.37-.5a2.71,2.71,0,0,0,.28-.68l.62-.09a.17.17,0,0,0,.15-.17V23.4a.17.17,0,0,0-.15-.17l-.62-.09a2.71,2.71,0,0,0-.28-.68l.37-.5A.18.18,0,0,0,36.68,21.73Zm-.71.62a.18.18,0,0,0,0,.19,2.63,2.63,0,0,1,.34.79.17.17,0,0,0,.14.14l.59.08v.59l-.59.08a.17.17,0,0,0-.14.14,2.75,2.75,0,0,1-.33.79.17.17,0,0,0,0,.19l.36.48-.42.41-.47-.35a.18.18,0,0,0-.2,0,2.29,2.29,0,0,1-.79.33.17.17,0,0,0-.13.14l-.09.59h-.59l-.08-.58a.17.17,0,0,0-.13-.15,2.29,2.29,0,0,1-.79-.33.19.19,0,0,0-.1,0,.21.21,0,0,0-.1,0l-.48.36-.41-.42.35-.48a.15.15,0,0,0,0-.19,2.37,2.37,0,0,1-.33-.79.17.17,0,0,0-.14-.14l-.59-.08v-.59l.59-.08a.17.17,0,0,0,.14-.14,2.37,2.37,0,0,1,.33-.79.17.17,0,0,0,0-.2l-.35-.47.41-.41.48.35a.17.17,0,0,0,.19,0,2.34,2.34,0,0,1,.8-.33.17.17,0,0,0,.13-.14l.08-.59h.59l.09.59a.17.17,0,0,0,.13.14,2.29,2.29,0,0,1,.79.33.18.18,0,0,0,.2,0l.47-.35.42.41Zm-2,.33a1.17,1.17,0,0,0-1.17,1.17,1.15,1.15,0,0,0,.34.82,1.17,1.17,0,0,0,.83.34,1.17,1.17,0,0,0,0-2.33Zm.58,1.75a.84.84,0,0,1-1.16,0,.81.81,0,0,1-.25-.58.83.83,0,0,1,.83-.83.83.83,0,0,1,.58.24.83.83,0,0,1,0,1.17Zm1.34-6v1.85a.17.17,0,0,1-.17.17h0a.16.16,0,0,1-.17-.17l0-1.85a2.08,2.08,0,0,0-2.07-2.08H21.54a2,2,0,0,0-1.47.61,2.06,2.06,0,0,0-.61,1.46V33.33a2.08,2.08,0,0,0,2.08,2.07H30a.18.18,0,0,1,.17.17.17.17,0,0,1-.17.17h-8.4a2.41,2.41,0,0,1-2.42-2.41V18.41A2.42,2.42,0,0,1,21.54,16h11.9A2.43,2.43,0,0,1,35.86,18.41Zm-14,5.33a.16.16,0,0,1,.17-.17l7.68,0h0a.18.18,0,0,1,.17.18.18.18,0,0,1-.17.17H22A.17.17,0,0,1,21.82,23.74Zm8,2.12a.17.17,0,0,1-.17.17l-7.68,0h0a.18.18,0,0,1-.17-.17A.18.18,0,0,1,22,25.7h7.68A.18.18,0,0,1,29.84,25.86Zm-.17,2.31-7.68,0h0a.18.18,0,0,1-.17-.18.18.18,0,0,1,.17-.17h7.68a.17.17,0,0,1,0,.34Zm-1.29,2a.17.17,0,0,1-.17.17H22a.17.17,0,0,1-.17-.17A.18.18,0,0,1,22,30h6.22A.16.16,0,0,1,28.38,30.14Zm0,2.14a.17.17,0,0,1-.17.17H22a.18.18,0,0,1-.17-.17.17.17,0,0,1,.17-.17h6.22A.16.16,0,0,1,28.38,32.28ZM22,19.64a.18.18,0,0,1-.17-.18.18.18,0,0,1,.17-.17H33a.17.17,0,1,1,0,.34l-11,0Zm-.16,2a.17.17,0,0,1,.17-.17h7.68a.17.17,0,0,1,.17.17.18.18,0,0,1-.17.17H22A.16.16,0,0,1,21.82,21.6Z"/><path class="cls-1" d="M27.87,43.72a18,18,0,0,1-9.3-2.61A17.82,17.82,0,0,1,11.93,34a17.61,17.61,0,0,1-1.71-5.24,17.79,17.79,0,0,1,1.52-10.56,17.68,17.68,0,0,1,3.09-4.52,1.24,1.24,0,0,1-.16-1.09,1.23,1.23,0,1,1,1.17,1.62,1.21,1.21,0,0,1-.38-.06,1.3,1.3,0,0,1-.33-.17A17.44,17.44,0,0,0,31.31,43l.74-.17a18.56,18.56,0,0,0,3.7-1.38L36.5,41a.3.3,0,0,1,.16,0,.21.21,0,0,1,.13.11.18.18,0,0,1,0,.16.17.17,0,0,1-.1.12c-.24.14-.5.29-.77.42a17.86,17.86,0,0,1-3.79,1.42c-.23.06-.49.12-.76.17a17.38,17.38,0,0,1-3.52.36Zm-12-31.95a1.16,1.16,0,0,0-1.1.8,1.17,1.17,0,0,0,.17,1l0,0,0,0a17.78,17.78,0,0,0,13,30h0a17.35,17.35,0,0,0,3.51-.36c.27-.05.52-.11.75-.17A17.67,17.67,0,0,0,35.9,41.7c.27-.13.53-.28.77-.42a.1.1,0,0,0,.06-.08.12.12,0,0,0,0-.1.12.12,0,0,0-.18,0h0l-.76.41a17.66,17.66,0,0,1-3.71,1.39l-.75.17A17.52,17.52,0,0,1,10.51,23.37,17.91,17.91,0,0,1,12,18.3a17.59,17.59,0,0,1,3.05-4.45l0,0,0,0a1.08,1.08,0,0,0,.33.18,1.13,1.13,0,0,0,.36.06,1.15,1.15,0,0,0,.36-2.25A1.13,1.13,0,0,0,15.84,11.77Zm12,29.58a15.65,15.65,0,0,1-10.36-3.93,1,1,0,0,1-.17.1,1.19,1.19,0,0,1-.56.14,1,1,0,0,1-.38-.07,1.24,1.24,0,1,1,1.49-1.74,1.26,1.26,0,0,1,.07.95,1,1,0,0,1-.16.31A15.2,15.2,0,0,0,34.68,39.3h0a15.12,15.12,0,0,0,7.94-16.44c0-.19-.08-.4-.14-.64a15.24,15.24,0,0,0-1.2-3.2.22.22,0,0,1,0-.16.22.22,0,0,1,.11-.12.2.2,0,0,1,.28.09,15.45,15.45,0,0,1,1.23,3.28c.07.26.11.47.15.67A15.5,15.5,0,0,1,27.87,41.35Zm-10.35-4,0,0A15.42,15.42,0,0,0,43,22.8c0-.2-.08-.41-.15-.67a15.05,15.05,0,0,0-1.22-3.26.13.13,0,0,0-.18-.06.12.12,0,0,0-.06.08.12.12,0,0,0,0,.1,15.46,15.46,0,0,1,1.2,3.21c.06.24.11.45.14.65a15.19,15.19,0,0,1-8,16.52h0a15.07,15.07,0,0,1-8.84,1.5,15.12,15.12,0,0,1-4.33-1.23,14.71,14.71,0,0,1-3.83-2.5l0,0,0,0a1.2,1.2,0,0,0,.16-.32,1.13,1.13,0,0,0-.07-.88,1.16,1.16,0,1,0-1.39,1.63,1.12,1.12,0,0,0,.36,0,1.21,1.21,0,0,0,.53-.12.94.94,0,0,0,.18-.12ZM40,39.9a1.23,1.23,0,0,1-1.1-.68,1.23,1.23,0,0,1-.07-.94,1.21,1.21,0,0,1,.61-.72,1.23,1.23,0,0,1,.94-.07,1,1,0,0,1,.32.16A17.44,17.44,0,0,0,24.38,8.77c-.23,0-.46.1-.75.17a17.46,17.46,0,0,0-3.69,1.38l-.76.41a.2.2,0,0,1-.28-.08.21.21,0,0,1,.07-.29l.78-.42a18.09,18.09,0,0,1,3.78-1.41c.29-.08.54-.13.77-.17a17.89,17.89,0,0,1,19.46,9.4h0A17.87,17.87,0,0,1,45.46,23a18.1,18.1,0,0,1,.06,5.35A18.42,18.42,0,0,1,44,33.44a17.75,17.75,0,0,1-3,4.5,1.22,1.22,0,0,1-.44,1.82A1.19,1.19,0,0,1,40,39.9Zm0-2.39a1.17,1.17,0,0,0-.52.12A1.17,1.17,0,0,0,39,39.18a1.16,1.16,0,0,0,.67.58,1.13,1.13,0,0,0,.36.06,1.22,1.22,0,0,0,.53-.13,1.18,1.18,0,0,0,.57-.67A1.15,1.15,0,0,0,40.91,38l0,0,0,0A17.86,17.86,0,0,0,43.69,17.8h0A17.81,17.81,0,0,0,24.32,8.44c-.23,0-.48.09-.77.17A17.9,17.9,0,0,0,19.79,10l-.78.42a.16.16,0,0,0-.06.08.12.12,0,0,0,0,.1.12.12,0,0,0,.17.05l.76-.41a17.66,17.66,0,0,1,3.71-1.39l.76-.17a17.55,17.55,0,0,1,19.08,9.23A17.23,17.23,0,0,1,45.12,23,17.74,17.74,0,0,1,43.7,33.29a17.46,17.46,0,0,1-3,4.44l0,0,0,0a1.24,1.24,0,0,0-.32-.17A1.49,1.49,0,0,0,40,37.51Zm0,2a.88.88,0,0,1-.79-.48.89.89,0,0,1-.06-.68h0a.9.9,0,0,1,.45-.51.82.82,0,0,1,.4-.1.86.86,0,0,1,.28,0,.92.92,0,0,1,.52.45.89.89,0,0,1,.05.68h0a.9.9,0,0,1-.44.52A1,1,0,0,1,40,39.55Zm-.77-1.15h0a.79.79,0,0,0,.05.62.81.81,0,0,0,.47.4.79.79,0,0,0,.62,0,.75.75,0,0,0,.4-.47h0a.79.79,0,0,0,0-.62.78.78,0,0,0-.47-.4.69.69,0,0,0-.25,0,.81.81,0,0,0-.37.09A.82.82,0,0,0,39.22,38.4ZM16.78,37.31a1,1,0,0,1-.28,0,.92.92,0,0,1-.52-.45.85.85,0,0,1-.05-.68.89.89,0,0,1,.85-.62.86.86,0,0,1,.28,0,.92.92,0,0,1,.52.45.85.85,0,0,1,.05.68.89.89,0,0,1-.44.53h0A1,1,0,0,1,16.78,37.31Zm0-1.71a.82.82,0,0,0-.72,1.19.81.81,0,0,0,1.09.35h0a.79.79,0,0,0,.41-.47.83.83,0,0,0,0-.62.81.81,0,0,0-.48-.41A.69.69,0,0,0,16.78,35.6Zm17.16,1h0a4.21,4.21,0,0,1,0-8.41h0a4.2,4.2,0,0,1,4.2,4.2,4.13,4.13,0,0,1-1.23,3A4.17,4.17,0,0,1,33.94,36.59Zm0-8.33a4.13,4.13,0,0,0-4.12,4.13A4.16,4.16,0,0,0,31,35.31a4.1,4.1,0,0,0,2.91,1.2h0a4.13,4.13,0,0,0,0-8.25Zm0,8h0a3.87,3.87,0,0,1-2.74-6.59h0a3.89,3.89,0,0,1,2.73-1.14h0a3.82,3.82,0,0,1,2.71,1.12h0v0a3.86,3.86,0,0,1,0,5.45A3.8,3.8,0,0,1,33.94,36.25Zm0-7.64a3.74,3.74,0,0,0-2.67,1.11h0a3.79,3.79,0,0,0,2.68,6.45h0a3.78,3.78,0,0,0,2.67-6.46h0a3.74,3.74,0,0,0-2.66-1.09Zm-4,7.18h-8.4a2.46,2.46,0,0,1-2.46-2.46V18.41A2.46,2.46,0,0,1,21.54,16h11.9a2.46,2.46,0,0,1,2.46,2.46v1.85a.22.22,0,0,1-.21.22.23.23,0,0,1-.22-.22V18.41a2,2,0,0,0-2-2H21.54a2,2,0,0,0-2,2V33.33a2,2,0,0,0,2,2H30a.22.22,0,0,1,0,.43ZM33.44,16H21.54a2.34,2.34,0,0,0-1.68.7,2.37,2.37,0,0,0-.7,1.68V33.33a2.38,2.38,0,0,0,2.38,2.37H30a.13.13,0,0,0,.13-.13.13.13,0,0,0-.13-.13h-8.4a2.12,2.12,0,0,1-2.12-2.11V18.41a2.12,2.12,0,0,1,2.12-2.11h11.9a2.12,2.12,0,0,1,2.11,2.12l0,1.85a.13.13,0,0,0,.13.13.13.13,0,0,0,.13-.13V18.41A2.39,2.39,0,0,0,33.44,16Zm.48,19a.21.21,0,0,1-.21-.21v-.5c-.82-.07-1.43-.48-1.5-1h0a.2.2,0,0,1,0-.16.22.22,0,0,1,.14-.08.26.26,0,0,1,.15,0,.24.24,0,0,1,.09.15c0,.35.63.65,1.3.65h0a2.14,2.14,0,0,0,.89-.17.58.58,0,0,0,.42-.53c0-.57-.72-.69-1.32-.69h0c-1.1,0-1.63-.37-1.63-1.14a.92.92,0,0,1,.51-.8,2,2,0,0,1,.91-.25V29.9a.22.22,0,0,1,.06-.15.2.2,0,0,1,.15-.06.21.21,0,0,1,.21.21v.48c.78.06,1.34.43,1.4.94a.2.2,0,0,1,0,.15.19.19,0,0,1-.15.08.2.2,0,0,1-.15,0,.23.23,0,0,1-.08-.14c0-.33-.56-.58-1.2-.58h0a1.93,1.93,0,0,0-.9.2.52.52,0,0,0-.3.44c0,.33.14.71,1.21.71h0c1.52,0,1.74.7,1.74,1.12,0,.63-.58,1.06-1.53,1.11v.5a.21.21,0,0,1-.07.15A.2.2,0,0,1,33.92,35.08Zm-1.5-1.88h0l-.09,0a.12.12,0,0,0,0,.1h0c.06.5.67.88,1.47.94h0v.58a.13.13,0,0,0,.13.13.13.13,0,0,0,.1,0,.15.15,0,0,0,0-.09v-.58h0c.93,0,1.5-.44,1.5-1,0-.39-.21-1-1.66-1h0c-1.14,0-1.29-.43-1.29-.8a.6.6,0,0,1,.34-.51,2,2,0,0,1,.94-.21h0c.68,0,1.23.28,1.28.65a.14.14,0,0,0,.05.09.1.1,0,0,0,.09,0,.11.11,0,0,0,.09,0,.16.16,0,0,0,0-.09c-.06-.47-.61-.82-1.36-.87h0V29.9a.13.13,0,0,0-.13-.13.13.13,0,0,0-.09,0,.12.12,0,0,0,0,.09v.56h0a2,2,0,0,0-.91.24.86.86,0,0,0-.47.73c0,.71.51,1.06,1.55,1.06h0c.92,0,1.4.26,1.4.77a.68.68,0,0,1-.46.61,2.38,2.38,0,0,1-.93.17h0c-.71,0-1.33-.33-1.38-.72a.19.19,0,0,0,0-.09A.13.13,0,0,0,32.42,33.2ZM14.22,33a.2.2,0,0,1-.19-.11A15.39,15.39,0,0,1,12.8,29.6q-.08-.32-.15-.66A15.55,15.55,0,0,1,20.82,12a15.34,15.34,0,0,1,4.5-1.47,15.53,15.53,0,0,1,13,3.86l.15-.09a1.23,1.23,0,0,1,.94-.08h0A1.24,1.24,0,0,1,39,16.68,1.25,1.25,0,0,1,37.93,16a1.23,1.23,0,0,1-.07-.94,1.3,1.3,0,0,1,.17-.33,15.09,15.09,0,0,0-25,14.12c0,.23.1.45.15.65a15.54,15.54,0,0,0,1.19,3.19.2.2,0,0,1-.09.29Zm13.6-22.55A15.38,15.38,0,0,0,12.73,28.92c0,.24.09.46.14.66a16.37,16.37,0,0,0,1.23,3.27.14.14,0,0,0,.12.07h.06a.14.14,0,0,0,.05-.18,15.75,15.75,0,0,1-1.2-3.21c-.05-.2-.1-.42-.15-.65a15.2,15.2,0,0,1,8-16.52,14.76,14.76,0,0,1,4.4-1.44,15,15,0,0,1,4.54-.06,15.34,15.34,0,0,1,4.35,1.28,14.89,14.89,0,0,1,3.85,2.57l0,0,0,0a1,1,0,0,0-.17.33,1.16,1.16,0,0,0,.74,1.46,1.13,1.13,0,0,0,.36.06,1.16,1.16,0,0,0,.36-2.26h0a1.15,1.15,0,0,0-.89.07,1,1,0,0,0-.16.1l0,0,0,0A15.46,15.46,0,0,0,27.82,10.45ZM22,32.5a.22.22,0,0,1-.22-.21.2.2,0,0,1,.06-.15.23.23,0,0,1,.15-.07h6.22a.21.21,0,0,1,.22.21h0a.23.23,0,0,1-.07.15.2.2,0,0,1-.15.06Zm6.21-.35H22l-.09,0a.18.18,0,0,0,0,.1.13.13,0,0,0,.13.13h6.22a.18.18,0,0,0,.1,0,.14.14,0,0,0,0-.09h0A.13.13,0,0,0,28.21,32.15ZM22,30.36a.21.21,0,1,1,0-.42h6.22a.21.21,0,0,1,.22.21h0a.22.22,0,0,1-.22.21ZM28.21,30H22a.13.13,0,0,0,0,.26h6.22a.13.13,0,0,0,.13-.13h0A.13.13,0,0,0,28.21,30ZM22,28.23a.22.22,0,0,1-.21-.22A.21.21,0,0,1,22,27.8h7.68a.21.21,0,0,1,.21.21.21.21,0,0,1-.21.21h0Zm7.68-.36H22a.13.13,0,0,0-.13.13.13.13,0,0,0,.13.13h7.68a.13.13,0,0,0,0-.26Zm3.83-.55a.21.21,0,0,1-.21-.19l-.09-.59a2.8,2.8,0,0,1-.65-.27l-.47.36a.21.21,0,0,1-.28,0L31.17,26a.23.23,0,0,1,0-.28l.36-.48a2.63,2.63,0,0,1-.27-.65l-.59-.08a.22.22,0,0,1-.18-.21V23.4a.22.22,0,0,1,.18-.21l.59-.08a2.63,2.63,0,0,1,.27-.65L31.15,22a.23.23,0,0,1,0-.28l.63-.62a.21.21,0,0,1,.27,0l.48.36a2.63,2.63,0,0,1,.65-.27l.09-.59a.2.2,0,0,1,.21-.18h.88a.21.21,0,0,1,.21.19l.09.59a2.56,2.56,0,0,1,.64.27l.48-.36a.21.21,0,0,1,.28,0l.63.62a.21.21,0,0,1,0,.28l-.36.48a2.63,2.63,0,0,1,.27.65l.6.08a.22.22,0,0,1,.18.21v.89a.22.22,0,0,1-.18.21l-.6.08a2.85,2.85,0,0,1-.26.65l.35.48a.21.21,0,0,1,0,.28l-.63.62a.23.23,0,0,1-.28,0l-.48-.36a2.48,2.48,0,0,1-.65.27l-.08.59a.21.21,0,0,1-.21.18Zm-1-1.15,0,0a2.71,2.71,0,0,0,.68.28h0l.1.64a.12.12,0,0,0,.13.11h.88a.13.13,0,0,0,.13-.11l.09-.65h0a2.64,2.64,0,0,0,.67-.28l0,0,.52.4a.14.14,0,0,0,.17,0l.63-.62a.14.14,0,0,0,0-.17l-.39-.52v0a2.71,2.71,0,0,0,.28-.68v0l.65-.09a.14.14,0,0,0,.11-.13V23.4a.14.14,0,0,0-.11-.13l-.65-.09v0a2.38,2.38,0,0,0-.28-.68v0l.39-.52a.14.14,0,0,0,0-.17L36,21.14a.14.14,0,0,0-.17,0l-.52.4,0,0a3.05,3.05,0,0,0-.68-.28h0l-.09-.64a.12.12,0,0,0-.13-.11H33.5a.12.12,0,0,0-.13.11l-.09.64h0a2.71,2.71,0,0,0-.68.28l0,0-.53-.4a.14.14,0,0,0-.17,0l-.62.62a.12.12,0,0,0,0,.17l.39.52v0a2.83,2.83,0,0,0-.29.67v0l-.65.09a.14.14,0,0,0-.11.13v.89a.14.14,0,0,0,.11.13l.65.09v0a2.83,2.83,0,0,0,.29.67v0l-.39.53a.12.12,0,0,0,0,.17l.63.62a.12.12,0,0,0,.17,0Zm1.06.8-.09-.62a.14.14,0,0,0-.1-.11,2.39,2.39,0,0,1-.81-.33.14.14,0,0,0-.15,0l-.5.38-.47-.47.38-.5a.14.14,0,0,0,0-.15,2.45,2.45,0,0,1-.34-.8.13.13,0,0,0-.11-.11l-.62-.09v-.65l.62-.09a.13.13,0,0,0,.11-.11,2.45,2.45,0,0,1,.34-.8.14.14,0,0,0,0-.15l-.38-.5L32,21.4l.5.38a.14.14,0,0,0,.15,0,2.39,2.39,0,0,1,.81-.33.14.14,0,0,0,.1-.11l.09-.62h.66l.09.62a.13.13,0,0,0,.1.11,2.42,2.42,0,0,1,.8.33.14.14,0,0,0,.15,0l.51-.38.46.47-.38.5a.14.14,0,0,0,0,.15,2.63,2.63,0,0,1,.34.81.13.13,0,0,0,.1.1l.63.09v.65l-.63.09a.16.16,0,0,0-.11.1,2.23,2.23,0,0,1-.33.81.14.14,0,0,0,0,.15l.38.5-.46.47-.51-.38a.14.14,0,0,0-.15,0,2.26,2.26,0,0,1-.8.33.13.13,0,0,0-.1.11l-.09.62ZM32.54,25.8a.28.28,0,0,1,.12,0,2.43,2.43,0,0,0,.78.32.21.21,0,0,1,.16.18l.08.55h.52l.08-.55a.2.2,0,0,1,.16-.18,2.43,2.43,0,0,0,.78-.32.2.2,0,0,1,.24,0l.45.33.37-.36-.34-.45a.21.21,0,0,1,0-.24,2.7,2.7,0,0,0,.33-.78.2.2,0,0,1,.17-.17L37,24.1v-.51l-.55-.08a.2.2,0,0,1-.17-.17,2.32,2.32,0,0,0-.33-.78.21.21,0,0,1,0-.24h0l.34-.45-.37-.36-.45.33a.2.2,0,0,1-.24,0,2.43,2.43,0,0,0-.78-.32.21.21,0,0,1-.16-.18l-.08-.55h-.52l-.08.55a.21.21,0,0,1-.16.18,2.34,2.34,0,0,0-.78.32.21.21,0,0,1-.25,0L32,21.51l-.37.36.34.45a.23.23,0,0,1,0,.24,2.41,2.41,0,0,0-.33.78.23.23,0,0,1-.18.17l-.55.08v.51l.56.08a.23.23,0,0,1,.17.17,2.41,2.41,0,0,0,.33.78.23.23,0,0,1,0,.24l-.34.45.37.36.45-.33A.18.18,0,0,1,32.54,25.8ZM22,26.09a.22.22,0,0,1-.21-.21.21.21,0,0,1,.21-.22h7.68a.22.22,0,0,1,.21.21.2.2,0,0,1-.06.15.23.23,0,0,1-.15.07Zm7.68-.36-7.68,0a.13.13,0,0,0-.13.13A.13.13,0,0,0,22,26l7.68,0a.14.14,0,0,0,.09,0,.18.18,0,0,0,0-.1A.13.13,0,0,0,29.67,25.73Zm4.27-.68a1.21,1.21,0,0,1-.86-.35,1.23,1.23,0,0,1-.35-.85,1.21,1.21,0,0,1,1.21-1.21,1.21,1.21,0,0,1,1.21,1.2,1.2,1.2,0,0,1-.36.86A1.19,1.19,0,0,1,33.94,25.05Zm0-2.33a1.13,1.13,0,0,0-1.13,1.13,1.11,1.11,0,0,0,.33.79,1.14,1.14,0,0,0,.8.33,1.11,1.11,0,0,0,.79-.33,1.12,1.12,0,0,0,0-1.59A1.11,1.11,0,0,0,33.94,22.72Zm0,2a.85.85,0,0,1-.87-.85.87.87,0,0,1,1.48-.62.88.88,0,0,1,0,1.23A.87.87,0,0,1,33.94,24.7Zm0-1.64a.8.8,0,0,0-.79.79.83.83,0,0,0,.23.55.82.82,0,0,0,1.11,0l0,0,0,0a.78.78,0,0,0,0-1.11A.76.76,0,0,0,33.94,23.06ZM22,24a.21.21,0,0,1-.21-.21h0a.21.21,0,0,1,.21-.21l7.68,0a.22.22,0,0,1,.21.22.21.21,0,0,1-.21.21Zm-.13-.21a.13.13,0,0,0,.13.13h7.68a.13.13,0,0,0,.13-.13.13.13,0,0,0-.13-.13H22A.13.13,0,0,0,21.86,23.74ZM22,21.81a.22.22,0,0,1-.22-.21h0a.21.21,0,0,1,.22-.21h7.68a.21.21,0,0,1,0,.42Zm7.68-.35H22a.13.13,0,0,0-.13.13h0a.13.13,0,0,0,.13.13h7.68a.13.13,0,0,0,0-.26ZM22,19.68h0a.22.22,0,1,1,0-.43H33a.21.21,0,1,1,0,.42Zm11-.36H22a.14.14,0,0,0-.13.13.13.13,0,0,0,.13.13H33a.12.12,0,0,0,.13-.13A.13.13,0,0,0,33,19.32Zm6-3a.92.92,0,0,1-.28-.05.9.9,0,0,1-.13-1.65,1,1,0,0,1,.41-.1.92.92,0,0,1,.28.05A.9.9,0,0,1,39,16.34Zm0-1.72a.78.78,0,0,0-.37.09.81.81,0,0,0-.41.48.83.83,0,0,0,.05.62.85.85,0,0,0,.48.41.82.82,0,0,0,1-.53l0,0,0,0a.82.82,0,0,0-.52-1A1.09,1.09,0,0,0,39,14.62Zm-23.2-.8a.92.92,0,0,1-.28-.05.9.9,0,0,1-.52-.44.94.94,0,0,1,0-.68h0a.89.89,0,0,1,1.13-.57.9.9,0,0,1,.52.44.94.94,0,0,1,.05.68.89.89,0,0,1-.45.52A.91.91,0,0,1,15.84,13.82Zm-.77-1.15h0a.83.83,0,0,0,.52,1,.81.81,0,0,0,1-.52.83.83,0,0,0-.52-1A.82.82,0,0,0,15.07,12.67Z"/></svg>